%
M48
M72
T01C0.0138
T02C0.0197
T03C0.0260
T04C0.0394
%
T01
X3000Y9330
X4000Y9330
X5000Y9330
X6000Y9380
X7000Y9880
X8000Y9380
X9000Y9380
X10000Y9380
X11000Y9380
X12000Y9880
X13000Y9380
X14000Y9380
X15000Y9380
X16000Y9380
X17000Y9880
X18000Y9380
X16350Y12430
X16000Y2480
X16000Y1930
T02
X19100Y2080
X20000Y1730
X19100Y1380
X20000Y1030
X20000Y2430
X19100Y2780
X20000Y3130
X19100Y3480
X20000Y3830
X19100Y4180
X20000Y4530
X19100Y4880
X20000Y5230
X19100Y5580
X20000Y5930
X19100Y6280
X20000Y6630
X19100Y6980
X20000Y7330
X19100Y7680
X20000Y8030
X19100Y8380
X20000Y8730
X19100Y9080
X20000Y9430
X19100Y9780
X20000Y10130
X19100Y10480
X20000Y10830
X19100Y11180
X20000Y11530
X19100Y11880
X17500Y5080
X17000Y4380
X18000Y4380
X16500Y5080
X15500Y5080
X14500Y5080
X13500Y5080
X13000Y4380
X12000Y4380
X11000Y4380
X10000Y4380
X9500Y5080
X8500Y5080
X7500Y5080
X7000Y4380
X8000Y4380
X9000Y4380
X10500Y5080
X11500Y5080
X12500Y5080
X14000Y4380
X15000Y4380
X16000Y4380
X6500Y5080
X5500Y5080
X4500Y5080
X3500Y5080
X4000Y4380
X5000Y4380
X6000Y4380
X3000Y4330
X2500Y5080
X1500Y6480
X1000Y6480
X550Y6480
X550Y6980
X1000Y6980
X1500Y6980
X1500Y7480
X1000Y7480
X550Y7480
X550Y7980
X1000Y7980
X1500Y7980
X1500Y8480
X1000Y8480
X550Y8480
T03
X6300Y13030
X6800Y13030
X7300Y13030
X7800Y13030
X8300Y13030
X8800Y13030
X9300Y13030
X9800Y13030
X10300Y13030
X10800Y13030
X11300Y13030
X11800Y13030
X12300Y13030
X12800Y13030
X13300Y13030
X13800Y13030
X14300Y13030
X14800Y13030
X22550Y10530
X22550Y10030
X22550Y9530
X22550Y9030
X22550Y8530
X22550Y8030
X22550Y7530
X22550Y7030
X22550Y6530
X22550Y6030
X22550Y5530
X22550Y5030
X22550Y4530
X22550Y4030
X22550Y3530
X22550Y3030
X22550Y2530
X22550Y2030
T04
X2600Y1130
X2600Y2130
X2500Y11030
X2500Y12030
M30
