G75*
%MOIN*%
%OFA0B0*%
%FSLAX25Y25*%
%IPPOS*%
%LPD*%
%AMOC8*
5,1,8,0,0,1.08239X$1,22.5*
%
%ADD10R,0.11000X0.03000*%
%ADD11R,0.03000X0.11000*%
D10*
X0212501Y0020300D03*
X0212501Y0025300D03*
X0212501Y0030300D03*
X0212501Y0035300D03*
X0212501Y0040300D03*
X0212501Y0045300D03*
X0212501Y0050300D03*
X0212501Y0055300D03*
X0212501Y0060300D03*
X0212501Y0065300D03*
X0212501Y0070300D03*
X0212501Y0075300D03*
X0212501Y0080300D03*
X0212501Y0085300D03*
X0212501Y0090300D03*
X0212501Y0095300D03*
X0212501Y0100300D03*
X0212501Y0105300D03*
D11*
X0063001Y0008800D03*
X0068001Y0008800D03*
X0073001Y0008800D03*
X0078001Y0008800D03*
X0083001Y0008800D03*
X0088001Y0008800D03*
X0093001Y0008800D03*
X0098001Y0008800D03*
X0103001Y0008800D03*
X0108001Y0008800D03*
X0113001Y0008800D03*
X0118001Y0008800D03*
X0123001Y0008800D03*
X0128001Y0008800D03*
X0133001Y0008800D03*
X0138001Y0008800D03*
X0143001Y0008800D03*
X0148001Y0008800D03*
X0150001Y0067300D03*
X0155001Y0067300D03*
X0160001Y0067300D03*
X0165001Y0067300D03*
X0170001Y0067300D03*
X0175001Y0067300D03*
X0180001Y0067300D03*
X0180001Y0083300D03*
X0175001Y0083300D03*
X0170001Y0083300D03*
X0165001Y0083300D03*
X0160001Y0083300D03*
X0155001Y0083300D03*
X0150001Y0083300D03*
X0145001Y0083300D03*
X0140001Y0083300D03*
X0135001Y0083300D03*
X0130001Y0083300D03*
X0125001Y0083300D03*
X0120001Y0083300D03*
X0115001Y0083300D03*
X0110001Y0083300D03*
X0105001Y0083300D03*
X0100001Y0083300D03*
X0095001Y0083300D03*
X0090001Y0083300D03*
X0085001Y0083300D03*
X0080001Y0083300D03*
X0075001Y0083300D03*
X0070001Y0083300D03*
X0065001Y0083300D03*
X0060001Y0083300D03*
X0055001Y0083300D03*
X0050001Y0083300D03*
X0045001Y0083300D03*
X0040001Y0083300D03*
X0035001Y0083300D03*
X0030001Y0083300D03*
X0025001Y0083300D03*
X0025001Y0067300D03*
X0030001Y0067300D03*
X0035001Y0067300D03*
X0040001Y0067300D03*
X0045001Y0067300D03*
X0050001Y0067300D03*
X0055001Y0067300D03*
X0060001Y0067300D03*
X0065001Y0067300D03*
X0070001Y0067300D03*
X0075001Y0067300D03*
X0080001Y0067300D03*
X0085001Y0067300D03*
X0090001Y0067300D03*
X0095001Y0067300D03*
X0100001Y0067300D03*
X0105001Y0067300D03*
X0110001Y0067300D03*
X0115001Y0067300D03*
X0120001Y0067300D03*
X0125001Y0067300D03*
X0130001Y0067300D03*
X0135001Y0067300D03*
X0140001Y0067300D03*
X0145001Y0067300D03*
X0143001Y0117300D03*
X0148001Y0117300D03*
X0138001Y0117300D03*
X0133001Y0117300D03*
X0128001Y0117300D03*
X0123001Y0117300D03*
X0118001Y0117300D03*
X0113001Y0117300D03*
X0108001Y0117300D03*
X0103001Y0117300D03*
X0098001Y0117300D03*
X0093001Y0117300D03*
X0088001Y0117300D03*
X0083001Y0117300D03*
X0078001Y0117300D03*
X0073001Y0117300D03*
X0068001Y0117300D03*
X0063001Y0117300D03*
M02*
