G75*
%MOIN*%
%OFA0B0*%
%FSLAX25Y25*%
%IPPOS*%
%LPD*%
%AMOC8*
5,1,8,0,0,1.08239X$1,22.5*
%
%ADD10R,0.01575X0.01181*%
%ADD11R,0.01181X0.01575*%
D10*
X0019013Y0015898D03*
X0019013Y0017867D03*
X0019013Y0019835D03*
X0025312Y0019835D03*
X0025312Y0017867D03*
X0025312Y0015898D03*
X0059013Y0015898D03*
X0059013Y0017867D03*
X0059013Y0019835D03*
X0065312Y0019835D03*
X0065312Y0017867D03*
X0065312Y0015898D03*
X0099013Y0015898D03*
X0099013Y0017867D03*
X0099013Y0019835D03*
X0105312Y0019835D03*
X0105312Y0017867D03*
X0105312Y0015898D03*
X0139013Y0015898D03*
X0139013Y0017867D03*
X0139013Y0019835D03*
X0145312Y0019835D03*
X0145312Y0017867D03*
X0145312Y0015898D03*
X0145312Y0045898D03*
X0145312Y0047867D03*
X0145312Y0049835D03*
X0139013Y0049835D03*
X0139013Y0047867D03*
X0139013Y0045898D03*
X0105312Y0045898D03*
X0105312Y0047867D03*
X0105312Y0049835D03*
X0099013Y0049835D03*
X0099013Y0047867D03*
X0099013Y0045898D03*
X0065312Y0045898D03*
X0065312Y0047867D03*
X0065312Y0049835D03*
X0059013Y0049835D03*
X0059013Y0047867D03*
X0059013Y0045898D03*
X0025312Y0045898D03*
X0025312Y0047867D03*
X0025312Y0049835D03*
X0019013Y0049835D03*
X0019013Y0047867D03*
X0019013Y0045898D03*
X0019013Y0075898D03*
X0019013Y0077867D03*
X0019013Y0079835D03*
X0025312Y0079835D03*
X0025312Y0077867D03*
X0025312Y0075898D03*
X0059013Y0075898D03*
X0059013Y0077867D03*
X0059013Y0079835D03*
X0065312Y0079835D03*
X0065312Y0077867D03*
X0065312Y0075898D03*
X0099013Y0075898D03*
X0099013Y0077867D03*
X0099013Y0079835D03*
X0105312Y0079835D03*
X0105312Y0077867D03*
X0105312Y0075898D03*
X0139013Y0075898D03*
X0139013Y0077867D03*
X0139013Y0079835D03*
X0145312Y0079835D03*
X0145312Y0077867D03*
X0145312Y0075898D03*
X0145312Y0105898D03*
X0145312Y0107867D03*
X0145312Y0109835D03*
X0139013Y0109835D03*
X0139013Y0107867D03*
X0139013Y0105898D03*
X0105312Y0105898D03*
X0105312Y0107867D03*
X0105312Y0109835D03*
X0099013Y0109835D03*
X0099013Y0107867D03*
X0099013Y0105898D03*
X0065312Y0105898D03*
X0065312Y0107867D03*
X0065312Y0109835D03*
X0059013Y0109835D03*
X0059013Y0107867D03*
X0059013Y0105898D03*
X0025312Y0105898D03*
X0025312Y0107867D03*
X0025312Y0109835D03*
X0019013Y0109835D03*
X0019013Y0107867D03*
X0019013Y0105898D03*
D11*
X0021178Y0104717D03*
X0023146Y0104717D03*
X0023146Y0111017D03*
X0021178Y0111017D03*
X0021178Y0081017D03*
X0023146Y0081017D03*
X0023146Y0074717D03*
X0021178Y0074717D03*
X0021178Y0051017D03*
X0023146Y0051017D03*
X0023146Y0044717D03*
X0021178Y0044717D03*
X0021178Y0021017D03*
X0023146Y0021017D03*
X0023146Y0014717D03*
X0021178Y0014717D03*
X0061178Y0014717D03*
X0063146Y0014717D03*
X0063146Y0021017D03*
X0061178Y0021017D03*
X0061178Y0044717D03*
X0063146Y0044717D03*
X0063146Y0051017D03*
X0061178Y0051017D03*
X0061178Y0074717D03*
X0063146Y0074717D03*
X0063146Y0081017D03*
X0061178Y0081017D03*
X0061178Y0104717D03*
X0063146Y0104717D03*
X0063146Y0111017D03*
X0061178Y0111017D03*
X0101178Y0111017D03*
X0103146Y0111017D03*
X0103146Y0104717D03*
X0101178Y0104717D03*
X0101178Y0081017D03*
X0103146Y0081017D03*
X0103146Y0074717D03*
X0101178Y0074717D03*
X0101178Y0051017D03*
X0103146Y0051017D03*
X0103146Y0044717D03*
X0101178Y0044717D03*
X0101178Y0021017D03*
X0103146Y0021017D03*
X0103146Y0014717D03*
X0101178Y0014717D03*
X0141178Y0014717D03*
X0143146Y0014717D03*
X0143146Y0021017D03*
X0141178Y0021017D03*
X0141178Y0044717D03*
X0143146Y0044717D03*
X0143146Y0051017D03*
X0141178Y0051017D03*
X0141178Y0074717D03*
X0143146Y0074717D03*
X0143146Y0081017D03*
X0141178Y0081017D03*
X0141178Y0104717D03*
X0143146Y0104717D03*
X0143146Y0111017D03*
X0141178Y0111017D03*
M02*
