G75*
%MOIN*%
%OFA0B0*%
%FSLAX25Y25*%
%IPPOS*%
%LPD*%
%AMOC8*
5,1,8,0,0,1.08239X$1,22.5*
%
%ADD10R,0.01575X0.01181*%
%ADD11R,0.01181X0.01575*%
%ADD12C,0.03772*%
%ADD13C,0.00600*%
D10*
X0019013Y0015898D03*
X0019013Y0017867D03*
X0019013Y0019835D03*
X0025312Y0019835D03*
X0025312Y0017867D03*
X0025312Y0015898D03*
X0059013Y0015898D03*
X0059013Y0017867D03*
X0059013Y0019835D03*
X0065312Y0019835D03*
X0065312Y0017867D03*
X0065312Y0015898D03*
X0099013Y0015898D03*
X0099013Y0017867D03*
X0099013Y0019835D03*
X0105312Y0019835D03*
X0105312Y0017867D03*
X0105312Y0015898D03*
X0139013Y0015898D03*
X0139013Y0017867D03*
X0139013Y0019835D03*
X0145312Y0019835D03*
X0145312Y0017867D03*
X0145312Y0015898D03*
X0145312Y0045898D03*
X0145312Y0047867D03*
X0145312Y0049835D03*
X0139013Y0049835D03*
X0139013Y0047867D03*
X0139013Y0045898D03*
X0105312Y0045898D03*
X0105312Y0047867D03*
X0105312Y0049835D03*
X0099013Y0049835D03*
X0099013Y0047867D03*
X0099013Y0045898D03*
X0065312Y0045898D03*
X0065312Y0047867D03*
X0065312Y0049835D03*
X0059013Y0049835D03*
X0059013Y0047867D03*
X0059013Y0045898D03*
X0025312Y0045898D03*
X0025312Y0047867D03*
X0025312Y0049835D03*
X0019013Y0049835D03*
X0019013Y0047867D03*
X0019013Y0045898D03*
X0019013Y0075898D03*
X0019013Y0077867D03*
X0019013Y0079835D03*
X0025312Y0079835D03*
X0025312Y0077867D03*
X0025312Y0075898D03*
X0059013Y0075898D03*
X0059013Y0077867D03*
X0059013Y0079835D03*
X0065312Y0079835D03*
X0065312Y0077867D03*
X0065312Y0075898D03*
X0099013Y0075898D03*
X0099013Y0077867D03*
X0099013Y0079835D03*
X0105312Y0079835D03*
X0105312Y0077867D03*
X0105312Y0075898D03*
X0139013Y0075898D03*
X0139013Y0077867D03*
X0139013Y0079835D03*
X0145312Y0079835D03*
X0145312Y0077867D03*
X0145312Y0075898D03*
X0145312Y0105898D03*
X0145312Y0107867D03*
X0145312Y0109835D03*
X0139013Y0109835D03*
X0139013Y0107867D03*
X0139013Y0105898D03*
X0105312Y0105898D03*
X0105312Y0107867D03*
X0105312Y0109835D03*
X0099013Y0109835D03*
X0099013Y0107867D03*
X0099013Y0105898D03*
X0065312Y0105898D03*
X0065312Y0107867D03*
X0065312Y0109835D03*
X0059013Y0109835D03*
X0059013Y0107867D03*
X0059013Y0105898D03*
X0025312Y0105898D03*
X0025312Y0107867D03*
X0025312Y0109835D03*
X0019013Y0109835D03*
X0019013Y0107867D03*
X0019013Y0105898D03*
D11*
X0021178Y0104717D03*
X0023146Y0104717D03*
X0023146Y0111017D03*
X0021178Y0111017D03*
X0021178Y0081017D03*
X0023146Y0081017D03*
X0023146Y0074717D03*
X0021178Y0074717D03*
X0021178Y0051017D03*
X0023146Y0051017D03*
X0023146Y0044717D03*
X0021178Y0044717D03*
X0021178Y0021017D03*
X0023146Y0021017D03*
X0023146Y0014717D03*
X0021178Y0014717D03*
X0061178Y0014717D03*
X0063146Y0014717D03*
X0063146Y0021017D03*
X0061178Y0021017D03*
X0061178Y0044717D03*
X0063146Y0044717D03*
X0063146Y0051017D03*
X0061178Y0051017D03*
X0061178Y0074717D03*
X0063146Y0074717D03*
X0063146Y0081017D03*
X0061178Y0081017D03*
X0061178Y0104717D03*
X0063146Y0104717D03*
X0063146Y0111017D03*
X0061178Y0111017D03*
X0101178Y0111017D03*
X0103146Y0111017D03*
X0103146Y0104717D03*
X0101178Y0104717D03*
X0101178Y0081017D03*
X0103146Y0081017D03*
X0103146Y0074717D03*
X0101178Y0074717D03*
X0101178Y0051017D03*
X0103146Y0051017D03*
X0103146Y0044717D03*
X0101178Y0044717D03*
X0101178Y0021017D03*
X0103146Y0021017D03*
X0103146Y0014717D03*
X0101178Y0014717D03*
X0141178Y0014717D03*
X0143146Y0014717D03*
X0143146Y0021017D03*
X0141178Y0021017D03*
X0141178Y0044717D03*
X0143146Y0044717D03*
X0143146Y0051017D03*
X0141178Y0051017D03*
X0141178Y0074717D03*
X0143146Y0074717D03*
X0143146Y0081017D03*
X0141178Y0081017D03*
X0141178Y0104717D03*
X0143146Y0104717D03*
X0143146Y0111017D03*
X0141178Y0111017D03*
D12*
X0014819Y0015040D03*
X0014817Y0020352D03*
X0029413Y0020447D03*
X0029385Y0014831D03*
X0054819Y0015040D03*
X0054817Y0020352D03*
X0069413Y0020447D03*
X0069385Y0014831D03*
X0094819Y0015040D03*
X0094817Y0020352D03*
X0109413Y0020447D03*
X0109385Y0014831D03*
X0134819Y0015040D03*
X0134817Y0020352D03*
X0149413Y0020447D03*
X0149385Y0014831D03*
X0149385Y0044831D03*
X0149413Y0050447D03*
X0134817Y0050352D03*
X0134819Y0045040D03*
X0109385Y0044831D03*
X0109413Y0050447D03*
X0094817Y0050352D03*
X0094819Y0045040D03*
X0069385Y0044831D03*
X0069413Y0050447D03*
X0054817Y0050352D03*
X0054819Y0045040D03*
X0029385Y0044831D03*
X0029413Y0050447D03*
X0014817Y0050352D03*
X0014819Y0045040D03*
X0014819Y0075040D03*
X0014817Y0080352D03*
X0029413Y0080447D03*
X0029385Y0074831D03*
X0054819Y0075040D03*
X0054817Y0080352D03*
X0069413Y0080447D03*
X0069385Y0074831D03*
X0094819Y0075040D03*
X0094817Y0080352D03*
X0109413Y0080447D03*
X0109385Y0074831D03*
X0134819Y0075040D03*
X0134817Y0080352D03*
X0149413Y0080447D03*
X0149385Y0074831D03*
X0149385Y0104831D03*
X0149413Y0110447D03*
X0134817Y0110352D03*
X0134819Y0105040D03*
X0109385Y0104831D03*
X0109413Y0110447D03*
X0094817Y0110352D03*
X0094819Y0105040D03*
X0069385Y0104831D03*
X0069413Y0110447D03*
X0054817Y0110352D03*
X0054819Y0105040D03*
X0029385Y0104831D03*
X0029413Y0110447D03*
X0014817Y0110352D03*
X0014819Y0105040D03*
D13*
X0019013Y0105898D01*
X0019613Y0105583D01*
X0021320Y0107251D01*
X0021320Y0108430D01*
X0022550Y0109659D01*
X0023141Y0110420D01*
X0023146Y0111017D01*
X0024637Y0112177D02*
X0024110Y0112704D01*
X0021789Y0112704D01*
X0021223Y0112059D01*
X0021183Y0111416D01*
X0021178Y0111017D01*
X0019013Y0109835D01*
X0016008Y0110229D01*
X0014817Y0110352D01*
X0019013Y0109835D02*
X0019013Y0107867D01*
X0019013Y0105898D02*
X0021178Y0104717D01*
X0023146Y0104717D02*
X0024702Y0103951D01*
X0028502Y0103951D01*
X0029385Y0104831D01*
X0026891Y0107954D02*
X0029413Y0110447D01*
X0026891Y0107954D02*
X0025398Y0107954D01*
X0025312Y0107867D01*
X0024191Y0109436D02*
X0023532Y0108856D01*
X0023302Y0108651D01*
X0023342Y0106657D01*
X0025312Y0105898D01*
X0024191Y0109436D02*
X0024658Y0109712D01*
X0025312Y0109835D01*
X0025346Y0110510D01*
X0024637Y0112177D01*
X0054817Y0110352D02*
X0056008Y0110229D01*
X0059013Y0109835D01*
X0061178Y0111017D01*
X0061183Y0111416D01*
X0061223Y0112059D01*
X0061789Y0112704D01*
X0064110Y0112704D01*
X0064637Y0112177D01*
X0065346Y0110510D01*
X0065312Y0109835D01*
X0064658Y0109712D01*
X0064191Y0109436D01*
X0063532Y0108856D01*
X0063302Y0108651D01*
X0063342Y0106657D01*
X0065312Y0105898D01*
X0065312Y0107867D02*
X0065398Y0107954D01*
X0066891Y0107954D01*
X0069413Y0110447D01*
X0063141Y0110420D02*
X0063146Y0111017D01*
X0063141Y0110420D02*
X0062550Y0109659D01*
X0061320Y0108430D01*
X0061320Y0107251D01*
X0059613Y0105583D01*
X0059013Y0105898D01*
X0054819Y0105040D01*
X0059013Y0105898D02*
X0061178Y0104717D01*
X0063146Y0104717D02*
X0064702Y0103951D01*
X0068502Y0103951D01*
X0069385Y0104831D01*
X0059013Y0107867D02*
X0059013Y0109835D01*
X0061789Y0082704D02*
X0061223Y0082059D01*
X0061183Y0081416D01*
X0061178Y0081017D01*
X0059013Y0079835D01*
X0056008Y0080229D01*
X0054817Y0080352D01*
X0059013Y0079835D02*
X0059013Y0077867D01*
X0059013Y0075898D02*
X0059613Y0075583D01*
X0061320Y0077251D01*
X0061320Y0078430D01*
X0062550Y0079659D01*
X0063141Y0080420D01*
X0063146Y0081017D01*
X0064637Y0082177D02*
X0065346Y0080510D01*
X0065312Y0079835D01*
X0064658Y0079712D01*
X0064191Y0079436D01*
X0063532Y0078856D01*
X0063302Y0078651D01*
X0063342Y0076657D01*
X0065312Y0075898D01*
X0065312Y0077867D02*
X0065398Y0077954D01*
X0066891Y0077954D01*
X0069413Y0080447D01*
X0064637Y0082177D02*
X0064110Y0082704D01*
X0061789Y0082704D01*
X0059013Y0075898D02*
X0054819Y0075040D01*
X0059013Y0075898D02*
X0061178Y0074717D01*
X0063146Y0074717D02*
X0064702Y0073951D01*
X0068502Y0073951D01*
X0069385Y0074831D01*
X0094819Y0075040D02*
X0099013Y0075898D01*
X0099613Y0075583D01*
X0101320Y0077251D01*
X0101320Y0078430D01*
X0102550Y0079659D01*
X0103141Y0080420D01*
X0103146Y0081017D01*
X0104637Y0082177D02*
X0105346Y0080510D01*
X0105312Y0079835D01*
X0104658Y0079712D01*
X0104191Y0079436D01*
X0103532Y0078856D01*
X0103302Y0078651D01*
X0103342Y0076657D01*
X0105312Y0075898D01*
X0105312Y0077867D02*
X0105398Y0077954D01*
X0106891Y0077954D01*
X0109413Y0080447D01*
X0104637Y0082177D02*
X0104110Y0082704D01*
X0101789Y0082704D01*
X0101223Y0082059D01*
X0101183Y0081416D01*
X0101178Y0081017D01*
X0099013Y0079835D01*
X0096008Y0080229D01*
X0094817Y0080352D01*
X0099013Y0079835D02*
X0099013Y0077867D01*
X0099013Y0075898D02*
X0101178Y0074717D01*
X0103146Y0074717D02*
X0104702Y0073951D01*
X0108502Y0073951D01*
X0109385Y0074831D01*
X0134819Y0075040D02*
X0139013Y0075898D01*
X0139613Y0075583D01*
X0141320Y0077251D01*
X0141320Y0078430D01*
X0142550Y0079659D01*
X0143141Y0080420D01*
X0143146Y0081017D01*
X0144637Y0082177D02*
X0145346Y0080510D01*
X0145312Y0079835D01*
X0144658Y0079712D01*
X0144191Y0079436D01*
X0143532Y0078856D01*
X0143302Y0078651D01*
X0143342Y0076657D01*
X0145312Y0075898D01*
X0145312Y0077867D02*
X0145398Y0077954D01*
X0146891Y0077954D01*
X0149413Y0080447D01*
X0144637Y0082177D02*
X0144110Y0082704D01*
X0141789Y0082704D01*
X0141223Y0082059D01*
X0141183Y0081416D01*
X0141178Y0081017D01*
X0139013Y0079835D01*
X0136008Y0080229D01*
X0134817Y0080352D01*
X0139013Y0079835D02*
X0139013Y0077867D01*
X0139013Y0075898D02*
X0141178Y0074717D01*
X0143146Y0074717D02*
X0144702Y0073951D01*
X0148502Y0073951D01*
X0149385Y0074831D01*
X0144110Y0052704D02*
X0141789Y0052704D01*
X0141223Y0052059D01*
X0141183Y0051416D01*
X0141178Y0051017D01*
X0139013Y0049835D01*
X0136008Y0050229D01*
X0134817Y0050352D01*
X0139013Y0049835D02*
X0139013Y0047867D01*
X0139613Y0045583D02*
X0141320Y0047251D01*
X0141320Y0048430D01*
X0142550Y0049659D01*
X0143141Y0050420D01*
X0143146Y0051017D01*
X0144637Y0052177D02*
X0145346Y0050510D01*
X0145312Y0049835D01*
X0144658Y0049712D01*
X0144191Y0049436D01*
X0143532Y0048856D01*
X0143302Y0048651D01*
X0143342Y0046657D01*
X0145312Y0045898D01*
X0144702Y0043951D02*
X0143146Y0044717D01*
X0144702Y0043951D02*
X0148502Y0043951D01*
X0149385Y0044831D01*
X0146891Y0047954D02*
X0145398Y0047954D01*
X0145312Y0047867D01*
X0146891Y0047954D02*
X0149413Y0050447D01*
X0144637Y0052177D02*
X0144110Y0052704D01*
X0139613Y0045583D02*
X0139013Y0045898D01*
X0134819Y0045040D01*
X0139013Y0045898D02*
X0141178Y0044717D01*
X0141789Y0022704D02*
X0141223Y0022059D01*
X0141183Y0021416D01*
X0141178Y0021017D01*
X0139013Y0019835D01*
X0136008Y0020229D01*
X0134817Y0020352D01*
X0139013Y0019835D02*
X0139013Y0017867D01*
X0139613Y0015583D02*
X0141320Y0017251D01*
X0141320Y0018430D01*
X0142550Y0019659D01*
X0143141Y0020420D01*
X0143146Y0021017D01*
X0144637Y0022177D02*
X0145346Y0020510D01*
X0145312Y0019835D01*
X0144658Y0019712D01*
X0144191Y0019436D01*
X0143532Y0018856D01*
X0143302Y0018651D01*
X0143342Y0016657D01*
X0145312Y0015898D01*
X0144702Y0013951D02*
X0143146Y0014717D01*
X0144702Y0013951D02*
X0148502Y0013951D01*
X0149385Y0014831D01*
X0146891Y0017954D02*
X0145398Y0017954D01*
X0145312Y0017867D01*
X0146891Y0017954D02*
X0149413Y0020447D01*
X0144637Y0022177D02*
X0144110Y0022704D01*
X0141789Y0022704D01*
X0139013Y0015898D02*
X0139613Y0015583D01*
X0139013Y0015898D02*
X0134819Y0015040D01*
X0139013Y0015898D02*
X0141178Y0014717D01*
X0109385Y0014831D02*
X0108502Y0013951D01*
X0104702Y0013951D01*
X0103146Y0014717D01*
X0101178Y0014717D02*
X0099013Y0015898D01*
X0099613Y0015583D01*
X0101320Y0017251D01*
X0101320Y0018430D01*
X0102550Y0019659D01*
X0103141Y0020420D01*
X0103146Y0021017D01*
X0104637Y0022177D02*
X0105346Y0020510D01*
X0105312Y0019835D01*
X0104658Y0019712D01*
X0104191Y0019436D01*
X0103532Y0018856D01*
X0103302Y0018651D01*
X0103342Y0016657D01*
X0105312Y0015898D01*
X0105312Y0017867D02*
X0105398Y0017954D01*
X0106891Y0017954D01*
X0109413Y0020447D01*
X0104637Y0022177D02*
X0104110Y0022704D01*
X0101789Y0022704D01*
X0101223Y0022059D01*
X0101183Y0021416D01*
X0101178Y0021017D01*
X0099013Y0019835D01*
X0096008Y0020229D01*
X0094817Y0020352D01*
X0099013Y0019835D02*
X0099013Y0017867D01*
X0099013Y0015898D02*
X0094819Y0015040D01*
X0069385Y0014831D02*
X0068502Y0013951D01*
X0064702Y0013951D01*
X0063146Y0014717D01*
X0063342Y0016657D02*
X0065312Y0015898D01*
X0063342Y0016657D02*
X0063302Y0018651D01*
X0063532Y0018856D01*
X0064191Y0019436D01*
X0064658Y0019712D01*
X0065312Y0019835D01*
X0065346Y0020510D01*
X0064637Y0022177D01*
X0064110Y0022704D01*
X0061789Y0022704D01*
X0061223Y0022059D01*
X0061183Y0021416D01*
X0061178Y0021017D01*
X0059013Y0019835D01*
X0056008Y0020229D01*
X0054817Y0020352D01*
X0059013Y0019835D02*
X0059013Y0017867D01*
X0059613Y0015583D02*
X0061320Y0017251D01*
X0061320Y0018430D01*
X0062550Y0019659D01*
X0063141Y0020420D01*
X0063146Y0021017D01*
X0065398Y0017954D02*
X0066891Y0017954D01*
X0069413Y0020447D01*
X0065398Y0017954D02*
X0065312Y0017867D01*
X0061178Y0014717D02*
X0059013Y0015898D01*
X0059613Y0015583D01*
X0059013Y0015898D02*
X0054819Y0015040D01*
X0029385Y0014831D02*
X0028502Y0013951D01*
X0024702Y0013951D01*
X0023146Y0014717D01*
X0023342Y0016657D02*
X0025312Y0015898D01*
X0023342Y0016657D02*
X0023302Y0018651D01*
X0023532Y0018856D01*
X0024191Y0019436D01*
X0024658Y0019712D01*
X0025312Y0019835D01*
X0025346Y0020510D01*
X0024637Y0022177D01*
X0024110Y0022704D01*
X0021789Y0022704D01*
X0021223Y0022059D01*
X0021183Y0021416D01*
X0021178Y0021017D01*
X0019013Y0019835D01*
X0016008Y0020229D01*
X0014817Y0020352D01*
X0019013Y0019835D02*
X0019013Y0017867D01*
X0019013Y0015898D02*
X0019613Y0015583D01*
X0021320Y0017251D01*
X0021320Y0018430D01*
X0022550Y0019659D01*
X0023141Y0020420D01*
X0023146Y0021017D01*
X0025398Y0017954D02*
X0026891Y0017954D01*
X0029413Y0020447D01*
X0025398Y0017954D02*
X0025312Y0017867D01*
X0021178Y0014717D02*
X0019013Y0015898D01*
X0014819Y0015040D01*
X0024702Y0043951D02*
X0028502Y0043951D01*
X0029385Y0044831D01*
X0026891Y0047954D02*
X0025398Y0047954D01*
X0025312Y0047867D01*
X0026891Y0047954D02*
X0029413Y0050447D01*
X0025346Y0050510D02*
X0025312Y0049835D01*
X0024658Y0049712D01*
X0024191Y0049436D01*
X0023532Y0048856D01*
X0023302Y0048651D01*
X0023342Y0046657D01*
X0025312Y0045898D01*
X0024702Y0043951D02*
X0023146Y0044717D01*
X0021178Y0044717D02*
X0019013Y0045898D01*
X0019613Y0045583D01*
X0021320Y0047251D01*
X0021320Y0048430D01*
X0022550Y0049659D01*
X0023141Y0050420D01*
X0023146Y0051017D01*
X0024637Y0052177D02*
X0024110Y0052704D01*
X0021789Y0052704D01*
X0021223Y0052059D01*
X0021183Y0051416D01*
X0021178Y0051017D01*
X0019013Y0049835D01*
X0016008Y0050229D01*
X0014817Y0050352D01*
X0019013Y0049835D02*
X0019013Y0047867D01*
X0019013Y0045898D02*
X0014819Y0045040D01*
X0025346Y0050510D02*
X0024637Y0052177D01*
X0024702Y0073951D02*
X0028502Y0073951D01*
X0029385Y0074831D01*
X0026891Y0077954D02*
X0025398Y0077954D01*
X0025312Y0077867D01*
X0026891Y0077954D02*
X0029413Y0080447D01*
X0025346Y0080510D02*
X0025312Y0079835D01*
X0024658Y0079712D01*
X0024191Y0079436D01*
X0023532Y0078856D01*
X0023302Y0078651D01*
X0023342Y0076657D01*
X0025312Y0075898D01*
X0024702Y0073951D02*
X0023146Y0074717D01*
X0021178Y0074717D02*
X0019013Y0075898D01*
X0019613Y0075583D01*
X0021320Y0077251D01*
X0021320Y0078430D01*
X0022550Y0079659D01*
X0023141Y0080420D01*
X0023146Y0081017D01*
X0024637Y0082177D02*
X0024110Y0082704D01*
X0021789Y0082704D01*
X0021223Y0082059D01*
X0021183Y0081416D01*
X0021178Y0081017D01*
X0019013Y0079835D01*
X0016008Y0080229D01*
X0014817Y0080352D01*
X0019013Y0079835D02*
X0019013Y0077867D01*
X0019013Y0075898D02*
X0014819Y0075040D01*
X0025346Y0080510D02*
X0024637Y0082177D01*
X0061223Y0052059D02*
X0061183Y0051416D01*
X0061178Y0051017D01*
X0059013Y0049835D01*
X0056008Y0050229D01*
X0054817Y0050352D01*
X0059013Y0049835D02*
X0059013Y0047867D01*
X0059613Y0045583D02*
X0061320Y0047251D01*
X0061320Y0048430D01*
X0062550Y0049659D01*
X0063141Y0050420D01*
X0063146Y0051017D01*
X0064637Y0052177D02*
X0065346Y0050510D01*
X0065312Y0049835D01*
X0064658Y0049712D01*
X0064191Y0049436D01*
X0063532Y0048856D01*
X0063302Y0048651D01*
X0063342Y0046657D01*
X0065312Y0045898D01*
X0064702Y0043951D02*
X0063146Y0044717D01*
X0064702Y0043951D02*
X0068502Y0043951D01*
X0069385Y0044831D01*
X0066891Y0047954D02*
X0065398Y0047954D01*
X0065312Y0047867D01*
X0066891Y0047954D02*
X0069413Y0050447D01*
X0064637Y0052177D02*
X0064110Y0052704D01*
X0061789Y0052704D01*
X0061223Y0052059D01*
X0059013Y0045898D02*
X0059613Y0045583D01*
X0059013Y0045898D02*
X0054819Y0045040D01*
X0059013Y0045898D02*
X0061178Y0044717D01*
X0094819Y0045040D02*
X0099013Y0045898D01*
X0099613Y0045583D01*
X0101320Y0047251D01*
X0101320Y0048430D01*
X0102550Y0049659D01*
X0103141Y0050420D01*
X0103146Y0051017D01*
X0104637Y0052177D02*
X0105346Y0050510D01*
X0105312Y0049835D01*
X0104658Y0049712D01*
X0104191Y0049436D01*
X0103532Y0048856D01*
X0103302Y0048651D01*
X0103342Y0046657D01*
X0105312Y0045898D01*
X0105312Y0047867D02*
X0105398Y0047954D01*
X0106891Y0047954D01*
X0109413Y0050447D01*
X0104637Y0052177D02*
X0104110Y0052704D01*
X0101789Y0052704D01*
X0101223Y0052059D01*
X0101183Y0051416D01*
X0101178Y0051017D01*
X0099013Y0049835D01*
X0096008Y0050229D01*
X0094817Y0050352D01*
X0099013Y0049835D02*
X0099013Y0047867D01*
X0099013Y0045898D02*
X0101178Y0044717D01*
X0103146Y0044717D02*
X0104702Y0043951D01*
X0108502Y0043951D01*
X0109385Y0044831D01*
X0108502Y0103951D02*
X0104702Y0103951D01*
X0103146Y0104717D01*
X0103342Y0106657D02*
X0103302Y0108651D01*
X0103532Y0108856D01*
X0104191Y0109436D01*
X0104658Y0109712D01*
X0105312Y0109835D01*
X0105346Y0110510D01*
X0104637Y0112177D01*
X0104110Y0112704D01*
X0101789Y0112704D01*
X0101223Y0112059D01*
X0101183Y0111416D01*
X0101178Y0111017D01*
X0099013Y0109835D01*
X0096008Y0110229D01*
X0094817Y0110352D01*
X0099013Y0109835D02*
X0099013Y0107867D01*
X0099013Y0105898D02*
X0099613Y0105583D01*
X0101320Y0107251D01*
X0101320Y0108430D01*
X0102550Y0109659D01*
X0103141Y0110420D01*
X0103146Y0111017D01*
X0105398Y0107954D02*
X0106891Y0107954D01*
X0109413Y0110447D01*
X0105398Y0107954D02*
X0105312Y0107867D01*
X0105312Y0105898D02*
X0103342Y0106657D01*
X0101178Y0104717D02*
X0099013Y0105898D01*
X0094819Y0105040D01*
X0108502Y0103951D02*
X0109385Y0104831D01*
X0134819Y0105040D02*
X0139013Y0105898D01*
X0139613Y0105583D01*
X0141320Y0107251D01*
X0141320Y0108430D01*
X0142550Y0109659D01*
X0143141Y0110420D01*
X0143146Y0111017D01*
X0144637Y0112177D02*
X0145346Y0110510D01*
X0145312Y0109835D01*
X0144658Y0109712D01*
X0144191Y0109436D01*
X0143532Y0108856D01*
X0143302Y0108651D01*
X0143342Y0106657D01*
X0145312Y0105898D01*
X0145312Y0107867D02*
X0145398Y0107954D01*
X0146891Y0107954D01*
X0149413Y0110447D01*
X0144637Y0112177D02*
X0144110Y0112704D01*
X0141789Y0112704D01*
X0141223Y0112059D01*
X0141183Y0111416D01*
X0141178Y0111017D01*
X0139013Y0109835D01*
X0136008Y0110229D01*
X0134817Y0110352D01*
X0139013Y0109835D02*
X0139013Y0107867D01*
X0139013Y0105898D02*
X0141178Y0104717D01*
X0143146Y0104717D02*
X0144702Y0103951D01*
X0148502Y0103951D01*
X0149385Y0104831D01*
M02*
