G75*
%MOIN*%
%OFA0B0*%
%FSLAX25Y25*%
%IPPOS*%
%LPD*%
%AMOC8*
5,1,8,0,0,1.08239X$1,22.5*
%
%ADD10C,0.00600*%
%ADD11C,0.00500*%
%ADD12C,0.00787*%
D10*
X0011143Y0011182D02*
X0011143Y0023662D01*
X0011261Y0024056D01*
X0033780Y0023977D01*
X0033820Y0011300D01*
X0011143Y0011182D01*
X0011143Y0041182D02*
X0011143Y0053662D01*
X0011261Y0054056D01*
X0033780Y0053977D01*
X0033820Y0041300D01*
X0011143Y0041182D01*
X0011143Y0071182D02*
X0011143Y0083662D01*
X0011261Y0084056D01*
X0033780Y0083977D01*
X0033820Y0071300D01*
X0011143Y0071182D01*
X0011143Y0101182D02*
X0011143Y0113662D01*
X0011261Y0114056D01*
X0033780Y0113977D01*
X0033820Y0101300D01*
X0011143Y0101182D01*
X0051143Y0101182D02*
X0051143Y0113662D01*
X0051261Y0114056D01*
X0073780Y0113977D01*
X0073820Y0101300D01*
X0051143Y0101182D01*
X0051261Y0084056D02*
X0051143Y0083662D01*
X0051143Y0071182D01*
X0073820Y0071300D01*
X0073780Y0083977D01*
X0051261Y0084056D01*
X0051261Y0054056D02*
X0051143Y0053662D01*
X0051143Y0041182D01*
X0073820Y0041300D01*
X0073780Y0053977D01*
X0051261Y0054056D01*
X0051261Y0024056D02*
X0051143Y0023662D01*
X0051143Y0011182D01*
X0073820Y0011300D01*
X0073780Y0023977D01*
X0051261Y0024056D01*
X0091143Y0023662D02*
X0091143Y0011182D01*
X0113820Y0011300D01*
X0113780Y0023977D01*
X0091261Y0024056D01*
X0091143Y0023662D01*
X0091143Y0041182D02*
X0091143Y0053662D01*
X0091261Y0054056D01*
X0113780Y0053977D01*
X0113820Y0041300D01*
X0091143Y0041182D01*
X0091143Y0071182D02*
X0091143Y0083662D01*
X0091261Y0084056D01*
X0113780Y0083977D01*
X0113820Y0071300D01*
X0091143Y0071182D01*
X0091143Y0101182D02*
X0091143Y0113662D01*
X0091261Y0114056D01*
X0113780Y0113977D01*
X0113820Y0101300D01*
X0091143Y0101182D01*
X0131143Y0101182D02*
X0131143Y0113662D01*
X0131261Y0114056D01*
X0153780Y0113977D01*
X0153820Y0101300D01*
X0131143Y0101182D01*
X0131261Y0084056D02*
X0131143Y0083662D01*
X0131143Y0071182D01*
X0153820Y0071300D01*
X0153780Y0083977D01*
X0131261Y0084056D01*
X0131261Y0054056D02*
X0131143Y0053662D01*
X0131143Y0041182D01*
X0153820Y0041300D01*
X0153780Y0053977D01*
X0131261Y0054056D01*
X0131261Y0024056D02*
X0131143Y0023662D01*
X0131143Y0011182D01*
X0153820Y0011300D01*
X0153780Y0023977D01*
X0131261Y0024056D01*
D11*
X0138225Y0021804D02*
X0138225Y0021410D01*
X0138225Y0021804D02*
X0139800Y0021804D01*
X0144524Y0021804D02*
X0146099Y0021804D01*
X0146099Y0021410D01*
X0146099Y0014324D02*
X0146099Y0013930D01*
X0144524Y0013930D01*
X0139800Y0013930D02*
X0138225Y0013930D01*
X0138225Y0014324D01*
X0106099Y0014324D02*
X0106099Y0013930D01*
X0104524Y0013930D01*
X0099800Y0013930D02*
X0098225Y0013930D01*
X0098225Y0014324D01*
X0098225Y0021410D02*
X0098225Y0021804D01*
X0099800Y0021804D01*
X0104524Y0021804D02*
X0106099Y0021804D01*
X0106099Y0021410D01*
X0106099Y0043930D02*
X0104524Y0043930D01*
X0106099Y0043930D02*
X0106099Y0044324D01*
X0099800Y0043930D02*
X0098225Y0043930D01*
X0098225Y0044324D01*
X0098225Y0051410D02*
X0098225Y0051804D01*
X0099800Y0051804D01*
X0104524Y0051804D02*
X0106099Y0051804D01*
X0106099Y0051410D01*
X0106099Y0073930D02*
X0104524Y0073930D01*
X0106099Y0073930D02*
X0106099Y0074324D01*
X0099800Y0073930D02*
X0098225Y0073930D01*
X0098225Y0074324D01*
X0098225Y0081410D02*
X0098225Y0081804D01*
X0099800Y0081804D01*
X0104524Y0081804D02*
X0106099Y0081804D01*
X0106099Y0081410D01*
X0106099Y0103930D02*
X0104524Y0103930D01*
X0106099Y0103930D02*
X0106099Y0104324D01*
X0099800Y0103930D02*
X0098225Y0103930D01*
X0098225Y0104324D01*
X0098225Y0111410D02*
X0098225Y0111804D01*
X0099800Y0111804D01*
X0104524Y0111804D02*
X0106099Y0111804D01*
X0106099Y0111410D01*
X0138225Y0111410D02*
X0138225Y0111804D01*
X0139800Y0111804D01*
X0144524Y0111804D02*
X0146099Y0111804D01*
X0146099Y0111410D01*
X0146099Y0104324D02*
X0146099Y0103930D01*
X0144524Y0103930D01*
X0139800Y0103930D02*
X0138225Y0103930D01*
X0138225Y0104324D01*
X0138225Y0081804D02*
X0138225Y0081410D01*
X0138225Y0081804D02*
X0139800Y0081804D01*
X0144524Y0081804D02*
X0146099Y0081804D01*
X0146099Y0081410D01*
X0146099Y0074324D02*
X0146099Y0073930D01*
X0144524Y0073930D01*
X0139800Y0073930D02*
X0138225Y0073930D01*
X0138225Y0074324D01*
X0138225Y0051804D02*
X0138225Y0051410D01*
X0138225Y0051804D02*
X0139800Y0051804D01*
X0144524Y0051804D02*
X0146099Y0051804D01*
X0146099Y0051410D01*
X0146099Y0044324D02*
X0146099Y0043930D01*
X0144524Y0043930D01*
X0139800Y0043930D02*
X0138225Y0043930D01*
X0138225Y0044324D01*
X0066099Y0044324D02*
X0066099Y0043930D01*
X0064524Y0043930D01*
X0059800Y0043930D02*
X0058225Y0043930D01*
X0058225Y0044324D01*
X0058225Y0051410D02*
X0058225Y0051804D01*
X0059800Y0051804D01*
X0064524Y0051804D02*
X0066099Y0051804D01*
X0066099Y0051410D01*
X0066099Y0073930D02*
X0064524Y0073930D01*
X0066099Y0073930D02*
X0066099Y0074324D01*
X0059800Y0073930D02*
X0058225Y0073930D01*
X0058225Y0074324D01*
X0058225Y0081410D02*
X0058225Y0081804D01*
X0059800Y0081804D01*
X0064524Y0081804D02*
X0066099Y0081804D01*
X0066099Y0081410D01*
X0066099Y0103930D02*
X0064524Y0103930D01*
X0066099Y0103930D02*
X0066099Y0104324D01*
X0059800Y0103930D02*
X0058225Y0103930D01*
X0058225Y0104324D01*
X0058225Y0111410D02*
X0058225Y0111804D01*
X0059800Y0111804D01*
X0064524Y0111804D02*
X0066099Y0111804D01*
X0066099Y0111410D01*
X0026099Y0111410D02*
X0026099Y0111804D01*
X0024524Y0111804D01*
X0019800Y0111804D02*
X0018225Y0111804D01*
X0018225Y0111410D01*
X0018225Y0104324D02*
X0018225Y0103930D01*
X0019800Y0103930D01*
X0024524Y0103930D02*
X0026099Y0103930D01*
X0026099Y0104324D01*
X0026099Y0081804D02*
X0024524Y0081804D01*
X0026099Y0081804D02*
X0026099Y0081410D01*
X0019800Y0081804D02*
X0018225Y0081804D01*
X0018225Y0081410D01*
X0018225Y0074324D02*
X0018225Y0073930D01*
X0019800Y0073930D01*
X0024524Y0073930D02*
X0026099Y0073930D01*
X0026099Y0074324D01*
X0026099Y0051804D02*
X0024524Y0051804D01*
X0026099Y0051804D02*
X0026099Y0051410D01*
X0019800Y0051804D02*
X0018225Y0051804D01*
X0018225Y0051410D01*
X0018225Y0044324D02*
X0018225Y0043930D01*
X0019800Y0043930D01*
X0024524Y0043930D02*
X0026099Y0043930D01*
X0026099Y0044324D01*
X0026099Y0021804D02*
X0024524Y0021804D01*
X0026099Y0021804D02*
X0026099Y0021410D01*
X0019800Y0021804D02*
X0018225Y0021804D01*
X0018225Y0021410D01*
X0018225Y0014324D02*
X0018225Y0013930D01*
X0019800Y0013930D01*
X0024524Y0013930D02*
X0026099Y0013930D01*
X0026099Y0014324D01*
X0058225Y0014324D02*
X0058225Y0013930D01*
X0059800Y0013930D01*
X0064524Y0013930D02*
X0066099Y0013930D01*
X0066099Y0014324D01*
X0066099Y0021410D02*
X0066099Y0021804D01*
X0064524Y0021804D01*
X0059800Y0021804D02*
X0058225Y0021804D01*
X0058225Y0021410D01*
D12*
X0060823Y0012709D02*
X0060825Y0012748D01*
X0060831Y0012787D01*
X0060841Y0012825D01*
X0060854Y0012862D01*
X0060871Y0012897D01*
X0060891Y0012931D01*
X0060915Y0012962D01*
X0060942Y0012991D01*
X0060971Y0013017D01*
X0061003Y0013040D01*
X0061037Y0013060D01*
X0061073Y0013076D01*
X0061110Y0013088D01*
X0061149Y0013097D01*
X0061188Y0013102D01*
X0061227Y0013103D01*
X0061266Y0013100D01*
X0061305Y0013093D01*
X0061342Y0013082D01*
X0061379Y0013068D01*
X0061414Y0013050D01*
X0061447Y0013029D01*
X0061478Y0013004D01*
X0061506Y0012977D01*
X0061531Y0012947D01*
X0061553Y0012914D01*
X0061572Y0012880D01*
X0061587Y0012844D01*
X0061599Y0012806D01*
X0061607Y0012768D01*
X0061611Y0012729D01*
X0061611Y0012689D01*
X0061607Y0012650D01*
X0061599Y0012612D01*
X0061587Y0012574D01*
X0061572Y0012538D01*
X0061553Y0012504D01*
X0061531Y0012471D01*
X0061506Y0012441D01*
X0061478Y0012414D01*
X0061447Y0012389D01*
X0061414Y0012368D01*
X0061379Y0012350D01*
X0061342Y0012336D01*
X0061305Y0012325D01*
X0061266Y0012318D01*
X0061227Y0012315D01*
X0061188Y0012316D01*
X0061149Y0012321D01*
X0061110Y0012330D01*
X0061073Y0012342D01*
X0061037Y0012358D01*
X0061003Y0012378D01*
X0060971Y0012401D01*
X0060942Y0012427D01*
X0060915Y0012456D01*
X0060891Y0012487D01*
X0060871Y0012521D01*
X0060854Y0012556D01*
X0060841Y0012593D01*
X0060831Y0012631D01*
X0060825Y0012670D01*
X0060823Y0012709D01*
X0060823Y0042709D02*
X0060825Y0042748D01*
X0060831Y0042787D01*
X0060841Y0042825D01*
X0060854Y0042862D01*
X0060871Y0042897D01*
X0060891Y0042931D01*
X0060915Y0042962D01*
X0060942Y0042991D01*
X0060971Y0043017D01*
X0061003Y0043040D01*
X0061037Y0043060D01*
X0061073Y0043076D01*
X0061110Y0043088D01*
X0061149Y0043097D01*
X0061188Y0043102D01*
X0061227Y0043103D01*
X0061266Y0043100D01*
X0061305Y0043093D01*
X0061342Y0043082D01*
X0061379Y0043068D01*
X0061414Y0043050D01*
X0061447Y0043029D01*
X0061478Y0043004D01*
X0061506Y0042977D01*
X0061531Y0042947D01*
X0061553Y0042914D01*
X0061572Y0042880D01*
X0061587Y0042844D01*
X0061599Y0042806D01*
X0061607Y0042768D01*
X0061611Y0042729D01*
X0061611Y0042689D01*
X0061607Y0042650D01*
X0061599Y0042612D01*
X0061587Y0042574D01*
X0061572Y0042538D01*
X0061553Y0042504D01*
X0061531Y0042471D01*
X0061506Y0042441D01*
X0061478Y0042414D01*
X0061447Y0042389D01*
X0061414Y0042368D01*
X0061379Y0042350D01*
X0061342Y0042336D01*
X0061305Y0042325D01*
X0061266Y0042318D01*
X0061227Y0042315D01*
X0061188Y0042316D01*
X0061149Y0042321D01*
X0061110Y0042330D01*
X0061073Y0042342D01*
X0061037Y0042358D01*
X0061003Y0042378D01*
X0060971Y0042401D01*
X0060942Y0042427D01*
X0060915Y0042456D01*
X0060891Y0042487D01*
X0060871Y0042521D01*
X0060854Y0042556D01*
X0060841Y0042593D01*
X0060831Y0042631D01*
X0060825Y0042670D01*
X0060823Y0042709D01*
X0060823Y0072709D02*
X0060825Y0072748D01*
X0060831Y0072787D01*
X0060841Y0072825D01*
X0060854Y0072862D01*
X0060871Y0072897D01*
X0060891Y0072931D01*
X0060915Y0072962D01*
X0060942Y0072991D01*
X0060971Y0073017D01*
X0061003Y0073040D01*
X0061037Y0073060D01*
X0061073Y0073076D01*
X0061110Y0073088D01*
X0061149Y0073097D01*
X0061188Y0073102D01*
X0061227Y0073103D01*
X0061266Y0073100D01*
X0061305Y0073093D01*
X0061342Y0073082D01*
X0061379Y0073068D01*
X0061414Y0073050D01*
X0061447Y0073029D01*
X0061478Y0073004D01*
X0061506Y0072977D01*
X0061531Y0072947D01*
X0061553Y0072914D01*
X0061572Y0072880D01*
X0061587Y0072844D01*
X0061599Y0072806D01*
X0061607Y0072768D01*
X0061611Y0072729D01*
X0061611Y0072689D01*
X0061607Y0072650D01*
X0061599Y0072612D01*
X0061587Y0072574D01*
X0061572Y0072538D01*
X0061553Y0072504D01*
X0061531Y0072471D01*
X0061506Y0072441D01*
X0061478Y0072414D01*
X0061447Y0072389D01*
X0061414Y0072368D01*
X0061379Y0072350D01*
X0061342Y0072336D01*
X0061305Y0072325D01*
X0061266Y0072318D01*
X0061227Y0072315D01*
X0061188Y0072316D01*
X0061149Y0072321D01*
X0061110Y0072330D01*
X0061073Y0072342D01*
X0061037Y0072358D01*
X0061003Y0072378D01*
X0060971Y0072401D01*
X0060942Y0072427D01*
X0060915Y0072456D01*
X0060891Y0072487D01*
X0060871Y0072521D01*
X0060854Y0072556D01*
X0060841Y0072593D01*
X0060831Y0072631D01*
X0060825Y0072670D01*
X0060823Y0072709D01*
X0060823Y0102709D02*
X0060825Y0102748D01*
X0060831Y0102787D01*
X0060841Y0102825D01*
X0060854Y0102862D01*
X0060871Y0102897D01*
X0060891Y0102931D01*
X0060915Y0102962D01*
X0060942Y0102991D01*
X0060971Y0103017D01*
X0061003Y0103040D01*
X0061037Y0103060D01*
X0061073Y0103076D01*
X0061110Y0103088D01*
X0061149Y0103097D01*
X0061188Y0103102D01*
X0061227Y0103103D01*
X0061266Y0103100D01*
X0061305Y0103093D01*
X0061342Y0103082D01*
X0061379Y0103068D01*
X0061414Y0103050D01*
X0061447Y0103029D01*
X0061478Y0103004D01*
X0061506Y0102977D01*
X0061531Y0102947D01*
X0061553Y0102914D01*
X0061572Y0102880D01*
X0061587Y0102844D01*
X0061599Y0102806D01*
X0061607Y0102768D01*
X0061611Y0102729D01*
X0061611Y0102689D01*
X0061607Y0102650D01*
X0061599Y0102612D01*
X0061587Y0102574D01*
X0061572Y0102538D01*
X0061553Y0102504D01*
X0061531Y0102471D01*
X0061506Y0102441D01*
X0061478Y0102414D01*
X0061447Y0102389D01*
X0061414Y0102368D01*
X0061379Y0102350D01*
X0061342Y0102336D01*
X0061305Y0102325D01*
X0061266Y0102318D01*
X0061227Y0102315D01*
X0061188Y0102316D01*
X0061149Y0102321D01*
X0061110Y0102330D01*
X0061073Y0102342D01*
X0061037Y0102358D01*
X0061003Y0102378D01*
X0060971Y0102401D01*
X0060942Y0102427D01*
X0060915Y0102456D01*
X0060891Y0102487D01*
X0060871Y0102521D01*
X0060854Y0102556D01*
X0060841Y0102593D01*
X0060831Y0102631D01*
X0060825Y0102670D01*
X0060823Y0102709D01*
X0020823Y0102709D02*
X0020825Y0102748D01*
X0020831Y0102787D01*
X0020841Y0102825D01*
X0020854Y0102862D01*
X0020871Y0102897D01*
X0020891Y0102931D01*
X0020915Y0102962D01*
X0020942Y0102991D01*
X0020971Y0103017D01*
X0021003Y0103040D01*
X0021037Y0103060D01*
X0021073Y0103076D01*
X0021110Y0103088D01*
X0021149Y0103097D01*
X0021188Y0103102D01*
X0021227Y0103103D01*
X0021266Y0103100D01*
X0021305Y0103093D01*
X0021342Y0103082D01*
X0021379Y0103068D01*
X0021414Y0103050D01*
X0021447Y0103029D01*
X0021478Y0103004D01*
X0021506Y0102977D01*
X0021531Y0102947D01*
X0021553Y0102914D01*
X0021572Y0102880D01*
X0021587Y0102844D01*
X0021599Y0102806D01*
X0021607Y0102768D01*
X0021611Y0102729D01*
X0021611Y0102689D01*
X0021607Y0102650D01*
X0021599Y0102612D01*
X0021587Y0102574D01*
X0021572Y0102538D01*
X0021553Y0102504D01*
X0021531Y0102471D01*
X0021506Y0102441D01*
X0021478Y0102414D01*
X0021447Y0102389D01*
X0021414Y0102368D01*
X0021379Y0102350D01*
X0021342Y0102336D01*
X0021305Y0102325D01*
X0021266Y0102318D01*
X0021227Y0102315D01*
X0021188Y0102316D01*
X0021149Y0102321D01*
X0021110Y0102330D01*
X0021073Y0102342D01*
X0021037Y0102358D01*
X0021003Y0102378D01*
X0020971Y0102401D01*
X0020942Y0102427D01*
X0020915Y0102456D01*
X0020891Y0102487D01*
X0020871Y0102521D01*
X0020854Y0102556D01*
X0020841Y0102593D01*
X0020831Y0102631D01*
X0020825Y0102670D01*
X0020823Y0102709D01*
X0020823Y0072709D02*
X0020825Y0072748D01*
X0020831Y0072787D01*
X0020841Y0072825D01*
X0020854Y0072862D01*
X0020871Y0072897D01*
X0020891Y0072931D01*
X0020915Y0072962D01*
X0020942Y0072991D01*
X0020971Y0073017D01*
X0021003Y0073040D01*
X0021037Y0073060D01*
X0021073Y0073076D01*
X0021110Y0073088D01*
X0021149Y0073097D01*
X0021188Y0073102D01*
X0021227Y0073103D01*
X0021266Y0073100D01*
X0021305Y0073093D01*
X0021342Y0073082D01*
X0021379Y0073068D01*
X0021414Y0073050D01*
X0021447Y0073029D01*
X0021478Y0073004D01*
X0021506Y0072977D01*
X0021531Y0072947D01*
X0021553Y0072914D01*
X0021572Y0072880D01*
X0021587Y0072844D01*
X0021599Y0072806D01*
X0021607Y0072768D01*
X0021611Y0072729D01*
X0021611Y0072689D01*
X0021607Y0072650D01*
X0021599Y0072612D01*
X0021587Y0072574D01*
X0021572Y0072538D01*
X0021553Y0072504D01*
X0021531Y0072471D01*
X0021506Y0072441D01*
X0021478Y0072414D01*
X0021447Y0072389D01*
X0021414Y0072368D01*
X0021379Y0072350D01*
X0021342Y0072336D01*
X0021305Y0072325D01*
X0021266Y0072318D01*
X0021227Y0072315D01*
X0021188Y0072316D01*
X0021149Y0072321D01*
X0021110Y0072330D01*
X0021073Y0072342D01*
X0021037Y0072358D01*
X0021003Y0072378D01*
X0020971Y0072401D01*
X0020942Y0072427D01*
X0020915Y0072456D01*
X0020891Y0072487D01*
X0020871Y0072521D01*
X0020854Y0072556D01*
X0020841Y0072593D01*
X0020831Y0072631D01*
X0020825Y0072670D01*
X0020823Y0072709D01*
X0020823Y0042709D02*
X0020825Y0042748D01*
X0020831Y0042787D01*
X0020841Y0042825D01*
X0020854Y0042862D01*
X0020871Y0042897D01*
X0020891Y0042931D01*
X0020915Y0042962D01*
X0020942Y0042991D01*
X0020971Y0043017D01*
X0021003Y0043040D01*
X0021037Y0043060D01*
X0021073Y0043076D01*
X0021110Y0043088D01*
X0021149Y0043097D01*
X0021188Y0043102D01*
X0021227Y0043103D01*
X0021266Y0043100D01*
X0021305Y0043093D01*
X0021342Y0043082D01*
X0021379Y0043068D01*
X0021414Y0043050D01*
X0021447Y0043029D01*
X0021478Y0043004D01*
X0021506Y0042977D01*
X0021531Y0042947D01*
X0021553Y0042914D01*
X0021572Y0042880D01*
X0021587Y0042844D01*
X0021599Y0042806D01*
X0021607Y0042768D01*
X0021611Y0042729D01*
X0021611Y0042689D01*
X0021607Y0042650D01*
X0021599Y0042612D01*
X0021587Y0042574D01*
X0021572Y0042538D01*
X0021553Y0042504D01*
X0021531Y0042471D01*
X0021506Y0042441D01*
X0021478Y0042414D01*
X0021447Y0042389D01*
X0021414Y0042368D01*
X0021379Y0042350D01*
X0021342Y0042336D01*
X0021305Y0042325D01*
X0021266Y0042318D01*
X0021227Y0042315D01*
X0021188Y0042316D01*
X0021149Y0042321D01*
X0021110Y0042330D01*
X0021073Y0042342D01*
X0021037Y0042358D01*
X0021003Y0042378D01*
X0020971Y0042401D01*
X0020942Y0042427D01*
X0020915Y0042456D01*
X0020891Y0042487D01*
X0020871Y0042521D01*
X0020854Y0042556D01*
X0020841Y0042593D01*
X0020831Y0042631D01*
X0020825Y0042670D01*
X0020823Y0042709D01*
X0020823Y0012709D02*
X0020825Y0012748D01*
X0020831Y0012787D01*
X0020841Y0012825D01*
X0020854Y0012862D01*
X0020871Y0012897D01*
X0020891Y0012931D01*
X0020915Y0012962D01*
X0020942Y0012991D01*
X0020971Y0013017D01*
X0021003Y0013040D01*
X0021037Y0013060D01*
X0021073Y0013076D01*
X0021110Y0013088D01*
X0021149Y0013097D01*
X0021188Y0013102D01*
X0021227Y0013103D01*
X0021266Y0013100D01*
X0021305Y0013093D01*
X0021342Y0013082D01*
X0021379Y0013068D01*
X0021414Y0013050D01*
X0021447Y0013029D01*
X0021478Y0013004D01*
X0021506Y0012977D01*
X0021531Y0012947D01*
X0021553Y0012914D01*
X0021572Y0012880D01*
X0021587Y0012844D01*
X0021599Y0012806D01*
X0021607Y0012768D01*
X0021611Y0012729D01*
X0021611Y0012689D01*
X0021607Y0012650D01*
X0021599Y0012612D01*
X0021587Y0012574D01*
X0021572Y0012538D01*
X0021553Y0012504D01*
X0021531Y0012471D01*
X0021506Y0012441D01*
X0021478Y0012414D01*
X0021447Y0012389D01*
X0021414Y0012368D01*
X0021379Y0012350D01*
X0021342Y0012336D01*
X0021305Y0012325D01*
X0021266Y0012318D01*
X0021227Y0012315D01*
X0021188Y0012316D01*
X0021149Y0012321D01*
X0021110Y0012330D01*
X0021073Y0012342D01*
X0021037Y0012358D01*
X0021003Y0012378D01*
X0020971Y0012401D01*
X0020942Y0012427D01*
X0020915Y0012456D01*
X0020891Y0012487D01*
X0020871Y0012521D01*
X0020854Y0012556D01*
X0020841Y0012593D01*
X0020831Y0012631D01*
X0020825Y0012670D01*
X0020823Y0012709D01*
X0100823Y0012709D02*
X0100825Y0012748D01*
X0100831Y0012787D01*
X0100841Y0012825D01*
X0100854Y0012862D01*
X0100871Y0012897D01*
X0100891Y0012931D01*
X0100915Y0012962D01*
X0100942Y0012991D01*
X0100971Y0013017D01*
X0101003Y0013040D01*
X0101037Y0013060D01*
X0101073Y0013076D01*
X0101110Y0013088D01*
X0101149Y0013097D01*
X0101188Y0013102D01*
X0101227Y0013103D01*
X0101266Y0013100D01*
X0101305Y0013093D01*
X0101342Y0013082D01*
X0101379Y0013068D01*
X0101414Y0013050D01*
X0101447Y0013029D01*
X0101478Y0013004D01*
X0101506Y0012977D01*
X0101531Y0012947D01*
X0101553Y0012914D01*
X0101572Y0012880D01*
X0101587Y0012844D01*
X0101599Y0012806D01*
X0101607Y0012768D01*
X0101611Y0012729D01*
X0101611Y0012689D01*
X0101607Y0012650D01*
X0101599Y0012612D01*
X0101587Y0012574D01*
X0101572Y0012538D01*
X0101553Y0012504D01*
X0101531Y0012471D01*
X0101506Y0012441D01*
X0101478Y0012414D01*
X0101447Y0012389D01*
X0101414Y0012368D01*
X0101379Y0012350D01*
X0101342Y0012336D01*
X0101305Y0012325D01*
X0101266Y0012318D01*
X0101227Y0012315D01*
X0101188Y0012316D01*
X0101149Y0012321D01*
X0101110Y0012330D01*
X0101073Y0012342D01*
X0101037Y0012358D01*
X0101003Y0012378D01*
X0100971Y0012401D01*
X0100942Y0012427D01*
X0100915Y0012456D01*
X0100891Y0012487D01*
X0100871Y0012521D01*
X0100854Y0012556D01*
X0100841Y0012593D01*
X0100831Y0012631D01*
X0100825Y0012670D01*
X0100823Y0012709D01*
X0100823Y0042709D02*
X0100825Y0042748D01*
X0100831Y0042787D01*
X0100841Y0042825D01*
X0100854Y0042862D01*
X0100871Y0042897D01*
X0100891Y0042931D01*
X0100915Y0042962D01*
X0100942Y0042991D01*
X0100971Y0043017D01*
X0101003Y0043040D01*
X0101037Y0043060D01*
X0101073Y0043076D01*
X0101110Y0043088D01*
X0101149Y0043097D01*
X0101188Y0043102D01*
X0101227Y0043103D01*
X0101266Y0043100D01*
X0101305Y0043093D01*
X0101342Y0043082D01*
X0101379Y0043068D01*
X0101414Y0043050D01*
X0101447Y0043029D01*
X0101478Y0043004D01*
X0101506Y0042977D01*
X0101531Y0042947D01*
X0101553Y0042914D01*
X0101572Y0042880D01*
X0101587Y0042844D01*
X0101599Y0042806D01*
X0101607Y0042768D01*
X0101611Y0042729D01*
X0101611Y0042689D01*
X0101607Y0042650D01*
X0101599Y0042612D01*
X0101587Y0042574D01*
X0101572Y0042538D01*
X0101553Y0042504D01*
X0101531Y0042471D01*
X0101506Y0042441D01*
X0101478Y0042414D01*
X0101447Y0042389D01*
X0101414Y0042368D01*
X0101379Y0042350D01*
X0101342Y0042336D01*
X0101305Y0042325D01*
X0101266Y0042318D01*
X0101227Y0042315D01*
X0101188Y0042316D01*
X0101149Y0042321D01*
X0101110Y0042330D01*
X0101073Y0042342D01*
X0101037Y0042358D01*
X0101003Y0042378D01*
X0100971Y0042401D01*
X0100942Y0042427D01*
X0100915Y0042456D01*
X0100891Y0042487D01*
X0100871Y0042521D01*
X0100854Y0042556D01*
X0100841Y0042593D01*
X0100831Y0042631D01*
X0100825Y0042670D01*
X0100823Y0042709D01*
X0100823Y0072709D02*
X0100825Y0072748D01*
X0100831Y0072787D01*
X0100841Y0072825D01*
X0100854Y0072862D01*
X0100871Y0072897D01*
X0100891Y0072931D01*
X0100915Y0072962D01*
X0100942Y0072991D01*
X0100971Y0073017D01*
X0101003Y0073040D01*
X0101037Y0073060D01*
X0101073Y0073076D01*
X0101110Y0073088D01*
X0101149Y0073097D01*
X0101188Y0073102D01*
X0101227Y0073103D01*
X0101266Y0073100D01*
X0101305Y0073093D01*
X0101342Y0073082D01*
X0101379Y0073068D01*
X0101414Y0073050D01*
X0101447Y0073029D01*
X0101478Y0073004D01*
X0101506Y0072977D01*
X0101531Y0072947D01*
X0101553Y0072914D01*
X0101572Y0072880D01*
X0101587Y0072844D01*
X0101599Y0072806D01*
X0101607Y0072768D01*
X0101611Y0072729D01*
X0101611Y0072689D01*
X0101607Y0072650D01*
X0101599Y0072612D01*
X0101587Y0072574D01*
X0101572Y0072538D01*
X0101553Y0072504D01*
X0101531Y0072471D01*
X0101506Y0072441D01*
X0101478Y0072414D01*
X0101447Y0072389D01*
X0101414Y0072368D01*
X0101379Y0072350D01*
X0101342Y0072336D01*
X0101305Y0072325D01*
X0101266Y0072318D01*
X0101227Y0072315D01*
X0101188Y0072316D01*
X0101149Y0072321D01*
X0101110Y0072330D01*
X0101073Y0072342D01*
X0101037Y0072358D01*
X0101003Y0072378D01*
X0100971Y0072401D01*
X0100942Y0072427D01*
X0100915Y0072456D01*
X0100891Y0072487D01*
X0100871Y0072521D01*
X0100854Y0072556D01*
X0100841Y0072593D01*
X0100831Y0072631D01*
X0100825Y0072670D01*
X0100823Y0072709D01*
X0100823Y0102709D02*
X0100825Y0102748D01*
X0100831Y0102787D01*
X0100841Y0102825D01*
X0100854Y0102862D01*
X0100871Y0102897D01*
X0100891Y0102931D01*
X0100915Y0102962D01*
X0100942Y0102991D01*
X0100971Y0103017D01*
X0101003Y0103040D01*
X0101037Y0103060D01*
X0101073Y0103076D01*
X0101110Y0103088D01*
X0101149Y0103097D01*
X0101188Y0103102D01*
X0101227Y0103103D01*
X0101266Y0103100D01*
X0101305Y0103093D01*
X0101342Y0103082D01*
X0101379Y0103068D01*
X0101414Y0103050D01*
X0101447Y0103029D01*
X0101478Y0103004D01*
X0101506Y0102977D01*
X0101531Y0102947D01*
X0101553Y0102914D01*
X0101572Y0102880D01*
X0101587Y0102844D01*
X0101599Y0102806D01*
X0101607Y0102768D01*
X0101611Y0102729D01*
X0101611Y0102689D01*
X0101607Y0102650D01*
X0101599Y0102612D01*
X0101587Y0102574D01*
X0101572Y0102538D01*
X0101553Y0102504D01*
X0101531Y0102471D01*
X0101506Y0102441D01*
X0101478Y0102414D01*
X0101447Y0102389D01*
X0101414Y0102368D01*
X0101379Y0102350D01*
X0101342Y0102336D01*
X0101305Y0102325D01*
X0101266Y0102318D01*
X0101227Y0102315D01*
X0101188Y0102316D01*
X0101149Y0102321D01*
X0101110Y0102330D01*
X0101073Y0102342D01*
X0101037Y0102358D01*
X0101003Y0102378D01*
X0100971Y0102401D01*
X0100942Y0102427D01*
X0100915Y0102456D01*
X0100891Y0102487D01*
X0100871Y0102521D01*
X0100854Y0102556D01*
X0100841Y0102593D01*
X0100831Y0102631D01*
X0100825Y0102670D01*
X0100823Y0102709D01*
X0140823Y0102709D02*
X0140825Y0102748D01*
X0140831Y0102787D01*
X0140841Y0102825D01*
X0140854Y0102862D01*
X0140871Y0102897D01*
X0140891Y0102931D01*
X0140915Y0102962D01*
X0140942Y0102991D01*
X0140971Y0103017D01*
X0141003Y0103040D01*
X0141037Y0103060D01*
X0141073Y0103076D01*
X0141110Y0103088D01*
X0141149Y0103097D01*
X0141188Y0103102D01*
X0141227Y0103103D01*
X0141266Y0103100D01*
X0141305Y0103093D01*
X0141342Y0103082D01*
X0141379Y0103068D01*
X0141414Y0103050D01*
X0141447Y0103029D01*
X0141478Y0103004D01*
X0141506Y0102977D01*
X0141531Y0102947D01*
X0141553Y0102914D01*
X0141572Y0102880D01*
X0141587Y0102844D01*
X0141599Y0102806D01*
X0141607Y0102768D01*
X0141611Y0102729D01*
X0141611Y0102689D01*
X0141607Y0102650D01*
X0141599Y0102612D01*
X0141587Y0102574D01*
X0141572Y0102538D01*
X0141553Y0102504D01*
X0141531Y0102471D01*
X0141506Y0102441D01*
X0141478Y0102414D01*
X0141447Y0102389D01*
X0141414Y0102368D01*
X0141379Y0102350D01*
X0141342Y0102336D01*
X0141305Y0102325D01*
X0141266Y0102318D01*
X0141227Y0102315D01*
X0141188Y0102316D01*
X0141149Y0102321D01*
X0141110Y0102330D01*
X0141073Y0102342D01*
X0141037Y0102358D01*
X0141003Y0102378D01*
X0140971Y0102401D01*
X0140942Y0102427D01*
X0140915Y0102456D01*
X0140891Y0102487D01*
X0140871Y0102521D01*
X0140854Y0102556D01*
X0140841Y0102593D01*
X0140831Y0102631D01*
X0140825Y0102670D01*
X0140823Y0102709D01*
X0140823Y0072709D02*
X0140825Y0072748D01*
X0140831Y0072787D01*
X0140841Y0072825D01*
X0140854Y0072862D01*
X0140871Y0072897D01*
X0140891Y0072931D01*
X0140915Y0072962D01*
X0140942Y0072991D01*
X0140971Y0073017D01*
X0141003Y0073040D01*
X0141037Y0073060D01*
X0141073Y0073076D01*
X0141110Y0073088D01*
X0141149Y0073097D01*
X0141188Y0073102D01*
X0141227Y0073103D01*
X0141266Y0073100D01*
X0141305Y0073093D01*
X0141342Y0073082D01*
X0141379Y0073068D01*
X0141414Y0073050D01*
X0141447Y0073029D01*
X0141478Y0073004D01*
X0141506Y0072977D01*
X0141531Y0072947D01*
X0141553Y0072914D01*
X0141572Y0072880D01*
X0141587Y0072844D01*
X0141599Y0072806D01*
X0141607Y0072768D01*
X0141611Y0072729D01*
X0141611Y0072689D01*
X0141607Y0072650D01*
X0141599Y0072612D01*
X0141587Y0072574D01*
X0141572Y0072538D01*
X0141553Y0072504D01*
X0141531Y0072471D01*
X0141506Y0072441D01*
X0141478Y0072414D01*
X0141447Y0072389D01*
X0141414Y0072368D01*
X0141379Y0072350D01*
X0141342Y0072336D01*
X0141305Y0072325D01*
X0141266Y0072318D01*
X0141227Y0072315D01*
X0141188Y0072316D01*
X0141149Y0072321D01*
X0141110Y0072330D01*
X0141073Y0072342D01*
X0141037Y0072358D01*
X0141003Y0072378D01*
X0140971Y0072401D01*
X0140942Y0072427D01*
X0140915Y0072456D01*
X0140891Y0072487D01*
X0140871Y0072521D01*
X0140854Y0072556D01*
X0140841Y0072593D01*
X0140831Y0072631D01*
X0140825Y0072670D01*
X0140823Y0072709D01*
X0140823Y0042709D02*
X0140825Y0042748D01*
X0140831Y0042787D01*
X0140841Y0042825D01*
X0140854Y0042862D01*
X0140871Y0042897D01*
X0140891Y0042931D01*
X0140915Y0042962D01*
X0140942Y0042991D01*
X0140971Y0043017D01*
X0141003Y0043040D01*
X0141037Y0043060D01*
X0141073Y0043076D01*
X0141110Y0043088D01*
X0141149Y0043097D01*
X0141188Y0043102D01*
X0141227Y0043103D01*
X0141266Y0043100D01*
X0141305Y0043093D01*
X0141342Y0043082D01*
X0141379Y0043068D01*
X0141414Y0043050D01*
X0141447Y0043029D01*
X0141478Y0043004D01*
X0141506Y0042977D01*
X0141531Y0042947D01*
X0141553Y0042914D01*
X0141572Y0042880D01*
X0141587Y0042844D01*
X0141599Y0042806D01*
X0141607Y0042768D01*
X0141611Y0042729D01*
X0141611Y0042689D01*
X0141607Y0042650D01*
X0141599Y0042612D01*
X0141587Y0042574D01*
X0141572Y0042538D01*
X0141553Y0042504D01*
X0141531Y0042471D01*
X0141506Y0042441D01*
X0141478Y0042414D01*
X0141447Y0042389D01*
X0141414Y0042368D01*
X0141379Y0042350D01*
X0141342Y0042336D01*
X0141305Y0042325D01*
X0141266Y0042318D01*
X0141227Y0042315D01*
X0141188Y0042316D01*
X0141149Y0042321D01*
X0141110Y0042330D01*
X0141073Y0042342D01*
X0141037Y0042358D01*
X0141003Y0042378D01*
X0140971Y0042401D01*
X0140942Y0042427D01*
X0140915Y0042456D01*
X0140891Y0042487D01*
X0140871Y0042521D01*
X0140854Y0042556D01*
X0140841Y0042593D01*
X0140831Y0042631D01*
X0140825Y0042670D01*
X0140823Y0042709D01*
X0140823Y0012709D02*
X0140825Y0012748D01*
X0140831Y0012787D01*
X0140841Y0012825D01*
X0140854Y0012862D01*
X0140871Y0012897D01*
X0140891Y0012931D01*
X0140915Y0012962D01*
X0140942Y0012991D01*
X0140971Y0013017D01*
X0141003Y0013040D01*
X0141037Y0013060D01*
X0141073Y0013076D01*
X0141110Y0013088D01*
X0141149Y0013097D01*
X0141188Y0013102D01*
X0141227Y0013103D01*
X0141266Y0013100D01*
X0141305Y0013093D01*
X0141342Y0013082D01*
X0141379Y0013068D01*
X0141414Y0013050D01*
X0141447Y0013029D01*
X0141478Y0013004D01*
X0141506Y0012977D01*
X0141531Y0012947D01*
X0141553Y0012914D01*
X0141572Y0012880D01*
X0141587Y0012844D01*
X0141599Y0012806D01*
X0141607Y0012768D01*
X0141611Y0012729D01*
X0141611Y0012689D01*
X0141607Y0012650D01*
X0141599Y0012612D01*
X0141587Y0012574D01*
X0141572Y0012538D01*
X0141553Y0012504D01*
X0141531Y0012471D01*
X0141506Y0012441D01*
X0141478Y0012414D01*
X0141447Y0012389D01*
X0141414Y0012368D01*
X0141379Y0012350D01*
X0141342Y0012336D01*
X0141305Y0012325D01*
X0141266Y0012318D01*
X0141227Y0012315D01*
X0141188Y0012316D01*
X0141149Y0012321D01*
X0141110Y0012330D01*
X0141073Y0012342D01*
X0141037Y0012358D01*
X0141003Y0012378D01*
X0140971Y0012401D01*
X0140942Y0012427D01*
X0140915Y0012456D01*
X0140891Y0012487D01*
X0140871Y0012521D01*
X0140854Y0012556D01*
X0140841Y0012593D01*
X0140831Y0012631D01*
X0140825Y0012670D01*
X0140823Y0012709D01*
M02*
