G75*
%MOIN*%
%OFA0B0*%
%FSLAX25Y25*%
%IPPOS*%
%LPD*%
%AMOC8*
5,1,8,0,0,1.08239X$1,22.5*
%
%ADD10C,0.03772*%
%ADD11R,0.05000X0.03000*%
%ADD12C,0.00600*%
D10*
X0014819Y0015040D03*
X0014817Y0020352D03*
X0029413Y0020447D03*
X0029385Y0014831D03*
X0054819Y0015040D03*
X0054817Y0020352D03*
X0069413Y0020447D03*
X0069385Y0014831D03*
X0094819Y0015040D03*
X0094817Y0020352D03*
X0109413Y0020447D03*
X0109385Y0014831D03*
X0134819Y0015040D03*
X0134817Y0020352D03*
X0149413Y0020447D03*
X0149385Y0014831D03*
X0149385Y0044831D03*
X0149413Y0050447D03*
X0134817Y0050352D03*
X0134819Y0045040D03*
X0109385Y0044831D03*
X0109413Y0050447D03*
X0094817Y0050352D03*
X0094819Y0045040D03*
X0069385Y0044831D03*
X0069413Y0050447D03*
X0054817Y0050352D03*
X0054819Y0045040D03*
X0029385Y0044831D03*
X0029413Y0050447D03*
X0014817Y0050352D03*
X0014819Y0045040D03*
X0014819Y0075040D03*
X0014817Y0080352D03*
X0029413Y0080447D03*
X0029385Y0074831D03*
X0054819Y0075040D03*
X0054817Y0080352D03*
X0069413Y0080447D03*
X0069385Y0074831D03*
X0094819Y0075040D03*
X0094817Y0080352D03*
X0109413Y0080447D03*
X0109385Y0074831D03*
X0134819Y0075040D03*
X0134817Y0080352D03*
X0149413Y0080447D03*
X0149385Y0074831D03*
X0149385Y0104831D03*
X0149413Y0110447D03*
X0134817Y0110352D03*
X0134819Y0105040D03*
X0109385Y0104831D03*
X0109413Y0110447D03*
X0094817Y0110352D03*
X0094819Y0105040D03*
X0069385Y0104831D03*
X0069413Y0110447D03*
X0054817Y0110352D03*
X0054819Y0105040D03*
X0029385Y0104831D03*
X0029413Y0110447D03*
X0014817Y0110352D03*
X0014819Y0105040D03*
D11*
X0018319Y0105040D03*
X0018317Y0110352D03*
X0025913Y0110447D03*
X0025885Y0104831D03*
X0025913Y0080447D03*
X0025885Y0074831D03*
X0018319Y0075040D03*
X0018317Y0080352D03*
X0018317Y0050352D03*
X0018319Y0045040D03*
X0025885Y0044831D03*
X0025913Y0050447D03*
X0058317Y0050352D03*
X0065913Y0050447D03*
X0065885Y0044831D03*
X0058319Y0045040D03*
X0058317Y0020352D03*
X0065913Y0020447D03*
X0065885Y0014831D03*
X0058319Y0015040D03*
X0025885Y0014831D03*
X0025913Y0020447D03*
X0018317Y0020352D03*
X0018319Y0015040D03*
X0058319Y0075040D03*
X0058317Y0080352D03*
X0065913Y0080447D03*
X0065885Y0074831D03*
X0098319Y0075040D03*
X0098317Y0080352D03*
X0105913Y0080447D03*
X0105885Y0074831D03*
X0105913Y0050447D03*
X0105885Y0044831D03*
X0098319Y0045040D03*
X0098317Y0050352D03*
X0098317Y0020352D03*
X0098319Y0015040D03*
X0105885Y0014831D03*
X0105913Y0020447D03*
X0138317Y0020352D03*
X0138319Y0015040D03*
X0145885Y0014831D03*
X0145913Y0020447D03*
X0145885Y0044831D03*
X0145913Y0050447D03*
X0138317Y0050352D03*
X0138319Y0045040D03*
X0138319Y0075040D03*
X0138317Y0080352D03*
X0145913Y0080447D03*
X0145885Y0074831D03*
X0145885Y0104831D03*
X0145913Y0110447D03*
X0138317Y0110352D03*
X0138319Y0105040D03*
X0105885Y0104831D03*
X0105913Y0110447D03*
X0098317Y0110352D03*
X0098319Y0105040D03*
X0065885Y0104831D03*
X0065913Y0110447D03*
X0058317Y0110352D03*
X0058319Y0105040D03*
D12*
X0054819Y0105040D01*
X0054817Y0110352D02*
X0058317Y0110352D01*
X0065913Y0110447D02*
X0069413Y0110447D01*
X0069385Y0104831D02*
X0065885Y0104831D01*
X0094819Y0105040D02*
X0098319Y0105040D01*
X0098317Y0110352D02*
X0094817Y0110352D01*
X0105913Y0110447D02*
X0109413Y0110447D01*
X0109385Y0104831D02*
X0105885Y0104831D01*
X0134819Y0105040D02*
X0138319Y0105040D01*
X0138317Y0110352D02*
X0134817Y0110352D01*
X0145913Y0110447D02*
X0149413Y0110447D01*
X0149385Y0104831D02*
X0145885Y0104831D01*
X0145913Y0080447D02*
X0149413Y0080447D01*
X0149385Y0074831D02*
X0145885Y0074831D01*
X0138319Y0075040D02*
X0134819Y0075040D01*
X0134817Y0080352D02*
X0138317Y0080352D01*
X0109413Y0080447D02*
X0105913Y0080447D01*
X0105885Y0074831D02*
X0109385Y0074831D01*
X0098319Y0075040D02*
X0094819Y0075040D01*
X0094817Y0080352D02*
X0098317Y0080352D01*
X0069413Y0080447D02*
X0065913Y0080447D01*
X0058317Y0080352D02*
X0054817Y0080352D01*
X0054819Y0075040D02*
X0058319Y0075040D01*
X0065885Y0074831D02*
X0069385Y0074831D01*
X0069413Y0050447D02*
X0065913Y0050447D01*
X0058317Y0050352D02*
X0054817Y0050352D01*
X0054819Y0045040D02*
X0058319Y0045040D01*
X0065885Y0044831D02*
X0069385Y0044831D01*
X0094819Y0045040D02*
X0098319Y0045040D01*
X0098317Y0050352D02*
X0094817Y0050352D01*
X0105913Y0050447D02*
X0109413Y0050447D01*
X0109385Y0044831D02*
X0105885Y0044831D01*
X0134819Y0045040D02*
X0138319Y0045040D01*
X0138317Y0050352D02*
X0134817Y0050352D01*
X0145913Y0050447D02*
X0149413Y0050447D01*
X0149385Y0044831D02*
X0145885Y0044831D01*
X0145913Y0020447D02*
X0149413Y0020447D01*
X0149385Y0014831D02*
X0145885Y0014831D01*
X0138319Y0015040D02*
X0134819Y0015040D01*
X0134817Y0020352D02*
X0138317Y0020352D01*
X0109413Y0020447D02*
X0105913Y0020447D01*
X0105885Y0014831D02*
X0109385Y0014831D01*
X0098319Y0015040D02*
X0094819Y0015040D01*
X0094817Y0020352D02*
X0098317Y0020352D01*
X0069413Y0020447D02*
X0065913Y0020447D01*
X0058317Y0020352D02*
X0054817Y0020352D01*
X0054819Y0015040D02*
X0058319Y0015040D01*
X0065885Y0014831D02*
X0069385Y0014831D01*
X0029385Y0014831D02*
X0025885Y0014831D01*
X0025913Y0020447D02*
X0029413Y0020447D01*
X0018317Y0020352D02*
X0014817Y0020352D01*
X0014819Y0015040D02*
X0018319Y0015040D01*
X0018319Y0045040D02*
X0014819Y0045040D01*
X0014817Y0050352D02*
X0018317Y0050352D01*
X0025913Y0050447D02*
X0029413Y0050447D01*
X0029385Y0044831D02*
X0025885Y0044831D01*
X0025885Y0074831D02*
X0029385Y0074831D01*
X0029413Y0080447D02*
X0025913Y0080447D01*
X0018317Y0080352D02*
X0014817Y0080352D01*
X0014819Y0075040D02*
X0018319Y0075040D01*
X0018319Y0105040D02*
X0014819Y0105040D01*
X0014817Y0110352D02*
X0018317Y0110352D01*
X0025913Y0110447D02*
X0029413Y0110447D01*
X0029385Y0104831D02*
X0025885Y0104831D01*
M02*
