%
M48
M72
T01C0.0177
%
T01
X3969Y3224
X3969Y3817
X5628Y3817
X5628Y3224
X9087Y3224
X9087Y3817
X10747Y3817
X10747Y3224
X10747Y6768
X10747Y7360
X9087Y7360
X9087Y6768
X5628Y6768
X5628Y7360
X3969Y7360
X3969Y6768
X3969Y10311
X3969Y10903
X5628Y10903
X5628Y10311
X9087Y10311
X9087Y10903
X10747Y10903
X10747Y10311
X10747Y13854
X10747Y14447
X9087Y14447
X9087Y13854
X5628Y13854
X5628Y14447
X3969Y14447
X3969Y13854
X3969Y17398
X3969Y17990
X5628Y17990
X5628Y17398
X9087Y17398
X9087Y17990
X10747Y17990
X10747Y17398
X10747Y20941
X10747Y21533
X9087Y21533
X9087Y20941
X5628Y20941
X5628Y21533
X3969Y21533
X3969Y20941
X3969Y24484
X3969Y25076
X5628Y25076
X5628Y24484
X9087Y24484
X9087Y25076
X10747Y25076
X10747Y24484
X10747Y28028
X10747Y28620
X9087Y28620
X9087Y28028
X5628Y28028
X5628Y28620
X3969Y28620
X3969Y28028
X3969Y31965
X3969Y32557
X5628Y32557
X5628Y31965
X9087Y31965
X9087Y32557
X10747Y32557
X10747Y31965
X10747Y35508
X10747Y36100
X9087Y36100
X9087Y35508
X5628Y35508
X5628Y36100
X3969Y36100
X3969Y35508
X14599Y35508
X14599Y36100
X16258Y36100
X16258Y35508
X16258Y32557
X16258Y31965
X14599Y31965
X14599Y32557
X14599Y28620
X14599Y28028
X16258Y28028
X16258Y28620
X19717Y28620
X19717Y28028
X21376Y28028
X21376Y28620
X21376Y31965
X21376Y32557
X19717Y32557
X19717Y31965
X19717Y35508
X19717Y36100
X21376Y36100
X21376Y35508
X25228Y35508
X25228Y36100
X26888Y36100
X26888Y35508
X26888Y32557
X26888Y31965
X25228Y31965
X25228Y32557
X25228Y28620
X25228Y28028
X26888Y28028
X26888Y28620
X30347Y28620
X30347Y28028
X32006Y28028
X32006Y28620
X35071Y28620
X35071Y28028
X36731Y28028
X36731Y28620
X36731Y31965
X36731Y32557
X35071Y32557
X35071Y31965
X32006Y31965
X32006Y32557
X30347Y32557
X30347Y31965
X30347Y35508
X30347Y36100
X32006Y36100
X32006Y35508
X35071Y35508
X35071Y36100
X36731Y36100
X36731Y35508
X36731Y25076
X36731Y24484
X35071Y24484
X35071Y25076
X32006Y25076
X32006Y24484
X30347Y24484
X30347Y25076
X26888Y25076
X26888Y24484
X25228Y24484
X25228Y25076
X25228Y21533
X25228Y20941
X26888Y20941
X26888Y21533
X30347Y21533
X30347Y20941
X32006Y20941
X32006Y21533
X35071Y21533
X35071Y20941
X36731Y20941
X36731Y21533
X36731Y17990
X36731Y17398
X35071Y17398
X35071Y17990
X32006Y17990
X32006Y17398
X30347Y17398
X30347Y17990
X26888Y17990
X26888Y17398
X25228Y17398
X25228Y17990
X25228Y14447
X25228Y13854
X26888Y13854
X26888Y14447
X30347Y14447
X30347Y13854
X32006Y13854
X32006Y14447
X35071Y14447
X35071Y13854
X36731Y13854
X36731Y14447
X36731Y10903
X36731Y10311
X35071Y10311
X35071Y10903
X32006Y10903
X32006Y10311
X30347Y10311
X30347Y10903
X26888Y10903
X26888Y10311
X25228Y10311
X25228Y10903
X25228Y7360
X25228Y6768
X26888Y6768
X26888Y7360
X30347Y7360
X30347Y6768
X32006Y6768
X32006Y7360
X35071Y7360
X35071Y6768
X36731Y6768
X36731Y7360
X36731Y3817
X36731Y3224
X35071Y3224
X35071Y3817
X32006Y3817
X32006Y3224
X30347Y3224
X30347Y3817
X26888Y3817
X26888Y3224
X25228Y3224
X25228Y3817
X21376Y3817
X21376Y3224
X19717Y3224
X19717Y3817
X19717Y6768
X19717Y7360
X21376Y7360
X21376Y6768
X21376Y10311
X21376Y10903
X19717Y10903
X19717Y10311
X16258Y10311
X16258Y10903
X14599Y10903
X14599Y10311
X14599Y7360
X14599Y6768
X16258Y6768
X16258Y7360
X16258Y3817
X16258Y3224
X14599Y3224
X14599Y3817
X14599Y13854
X14599Y14447
X16258Y14447
X16258Y13854
X19717Y13854
X19717Y14447
X21376Y14447
X21376Y13854
X21376Y17398
X21376Y17990
X19717Y17990
X19717Y17398
X16258Y17398
X16258Y17990
X14599Y17990
X14599Y17398
X14599Y20941
X14599Y21533
X16258Y21533
X16258Y20941
X19717Y20941
X19717Y21533
X21376Y21533
X21376Y20941
X21376Y24484
X21376Y25076
X19717Y25076
X19717Y24484
X16258Y24484
X16258Y25076
X14599Y25076
X14599Y24484
M30
