%
M48
M72
T01C0.0177
%
T01
X2394Y2043
X2394Y2536
X4154Y2536
X4154Y2043
X6724Y2043
X6724Y2536
X8484Y2536
X8484Y2043
X11055Y2043
X11055Y2536
X12815Y2536
X12815Y2043
X15386Y2043
X15386Y2536
X17146Y2536
X17146Y2043
X19717Y2043
X19717Y2536
X21476Y2536
X21476Y2043
X24047Y2043
X24047Y2536
X25807Y2536
X25807Y2043
X28378Y2043
X28378Y2536
X30138Y2536
X30138Y2043
X32315Y2043
X32315Y2536
X34075Y2536
X34075Y2043
X36252Y2043
X36252Y2536
X38012Y2536
X38012Y2043
X38012Y4799
X38012Y5291
X36252Y5291
X36252Y4799
X34075Y4799
X34075Y5291
X32315Y5291
X32315Y4799
X30138Y4799
X30138Y5291
X28378Y5291
X28378Y4799
X25807Y4799
X25807Y5291
X24047Y5291
X24047Y4799
X21476Y4799
X21476Y5291
X19717Y5291
X19717Y4799
X17146Y4799
X17146Y5291
X15386Y5291
X15386Y4799
X12815Y4799
X12815Y5291
X11055Y5291
X11055Y4799
X8484Y4799
X8484Y5291
X6724Y5291
X6724Y4799
X4154Y4799
X4154Y5291
X2394Y5291
X2394Y4799
X2394Y7555
X2394Y8047
X4154Y8047
X4154Y7555
X6724Y7555
X6724Y8047
X8484Y8047
X8484Y7555
X11055Y7555
X11055Y8047
X12815Y8047
X12815Y7555
X15386Y7555
X15386Y8047
X17146Y8047
X17146Y7555
X19717Y7555
X19717Y8047
X21476Y8047
X21476Y7555
X24047Y7555
X24047Y8047
X25807Y8047
X25807Y7555
X28378Y7555
X28378Y8047
X30138Y8047
X30138Y7555
X32315Y7555
X32315Y8047
X34075Y8047
X34075Y7555
X36252Y7555
X36252Y8047
X38012Y8047
X38012Y7555
X38012Y10311
X38012Y10803
X36252Y10803
X36252Y10311
X34075Y10311
X34075Y10803
X32315Y10803
X32315Y10311
X30138Y10311
X30138Y10803
X28378Y10803
X28378Y10311
X25807Y10311
X25807Y10803
X24047Y10803
X24047Y10311
X21476Y10311
X21476Y10803
X19717Y10803
X19717Y10311
X17146Y10311
X17146Y10803
X15386Y10803
X15386Y10311
X12815Y10311
X12815Y10803
X11055Y10803
X11055Y10311
X8484Y10311
X8484Y10803
X6724Y10803
X6724Y10311
X4154Y10311
X4154Y10803
X2394Y10803
X2394Y10311
X2394Y13067
X2394Y13559
X4154Y13559
X4154Y13067
X6724Y13067
X6724Y13559
X8484Y13559
X8484Y13067
X11055Y13067
X11055Y13559
X12815Y13559
X12815Y13067
X15386Y13067
X15386Y13559
X17146Y13559
X17146Y13067
X19717Y13067
X19717Y13559
X21476Y13559
X21476Y13067
X24047Y13067
X24047Y13559
X25807Y13559
X25807Y13067
X28378Y13067
X28378Y13559
X30138Y13559
X30138Y13067
X32315Y13067
X32315Y13559
X34075Y13559
X34075Y13067
X36252Y13067
X36252Y13559
X38012Y13559
X38012Y13067
X38012Y15823
X38012Y16315
X36252Y16315
X36252Y15823
X34075Y15823
X34075Y16315
X32315Y16315
X32315Y15823
X30138Y15823
X30138Y16315
X28378Y16315
X28378Y15823
X25807Y15823
X25807Y16315
X24047Y16315
X24047Y15823
X21476Y15823
X21476Y16315
X19717Y16315
X19717Y15823
X17146Y15823
X17146Y16315
X15386Y16315
X15386Y15823
X12815Y15823
X12815Y16315
X11055Y16315
X11055Y15823
X8484Y15823
X8484Y16315
X6724Y16315
X6724Y15823
X4154Y15823
X4154Y16315
X2394Y16315
X2394Y15823
X2394Y18579
X2394Y19071
X4154Y19071
X4154Y18579
X6724Y18579
X6724Y19071
X8484Y19071
X8484Y18579
X11055Y18579
X11055Y19071
X12815Y19071
X12815Y18579
X15386Y18579
X15386Y19071
X17146Y19071
X17146Y18579
X19717Y18579
X19717Y19071
X21476Y19071
X21476Y18579
X24047Y18579
X24047Y19071
X25807Y19071
X25807Y18579
X28378Y18579
X28378Y19071
X30138Y19071
X30138Y18579
X32315Y18579
X32315Y19071
X34075Y19071
X34075Y18579
X36252Y18579
X36252Y19071
X38012Y19071
X38012Y18579
X38012Y21335
X38012Y21827
X36252Y21827
X36252Y21335
X34075Y21335
X34075Y21827
X32315Y21827
X32315Y21335
X30138Y21335
X30138Y21827
X28378Y21827
X28378Y21335
X25807Y21335
X25807Y21827
X24047Y21827
X24047Y21335
X21476Y21335
X21476Y21827
X19717Y21827
X19717Y21335
X17146Y21335
X17146Y21827
X15386Y21827
X15386Y21335
X12815Y21335
X12815Y21827
X11055Y21827
X11055Y21335
X8484Y21335
X8484Y21827
X6724Y21827
X6724Y21335
X4154Y21335
X4154Y21827
X2394Y21827
X2394Y21335
X2394Y24091
X2394Y24583
X4154Y24583
X4154Y24091
X6724Y24091
X6724Y24583
X8484Y24583
X8484Y24091
X11055Y24091
X11055Y24583
X12815Y24583
X12815Y24091
X15386Y24091
X15386Y24583
X17146Y24583
X17146Y24091
X19717Y24091
X19717Y24583
X21476Y24583
X21476Y24091
X24047Y24091
X24047Y24583
X25807Y24583
X25807Y24091
X28378Y24091
X28378Y24583
X30138Y24583
X30138Y24091
X32315Y24091
X32315Y24583
X34075Y24583
X34075Y24091
X36252Y24091
X36252Y24583
X38012Y24583
X38012Y24091
X38012Y26847
X38012Y27339
X36252Y27339
X36252Y26847
X34075Y26847
X34075Y27339
X32315Y27339
X32315Y26847
X30138Y26847
X30138Y27339
X28378Y27339
X28378Y26847
X25807Y26847
X25807Y27339
X24047Y27339
X24047Y26847
X21476Y26847
X21476Y27339
X19717Y27339
X19717Y26847
X17146Y26847
X17146Y27339
X15386Y27339
X15386Y26847
X12815Y26847
X12815Y27339
X11055Y27339
X11055Y26847
X8484Y26847
X8484Y27339
X6724Y27339
X6724Y26847
X4154Y26847
X4154Y27339
X2394Y27339
X2394Y26847
X2394Y29602
X2394Y30095
X4154Y30095
X4154Y29602
X6724Y29602
X6724Y30095
X8484Y30095
X8484Y29602
X11055Y29602
X11055Y30095
X12815Y30095
X12815Y29602
X15386Y29602
X15386Y30095
X17146Y30095
X17146Y29602
X19717Y29602
X19717Y30095
X21476Y30095
X21476Y29602
X24047Y29602
X24047Y30095
X25807Y30095
X25807Y29602
X28378Y29602
X28378Y30095
X30138Y30095
X30138Y29602
X32315Y29602
X32315Y30095
X34075Y30095
X34075Y29602
X36252Y29602
X36252Y30095
X38012Y30095
X38012Y29602
X38012Y32358
X38012Y32850
X36252Y32850
X36252Y32358
X34075Y32358
X34075Y32850
X32315Y32850
X32315Y32358
X30138Y32358
X30138Y32850
X28378Y32850
X28378Y32358
X25807Y32358
X25807Y32850
X24047Y32850
X24047Y32358
X21476Y32358
X21476Y32850
X19717Y32850
X19717Y32358
X17146Y32358
X17146Y32850
X15386Y32850
X15386Y32358
X12815Y32358
X12815Y32850
X11055Y32850
X11055Y32358
X8484Y32358
X8484Y32850
X6724Y32850
X6724Y32358
X4154Y32358
X4154Y32850
X2394Y32850
X2394Y32358
X2394Y35114
X2394Y35606
X4154Y35606
X4154Y35114
X4154Y37476
X4154Y37969
X2394Y37969
X2394Y37476
X6724Y37476
X6724Y37969
X8484Y37969
X8484Y37476
X8484Y35606
X8484Y35114
X6724Y35114
X6724Y35606
X11055Y35606
X11055Y35114
X12815Y35114
X12815Y35606
X12815Y37476
X12815Y37969
X11055Y37969
X11055Y37476
X15386Y37476
X15386Y37969
X17146Y37969
X17146Y37476
X17146Y35606
X17146Y35114
X15386Y35114
X15386Y35606
X19717Y35606
X19717Y35114
X21476Y35114
X21476Y35606
X21476Y37476
X21476Y37969
X19717Y37969
X19717Y37476
X24047Y37476
X24047Y37969
X25807Y37969
X25807Y37476
X25807Y35606
X25807Y35114
X24047Y35114
X24047Y35606
X28378Y35606
X28378Y35114
X30138Y35114
X30138Y35606
X30138Y37476
X30138Y37969
X28378Y37969
X28378Y37476
X32315Y37476
X32315Y37969
X34075Y37969
X34075Y37476
X34075Y35606
X34075Y35114
X32315Y35114
X32315Y35606
X36252Y35606
X36252Y35114
X38012Y35114
X38012Y35606
X38012Y37476
X38012Y37969
X36252Y37969
X36252Y37476
M30
