G75*
%MOIN*%
%OFA0B0*%
%FSLAX25Y25*%
%IPPOS*%
%LPD*%
%AMOC8*
5,1,8,0,0,1.08239X$1,22.5*
%
%ADD10C,0.04572*%
%ADD11R,0.02375X0.02375*%
D10*
X0023938Y0020434D03*
X0023938Y0025355D03*
X0041536Y0025355D03*
X0041536Y0020434D03*
X0067245Y0020434D03*
X0067245Y0025355D03*
X0084843Y0025355D03*
X0084843Y0020434D03*
X0110552Y0020434D03*
X0110552Y0025355D03*
X0128150Y0025355D03*
X0128150Y0020434D03*
X0153859Y0020434D03*
X0153859Y0025355D03*
X0171457Y0025355D03*
X0171457Y0020434D03*
X0197166Y0020434D03*
X0197166Y0025355D03*
X0214765Y0025355D03*
X0214765Y0020434D03*
X0240473Y0020434D03*
X0240473Y0025355D03*
X0258072Y0025355D03*
X0258072Y0020434D03*
X0283780Y0020434D03*
X0283780Y0025355D03*
X0301379Y0025355D03*
X0301379Y0020434D03*
X0323150Y0020434D03*
X0323150Y0025355D03*
X0340749Y0025355D03*
X0340749Y0020434D03*
X0362520Y0020434D03*
X0362520Y0025355D03*
X0380119Y0025355D03*
X0380119Y0020434D03*
X0380119Y0047993D03*
X0380119Y0052914D03*
X0362520Y0052914D03*
X0362520Y0047993D03*
X0340749Y0047993D03*
X0340749Y0052914D03*
X0323150Y0052914D03*
X0323150Y0047993D03*
X0301379Y0047993D03*
X0301379Y0052914D03*
X0283780Y0052914D03*
X0283780Y0047993D03*
X0258072Y0047993D03*
X0258072Y0052914D03*
X0240473Y0052914D03*
X0240473Y0047993D03*
X0214765Y0047993D03*
X0214765Y0052914D03*
X0197166Y0052914D03*
X0197166Y0047993D03*
X0171457Y0047993D03*
X0171457Y0052914D03*
X0153859Y0052914D03*
X0153859Y0047993D03*
X0128150Y0047993D03*
X0128150Y0052914D03*
X0110552Y0052914D03*
X0110552Y0047993D03*
X0084843Y0047993D03*
X0084843Y0052914D03*
X0067245Y0052914D03*
X0067245Y0047993D03*
X0041536Y0047993D03*
X0041536Y0052914D03*
X0023938Y0052914D03*
X0023938Y0047993D03*
X0023938Y0075552D03*
X0023938Y0080473D03*
X0041536Y0080473D03*
X0041536Y0075552D03*
X0067245Y0075552D03*
X0067245Y0080473D03*
X0084843Y0080473D03*
X0084843Y0075552D03*
X0110552Y0075552D03*
X0110552Y0080473D03*
X0128150Y0080473D03*
X0128150Y0075552D03*
X0153859Y0075552D03*
X0153859Y0080473D03*
X0171457Y0080473D03*
X0171457Y0075552D03*
X0197166Y0075552D03*
X0197166Y0080473D03*
X0214765Y0080473D03*
X0214765Y0075552D03*
X0240473Y0075552D03*
X0240473Y0080473D03*
X0258072Y0080473D03*
X0258072Y0075552D03*
X0283780Y0075552D03*
X0283780Y0080473D03*
X0301379Y0080473D03*
X0301379Y0075552D03*
X0323150Y0075552D03*
X0323150Y0080473D03*
X0340749Y0080473D03*
X0340749Y0075552D03*
X0362520Y0075552D03*
X0362520Y0080473D03*
X0380119Y0080473D03*
X0380119Y0075552D03*
X0380119Y0103111D03*
X0380119Y0108032D03*
X0362520Y0108032D03*
X0362520Y0103111D03*
X0340749Y0103111D03*
X0340749Y0108032D03*
X0323150Y0108032D03*
X0323150Y0103111D03*
X0301379Y0103111D03*
X0301379Y0108032D03*
X0283780Y0108032D03*
X0283780Y0103111D03*
X0258072Y0103111D03*
X0258072Y0108032D03*
X0240473Y0108032D03*
X0240473Y0103111D03*
X0214765Y0103111D03*
X0214765Y0108032D03*
X0197166Y0108032D03*
X0197166Y0103111D03*
X0171457Y0103111D03*
X0171457Y0108032D03*
X0153859Y0108032D03*
X0153859Y0103111D03*
X0128150Y0103111D03*
X0128150Y0108032D03*
X0110552Y0108032D03*
X0110552Y0103111D03*
X0084843Y0103111D03*
X0084843Y0108032D03*
X0067245Y0108032D03*
X0067245Y0103111D03*
X0041536Y0103111D03*
X0041536Y0108032D03*
X0023938Y0108032D03*
X0023938Y0103111D03*
X0023938Y0130670D03*
X0023938Y0135591D03*
X0041536Y0135591D03*
X0041536Y0130670D03*
X0067245Y0130670D03*
X0067245Y0135591D03*
X0084843Y0135591D03*
X0084843Y0130670D03*
X0110552Y0130670D03*
X0110552Y0135591D03*
X0128150Y0135591D03*
X0128150Y0130670D03*
X0153859Y0130670D03*
X0153859Y0135591D03*
X0171457Y0135591D03*
X0171457Y0130670D03*
X0197166Y0130670D03*
X0197166Y0135591D03*
X0214765Y0135591D03*
X0214765Y0130670D03*
X0240473Y0130670D03*
X0240473Y0135591D03*
X0258072Y0135591D03*
X0258072Y0130670D03*
X0283780Y0130670D03*
X0283780Y0135591D03*
X0301379Y0135591D03*
X0301379Y0130670D03*
X0323150Y0130670D03*
X0323150Y0135591D03*
X0340749Y0135591D03*
X0340749Y0130670D03*
X0362520Y0130670D03*
X0362520Y0135591D03*
X0380119Y0135591D03*
X0380119Y0130670D03*
X0380119Y0158229D03*
X0380119Y0163150D03*
X0362520Y0163150D03*
X0362520Y0158229D03*
X0340749Y0158229D03*
X0340749Y0163150D03*
X0323150Y0163150D03*
X0323150Y0158229D03*
X0301379Y0158229D03*
X0301379Y0163150D03*
X0283780Y0163150D03*
X0283780Y0158229D03*
X0258072Y0158229D03*
X0258072Y0163150D03*
X0240473Y0163150D03*
X0240473Y0158229D03*
X0214765Y0158229D03*
X0214765Y0163150D03*
X0197166Y0163150D03*
X0197166Y0158229D03*
X0171457Y0158229D03*
X0171457Y0163150D03*
X0153859Y0163150D03*
X0153859Y0158229D03*
X0128150Y0158229D03*
X0128150Y0163150D03*
X0110552Y0163150D03*
X0110552Y0158229D03*
X0084843Y0158229D03*
X0084843Y0163150D03*
X0067245Y0163150D03*
X0067245Y0158229D03*
X0041536Y0158229D03*
X0041536Y0163150D03*
X0023938Y0163150D03*
X0023938Y0158229D03*
X0023938Y0185788D03*
X0023938Y0190709D03*
X0041536Y0190709D03*
X0041536Y0185788D03*
X0067245Y0185788D03*
X0067245Y0190709D03*
X0084843Y0190709D03*
X0084843Y0185788D03*
X0110552Y0185788D03*
X0110552Y0190709D03*
X0128150Y0190709D03*
X0128150Y0185788D03*
X0153859Y0185788D03*
X0153859Y0190709D03*
X0171457Y0190709D03*
X0171457Y0185788D03*
X0197166Y0185788D03*
X0197166Y0190709D03*
X0214765Y0190709D03*
X0214765Y0185788D03*
X0240473Y0185788D03*
X0240473Y0190709D03*
X0258072Y0190709D03*
X0258072Y0185788D03*
X0283780Y0185788D03*
X0283780Y0190709D03*
X0301379Y0190709D03*
X0301379Y0185788D03*
X0323150Y0185788D03*
X0323150Y0190709D03*
X0340749Y0190709D03*
X0340749Y0185788D03*
X0362520Y0185788D03*
X0362520Y0190709D03*
X0380119Y0190709D03*
X0380119Y0185788D03*
X0380119Y0213347D03*
X0380119Y0218269D03*
X0362520Y0218269D03*
X0362520Y0213347D03*
X0340749Y0213347D03*
X0340749Y0218269D03*
X0323150Y0218269D03*
X0323150Y0213347D03*
X0301379Y0213347D03*
X0301379Y0218269D03*
X0283780Y0218269D03*
X0283780Y0213347D03*
X0258072Y0213347D03*
X0258072Y0218269D03*
X0240473Y0218269D03*
X0240473Y0213347D03*
X0214765Y0213347D03*
X0214765Y0218269D03*
X0197166Y0218269D03*
X0197166Y0213347D03*
X0171457Y0213347D03*
X0171457Y0218269D03*
X0153859Y0218269D03*
X0153859Y0213347D03*
X0128150Y0213347D03*
X0128150Y0218269D03*
X0110552Y0218269D03*
X0110552Y0213347D03*
X0084843Y0213347D03*
X0084843Y0218269D03*
X0067245Y0218269D03*
X0067245Y0213347D03*
X0041536Y0213347D03*
X0041536Y0218269D03*
X0023938Y0218269D03*
X0023938Y0213347D03*
X0023938Y0240906D03*
X0023938Y0245828D03*
X0041536Y0245828D03*
X0041536Y0240906D03*
X0067245Y0240906D03*
X0067245Y0245828D03*
X0084843Y0245828D03*
X0084843Y0240906D03*
X0110552Y0240906D03*
X0110552Y0245828D03*
X0128150Y0245828D03*
X0128150Y0240906D03*
X0153859Y0240906D03*
X0153859Y0245828D03*
X0171457Y0245828D03*
X0171457Y0240906D03*
X0197166Y0240906D03*
X0197166Y0245828D03*
X0214765Y0245828D03*
X0214765Y0240906D03*
X0240473Y0240906D03*
X0240473Y0245828D03*
X0258072Y0245828D03*
X0258072Y0240906D03*
X0283780Y0240906D03*
X0283780Y0245828D03*
X0301379Y0245828D03*
X0301379Y0240906D03*
X0323150Y0240906D03*
X0323150Y0245828D03*
X0340749Y0245828D03*
X0340749Y0240906D03*
X0362520Y0240906D03*
X0362520Y0245828D03*
X0380119Y0245828D03*
X0380119Y0240906D03*
X0380119Y0268465D03*
X0380119Y0273387D03*
X0362520Y0273387D03*
X0362520Y0268465D03*
X0340749Y0268465D03*
X0340749Y0273387D03*
X0323150Y0273387D03*
X0323150Y0268465D03*
X0301379Y0268465D03*
X0301379Y0273387D03*
X0283780Y0273387D03*
X0283780Y0268465D03*
X0258072Y0268465D03*
X0258072Y0273387D03*
X0240473Y0273387D03*
X0240473Y0268465D03*
X0214765Y0268465D03*
X0214765Y0273387D03*
X0197166Y0273387D03*
X0197166Y0268465D03*
X0171457Y0268465D03*
X0171457Y0273387D03*
X0153859Y0273387D03*
X0153859Y0268465D03*
X0128150Y0268465D03*
X0128150Y0273387D03*
X0110552Y0273387D03*
X0110552Y0268465D03*
X0084843Y0268465D03*
X0084843Y0273387D03*
X0067245Y0273387D03*
X0067245Y0268465D03*
X0041536Y0268465D03*
X0041536Y0273387D03*
X0023938Y0273387D03*
X0023938Y0268465D03*
X0023938Y0296024D03*
X0023938Y0300946D03*
X0041536Y0300946D03*
X0041536Y0296024D03*
X0067245Y0296024D03*
X0067245Y0300946D03*
X0084843Y0300946D03*
X0084843Y0296024D03*
X0110552Y0296024D03*
X0110552Y0300946D03*
X0128150Y0300946D03*
X0128150Y0296024D03*
X0153859Y0296024D03*
X0153859Y0300946D03*
X0171457Y0300946D03*
X0171457Y0296024D03*
X0197166Y0296024D03*
X0197166Y0300946D03*
X0214765Y0300946D03*
X0214765Y0296024D03*
X0240473Y0296024D03*
X0240473Y0300946D03*
X0258072Y0300946D03*
X0258072Y0296024D03*
X0283780Y0296024D03*
X0283780Y0300946D03*
X0301379Y0300946D03*
X0301379Y0296024D03*
X0323150Y0296024D03*
X0323150Y0300946D03*
X0340749Y0300946D03*
X0340749Y0296024D03*
X0362520Y0296024D03*
X0362520Y0300946D03*
X0380119Y0300946D03*
X0380119Y0296024D03*
X0380119Y0323583D03*
X0380119Y0328505D03*
X0362520Y0328505D03*
X0362520Y0323583D03*
X0340749Y0323583D03*
X0340749Y0328505D03*
X0323150Y0328505D03*
X0323150Y0323583D03*
X0301379Y0323583D03*
X0301379Y0328505D03*
X0283780Y0328505D03*
X0283780Y0323583D03*
X0258072Y0323583D03*
X0258072Y0328505D03*
X0240473Y0328505D03*
X0240473Y0323583D03*
X0214765Y0323583D03*
X0214765Y0328505D03*
X0197166Y0328505D03*
X0197166Y0323583D03*
X0171457Y0323583D03*
X0171457Y0328505D03*
X0153859Y0328505D03*
X0153859Y0323583D03*
X0128150Y0323583D03*
X0128150Y0328505D03*
X0110552Y0328505D03*
X0110552Y0323583D03*
X0084843Y0323583D03*
X0084843Y0328505D03*
X0067245Y0328505D03*
X0067245Y0323583D03*
X0041536Y0323583D03*
X0041536Y0328505D03*
X0023938Y0328505D03*
X0023938Y0323583D03*
X0023938Y0351143D03*
X0023938Y0356064D03*
X0041536Y0356064D03*
X0041536Y0351143D03*
X0041536Y0374765D03*
X0041536Y0379686D03*
X0023938Y0379686D03*
X0023938Y0374765D03*
X0067245Y0374765D03*
X0067245Y0379686D03*
X0084843Y0379686D03*
X0084843Y0374765D03*
X0084843Y0356064D03*
X0084843Y0351143D03*
X0067245Y0351143D03*
X0067245Y0356064D03*
X0110552Y0356064D03*
X0110552Y0351143D03*
X0128150Y0351143D03*
X0128150Y0356064D03*
X0128150Y0374765D03*
X0128150Y0379686D03*
X0110552Y0379686D03*
X0110552Y0374765D03*
X0153859Y0374765D03*
X0153859Y0379686D03*
X0171457Y0379686D03*
X0171457Y0374765D03*
X0171457Y0356064D03*
X0171457Y0351143D03*
X0153859Y0351143D03*
X0153859Y0356064D03*
X0197166Y0356064D03*
X0197166Y0351143D03*
X0214765Y0351143D03*
X0214765Y0356064D03*
X0214765Y0374765D03*
X0214765Y0379686D03*
X0197166Y0379686D03*
X0197166Y0374765D03*
X0240473Y0374765D03*
X0240473Y0379686D03*
X0258072Y0379686D03*
X0258072Y0374765D03*
X0258072Y0356064D03*
X0258072Y0351143D03*
X0240473Y0351143D03*
X0240473Y0356064D03*
X0283780Y0356064D03*
X0283780Y0351143D03*
X0301379Y0351143D03*
X0301379Y0356064D03*
X0301379Y0374765D03*
X0301379Y0379686D03*
X0283780Y0379686D03*
X0283780Y0374765D03*
X0323150Y0374765D03*
X0323150Y0379686D03*
X0340749Y0379686D03*
X0340749Y0374765D03*
X0340749Y0356064D03*
X0340749Y0351143D03*
X0323150Y0351143D03*
X0323150Y0356064D03*
X0362520Y0356064D03*
X0362520Y0351143D03*
X0380119Y0351143D03*
X0380119Y0356064D03*
X0380119Y0374765D03*
X0380119Y0379686D03*
X0362520Y0379686D03*
X0362520Y0374765D03*
D11*
X0367343Y0374391D03*
X0369902Y0374391D03*
X0372461Y0374391D03*
X0375020Y0374391D03*
X0375020Y0380099D03*
X0372461Y0380099D03*
X0369902Y0380099D03*
X0367343Y0380099D03*
X0367343Y0356477D03*
X0369902Y0356477D03*
X0372461Y0356477D03*
X0375020Y0356477D03*
X0375020Y0350769D03*
X0372461Y0350769D03*
X0369902Y0350769D03*
X0367343Y0350769D03*
X0367343Y0328918D03*
X0369902Y0328918D03*
X0372461Y0328918D03*
X0375020Y0328918D03*
X0375020Y0323209D03*
X0372461Y0323209D03*
X0369902Y0323209D03*
X0367343Y0323209D03*
X0367343Y0301359D03*
X0369902Y0301359D03*
X0372461Y0301359D03*
X0375020Y0301359D03*
X0375020Y0295650D03*
X0372461Y0295650D03*
X0369902Y0295650D03*
X0367343Y0295650D03*
X0367343Y0273800D03*
X0369902Y0273800D03*
X0372461Y0273800D03*
X0375020Y0273800D03*
X0375020Y0268091D03*
X0372461Y0268091D03*
X0369902Y0268091D03*
X0367343Y0268091D03*
X0367343Y0246241D03*
X0369902Y0246241D03*
X0372461Y0246241D03*
X0375020Y0246241D03*
X0375020Y0240532D03*
X0372461Y0240532D03*
X0369902Y0240532D03*
X0367343Y0240532D03*
X0367343Y0218682D03*
X0369902Y0218682D03*
X0372461Y0218682D03*
X0375020Y0218682D03*
X0375020Y0212973D03*
X0372461Y0212973D03*
X0369902Y0212973D03*
X0367343Y0212973D03*
X0367343Y0191123D03*
X0369902Y0191123D03*
X0372461Y0191123D03*
X0375020Y0191123D03*
X0375020Y0185414D03*
X0372461Y0185414D03*
X0369902Y0185414D03*
X0367343Y0185414D03*
X0367343Y0163564D03*
X0369902Y0163564D03*
X0372461Y0163564D03*
X0375020Y0163564D03*
X0375020Y0157855D03*
X0372461Y0157855D03*
X0369902Y0157855D03*
X0367343Y0157855D03*
X0367343Y0136005D03*
X0369902Y0136005D03*
X0372461Y0136005D03*
X0375020Y0136005D03*
X0375020Y0130296D03*
X0372461Y0130296D03*
X0369902Y0130296D03*
X0367343Y0130296D03*
X0367343Y0108446D03*
X0369902Y0108446D03*
X0372461Y0108446D03*
X0375020Y0108446D03*
X0375020Y0102737D03*
X0372461Y0102737D03*
X0369902Y0102737D03*
X0367343Y0102737D03*
X0367343Y0080887D03*
X0369902Y0080887D03*
X0372461Y0080887D03*
X0375020Y0080887D03*
X0375020Y0075178D03*
X0372461Y0075178D03*
X0369902Y0075178D03*
X0367343Y0075178D03*
X0367343Y0053328D03*
X0369902Y0053328D03*
X0372461Y0053328D03*
X0375020Y0053328D03*
X0375020Y0047619D03*
X0372461Y0047619D03*
X0369902Y0047619D03*
X0367343Y0047619D03*
X0367343Y0025769D03*
X0369902Y0025769D03*
X0372461Y0025769D03*
X0375020Y0025769D03*
X0375020Y0020060D03*
X0372461Y0020060D03*
X0369902Y0020060D03*
X0367343Y0020060D03*
X0335650Y0020060D03*
X0333091Y0020060D03*
X0330532Y0020060D03*
X0327973Y0020060D03*
X0327973Y0025769D03*
X0330532Y0025769D03*
X0333091Y0025769D03*
X0335650Y0025769D03*
X0335650Y0047619D03*
X0333091Y0047619D03*
X0330532Y0047619D03*
X0327973Y0047619D03*
X0327973Y0053328D03*
X0330532Y0053328D03*
X0333091Y0053328D03*
X0335650Y0053328D03*
X0335650Y0075178D03*
X0333091Y0075178D03*
X0330532Y0075178D03*
X0327973Y0075178D03*
X0327973Y0080887D03*
X0330532Y0080887D03*
X0333091Y0080887D03*
X0335650Y0080887D03*
X0335650Y0102737D03*
X0333091Y0102737D03*
X0330532Y0102737D03*
X0327973Y0102737D03*
X0327973Y0108446D03*
X0330532Y0108446D03*
X0333091Y0108446D03*
X0335650Y0108446D03*
X0335650Y0130296D03*
X0333091Y0130296D03*
X0330532Y0130296D03*
X0327973Y0130296D03*
X0327973Y0136005D03*
X0330532Y0136005D03*
X0333091Y0136005D03*
X0335650Y0136005D03*
X0335650Y0157855D03*
X0333091Y0157855D03*
X0330532Y0157855D03*
X0327973Y0157855D03*
X0327973Y0163564D03*
X0330532Y0163564D03*
X0333091Y0163564D03*
X0335650Y0163564D03*
X0335650Y0185414D03*
X0333091Y0185414D03*
X0330532Y0185414D03*
X0327973Y0185414D03*
X0327973Y0191123D03*
X0330532Y0191123D03*
X0333091Y0191123D03*
X0335650Y0191123D03*
X0335650Y0212973D03*
X0333091Y0212973D03*
X0330532Y0212973D03*
X0327973Y0212973D03*
X0327973Y0218682D03*
X0330532Y0218682D03*
X0333091Y0218682D03*
X0335650Y0218682D03*
X0335650Y0240532D03*
X0333091Y0240532D03*
X0330532Y0240532D03*
X0327973Y0240532D03*
X0327973Y0246241D03*
X0330532Y0246241D03*
X0333091Y0246241D03*
X0335650Y0246241D03*
X0335650Y0268091D03*
X0333091Y0268091D03*
X0330532Y0268091D03*
X0327973Y0268091D03*
X0327973Y0273800D03*
X0330532Y0273800D03*
X0333091Y0273800D03*
X0335650Y0273800D03*
X0335650Y0295650D03*
X0333091Y0295650D03*
X0330532Y0295650D03*
X0327973Y0295650D03*
X0327973Y0301359D03*
X0330532Y0301359D03*
X0333091Y0301359D03*
X0335650Y0301359D03*
X0335650Y0323209D03*
X0333091Y0323209D03*
X0330532Y0323209D03*
X0327973Y0323209D03*
X0327973Y0328918D03*
X0330532Y0328918D03*
X0333091Y0328918D03*
X0335650Y0328918D03*
X0335650Y0350769D03*
X0333091Y0350769D03*
X0330532Y0350769D03*
X0327973Y0350769D03*
X0327973Y0356477D03*
X0330532Y0356477D03*
X0333091Y0356477D03*
X0335650Y0356477D03*
X0335650Y0374391D03*
X0333091Y0374391D03*
X0330532Y0374391D03*
X0327973Y0374391D03*
X0327973Y0380099D03*
X0330532Y0380099D03*
X0333091Y0380099D03*
X0335650Y0380099D03*
X0296280Y0380099D03*
X0293721Y0380099D03*
X0291162Y0380099D03*
X0288603Y0380099D03*
X0288603Y0374391D03*
X0291162Y0374391D03*
X0293721Y0374391D03*
X0296280Y0374391D03*
X0296280Y0356477D03*
X0293721Y0356477D03*
X0291162Y0356477D03*
X0288603Y0356477D03*
X0288603Y0350769D03*
X0291162Y0350769D03*
X0293721Y0350769D03*
X0296280Y0350769D03*
X0296280Y0328918D03*
X0293721Y0328918D03*
X0291162Y0328918D03*
X0288603Y0328918D03*
X0288603Y0323209D03*
X0291162Y0323209D03*
X0293721Y0323209D03*
X0296280Y0323209D03*
X0296280Y0301359D03*
X0293721Y0301359D03*
X0291162Y0301359D03*
X0288603Y0301359D03*
X0288603Y0295650D03*
X0291162Y0295650D03*
X0293721Y0295650D03*
X0296280Y0295650D03*
X0296280Y0273800D03*
X0293721Y0273800D03*
X0291162Y0273800D03*
X0288603Y0273800D03*
X0288603Y0268091D03*
X0291162Y0268091D03*
X0293721Y0268091D03*
X0296280Y0268091D03*
X0296280Y0246241D03*
X0293721Y0246241D03*
X0291162Y0246241D03*
X0288603Y0246241D03*
X0288603Y0240532D03*
X0291162Y0240532D03*
X0293721Y0240532D03*
X0296280Y0240532D03*
X0296280Y0218682D03*
X0293721Y0218682D03*
X0291162Y0218682D03*
X0288603Y0218682D03*
X0288603Y0212973D03*
X0291162Y0212973D03*
X0293721Y0212973D03*
X0296280Y0212973D03*
X0296280Y0191123D03*
X0293721Y0191123D03*
X0291162Y0191123D03*
X0288603Y0191123D03*
X0288603Y0185414D03*
X0291162Y0185414D03*
X0293721Y0185414D03*
X0296280Y0185414D03*
X0296280Y0163564D03*
X0293721Y0163564D03*
X0291162Y0163564D03*
X0288603Y0163564D03*
X0288603Y0157855D03*
X0291162Y0157855D03*
X0293721Y0157855D03*
X0296280Y0157855D03*
X0296280Y0136005D03*
X0293721Y0136005D03*
X0291162Y0136005D03*
X0288603Y0136005D03*
X0288603Y0130296D03*
X0291162Y0130296D03*
X0293721Y0130296D03*
X0296280Y0130296D03*
X0296280Y0108446D03*
X0293721Y0108446D03*
X0291162Y0108446D03*
X0288603Y0108446D03*
X0288603Y0102737D03*
X0291162Y0102737D03*
X0293721Y0102737D03*
X0296280Y0102737D03*
X0296280Y0080887D03*
X0293721Y0080887D03*
X0291162Y0080887D03*
X0288603Y0080887D03*
X0288603Y0075178D03*
X0291162Y0075178D03*
X0293721Y0075178D03*
X0296280Y0075178D03*
X0296280Y0053328D03*
X0293721Y0053328D03*
X0291162Y0053328D03*
X0288603Y0053328D03*
X0288603Y0047619D03*
X0291162Y0047619D03*
X0293721Y0047619D03*
X0296280Y0047619D03*
X0296280Y0025769D03*
X0293721Y0025769D03*
X0291162Y0025769D03*
X0288603Y0025769D03*
X0288603Y0020060D03*
X0291162Y0020060D03*
X0293721Y0020060D03*
X0296280Y0020060D03*
X0252973Y0020060D03*
X0250414Y0020060D03*
X0247855Y0020060D03*
X0245296Y0020060D03*
X0245296Y0025769D03*
X0247855Y0025769D03*
X0250414Y0025769D03*
X0252973Y0025769D03*
X0252973Y0047619D03*
X0250414Y0047619D03*
X0247855Y0047619D03*
X0245296Y0047619D03*
X0245296Y0053328D03*
X0247855Y0053328D03*
X0250414Y0053328D03*
X0252973Y0053328D03*
X0252973Y0075178D03*
X0250414Y0075178D03*
X0247855Y0075178D03*
X0245296Y0075178D03*
X0245296Y0080887D03*
X0247855Y0080887D03*
X0250414Y0080887D03*
X0252973Y0080887D03*
X0252973Y0102737D03*
X0250414Y0102737D03*
X0247855Y0102737D03*
X0245296Y0102737D03*
X0245296Y0108446D03*
X0247855Y0108446D03*
X0250414Y0108446D03*
X0252973Y0108446D03*
X0252973Y0130296D03*
X0250414Y0130296D03*
X0247855Y0130296D03*
X0245296Y0130296D03*
X0245296Y0136005D03*
X0247855Y0136005D03*
X0250414Y0136005D03*
X0252973Y0136005D03*
X0252973Y0157855D03*
X0250414Y0157855D03*
X0247855Y0157855D03*
X0245296Y0157855D03*
X0245296Y0163564D03*
X0247855Y0163564D03*
X0250414Y0163564D03*
X0252973Y0163564D03*
X0252973Y0185414D03*
X0250414Y0185414D03*
X0247855Y0185414D03*
X0245296Y0185414D03*
X0245296Y0191123D03*
X0247855Y0191123D03*
X0250414Y0191123D03*
X0252973Y0191123D03*
X0252973Y0212973D03*
X0250414Y0212973D03*
X0247855Y0212973D03*
X0245296Y0212973D03*
X0245296Y0218682D03*
X0247855Y0218682D03*
X0250414Y0218682D03*
X0252973Y0218682D03*
X0252973Y0240532D03*
X0250414Y0240532D03*
X0247855Y0240532D03*
X0245296Y0240532D03*
X0245296Y0246241D03*
X0247855Y0246241D03*
X0250414Y0246241D03*
X0252973Y0246241D03*
X0252973Y0268091D03*
X0250414Y0268091D03*
X0247855Y0268091D03*
X0245296Y0268091D03*
X0245296Y0273800D03*
X0247855Y0273800D03*
X0250414Y0273800D03*
X0252973Y0273800D03*
X0252973Y0295650D03*
X0250414Y0295650D03*
X0247855Y0295650D03*
X0245296Y0295650D03*
X0245296Y0301359D03*
X0247855Y0301359D03*
X0250414Y0301359D03*
X0252973Y0301359D03*
X0252973Y0323209D03*
X0250414Y0323209D03*
X0247855Y0323209D03*
X0245296Y0323209D03*
X0245296Y0328918D03*
X0247855Y0328918D03*
X0250414Y0328918D03*
X0252973Y0328918D03*
X0252973Y0350769D03*
X0250414Y0350769D03*
X0247855Y0350769D03*
X0245296Y0350769D03*
X0245296Y0356477D03*
X0247855Y0356477D03*
X0250414Y0356477D03*
X0252973Y0356477D03*
X0252973Y0374391D03*
X0250414Y0374391D03*
X0247855Y0374391D03*
X0245296Y0374391D03*
X0245296Y0380099D03*
X0247855Y0380099D03*
X0250414Y0380099D03*
X0252973Y0380099D03*
X0209666Y0380099D03*
X0207107Y0380099D03*
X0204548Y0380099D03*
X0201989Y0380099D03*
X0201989Y0374391D03*
X0204548Y0374391D03*
X0207107Y0374391D03*
X0209666Y0374391D03*
X0209666Y0356477D03*
X0207107Y0356477D03*
X0204548Y0356477D03*
X0201989Y0356477D03*
X0201989Y0350769D03*
X0204548Y0350769D03*
X0207107Y0350769D03*
X0209666Y0350769D03*
X0209666Y0328918D03*
X0207107Y0328918D03*
X0204548Y0328918D03*
X0201989Y0328918D03*
X0201989Y0323209D03*
X0204548Y0323209D03*
X0207107Y0323209D03*
X0209666Y0323209D03*
X0209666Y0301359D03*
X0207107Y0301359D03*
X0204548Y0301359D03*
X0201989Y0301359D03*
X0201989Y0295650D03*
X0204548Y0295650D03*
X0207107Y0295650D03*
X0209666Y0295650D03*
X0209666Y0273800D03*
X0207107Y0273800D03*
X0204548Y0273800D03*
X0201989Y0273800D03*
X0201989Y0268091D03*
X0204548Y0268091D03*
X0207107Y0268091D03*
X0209666Y0268091D03*
X0209666Y0246241D03*
X0207107Y0246241D03*
X0204548Y0246241D03*
X0201989Y0246241D03*
X0201989Y0240532D03*
X0204548Y0240532D03*
X0207107Y0240532D03*
X0209666Y0240532D03*
X0209666Y0218682D03*
X0207107Y0218682D03*
X0204548Y0218682D03*
X0201989Y0218682D03*
X0201989Y0212973D03*
X0204548Y0212973D03*
X0207107Y0212973D03*
X0209666Y0212973D03*
X0209666Y0191123D03*
X0207107Y0191123D03*
X0204548Y0191123D03*
X0201989Y0191123D03*
X0201989Y0185414D03*
X0204548Y0185414D03*
X0207107Y0185414D03*
X0209666Y0185414D03*
X0209666Y0163564D03*
X0207107Y0163564D03*
X0204548Y0163564D03*
X0201989Y0163564D03*
X0201989Y0157855D03*
X0204548Y0157855D03*
X0207107Y0157855D03*
X0209666Y0157855D03*
X0209666Y0136005D03*
X0207107Y0136005D03*
X0204548Y0136005D03*
X0201989Y0136005D03*
X0201989Y0130296D03*
X0204548Y0130296D03*
X0207107Y0130296D03*
X0209666Y0130296D03*
X0209666Y0108446D03*
X0207107Y0108446D03*
X0204548Y0108446D03*
X0201989Y0108446D03*
X0201989Y0102737D03*
X0204548Y0102737D03*
X0207107Y0102737D03*
X0209666Y0102737D03*
X0209666Y0080887D03*
X0207107Y0080887D03*
X0204548Y0080887D03*
X0201989Y0080887D03*
X0201989Y0075178D03*
X0204548Y0075178D03*
X0207107Y0075178D03*
X0209666Y0075178D03*
X0209666Y0053328D03*
X0207107Y0053328D03*
X0204548Y0053328D03*
X0201989Y0053328D03*
X0201989Y0047619D03*
X0204548Y0047619D03*
X0207107Y0047619D03*
X0209666Y0047619D03*
X0209666Y0025769D03*
X0207107Y0025769D03*
X0204548Y0025769D03*
X0201989Y0025769D03*
X0201989Y0020060D03*
X0204548Y0020060D03*
X0207107Y0020060D03*
X0209666Y0020060D03*
X0166359Y0020060D03*
X0163800Y0020060D03*
X0161241Y0020060D03*
X0158682Y0020060D03*
X0158682Y0025769D03*
X0161241Y0025769D03*
X0163800Y0025769D03*
X0166359Y0025769D03*
X0166359Y0047619D03*
X0163800Y0047619D03*
X0161241Y0047619D03*
X0158682Y0047619D03*
X0158682Y0053328D03*
X0161241Y0053328D03*
X0163800Y0053328D03*
X0166359Y0053328D03*
X0166359Y0075178D03*
X0163800Y0075178D03*
X0161241Y0075178D03*
X0158682Y0075178D03*
X0158682Y0080887D03*
X0161241Y0080887D03*
X0163800Y0080887D03*
X0166359Y0080887D03*
X0166359Y0102737D03*
X0163800Y0102737D03*
X0161241Y0102737D03*
X0158682Y0102737D03*
X0158682Y0108446D03*
X0161241Y0108446D03*
X0163800Y0108446D03*
X0166359Y0108446D03*
X0166359Y0130296D03*
X0163800Y0130296D03*
X0161241Y0130296D03*
X0158682Y0130296D03*
X0158682Y0136005D03*
X0161241Y0136005D03*
X0163800Y0136005D03*
X0166359Y0136005D03*
X0166359Y0157855D03*
X0163800Y0157855D03*
X0161241Y0157855D03*
X0158682Y0157855D03*
X0158682Y0163564D03*
X0161241Y0163564D03*
X0163800Y0163564D03*
X0166359Y0163564D03*
X0166359Y0185414D03*
X0163800Y0185414D03*
X0161241Y0185414D03*
X0158682Y0185414D03*
X0158682Y0191123D03*
X0161241Y0191123D03*
X0163800Y0191123D03*
X0166359Y0191123D03*
X0166359Y0212973D03*
X0163800Y0212973D03*
X0161241Y0212973D03*
X0158682Y0212973D03*
X0158682Y0218682D03*
X0161241Y0218682D03*
X0163800Y0218682D03*
X0166359Y0218682D03*
X0166359Y0240532D03*
X0163800Y0240532D03*
X0161241Y0240532D03*
X0158682Y0240532D03*
X0158682Y0246241D03*
X0161241Y0246241D03*
X0163800Y0246241D03*
X0166359Y0246241D03*
X0166359Y0268091D03*
X0163800Y0268091D03*
X0161241Y0268091D03*
X0158682Y0268091D03*
X0158682Y0273800D03*
X0161241Y0273800D03*
X0163800Y0273800D03*
X0166359Y0273800D03*
X0166359Y0295650D03*
X0163800Y0295650D03*
X0161241Y0295650D03*
X0158682Y0295650D03*
X0158682Y0301359D03*
X0161241Y0301359D03*
X0163800Y0301359D03*
X0166359Y0301359D03*
X0166359Y0323209D03*
X0163800Y0323209D03*
X0161241Y0323209D03*
X0158682Y0323209D03*
X0158682Y0328918D03*
X0161241Y0328918D03*
X0163800Y0328918D03*
X0166359Y0328918D03*
X0166359Y0350769D03*
X0163800Y0350769D03*
X0161241Y0350769D03*
X0158682Y0350769D03*
X0158682Y0356477D03*
X0161241Y0356477D03*
X0163800Y0356477D03*
X0166359Y0356477D03*
X0166359Y0374391D03*
X0163800Y0374391D03*
X0161241Y0374391D03*
X0158682Y0374391D03*
X0158682Y0380099D03*
X0161241Y0380099D03*
X0163800Y0380099D03*
X0166359Y0380099D03*
X0123052Y0380099D03*
X0120493Y0380099D03*
X0117934Y0380099D03*
X0115375Y0380099D03*
X0115375Y0374391D03*
X0117934Y0374391D03*
X0120493Y0374391D03*
X0123052Y0374391D03*
X0123052Y0356477D03*
X0120493Y0356477D03*
X0117934Y0356477D03*
X0115375Y0356477D03*
X0115375Y0350769D03*
X0117934Y0350769D03*
X0120493Y0350769D03*
X0123052Y0350769D03*
X0123052Y0328918D03*
X0120493Y0328918D03*
X0117934Y0328918D03*
X0115375Y0328918D03*
X0115375Y0323209D03*
X0117934Y0323209D03*
X0120493Y0323209D03*
X0123052Y0323209D03*
X0123052Y0301359D03*
X0120493Y0301359D03*
X0117934Y0301359D03*
X0115375Y0301359D03*
X0115375Y0295650D03*
X0117934Y0295650D03*
X0120493Y0295650D03*
X0123052Y0295650D03*
X0123052Y0273800D03*
X0120493Y0273800D03*
X0117934Y0273800D03*
X0115375Y0273800D03*
X0115375Y0268091D03*
X0117934Y0268091D03*
X0120493Y0268091D03*
X0123052Y0268091D03*
X0123052Y0246241D03*
X0120493Y0246241D03*
X0117934Y0246241D03*
X0115375Y0246241D03*
X0115375Y0240532D03*
X0117934Y0240532D03*
X0120493Y0240532D03*
X0123052Y0240532D03*
X0123052Y0218682D03*
X0120493Y0218682D03*
X0117934Y0218682D03*
X0115375Y0218682D03*
X0115375Y0212973D03*
X0117934Y0212973D03*
X0120493Y0212973D03*
X0123052Y0212973D03*
X0123052Y0191123D03*
X0120493Y0191123D03*
X0117934Y0191123D03*
X0115375Y0191123D03*
X0115375Y0185414D03*
X0117934Y0185414D03*
X0120493Y0185414D03*
X0123052Y0185414D03*
X0123052Y0163564D03*
X0120493Y0163564D03*
X0117934Y0163564D03*
X0115375Y0163564D03*
X0115375Y0157855D03*
X0117934Y0157855D03*
X0120493Y0157855D03*
X0123052Y0157855D03*
X0123052Y0136005D03*
X0120493Y0136005D03*
X0117934Y0136005D03*
X0115375Y0136005D03*
X0115375Y0130296D03*
X0117934Y0130296D03*
X0120493Y0130296D03*
X0123052Y0130296D03*
X0123052Y0108446D03*
X0120493Y0108446D03*
X0117934Y0108446D03*
X0115375Y0108446D03*
X0115375Y0102737D03*
X0117934Y0102737D03*
X0120493Y0102737D03*
X0123052Y0102737D03*
X0123052Y0080887D03*
X0120493Y0080887D03*
X0117934Y0080887D03*
X0115375Y0080887D03*
X0115375Y0075178D03*
X0117934Y0075178D03*
X0120493Y0075178D03*
X0123052Y0075178D03*
X0123052Y0053328D03*
X0120493Y0053328D03*
X0117934Y0053328D03*
X0115375Y0053328D03*
X0115375Y0047619D03*
X0117934Y0047619D03*
X0120493Y0047619D03*
X0123052Y0047619D03*
X0123052Y0025769D03*
X0120493Y0025769D03*
X0117934Y0025769D03*
X0115375Y0025769D03*
X0115375Y0020060D03*
X0117934Y0020060D03*
X0120493Y0020060D03*
X0123052Y0020060D03*
X0079745Y0020060D03*
X0077186Y0020060D03*
X0074627Y0020060D03*
X0072068Y0020060D03*
X0072068Y0025769D03*
X0074627Y0025769D03*
X0077186Y0025769D03*
X0079745Y0025769D03*
X0079745Y0047619D03*
X0077186Y0047619D03*
X0074627Y0047619D03*
X0072068Y0047619D03*
X0072068Y0053328D03*
X0074627Y0053328D03*
X0077186Y0053328D03*
X0079745Y0053328D03*
X0079745Y0075178D03*
X0077186Y0075178D03*
X0074627Y0075178D03*
X0072068Y0075178D03*
X0072068Y0080887D03*
X0074627Y0080887D03*
X0077186Y0080887D03*
X0079745Y0080887D03*
X0079745Y0102737D03*
X0077186Y0102737D03*
X0074627Y0102737D03*
X0072068Y0102737D03*
X0072068Y0108446D03*
X0074627Y0108446D03*
X0077186Y0108446D03*
X0079745Y0108446D03*
X0079745Y0130296D03*
X0077186Y0130296D03*
X0074627Y0130296D03*
X0072068Y0130296D03*
X0072068Y0136005D03*
X0074627Y0136005D03*
X0077186Y0136005D03*
X0079745Y0136005D03*
X0079745Y0157855D03*
X0077186Y0157855D03*
X0074627Y0157855D03*
X0072068Y0157855D03*
X0072068Y0163564D03*
X0074627Y0163564D03*
X0077186Y0163564D03*
X0079745Y0163564D03*
X0079745Y0185414D03*
X0077186Y0185414D03*
X0074627Y0185414D03*
X0072068Y0185414D03*
X0072068Y0191123D03*
X0074627Y0191123D03*
X0077186Y0191123D03*
X0079745Y0191123D03*
X0079745Y0212973D03*
X0077186Y0212973D03*
X0074627Y0212973D03*
X0072068Y0212973D03*
X0072068Y0218682D03*
X0074627Y0218682D03*
X0077186Y0218682D03*
X0079745Y0218682D03*
X0079745Y0240532D03*
X0077186Y0240532D03*
X0074627Y0240532D03*
X0072068Y0240532D03*
X0072068Y0246241D03*
X0074627Y0246241D03*
X0077186Y0246241D03*
X0079745Y0246241D03*
X0079745Y0268091D03*
X0077186Y0268091D03*
X0074627Y0268091D03*
X0072068Y0268091D03*
X0072068Y0273800D03*
X0074627Y0273800D03*
X0077186Y0273800D03*
X0079745Y0273800D03*
X0079745Y0295650D03*
X0077186Y0295650D03*
X0074627Y0295650D03*
X0072068Y0295650D03*
X0072068Y0301359D03*
X0074627Y0301359D03*
X0077186Y0301359D03*
X0079745Y0301359D03*
X0079745Y0323209D03*
X0077186Y0323209D03*
X0074627Y0323209D03*
X0072068Y0323209D03*
X0072068Y0328918D03*
X0074627Y0328918D03*
X0077186Y0328918D03*
X0079745Y0328918D03*
X0079745Y0350769D03*
X0077186Y0350769D03*
X0074627Y0350769D03*
X0072068Y0350769D03*
X0072068Y0356477D03*
X0074627Y0356477D03*
X0077186Y0356477D03*
X0079745Y0356477D03*
X0079745Y0374391D03*
X0077186Y0374391D03*
X0074627Y0374391D03*
X0072068Y0374391D03*
X0072068Y0380099D03*
X0074627Y0380099D03*
X0077186Y0380099D03*
X0079745Y0380099D03*
X0036438Y0380099D03*
X0033879Y0380099D03*
X0031320Y0380099D03*
X0028761Y0380099D03*
X0028761Y0374391D03*
X0031320Y0374391D03*
X0033879Y0374391D03*
X0036438Y0374391D03*
X0036438Y0356477D03*
X0033879Y0356477D03*
X0031320Y0356477D03*
X0028761Y0356477D03*
X0028761Y0350769D03*
X0031320Y0350769D03*
X0033879Y0350769D03*
X0036438Y0350769D03*
X0036438Y0328918D03*
X0033879Y0328918D03*
X0031320Y0328918D03*
X0028761Y0328918D03*
X0028761Y0323209D03*
X0031320Y0323209D03*
X0033879Y0323209D03*
X0036438Y0323209D03*
X0036438Y0301359D03*
X0033879Y0301359D03*
X0031320Y0301359D03*
X0028761Y0301359D03*
X0028761Y0295650D03*
X0031320Y0295650D03*
X0033879Y0295650D03*
X0036438Y0295650D03*
X0036438Y0273800D03*
X0033879Y0273800D03*
X0031320Y0273800D03*
X0028761Y0273800D03*
X0028761Y0268091D03*
X0031320Y0268091D03*
X0033879Y0268091D03*
X0036438Y0268091D03*
X0036438Y0246241D03*
X0033879Y0246241D03*
X0031320Y0246241D03*
X0028761Y0246241D03*
X0028761Y0240532D03*
X0031320Y0240532D03*
X0033879Y0240532D03*
X0036438Y0240532D03*
X0036438Y0218682D03*
X0033879Y0218682D03*
X0031320Y0218682D03*
X0028761Y0218682D03*
X0028761Y0212973D03*
X0031320Y0212973D03*
X0033879Y0212973D03*
X0036438Y0212973D03*
X0036438Y0191123D03*
X0033879Y0191123D03*
X0031320Y0191123D03*
X0028761Y0191123D03*
X0028761Y0185414D03*
X0031320Y0185414D03*
X0033879Y0185414D03*
X0036438Y0185414D03*
X0036438Y0163564D03*
X0033879Y0163564D03*
X0031320Y0163564D03*
X0028761Y0163564D03*
X0028761Y0157855D03*
X0031320Y0157855D03*
X0033879Y0157855D03*
X0036438Y0157855D03*
X0036438Y0136005D03*
X0033879Y0136005D03*
X0031320Y0136005D03*
X0028761Y0136005D03*
X0028761Y0130296D03*
X0031320Y0130296D03*
X0033879Y0130296D03*
X0036438Y0130296D03*
X0036438Y0108446D03*
X0033879Y0108446D03*
X0031320Y0108446D03*
X0028761Y0108446D03*
X0028761Y0102737D03*
X0031320Y0102737D03*
X0033879Y0102737D03*
X0036438Y0102737D03*
X0036438Y0080887D03*
X0033879Y0080887D03*
X0031320Y0080887D03*
X0028761Y0080887D03*
X0028761Y0075178D03*
X0031320Y0075178D03*
X0033879Y0075178D03*
X0036438Y0075178D03*
X0036438Y0053328D03*
X0033879Y0053328D03*
X0031320Y0053328D03*
X0028761Y0053328D03*
X0028761Y0047619D03*
X0031320Y0047619D03*
X0033879Y0047619D03*
X0036438Y0047619D03*
X0036438Y0025769D03*
X0033879Y0025769D03*
X0031320Y0025769D03*
X0028761Y0025769D03*
X0028761Y0020060D03*
X0031320Y0020060D03*
X0033879Y0020060D03*
X0036438Y0020060D03*
M02*
