G75*
%MOIN*%
%OFA0B0*%
%FSLAX25Y25*%
%IPPOS*%
%LPD*%
%AMOC8*
5,1,8,0,0,1.08239X$1,22.5*
%
%ADD10R,0.01575X0.01575*%
D10*
X0044115Y0032304D03*
X0046674Y0032304D03*
X0049233Y0032304D03*
X0051792Y0032304D03*
X0051792Y0038013D03*
X0049233Y0038013D03*
X0046674Y0038013D03*
X0044115Y0038013D03*
X0044115Y0067737D03*
X0046674Y0067737D03*
X0049233Y0067737D03*
X0051792Y0067737D03*
X0051792Y0073446D03*
X0049233Y0073446D03*
X0046674Y0073446D03*
X0044115Y0073446D03*
X0044115Y0103170D03*
X0046674Y0103170D03*
X0049233Y0103170D03*
X0051792Y0103170D03*
X0051792Y0108879D03*
X0049233Y0108879D03*
X0046674Y0108879D03*
X0044115Y0108879D03*
X0044115Y0138603D03*
X0046674Y0138603D03*
X0049233Y0138603D03*
X0051792Y0138603D03*
X0051792Y0144312D03*
X0049233Y0144312D03*
X0046674Y0144312D03*
X0044115Y0144312D03*
X0044115Y0174036D03*
X0046674Y0174036D03*
X0049233Y0174036D03*
X0051792Y0174036D03*
X0051792Y0179745D03*
X0049233Y0179745D03*
X0046674Y0179745D03*
X0044115Y0179745D03*
X0044115Y0209469D03*
X0046674Y0209469D03*
X0049233Y0209469D03*
X0051792Y0209469D03*
X0051792Y0215178D03*
X0049233Y0215178D03*
X0046674Y0215178D03*
X0044115Y0215178D03*
X0044115Y0244902D03*
X0046674Y0244902D03*
X0049233Y0244902D03*
X0051792Y0244902D03*
X0051792Y0250611D03*
X0049233Y0250611D03*
X0046674Y0250611D03*
X0044115Y0250611D03*
X0044115Y0280335D03*
X0046674Y0280335D03*
X0049233Y0280335D03*
X0051792Y0280335D03*
X0051792Y0286044D03*
X0049233Y0286044D03*
X0046674Y0286044D03*
X0044115Y0286044D03*
X0044115Y0319706D03*
X0046674Y0319706D03*
X0049233Y0319706D03*
X0051792Y0319706D03*
X0051792Y0325414D03*
X0049233Y0325414D03*
X0046674Y0325414D03*
X0044115Y0325414D03*
X0044115Y0355139D03*
X0046674Y0355139D03*
X0049233Y0355139D03*
X0051792Y0355139D03*
X0051792Y0360847D03*
X0049233Y0360847D03*
X0046674Y0360847D03*
X0044115Y0360847D03*
X0095296Y0360847D03*
X0097855Y0360847D03*
X0100414Y0360847D03*
X0102973Y0360847D03*
X0102973Y0355139D03*
X0100414Y0355139D03*
X0097855Y0355139D03*
X0095296Y0355139D03*
X0095296Y0325414D03*
X0097855Y0325414D03*
X0100414Y0325414D03*
X0102973Y0325414D03*
X0102973Y0319706D03*
X0100414Y0319706D03*
X0097855Y0319706D03*
X0095296Y0319706D03*
X0095296Y0286044D03*
X0097855Y0286044D03*
X0100414Y0286044D03*
X0102973Y0286044D03*
X0102973Y0280335D03*
X0100414Y0280335D03*
X0097855Y0280335D03*
X0095296Y0280335D03*
X0095296Y0250611D03*
X0097855Y0250611D03*
X0100414Y0250611D03*
X0102973Y0250611D03*
X0102973Y0244902D03*
X0100414Y0244902D03*
X0097855Y0244902D03*
X0095296Y0244902D03*
X0095296Y0215178D03*
X0097855Y0215178D03*
X0100414Y0215178D03*
X0102973Y0215178D03*
X0102973Y0209469D03*
X0100414Y0209469D03*
X0097855Y0209469D03*
X0095296Y0209469D03*
X0095296Y0179745D03*
X0097855Y0179745D03*
X0100414Y0179745D03*
X0102973Y0179745D03*
X0102973Y0174036D03*
X0100414Y0174036D03*
X0097855Y0174036D03*
X0095296Y0174036D03*
X0095296Y0144312D03*
X0097855Y0144312D03*
X0100414Y0144312D03*
X0102973Y0144312D03*
X0102973Y0138603D03*
X0100414Y0138603D03*
X0097855Y0138603D03*
X0095296Y0138603D03*
X0095296Y0108879D03*
X0097855Y0108879D03*
X0100414Y0108879D03*
X0102973Y0108879D03*
X0102973Y0103170D03*
X0100414Y0103170D03*
X0097855Y0103170D03*
X0095296Y0103170D03*
X0095296Y0073446D03*
X0097855Y0073446D03*
X0100414Y0073446D03*
X0102973Y0073446D03*
X0102973Y0067737D03*
X0100414Y0067737D03*
X0097855Y0067737D03*
X0095296Y0067737D03*
X0095296Y0038013D03*
X0097855Y0038013D03*
X0100414Y0038013D03*
X0102973Y0038013D03*
X0102973Y0032304D03*
X0100414Y0032304D03*
X0097855Y0032304D03*
X0095296Y0032304D03*
X0150414Y0032304D03*
X0152973Y0032304D03*
X0155532Y0032304D03*
X0158091Y0032304D03*
X0158091Y0038013D03*
X0155532Y0038013D03*
X0152973Y0038013D03*
X0150414Y0038013D03*
X0150414Y0067737D03*
X0152973Y0067737D03*
X0155532Y0067737D03*
X0158091Y0067737D03*
X0158091Y0073446D03*
X0155532Y0073446D03*
X0152973Y0073446D03*
X0150414Y0073446D03*
X0150414Y0103170D03*
X0152973Y0103170D03*
X0155532Y0103170D03*
X0158091Y0103170D03*
X0158091Y0108879D03*
X0155532Y0108879D03*
X0152973Y0108879D03*
X0150414Y0108879D03*
X0150414Y0138603D03*
X0152973Y0138603D03*
X0155532Y0138603D03*
X0158091Y0138603D03*
X0158091Y0144312D03*
X0155532Y0144312D03*
X0152973Y0144312D03*
X0150414Y0144312D03*
X0150414Y0174036D03*
X0152973Y0174036D03*
X0155532Y0174036D03*
X0158091Y0174036D03*
X0158091Y0179745D03*
X0155532Y0179745D03*
X0152973Y0179745D03*
X0150414Y0179745D03*
X0150414Y0209469D03*
X0152973Y0209469D03*
X0155532Y0209469D03*
X0158091Y0209469D03*
X0158091Y0215178D03*
X0155532Y0215178D03*
X0152973Y0215178D03*
X0150414Y0215178D03*
X0150414Y0244902D03*
X0152973Y0244902D03*
X0155532Y0244902D03*
X0158091Y0244902D03*
X0158091Y0250611D03*
X0155532Y0250611D03*
X0152973Y0250611D03*
X0150414Y0250611D03*
X0150414Y0280335D03*
X0152973Y0280335D03*
X0155532Y0280335D03*
X0158091Y0280335D03*
X0158091Y0286044D03*
X0155532Y0286044D03*
X0152973Y0286044D03*
X0150414Y0286044D03*
X0150414Y0319706D03*
X0152973Y0319706D03*
X0155532Y0319706D03*
X0158091Y0319706D03*
X0158091Y0325414D03*
X0155532Y0325414D03*
X0152973Y0325414D03*
X0150414Y0325414D03*
X0150414Y0355139D03*
X0152973Y0355139D03*
X0155532Y0355139D03*
X0158091Y0355139D03*
X0158091Y0360847D03*
X0155532Y0360847D03*
X0152973Y0360847D03*
X0150414Y0360847D03*
X0201595Y0360847D03*
X0204154Y0360847D03*
X0206713Y0360847D03*
X0209272Y0360847D03*
X0209272Y0355139D03*
X0206713Y0355139D03*
X0204154Y0355139D03*
X0201595Y0355139D03*
X0201595Y0325414D03*
X0204154Y0325414D03*
X0206713Y0325414D03*
X0209272Y0325414D03*
X0209272Y0319706D03*
X0206713Y0319706D03*
X0204154Y0319706D03*
X0201595Y0319706D03*
X0201595Y0286044D03*
X0204154Y0286044D03*
X0206713Y0286044D03*
X0209272Y0286044D03*
X0209272Y0280335D03*
X0206713Y0280335D03*
X0204154Y0280335D03*
X0201595Y0280335D03*
X0201595Y0250611D03*
X0204154Y0250611D03*
X0206713Y0250611D03*
X0209272Y0250611D03*
X0209272Y0244902D03*
X0206713Y0244902D03*
X0204154Y0244902D03*
X0201595Y0244902D03*
X0201595Y0215178D03*
X0204154Y0215178D03*
X0206713Y0215178D03*
X0209272Y0215178D03*
X0209272Y0209469D03*
X0206713Y0209469D03*
X0204154Y0209469D03*
X0201595Y0209469D03*
X0201595Y0179745D03*
X0204154Y0179745D03*
X0206713Y0179745D03*
X0209272Y0179745D03*
X0209272Y0174036D03*
X0206713Y0174036D03*
X0204154Y0174036D03*
X0201595Y0174036D03*
X0201595Y0144312D03*
X0204154Y0144312D03*
X0206713Y0144312D03*
X0209272Y0144312D03*
X0209272Y0138603D03*
X0206713Y0138603D03*
X0204154Y0138603D03*
X0201595Y0138603D03*
X0201595Y0108879D03*
X0204154Y0108879D03*
X0206713Y0108879D03*
X0209272Y0108879D03*
X0209272Y0103170D03*
X0206713Y0103170D03*
X0204154Y0103170D03*
X0201595Y0103170D03*
X0201595Y0073446D03*
X0204154Y0073446D03*
X0206713Y0073446D03*
X0209272Y0073446D03*
X0209272Y0067737D03*
X0206713Y0067737D03*
X0204154Y0067737D03*
X0201595Y0067737D03*
X0201595Y0038013D03*
X0204154Y0038013D03*
X0206713Y0038013D03*
X0209272Y0038013D03*
X0209272Y0032304D03*
X0206713Y0032304D03*
X0204154Y0032304D03*
X0201595Y0032304D03*
X0256713Y0032304D03*
X0259272Y0032304D03*
X0261831Y0032304D03*
X0264391Y0032304D03*
X0264391Y0038013D03*
X0261831Y0038013D03*
X0259272Y0038013D03*
X0256713Y0038013D03*
X0256713Y0067737D03*
X0259272Y0067737D03*
X0261831Y0067737D03*
X0264391Y0067737D03*
X0264391Y0073446D03*
X0261831Y0073446D03*
X0259272Y0073446D03*
X0256713Y0073446D03*
X0256713Y0103170D03*
X0259272Y0103170D03*
X0261831Y0103170D03*
X0264391Y0103170D03*
X0264391Y0108879D03*
X0261831Y0108879D03*
X0259272Y0108879D03*
X0256713Y0108879D03*
X0256713Y0138603D03*
X0259272Y0138603D03*
X0261831Y0138603D03*
X0264391Y0138603D03*
X0264391Y0144312D03*
X0261831Y0144312D03*
X0259272Y0144312D03*
X0256713Y0144312D03*
X0256713Y0174036D03*
X0259272Y0174036D03*
X0261831Y0174036D03*
X0264391Y0174036D03*
X0264391Y0179745D03*
X0261831Y0179745D03*
X0259272Y0179745D03*
X0256713Y0179745D03*
X0256713Y0209469D03*
X0259272Y0209469D03*
X0261831Y0209469D03*
X0264391Y0209469D03*
X0264391Y0215178D03*
X0261831Y0215178D03*
X0259272Y0215178D03*
X0256713Y0215178D03*
X0256713Y0244902D03*
X0259272Y0244902D03*
X0261831Y0244902D03*
X0264391Y0244902D03*
X0264391Y0250611D03*
X0261831Y0250611D03*
X0259272Y0250611D03*
X0256713Y0250611D03*
X0256713Y0280335D03*
X0259272Y0280335D03*
X0261831Y0280335D03*
X0264391Y0280335D03*
X0264391Y0286044D03*
X0261831Y0286044D03*
X0259272Y0286044D03*
X0256713Y0286044D03*
X0256713Y0319706D03*
X0259272Y0319706D03*
X0261831Y0319706D03*
X0264391Y0319706D03*
X0264391Y0325414D03*
X0261831Y0325414D03*
X0259272Y0325414D03*
X0256713Y0325414D03*
X0256713Y0355139D03*
X0259272Y0355139D03*
X0261831Y0355139D03*
X0264391Y0355139D03*
X0264391Y0360847D03*
X0261831Y0360847D03*
X0259272Y0360847D03*
X0256713Y0360847D03*
X0307894Y0360847D03*
X0310454Y0360847D03*
X0313013Y0360847D03*
X0315572Y0360847D03*
X0315572Y0355139D03*
X0313013Y0355139D03*
X0310454Y0355139D03*
X0307894Y0355139D03*
X0307894Y0325414D03*
X0310454Y0325414D03*
X0313013Y0325414D03*
X0315572Y0325414D03*
X0315572Y0319706D03*
X0313013Y0319706D03*
X0310454Y0319706D03*
X0307894Y0319706D03*
X0307894Y0286044D03*
X0310454Y0286044D03*
X0313013Y0286044D03*
X0315572Y0286044D03*
X0315572Y0280335D03*
X0313013Y0280335D03*
X0310454Y0280335D03*
X0307894Y0280335D03*
X0307894Y0250611D03*
X0310454Y0250611D03*
X0313013Y0250611D03*
X0315572Y0250611D03*
X0315572Y0244902D03*
X0313013Y0244902D03*
X0310454Y0244902D03*
X0307894Y0244902D03*
X0307894Y0215178D03*
X0310454Y0215178D03*
X0313013Y0215178D03*
X0315572Y0215178D03*
X0315572Y0209469D03*
X0313013Y0209469D03*
X0310454Y0209469D03*
X0307894Y0209469D03*
X0307894Y0179745D03*
X0310454Y0179745D03*
X0313013Y0179745D03*
X0315572Y0179745D03*
X0315572Y0174036D03*
X0313013Y0174036D03*
X0310454Y0174036D03*
X0307894Y0174036D03*
X0307894Y0144312D03*
X0310454Y0144312D03*
X0313013Y0144312D03*
X0315572Y0144312D03*
X0315572Y0138603D03*
X0313013Y0138603D03*
X0310454Y0138603D03*
X0307894Y0138603D03*
X0307894Y0108879D03*
X0310454Y0108879D03*
X0313013Y0108879D03*
X0315572Y0108879D03*
X0315572Y0103170D03*
X0313013Y0103170D03*
X0310454Y0103170D03*
X0307894Y0103170D03*
X0307894Y0073446D03*
X0310454Y0073446D03*
X0313013Y0073446D03*
X0315572Y0073446D03*
X0315572Y0067737D03*
X0313013Y0067737D03*
X0310454Y0067737D03*
X0307894Y0067737D03*
X0307894Y0038013D03*
X0310454Y0038013D03*
X0313013Y0038013D03*
X0315572Y0038013D03*
X0315572Y0032304D03*
X0313013Y0032304D03*
X0310454Y0032304D03*
X0307894Y0032304D03*
X0355139Y0032304D03*
X0357698Y0032304D03*
X0360257Y0032304D03*
X0362816Y0032304D03*
X0362816Y0038013D03*
X0360257Y0038013D03*
X0357698Y0038013D03*
X0355139Y0038013D03*
X0355139Y0067737D03*
X0357698Y0067737D03*
X0360257Y0067737D03*
X0362816Y0067737D03*
X0362816Y0073446D03*
X0360257Y0073446D03*
X0357698Y0073446D03*
X0355139Y0073446D03*
X0355139Y0103170D03*
X0357698Y0103170D03*
X0360257Y0103170D03*
X0362816Y0103170D03*
X0362816Y0108879D03*
X0360257Y0108879D03*
X0357698Y0108879D03*
X0355139Y0108879D03*
X0355139Y0138603D03*
X0357698Y0138603D03*
X0360257Y0138603D03*
X0362816Y0138603D03*
X0362816Y0144312D03*
X0360257Y0144312D03*
X0357698Y0144312D03*
X0355139Y0144312D03*
X0355139Y0174036D03*
X0357698Y0174036D03*
X0360257Y0174036D03*
X0362816Y0174036D03*
X0362816Y0179745D03*
X0360257Y0179745D03*
X0357698Y0179745D03*
X0355139Y0179745D03*
X0355139Y0209469D03*
X0357698Y0209469D03*
X0360257Y0209469D03*
X0362816Y0209469D03*
X0362816Y0215178D03*
X0360257Y0215178D03*
X0357698Y0215178D03*
X0355139Y0215178D03*
X0355139Y0244902D03*
X0357698Y0244902D03*
X0360257Y0244902D03*
X0362816Y0244902D03*
X0362816Y0250611D03*
X0360257Y0250611D03*
X0357698Y0250611D03*
X0355139Y0250611D03*
X0355139Y0280335D03*
X0357698Y0280335D03*
X0360257Y0280335D03*
X0362816Y0280335D03*
X0362816Y0286044D03*
X0360257Y0286044D03*
X0357698Y0286044D03*
X0355139Y0286044D03*
X0355139Y0319706D03*
X0357698Y0319706D03*
X0360257Y0319706D03*
X0362816Y0319706D03*
X0362816Y0325414D03*
X0360257Y0325414D03*
X0357698Y0325414D03*
X0355139Y0325414D03*
X0355139Y0355139D03*
X0357698Y0355139D03*
X0360257Y0355139D03*
X0362816Y0355139D03*
X0362816Y0360847D03*
X0360257Y0360847D03*
X0357698Y0360847D03*
X0355139Y0360847D03*
M02*
