G75*
%MOIN*%
%OFA0B0*%
%FSLAX25Y25*%
%IPPOS*%
%LPD*%
%AMOC8*
5,1,8,0,0,1.08239X$1,22.5*
%
%ADD10C,0.04572*%
D10*
X0023938Y0020434D03*
X0023938Y0025355D03*
X0041536Y0025355D03*
X0041536Y0020434D03*
X0067245Y0020434D03*
X0067245Y0025355D03*
X0084843Y0025355D03*
X0084843Y0020434D03*
X0110552Y0020434D03*
X0110552Y0025355D03*
X0128150Y0025355D03*
X0128150Y0020434D03*
X0153859Y0020434D03*
X0153859Y0025355D03*
X0171457Y0025355D03*
X0171457Y0020434D03*
X0197166Y0020434D03*
X0197166Y0025355D03*
X0214765Y0025355D03*
X0214765Y0020434D03*
X0240473Y0020434D03*
X0240473Y0025355D03*
X0258072Y0025355D03*
X0258072Y0020434D03*
X0283780Y0020434D03*
X0283780Y0025355D03*
X0301379Y0025355D03*
X0301379Y0020434D03*
X0323150Y0020434D03*
X0323150Y0025355D03*
X0340749Y0025355D03*
X0340749Y0020434D03*
X0362520Y0020434D03*
X0362520Y0025355D03*
X0380119Y0025355D03*
X0380119Y0020434D03*
X0380119Y0047993D03*
X0380119Y0052914D03*
X0362520Y0052914D03*
X0362520Y0047993D03*
X0340749Y0047993D03*
X0340749Y0052914D03*
X0323150Y0052914D03*
X0323150Y0047993D03*
X0301379Y0047993D03*
X0301379Y0052914D03*
X0283780Y0052914D03*
X0283780Y0047993D03*
X0258072Y0047993D03*
X0258072Y0052914D03*
X0240473Y0052914D03*
X0240473Y0047993D03*
X0214765Y0047993D03*
X0214765Y0052914D03*
X0197166Y0052914D03*
X0197166Y0047993D03*
X0171457Y0047993D03*
X0171457Y0052914D03*
X0153859Y0052914D03*
X0153859Y0047993D03*
X0128150Y0047993D03*
X0128150Y0052914D03*
X0110552Y0052914D03*
X0110552Y0047993D03*
X0084843Y0047993D03*
X0084843Y0052914D03*
X0067245Y0052914D03*
X0067245Y0047993D03*
X0041536Y0047993D03*
X0041536Y0052914D03*
X0023938Y0052914D03*
X0023938Y0047993D03*
X0023938Y0075552D03*
X0023938Y0080473D03*
X0041536Y0080473D03*
X0041536Y0075552D03*
X0067245Y0075552D03*
X0067245Y0080473D03*
X0084843Y0080473D03*
X0084843Y0075552D03*
X0110552Y0075552D03*
X0110552Y0080473D03*
X0128150Y0080473D03*
X0128150Y0075552D03*
X0153859Y0075552D03*
X0153859Y0080473D03*
X0171457Y0080473D03*
X0171457Y0075552D03*
X0197166Y0075552D03*
X0197166Y0080473D03*
X0214765Y0080473D03*
X0214765Y0075552D03*
X0240473Y0075552D03*
X0240473Y0080473D03*
X0258072Y0080473D03*
X0258072Y0075552D03*
X0283780Y0075552D03*
X0283780Y0080473D03*
X0301379Y0080473D03*
X0301379Y0075552D03*
X0323150Y0075552D03*
X0323150Y0080473D03*
X0340749Y0080473D03*
X0340749Y0075552D03*
X0362520Y0075552D03*
X0362520Y0080473D03*
X0380119Y0080473D03*
X0380119Y0075552D03*
X0380119Y0103111D03*
X0380119Y0108032D03*
X0362520Y0108032D03*
X0362520Y0103111D03*
X0340749Y0103111D03*
X0340749Y0108032D03*
X0323150Y0108032D03*
X0323150Y0103111D03*
X0301379Y0103111D03*
X0301379Y0108032D03*
X0283780Y0108032D03*
X0283780Y0103111D03*
X0258072Y0103111D03*
X0258072Y0108032D03*
X0240473Y0108032D03*
X0240473Y0103111D03*
X0214765Y0103111D03*
X0214765Y0108032D03*
X0197166Y0108032D03*
X0197166Y0103111D03*
X0171457Y0103111D03*
X0171457Y0108032D03*
X0153859Y0108032D03*
X0153859Y0103111D03*
X0128150Y0103111D03*
X0128150Y0108032D03*
X0110552Y0108032D03*
X0110552Y0103111D03*
X0084843Y0103111D03*
X0084843Y0108032D03*
X0067245Y0108032D03*
X0067245Y0103111D03*
X0041536Y0103111D03*
X0041536Y0108032D03*
X0023938Y0108032D03*
X0023938Y0103111D03*
X0023938Y0130670D03*
X0023938Y0135591D03*
X0041536Y0135591D03*
X0041536Y0130670D03*
X0067245Y0130670D03*
X0067245Y0135591D03*
X0084843Y0135591D03*
X0084843Y0130670D03*
X0110552Y0130670D03*
X0110552Y0135591D03*
X0128150Y0135591D03*
X0128150Y0130670D03*
X0153859Y0130670D03*
X0153859Y0135591D03*
X0171457Y0135591D03*
X0171457Y0130670D03*
X0197166Y0130670D03*
X0197166Y0135591D03*
X0214765Y0135591D03*
X0214765Y0130670D03*
X0240473Y0130670D03*
X0240473Y0135591D03*
X0258072Y0135591D03*
X0258072Y0130670D03*
X0283780Y0130670D03*
X0283780Y0135591D03*
X0301379Y0135591D03*
X0301379Y0130670D03*
X0323150Y0130670D03*
X0323150Y0135591D03*
X0340749Y0135591D03*
X0340749Y0130670D03*
X0362520Y0130670D03*
X0362520Y0135591D03*
X0380119Y0135591D03*
X0380119Y0130670D03*
X0380119Y0158229D03*
X0380119Y0163150D03*
X0362520Y0163150D03*
X0362520Y0158229D03*
X0340749Y0158229D03*
X0340749Y0163150D03*
X0323150Y0163150D03*
X0323150Y0158229D03*
X0301379Y0158229D03*
X0301379Y0163150D03*
X0283780Y0163150D03*
X0283780Y0158229D03*
X0258072Y0158229D03*
X0258072Y0163150D03*
X0240473Y0163150D03*
X0240473Y0158229D03*
X0214765Y0158229D03*
X0214765Y0163150D03*
X0197166Y0163150D03*
X0197166Y0158229D03*
X0171457Y0158229D03*
X0171457Y0163150D03*
X0153859Y0163150D03*
X0153859Y0158229D03*
X0128150Y0158229D03*
X0128150Y0163150D03*
X0110552Y0163150D03*
X0110552Y0158229D03*
X0084843Y0158229D03*
X0084843Y0163150D03*
X0067245Y0163150D03*
X0067245Y0158229D03*
X0041536Y0158229D03*
X0041536Y0163150D03*
X0023938Y0163150D03*
X0023938Y0158229D03*
X0023938Y0185788D03*
X0023938Y0190709D03*
X0041536Y0190709D03*
X0041536Y0185788D03*
X0067245Y0185788D03*
X0067245Y0190709D03*
X0084843Y0190709D03*
X0084843Y0185788D03*
X0110552Y0185788D03*
X0110552Y0190709D03*
X0128150Y0190709D03*
X0128150Y0185788D03*
X0153859Y0185788D03*
X0153859Y0190709D03*
X0171457Y0190709D03*
X0171457Y0185788D03*
X0197166Y0185788D03*
X0197166Y0190709D03*
X0214765Y0190709D03*
X0214765Y0185788D03*
X0240473Y0185788D03*
X0240473Y0190709D03*
X0258072Y0190709D03*
X0258072Y0185788D03*
X0283780Y0185788D03*
X0283780Y0190709D03*
X0301379Y0190709D03*
X0301379Y0185788D03*
X0323150Y0185788D03*
X0323150Y0190709D03*
X0340749Y0190709D03*
X0340749Y0185788D03*
X0362520Y0185788D03*
X0362520Y0190709D03*
X0380119Y0190709D03*
X0380119Y0185788D03*
X0380119Y0213347D03*
X0380119Y0218269D03*
X0362520Y0218269D03*
X0362520Y0213347D03*
X0340749Y0213347D03*
X0340749Y0218269D03*
X0323150Y0218269D03*
X0323150Y0213347D03*
X0301379Y0213347D03*
X0301379Y0218269D03*
X0283780Y0218269D03*
X0283780Y0213347D03*
X0258072Y0213347D03*
X0258072Y0218269D03*
X0240473Y0218269D03*
X0240473Y0213347D03*
X0214765Y0213347D03*
X0214765Y0218269D03*
X0197166Y0218269D03*
X0197166Y0213347D03*
X0171457Y0213347D03*
X0171457Y0218269D03*
X0153859Y0218269D03*
X0153859Y0213347D03*
X0128150Y0213347D03*
X0128150Y0218269D03*
X0110552Y0218269D03*
X0110552Y0213347D03*
X0084843Y0213347D03*
X0084843Y0218269D03*
X0067245Y0218269D03*
X0067245Y0213347D03*
X0041536Y0213347D03*
X0041536Y0218269D03*
X0023938Y0218269D03*
X0023938Y0213347D03*
X0023938Y0240906D03*
X0023938Y0245828D03*
X0041536Y0245828D03*
X0041536Y0240906D03*
X0067245Y0240906D03*
X0067245Y0245828D03*
X0084843Y0245828D03*
X0084843Y0240906D03*
X0110552Y0240906D03*
X0110552Y0245828D03*
X0128150Y0245828D03*
X0128150Y0240906D03*
X0153859Y0240906D03*
X0153859Y0245828D03*
X0171457Y0245828D03*
X0171457Y0240906D03*
X0197166Y0240906D03*
X0197166Y0245828D03*
X0214765Y0245828D03*
X0214765Y0240906D03*
X0240473Y0240906D03*
X0240473Y0245828D03*
X0258072Y0245828D03*
X0258072Y0240906D03*
X0283780Y0240906D03*
X0283780Y0245828D03*
X0301379Y0245828D03*
X0301379Y0240906D03*
X0323150Y0240906D03*
X0323150Y0245828D03*
X0340749Y0245828D03*
X0340749Y0240906D03*
X0362520Y0240906D03*
X0362520Y0245828D03*
X0380119Y0245828D03*
X0380119Y0240906D03*
X0380119Y0268465D03*
X0380119Y0273387D03*
X0362520Y0273387D03*
X0362520Y0268465D03*
X0340749Y0268465D03*
X0340749Y0273387D03*
X0323150Y0273387D03*
X0323150Y0268465D03*
X0301379Y0268465D03*
X0301379Y0273387D03*
X0283780Y0273387D03*
X0283780Y0268465D03*
X0258072Y0268465D03*
X0258072Y0273387D03*
X0240473Y0273387D03*
X0240473Y0268465D03*
X0214765Y0268465D03*
X0214765Y0273387D03*
X0197166Y0273387D03*
X0197166Y0268465D03*
X0171457Y0268465D03*
X0171457Y0273387D03*
X0153859Y0273387D03*
X0153859Y0268465D03*
X0128150Y0268465D03*
X0128150Y0273387D03*
X0110552Y0273387D03*
X0110552Y0268465D03*
X0084843Y0268465D03*
X0084843Y0273387D03*
X0067245Y0273387D03*
X0067245Y0268465D03*
X0041536Y0268465D03*
X0041536Y0273387D03*
X0023938Y0273387D03*
X0023938Y0268465D03*
X0023938Y0296024D03*
X0023938Y0300946D03*
X0041536Y0300946D03*
X0041536Y0296024D03*
X0067245Y0296024D03*
X0067245Y0300946D03*
X0084843Y0300946D03*
X0084843Y0296024D03*
X0110552Y0296024D03*
X0110552Y0300946D03*
X0128150Y0300946D03*
X0128150Y0296024D03*
X0153859Y0296024D03*
X0153859Y0300946D03*
X0171457Y0300946D03*
X0171457Y0296024D03*
X0197166Y0296024D03*
X0197166Y0300946D03*
X0214765Y0300946D03*
X0214765Y0296024D03*
X0240473Y0296024D03*
X0240473Y0300946D03*
X0258072Y0300946D03*
X0258072Y0296024D03*
X0283780Y0296024D03*
X0283780Y0300946D03*
X0301379Y0300946D03*
X0301379Y0296024D03*
X0323150Y0296024D03*
X0323150Y0300946D03*
X0340749Y0300946D03*
X0340749Y0296024D03*
X0362520Y0296024D03*
X0362520Y0300946D03*
X0380119Y0300946D03*
X0380119Y0296024D03*
X0380119Y0323583D03*
X0380119Y0328505D03*
X0362520Y0328505D03*
X0362520Y0323583D03*
X0340749Y0323583D03*
X0340749Y0328505D03*
X0323150Y0328505D03*
X0323150Y0323583D03*
X0301379Y0323583D03*
X0301379Y0328505D03*
X0283780Y0328505D03*
X0283780Y0323583D03*
X0258072Y0323583D03*
X0258072Y0328505D03*
X0240473Y0328505D03*
X0240473Y0323583D03*
X0214765Y0323583D03*
X0214765Y0328505D03*
X0197166Y0328505D03*
X0197166Y0323583D03*
X0171457Y0323583D03*
X0171457Y0328505D03*
X0153859Y0328505D03*
X0153859Y0323583D03*
X0128150Y0323583D03*
X0128150Y0328505D03*
X0110552Y0328505D03*
X0110552Y0323583D03*
X0084843Y0323583D03*
X0084843Y0328505D03*
X0067245Y0328505D03*
X0067245Y0323583D03*
X0041536Y0323583D03*
X0041536Y0328505D03*
X0023938Y0328505D03*
X0023938Y0323583D03*
X0023938Y0351143D03*
X0023938Y0356064D03*
X0041536Y0356064D03*
X0041536Y0351143D03*
X0041536Y0374765D03*
X0041536Y0379686D03*
X0023938Y0379686D03*
X0023938Y0374765D03*
X0067245Y0374765D03*
X0067245Y0379686D03*
X0084843Y0379686D03*
X0084843Y0374765D03*
X0084843Y0356064D03*
X0084843Y0351143D03*
X0067245Y0351143D03*
X0067245Y0356064D03*
X0110552Y0356064D03*
X0110552Y0351143D03*
X0128150Y0351143D03*
X0128150Y0356064D03*
X0128150Y0374765D03*
X0128150Y0379686D03*
X0110552Y0379686D03*
X0110552Y0374765D03*
X0153859Y0374765D03*
X0153859Y0379686D03*
X0171457Y0379686D03*
X0171457Y0374765D03*
X0171457Y0356064D03*
X0171457Y0351143D03*
X0153859Y0351143D03*
X0153859Y0356064D03*
X0197166Y0356064D03*
X0197166Y0351143D03*
X0214765Y0351143D03*
X0214765Y0356064D03*
X0214765Y0374765D03*
X0214765Y0379686D03*
X0197166Y0379686D03*
X0197166Y0374765D03*
X0240473Y0374765D03*
X0240473Y0379686D03*
X0258072Y0379686D03*
X0258072Y0374765D03*
X0258072Y0356064D03*
X0258072Y0351143D03*
X0240473Y0351143D03*
X0240473Y0356064D03*
X0283780Y0356064D03*
X0283780Y0351143D03*
X0301379Y0351143D03*
X0301379Y0356064D03*
X0301379Y0374765D03*
X0301379Y0379686D03*
X0283780Y0379686D03*
X0283780Y0374765D03*
X0323150Y0374765D03*
X0323150Y0379686D03*
X0340749Y0379686D03*
X0340749Y0374765D03*
X0340749Y0356064D03*
X0340749Y0351143D03*
X0323150Y0351143D03*
X0323150Y0356064D03*
X0362520Y0356064D03*
X0362520Y0351143D03*
X0380119Y0351143D03*
X0380119Y0356064D03*
X0380119Y0374765D03*
X0380119Y0379686D03*
X0362520Y0379686D03*
X0362520Y0374765D03*
M02*
