G75*
%MOIN*%
%OFA0B0*%
%FSLAX25Y25*%
%IPPOS*%
%LPD*%
%AMOC8*
5,1,8,0,0,1.08239X$1,22.5*
%
%ADD10C,0.00600*%
%ADD11C,0.03772*%
%ADD12R,0.01575X0.01575*%
%ADD13R,0.01083X0.01378*%
%ADD14R,0.00295X0.01083*%
D10*
X0001300Y0001300D02*
X0395001Y0001300D01*
X0395001Y0395001D01*
X0001300Y0395001D01*
X0001300Y0001300D01*
X0023938Y0020434D02*
X0028387Y0020434D01*
X0028761Y0020060D01*
X0031320Y0020060D02*
X0026024Y0025355D01*
X0023938Y0025355D01*
X0031320Y0025769D02*
X0031320Y0027560D01*
X0035316Y0027560D01*
X0036438Y0026438D01*
X0036438Y0025769D01*
X0041123Y0025769D01*
X0041536Y0025355D01*
X0041536Y0020434D02*
X0041162Y0020060D01*
X0036438Y0020060D01*
X0033879Y0022619D01*
X0033879Y0025769D01*
X0036438Y0047619D02*
X0033879Y0050178D01*
X0033879Y0053328D01*
X0035316Y0055119D02*
X0031320Y0055119D01*
X0031320Y0053328D01*
X0035316Y0055119D02*
X0036438Y0053997D01*
X0036438Y0053328D01*
X0041123Y0053328D01*
X0041536Y0052914D01*
X0041536Y0047993D02*
X0041162Y0047619D01*
X0036438Y0047619D01*
X0031320Y0047619D02*
X0026024Y0052914D01*
X0023938Y0052914D01*
X0023938Y0047993D02*
X0028387Y0047993D01*
X0028761Y0047619D01*
X0028761Y0075178D02*
X0028387Y0075552D01*
X0023938Y0075552D01*
X0023938Y0080473D02*
X0026024Y0080473D01*
X0031320Y0075178D01*
X0033879Y0077737D02*
X0036438Y0075178D01*
X0041162Y0075178D01*
X0041536Y0075552D01*
X0041536Y0080473D02*
X0041123Y0080887D01*
X0036438Y0080887D01*
X0036438Y0081556D01*
X0035316Y0082678D01*
X0031320Y0082678D01*
X0031320Y0080887D01*
X0033879Y0080887D02*
X0033879Y0077737D01*
X0036438Y0102737D02*
X0041162Y0102737D01*
X0041536Y0103111D01*
X0041536Y0108032D02*
X0041123Y0108446D01*
X0036438Y0108446D01*
X0036438Y0109115D01*
X0035316Y0110237D01*
X0031320Y0110237D01*
X0031320Y0108446D01*
X0033879Y0108446D02*
X0033879Y0105296D01*
X0036438Y0102737D01*
X0031320Y0102737D02*
X0026024Y0108032D01*
X0023938Y0108032D01*
X0023938Y0103111D02*
X0028387Y0103111D01*
X0028761Y0102737D01*
X0028761Y0130296D02*
X0028387Y0130670D01*
X0023938Y0130670D01*
X0026024Y0135591D02*
X0031320Y0130296D01*
X0033879Y0132855D02*
X0036438Y0130296D01*
X0041162Y0130296D01*
X0041536Y0130670D01*
X0041536Y0135591D02*
X0041123Y0136005D01*
X0036438Y0136005D01*
X0036438Y0136674D01*
X0035316Y0137796D01*
X0031320Y0137796D01*
X0031320Y0136005D01*
X0033879Y0136005D02*
X0033879Y0132855D01*
X0026024Y0135591D02*
X0023938Y0135591D01*
X0023938Y0158229D02*
X0028387Y0158229D01*
X0028761Y0157855D01*
X0031320Y0157855D02*
X0026024Y0163150D01*
X0023938Y0163150D01*
X0031320Y0163564D02*
X0031320Y0165355D01*
X0035316Y0165355D01*
X0036438Y0164233D01*
X0036438Y0163564D01*
X0041123Y0163564D01*
X0041536Y0163150D01*
X0041536Y0158229D02*
X0041162Y0157855D01*
X0036438Y0157855D01*
X0033879Y0160414D01*
X0033879Y0163564D01*
X0036438Y0185414D02*
X0041162Y0185414D01*
X0041536Y0185788D01*
X0036438Y0185414D02*
X0033879Y0187973D01*
X0033879Y0191123D01*
X0035316Y0192914D02*
X0031320Y0192914D01*
X0031320Y0191123D01*
X0035316Y0192914D02*
X0036438Y0191792D01*
X0036438Y0191123D01*
X0041123Y0191123D01*
X0041536Y0190709D01*
X0031320Y0185414D02*
X0026024Y0190709D01*
X0023938Y0190709D01*
X0023938Y0185788D02*
X0028387Y0185788D01*
X0028761Y0185414D01*
X0028761Y0212973D02*
X0028387Y0213347D01*
X0023938Y0213347D01*
X0026024Y0218269D02*
X0031320Y0212973D01*
X0033879Y0215532D02*
X0036438Y0212973D01*
X0041162Y0212973D01*
X0041536Y0213347D01*
X0041536Y0218269D02*
X0041123Y0218682D01*
X0036438Y0218682D01*
X0036438Y0219351D01*
X0035316Y0220473D01*
X0031320Y0220473D01*
X0031320Y0218682D01*
X0033879Y0218682D02*
X0033879Y0215532D01*
X0026024Y0218269D02*
X0023938Y0218269D01*
X0023938Y0240906D02*
X0028387Y0240906D01*
X0028761Y0240532D01*
X0031320Y0240532D02*
X0026024Y0245828D01*
X0023938Y0245828D01*
X0031320Y0246241D02*
X0031320Y0248032D01*
X0035316Y0248032D01*
X0036438Y0246910D01*
X0036438Y0246241D01*
X0041123Y0246241D01*
X0041536Y0245828D01*
X0041536Y0240906D02*
X0041162Y0240532D01*
X0036438Y0240532D01*
X0033879Y0243091D01*
X0033879Y0246241D01*
X0036438Y0268091D02*
X0041162Y0268091D01*
X0041536Y0268465D01*
X0041536Y0273387D02*
X0041123Y0273800D01*
X0036438Y0273800D01*
X0036438Y0274469D01*
X0035316Y0275591D01*
X0031320Y0275591D01*
X0031320Y0273800D01*
X0033879Y0273800D02*
X0033879Y0270650D01*
X0036438Y0268091D01*
X0031320Y0268091D02*
X0026024Y0273387D01*
X0023938Y0273387D01*
X0023938Y0268465D02*
X0028387Y0268465D01*
X0028761Y0268091D01*
X0028761Y0295650D02*
X0028387Y0296024D01*
X0023938Y0296024D01*
X0023938Y0300946D02*
X0026024Y0300946D01*
X0031320Y0295650D01*
X0033879Y0298209D02*
X0036438Y0295650D01*
X0041162Y0295650D01*
X0041536Y0296024D01*
X0041536Y0300946D02*
X0041123Y0301359D01*
X0036438Y0301359D01*
X0036438Y0302028D01*
X0035316Y0303150D01*
X0031320Y0303150D01*
X0031320Y0301359D01*
X0033879Y0301359D02*
X0033879Y0298209D01*
X0036438Y0323209D02*
X0041162Y0323209D01*
X0041536Y0323583D01*
X0041536Y0328505D02*
X0041123Y0328918D01*
X0036438Y0328918D01*
X0036438Y0329587D01*
X0035316Y0330709D01*
X0031320Y0330709D01*
X0031320Y0328918D01*
X0033879Y0328918D02*
X0033879Y0325769D01*
X0036438Y0323209D01*
X0031320Y0323209D02*
X0026024Y0328505D01*
X0023938Y0328505D01*
X0023938Y0323583D02*
X0028387Y0323583D01*
X0028761Y0323209D01*
X0028761Y0350769D02*
X0028387Y0351143D01*
X0023938Y0351143D01*
X0023938Y0356064D02*
X0026024Y0356064D01*
X0031320Y0350769D01*
X0033879Y0353328D02*
X0036438Y0350769D01*
X0041162Y0350769D01*
X0041536Y0351143D01*
X0041536Y0356064D02*
X0041123Y0356477D01*
X0036438Y0356477D01*
X0036438Y0357146D01*
X0035316Y0358269D01*
X0031320Y0358269D01*
X0031320Y0356477D01*
X0033879Y0356477D02*
X0033879Y0353328D01*
X0036438Y0374391D02*
X0041162Y0374391D01*
X0041536Y0374765D01*
X0041536Y0379686D02*
X0041123Y0380099D01*
X0036438Y0380099D01*
X0036438Y0380769D01*
X0035316Y0381891D01*
X0031320Y0381891D01*
X0031320Y0380099D01*
X0033879Y0380099D02*
X0033879Y0376950D01*
X0036438Y0374391D01*
X0031320Y0374391D02*
X0026024Y0379686D01*
X0023938Y0379686D01*
X0023938Y0374765D02*
X0028387Y0374765D01*
X0028761Y0374391D01*
X0067245Y0374765D02*
X0071694Y0374765D01*
X0072068Y0374391D01*
X0074627Y0374391D02*
X0069331Y0379686D01*
X0067245Y0379686D01*
X0074627Y0380099D02*
X0074627Y0381891D01*
X0078623Y0381891D01*
X0079745Y0380769D01*
X0079745Y0380099D01*
X0084430Y0380099D01*
X0084843Y0379686D01*
X0084843Y0374765D02*
X0084469Y0374391D01*
X0079745Y0374391D01*
X0077186Y0376950D01*
X0077186Y0380099D01*
X0078623Y0358269D02*
X0074627Y0358269D01*
X0074627Y0356477D01*
X0077186Y0356477D02*
X0077186Y0353328D01*
X0079745Y0350769D01*
X0084469Y0350769D01*
X0084843Y0351143D01*
X0084843Y0356064D02*
X0084430Y0356477D01*
X0079745Y0356477D01*
X0079745Y0357146D01*
X0078623Y0358269D01*
X0074627Y0350769D02*
X0069331Y0356064D01*
X0067245Y0356064D01*
X0067245Y0351143D02*
X0071694Y0351143D01*
X0072068Y0350769D01*
X0074627Y0330709D02*
X0078623Y0330709D01*
X0079745Y0329587D01*
X0079745Y0328918D01*
X0084430Y0328918D01*
X0084843Y0328505D01*
X0084843Y0323583D02*
X0084469Y0323209D01*
X0079745Y0323209D01*
X0077186Y0325769D01*
X0077186Y0328918D01*
X0074627Y0328918D02*
X0074627Y0330709D01*
X0069331Y0328505D02*
X0074627Y0323209D01*
X0072068Y0323209D02*
X0071694Y0323583D01*
X0067245Y0323583D01*
X0067245Y0328505D02*
X0069331Y0328505D01*
X0074627Y0303150D02*
X0078623Y0303150D01*
X0079745Y0302028D01*
X0079745Y0301359D01*
X0084430Y0301359D01*
X0084843Y0300946D01*
X0084843Y0296024D02*
X0084469Y0295650D01*
X0079745Y0295650D01*
X0077186Y0298209D01*
X0077186Y0301359D01*
X0074627Y0301359D02*
X0074627Y0303150D01*
X0069331Y0300946D02*
X0074627Y0295650D01*
X0072068Y0295650D02*
X0071694Y0296024D01*
X0067245Y0296024D01*
X0067245Y0300946D02*
X0069331Y0300946D01*
X0074627Y0275591D02*
X0078623Y0275591D01*
X0079745Y0274469D01*
X0079745Y0273800D01*
X0084430Y0273800D01*
X0084843Y0273387D01*
X0084843Y0268465D02*
X0084469Y0268091D01*
X0079745Y0268091D01*
X0077186Y0270650D01*
X0077186Y0273800D01*
X0074627Y0273800D02*
X0074627Y0275591D01*
X0069331Y0273387D02*
X0074627Y0268091D01*
X0072068Y0268091D02*
X0071694Y0268465D01*
X0067245Y0268465D01*
X0067245Y0273387D02*
X0069331Y0273387D01*
X0074627Y0248032D02*
X0078623Y0248032D01*
X0079745Y0246910D01*
X0079745Y0246241D01*
X0084430Y0246241D01*
X0084843Y0245828D01*
X0084843Y0240906D02*
X0084469Y0240532D01*
X0079745Y0240532D01*
X0077186Y0243091D01*
X0077186Y0246241D01*
X0074627Y0246241D02*
X0074627Y0248032D01*
X0069331Y0245828D02*
X0074627Y0240532D01*
X0072068Y0240532D02*
X0071694Y0240906D01*
X0067245Y0240906D01*
X0067245Y0245828D02*
X0069331Y0245828D01*
X0074627Y0220473D02*
X0078623Y0220473D01*
X0079745Y0219351D01*
X0079745Y0218682D01*
X0084430Y0218682D01*
X0084843Y0218269D01*
X0084843Y0213347D02*
X0084469Y0212973D01*
X0079745Y0212973D01*
X0077186Y0215532D01*
X0077186Y0218682D01*
X0074627Y0218682D02*
X0074627Y0220473D01*
X0069331Y0218269D02*
X0074627Y0212973D01*
X0072068Y0212973D02*
X0071694Y0213347D01*
X0067245Y0213347D01*
X0067245Y0218269D02*
X0069331Y0218269D01*
X0074627Y0192914D02*
X0078623Y0192914D01*
X0079745Y0191792D01*
X0079745Y0191123D01*
X0084430Y0191123D01*
X0084843Y0190709D01*
X0084843Y0185788D02*
X0084469Y0185414D01*
X0079745Y0185414D01*
X0077186Y0187973D01*
X0077186Y0191123D01*
X0074627Y0191123D02*
X0074627Y0192914D01*
X0069331Y0190709D02*
X0074627Y0185414D01*
X0072068Y0185414D02*
X0071694Y0185788D01*
X0067245Y0185788D01*
X0067245Y0190709D02*
X0069331Y0190709D01*
X0074627Y0165355D02*
X0078623Y0165355D01*
X0079745Y0164233D01*
X0079745Y0163564D01*
X0084430Y0163564D01*
X0084843Y0163150D01*
X0084843Y0158229D02*
X0084469Y0157855D01*
X0079745Y0157855D01*
X0077186Y0160414D01*
X0077186Y0163564D01*
X0074627Y0163564D02*
X0074627Y0165355D01*
X0069331Y0163150D02*
X0074627Y0157855D01*
X0072068Y0157855D02*
X0071694Y0158229D01*
X0067245Y0158229D01*
X0067245Y0163150D02*
X0069331Y0163150D01*
X0074627Y0137796D02*
X0078623Y0137796D01*
X0079745Y0136674D01*
X0079745Y0136005D01*
X0084430Y0136005D01*
X0084843Y0135591D01*
X0084843Y0130670D02*
X0084469Y0130296D01*
X0079745Y0130296D01*
X0077186Y0132855D01*
X0077186Y0136005D01*
X0074627Y0136005D02*
X0074627Y0137796D01*
X0069331Y0135591D02*
X0074627Y0130296D01*
X0072068Y0130296D02*
X0071694Y0130670D01*
X0067245Y0130670D01*
X0067245Y0135591D02*
X0069331Y0135591D01*
X0074627Y0110237D02*
X0078623Y0110237D01*
X0079745Y0109115D01*
X0079745Y0108446D01*
X0084430Y0108446D01*
X0084843Y0108032D01*
X0084843Y0103111D02*
X0084469Y0102737D01*
X0079745Y0102737D01*
X0077186Y0105296D01*
X0077186Y0108446D01*
X0074627Y0108446D02*
X0074627Y0110237D01*
X0069331Y0108032D02*
X0074627Y0102737D01*
X0072068Y0102737D02*
X0071694Y0103111D01*
X0067245Y0103111D01*
X0067245Y0108032D02*
X0069331Y0108032D01*
X0074627Y0082678D02*
X0078623Y0082678D01*
X0079745Y0081556D01*
X0079745Y0080887D01*
X0084430Y0080887D01*
X0084843Y0080473D01*
X0084843Y0075552D02*
X0084469Y0075178D01*
X0079745Y0075178D01*
X0077186Y0077737D01*
X0077186Y0080887D01*
X0074627Y0080887D02*
X0074627Y0082678D01*
X0069331Y0080473D02*
X0074627Y0075178D01*
X0072068Y0075178D02*
X0071694Y0075552D01*
X0067245Y0075552D01*
X0067245Y0080473D02*
X0069331Y0080473D01*
X0074627Y0055119D02*
X0078623Y0055119D01*
X0079745Y0053997D01*
X0079745Y0053328D01*
X0084430Y0053328D01*
X0084843Y0052914D01*
X0084843Y0047993D02*
X0084469Y0047619D01*
X0079745Y0047619D01*
X0077186Y0050178D01*
X0077186Y0053328D01*
X0074627Y0053328D02*
X0074627Y0055119D01*
X0069331Y0052914D02*
X0074627Y0047619D01*
X0072068Y0047619D02*
X0071694Y0047993D01*
X0067245Y0047993D01*
X0067245Y0052914D02*
X0069331Y0052914D01*
X0074627Y0027560D02*
X0078623Y0027560D01*
X0079745Y0026438D01*
X0079745Y0025769D01*
X0084430Y0025769D01*
X0084843Y0025355D01*
X0084843Y0020434D02*
X0084469Y0020060D01*
X0079745Y0020060D01*
X0077186Y0022619D01*
X0077186Y0025769D01*
X0074627Y0025769D02*
X0074627Y0027560D01*
X0069331Y0025355D02*
X0074627Y0020060D01*
X0072068Y0020060D02*
X0071694Y0020434D01*
X0067245Y0020434D01*
X0067245Y0025355D02*
X0069331Y0025355D01*
X0110552Y0025355D02*
X0112639Y0025355D01*
X0117934Y0020060D01*
X0115375Y0020060D02*
X0115001Y0020434D01*
X0110552Y0020434D01*
X0117934Y0025769D02*
X0117934Y0027560D01*
X0121930Y0027560D01*
X0123052Y0026438D01*
X0123052Y0025769D01*
X0127737Y0025769D01*
X0128150Y0025355D01*
X0128150Y0020434D02*
X0127776Y0020060D01*
X0123052Y0020060D01*
X0120493Y0022619D01*
X0120493Y0025769D01*
X0123052Y0047619D02*
X0120493Y0050178D01*
X0120493Y0053328D01*
X0121930Y0055119D02*
X0117934Y0055119D01*
X0117934Y0053328D01*
X0121930Y0055119D02*
X0123052Y0053997D01*
X0123052Y0053328D01*
X0127737Y0053328D01*
X0128150Y0052914D01*
X0128150Y0047993D02*
X0127776Y0047619D01*
X0123052Y0047619D01*
X0117934Y0047619D02*
X0112639Y0052914D01*
X0110552Y0052914D01*
X0110552Y0047993D02*
X0115001Y0047993D01*
X0115375Y0047619D01*
X0115375Y0075178D02*
X0115001Y0075552D01*
X0110552Y0075552D01*
X0110552Y0080473D02*
X0112639Y0080473D01*
X0117934Y0075178D01*
X0120493Y0077737D02*
X0123052Y0075178D01*
X0127776Y0075178D01*
X0128150Y0075552D01*
X0128150Y0080473D02*
X0127737Y0080887D01*
X0123052Y0080887D01*
X0123052Y0081556D01*
X0121930Y0082678D01*
X0117934Y0082678D01*
X0117934Y0080887D01*
X0120493Y0080887D02*
X0120493Y0077737D01*
X0123052Y0102737D02*
X0127776Y0102737D01*
X0128150Y0103111D01*
X0128150Y0108032D02*
X0127737Y0108446D01*
X0123052Y0108446D01*
X0123052Y0109115D01*
X0121930Y0110237D01*
X0117934Y0110237D01*
X0117934Y0108446D01*
X0120493Y0108446D02*
X0120493Y0105296D01*
X0123052Y0102737D01*
X0117934Y0102737D02*
X0112639Y0108032D01*
X0110552Y0108032D01*
X0110552Y0103111D02*
X0115001Y0103111D01*
X0115375Y0102737D01*
X0115375Y0130296D02*
X0115001Y0130670D01*
X0110552Y0130670D01*
X0110552Y0135591D02*
X0112639Y0135591D01*
X0117934Y0130296D01*
X0120493Y0132855D02*
X0123052Y0130296D01*
X0127776Y0130296D01*
X0128150Y0130670D01*
X0128150Y0135591D02*
X0127737Y0136005D01*
X0123052Y0136005D01*
X0123052Y0136674D01*
X0121930Y0137796D01*
X0117934Y0137796D01*
X0117934Y0136005D01*
X0120493Y0136005D02*
X0120493Y0132855D01*
X0123052Y0157855D02*
X0127776Y0157855D01*
X0128150Y0158229D01*
X0123052Y0157855D02*
X0120493Y0160414D01*
X0120493Y0163564D01*
X0121930Y0165355D02*
X0117934Y0165355D01*
X0117934Y0163564D01*
X0121930Y0165355D02*
X0123052Y0164233D01*
X0123052Y0163564D01*
X0127737Y0163564D01*
X0128150Y0163150D01*
X0117934Y0157855D02*
X0112639Y0163150D01*
X0110552Y0163150D01*
X0110552Y0158229D02*
X0115001Y0158229D01*
X0115375Y0157855D01*
X0115375Y0185414D02*
X0115001Y0185788D01*
X0110552Y0185788D01*
X0110552Y0190709D02*
X0112639Y0190709D01*
X0117934Y0185414D01*
X0120493Y0187973D02*
X0123052Y0185414D01*
X0127776Y0185414D01*
X0128150Y0185788D01*
X0128150Y0190709D02*
X0127737Y0191123D01*
X0123052Y0191123D01*
X0123052Y0191792D01*
X0121930Y0192914D01*
X0117934Y0192914D01*
X0117934Y0191123D01*
X0120493Y0191123D02*
X0120493Y0187973D01*
X0123052Y0212973D02*
X0127776Y0212973D01*
X0128150Y0213347D01*
X0123052Y0212973D02*
X0120493Y0215532D01*
X0120493Y0218682D01*
X0121930Y0220473D02*
X0117934Y0220473D01*
X0117934Y0218682D01*
X0121930Y0220473D02*
X0123052Y0219351D01*
X0123052Y0218682D01*
X0127737Y0218682D01*
X0128150Y0218269D01*
X0117934Y0212973D02*
X0112639Y0218269D01*
X0110552Y0218269D01*
X0110552Y0213347D02*
X0115001Y0213347D01*
X0115375Y0212973D01*
X0115375Y0240532D02*
X0115001Y0240906D01*
X0110552Y0240906D01*
X0110552Y0245828D02*
X0112639Y0245828D01*
X0117934Y0240532D01*
X0120493Y0243091D02*
X0123052Y0240532D01*
X0127776Y0240532D01*
X0128150Y0240906D01*
X0128150Y0245828D02*
X0127737Y0246241D01*
X0123052Y0246241D01*
X0123052Y0246910D01*
X0121930Y0248032D01*
X0117934Y0248032D01*
X0117934Y0246241D01*
X0120493Y0246241D02*
X0120493Y0243091D01*
X0123052Y0268091D02*
X0127776Y0268091D01*
X0128150Y0268465D01*
X0128150Y0273387D02*
X0127737Y0273800D01*
X0123052Y0273800D01*
X0123052Y0274469D01*
X0121930Y0275591D01*
X0117934Y0275591D01*
X0117934Y0273800D01*
X0120493Y0273800D02*
X0120493Y0270650D01*
X0123052Y0268091D01*
X0117934Y0268091D02*
X0112639Y0273387D01*
X0110552Y0273387D01*
X0110552Y0268465D02*
X0115001Y0268465D01*
X0115375Y0268091D01*
X0115375Y0295650D02*
X0115001Y0296024D01*
X0110552Y0296024D01*
X0110552Y0300946D02*
X0112639Y0300946D01*
X0117934Y0295650D01*
X0120493Y0298209D02*
X0123052Y0295650D01*
X0127776Y0295650D01*
X0128150Y0296024D01*
X0128150Y0300946D02*
X0127737Y0301359D01*
X0123052Y0301359D01*
X0123052Y0302028D01*
X0121930Y0303150D01*
X0117934Y0303150D01*
X0117934Y0301359D01*
X0120493Y0301359D02*
X0120493Y0298209D01*
X0123052Y0323209D02*
X0127776Y0323209D01*
X0128150Y0323583D01*
X0128150Y0328505D02*
X0127737Y0328918D01*
X0123052Y0328918D01*
X0123052Y0329587D01*
X0121930Y0330709D01*
X0117934Y0330709D01*
X0117934Y0328918D01*
X0120493Y0328918D02*
X0120493Y0325769D01*
X0123052Y0323209D01*
X0117934Y0323209D02*
X0112639Y0328505D01*
X0110552Y0328505D01*
X0110552Y0323583D02*
X0115001Y0323583D01*
X0115375Y0323209D01*
X0115375Y0350769D02*
X0115001Y0351143D01*
X0110552Y0351143D01*
X0110552Y0356064D02*
X0112639Y0356064D01*
X0117934Y0350769D01*
X0120493Y0353328D02*
X0123052Y0350769D01*
X0127776Y0350769D01*
X0128150Y0351143D01*
X0128150Y0356064D02*
X0127737Y0356477D01*
X0123052Y0356477D01*
X0123052Y0357146D01*
X0121930Y0358269D01*
X0117934Y0358269D01*
X0117934Y0356477D01*
X0120493Y0356477D02*
X0120493Y0353328D01*
X0123052Y0374391D02*
X0127776Y0374391D01*
X0128150Y0374765D01*
X0128150Y0379686D02*
X0127737Y0380099D01*
X0123052Y0380099D01*
X0123052Y0380769D01*
X0121930Y0381891D01*
X0117934Y0381891D01*
X0117934Y0380099D01*
X0120493Y0380099D02*
X0120493Y0376950D01*
X0123052Y0374391D01*
X0117934Y0374391D02*
X0112639Y0379686D01*
X0110552Y0379686D01*
X0110552Y0374765D02*
X0115001Y0374765D01*
X0115375Y0374391D01*
X0153859Y0374765D02*
X0158308Y0374765D01*
X0158682Y0374391D01*
X0161241Y0374391D02*
X0155946Y0379686D01*
X0153859Y0379686D01*
X0161241Y0380099D02*
X0161241Y0381891D01*
X0165237Y0381891D01*
X0166359Y0380769D01*
X0166359Y0380099D01*
X0171044Y0380099D01*
X0171457Y0379686D01*
X0171457Y0374765D02*
X0171083Y0374391D01*
X0166359Y0374391D01*
X0163800Y0376950D01*
X0163800Y0380099D01*
X0165237Y0358269D02*
X0161241Y0358269D01*
X0161241Y0356477D01*
X0163800Y0356477D02*
X0163800Y0353328D01*
X0166359Y0350769D01*
X0171083Y0350769D01*
X0171457Y0351143D01*
X0171457Y0356064D02*
X0171044Y0356477D01*
X0166359Y0356477D01*
X0166359Y0357146D01*
X0165237Y0358269D01*
X0161241Y0350769D02*
X0155946Y0356064D01*
X0153859Y0356064D01*
X0153859Y0351143D02*
X0158308Y0351143D01*
X0158682Y0350769D01*
X0161241Y0330709D02*
X0165237Y0330709D01*
X0166359Y0329587D01*
X0166359Y0328918D01*
X0171044Y0328918D01*
X0171457Y0328505D01*
X0171457Y0323583D02*
X0171083Y0323209D01*
X0166359Y0323209D01*
X0163800Y0325769D01*
X0163800Y0328918D01*
X0161241Y0328918D02*
X0161241Y0330709D01*
X0155946Y0328505D02*
X0161241Y0323209D01*
X0158682Y0323209D02*
X0158308Y0323583D01*
X0153859Y0323583D01*
X0153859Y0328505D02*
X0155946Y0328505D01*
X0161241Y0303150D02*
X0165237Y0303150D01*
X0166359Y0302028D01*
X0166359Y0301359D01*
X0171044Y0301359D01*
X0171457Y0300946D01*
X0171457Y0296024D02*
X0171083Y0295650D01*
X0166359Y0295650D01*
X0163800Y0298209D01*
X0163800Y0301359D01*
X0161241Y0301359D02*
X0161241Y0303150D01*
X0155946Y0300946D02*
X0161241Y0295650D01*
X0158682Y0295650D02*
X0158308Y0296024D01*
X0153859Y0296024D01*
X0153859Y0300946D02*
X0155946Y0300946D01*
X0161241Y0275591D02*
X0165237Y0275591D01*
X0166359Y0274469D01*
X0166359Y0273800D01*
X0171044Y0273800D01*
X0171457Y0273387D01*
X0171457Y0268465D02*
X0171083Y0268091D01*
X0166359Y0268091D01*
X0163800Y0270650D01*
X0163800Y0273800D01*
X0161241Y0273800D02*
X0161241Y0275591D01*
X0155946Y0273387D02*
X0161241Y0268091D01*
X0158682Y0268091D02*
X0158308Y0268465D01*
X0153859Y0268465D01*
X0153859Y0273387D02*
X0155946Y0273387D01*
X0161241Y0248032D02*
X0165237Y0248032D01*
X0166359Y0246910D01*
X0166359Y0246241D01*
X0171044Y0246241D01*
X0171457Y0245828D01*
X0171457Y0240906D02*
X0171083Y0240532D01*
X0166359Y0240532D01*
X0163800Y0243091D01*
X0163800Y0246241D01*
X0161241Y0246241D02*
X0161241Y0248032D01*
X0155946Y0245828D02*
X0161241Y0240532D01*
X0158682Y0240532D02*
X0158308Y0240906D01*
X0153859Y0240906D01*
X0153859Y0245828D02*
X0155946Y0245828D01*
X0161241Y0220473D02*
X0165237Y0220473D01*
X0166359Y0219351D01*
X0166359Y0218682D01*
X0171044Y0218682D01*
X0171457Y0218269D01*
X0171457Y0213347D02*
X0171083Y0212973D01*
X0166359Y0212973D01*
X0163800Y0215532D01*
X0163800Y0218682D01*
X0161241Y0218682D02*
X0161241Y0220473D01*
X0155946Y0218269D02*
X0161241Y0212973D01*
X0158682Y0212973D02*
X0158308Y0213347D01*
X0153859Y0213347D01*
X0153859Y0218269D02*
X0155946Y0218269D01*
X0161241Y0192914D02*
X0165237Y0192914D01*
X0166359Y0191792D01*
X0166359Y0191123D01*
X0171044Y0191123D01*
X0171457Y0190709D01*
X0171457Y0185788D02*
X0171083Y0185414D01*
X0166359Y0185414D01*
X0163800Y0187973D01*
X0163800Y0191123D01*
X0161241Y0191123D02*
X0161241Y0192914D01*
X0155946Y0190709D02*
X0161241Y0185414D01*
X0158682Y0185414D02*
X0158308Y0185788D01*
X0153859Y0185788D01*
X0153859Y0190709D02*
X0155946Y0190709D01*
X0161241Y0165355D02*
X0165237Y0165355D01*
X0166359Y0164233D01*
X0166359Y0163564D01*
X0171044Y0163564D01*
X0171457Y0163150D01*
X0171457Y0158229D02*
X0171083Y0157855D01*
X0166359Y0157855D01*
X0163800Y0160414D01*
X0163800Y0163564D01*
X0161241Y0163564D02*
X0161241Y0165355D01*
X0155946Y0163150D02*
X0161241Y0157855D01*
X0158682Y0157855D02*
X0158308Y0158229D01*
X0153859Y0158229D01*
X0153859Y0163150D02*
X0155946Y0163150D01*
X0161241Y0137796D02*
X0165237Y0137796D01*
X0166359Y0136674D01*
X0166359Y0136005D01*
X0171044Y0136005D01*
X0171457Y0135591D01*
X0171457Y0130670D02*
X0171083Y0130296D01*
X0166359Y0130296D01*
X0163800Y0132855D01*
X0163800Y0136005D01*
X0161241Y0136005D02*
X0161241Y0137796D01*
X0155946Y0135591D02*
X0161241Y0130296D01*
X0158682Y0130296D02*
X0158308Y0130670D01*
X0153859Y0130670D01*
X0153859Y0135591D02*
X0155946Y0135591D01*
X0161241Y0110237D02*
X0165237Y0110237D01*
X0166359Y0109115D01*
X0166359Y0108446D01*
X0171044Y0108446D01*
X0171457Y0108032D01*
X0171457Y0103111D02*
X0171083Y0102737D01*
X0166359Y0102737D01*
X0163800Y0105296D01*
X0163800Y0108446D01*
X0161241Y0108446D02*
X0161241Y0110237D01*
X0155946Y0108032D02*
X0161241Y0102737D01*
X0158682Y0102737D02*
X0158308Y0103111D01*
X0153859Y0103111D01*
X0153859Y0108032D02*
X0155946Y0108032D01*
X0161241Y0082678D02*
X0165237Y0082678D01*
X0166359Y0081556D01*
X0166359Y0080887D01*
X0171044Y0080887D01*
X0171457Y0080473D01*
X0171457Y0075552D02*
X0171083Y0075178D01*
X0166359Y0075178D01*
X0163800Y0077737D01*
X0163800Y0080887D01*
X0161241Y0080887D02*
X0161241Y0082678D01*
X0155946Y0080473D02*
X0161241Y0075178D01*
X0158682Y0075178D02*
X0158308Y0075552D01*
X0153859Y0075552D01*
X0153859Y0080473D02*
X0155946Y0080473D01*
X0161241Y0055119D02*
X0165237Y0055119D01*
X0166359Y0053997D01*
X0166359Y0053328D01*
X0171044Y0053328D01*
X0171457Y0052914D01*
X0171457Y0047993D02*
X0171083Y0047619D01*
X0166359Y0047619D01*
X0163800Y0050178D01*
X0163800Y0053328D01*
X0161241Y0053328D02*
X0161241Y0055119D01*
X0155946Y0052914D02*
X0161241Y0047619D01*
X0158682Y0047619D02*
X0158308Y0047993D01*
X0153859Y0047993D01*
X0153859Y0052914D02*
X0155946Y0052914D01*
X0161241Y0027560D02*
X0165237Y0027560D01*
X0166359Y0026438D01*
X0166359Y0025769D01*
X0171044Y0025769D01*
X0171457Y0025355D01*
X0171457Y0020434D02*
X0171083Y0020060D01*
X0166359Y0020060D01*
X0163800Y0022619D01*
X0163800Y0025769D01*
X0161241Y0025769D02*
X0161241Y0027560D01*
X0155946Y0025355D02*
X0161241Y0020060D01*
X0158682Y0020060D02*
X0158308Y0020434D01*
X0153859Y0020434D01*
X0153859Y0025355D02*
X0155946Y0025355D01*
X0197166Y0025355D02*
X0199253Y0025355D01*
X0204548Y0020060D01*
X0201989Y0020060D02*
X0201615Y0020434D01*
X0197166Y0020434D01*
X0204548Y0025769D02*
X0204548Y0027560D01*
X0208544Y0027560D01*
X0209666Y0026438D01*
X0209666Y0025769D01*
X0214351Y0025769D01*
X0214765Y0025355D01*
X0214765Y0020434D02*
X0214391Y0020060D01*
X0209666Y0020060D01*
X0207107Y0022619D01*
X0207107Y0025769D01*
X0204548Y0047619D02*
X0199253Y0052914D01*
X0197166Y0052914D01*
X0197166Y0047993D02*
X0201615Y0047993D01*
X0201989Y0047619D01*
X0204548Y0053328D02*
X0204548Y0055119D01*
X0208544Y0055119D01*
X0209666Y0053997D01*
X0209666Y0053328D01*
X0214351Y0053328D01*
X0214765Y0052914D01*
X0214765Y0047993D02*
X0214391Y0047619D01*
X0209666Y0047619D01*
X0207107Y0050178D01*
X0207107Y0053328D01*
X0204548Y0075178D02*
X0199253Y0080473D01*
X0197166Y0080473D01*
X0197166Y0075552D02*
X0201615Y0075552D01*
X0201989Y0075178D01*
X0207107Y0077737D02*
X0207107Y0080887D01*
X0208544Y0082678D02*
X0204548Y0082678D01*
X0204548Y0080887D01*
X0207107Y0077737D02*
X0209666Y0075178D01*
X0214391Y0075178D01*
X0214765Y0075552D01*
X0214765Y0080473D02*
X0214351Y0080887D01*
X0209666Y0080887D01*
X0209666Y0081556D01*
X0208544Y0082678D01*
X0209666Y0102737D02*
X0214391Y0102737D01*
X0214765Y0103111D01*
X0214765Y0108032D02*
X0214351Y0108446D01*
X0209666Y0108446D01*
X0209666Y0109115D01*
X0208544Y0110237D01*
X0204548Y0110237D01*
X0204548Y0108446D01*
X0207107Y0108446D02*
X0207107Y0105296D01*
X0209666Y0102737D01*
X0204548Y0102737D02*
X0199253Y0108032D01*
X0197166Y0108032D01*
X0197166Y0103111D02*
X0201615Y0103111D01*
X0201989Y0102737D01*
X0201989Y0130296D02*
X0201615Y0130670D01*
X0197166Y0130670D01*
X0197166Y0135591D02*
X0199253Y0135591D01*
X0204548Y0130296D01*
X0207107Y0132855D02*
X0209666Y0130296D01*
X0214391Y0130296D01*
X0214765Y0130670D01*
X0214765Y0135591D02*
X0214351Y0136005D01*
X0209666Y0136005D01*
X0209666Y0136674D01*
X0208544Y0137796D01*
X0204548Y0137796D01*
X0204548Y0136005D01*
X0207107Y0136005D02*
X0207107Y0132855D01*
X0204548Y0157855D02*
X0199253Y0163150D01*
X0197166Y0163150D01*
X0197166Y0158229D02*
X0201615Y0158229D01*
X0201989Y0157855D01*
X0207107Y0160414D02*
X0207107Y0163564D01*
X0208544Y0165355D02*
X0204548Y0165355D01*
X0204548Y0163564D01*
X0207107Y0160414D02*
X0209666Y0157855D01*
X0214391Y0157855D01*
X0214765Y0158229D01*
X0214765Y0163150D02*
X0214351Y0163564D01*
X0209666Y0163564D01*
X0209666Y0164233D01*
X0208544Y0165355D01*
X0209666Y0185414D02*
X0214391Y0185414D01*
X0214765Y0185788D01*
X0214765Y0190709D02*
X0214351Y0191123D01*
X0209666Y0191123D01*
X0209666Y0191792D01*
X0208544Y0192914D01*
X0204548Y0192914D01*
X0204548Y0191123D01*
X0207107Y0191123D02*
X0207107Y0187973D01*
X0209666Y0185414D01*
X0204548Y0185414D02*
X0199253Y0190709D01*
X0197166Y0190709D01*
X0197166Y0185788D02*
X0201615Y0185788D01*
X0201989Y0185414D01*
X0201989Y0212973D02*
X0201615Y0213347D01*
X0197166Y0213347D01*
X0197166Y0218269D02*
X0199253Y0218269D01*
X0204548Y0212973D01*
X0207107Y0215532D02*
X0209666Y0212973D01*
X0214391Y0212973D01*
X0214765Y0213347D01*
X0214765Y0218269D02*
X0214351Y0218682D01*
X0209666Y0218682D01*
X0209666Y0219351D01*
X0208544Y0220473D01*
X0204548Y0220473D01*
X0204548Y0218682D01*
X0207107Y0218682D02*
X0207107Y0215532D01*
X0204548Y0240532D02*
X0199253Y0245828D01*
X0197166Y0245828D01*
X0197166Y0240906D02*
X0201615Y0240906D01*
X0201989Y0240532D01*
X0207107Y0243091D02*
X0207107Y0246241D01*
X0208544Y0248032D02*
X0204548Y0248032D01*
X0204548Y0246241D01*
X0207107Y0243091D02*
X0209666Y0240532D01*
X0214391Y0240532D01*
X0214765Y0240906D01*
X0214765Y0245828D02*
X0214351Y0246241D01*
X0209666Y0246241D01*
X0209666Y0246910D01*
X0208544Y0248032D01*
X0209666Y0268091D02*
X0214391Y0268091D01*
X0214765Y0268465D01*
X0214765Y0273387D02*
X0214351Y0273800D01*
X0209666Y0273800D01*
X0209666Y0274469D01*
X0208544Y0275591D01*
X0204548Y0275591D01*
X0204548Y0273800D01*
X0207107Y0273800D02*
X0207107Y0270650D01*
X0209666Y0268091D01*
X0204548Y0268091D02*
X0199253Y0273387D01*
X0197166Y0273387D01*
X0197166Y0268465D02*
X0201615Y0268465D01*
X0201989Y0268091D01*
X0201989Y0295650D02*
X0201615Y0296024D01*
X0197166Y0296024D01*
X0197166Y0300946D02*
X0199253Y0300946D01*
X0204548Y0295650D01*
X0207107Y0298209D02*
X0209666Y0295650D01*
X0214391Y0295650D01*
X0214765Y0296024D01*
X0214765Y0300946D02*
X0214351Y0301359D01*
X0209666Y0301359D01*
X0209666Y0302028D01*
X0208544Y0303150D01*
X0204548Y0303150D01*
X0204548Y0301359D01*
X0207107Y0301359D02*
X0207107Y0298209D01*
X0204548Y0323209D02*
X0199253Y0328505D01*
X0197166Y0328505D01*
X0197166Y0323583D02*
X0201615Y0323583D01*
X0201989Y0323209D01*
X0204548Y0328918D02*
X0204548Y0330709D01*
X0208544Y0330709D01*
X0209666Y0329587D01*
X0209666Y0328918D01*
X0214351Y0328918D01*
X0214765Y0328505D01*
X0214765Y0323583D02*
X0214391Y0323209D01*
X0209666Y0323209D01*
X0207107Y0325769D01*
X0207107Y0328918D01*
X0204548Y0350769D02*
X0199253Y0356064D01*
X0197166Y0356064D01*
X0197166Y0351143D02*
X0201615Y0351143D01*
X0201989Y0350769D01*
X0204548Y0356477D02*
X0204548Y0358269D01*
X0208544Y0358269D01*
X0209666Y0357146D01*
X0209666Y0356477D01*
X0214351Y0356477D01*
X0214765Y0356064D01*
X0214765Y0351143D02*
X0214391Y0350769D01*
X0209666Y0350769D01*
X0207107Y0353328D01*
X0207107Y0356477D01*
X0204548Y0374391D02*
X0199253Y0379686D01*
X0197166Y0379686D01*
X0197166Y0374765D02*
X0201615Y0374765D01*
X0201989Y0374391D01*
X0204548Y0380099D02*
X0204548Y0381891D01*
X0208544Y0381891D01*
X0209666Y0380769D01*
X0209666Y0380099D01*
X0214351Y0380099D01*
X0214765Y0379686D01*
X0214765Y0374765D02*
X0214391Y0374391D01*
X0209666Y0374391D01*
X0207107Y0376950D01*
X0207107Y0380099D01*
X0240473Y0379686D02*
X0242560Y0379686D01*
X0247855Y0374391D01*
X0245296Y0374391D02*
X0244922Y0374765D01*
X0240473Y0374765D01*
X0247855Y0380099D02*
X0247855Y0381891D01*
X0251851Y0381891D01*
X0252973Y0380769D01*
X0252973Y0380099D01*
X0257658Y0380099D01*
X0258072Y0379686D01*
X0258072Y0374765D02*
X0257698Y0374391D01*
X0252973Y0374391D01*
X0250414Y0376950D01*
X0250414Y0380099D01*
X0251851Y0358269D02*
X0247855Y0358269D01*
X0247855Y0356477D01*
X0250414Y0356477D02*
X0250414Y0353328D01*
X0252973Y0350769D01*
X0257698Y0350769D01*
X0258072Y0351143D01*
X0258072Y0356064D02*
X0257658Y0356477D01*
X0252973Y0356477D01*
X0252973Y0357146D01*
X0251851Y0358269D01*
X0247855Y0350769D02*
X0242560Y0356064D01*
X0240473Y0356064D01*
X0240473Y0351143D02*
X0244922Y0351143D01*
X0245296Y0350769D01*
X0247855Y0330709D02*
X0251851Y0330709D01*
X0252973Y0329587D01*
X0252973Y0328918D01*
X0257658Y0328918D01*
X0258072Y0328505D01*
X0258072Y0323583D02*
X0257698Y0323209D01*
X0252973Y0323209D01*
X0250414Y0325769D01*
X0250414Y0328918D01*
X0247855Y0328918D02*
X0247855Y0330709D01*
X0242560Y0328505D02*
X0247855Y0323209D01*
X0245296Y0323209D02*
X0244922Y0323583D01*
X0240473Y0323583D01*
X0240473Y0328505D02*
X0242560Y0328505D01*
X0247855Y0303150D02*
X0251851Y0303150D01*
X0252973Y0302028D01*
X0252973Y0301359D01*
X0257658Y0301359D01*
X0258072Y0300946D01*
X0258072Y0296024D02*
X0257698Y0295650D01*
X0252973Y0295650D01*
X0250414Y0298209D01*
X0250414Y0301359D01*
X0247855Y0301359D02*
X0247855Y0303150D01*
X0242560Y0300946D02*
X0247855Y0295650D01*
X0245296Y0295650D02*
X0244922Y0296024D01*
X0240473Y0296024D01*
X0240473Y0300946D02*
X0242560Y0300946D01*
X0247855Y0275591D02*
X0251851Y0275591D01*
X0252973Y0274469D01*
X0252973Y0273800D01*
X0257658Y0273800D01*
X0258072Y0273387D01*
X0258072Y0268465D02*
X0257698Y0268091D01*
X0252973Y0268091D01*
X0250414Y0270650D01*
X0250414Y0273800D01*
X0247855Y0273800D02*
X0247855Y0275591D01*
X0242560Y0273387D02*
X0247855Y0268091D01*
X0245296Y0268091D02*
X0244922Y0268465D01*
X0240473Y0268465D01*
X0240473Y0273387D02*
X0242560Y0273387D01*
X0247855Y0248032D02*
X0251851Y0248032D01*
X0252973Y0246910D01*
X0252973Y0246241D01*
X0257658Y0246241D01*
X0258072Y0245828D01*
X0258072Y0240906D02*
X0257698Y0240532D01*
X0252973Y0240532D01*
X0250414Y0243091D01*
X0250414Y0246241D01*
X0247855Y0246241D02*
X0247855Y0248032D01*
X0242560Y0245828D02*
X0247855Y0240532D01*
X0245296Y0240532D02*
X0244922Y0240906D01*
X0240473Y0240906D01*
X0240473Y0245828D02*
X0242560Y0245828D01*
X0247855Y0220473D02*
X0251851Y0220473D01*
X0252973Y0219351D01*
X0252973Y0218682D01*
X0257658Y0218682D01*
X0258072Y0218269D01*
X0258072Y0213347D02*
X0257698Y0212973D01*
X0252973Y0212973D01*
X0250414Y0215532D01*
X0250414Y0218682D01*
X0247855Y0218682D02*
X0247855Y0220473D01*
X0242560Y0218269D02*
X0247855Y0212973D01*
X0245296Y0212973D02*
X0244922Y0213347D01*
X0240473Y0213347D01*
X0240473Y0218269D02*
X0242560Y0218269D01*
X0247855Y0192914D02*
X0251851Y0192914D01*
X0252973Y0191792D01*
X0252973Y0191123D01*
X0257658Y0191123D01*
X0258072Y0190709D01*
X0258072Y0185788D02*
X0257698Y0185414D01*
X0252973Y0185414D01*
X0250414Y0187973D01*
X0250414Y0191123D01*
X0247855Y0191123D02*
X0247855Y0192914D01*
X0242560Y0190709D02*
X0247855Y0185414D01*
X0245296Y0185414D02*
X0244922Y0185788D01*
X0240473Y0185788D01*
X0240473Y0190709D02*
X0242560Y0190709D01*
X0247855Y0165355D02*
X0251851Y0165355D01*
X0252973Y0164233D01*
X0252973Y0163564D01*
X0257658Y0163564D01*
X0258072Y0163150D01*
X0258072Y0158229D02*
X0257698Y0157855D01*
X0252973Y0157855D01*
X0250414Y0160414D01*
X0250414Y0163564D01*
X0247855Y0163564D02*
X0247855Y0165355D01*
X0242560Y0163150D02*
X0247855Y0157855D01*
X0245296Y0157855D02*
X0244922Y0158229D01*
X0240473Y0158229D01*
X0240473Y0163150D02*
X0242560Y0163150D01*
X0247855Y0137796D02*
X0251851Y0137796D01*
X0252973Y0136674D01*
X0252973Y0136005D01*
X0257658Y0136005D01*
X0258072Y0135591D01*
X0258072Y0130670D02*
X0257698Y0130296D01*
X0252973Y0130296D01*
X0250414Y0132855D01*
X0250414Y0136005D01*
X0247855Y0136005D02*
X0247855Y0137796D01*
X0242560Y0135591D02*
X0247855Y0130296D01*
X0245296Y0130296D02*
X0244922Y0130670D01*
X0240473Y0130670D01*
X0240473Y0135591D02*
X0242560Y0135591D01*
X0247855Y0110237D02*
X0251851Y0110237D01*
X0252973Y0109115D01*
X0252973Y0108446D01*
X0257658Y0108446D01*
X0258072Y0108032D01*
X0258072Y0103111D02*
X0257698Y0102737D01*
X0252973Y0102737D01*
X0250414Y0105296D01*
X0250414Y0108446D01*
X0247855Y0108446D02*
X0247855Y0110237D01*
X0242560Y0108032D02*
X0247855Y0102737D01*
X0245296Y0102737D02*
X0244922Y0103111D01*
X0240473Y0103111D01*
X0240473Y0108032D02*
X0242560Y0108032D01*
X0247855Y0082678D02*
X0251851Y0082678D01*
X0252973Y0081556D01*
X0252973Y0080887D01*
X0257658Y0080887D01*
X0258072Y0080473D01*
X0258072Y0075552D02*
X0257698Y0075178D01*
X0252973Y0075178D01*
X0250414Y0077737D01*
X0250414Y0080887D01*
X0247855Y0080887D02*
X0247855Y0082678D01*
X0242560Y0080473D02*
X0247855Y0075178D01*
X0245296Y0075178D02*
X0244922Y0075552D01*
X0240473Y0075552D01*
X0240473Y0080473D02*
X0242560Y0080473D01*
X0247855Y0055119D02*
X0251851Y0055119D01*
X0252973Y0053997D01*
X0252973Y0053328D01*
X0257658Y0053328D01*
X0258072Y0052914D01*
X0258072Y0047993D02*
X0257698Y0047619D01*
X0252973Y0047619D01*
X0250414Y0050178D01*
X0250414Y0053328D01*
X0247855Y0053328D02*
X0247855Y0055119D01*
X0242560Y0052914D02*
X0247855Y0047619D01*
X0245296Y0047619D02*
X0244922Y0047993D01*
X0240473Y0047993D01*
X0240473Y0052914D02*
X0242560Y0052914D01*
X0247855Y0027560D02*
X0251851Y0027560D01*
X0252973Y0026438D01*
X0252973Y0025769D01*
X0257658Y0025769D01*
X0258072Y0025355D01*
X0258072Y0020434D02*
X0257698Y0020060D01*
X0252973Y0020060D01*
X0250414Y0022619D01*
X0250414Y0025769D01*
X0247855Y0025769D02*
X0247855Y0027560D01*
X0242560Y0025355D02*
X0247855Y0020060D01*
X0245296Y0020060D02*
X0244922Y0020434D01*
X0240473Y0020434D01*
X0240473Y0025355D02*
X0242560Y0025355D01*
X0283780Y0025355D02*
X0285867Y0025355D01*
X0291162Y0020060D01*
X0288603Y0020060D02*
X0288229Y0020434D01*
X0283780Y0020434D01*
X0291162Y0025769D02*
X0291162Y0027560D01*
X0295158Y0027560D01*
X0296280Y0026438D01*
X0296280Y0025769D01*
X0300965Y0025769D01*
X0301379Y0025355D01*
X0301379Y0020434D02*
X0301005Y0020060D01*
X0296280Y0020060D01*
X0293721Y0022619D01*
X0293721Y0025769D01*
X0291162Y0047619D02*
X0285867Y0052914D01*
X0283780Y0052914D01*
X0283780Y0047993D02*
X0288229Y0047993D01*
X0288603Y0047619D01*
X0291162Y0053328D02*
X0291162Y0055119D01*
X0295158Y0055119D01*
X0296280Y0053997D01*
X0296280Y0053328D01*
X0300965Y0053328D01*
X0301379Y0052914D01*
X0301379Y0047993D02*
X0301005Y0047619D01*
X0296280Y0047619D01*
X0293721Y0050178D01*
X0293721Y0053328D01*
X0291162Y0075178D02*
X0285867Y0080473D01*
X0283780Y0080473D01*
X0283780Y0075552D02*
X0288229Y0075552D01*
X0288603Y0075178D01*
X0293721Y0077737D02*
X0293721Y0080887D01*
X0295158Y0082678D02*
X0291162Y0082678D01*
X0291162Y0080887D01*
X0293721Y0077737D02*
X0296280Y0075178D01*
X0301005Y0075178D01*
X0301379Y0075552D01*
X0301379Y0080473D02*
X0300965Y0080887D01*
X0296280Y0080887D01*
X0296280Y0081556D01*
X0295158Y0082678D01*
X0296280Y0102737D02*
X0301005Y0102737D01*
X0301379Y0103111D01*
X0301379Y0108032D02*
X0300965Y0108446D01*
X0296280Y0108446D01*
X0296280Y0109115D01*
X0295158Y0110237D01*
X0291162Y0110237D01*
X0291162Y0108446D01*
X0293721Y0108446D02*
X0293721Y0105296D01*
X0296280Y0102737D01*
X0291162Y0102737D02*
X0285867Y0108032D01*
X0283780Y0108032D01*
X0283780Y0103111D02*
X0288229Y0103111D01*
X0288603Y0102737D01*
X0288603Y0130296D02*
X0288229Y0130670D01*
X0283780Y0130670D01*
X0283780Y0135591D02*
X0285867Y0135591D01*
X0291162Y0130296D01*
X0293721Y0132855D02*
X0296280Y0130296D01*
X0301005Y0130296D01*
X0301379Y0130670D01*
X0301379Y0135591D02*
X0300965Y0136005D01*
X0296280Y0136005D01*
X0296280Y0136674D01*
X0295158Y0137796D01*
X0291162Y0137796D01*
X0291162Y0136005D01*
X0293721Y0136005D02*
X0293721Y0132855D01*
X0291162Y0157855D02*
X0285867Y0163150D01*
X0283780Y0163150D01*
X0283780Y0158229D02*
X0288229Y0158229D01*
X0288603Y0157855D01*
X0293721Y0160414D02*
X0293721Y0163564D01*
X0295158Y0165355D02*
X0291162Y0165355D01*
X0291162Y0163564D01*
X0293721Y0160414D02*
X0296280Y0157855D01*
X0301005Y0157855D01*
X0301379Y0158229D01*
X0301379Y0163150D02*
X0300965Y0163564D01*
X0296280Y0163564D01*
X0296280Y0164233D01*
X0295158Y0165355D01*
X0296280Y0185414D02*
X0301005Y0185414D01*
X0301379Y0185788D01*
X0301379Y0190709D02*
X0300965Y0191123D01*
X0296280Y0191123D01*
X0296280Y0191792D01*
X0295158Y0192914D01*
X0291162Y0192914D01*
X0291162Y0191123D01*
X0293721Y0191123D02*
X0293721Y0187973D01*
X0296280Y0185414D01*
X0291162Y0185414D02*
X0285867Y0190709D01*
X0283780Y0190709D01*
X0283780Y0185788D02*
X0288229Y0185788D01*
X0288603Y0185414D01*
X0288603Y0212973D02*
X0288229Y0213347D01*
X0283780Y0213347D01*
X0283780Y0218269D02*
X0285867Y0218269D01*
X0291162Y0212973D01*
X0293721Y0215532D02*
X0296280Y0212973D01*
X0301005Y0212973D01*
X0301379Y0213347D01*
X0301379Y0218269D02*
X0300965Y0218682D01*
X0296280Y0218682D01*
X0296280Y0219351D01*
X0295158Y0220473D01*
X0291162Y0220473D01*
X0291162Y0218682D01*
X0293721Y0218682D02*
X0293721Y0215532D01*
X0291162Y0240532D02*
X0285867Y0245828D01*
X0283780Y0245828D01*
X0283780Y0240906D02*
X0288229Y0240906D01*
X0288603Y0240532D01*
X0293721Y0243091D02*
X0293721Y0246241D01*
X0295158Y0248032D02*
X0291162Y0248032D01*
X0291162Y0246241D01*
X0293721Y0243091D02*
X0296280Y0240532D01*
X0301005Y0240532D01*
X0301379Y0240906D01*
X0301379Y0245828D02*
X0300965Y0246241D01*
X0296280Y0246241D01*
X0296280Y0246910D01*
X0295158Y0248032D01*
X0296280Y0268091D02*
X0301005Y0268091D01*
X0301379Y0268465D01*
X0301379Y0273387D02*
X0300965Y0273800D01*
X0296280Y0273800D01*
X0296280Y0274469D01*
X0295158Y0275591D01*
X0291162Y0275591D01*
X0291162Y0273800D01*
X0293721Y0273800D02*
X0293721Y0270650D01*
X0296280Y0268091D01*
X0291162Y0268091D02*
X0285867Y0273387D01*
X0283780Y0273387D01*
X0283780Y0268465D02*
X0288229Y0268465D01*
X0288603Y0268091D01*
X0288603Y0295650D02*
X0288229Y0296024D01*
X0283780Y0296024D01*
X0283780Y0300946D02*
X0285867Y0300946D01*
X0291162Y0295650D01*
X0293721Y0298209D02*
X0296280Y0295650D01*
X0301005Y0295650D01*
X0301379Y0296024D01*
X0301379Y0300946D02*
X0300965Y0301359D01*
X0296280Y0301359D01*
X0296280Y0302028D01*
X0295158Y0303150D01*
X0291162Y0303150D01*
X0291162Y0301359D01*
X0293721Y0301359D02*
X0293721Y0298209D01*
X0291162Y0323209D02*
X0285867Y0328505D01*
X0283780Y0328505D01*
X0283780Y0323583D02*
X0288229Y0323583D01*
X0288603Y0323209D01*
X0291162Y0328918D02*
X0291162Y0330709D01*
X0295158Y0330709D01*
X0296280Y0329587D01*
X0296280Y0328918D01*
X0300965Y0328918D01*
X0301379Y0328505D01*
X0301379Y0323583D02*
X0301005Y0323209D01*
X0296280Y0323209D01*
X0293721Y0325769D01*
X0293721Y0328918D01*
X0291162Y0350769D02*
X0285867Y0356064D01*
X0283780Y0356064D01*
X0283780Y0351143D02*
X0288229Y0351143D01*
X0288603Y0350769D01*
X0291162Y0356477D02*
X0291162Y0358269D01*
X0295158Y0358269D01*
X0296280Y0357146D01*
X0296280Y0356477D01*
X0300965Y0356477D01*
X0301379Y0356064D01*
X0301379Y0351143D02*
X0301005Y0350769D01*
X0296280Y0350769D01*
X0293721Y0353328D01*
X0293721Y0356477D01*
X0291162Y0374391D02*
X0285867Y0379686D01*
X0283780Y0379686D01*
X0283780Y0374765D02*
X0288229Y0374765D01*
X0288603Y0374391D01*
X0291162Y0380099D02*
X0291162Y0381891D01*
X0295158Y0381891D01*
X0296280Y0380769D01*
X0296280Y0380099D01*
X0300965Y0380099D01*
X0301379Y0379686D01*
X0301379Y0374765D02*
X0301005Y0374391D01*
X0296280Y0374391D01*
X0293721Y0376950D01*
X0293721Y0380099D01*
X0323150Y0379686D02*
X0325237Y0379686D01*
X0330532Y0374391D01*
X0327973Y0374391D02*
X0327599Y0374765D01*
X0323150Y0374765D01*
X0330532Y0380099D02*
X0330532Y0381891D01*
X0334528Y0381891D01*
X0335650Y0380769D01*
X0335650Y0380099D01*
X0340335Y0380099D01*
X0340749Y0379686D01*
X0340749Y0374765D02*
X0340375Y0374391D01*
X0335650Y0374391D01*
X0333091Y0376950D01*
X0333091Y0380099D01*
X0334528Y0358269D02*
X0330532Y0358269D01*
X0330532Y0356477D01*
X0333091Y0356477D02*
X0333091Y0353328D01*
X0335650Y0350769D01*
X0340375Y0350769D01*
X0340749Y0351143D01*
X0340749Y0356064D02*
X0340335Y0356477D01*
X0335650Y0356477D01*
X0335650Y0357146D01*
X0334528Y0358269D01*
X0330532Y0350769D02*
X0325237Y0356064D01*
X0323150Y0356064D01*
X0323150Y0351143D02*
X0327599Y0351143D01*
X0327973Y0350769D01*
X0330532Y0330709D02*
X0334528Y0330709D01*
X0335650Y0329587D01*
X0335650Y0328918D01*
X0340335Y0328918D01*
X0340749Y0328505D01*
X0340749Y0323583D02*
X0340375Y0323209D01*
X0335650Y0323209D01*
X0333091Y0325769D01*
X0333091Y0328918D01*
X0330532Y0328918D02*
X0330532Y0330709D01*
X0325237Y0328505D02*
X0330532Y0323209D01*
X0327973Y0323209D02*
X0327599Y0323583D01*
X0323150Y0323583D01*
X0323150Y0328505D02*
X0325237Y0328505D01*
X0330532Y0303150D02*
X0334528Y0303150D01*
X0335650Y0302028D01*
X0335650Y0301359D01*
X0340335Y0301359D01*
X0340749Y0300946D01*
X0340749Y0296024D02*
X0340375Y0295650D01*
X0335650Y0295650D01*
X0333091Y0298209D01*
X0333091Y0301359D01*
X0330532Y0301359D02*
X0330532Y0303150D01*
X0325237Y0300946D02*
X0330532Y0295650D01*
X0327973Y0295650D02*
X0327599Y0296024D01*
X0323150Y0296024D01*
X0323150Y0300946D02*
X0325237Y0300946D01*
X0330532Y0275591D02*
X0334528Y0275591D01*
X0335650Y0274469D01*
X0335650Y0273800D01*
X0340335Y0273800D01*
X0340749Y0273387D01*
X0340749Y0268465D02*
X0340375Y0268091D01*
X0335650Y0268091D01*
X0333091Y0270650D01*
X0333091Y0273800D01*
X0330532Y0273800D02*
X0330532Y0275591D01*
X0325237Y0273387D02*
X0330532Y0268091D01*
X0327973Y0268091D02*
X0327599Y0268465D01*
X0323150Y0268465D01*
X0323150Y0273387D02*
X0325237Y0273387D01*
X0330532Y0248032D02*
X0334528Y0248032D01*
X0335650Y0246910D01*
X0335650Y0246241D01*
X0340335Y0246241D01*
X0340749Y0245828D01*
X0335650Y0240532D02*
X0333091Y0243091D01*
X0333091Y0246241D01*
X0330532Y0246241D02*
X0330532Y0248032D01*
X0325237Y0245828D02*
X0330532Y0240532D01*
X0327973Y0240532D02*
X0327599Y0240906D01*
X0323150Y0240906D01*
X0323150Y0245828D02*
X0325237Y0245828D01*
X0335650Y0240532D02*
X0340375Y0240532D01*
X0340749Y0240906D01*
X0334528Y0220473D02*
X0330532Y0220473D01*
X0330532Y0218682D01*
X0333091Y0218682D02*
X0333091Y0215532D01*
X0335650Y0212973D01*
X0340375Y0212973D01*
X0340749Y0213347D01*
X0340749Y0218269D02*
X0340335Y0218682D01*
X0335650Y0218682D01*
X0335650Y0219351D01*
X0334528Y0220473D01*
X0330532Y0212973D02*
X0325237Y0218269D01*
X0323150Y0218269D01*
X0323150Y0213347D02*
X0327599Y0213347D01*
X0327973Y0212973D01*
X0330532Y0192914D02*
X0334528Y0192914D01*
X0335650Y0191792D01*
X0335650Y0191123D01*
X0340335Y0191123D01*
X0340749Y0190709D01*
X0335650Y0185414D02*
X0333091Y0187973D01*
X0333091Y0191123D01*
X0330532Y0191123D02*
X0330532Y0192914D01*
X0325237Y0190709D02*
X0330532Y0185414D01*
X0327973Y0185414D02*
X0327599Y0185788D01*
X0323150Y0185788D01*
X0323150Y0190709D02*
X0325237Y0190709D01*
X0335650Y0185414D02*
X0340375Y0185414D01*
X0340749Y0185788D01*
X0334528Y0165355D02*
X0330532Y0165355D01*
X0330532Y0163564D01*
X0333091Y0163564D02*
X0333091Y0160414D01*
X0335650Y0157855D01*
X0340375Y0157855D01*
X0340749Y0158229D01*
X0340749Y0163150D02*
X0340335Y0163564D01*
X0335650Y0163564D01*
X0335650Y0164233D01*
X0334528Y0165355D01*
X0330532Y0157855D02*
X0325237Y0163150D01*
X0323150Y0163150D01*
X0323150Y0158229D02*
X0327599Y0158229D01*
X0327973Y0157855D01*
X0330532Y0137796D02*
X0334528Y0137796D01*
X0335650Y0136674D01*
X0335650Y0136005D01*
X0340335Y0136005D01*
X0340749Y0135591D01*
X0335650Y0130296D02*
X0333091Y0132855D01*
X0333091Y0136005D01*
X0330532Y0136005D02*
X0330532Y0137796D01*
X0325237Y0135591D02*
X0330532Y0130296D01*
X0327973Y0130296D02*
X0327599Y0130670D01*
X0323150Y0130670D01*
X0323150Y0135591D02*
X0325237Y0135591D01*
X0335650Y0130296D02*
X0340375Y0130296D01*
X0340749Y0130670D01*
X0334528Y0110237D02*
X0330532Y0110237D01*
X0330532Y0108446D01*
X0333091Y0108446D02*
X0333091Y0105296D01*
X0335650Y0102737D01*
X0340375Y0102737D01*
X0340749Y0103111D01*
X0340749Y0108032D02*
X0340335Y0108446D01*
X0335650Y0108446D01*
X0335650Y0109115D01*
X0334528Y0110237D01*
X0330532Y0102737D02*
X0325237Y0108032D01*
X0323150Y0108032D01*
X0323150Y0103111D02*
X0327599Y0103111D01*
X0327973Y0102737D01*
X0330532Y0082678D02*
X0334528Y0082678D01*
X0335650Y0081556D01*
X0335650Y0080887D01*
X0340335Y0080887D01*
X0340749Y0080473D01*
X0340749Y0075552D02*
X0340375Y0075178D01*
X0335650Y0075178D01*
X0333091Y0077737D01*
X0333091Y0080887D01*
X0330532Y0080887D02*
X0330532Y0082678D01*
X0325237Y0080473D02*
X0330532Y0075178D01*
X0327973Y0075178D02*
X0327599Y0075552D01*
X0323150Y0075552D01*
X0323150Y0080473D02*
X0325237Y0080473D01*
X0330532Y0055119D02*
X0334528Y0055119D01*
X0335650Y0053997D01*
X0335650Y0053328D01*
X0340335Y0053328D01*
X0340749Y0052914D01*
X0340749Y0047993D02*
X0340375Y0047619D01*
X0335650Y0047619D01*
X0333091Y0050178D01*
X0333091Y0053328D01*
X0330532Y0053328D02*
X0330532Y0055119D01*
X0325237Y0052914D02*
X0330532Y0047619D01*
X0327973Y0047619D02*
X0327599Y0047993D01*
X0323150Y0047993D01*
X0323150Y0052914D02*
X0325237Y0052914D01*
X0330532Y0027560D02*
X0334528Y0027560D01*
X0335650Y0026438D01*
X0335650Y0025769D01*
X0340335Y0025769D01*
X0340749Y0025355D01*
X0340749Y0020434D02*
X0340375Y0020060D01*
X0335650Y0020060D01*
X0333091Y0022619D01*
X0333091Y0025769D01*
X0330532Y0025769D02*
X0330532Y0027560D01*
X0325237Y0025355D02*
X0330532Y0020060D01*
X0327973Y0020060D02*
X0327599Y0020434D01*
X0323150Y0020434D01*
X0323150Y0025355D02*
X0325237Y0025355D01*
X0362520Y0025355D02*
X0364607Y0025355D01*
X0369902Y0020060D01*
X0367343Y0020060D02*
X0366969Y0020434D01*
X0362520Y0020434D01*
X0369902Y0025769D02*
X0369902Y0027560D01*
X0373898Y0027560D01*
X0375020Y0026438D01*
X0375020Y0025769D01*
X0379706Y0025769D01*
X0380119Y0025355D01*
X0380119Y0020434D02*
X0379745Y0020060D01*
X0375020Y0020060D01*
X0372461Y0022619D01*
X0372461Y0025769D01*
X0369902Y0047619D02*
X0364607Y0052914D01*
X0362520Y0052914D01*
X0362520Y0047993D02*
X0366969Y0047993D01*
X0367343Y0047619D01*
X0372461Y0050178D02*
X0372461Y0053328D01*
X0373898Y0055119D02*
X0369902Y0055119D01*
X0369902Y0053328D01*
X0372461Y0050178D02*
X0375020Y0047619D01*
X0379745Y0047619D01*
X0380119Y0047993D01*
X0380119Y0052914D02*
X0379706Y0053328D01*
X0375020Y0053328D01*
X0375020Y0053997D01*
X0373898Y0055119D01*
X0375020Y0075178D02*
X0379745Y0075178D01*
X0380119Y0075552D01*
X0380119Y0080473D02*
X0379706Y0080887D01*
X0375020Y0080887D01*
X0375020Y0081556D01*
X0373898Y0082678D01*
X0369902Y0082678D01*
X0369902Y0080887D01*
X0372461Y0080887D02*
X0372461Y0077737D01*
X0375020Y0075178D01*
X0369902Y0075178D02*
X0364607Y0080473D01*
X0362520Y0080473D01*
X0362520Y0075552D02*
X0366969Y0075552D01*
X0367343Y0075178D01*
X0367343Y0102737D02*
X0366969Y0103111D01*
X0362520Y0103111D01*
X0362520Y0108032D02*
X0364607Y0108032D01*
X0369902Y0102737D01*
X0372461Y0105296D02*
X0375020Y0102737D01*
X0379745Y0102737D01*
X0380119Y0103111D01*
X0380119Y0108032D02*
X0379706Y0108446D01*
X0375020Y0108446D01*
X0375020Y0109115D01*
X0373898Y0110237D01*
X0369902Y0110237D01*
X0369902Y0108446D01*
X0372461Y0108446D02*
X0372461Y0105296D01*
X0369902Y0130296D02*
X0364607Y0135591D01*
X0362520Y0135591D01*
X0362520Y0130670D02*
X0366969Y0130670D01*
X0367343Y0130296D01*
X0372461Y0132855D02*
X0375020Y0130296D01*
X0379745Y0130296D01*
X0380119Y0130670D01*
X0380119Y0135591D02*
X0379706Y0136005D01*
X0375020Y0136005D01*
X0375020Y0136674D01*
X0373898Y0137796D01*
X0369902Y0137796D01*
X0369902Y0136005D01*
X0372461Y0136005D02*
X0372461Y0132855D01*
X0369902Y0157855D02*
X0364607Y0163150D01*
X0362520Y0163150D01*
X0362520Y0158229D02*
X0366969Y0158229D01*
X0367343Y0157855D01*
X0372461Y0160414D02*
X0375020Y0157855D01*
X0379745Y0157855D01*
X0380119Y0158229D01*
X0380119Y0163150D02*
X0379706Y0163564D01*
X0375020Y0163564D01*
X0375020Y0164233D01*
X0373898Y0165355D01*
X0369902Y0165355D01*
X0369902Y0163564D01*
X0372461Y0163564D02*
X0372461Y0160414D01*
X0369902Y0185414D02*
X0364607Y0190709D01*
X0362520Y0190709D01*
X0362520Y0185788D02*
X0366969Y0185788D01*
X0367343Y0185414D01*
X0372461Y0187973D02*
X0375020Y0185414D01*
X0379745Y0185414D01*
X0380119Y0185788D01*
X0380119Y0190709D02*
X0379706Y0191123D01*
X0375020Y0191123D01*
X0375020Y0191792D01*
X0373898Y0192914D01*
X0369902Y0192914D01*
X0369902Y0191123D01*
X0372461Y0191123D02*
X0372461Y0187973D01*
X0369902Y0212973D02*
X0364607Y0218269D01*
X0362520Y0218269D01*
X0362520Y0213347D02*
X0366969Y0213347D01*
X0367343Y0212973D01*
X0372461Y0215532D02*
X0375020Y0212973D01*
X0379745Y0212973D01*
X0380119Y0213347D01*
X0380119Y0218269D02*
X0379706Y0218682D01*
X0375020Y0218682D01*
X0375020Y0219351D01*
X0373898Y0220473D01*
X0369902Y0220473D01*
X0369902Y0218682D01*
X0372461Y0218682D02*
X0372461Y0215532D01*
X0369902Y0240532D02*
X0364607Y0245828D01*
X0362520Y0245828D01*
X0362520Y0240906D02*
X0366969Y0240906D01*
X0367343Y0240532D01*
X0372461Y0243091D02*
X0375020Y0240532D01*
X0379745Y0240532D01*
X0380119Y0240906D01*
X0380119Y0245828D02*
X0379706Y0246241D01*
X0375020Y0246241D01*
X0375020Y0246910D01*
X0373898Y0248032D01*
X0369902Y0248032D01*
X0369902Y0246241D01*
X0372461Y0246241D02*
X0372461Y0243091D01*
X0369902Y0268091D02*
X0364607Y0273387D01*
X0362520Y0273387D01*
X0362520Y0268465D02*
X0366969Y0268465D01*
X0367343Y0268091D01*
X0372461Y0270650D02*
X0375020Y0268091D01*
X0379745Y0268091D01*
X0380119Y0268465D01*
X0380119Y0273387D02*
X0379706Y0273800D01*
X0375020Y0273800D01*
X0375020Y0274469D01*
X0373898Y0275591D01*
X0369902Y0275591D01*
X0369902Y0273800D01*
X0372461Y0273800D02*
X0372461Y0270650D01*
X0369902Y0295650D02*
X0364607Y0300946D01*
X0362520Y0300946D01*
X0362520Y0296024D02*
X0366969Y0296024D01*
X0367343Y0295650D01*
X0372461Y0298209D02*
X0375020Y0295650D01*
X0379745Y0295650D01*
X0380119Y0296024D01*
X0380119Y0300946D02*
X0379706Y0301359D01*
X0375020Y0301359D01*
X0375020Y0302028D01*
X0373898Y0303150D01*
X0369902Y0303150D01*
X0369902Y0301359D01*
X0372461Y0301359D02*
X0372461Y0298209D01*
X0369902Y0323209D02*
X0364607Y0328505D01*
X0362520Y0328505D01*
X0362520Y0323583D02*
X0366969Y0323583D01*
X0367343Y0323209D01*
X0372461Y0325769D02*
X0375020Y0323209D01*
X0379745Y0323209D01*
X0380119Y0323583D01*
X0380119Y0328505D02*
X0379706Y0328918D01*
X0375020Y0328918D01*
X0375020Y0329587D01*
X0373898Y0330709D01*
X0369902Y0330709D01*
X0369902Y0328918D01*
X0372461Y0328918D02*
X0372461Y0325769D01*
X0369902Y0350769D02*
X0364607Y0356064D01*
X0362520Y0356064D01*
X0362520Y0351143D02*
X0366969Y0351143D01*
X0367343Y0350769D01*
X0372461Y0353328D02*
X0375020Y0350769D01*
X0379745Y0350769D01*
X0380119Y0351143D01*
X0380119Y0356064D02*
X0379706Y0356477D01*
X0375020Y0356477D01*
X0375020Y0357146D01*
X0373898Y0358269D01*
X0369902Y0358269D01*
X0369902Y0356477D01*
X0372461Y0356477D02*
X0372461Y0353328D01*
X0369902Y0374391D02*
X0364607Y0379686D01*
X0362520Y0379686D01*
X0362520Y0374765D02*
X0366969Y0374765D01*
X0367343Y0374391D01*
X0372461Y0376950D02*
X0375020Y0374391D01*
X0379745Y0374391D01*
X0380119Y0374765D01*
X0380119Y0379686D02*
X0379706Y0380099D01*
X0375020Y0380099D01*
X0375020Y0380769D01*
X0373898Y0381891D01*
X0369902Y0381891D01*
X0369902Y0380099D01*
X0372461Y0380099D02*
X0372461Y0376950D01*
D11*
X0380119Y0374765D03*
X0380119Y0379686D03*
X0362520Y0379686D03*
X0362520Y0374765D03*
X0362520Y0356064D03*
X0362520Y0351143D03*
X0380119Y0351143D03*
X0380119Y0356064D03*
X0380119Y0328505D03*
X0380119Y0323583D03*
X0362520Y0323583D03*
X0362520Y0328505D03*
X0340749Y0328505D03*
X0340749Y0323583D03*
X0323150Y0323583D03*
X0323150Y0328505D03*
X0301379Y0328505D03*
X0301379Y0323583D03*
X0283780Y0323583D03*
X0283780Y0328505D03*
X0283780Y0351143D03*
X0283780Y0356064D03*
X0301379Y0356064D03*
X0301379Y0351143D03*
X0323150Y0351143D03*
X0323150Y0356064D03*
X0340749Y0356064D03*
X0340749Y0351143D03*
X0340749Y0374765D03*
X0340749Y0379686D03*
X0323150Y0379686D03*
X0323150Y0374765D03*
X0301379Y0374765D03*
X0301379Y0379686D03*
X0283780Y0379686D03*
X0283780Y0374765D03*
X0258072Y0374765D03*
X0258072Y0379686D03*
X0240473Y0379686D03*
X0240473Y0374765D03*
X0240473Y0356064D03*
X0240473Y0351143D03*
X0258072Y0351143D03*
X0258072Y0356064D03*
X0258072Y0328505D03*
X0258072Y0323583D03*
X0240473Y0323583D03*
X0240473Y0328505D03*
X0214765Y0328505D03*
X0214765Y0323583D03*
X0197166Y0323583D03*
X0197166Y0328505D03*
X0197166Y0351143D03*
X0197166Y0356064D03*
X0214765Y0356064D03*
X0214765Y0351143D03*
X0214765Y0374765D03*
X0214765Y0379686D03*
X0197166Y0379686D03*
X0197166Y0374765D03*
X0171457Y0374765D03*
X0171457Y0379686D03*
X0153859Y0379686D03*
X0153859Y0374765D03*
X0153859Y0356064D03*
X0153859Y0351143D03*
X0171457Y0351143D03*
X0171457Y0356064D03*
X0171457Y0328505D03*
X0171457Y0323583D03*
X0153859Y0323583D03*
X0153859Y0328505D03*
X0128150Y0328505D03*
X0128150Y0323583D03*
X0110552Y0323583D03*
X0110552Y0328505D03*
X0110552Y0351143D03*
X0110552Y0356064D03*
X0128150Y0356064D03*
X0128150Y0351143D03*
X0128150Y0374765D03*
X0128150Y0379686D03*
X0110552Y0379686D03*
X0110552Y0374765D03*
X0084843Y0374765D03*
X0084843Y0379686D03*
X0067245Y0379686D03*
X0067245Y0374765D03*
X0067245Y0356064D03*
X0067245Y0351143D03*
X0084843Y0351143D03*
X0084843Y0356064D03*
X0084843Y0328505D03*
X0084843Y0323583D03*
X0067245Y0323583D03*
X0067245Y0328505D03*
X0041536Y0328505D03*
X0041536Y0323583D03*
X0023938Y0323583D03*
X0023938Y0328505D03*
X0023938Y0351143D03*
X0023938Y0356064D03*
X0041536Y0356064D03*
X0041536Y0351143D03*
X0041536Y0374765D03*
X0041536Y0379686D03*
X0023938Y0379686D03*
X0023938Y0374765D03*
X0023938Y0300946D03*
X0023938Y0296024D03*
X0041536Y0296024D03*
X0041536Y0300946D03*
X0067245Y0300946D03*
X0067245Y0296024D03*
X0084843Y0296024D03*
X0084843Y0300946D03*
X0110552Y0300946D03*
X0110552Y0296024D03*
X0128150Y0296024D03*
X0128150Y0300946D03*
X0153859Y0300946D03*
X0153859Y0296024D03*
X0171457Y0296024D03*
X0171457Y0300946D03*
X0197166Y0300946D03*
X0197166Y0296024D03*
X0214765Y0296024D03*
X0214765Y0300946D03*
X0240473Y0300946D03*
X0240473Y0296024D03*
X0258072Y0296024D03*
X0258072Y0300946D03*
X0283780Y0300946D03*
X0283780Y0296024D03*
X0301379Y0296024D03*
X0301379Y0300946D03*
X0323150Y0300946D03*
X0323150Y0296024D03*
X0340749Y0296024D03*
X0340749Y0300946D03*
X0362520Y0300946D03*
X0362520Y0296024D03*
X0380119Y0296024D03*
X0380119Y0300946D03*
X0380119Y0273387D03*
X0380119Y0268465D03*
X0362520Y0268465D03*
X0362520Y0273387D03*
X0340749Y0273387D03*
X0340749Y0268465D03*
X0323150Y0268465D03*
X0323150Y0273387D03*
X0301379Y0273387D03*
X0301379Y0268465D03*
X0283780Y0268465D03*
X0283780Y0273387D03*
X0258072Y0273387D03*
X0258072Y0268465D03*
X0240473Y0268465D03*
X0240473Y0273387D03*
X0214765Y0273387D03*
X0214765Y0268465D03*
X0197166Y0268465D03*
X0197166Y0273387D03*
X0171457Y0273387D03*
X0171457Y0268465D03*
X0153859Y0268465D03*
X0153859Y0273387D03*
X0128150Y0273387D03*
X0128150Y0268465D03*
X0110552Y0268465D03*
X0110552Y0273387D03*
X0084843Y0273387D03*
X0084843Y0268465D03*
X0067245Y0268465D03*
X0067245Y0273387D03*
X0041536Y0273387D03*
X0041536Y0268465D03*
X0023938Y0268465D03*
X0023938Y0273387D03*
X0023938Y0245828D03*
X0023938Y0240906D03*
X0041536Y0240906D03*
X0041536Y0245828D03*
X0067245Y0245828D03*
X0067245Y0240906D03*
X0084843Y0240906D03*
X0084843Y0245828D03*
X0110552Y0245828D03*
X0110552Y0240906D03*
X0128150Y0240906D03*
X0128150Y0245828D03*
X0153859Y0245828D03*
X0153859Y0240906D03*
X0171457Y0240906D03*
X0171457Y0245828D03*
X0197166Y0245828D03*
X0197166Y0240906D03*
X0214765Y0240906D03*
X0214765Y0245828D03*
X0240473Y0245828D03*
X0240473Y0240906D03*
X0258072Y0240906D03*
X0258072Y0245828D03*
X0283780Y0245828D03*
X0283780Y0240906D03*
X0301379Y0240906D03*
X0301379Y0245828D03*
X0323150Y0245828D03*
X0323150Y0240906D03*
X0340749Y0240906D03*
X0340749Y0245828D03*
X0362520Y0245828D03*
X0362520Y0240906D03*
X0380119Y0240906D03*
X0380119Y0245828D03*
X0380119Y0218269D03*
X0380119Y0213347D03*
X0362520Y0213347D03*
X0362520Y0218269D03*
X0340749Y0218269D03*
X0340749Y0213347D03*
X0323150Y0213347D03*
X0323150Y0218269D03*
X0301379Y0218269D03*
X0301379Y0213347D03*
X0283780Y0213347D03*
X0283780Y0218269D03*
X0258072Y0218269D03*
X0258072Y0213347D03*
X0240473Y0213347D03*
X0240473Y0218269D03*
X0214765Y0218269D03*
X0214765Y0213347D03*
X0197166Y0213347D03*
X0197166Y0218269D03*
X0171457Y0218269D03*
X0171457Y0213347D03*
X0153859Y0213347D03*
X0153859Y0218269D03*
X0128150Y0218269D03*
X0128150Y0213347D03*
X0110552Y0213347D03*
X0110552Y0218269D03*
X0084843Y0218269D03*
X0084843Y0213347D03*
X0067245Y0213347D03*
X0067245Y0218269D03*
X0041536Y0218269D03*
X0041536Y0213347D03*
X0023938Y0213347D03*
X0023938Y0218269D03*
X0023938Y0190709D03*
X0023938Y0185788D03*
X0041536Y0185788D03*
X0041536Y0190709D03*
X0067245Y0190709D03*
X0067245Y0185788D03*
X0084843Y0185788D03*
X0084843Y0190709D03*
X0110552Y0190709D03*
X0110552Y0185788D03*
X0128150Y0185788D03*
X0128150Y0190709D03*
X0153859Y0190709D03*
X0153859Y0185788D03*
X0171457Y0185788D03*
X0171457Y0190709D03*
X0197166Y0190709D03*
X0197166Y0185788D03*
X0214765Y0185788D03*
X0214765Y0190709D03*
X0240473Y0190709D03*
X0240473Y0185788D03*
X0258072Y0185788D03*
X0258072Y0190709D03*
X0283780Y0190709D03*
X0283780Y0185788D03*
X0301379Y0185788D03*
X0301379Y0190709D03*
X0323150Y0190709D03*
X0323150Y0185788D03*
X0340749Y0185788D03*
X0340749Y0190709D03*
X0362520Y0190709D03*
X0362520Y0185788D03*
X0380119Y0185788D03*
X0380119Y0190709D03*
X0380119Y0163150D03*
X0380119Y0158229D03*
X0362520Y0158229D03*
X0362520Y0163150D03*
X0340749Y0163150D03*
X0340749Y0158229D03*
X0323150Y0158229D03*
X0323150Y0163150D03*
X0301379Y0163150D03*
X0301379Y0158229D03*
X0283780Y0158229D03*
X0283780Y0163150D03*
X0258072Y0163150D03*
X0258072Y0158229D03*
X0240473Y0158229D03*
X0240473Y0163150D03*
X0214765Y0163150D03*
X0214765Y0158229D03*
X0197166Y0158229D03*
X0197166Y0163150D03*
X0171457Y0163150D03*
X0171457Y0158229D03*
X0153859Y0158229D03*
X0153859Y0163150D03*
X0128150Y0163150D03*
X0128150Y0158229D03*
X0110552Y0158229D03*
X0110552Y0163150D03*
X0084843Y0163150D03*
X0084843Y0158229D03*
X0067245Y0158229D03*
X0067245Y0163150D03*
X0041536Y0163150D03*
X0041536Y0158229D03*
X0023938Y0158229D03*
X0023938Y0163150D03*
X0023938Y0135591D03*
X0023938Y0130670D03*
X0041536Y0130670D03*
X0041536Y0135591D03*
X0067245Y0135591D03*
X0067245Y0130670D03*
X0084843Y0130670D03*
X0084843Y0135591D03*
X0110552Y0135591D03*
X0110552Y0130670D03*
X0128150Y0130670D03*
X0128150Y0135591D03*
X0153859Y0135591D03*
X0153859Y0130670D03*
X0171457Y0130670D03*
X0171457Y0135591D03*
X0197166Y0135591D03*
X0197166Y0130670D03*
X0214765Y0130670D03*
X0214765Y0135591D03*
X0240473Y0135591D03*
X0240473Y0130670D03*
X0258072Y0130670D03*
X0258072Y0135591D03*
X0283780Y0135591D03*
X0283780Y0130670D03*
X0301379Y0130670D03*
X0301379Y0135591D03*
X0323150Y0135591D03*
X0323150Y0130670D03*
X0340749Y0130670D03*
X0340749Y0135591D03*
X0362520Y0135591D03*
X0362520Y0130670D03*
X0380119Y0130670D03*
X0380119Y0135591D03*
X0380119Y0108032D03*
X0380119Y0103111D03*
X0362520Y0103111D03*
X0362520Y0108032D03*
X0340749Y0108032D03*
X0340749Y0103111D03*
X0323150Y0103111D03*
X0323150Y0108032D03*
X0301379Y0108032D03*
X0301379Y0103111D03*
X0283780Y0103111D03*
X0283780Y0108032D03*
X0258072Y0108032D03*
X0258072Y0103111D03*
X0240473Y0103111D03*
X0240473Y0108032D03*
X0214765Y0108032D03*
X0214765Y0103111D03*
X0197166Y0103111D03*
X0197166Y0108032D03*
X0171457Y0108032D03*
X0171457Y0103111D03*
X0153859Y0103111D03*
X0153859Y0108032D03*
X0128150Y0108032D03*
X0128150Y0103111D03*
X0110552Y0103111D03*
X0110552Y0108032D03*
X0084843Y0108032D03*
X0084843Y0103111D03*
X0067245Y0103111D03*
X0067245Y0108032D03*
X0041536Y0108032D03*
X0041536Y0103111D03*
X0023938Y0103111D03*
X0023938Y0108032D03*
X0023938Y0080473D03*
X0023938Y0075552D03*
X0041536Y0075552D03*
X0041536Y0080473D03*
X0067245Y0080473D03*
X0067245Y0075552D03*
X0084843Y0075552D03*
X0084843Y0080473D03*
X0110552Y0080473D03*
X0110552Y0075552D03*
X0128150Y0075552D03*
X0128150Y0080473D03*
X0153859Y0080473D03*
X0153859Y0075552D03*
X0171457Y0075552D03*
X0171457Y0080473D03*
X0197166Y0080473D03*
X0197166Y0075552D03*
X0214765Y0075552D03*
X0214765Y0080473D03*
X0240473Y0080473D03*
X0240473Y0075552D03*
X0258072Y0075552D03*
X0258072Y0080473D03*
X0283780Y0080473D03*
X0283780Y0075552D03*
X0301379Y0075552D03*
X0301379Y0080473D03*
X0323150Y0080473D03*
X0323150Y0075552D03*
X0340749Y0075552D03*
X0340749Y0080473D03*
X0362520Y0080473D03*
X0362520Y0075552D03*
X0380119Y0075552D03*
X0380119Y0080473D03*
X0380119Y0052914D03*
X0380119Y0047993D03*
X0362520Y0047993D03*
X0362520Y0052914D03*
X0340749Y0052914D03*
X0340749Y0047993D03*
X0323150Y0047993D03*
X0323150Y0052914D03*
X0301379Y0052914D03*
X0301379Y0047993D03*
X0283780Y0047993D03*
X0283780Y0052914D03*
X0258072Y0052914D03*
X0258072Y0047993D03*
X0240473Y0047993D03*
X0240473Y0052914D03*
X0214765Y0052914D03*
X0214765Y0047993D03*
X0197166Y0047993D03*
X0197166Y0052914D03*
X0171457Y0052914D03*
X0171457Y0047993D03*
X0153859Y0047993D03*
X0153859Y0052914D03*
X0128150Y0052914D03*
X0128150Y0047993D03*
X0110552Y0047993D03*
X0110552Y0052914D03*
X0084843Y0052914D03*
X0084843Y0047993D03*
X0067245Y0047993D03*
X0067245Y0052914D03*
X0041536Y0052914D03*
X0041536Y0047993D03*
X0023938Y0047993D03*
X0023938Y0052914D03*
X0023938Y0025355D03*
X0023938Y0020434D03*
X0041536Y0020434D03*
X0041536Y0025355D03*
X0067245Y0025355D03*
X0067245Y0020434D03*
X0084843Y0020434D03*
X0084843Y0025355D03*
X0110552Y0025355D03*
X0110552Y0020434D03*
X0128150Y0020434D03*
X0128150Y0025355D03*
X0153859Y0025355D03*
X0153859Y0020434D03*
X0171457Y0020434D03*
X0171457Y0025355D03*
X0197166Y0025355D03*
X0197166Y0020434D03*
X0214765Y0020434D03*
X0214765Y0025355D03*
X0240473Y0025355D03*
X0240473Y0020434D03*
X0258072Y0020434D03*
X0258072Y0025355D03*
X0283780Y0025355D03*
X0283780Y0020434D03*
X0301379Y0020434D03*
X0301379Y0025355D03*
X0323150Y0025355D03*
X0323150Y0020434D03*
X0340749Y0020434D03*
X0340749Y0025355D03*
X0362520Y0025355D03*
X0362520Y0020434D03*
X0380119Y0020434D03*
X0380119Y0025355D03*
D12*
X0375020Y0025769D03*
X0372461Y0025769D03*
X0369902Y0025769D03*
X0367343Y0025769D03*
X0367343Y0020060D03*
X0369902Y0020060D03*
X0372461Y0020060D03*
X0375020Y0020060D03*
X0375020Y0047619D03*
X0372461Y0047619D03*
X0369902Y0047619D03*
X0367343Y0047619D03*
X0367343Y0053328D03*
X0369902Y0053328D03*
X0372461Y0053328D03*
X0375020Y0053328D03*
X0375020Y0075178D03*
X0372461Y0075178D03*
X0369902Y0075178D03*
X0367343Y0075178D03*
X0367343Y0080887D03*
X0369902Y0080887D03*
X0372461Y0080887D03*
X0375020Y0080887D03*
X0375020Y0102737D03*
X0372461Y0102737D03*
X0369902Y0102737D03*
X0367343Y0102737D03*
X0367343Y0108446D03*
X0369902Y0108446D03*
X0372461Y0108446D03*
X0375020Y0108446D03*
X0375020Y0130296D03*
X0372461Y0130296D03*
X0369902Y0130296D03*
X0367343Y0130296D03*
X0367343Y0136005D03*
X0369902Y0136005D03*
X0372461Y0136005D03*
X0375020Y0136005D03*
X0375020Y0157855D03*
X0372461Y0157855D03*
X0369902Y0157855D03*
X0367343Y0157855D03*
X0367343Y0163564D03*
X0369902Y0163564D03*
X0372461Y0163564D03*
X0375020Y0163564D03*
X0375020Y0185414D03*
X0372461Y0185414D03*
X0369902Y0185414D03*
X0367343Y0185414D03*
X0367343Y0191123D03*
X0369902Y0191123D03*
X0372461Y0191123D03*
X0375020Y0191123D03*
X0375020Y0212973D03*
X0372461Y0212973D03*
X0369902Y0212973D03*
X0367343Y0212973D03*
X0367343Y0218682D03*
X0369902Y0218682D03*
X0372461Y0218682D03*
X0375020Y0218682D03*
X0375020Y0240532D03*
X0372461Y0240532D03*
X0369902Y0240532D03*
X0367343Y0240532D03*
X0367343Y0246241D03*
X0369902Y0246241D03*
X0372461Y0246241D03*
X0375020Y0246241D03*
X0375020Y0268091D03*
X0372461Y0268091D03*
X0369902Y0268091D03*
X0367343Y0268091D03*
X0367343Y0273800D03*
X0369902Y0273800D03*
X0372461Y0273800D03*
X0375020Y0273800D03*
X0375020Y0295650D03*
X0372461Y0295650D03*
X0369902Y0295650D03*
X0367343Y0295650D03*
X0367343Y0301359D03*
X0369902Y0301359D03*
X0372461Y0301359D03*
X0375020Y0301359D03*
X0375020Y0323209D03*
X0372461Y0323209D03*
X0369902Y0323209D03*
X0367343Y0323209D03*
X0367343Y0328918D03*
X0369902Y0328918D03*
X0372461Y0328918D03*
X0375020Y0328918D03*
X0375020Y0350769D03*
X0372461Y0350769D03*
X0369902Y0350769D03*
X0367343Y0350769D03*
X0367343Y0356477D03*
X0369902Y0356477D03*
X0372461Y0356477D03*
X0375020Y0356477D03*
X0375020Y0374391D03*
X0372461Y0374391D03*
X0369902Y0374391D03*
X0367343Y0374391D03*
X0367343Y0380099D03*
X0369902Y0380099D03*
X0372461Y0380099D03*
X0375020Y0380099D03*
X0335650Y0380099D03*
X0333091Y0380099D03*
X0330532Y0380099D03*
X0327973Y0380099D03*
X0327973Y0374391D03*
X0330532Y0374391D03*
X0333091Y0374391D03*
X0335650Y0374391D03*
X0335650Y0356477D03*
X0333091Y0356477D03*
X0330532Y0356477D03*
X0327973Y0356477D03*
X0327973Y0350769D03*
X0330532Y0350769D03*
X0333091Y0350769D03*
X0335650Y0350769D03*
X0335650Y0328918D03*
X0333091Y0328918D03*
X0330532Y0328918D03*
X0327973Y0328918D03*
X0327973Y0323209D03*
X0330532Y0323209D03*
X0333091Y0323209D03*
X0335650Y0323209D03*
X0335650Y0301359D03*
X0333091Y0301359D03*
X0330532Y0301359D03*
X0327973Y0301359D03*
X0327973Y0295650D03*
X0330532Y0295650D03*
X0333091Y0295650D03*
X0335650Y0295650D03*
X0335650Y0273800D03*
X0333091Y0273800D03*
X0330532Y0273800D03*
X0327973Y0273800D03*
X0327973Y0268091D03*
X0330532Y0268091D03*
X0333091Y0268091D03*
X0335650Y0268091D03*
X0335650Y0246241D03*
X0333091Y0246241D03*
X0330532Y0246241D03*
X0327973Y0246241D03*
X0327973Y0240532D03*
X0330532Y0240532D03*
X0333091Y0240532D03*
X0335650Y0240532D03*
X0335650Y0218682D03*
X0333091Y0218682D03*
X0330532Y0218682D03*
X0327973Y0218682D03*
X0327973Y0212973D03*
X0330532Y0212973D03*
X0333091Y0212973D03*
X0335650Y0212973D03*
X0335650Y0191123D03*
X0333091Y0191123D03*
X0330532Y0191123D03*
X0327973Y0191123D03*
X0327973Y0185414D03*
X0330532Y0185414D03*
X0333091Y0185414D03*
X0335650Y0185414D03*
X0335650Y0163564D03*
X0333091Y0163564D03*
X0330532Y0163564D03*
X0327973Y0163564D03*
X0327973Y0157855D03*
X0330532Y0157855D03*
X0333091Y0157855D03*
X0335650Y0157855D03*
X0335650Y0136005D03*
X0333091Y0136005D03*
X0330532Y0136005D03*
X0327973Y0136005D03*
X0327973Y0130296D03*
X0330532Y0130296D03*
X0333091Y0130296D03*
X0335650Y0130296D03*
X0335650Y0108446D03*
X0333091Y0108446D03*
X0330532Y0108446D03*
X0327973Y0108446D03*
X0327973Y0102737D03*
X0330532Y0102737D03*
X0333091Y0102737D03*
X0335650Y0102737D03*
X0335650Y0080887D03*
X0333091Y0080887D03*
X0330532Y0080887D03*
X0327973Y0080887D03*
X0327973Y0075178D03*
X0330532Y0075178D03*
X0333091Y0075178D03*
X0335650Y0075178D03*
X0335650Y0053328D03*
X0333091Y0053328D03*
X0330532Y0053328D03*
X0327973Y0053328D03*
X0327973Y0047619D03*
X0330532Y0047619D03*
X0333091Y0047619D03*
X0335650Y0047619D03*
X0335650Y0025769D03*
X0333091Y0025769D03*
X0330532Y0025769D03*
X0327973Y0025769D03*
X0327973Y0020060D03*
X0330532Y0020060D03*
X0333091Y0020060D03*
X0335650Y0020060D03*
X0296280Y0020060D03*
X0293721Y0020060D03*
X0291162Y0020060D03*
X0288603Y0020060D03*
X0288603Y0025769D03*
X0291162Y0025769D03*
X0293721Y0025769D03*
X0296280Y0025769D03*
X0296280Y0047619D03*
X0293721Y0047619D03*
X0291162Y0047619D03*
X0288603Y0047619D03*
X0288603Y0053328D03*
X0291162Y0053328D03*
X0293721Y0053328D03*
X0296280Y0053328D03*
X0296280Y0075178D03*
X0293721Y0075178D03*
X0291162Y0075178D03*
X0288603Y0075178D03*
X0288603Y0080887D03*
X0291162Y0080887D03*
X0293721Y0080887D03*
X0296280Y0080887D03*
X0296280Y0102737D03*
X0293721Y0102737D03*
X0291162Y0102737D03*
X0288603Y0102737D03*
X0288603Y0108446D03*
X0291162Y0108446D03*
X0293721Y0108446D03*
X0296280Y0108446D03*
X0296280Y0130296D03*
X0293721Y0130296D03*
X0291162Y0130296D03*
X0288603Y0130296D03*
X0288603Y0136005D03*
X0291162Y0136005D03*
X0293721Y0136005D03*
X0296280Y0136005D03*
X0296280Y0157855D03*
X0293721Y0157855D03*
X0291162Y0157855D03*
X0288603Y0157855D03*
X0288603Y0163564D03*
X0291162Y0163564D03*
X0293721Y0163564D03*
X0296280Y0163564D03*
X0296280Y0185414D03*
X0293721Y0185414D03*
X0291162Y0185414D03*
X0288603Y0185414D03*
X0288603Y0191123D03*
X0291162Y0191123D03*
X0293721Y0191123D03*
X0296280Y0191123D03*
X0296280Y0212973D03*
X0293721Y0212973D03*
X0291162Y0212973D03*
X0288603Y0212973D03*
X0288603Y0218682D03*
X0291162Y0218682D03*
X0293721Y0218682D03*
X0296280Y0218682D03*
X0296280Y0240532D03*
X0293721Y0240532D03*
X0291162Y0240532D03*
X0288603Y0240532D03*
X0288603Y0246241D03*
X0291162Y0246241D03*
X0293721Y0246241D03*
X0296280Y0246241D03*
X0296280Y0268091D03*
X0293721Y0268091D03*
X0291162Y0268091D03*
X0288603Y0268091D03*
X0288603Y0273800D03*
X0291162Y0273800D03*
X0293721Y0273800D03*
X0296280Y0273800D03*
X0296280Y0295650D03*
X0293721Y0295650D03*
X0291162Y0295650D03*
X0288603Y0295650D03*
X0288603Y0301359D03*
X0291162Y0301359D03*
X0293721Y0301359D03*
X0296280Y0301359D03*
X0296280Y0323209D03*
X0293721Y0323209D03*
X0291162Y0323209D03*
X0288603Y0323209D03*
X0288603Y0328918D03*
X0291162Y0328918D03*
X0293721Y0328918D03*
X0296280Y0328918D03*
X0296280Y0350769D03*
X0293721Y0350769D03*
X0291162Y0350769D03*
X0288603Y0350769D03*
X0288603Y0356477D03*
X0291162Y0356477D03*
X0293721Y0356477D03*
X0296280Y0356477D03*
X0296280Y0374391D03*
X0293721Y0374391D03*
X0291162Y0374391D03*
X0288603Y0374391D03*
X0288603Y0380099D03*
X0291162Y0380099D03*
X0293721Y0380099D03*
X0296280Y0380099D03*
X0252973Y0380099D03*
X0250414Y0380099D03*
X0247855Y0380099D03*
X0245296Y0380099D03*
X0245296Y0374391D03*
X0247855Y0374391D03*
X0250414Y0374391D03*
X0252973Y0374391D03*
X0252973Y0356477D03*
X0250414Y0356477D03*
X0247855Y0356477D03*
X0245296Y0356477D03*
X0245296Y0350769D03*
X0247855Y0350769D03*
X0250414Y0350769D03*
X0252973Y0350769D03*
X0252973Y0328918D03*
X0250414Y0328918D03*
X0247855Y0328918D03*
X0245296Y0328918D03*
X0245296Y0323209D03*
X0247855Y0323209D03*
X0250414Y0323209D03*
X0252973Y0323209D03*
X0252973Y0301359D03*
X0250414Y0301359D03*
X0247855Y0301359D03*
X0245296Y0301359D03*
X0245296Y0295650D03*
X0247855Y0295650D03*
X0250414Y0295650D03*
X0252973Y0295650D03*
X0252973Y0273800D03*
X0250414Y0273800D03*
X0247855Y0273800D03*
X0245296Y0273800D03*
X0245296Y0268091D03*
X0247855Y0268091D03*
X0250414Y0268091D03*
X0252973Y0268091D03*
X0252973Y0246241D03*
X0250414Y0246241D03*
X0247855Y0246241D03*
X0245296Y0246241D03*
X0245296Y0240532D03*
X0247855Y0240532D03*
X0250414Y0240532D03*
X0252973Y0240532D03*
X0252973Y0218682D03*
X0250414Y0218682D03*
X0247855Y0218682D03*
X0245296Y0218682D03*
X0245296Y0212973D03*
X0247855Y0212973D03*
X0250414Y0212973D03*
X0252973Y0212973D03*
X0252973Y0191123D03*
X0250414Y0191123D03*
X0247855Y0191123D03*
X0245296Y0191123D03*
X0245296Y0185414D03*
X0247855Y0185414D03*
X0250414Y0185414D03*
X0252973Y0185414D03*
X0252973Y0163564D03*
X0250414Y0163564D03*
X0247855Y0163564D03*
X0245296Y0163564D03*
X0245296Y0157855D03*
X0247855Y0157855D03*
X0250414Y0157855D03*
X0252973Y0157855D03*
X0252973Y0136005D03*
X0250414Y0136005D03*
X0247855Y0136005D03*
X0245296Y0136005D03*
X0245296Y0130296D03*
X0247855Y0130296D03*
X0250414Y0130296D03*
X0252973Y0130296D03*
X0252973Y0108446D03*
X0250414Y0108446D03*
X0247855Y0108446D03*
X0245296Y0108446D03*
X0245296Y0102737D03*
X0247855Y0102737D03*
X0250414Y0102737D03*
X0252973Y0102737D03*
X0252973Y0080887D03*
X0250414Y0080887D03*
X0247855Y0080887D03*
X0245296Y0080887D03*
X0245296Y0075178D03*
X0247855Y0075178D03*
X0250414Y0075178D03*
X0252973Y0075178D03*
X0252973Y0053328D03*
X0250414Y0053328D03*
X0247855Y0053328D03*
X0245296Y0053328D03*
X0245296Y0047619D03*
X0247855Y0047619D03*
X0250414Y0047619D03*
X0252973Y0047619D03*
X0252973Y0025769D03*
X0250414Y0025769D03*
X0247855Y0025769D03*
X0245296Y0025769D03*
X0245296Y0020060D03*
X0247855Y0020060D03*
X0250414Y0020060D03*
X0252973Y0020060D03*
X0209666Y0020060D03*
X0207107Y0020060D03*
X0204548Y0020060D03*
X0201989Y0020060D03*
X0201989Y0025769D03*
X0204548Y0025769D03*
X0207107Y0025769D03*
X0209666Y0025769D03*
X0209666Y0047619D03*
X0207107Y0047619D03*
X0204548Y0047619D03*
X0201989Y0047619D03*
X0201989Y0053328D03*
X0204548Y0053328D03*
X0207107Y0053328D03*
X0209666Y0053328D03*
X0209666Y0075178D03*
X0207107Y0075178D03*
X0204548Y0075178D03*
X0201989Y0075178D03*
X0201989Y0080887D03*
X0204548Y0080887D03*
X0207107Y0080887D03*
X0209666Y0080887D03*
X0209666Y0102737D03*
X0207107Y0102737D03*
X0204548Y0102737D03*
X0201989Y0102737D03*
X0201989Y0108446D03*
X0204548Y0108446D03*
X0207107Y0108446D03*
X0209666Y0108446D03*
X0209666Y0130296D03*
X0207107Y0130296D03*
X0204548Y0130296D03*
X0201989Y0130296D03*
X0201989Y0136005D03*
X0204548Y0136005D03*
X0207107Y0136005D03*
X0209666Y0136005D03*
X0209666Y0157855D03*
X0207107Y0157855D03*
X0204548Y0157855D03*
X0201989Y0157855D03*
X0201989Y0163564D03*
X0204548Y0163564D03*
X0207107Y0163564D03*
X0209666Y0163564D03*
X0209666Y0185414D03*
X0207107Y0185414D03*
X0204548Y0185414D03*
X0201989Y0185414D03*
X0201989Y0191123D03*
X0204548Y0191123D03*
X0207107Y0191123D03*
X0209666Y0191123D03*
X0209666Y0212973D03*
X0207107Y0212973D03*
X0204548Y0212973D03*
X0201989Y0212973D03*
X0201989Y0218682D03*
X0204548Y0218682D03*
X0207107Y0218682D03*
X0209666Y0218682D03*
X0209666Y0240532D03*
X0207107Y0240532D03*
X0204548Y0240532D03*
X0201989Y0240532D03*
X0201989Y0246241D03*
X0204548Y0246241D03*
X0207107Y0246241D03*
X0209666Y0246241D03*
X0209666Y0268091D03*
X0207107Y0268091D03*
X0204548Y0268091D03*
X0201989Y0268091D03*
X0201989Y0273800D03*
X0204548Y0273800D03*
X0207107Y0273800D03*
X0209666Y0273800D03*
X0209666Y0295650D03*
X0207107Y0295650D03*
X0204548Y0295650D03*
X0201989Y0295650D03*
X0201989Y0301359D03*
X0204548Y0301359D03*
X0207107Y0301359D03*
X0209666Y0301359D03*
X0209666Y0323209D03*
X0207107Y0323209D03*
X0204548Y0323209D03*
X0201989Y0323209D03*
X0201989Y0328918D03*
X0204548Y0328918D03*
X0207107Y0328918D03*
X0209666Y0328918D03*
X0209666Y0350769D03*
X0207107Y0350769D03*
X0204548Y0350769D03*
X0201989Y0350769D03*
X0201989Y0356477D03*
X0204548Y0356477D03*
X0207107Y0356477D03*
X0209666Y0356477D03*
X0209666Y0374391D03*
X0207107Y0374391D03*
X0204548Y0374391D03*
X0201989Y0374391D03*
X0201989Y0380099D03*
X0204548Y0380099D03*
X0207107Y0380099D03*
X0209666Y0380099D03*
X0166359Y0380099D03*
X0163800Y0380099D03*
X0161241Y0380099D03*
X0158682Y0380099D03*
X0158682Y0374391D03*
X0161241Y0374391D03*
X0163800Y0374391D03*
X0166359Y0374391D03*
X0166359Y0356477D03*
X0163800Y0356477D03*
X0161241Y0356477D03*
X0158682Y0356477D03*
X0158682Y0350769D03*
X0161241Y0350769D03*
X0163800Y0350769D03*
X0166359Y0350769D03*
X0166359Y0328918D03*
X0163800Y0328918D03*
X0161241Y0328918D03*
X0158682Y0328918D03*
X0158682Y0323209D03*
X0161241Y0323209D03*
X0163800Y0323209D03*
X0166359Y0323209D03*
X0166359Y0301359D03*
X0163800Y0301359D03*
X0161241Y0301359D03*
X0158682Y0301359D03*
X0158682Y0295650D03*
X0161241Y0295650D03*
X0163800Y0295650D03*
X0166359Y0295650D03*
X0166359Y0273800D03*
X0163800Y0273800D03*
X0161241Y0273800D03*
X0158682Y0273800D03*
X0158682Y0268091D03*
X0161241Y0268091D03*
X0163800Y0268091D03*
X0166359Y0268091D03*
X0166359Y0246241D03*
X0163800Y0246241D03*
X0161241Y0246241D03*
X0158682Y0246241D03*
X0158682Y0240532D03*
X0161241Y0240532D03*
X0163800Y0240532D03*
X0166359Y0240532D03*
X0166359Y0218682D03*
X0163800Y0218682D03*
X0161241Y0218682D03*
X0158682Y0218682D03*
X0158682Y0212973D03*
X0161241Y0212973D03*
X0163800Y0212973D03*
X0166359Y0212973D03*
X0166359Y0191123D03*
X0163800Y0191123D03*
X0161241Y0191123D03*
X0158682Y0191123D03*
X0158682Y0185414D03*
X0161241Y0185414D03*
X0163800Y0185414D03*
X0166359Y0185414D03*
X0166359Y0163564D03*
X0163800Y0163564D03*
X0161241Y0163564D03*
X0158682Y0163564D03*
X0158682Y0157855D03*
X0161241Y0157855D03*
X0163800Y0157855D03*
X0166359Y0157855D03*
X0166359Y0136005D03*
X0163800Y0136005D03*
X0161241Y0136005D03*
X0158682Y0136005D03*
X0158682Y0130296D03*
X0161241Y0130296D03*
X0163800Y0130296D03*
X0166359Y0130296D03*
X0166359Y0108446D03*
X0163800Y0108446D03*
X0161241Y0108446D03*
X0158682Y0108446D03*
X0158682Y0102737D03*
X0161241Y0102737D03*
X0163800Y0102737D03*
X0166359Y0102737D03*
X0166359Y0080887D03*
X0163800Y0080887D03*
X0161241Y0080887D03*
X0158682Y0080887D03*
X0158682Y0075178D03*
X0161241Y0075178D03*
X0163800Y0075178D03*
X0166359Y0075178D03*
X0166359Y0053328D03*
X0163800Y0053328D03*
X0161241Y0053328D03*
X0158682Y0053328D03*
X0158682Y0047619D03*
X0161241Y0047619D03*
X0163800Y0047619D03*
X0166359Y0047619D03*
X0166359Y0025769D03*
X0163800Y0025769D03*
X0161241Y0025769D03*
X0158682Y0025769D03*
X0158682Y0020060D03*
X0161241Y0020060D03*
X0163800Y0020060D03*
X0166359Y0020060D03*
X0123052Y0020060D03*
X0120493Y0020060D03*
X0117934Y0020060D03*
X0115375Y0020060D03*
X0115375Y0025769D03*
X0117934Y0025769D03*
X0120493Y0025769D03*
X0123052Y0025769D03*
X0123052Y0047619D03*
X0120493Y0047619D03*
X0117934Y0047619D03*
X0115375Y0047619D03*
X0115375Y0053328D03*
X0117934Y0053328D03*
X0120493Y0053328D03*
X0123052Y0053328D03*
X0123052Y0075178D03*
X0120493Y0075178D03*
X0117934Y0075178D03*
X0115375Y0075178D03*
X0115375Y0080887D03*
X0117934Y0080887D03*
X0120493Y0080887D03*
X0123052Y0080887D03*
X0123052Y0102737D03*
X0120493Y0102737D03*
X0117934Y0102737D03*
X0115375Y0102737D03*
X0115375Y0108446D03*
X0117934Y0108446D03*
X0120493Y0108446D03*
X0123052Y0108446D03*
X0123052Y0130296D03*
X0120493Y0130296D03*
X0117934Y0130296D03*
X0115375Y0130296D03*
X0115375Y0136005D03*
X0117934Y0136005D03*
X0120493Y0136005D03*
X0123052Y0136005D03*
X0123052Y0157855D03*
X0120493Y0157855D03*
X0117934Y0157855D03*
X0115375Y0157855D03*
X0115375Y0163564D03*
X0117934Y0163564D03*
X0120493Y0163564D03*
X0123052Y0163564D03*
X0123052Y0185414D03*
X0120493Y0185414D03*
X0117934Y0185414D03*
X0115375Y0185414D03*
X0115375Y0191123D03*
X0117934Y0191123D03*
X0120493Y0191123D03*
X0123052Y0191123D03*
X0123052Y0212973D03*
X0120493Y0212973D03*
X0117934Y0212973D03*
X0115375Y0212973D03*
X0115375Y0218682D03*
X0117934Y0218682D03*
X0120493Y0218682D03*
X0123052Y0218682D03*
X0123052Y0240532D03*
X0120493Y0240532D03*
X0117934Y0240532D03*
X0115375Y0240532D03*
X0115375Y0246241D03*
X0117934Y0246241D03*
X0120493Y0246241D03*
X0123052Y0246241D03*
X0123052Y0268091D03*
X0120493Y0268091D03*
X0117934Y0268091D03*
X0115375Y0268091D03*
X0115375Y0273800D03*
X0117934Y0273800D03*
X0120493Y0273800D03*
X0123052Y0273800D03*
X0123052Y0295650D03*
X0120493Y0295650D03*
X0117934Y0295650D03*
X0115375Y0295650D03*
X0115375Y0301359D03*
X0117934Y0301359D03*
X0120493Y0301359D03*
X0123052Y0301359D03*
X0123052Y0323209D03*
X0120493Y0323209D03*
X0117934Y0323209D03*
X0115375Y0323209D03*
X0115375Y0328918D03*
X0117934Y0328918D03*
X0120493Y0328918D03*
X0123052Y0328918D03*
X0123052Y0350769D03*
X0120493Y0350769D03*
X0117934Y0350769D03*
X0115375Y0350769D03*
X0115375Y0356477D03*
X0117934Y0356477D03*
X0120493Y0356477D03*
X0123052Y0356477D03*
X0123052Y0374391D03*
X0120493Y0374391D03*
X0117934Y0374391D03*
X0115375Y0374391D03*
X0115375Y0380099D03*
X0117934Y0380099D03*
X0120493Y0380099D03*
X0123052Y0380099D03*
X0079745Y0380099D03*
X0077186Y0380099D03*
X0074627Y0380099D03*
X0072068Y0380099D03*
X0072068Y0374391D03*
X0074627Y0374391D03*
X0077186Y0374391D03*
X0079745Y0374391D03*
X0079745Y0356477D03*
X0077186Y0356477D03*
X0074627Y0356477D03*
X0072068Y0356477D03*
X0072068Y0350769D03*
X0074627Y0350769D03*
X0077186Y0350769D03*
X0079745Y0350769D03*
X0079745Y0328918D03*
X0077186Y0328918D03*
X0074627Y0328918D03*
X0072068Y0328918D03*
X0072068Y0323209D03*
X0074627Y0323209D03*
X0077186Y0323209D03*
X0079745Y0323209D03*
X0079745Y0301359D03*
X0077186Y0301359D03*
X0074627Y0301359D03*
X0072068Y0301359D03*
X0072068Y0295650D03*
X0074627Y0295650D03*
X0077186Y0295650D03*
X0079745Y0295650D03*
X0079745Y0273800D03*
X0077186Y0273800D03*
X0074627Y0273800D03*
X0072068Y0273800D03*
X0072068Y0268091D03*
X0074627Y0268091D03*
X0077186Y0268091D03*
X0079745Y0268091D03*
X0079745Y0246241D03*
X0077186Y0246241D03*
X0074627Y0246241D03*
X0072068Y0246241D03*
X0072068Y0240532D03*
X0074627Y0240532D03*
X0077186Y0240532D03*
X0079745Y0240532D03*
X0079745Y0218682D03*
X0077186Y0218682D03*
X0074627Y0218682D03*
X0072068Y0218682D03*
X0072068Y0212973D03*
X0074627Y0212973D03*
X0077186Y0212973D03*
X0079745Y0212973D03*
X0079745Y0191123D03*
X0077186Y0191123D03*
X0074627Y0191123D03*
X0072068Y0191123D03*
X0072068Y0185414D03*
X0074627Y0185414D03*
X0077186Y0185414D03*
X0079745Y0185414D03*
X0079745Y0163564D03*
X0077186Y0163564D03*
X0074627Y0163564D03*
X0072068Y0163564D03*
X0072068Y0157855D03*
X0074627Y0157855D03*
X0077186Y0157855D03*
X0079745Y0157855D03*
X0079745Y0136005D03*
X0077186Y0136005D03*
X0074627Y0136005D03*
X0072068Y0136005D03*
X0072068Y0130296D03*
X0074627Y0130296D03*
X0077186Y0130296D03*
X0079745Y0130296D03*
X0079745Y0108446D03*
X0077186Y0108446D03*
X0074627Y0108446D03*
X0072068Y0108446D03*
X0072068Y0102737D03*
X0074627Y0102737D03*
X0077186Y0102737D03*
X0079745Y0102737D03*
X0079745Y0080887D03*
X0077186Y0080887D03*
X0074627Y0080887D03*
X0072068Y0080887D03*
X0072068Y0075178D03*
X0074627Y0075178D03*
X0077186Y0075178D03*
X0079745Y0075178D03*
X0079745Y0053328D03*
X0077186Y0053328D03*
X0074627Y0053328D03*
X0072068Y0053328D03*
X0072068Y0047619D03*
X0074627Y0047619D03*
X0077186Y0047619D03*
X0079745Y0047619D03*
X0079745Y0025769D03*
X0077186Y0025769D03*
X0074627Y0025769D03*
X0072068Y0025769D03*
X0072068Y0020060D03*
X0074627Y0020060D03*
X0077186Y0020060D03*
X0079745Y0020060D03*
X0036438Y0020060D03*
X0033879Y0020060D03*
X0031320Y0020060D03*
X0028761Y0020060D03*
X0028761Y0025769D03*
X0031320Y0025769D03*
X0033879Y0025769D03*
X0036438Y0025769D03*
X0036438Y0047619D03*
X0033879Y0047619D03*
X0031320Y0047619D03*
X0028761Y0047619D03*
X0028761Y0053328D03*
X0031320Y0053328D03*
X0033879Y0053328D03*
X0036438Y0053328D03*
X0036438Y0075178D03*
X0033879Y0075178D03*
X0031320Y0075178D03*
X0028761Y0075178D03*
X0028761Y0080887D03*
X0031320Y0080887D03*
X0033879Y0080887D03*
X0036438Y0080887D03*
X0036438Y0102737D03*
X0033879Y0102737D03*
X0031320Y0102737D03*
X0028761Y0102737D03*
X0028761Y0108446D03*
X0031320Y0108446D03*
X0033879Y0108446D03*
X0036438Y0108446D03*
X0036438Y0130296D03*
X0033879Y0130296D03*
X0031320Y0130296D03*
X0028761Y0130296D03*
X0028761Y0136005D03*
X0031320Y0136005D03*
X0033879Y0136005D03*
X0036438Y0136005D03*
X0036438Y0157855D03*
X0033879Y0157855D03*
X0031320Y0157855D03*
X0028761Y0157855D03*
X0028761Y0163564D03*
X0031320Y0163564D03*
X0033879Y0163564D03*
X0036438Y0163564D03*
X0036438Y0185414D03*
X0033879Y0185414D03*
X0031320Y0185414D03*
X0028761Y0185414D03*
X0028761Y0191123D03*
X0031320Y0191123D03*
X0033879Y0191123D03*
X0036438Y0191123D03*
X0036438Y0212973D03*
X0033879Y0212973D03*
X0031320Y0212973D03*
X0028761Y0212973D03*
X0028761Y0218682D03*
X0031320Y0218682D03*
X0033879Y0218682D03*
X0036438Y0218682D03*
X0036438Y0240532D03*
X0033879Y0240532D03*
X0031320Y0240532D03*
X0028761Y0240532D03*
X0028761Y0246241D03*
X0031320Y0246241D03*
X0033879Y0246241D03*
X0036438Y0246241D03*
X0036438Y0268091D03*
X0033879Y0268091D03*
X0031320Y0268091D03*
X0028761Y0268091D03*
X0028761Y0273800D03*
X0031320Y0273800D03*
X0033879Y0273800D03*
X0036438Y0273800D03*
X0036438Y0295650D03*
X0033879Y0295650D03*
X0031320Y0295650D03*
X0028761Y0295650D03*
X0028761Y0301359D03*
X0031320Y0301359D03*
X0033879Y0301359D03*
X0036438Y0301359D03*
X0036438Y0323209D03*
X0033879Y0323209D03*
X0031320Y0323209D03*
X0028761Y0323209D03*
X0028761Y0328918D03*
X0031320Y0328918D03*
X0033879Y0328918D03*
X0036438Y0328918D03*
X0036438Y0350769D03*
X0033879Y0350769D03*
X0031320Y0350769D03*
X0028761Y0350769D03*
X0028761Y0356477D03*
X0031320Y0356477D03*
X0033879Y0356477D03*
X0036438Y0356477D03*
X0036438Y0374391D03*
X0033879Y0374391D03*
X0031320Y0374391D03*
X0028761Y0374391D03*
X0028761Y0380099D03*
X0031320Y0380099D03*
X0033879Y0380099D03*
X0036438Y0380099D03*
D13*
X0036290Y0380099D03*
X0036290Y0356477D03*
X0036290Y0328918D03*
X0036290Y0301359D03*
X0036290Y0273800D03*
X0036290Y0246241D03*
X0036290Y0218682D03*
X0036290Y0191123D03*
X0036290Y0163564D03*
X0036290Y0136005D03*
X0036290Y0108446D03*
X0036290Y0080887D03*
X0036290Y0053328D03*
X0036290Y0025769D03*
X0079597Y0025769D03*
X0079597Y0053328D03*
X0079597Y0080887D03*
X0079597Y0108446D03*
X0079597Y0136005D03*
X0079597Y0163564D03*
X0079597Y0191123D03*
X0079597Y0218682D03*
X0079597Y0246241D03*
X0079597Y0273800D03*
X0079597Y0301359D03*
X0079597Y0328918D03*
X0079597Y0356477D03*
X0079597Y0380099D03*
X0122904Y0380099D03*
X0122904Y0356477D03*
X0122904Y0328918D03*
X0122904Y0301359D03*
X0122904Y0273800D03*
X0122904Y0246241D03*
X0122904Y0218682D03*
X0122904Y0191123D03*
X0122904Y0163564D03*
X0122904Y0136005D03*
X0122904Y0108446D03*
X0122904Y0080887D03*
X0122904Y0053328D03*
X0122904Y0025769D03*
X0166211Y0025769D03*
X0166211Y0053328D03*
X0166211Y0080887D03*
X0166211Y0108446D03*
X0166211Y0136005D03*
X0166211Y0163564D03*
X0166211Y0191123D03*
X0166211Y0218682D03*
X0166211Y0246241D03*
X0166211Y0273800D03*
X0166211Y0301359D03*
X0166211Y0328918D03*
X0166211Y0356477D03*
X0166211Y0380099D03*
X0209519Y0380099D03*
X0209519Y0356477D03*
X0209519Y0328918D03*
X0209519Y0301359D03*
X0209519Y0273800D03*
X0209519Y0246241D03*
X0209519Y0218682D03*
X0209519Y0191123D03*
X0209519Y0163564D03*
X0209519Y0136005D03*
X0209519Y0108446D03*
X0209519Y0080887D03*
X0209519Y0053328D03*
X0209519Y0025769D03*
X0252826Y0025769D03*
X0252826Y0053328D03*
X0252826Y0080887D03*
X0252826Y0108446D03*
X0252826Y0136005D03*
X0252826Y0163564D03*
X0252826Y0191123D03*
X0252826Y0218682D03*
X0252826Y0246241D03*
X0252826Y0273800D03*
X0252826Y0301359D03*
X0252826Y0328918D03*
X0252826Y0356477D03*
X0252826Y0380099D03*
X0296133Y0380099D03*
X0296133Y0356477D03*
X0296133Y0328918D03*
X0296133Y0301359D03*
X0296133Y0273800D03*
X0296133Y0246241D03*
X0296133Y0218682D03*
X0296133Y0191123D03*
X0296133Y0163564D03*
X0296133Y0136005D03*
X0296133Y0108446D03*
X0296133Y0080887D03*
X0296133Y0053328D03*
X0296133Y0025769D03*
X0335503Y0025769D03*
X0335503Y0053328D03*
X0335503Y0080887D03*
X0335503Y0108446D03*
X0335503Y0136005D03*
X0335503Y0163564D03*
X0335503Y0191123D03*
X0335503Y0218682D03*
X0335503Y0246241D03*
X0335503Y0273800D03*
X0335503Y0301359D03*
X0335503Y0328918D03*
X0335503Y0356477D03*
X0335503Y0380099D03*
X0374873Y0380099D03*
X0374873Y0356477D03*
X0374873Y0328918D03*
X0374873Y0301359D03*
X0374873Y0273800D03*
X0374873Y0246241D03*
X0374873Y0218682D03*
X0374873Y0191123D03*
X0374873Y0163564D03*
X0374873Y0136005D03*
X0374873Y0108446D03*
X0374873Y0080887D03*
X0374873Y0053328D03*
X0374873Y0025769D03*
D14*
X0375562Y0025916D03*
X0375562Y0053475D03*
X0375562Y0081034D03*
X0375562Y0108593D03*
X0375562Y0136152D03*
X0375562Y0163711D03*
X0375562Y0191270D03*
X0375562Y0218830D03*
X0375562Y0246389D03*
X0375562Y0273948D03*
X0375562Y0301507D03*
X0375562Y0329066D03*
X0375562Y0356625D03*
X0375562Y0380247D03*
X0336192Y0380247D03*
X0336192Y0356625D03*
X0336192Y0329066D03*
X0336192Y0301507D03*
X0336192Y0273948D03*
X0336192Y0246389D03*
X0336192Y0218830D03*
X0336192Y0191270D03*
X0336192Y0163711D03*
X0336192Y0136152D03*
X0336192Y0108593D03*
X0336192Y0081034D03*
X0336192Y0053475D03*
X0336192Y0025916D03*
X0296822Y0025916D03*
X0296822Y0053475D03*
X0296822Y0081034D03*
X0296822Y0108593D03*
X0296822Y0136152D03*
X0296822Y0163711D03*
X0296822Y0191270D03*
X0296822Y0218830D03*
X0296822Y0246389D03*
X0296822Y0273948D03*
X0296822Y0301507D03*
X0296822Y0329066D03*
X0296822Y0356625D03*
X0296822Y0380247D03*
X0253515Y0380247D03*
X0253515Y0356625D03*
X0253515Y0329066D03*
X0253515Y0301507D03*
X0253515Y0273948D03*
X0253515Y0246389D03*
X0253515Y0218830D03*
X0253515Y0191270D03*
X0253515Y0163711D03*
X0253515Y0136152D03*
X0253515Y0108593D03*
X0253515Y0081034D03*
X0253515Y0053475D03*
X0253515Y0025916D03*
X0210207Y0025916D03*
X0210207Y0053475D03*
X0210207Y0081034D03*
X0210207Y0108593D03*
X0210207Y0136152D03*
X0210207Y0163711D03*
X0210207Y0191270D03*
X0210207Y0218830D03*
X0210207Y0246389D03*
X0210207Y0273948D03*
X0210207Y0301507D03*
X0210207Y0329066D03*
X0210207Y0356625D03*
X0210207Y0380247D03*
X0166900Y0380247D03*
X0166900Y0356625D03*
X0166900Y0329066D03*
X0166900Y0301507D03*
X0166900Y0273948D03*
X0166900Y0246389D03*
X0166900Y0218830D03*
X0166900Y0191270D03*
X0166900Y0163711D03*
X0166900Y0136152D03*
X0166900Y0108593D03*
X0166900Y0081034D03*
X0166900Y0053475D03*
X0166900Y0025916D03*
X0123593Y0025916D03*
X0123593Y0053475D03*
X0123593Y0081034D03*
X0123593Y0108593D03*
X0123593Y0136152D03*
X0123593Y0163711D03*
X0123593Y0191270D03*
X0123593Y0218830D03*
X0123593Y0246389D03*
X0123593Y0273948D03*
X0123593Y0301507D03*
X0123593Y0329066D03*
X0123593Y0356625D03*
X0123593Y0380247D03*
X0080286Y0380247D03*
X0080286Y0356625D03*
X0080286Y0329066D03*
X0080286Y0301507D03*
X0080286Y0273948D03*
X0080286Y0246389D03*
X0080286Y0218830D03*
X0080286Y0191270D03*
X0080286Y0163711D03*
X0080286Y0136152D03*
X0080286Y0108593D03*
X0080286Y0081034D03*
X0080286Y0053475D03*
X0080286Y0025916D03*
X0036979Y0025916D03*
X0036979Y0053475D03*
X0036979Y0081034D03*
X0036979Y0108593D03*
X0036979Y0136152D03*
X0036979Y0163711D03*
X0036979Y0191270D03*
X0036979Y0218830D03*
X0036979Y0246389D03*
X0036979Y0273948D03*
X0036979Y0301507D03*
X0036979Y0329066D03*
X0036979Y0356625D03*
X0036979Y0380247D03*
M02*
