G75*
%MOIN*%
%OFA0B0*%
%FSLAX25Y25*%
%IPPOS*%
%LPD*%
%AMOC8*
5,1,8,0,0,1.08239X$1,22.5*
%
%ADD10C,0.03772*%
D10*
X0039686Y0032245D03*
X0039686Y0038166D03*
X0056284Y0038166D03*
X0056284Y0032245D03*
X0090867Y0032245D03*
X0090867Y0038166D03*
X0107465Y0038166D03*
X0107465Y0032245D03*
X0107465Y0067678D03*
X0107465Y0073599D03*
X0090867Y0073599D03*
X0090867Y0067678D03*
X0056284Y0067678D03*
X0056284Y0073599D03*
X0039686Y0073599D03*
X0039686Y0067678D03*
X0039686Y0103111D03*
X0039686Y0109032D03*
X0056284Y0109032D03*
X0056284Y0103111D03*
X0090867Y0103111D03*
X0090867Y0109032D03*
X0107465Y0109032D03*
X0107465Y0103111D03*
X0107465Y0138544D03*
X0107465Y0144465D03*
X0090867Y0144465D03*
X0090867Y0138544D03*
X0056284Y0138544D03*
X0056284Y0144465D03*
X0039686Y0144465D03*
X0039686Y0138544D03*
X0039686Y0173977D03*
X0039686Y0179898D03*
X0056284Y0179898D03*
X0056284Y0173977D03*
X0090867Y0173977D03*
X0090867Y0179898D03*
X0107465Y0179898D03*
X0107465Y0173977D03*
X0107465Y0209410D03*
X0107465Y0215331D03*
X0090867Y0215331D03*
X0090867Y0209410D03*
X0056284Y0209410D03*
X0056284Y0215331D03*
X0039686Y0215331D03*
X0039686Y0209410D03*
X0039686Y0244843D03*
X0039686Y0250765D03*
X0056284Y0250765D03*
X0056284Y0244843D03*
X0090867Y0244843D03*
X0090867Y0250765D03*
X0107465Y0250765D03*
X0107465Y0244843D03*
X0107465Y0280276D03*
X0107465Y0286198D03*
X0090867Y0286198D03*
X0090867Y0280276D03*
X0056284Y0280276D03*
X0056284Y0286198D03*
X0039686Y0286198D03*
X0039686Y0280276D03*
X0039686Y0319646D03*
X0039686Y0325568D03*
X0056284Y0325568D03*
X0056284Y0319646D03*
X0090867Y0319646D03*
X0090867Y0325568D03*
X0107465Y0325568D03*
X0107465Y0319646D03*
X0107465Y0355080D03*
X0107465Y0361001D03*
X0090867Y0361001D03*
X0090867Y0355080D03*
X0056284Y0355080D03*
X0056284Y0361001D03*
X0039686Y0361001D03*
X0039686Y0355080D03*
X0145985Y0355080D03*
X0145985Y0361001D03*
X0162583Y0361001D03*
X0162583Y0355080D03*
X0162583Y0325568D03*
X0162583Y0319646D03*
X0145985Y0319646D03*
X0145985Y0325568D03*
X0145985Y0286198D03*
X0145985Y0280276D03*
X0162583Y0280276D03*
X0162583Y0286198D03*
X0197166Y0286198D03*
X0197166Y0280276D03*
X0213765Y0280276D03*
X0213765Y0286198D03*
X0213765Y0319646D03*
X0213765Y0325568D03*
X0197166Y0325568D03*
X0197166Y0319646D03*
X0197166Y0355080D03*
X0197166Y0361001D03*
X0213765Y0361001D03*
X0213765Y0355080D03*
X0252284Y0355080D03*
X0252284Y0361001D03*
X0268883Y0361001D03*
X0268883Y0355080D03*
X0268883Y0325568D03*
X0268883Y0319646D03*
X0252284Y0319646D03*
X0252284Y0325568D03*
X0252284Y0286198D03*
X0252284Y0280276D03*
X0268883Y0280276D03*
X0268883Y0286198D03*
X0303465Y0286198D03*
X0303465Y0280276D03*
X0320064Y0280276D03*
X0320064Y0286198D03*
X0350709Y0286198D03*
X0350709Y0280276D03*
X0367308Y0280276D03*
X0367308Y0286198D03*
X0367308Y0319646D03*
X0367308Y0325568D03*
X0350709Y0325568D03*
X0350709Y0319646D03*
X0320064Y0319646D03*
X0320064Y0325568D03*
X0303465Y0325568D03*
X0303465Y0319646D03*
X0303465Y0355080D03*
X0303465Y0361001D03*
X0320064Y0361001D03*
X0320064Y0355080D03*
X0350709Y0355080D03*
X0350709Y0361001D03*
X0367308Y0361001D03*
X0367308Y0355080D03*
X0367308Y0250765D03*
X0367308Y0244843D03*
X0350709Y0244843D03*
X0350709Y0250765D03*
X0320064Y0250765D03*
X0320064Y0244843D03*
X0303465Y0244843D03*
X0303465Y0250765D03*
X0268883Y0250765D03*
X0268883Y0244843D03*
X0252284Y0244843D03*
X0252284Y0250765D03*
X0252284Y0215331D03*
X0252284Y0209410D03*
X0268883Y0209410D03*
X0268883Y0215331D03*
X0303465Y0215331D03*
X0303465Y0209410D03*
X0320064Y0209410D03*
X0320064Y0215331D03*
X0350709Y0215331D03*
X0350709Y0209410D03*
X0367308Y0209410D03*
X0367308Y0215331D03*
X0367308Y0179898D03*
X0367308Y0173977D03*
X0350709Y0173977D03*
X0350709Y0179898D03*
X0320064Y0179898D03*
X0320064Y0173977D03*
X0303465Y0173977D03*
X0303465Y0179898D03*
X0268883Y0179898D03*
X0268883Y0173977D03*
X0252284Y0173977D03*
X0252284Y0179898D03*
X0252284Y0144465D03*
X0252284Y0138544D03*
X0268883Y0138544D03*
X0268883Y0144465D03*
X0303465Y0144465D03*
X0303465Y0138544D03*
X0320064Y0138544D03*
X0320064Y0144465D03*
X0350709Y0144465D03*
X0350709Y0138544D03*
X0367308Y0138544D03*
X0367308Y0144465D03*
X0367308Y0109032D03*
X0367308Y0103111D03*
X0350709Y0103111D03*
X0350709Y0109032D03*
X0320064Y0109032D03*
X0320064Y0103111D03*
X0303465Y0103111D03*
X0303465Y0109032D03*
X0268883Y0109032D03*
X0268883Y0103111D03*
X0252284Y0103111D03*
X0252284Y0109032D03*
X0252284Y0073599D03*
X0252284Y0067678D03*
X0268883Y0067678D03*
X0268883Y0073599D03*
X0303465Y0073599D03*
X0303465Y0067678D03*
X0320064Y0067678D03*
X0320064Y0073599D03*
X0350709Y0073599D03*
X0350709Y0067678D03*
X0367308Y0067678D03*
X0367308Y0073599D03*
X0367308Y0038166D03*
X0367308Y0032245D03*
X0350709Y0032245D03*
X0350709Y0038166D03*
X0320064Y0038166D03*
X0320064Y0032245D03*
X0303465Y0032245D03*
X0303465Y0038166D03*
X0268883Y0038166D03*
X0268883Y0032245D03*
X0252284Y0032245D03*
X0252284Y0038166D03*
X0213765Y0038166D03*
X0213765Y0032245D03*
X0197166Y0032245D03*
X0197166Y0038166D03*
X0197166Y0067678D03*
X0197166Y0073599D03*
X0213765Y0073599D03*
X0213765Y0067678D03*
X0213765Y0103111D03*
X0213765Y0109032D03*
X0197166Y0109032D03*
X0197166Y0103111D03*
X0162583Y0103111D03*
X0162583Y0109032D03*
X0145985Y0109032D03*
X0145985Y0103111D03*
X0145985Y0073599D03*
X0145985Y0067678D03*
X0162583Y0067678D03*
X0162583Y0073599D03*
X0162583Y0038166D03*
X0162583Y0032245D03*
X0145985Y0032245D03*
X0145985Y0038166D03*
X0145985Y0138544D03*
X0145985Y0144465D03*
X0162583Y0144465D03*
X0162583Y0138544D03*
X0197166Y0138544D03*
X0197166Y0144465D03*
X0213765Y0144465D03*
X0213765Y0138544D03*
X0213765Y0173977D03*
X0213765Y0179898D03*
X0197166Y0179898D03*
X0197166Y0173977D03*
X0162583Y0173977D03*
X0162583Y0179898D03*
X0145985Y0179898D03*
X0145985Y0173977D03*
X0145985Y0209410D03*
X0145985Y0215331D03*
X0162583Y0215331D03*
X0162583Y0209410D03*
X0197166Y0209410D03*
X0197166Y0215331D03*
X0213765Y0215331D03*
X0213765Y0209410D03*
X0213765Y0244843D03*
X0213765Y0250765D03*
X0197166Y0250765D03*
X0197166Y0244843D03*
X0162583Y0244843D03*
X0162583Y0250765D03*
X0145985Y0250765D03*
X0145985Y0244843D03*
M02*
