G75*
%MOIN*%
%OFA0B0*%
%FSLAX25Y25*%
%IPPOS*%
%LPD*%
%AMOC8*
5,1,8,0,0,1.08239X$1,22.5*
%
%ADD10C,0.06406*%
%ADD11C,0.04500*%
%ADD12C,0.03869*%
%ADD13R,0.03500X0.11500*%
%ADD14C,0.03278*%
D10*
X0023048Y0011300D02*
X0028954Y0011300D01*
X0028954Y0021300D02*
X0023048Y0021300D01*
X0022048Y0110300D02*
X0027954Y0110300D01*
X0027954Y0120300D02*
X0022048Y0120300D01*
D11*
X0063001Y0130300D03*
X0068001Y0130300D03*
X0073001Y0130300D03*
X0078001Y0130300D03*
X0083001Y0130300D03*
X0088001Y0130300D03*
X0093001Y0130300D03*
X0098001Y0130300D03*
X0103001Y0130300D03*
X0108001Y0130300D03*
X0113001Y0130300D03*
X0118001Y0130300D03*
X0123001Y0130300D03*
X0128001Y0130300D03*
X0133001Y0130300D03*
X0138001Y0130300D03*
X0143001Y0130300D03*
X0148001Y0130300D03*
X0225501Y0105300D03*
X0225501Y0100300D03*
X0225501Y0095300D03*
X0225501Y0090300D03*
X0225501Y0085300D03*
X0225501Y0080300D03*
X0225501Y0075300D03*
X0225501Y0070300D03*
X0225501Y0065300D03*
X0225501Y0060300D03*
X0225501Y0055300D03*
X0225501Y0050300D03*
X0225501Y0045300D03*
X0225501Y0040300D03*
X0225501Y0035300D03*
X0225501Y0030300D03*
X0225501Y0025300D03*
X0225501Y0020300D03*
D12*
X0200001Y0017300D03*
X0191001Y0013800D03*
X0200001Y0010300D03*
X0191001Y0020800D03*
X0200001Y0024300D03*
X0191001Y0027800D03*
X0200001Y0031300D03*
X0191001Y0034800D03*
X0200001Y0038300D03*
X0191001Y0041800D03*
X0200001Y0045300D03*
X0191001Y0048800D03*
X0200001Y0052300D03*
X0191001Y0055800D03*
X0200001Y0059300D03*
X0191001Y0062800D03*
X0200001Y0066300D03*
X0191001Y0069800D03*
X0200001Y0073300D03*
X0191001Y0076800D03*
X0200001Y0080300D03*
X0191001Y0083800D03*
X0200001Y0087300D03*
X0191001Y0090800D03*
X0200001Y0094300D03*
X0191001Y0097800D03*
X0200001Y0101300D03*
X0191001Y0104800D03*
X0200001Y0108300D03*
X0191001Y0111800D03*
X0200001Y0115300D03*
X0191001Y0118800D03*
X0175001Y0050800D03*
X0180001Y0043800D03*
X0170001Y0043800D03*
X0165001Y0050800D03*
X0155001Y0050800D03*
X0145001Y0050800D03*
X0135001Y0050800D03*
X0140001Y0043800D03*
X0150001Y0043800D03*
X0160001Y0043800D03*
X0130001Y0043800D03*
X0120001Y0043800D03*
X0110001Y0043800D03*
X0100001Y0043800D03*
X0105001Y0050800D03*
X0115001Y0050800D03*
X0125001Y0050800D03*
X0095001Y0050800D03*
X0085001Y0050800D03*
X0075001Y0050800D03*
X0080001Y0043800D03*
X0090001Y0043800D03*
X0070001Y0043800D03*
X0065001Y0050800D03*
X0055001Y0050800D03*
X0045001Y0050800D03*
X0035001Y0050800D03*
X0040001Y0043800D03*
X0050001Y0043800D03*
X0060001Y0043800D03*
X0030001Y0043300D03*
X0025001Y0050800D03*
X0015001Y0064800D03*
X0010001Y0064800D03*
X0005501Y0064800D03*
X0005501Y0069800D03*
X0010001Y0069800D03*
X0015001Y0069800D03*
X0015001Y0074800D03*
X0010001Y0074800D03*
X0005501Y0074800D03*
X0005501Y0079800D03*
X0010001Y0079800D03*
X0015001Y0079800D03*
X0015001Y0084800D03*
X0010001Y0084800D03*
X0005501Y0084800D03*
D13*
X0063001Y0008800D03*
X0068001Y0008800D03*
X0073001Y0008800D03*
X0078001Y0008800D03*
X0083001Y0008800D03*
X0088001Y0008800D03*
X0093001Y0008800D03*
X0098001Y0008800D03*
X0103001Y0008800D03*
X0108001Y0008800D03*
X0113001Y0008800D03*
X0118001Y0008800D03*
X0123001Y0008800D03*
X0128001Y0008800D03*
X0133001Y0008800D03*
X0138001Y0008800D03*
X0143001Y0008800D03*
X0148001Y0008800D03*
D14*
X0160001Y0019300D03*
X0160001Y0024800D03*
X0050001Y0093300D03*
X0040001Y0093300D03*
X0030001Y0093300D03*
X0060001Y0093800D03*
X0070001Y0098800D03*
X0080001Y0093800D03*
X0090001Y0093800D03*
X0100001Y0093800D03*
X0110001Y0093800D03*
X0120001Y0098800D03*
X0130001Y0093800D03*
X0140001Y0093800D03*
X0150001Y0093800D03*
X0160001Y0093800D03*
X0170001Y0098800D03*
X0180001Y0093800D03*
X0163501Y0124300D03*
M02*
