G75*
%MOIN*%
%OFA0B0*%
%FSLAX25Y25*%
%IPPOS*%
%LPD*%
%AMOC8*
5,1,8,0,0,1.08239X$1,22.5*
%
%ADD10C,0.00200*%
%ADD11C,0.00400*%
%ADD12C,0.00300*%
%ADD13C,0.01000*%
%ADD14C,0.00600*%
%ADD15C,0.00800*%
%ADD16C,0.00500*%
D10*
X0005865Y0060000D02*
X0005498Y0060367D01*
X0005865Y0060000D02*
X0006599Y0060000D01*
X0006966Y0060367D01*
X0006966Y0060734D01*
X0006599Y0061101D01*
X0005865Y0061101D01*
X0005498Y0061468D01*
X0005498Y0061835D01*
X0005865Y0062202D01*
X0006599Y0062202D01*
X0006966Y0061835D01*
X0007708Y0062202D02*
X0009176Y0062202D01*
X0008442Y0062202D02*
X0008442Y0060000D01*
X0009918Y0060000D02*
X0010652Y0060000D01*
X0010285Y0060000D02*
X0010285Y0062202D01*
X0009918Y0062202D02*
X0010652Y0062202D01*
X0011391Y0062202D02*
X0012125Y0061468D01*
X0012859Y0062202D01*
X0012859Y0060000D01*
X0011391Y0060000D02*
X0011391Y0062202D01*
X0017199Y0066767D02*
X0017566Y0066400D01*
X0019034Y0066400D01*
X0019401Y0066767D01*
X0019401Y0067501D01*
X0019034Y0067868D01*
X0018300Y0067868D01*
X0018300Y0067134D01*
X0017566Y0067868D02*
X0017199Y0067501D01*
X0017199Y0066767D01*
X0017199Y0068610D02*
X0019401Y0070078D01*
X0017199Y0070078D01*
X0017199Y0070820D02*
X0017199Y0071921D01*
X0017566Y0072288D01*
X0019034Y0072288D01*
X0019401Y0071921D01*
X0019401Y0070820D01*
X0017199Y0070820D01*
X0017199Y0068610D02*
X0019401Y0068610D01*
X0019067Y0076770D02*
X0019067Y0077871D01*
X0018700Y0078238D01*
X0017966Y0078238D01*
X0017599Y0077871D01*
X0017599Y0076770D01*
X0019801Y0076770D01*
X0019067Y0077504D02*
X0019801Y0078238D01*
X0019801Y0078980D02*
X0017599Y0078980D01*
X0017599Y0080448D01*
X0017599Y0081190D02*
X0017599Y0082658D01*
X0018700Y0081924D02*
X0018700Y0081190D01*
X0019801Y0081190D02*
X0017599Y0081190D01*
X0018700Y0079714D02*
X0018700Y0078980D01*
X0019801Y0078980D02*
X0019801Y0080448D01*
X0011859Y0087867D02*
X0011492Y0087500D01*
X0010758Y0087500D01*
X0010391Y0087867D01*
X0010391Y0089335D01*
X0010758Y0089702D01*
X0011492Y0089702D01*
X0011859Y0089335D01*
X0009649Y0089702D02*
X0008181Y0089702D01*
X0008181Y0087500D01*
X0009649Y0087500D01*
X0008915Y0088601D02*
X0008181Y0088601D01*
X0007439Y0088601D02*
X0007072Y0088234D01*
X0005971Y0088234D01*
X0005971Y0087500D02*
X0005971Y0089702D01*
X0007072Y0089702D01*
X0007439Y0089335D01*
X0007439Y0088601D01*
X0006705Y0088234D02*
X0007439Y0087500D01*
D11*
X0012201Y0126500D02*
X0014002Y0126500D01*
X0014603Y0127101D01*
X0014603Y0129503D01*
X0014002Y0130103D01*
X0012201Y0130103D01*
X0012201Y0126500D01*
X0015884Y0127101D02*
X0016484Y0126500D01*
X0017685Y0126500D01*
X0018286Y0127101D01*
X0018286Y0130103D01*
X0019567Y0130103D02*
X0019567Y0126500D01*
X0019567Y0127701D02*
X0021969Y0130103D01*
X0023250Y0130103D02*
X0023250Y0126500D01*
X0025652Y0126500D01*
X0024451Y0128302D02*
X0023250Y0128302D01*
X0023250Y0130103D02*
X0025652Y0130103D01*
X0026933Y0128302D02*
X0029335Y0128302D01*
X0030617Y0127701D02*
X0032418Y0127701D01*
X0033019Y0128302D01*
X0033019Y0129503D01*
X0032418Y0130103D01*
X0030617Y0130103D01*
X0030617Y0126500D01*
X0031818Y0127701D02*
X0033019Y0126500D01*
X0034300Y0126500D02*
X0036702Y0126500D01*
X0037983Y0127101D02*
X0038583Y0126500D01*
X0039784Y0126500D01*
X0040385Y0127101D01*
X0037983Y0127101D02*
X0037983Y0129503D01*
X0038583Y0130103D01*
X0039784Y0130103D01*
X0040385Y0129503D01*
X0036702Y0130103D02*
X0034300Y0130103D01*
X0034300Y0126500D01*
X0034300Y0128302D02*
X0035501Y0128302D01*
X0021969Y0126500D02*
X0020168Y0128302D01*
X0015884Y0127101D02*
X0015884Y0130103D01*
X0016146Y0031603D02*
X0016146Y0028000D01*
X0016146Y0029201D02*
X0018549Y0031603D01*
X0019830Y0031603D02*
X0019830Y0028000D01*
X0022232Y0028000D01*
X0021031Y0029802D02*
X0019830Y0029802D01*
X0018549Y0028000D02*
X0016747Y0029802D01*
X0014865Y0028601D02*
X0014265Y0028000D01*
X0013064Y0028000D01*
X0012463Y0028601D01*
X0012463Y0031603D01*
X0011182Y0031003D02*
X0010582Y0031603D01*
X0008780Y0031603D01*
X0008780Y0028000D01*
X0010582Y0028000D01*
X0011182Y0028601D01*
X0011182Y0031003D01*
X0014865Y0031603D02*
X0014865Y0028601D01*
X0019830Y0031603D02*
X0022232Y0031603D01*
X0023513Y0029802D02*
X0025915Y0029802D01*
X0027196Y0030402D02*
X0027796Y0029802D01*
X0028997Y0029802D01*
X0029598Y0029201D01*
X0029598Y0028601D01*
X0028997Y0028000D01*
X0027796Y0028000D01*
X0027196Y0028601D01*
X0027196Y0030402D02*
X0027196Y0031003D01*
X0027796Y0031603D01*
X0028997Y0031603D01*
X0029598Y0031003D01*
X0030879Y0031603D02*
X0033281Y0031603D01*
X0032080Y0031603D02*
X0032080Y0028000D01*
X0034562Y0028000D02*
X0035763Y0028000D01*
X0035163Y0028000D02*
X0035163Y0031603D01*
X0035763Y0031603D02*
X0034562Y0031603D01*
X0037018Y0031603D02*
X0038219Y0030402D01*
X0039420Y0031603D01*
X0039420Y0028000D01*
X0037018Y0028000D02*
X0037018Y0031603D01*
X0209201Y0119867D02*
X0210068Y0119000D01*
X0211803Y0119000D01*
X0212670Y0119867D01*
X0214357Y0119000D02*
X0217827Y0119000D01*
X0219514Y0119000D02*
X0219514Y0124204D01*
X0222116Y0124204D01*
X0222983Y0123337D01*
X0222983Y0121602D01*
X0222116Y0120735D01*
X0219514Y0120735D01*
X0221248Y0120735D02*
X0222983Y0119000D01*
X0224670Y0119000D02*
X0228140Y0119000D01*
X0226405Y0121602D02*
X0224670Y0121602D01*
X0224670Y0124204D02*
X0224670Y0119000D01*
X0224670Y0124204D02*
X0228140Y0124204D01*
X0217827Y0124204D02*
X0214357Y0124204D01*
X0214357Y0119000D01*
X0214357Y0121602D02*
X0216092Y0121602D01*
X0212670Y0123337D02*
X0211803Y0124204D01*
X0210068Y0124204D01*
X0209201Y0123337D01*
X0209201Y0119867D01*
D12*
X0210151Y0111650D02*
X0210151Y0108514D01*
X0210151Y0110082D02*
X0214855Y0110082D01*
X0213287Y0111650D01*
X0221151Y0111650D02*
X0221151Y0108514D01*
X0224287Y0108514D02*
X0225071Y0108514D01*
X0225855Y0109298D01*
X0225855Y0110866D01*
X0225071Y0111650D01*
X0224287Y0108514D02*
X0221151Y0111650D01*
X0172686Y0094869D02*
X0172686Y0092934D01*
X0172202Y0092450D01*
X0171235Y0092450D01*
X0170751Y0092934D01*
X0172686Y0094869D01*
X0172202Y0095352D01*
X0171235Y0095352D01*
X0170751Y0094869D01*
X0170751Y0092934D01*
X0169739Y0092934D02*
X0169256Y0092450D01*
X0168288Y0092450D01*
X0167804Y0092934D01*
X0168772Y0093901D02*
X0169256Y0093901D01*
X0169739Y0093417D01*
X0169739Y0092934D01*
X0169256Y0093901D02*
X0169739Y0094385D01*
X0169739Y0094869D01*
X0169256Y0095352D01*
X0168288Y0095352D01*
X0167804Y0094869D01*
X0147686Y0095352D02*
X0145751Y0095352D01*
X0145751Y0093901D01*
X0146718Y0094385D01*
X0147202Y0094385D01*
X0147686Y0093901D01*
X0147686Y0092934D01*
X0147202Y0092450D01*
X0146235Y0092450D01*
X0145751Y0092934D01*
X0144739Y0092450D02*
X0142804Y0092450D01*
X0144739Y0094385D01*
X0144739Y0094869D01*
X0144256Y0095352D01*
X0143288Y0095352D01*
X0142804Y0094869D01*
X0122686Y0094869D02*
X0122686Y0092934D01*
X0122202Y0092450D01*
X0121235Y0092450D01*
X0120751Y0092934D01*
X0122686Y0094869D01*
X0122202Y0095352D01*
X0121235Y0095352D01*
X0120751Y0094869D01*
X0120751Y0092934D01*
X0119739Y0092450D02*
X0117804Y0092450D01*
X0119739Y0094385D01*
X0119739Y0094869D01*
X0119256Y0095352D01*
X0118288Y0095352D01*
X0117804Y0094869D01*
X0097686Y0095352D02*
X0095751Y0095352D01*
X0095751Y0093901D01*
X0096718Y0094385D01*
X0097202Y0094385D01*
X0097686Y0093901D01*
X0097686Y0092934D01*
X0097202Y0092450D01*
X0096235Y0092450D01*
X0095751Y0092934D01*
X0094739Y0092450D02*
X0092804Y0092450D01*
X0093772Y0092450D02*
X0093772Y0095352D01*
X0092804Y0094385D01*
X0072686Y0094869D02*
X0072686Y0092934D01*
X0072202Y0092450D01*
X0071235Y0092450D01*
X0070751Y0092934D01*
X0072686Y0094869D01*
X0072202Y0095352D01*
X0071235Y0095352D01*
X0070751Y0094869D01*
X0070751Y0092934D01*
X0069739Y0092450D02*
X0067804Y0092450D01*
X0068772Y0092450D02*
X0068772Y0095352D01*
X0067804Y0094385D01*
X0046239Y0093901D02*
X0046239Y0092934D01*
X0045756Y0092450D01*
X0044788Y0092450D01*
X0044304Y0092934D01*
X0044304Y0093901D02*
X0045272Y0094385D01*
X0045756Y0094385D01*
X0046239Y0093901D01*
X0046239Y0095352D02*
X0044304Y0095352D01*
X0044304Y0093901D01*
X0026239Y0092450D02*
X0024304Y0092450D01*
X0025272Y0092450D02*
X0025272Y0095352D01*
X0024304Y0094385D01*
X0056651Y0114950D02*
X0059787Y0114950D01*
X0058219Y0114950D02*
X0058219Y0119654D01*
X0056651Y0118086D01*
X0056651Y0125950D02*
X0059787Y0129086D01*
X0059787Y0129870D01*
X0059003Y0130654D01*
X0057435Y0130654D01*
X0056651Y0129870D01*
X0056651Y0125950D02*
X0059787Y0125950D01*
X0042551Y0123955D02*
X0042551Y0122503D01*
X0039648Y0122503D01*
X0039648Y0123955D01*
X0040132Y0124438D01*
X0042067Y0124438D01*
X0042551Y0123955D01*
X0042551Y0121492D02*
X0039648Y0121492D01*
X0039648Y0119557D02*
X0042551Y0121492D01*
X0042551Y0119557D02*
X0039648Y0119557D01*
X0040132Y0118545D02*
X0039648Y0118062D01*
X0039648Y0117094D01*
X0040132Y0116610D01*
X0042067Y0116610D01*
X0042551Y0117094D01*
X0042551Y0118062D01*
X0042067Y0118545D01*
X0041100Y0118545D01*
X0041100Y0117578D01*
X0150151Y0118870D02*
X0150935Y0119654D01*
X0152503Y0119654D01*
X0153287Y0118870D01*
X0153287Y0118086D01*
X0152503Y0117302D01*
X0153287Y0116518D01*
X0153287Y0115734D01*
X0152503Y0114950D01*
X0150935Y0114950D01*
X0150151Y0115734D01*
X0151719Y0117302D02*
X0152503Y0117302D01*
X0154755Y0117302D02*
X0156323Y0118086D01*
X0157107Y0118086D01*
X0157891Y0117302D01*
X0157891Y0115734D01*
X0157107Y0114950D01*
X0155539Y0114950D01*
X0154755Y0115734D01*
X0154755Y0117302D02*
X0154755Y0119654D01*
X0157891Y0119654D01*
X0157107Y0125950D02*
X0155539Y0125950D01*
X0154755Y0126734D01*
X0154755Y0128302D01*
X0157107Y0128302D01*
X0157891Y0127518D01*
X0157891Y0126734D01*
X0157107Y0125950D01*
X0154755Y0128302D02*
X0156323Y0129870D01*
X0157891Y0130654D01*
X0153287Y0129870D02*
X0153287Y0129086D01*
X0152503Y0128302D01*
X0153287Y0127518D01*
X0153287Y0126734D01*
X0152503Y0125950D01*
X0150935Y0125950D01*
X0150151Y0126734D01*
X0151719Y0128302D02*
X0152503Y0128302D01*
X0153287Y0129870D02*
X0152503Y0130654D01*
X0150935Y0130654D01*
X0150151Y0129870D01*
X0043551Y0023955D02*
X0043067Y0024438D01*
X0041132Y0024438D01*
X0040648Y0023955D01*
X0040648Y0022503D01*
X0043551Y0022503D01*
X0043551Y0023955D01*
X0043551Y0021492D02*
X0040648Y0021492D01*
X0040648Y0019557D02*
X0043551Y0021492D01*
X0043551Y0019557D02*
X0040648Y0019557D01*
X0041132Y0018545D02*
X0040648Y0018062D01*
X0040648Y0017094D01*
X0041132Y0016610D01*
X0043067Y0016610D01*
X0043551Y0017094D01*
X0043551Y0018062D01*
X0043067Y0018545D01*
X0042100Y0018545D01*
X0042100Y0017578D01*
X0054151Y0009586D02*
X0055719Y0011154D01*
X0055719Y0006450D01*
X0054151Y0006450D02*
X0057287Y0006450D01*
X0152651Y0007234D02*
X0153435Y0006450D01*
X0155003Y0006450D01*
X0155787Y0007234D01*
X0155787Y0008018D01*
X0155003Y0008802D01*
X0154219Y0008802D01*
X0155003Y0008802D02*
X0155787Y0009586D01*
X0155787Y0010370D01*
X0155003Y0011154D01*
X0153435Y0011154D01*
X0152651Y0010370D01*
X0157255Y0011154D02*
X0157255Y0008802D01*
X0158823Y0009586D01*
X0159607Y0009586D01*
X0160391Y0008802D01*
X0160391Y0007234D01*
X0159607Y0006450D01*
X0158039Y0006450D01*
X0157255Y0007234D01*
X0157255Y0011154D02*
X0160391Y0011154D01*
X0210151Y0011194D02*
X0210935Y0010410D01*
X0212503Y0010410D01*
X0213287Y0011194D01*
X0213287Y0011978D01*
X0212503Y0013546D01*
X0214855Y0013546D01*
X0214855Y0010410D01*
X0210151Y0011194D02*
X0210151Y0012762D01*
X0210935Y0013546D01*
X0210935Y0015014D02*
X0210151Y0015798D01*
X0210151Y0017366D01*
X0210935Y0018150D01*
X0212503Y0016582D02*
X0212503Y0015798D01*
X0211719Y0015014D01*
X0210935Y0015014D01*
X0212503Y0015798D02*
X0213287Y0015014D01*
X0214071Y0015014D01*
X0214855Y0015798D01*
X0214855Y0017366D01*
X0214071Y0018150D01*
X0221151Y0017366D02*
X0221151Y0015798D01*
X0221935Y0015014D01*
X0222719Y0015014D01*
X0223503Y0015798D01*
X0223503Y0016582D01*
X0223503Y0015798D02*
X0224287Y0015014D01*
X0225071Y0015014D01*
X0225855Y0015798D01*
X0225855Y0017366D01*
X0225071Y0018150D01*
X0221935Y0018150D02*
X0221151Y0017366D01*
X0221935Y0013546D02*
X0221151Y0012762D01*
X0221151Y0011194D01*
X0221935Y0010410D01*
X0222719Y0010410D01*
X0223503Y0011194D01*
X0223503Y0013546D01*
X0221935Y0013546D01*
X0223503Y0013546D02*
X0225071Y0011978D01*
X0225855Y0010410D01*
D13*
X0013501Y0006300D02*
X0013501Y0026300D01*
X0031001Y0026300D01*
X0031001Y0006300D01*
X0013501Y0006300D01*
X0031001Y0006300D02*
X0038501Y0006300D01*
X0038501Y0026300D01*
X0031001Y0026300D01*
X0030001Y0105300D02*
X0012501Y0105300D01*
X0012501Y0125300D01*
X0030001Y0125300D01*
X0030001Y0105300D01*
X0037501Y0105300D01*
X0037501Y0125300D01*
X0030001Y0125300D01*
D14*
X0060501Y0127000D02*
X0060501Y0123600D01*
X0022501Y0082100D02*
X0182401Y0082300D01*
X0218801Y0107800D02*
X0222201Y0107800D01*
X0221782Y0112800D02*
X0220114Y0112800D01*
X0220948Y0112800D02*
X0220948Y0117804D01*
X0220114Y0117804D02*
X0221782Y0117804D01*
X0223551Y0117804D02*
X0225219Y0116136D01*
X0226887Y0117804D01*
X0226887Y0112800D01*
X0223551Y0112800D02*
X0223551Y0117804D01*
X0218293Y0117804D02*
X0214957Y0117804D01*
X0216625Y0117804D02*
X0216625Y0112800D01*
X0213137Y0113634D02*
X0212303Y0112800D01*
X0210635Y0112800D01*
X0209801Y0113634D01*
X0210635Y0115302D02*
X0212303Y0115302D01*
X0213137Y0114468D01*
X0213137Y0113634D01*
X0210635Y0115302D02*
X0209801Y0116136D01*
X0209801Y0116970D01*
X0210635Y0117804D01*
X0212303Y0117804D01*
X0213137Y0116970D01*
X0150501Y0123600D02*
X0150501Y0127000D01*
X0022501Y0082100D02*
X0022501Y0068500D01*
X0022501Y0073600D02*
X0022501Y0077000D01*
X0218801Y0017800D02*
X0222201Y0017800D01*
D15*
X0128142Y0015500D02*
X0123204Y0015500D01*
X0123204Y0022906D01*
X0128142Y0022906D01*
X0125673Y0019203D02*
X0123204Y0019203D01*
X0120591Y0019203D02*
X0118123Y0019203D01*
X0120591Y0019203D02*
X0120591Y0016734D01*
X0119357Y0015500D01*
X0116888Y0015500D01*
X0115654Y0016734D01*
X0115654Y0021672D01*
X0116888Y0022906D01*
X0119357Y0022906D01*
X0120591Y0021672D01*
X0113041Y0020438D02*
X0113041Y0015500D01*
X0108103Y0015500D02*
X0108103Y0020438D01*
X0110572Y0022906D01*
X0113041Y0020438D01*
X0113041Y0019203D02*
X0108103Y0019203D01*
X0105491Y0022906D02*
X0100553Y0022906D01*
X0103022Y0022906D02*
X0103022Y0015500D01*
X0097940Y0016734D02*
X0097940Y0017969D01*
X0096706Y0019203D01*
X0094237Y0019203D01*
X0093003Y0020438D01*
X0093003Y0021672D01*
X0094237Y0022906D01*
X0096706Y0022906D01*
X0097940Y0021672D01*
X0097940Y0016734D02*
X0096706Y0015500D01*
X0094237Y0015500D01*
X0093003Y0016734D01*
X0090390Y0016734D02*
X0089155Y0015500D01*
X0085452Y0015500D01*
X0085452Y0022906D01*
X0089155Y0022906D01*
X0090390Y0021672D01*
X0090390Y0016734D01*
X0082839Y0015500D02*
X0082839Y0020438D01*
X0080370Y0022906D01*
X0077902Y0020438D01*
X0077902Y0015500D01*
X0075289Y0015500D02*
X0070351Y0015500D01*
X0070351Y0022906D01*
X0075289Y0022906D01*
X0072820Y0019203D02*
X0070351Y0019203D01*
X0067738Y0019203D02*
X0062801Y0019203D01*
X0062801Y0015500D02*
X0062801Y0022906D01*
X0067738Y0022906D02*
X0067738Y0015500D01*
X0077902Y0019203D02*
X0082839Y0019203D01*
X0083052Y0103400D02*
X0083052Y0110806D01*
X0087990Y0110806D01*
X0090603Y0110806D02*
X0090603Y0103400D01*
X0095540Y0103400D01*
X0098153Y0103400D02*
X0098153Y0110806D01*
X0101856Y0110806D01*
X0103091Y0109572D01*
X0103091Y0107103D01*
X0101856Y0105869D01*
X0098153Y0105869D01*
X0100622Y0105869D02*
X0103091Y0103400D01*
X0093071Y0107103D02*
X0090603Y0107103D01*
X0085521Y0107103D02*
X0083052Y0107103D01*
X0077970Y0107103D02*
X0075502Y0107103D01*
X0072889Y0104634D02*
X0072889Y0110806D01*
X0075502Y0110806D02*
X0080439Y0110806D01*
X0075502Y0110806D02*
X0075502Y0103400D01*
X0072889Y0104634D02*
X0071654Y0103400D01*
X0069186Y0103400D01*
X0067951Y0104634D01*
X0067951Y0110806D01*
X0065338Y0109572D02*
X0065338Y0108338D01*
X0064104Y0107103D01*
X0060401Y0107103D01*
X0064104Y0107103D02*
X0065338Y0105869D01*
X0065338Y0104634D01*
X0064104Y0103400D01*
X0060401Y0103400D01*
X0060401Y0110806D01*
X0064104Y0110806D01*
X0065338Y0109572D01*
X0090603Y0110806D02*
X0095540Y0110806D01*
D16*
X0022501Y0068300D02*
X0182501Y0068300D01*
X0182501Y0082400D01*
M02*
