G75*
%MOIN*%
%OFA0B0*%
%FSLAX25Y25*%
%IPPOS*%
%LPD*%
%AMOC8*
5,1,8,0,0,1.08239X$1,22.5*
%
%ADD10C,0.00600*%
%ADD11C,0.03772*%
%ADD12R,0.00984X0.01083*%
%ADD13R,0.01083X0.00984*%
%ADD14C,0.02978*%
D10*
X0001300Y0001300D02*
X0395001Y0001300D01*
X0395001Y0395001D01*
X0001300Y0395001D01*
X0001300Y0001300D01*
X0024135Y0024076D02*
X0026497Y0026497D01*
X0027826Y0026497D01*
X0027856Y0026466D01*
X0028841Y0026466D01*
X0029843Y0025463D01*
X0030434Y0027727D01*
X0031812Y0031467D01*
X0032915Y0029857D02*
X0033253Y0029857D01*
X0033830Y0030434D01*
X0032915Y0029857D02*
X0032388Y0029330D01*
X0032009Y0028300D01*
X0032009Y0027875D01*
X0033387Y0026497D01*
X0033830Y0026497D01*
X0035404Y0026497D01*
X0037914Y0028465D01*
X0035158Y0029056D02*
X0035749Y0030434D01*
X0037717Y0032914D01*
X0037717Y0032944D01*
X0035158Y0029056D02*
X0033830Y0028465D01*
X0032058Y0025463D02*
X0033387Y0024135D01*
X0035355Y0024135D01*
X0037757Y0024095D01*
X0032058Y0025463D02*
X0031812Y0025463D01*
X0028841Y0026466D02*
X0028810Y0026497D01*
X0027826Y0026497D01*
X0027826Y0028465D02*
X0022166Y0028465D01*
X0024253Y0032914D02*
X0024725Y0032993D01*
X0028465Y0032993D01*
X0029843Y0031615D01*
X0029843Y0031467D01*
X0027826Y0030434D02*
X0027826Y0028465D01*
X0024135Y0055572D02*
X0026497Y0057993D01*
X0027826Y0057993D01*
X0027856Y0057962D01*
X0028841Y0057962D01*
X0029843Y0056959D01*
X0030434Y0059223D01*
X0031812Y0062963D01*
X0032915Y0061354D02*
X0033253Y0061354D01*
X0033830Y0061930D01*
X0032915Y0061354D02*
X0032388Y0060826D01*
X0032009Y0059796D01*
X0032009Y0059371D01*
X0033387Y0057993D01*
X0033830Y0057993D01*
X0035404Y0057993D01*
X0037914Y0059961D01*
X0035158Y0060552D02*
X0035749Y0061930D01*
X0037717Y0064410D01*
X0037717Y0064440D01*
X0035158Y0060552D02*
X0033830Y0059961D01*
X0032058Y0056959D02*
X0033387Y0055631D01*
X0035355Y0055631D01*
X0037757Y0055591D01*
X0032058Y0056959D02*
X0031812Y0056959D01*
X0028841Y0057962D02*
X0028810Y0057993D01*
X0027826Y0057993D01*
X0027826Y0059961D02*
X0022166Y0059961D01*
X0024253Y0064410D02*
X0024725Y0064489D01*
X0028465Y0064489D01*
X0029843Y0063111D01*
X0029843Y0062963D01*
X0027826Y0061930D02*
X0027826Y0059961D01*
X0024135Y0087068D02*
X0026497Y0089489D01*
X0027826Y0089489D01*
X0027856Y0089458D01*
X0028841Y0089458D01*
X0029843Y0088456D01*
X0030434Y0090719D01*
X0031812Y0094459D01*
X0032915Y0092850D02*
X0033253Y0092850D01*
X0033830Y0093426D01*
X0032915Y0092850D02*
X0032388Y0092322D01*
X0032009Y0091292D01*
X0032009Y0090867D01*
X0033387Y0089489D01*
X0033830Y0089489D01*
X0035404Y0089489D01*
X0037914Y0091457D01*
X0035158Y0092048D02*
X0035749Y0093426D01*
X0037717Y0095906D01*
X0037717Y0095936D01*
X0035158Y0092048D02*
X0033830Y0091457D01*
X0032058Y0088456D02*
X0033387Y0087127D01*
X0035355Y0087127D01*
X0037757Y0087087D01*
X0032058Y0088456D02*
X0031812Y0088456D01*
X0028841Y0089458D02*
X0028810Y0089489D01*
X0027826Y0089489D01*
X0027826Y0091457D02*
X0022166Y0091457D01*
X0024253Y0095906D02*
X0024725Y0095985D01*
X0028465Y0095985D01*
X0029843Y0094607D01*
X0029843Y0094459D01*
X0027826Y0093426D02*
X0027826Y0091457D01*
X0024135Y0118564D02*
X0026497Y0120985D01*
X0027826Y0120985D01*
X0027856Y0120954D01*
X0028841Y0120954D01*
X0029843Y0119952D01*
X0030434Y0122215D01*
X0031812Y0125956D01*
X0032915Y0124346D02*
X0033253Y0124346D01*
X0033830Y0124922D01*
X0032915Y0124346D02*
X0032388Y0123818D01*
X0032009Y0122788D01*
X0032009Y0122363D01*
X0033387Y0120985D01*
X0033830Y0120985D01*
X0035404Y0120985D01*
X0037914Y0122954D01*
X0035158Y0123544D02*
X0035749Y0124922D01*
X0037717Y0127402D01*
X0037717Y0127432D01*
X0035158Y0123544D02*
X0033830Y0122954D01*
X0032058Y0119952D02*
X0033387Y0118623D01*
X0035355Y0118623D01*
X0037757Y0118583D01*
X0032058Y0119952D02*
X0031812Y0119952D01*
X0028841Y0120954D02*
X0028810Y0120985D01*
X0027826Y0120985D01*
X0027826Y0122954D02*
X0022166Y0122954D01*
X0024253Y0127402D02*
X0024725Y0127481D01*
X0028465Y0127481D01*
X0029843Y0126103D01*
X0029843Y0125956D01*
X0027826Y0124922D02*
X0027826Y0122954D01*
X0024135Y0150060D02*
X0026497Y0152481D01*
X0027826Y0152481D01*
X0027856Y0152450D01*
X0028841Y0152450D01*
X0029843Y0151448D01*
X0030434Y0153711D01*
X0031812Y0157452D01*
X0032915Y0155842D02*
X0033253Y0155842D01*
X0033830Y0156418D01*
X0032915Y0155842D02*
X0032388Y0155315D01*
X0032009Y0154284D01*
X0032009Y0153859D01*
X0033387Y0152481D01*
X0033830Y0152481D01*
X0035404Y0152481D01*
X0037914Y0154450D01*
X0035158Y0155040D02*
X0035749Y0156418D01*
X0037717Y0158898D01*
X0037717Y0158928D01*
X0035158Y0155040D02*
X0033830Y0154450D01*
X0032058Y0151448D02*
X0033387Y0150119D01*
X0035355Y0150119D01*
X0037757Y0150080D01*
X0032058Y0151448D02*
X0031812Y0151448D01*
X0028841Y0152450D02*
X0028810Y0152481D01*
X0027826Y0152481D01*
X0027826Y0154450D02*
X0022166Y0154450D01*
X0024253Y0158898D02*
X0024725Y0158977D01*
X0028465Y0158977D01*
X0029843Y0157599D01*
X0029843Y0157452D01*
X0027826Y0156418D02*
X0027826Y0154450D01*
X0024135Y0181556D02*
X0026497Y0183977D01*
X0027826Y0183977D01*
X0027856Y0183946D01*
X0028841Y0183946D01*
X0029843Y0182944D01*
X0030434Y0185207D01*
X0031812Y0188948D01*
X0032915Y0187338D02*
X0033253Y0187338D01*
X0033830Y0187914D01*
X0032915Y0187338D02*
X0032388Y0186811D01*
X0032009Y0185780D01*
X0032009Y0185355D01*
X0033387Y0183977D01*
X0033830Y0183977D01*
X0035404Y0183977D01*
X0037914Y0185946D01*
X0035158Y0186536D02*
X0035749Y0187914D01*
X0037717Y0190394D01*
X0037717Y0190424D01*
X0035158Y0186536D02*
X0033830Y0185946D01*
X0032058Y0182944D02*
X0033387Y0181615D01*
X0035355Y0181615D01*
X0037757Y0181576D01*
X0032058Y0182944D02*
X0031812Y0182944D01*
X0028841Y0183946D02*
X0028810Y0183977D01*
X0027826Y0183977D01*
X0027826Y0185946D02*
X0022166Y0185946D01*
X0024253Y0190394D02*
X0024725Y0190473D01*
X0028465Y0190473D01*
X0029843Y0189095D01*
X0029843Y0188948D01*
X0027826Y0187914D02*
X0027826Y0185946D01*
X0024135Y0213052D02*
X0026497Y0215473D01*
X0027826Y0215473D01*
X0027856Y0215443D01*
X0028841Y0215443D01*
X0029843Y0214440D01*
X0030434Y0216704D01*
X0031812Y0220444D01*
X0032915Y0218834D02*
X0033253Y0218834D01*
X0033830Y0219410D01*
X0032915Y0218834D02*
X0032388Y0218307D01*
X0032009Y0217277D01*
X0032009Y0216851D01*
X0033387Y0215473D01*
X0033830Y0215473D01*
X0035404Y0215473D01*
X0037914Y0217442D01*
X0035158Y0218032D02*
X0035749Y0219410D01*
X0037717Y0221891D01*
X0037717Y0221920D01*
X0035158Y0218032D02*
X0033830Y0217442D01*
X0032058Y0214440D02*
X0033387Y0213111D01*
X0035355Y0213111D01*
X0037757Y0213072D01*
X0032058Y0214440D02*
X0031812Y0214440D01*
X0028841Y0215443D02*
X0028810Y0215473D01*
X0027826Y0215473D01*
X0027826Y0217442D02*
X0022166Y0217442D01*
X0024253Y0221891D02*
X0024725Y0221969D01*
X0028465Y0221969D01*
X0029843Y0220591D01*
X0029843Y0220444D01*
X0027826Y0219410D02*
X0027826Y0217442D01*
X0024135Y0244548D02*
X0026497Y0246969D01*
X0027826Y0246969D01*
X0027856Y0246939D01*
X0028841Y0246939D01*
X0029843Y0245936D01*
X0030434Y0248200D01*
X0031812Y0251940D01*
X0032915Y0250330D02*
X0033253Y0250330D01*
X0033830Y0250906D01*
X0032915Y0250330D02*
X0032388Y0249803D01*
X0032009Y0248773D01*
X0032009Y0248347D01*
X0033387Y0246969D01*
X0033830Y0246969D01*
X0035404Y0246969D01*
X0037914Y0248938D01*
X0035158Y0249528D02*
X0035749Y0250906D01*
X0037717Y0253387D01*
X0037717Y0253416D01*
X0035158Y0249528D02*
X0033830Y0248938D01*
X0032058Y0245936D02*
X0033387Y0244607D01*
X0035355Y0244607D01*
X0037757Y0244568D01*
X0032058Y0245936D02*
X0031812Y0245936D01*
X0028841Y0246939D02*
X0028810Y0246969D01*
X0027826Y0246969D01*
X0027826Y0248938D02*
X0022166Y0248938D01*
X0024253Y0253387D02*
X0024725Y0253465D01*
X0028465Y0253465D01*
X0029843Y0252087D01*
X0029843Y0251940D01*
X0027826Y0250906D02*
X0027826Y0248938D01*
X0024135Y0276044D02*
X0026497Y0278465D01*
X0027826Y0278465D01*
X0027856Y0278435D01*
X0028841Y0278435D01*
X0029843Y0277432D01*
X0030434Y0279696D01*
X0031812Y0283436D01*
X0032915Y0281826D02*
X0033253Y0281826D01*
X0033830Y0282402D01*
X0032915Y0281826D02*
X0032388Y0281299D01*
X0032009Y0280269D01*
X0032009Y0279843D01*
X0033387Y0278465D01*
X0033830Y0278465D01*
X0035404Y0278465D01*
X0037914Y0280434D01*
X0035158Y0281024D02*
X0035749Y0282402D01*
X0037717Y0284883D01*
X0037717Y0284912D01*
X0035158Y0281024D02*
X0033830Y0280434D01*
X0032058Y0277432D02*
X0033387Y0276103D01*
X0035355Y0276103D01*
X0037757Y0276064D01*
X0032058Y0277432D02*
X0031812Y0277432D01*
X0028841Y0278435D02*
X0028810Y0278465D01*
X0027826Y0278465D01*
X0027826Y0280434D02*
X0022166Y0280434D01*
X0024253Y0284883D02*
X0024725Y0284961D01*
X0028465Y0284961D01*
X0029843Y0283583D01*
X0029843Y0283436D01*
X0027826Y0282402D02*
X0027826Y0280434D01*
X0024135Y0307540D02*
X0026497Y0309961D01*
X0027826Y0309961D01*
X0027856Y0309931D01*
X0028841Y0309931D01*
X0029843Y0308928D01*
X0030434Y0311192D01*
X0031812Y0314932D01*
X0032915Y0313322D02*
X0033253Y0313322D01*
X0033830Y0313898D01*
X0032915Y0313322D02*
X0032388Y0312795D01*
X0032009Y0311765D01*
X0032009Y0311339D01*
X0033387Y0309961D01*
X0033830Y0309961D01*
X0035404Y0309961D01*
X0037914Y0311930D01*
X0035158Y0312520D02*
X0035749Y0313898D01*
X0037717Y0316379D01*
X0037717Y0316408D01*
X0035158Y0312520D02*
X0033830Y0311930D01*
X0032058Y0308928D02*
X0033387Y0307599D01*
X0035355Y0307599D01*
X0037757Y0307560D01*
X0032058Y0308928D02*
X0031812Y0308928D01*
X0028841Y0309931D02*
X0028810Y0309961D01*
X0027826Y0309961D01*
X0027826Y0311930D02*
X0022166Y0311930D01*
X0024253Y0316379D02*
X0024725Y0316457D01*
X0028465Y0316457D01*
X0029843Y0315080D01*
X0029843Y0314932D01*
X0027826Y0313898D02*
X0027826Y0311930D01*
X0024135Y0339036D02*
X0026497Y0341457D01*
X0027826Y0341457D01*
X0027856Y0341427D01*
X0028841Y0341427D01*
X0029843Y0340424D01*
X0030434Y0342688D01*
X0031812Y0346428D01*
X0032915Y0344818D02*
X0033253Y0344818D01*
X0033830Y0345394D01*
X0032915Y0344818D02*
X0032388Y0344291D01*
X0032009Y0343261D01*
X0032009Y0342835D01*
X0033387Y0341457D01*
X0033830Y0341457D01*
X0035404Y0341457D01*
X0037914Y0343426D01*
X0035158Y0344017D02*
X0035749Y0345394D01*
X0037717Y0347875D01*
X0037717Y0347904D01*
X0035158Y0344017D02*
X0033830Y0343426D01*
X0032058Y0340424D02*
X0033387Y0339095D01*
X0035355Y0339095D01*
X0037757Y0339056D01*
X0032058Y0340424D02*
X0031812Y0340424D01*
X0028841Y0341427D02*
X0028810Y0341457D01*
X0027826Y0341457D01*
X0027826Y0343426D02*
X0022166Y0343426D01*
X0024253Y0347875D02*
X0024725Y0347954D01*
X0028465Y0347954D01*
X0029843Y0346576D01*
X0029843Y0346428D01*
X0027826Y0345394D02*
X0027826Y0343426D01*
X0024135Y0370532D02*
X0026497Y0372954D01*
X0027826Y0372954D01*
X0027856Y0372923D01*
X0028841Y0372923D01*
X0029843Y0371920D01*
X0030434Y0374184D01*
X0031812Y0377924D01*
X0032915Y0376314D02*
X0033253Y0376314D01*
X0033830Y0376891D01*
X0032915Y0376314D02*
X0032388Y0375787D01*
X0032009Y0374757D01*
X0032009Y0374331D01*
X0033387Y0372954D01*
X0033830Y0372954D01*
X0035404Y0372954D01*
X0037914Y0374922D01*
X0035158Y0375513D02*
X0035749Y0376891D01*
X0037717Y0379371D01*
X0037717Y0379400D01*
X0035158Y0375513D02*
X0033830Y0374922D01*
X0032058Y0371920D02*
X0033387Y0370591D01*
X0035355Y0370591D01*
X0037757Y0370552D01*
X0032058Y0371920D02*
X0031812Y0371920D01*
X0028841Y0372923D02*
X0028810Y0372954D01*
X0027826Y0372954D01*
X0027826Y0374922D02*
X0022166Y0374922D01*
X0024253Y0379371D02*
X0024725Y0379450D01*
X0028465Y0379450D01*
X0029843Y0378072D01*
X0029843Y0377924D01*
X0027826Y0376891D02*
X0027826Y0374922D01*
X0061536Y0374922D02*
X0067196Y0374922D01*
X0067196Y0376891D01*
X0069213Y0377924D02*
X0069213Y0378072D01*
X0067835Y0379450D01*
X0064095Y0379450D01*
X0063623Y0379371D01*
X0065867Y0372954D02*
X0063505Y0370532D01*
X0065867Y0372954D02*
X0067196Y0372954D01*
X0067226Y0372923D01*
X0068211Y0372923D01*
X0069213Y0371920D01*
X0069804Y0374184D01*
X0071182Y0377924D01*
X0072285Y0376314D02*
X0072623Y0376314D01*
X0073200Y0376891D01*
X0072285Y0376314D02*
X0071758Y0375787D01*
X0071379Y0374757D01*
X0071379Y0374331D01*
X0072757Y0372954D01*
X0073200Y0372954D01*
X0074774Y0372954D01*
X0077284Y0374922D01*
X0074528Y0375513D02*
X0075119Y0376891D01*
X0077087Y0379371D01*
X0077087Y0379400D01*
X0074528Y0375513D02*
X0073200Y0374922D01*
X0071428Y0371920D02*
X0071182Y0371920D01*
X0071428Y0371920D02*
X0072757Y0370591D01*
X0074725Y0370591D01*
X0077127Y0370552D01*
X0068211Y0372923D02*
X0068180Y0372954D01*
X0067196Y0372954D01*
X0067835Y0347954D02*
X0064095Y0347954D01*
X0063623Y0347875D01*
X0067835Y0347954D02*
X0069213Y0346576D01*
X0069213Y0346428D01*
X0071182Y0346428D02*
X0069804Y0342688D01*
X0069213Y0340424D01*
X0068211Y0341427D01*
X0067226Y0341427D01*
X0067196Y0341457D01*
X0065867Y0341457D01*
X0063505Y0339036D01*
X0067196Y0341457D02*
X0068180Y0341457D01*
X0068211Y0341427D01*
X0067196Y0343426D02*
X0067196Y0345394D01*
X0067196Y0343426D02*
X0061536Y0343426D01*
X0071182Y0340424D02*
X0071428Y0340424D01*
X0072757Y0339095D01*
X0074725Y0339095D01*
X0077127Y0339056D01*
X0074774Y0341457D02*
X0077284Y0343426D01*
X0074528Y0344017D02*
X0075119Y0345394D01*
X0077087Y0347875D01*
X0077087Y0347904D01*
X0073200Y0345394D02*
X0072623Y0344818D01*
X0072285Y0344818D01*
X0071758Y0344291D01*
X0071379Y0343261D01*
X0071379Y0342835D01*
X0072757Y0341457D01*
X0073200Y0341457D01*
X0074774Y0341457D01*
X0073200Y0343426D02*
X0074528Y0344017D01*
X0100906Y0343426D02*
X0106566Y0343426D01*
X0106566Y0345394D01*
X0108583Y0346428D02*
X0108583Y0346576D01*
X0107206Y0347954D01*
X0103465Y0347954D01*
X0102993Y0347875D01*
X0105237Y0341457D02*
X0102875Y0339036D01*
X0105237Y0341457D02*
X0106566Y0341457D01*
X0106596Y0341427D01*
X0107581Y0341427D01*
X0108583Y0340424D01*
X0109174Y0342688D01*
X0110552Y0346428D01*
X0111656Y0344818D02*
X0111128Y0344291D01*
X0110749Y0343261D01*
X0110749Y0342835D01*
X0112127Y0341457D01*
X0112570Y0341457D01*
X0114144Y0341457D01*
X0116654Y0343426D01*
X0113898Y0344017D02*
X0114489Y0345394D01*
X0116457Y0347875D01*
X0116457Y0347904D01*
X0112570Y0345394D02*
X0111993Y0344818D01*
X0111656Y0344818D01*
X0112570Y0343426D02*
X0113898Y0344017D01*
X0110798Y0340424D02*
X0112127Y0339095D01*
X0114095Y0339095D01*
X0116497Y0339056D01*
X0110798Y0340424D02*
X0110552Y0340424D01*
X0107581Y0341427D02*
X0107550Y0341457D01*
X0106566Y0341457D01*
X0107206Y0316457D02*
X0103465Y0316457D01*
X0102993Y0316379D01*
X0106566Y0313898D02*
X0106566Y0311930D01*
X0100906Y0311930D01*
X0105237Y0309961D02*
X0102875Y0307540D01*
X0105237Y0309961D02*
X0106566Y0309961D01*
X0106596Y0309931D01*
X0107581Y0309931D01*
X0108583Y0308928D01*
X0109174Y0311192D01*
X0110552Y0314932D01*
X0111656Y0313322D02*
X0111128Y0312795D01*
X0110749Y0311765D01*
X0110749Y0311339D01*
X0112127Y0309961D01*
X0112570Y0309961D01*
X0114144Y0309961D01*
X0116654Y0311930D01*
X0113898Y0312520D02*
X0114489Y0313898D01*
X0116457Y0316379D01*
X0116457Y0316408D01*
X0112570Y0313898D02*
X0111993Y0313322D01*
X0111656Y0313322D01*
X0112570Y0311930D02*
X0113898Y0312520D01*
X0110798Y0308928D02*
X0112127Y0307599D01*
X0114095Y0307599D01*
X0116497Y0307560D01*
X0110798Y0308928D02*
X0110552Y0308928D01*
X0107581Y0309931D02*
X0107550Y0309961D01*
X0106566Y0309961D01*
X0108583Y0314932D02*
X0108583Y0315080D01*
X0107206Y0316457D01*
X0077087Y0316379D02*
X0077087Y0316408D01*
X0077087Y0316379D02*
X0075119Y0313898D01*
X0074528Y0312520D01*
X0073200Y0311930D01*
X0072623Y0313322D02*
X0073200Y0313898D01*
X0072623Y0313322D02*
X0072285Y0313322D01*
X0071758Y0312795D01*
X0071379Y0311765D01*
X0071379Y0311339D01*
X0072757Y0309961D01*
X0073200Y0309961D01*
X0074774Y0309961D01*
X0077284Y0311930D01*
X0077127Y0307560D02*
X0074725Y0307599D01*
X0072757Y0307599D01*
X0071428Y0308928D01*
X0071182Y0308928D01*
X0069213Y0308928D02*
X0069804Y0311192D01*
X0071182Y0314932D01*
X0069213Y0314932D02*
X0069213Y0315080D01*
X0067835Y0316457D01*
X0064095Y0316457D01*
X0063623Y0316379D01*
X0067196Y0313898D02*
X0067196Y0311930D01*
X0061536Y0311930D01*
X0065867Y0309961D02*
X0063505Y0307540D01*
X0065867Y0309961D02*
X0067196Y0309961D01*
X0067226Y0309931D01*
X0068211Y0309931D01*
X0069213Y0308928D01*
X0068211Y0309931D02*
X0068180Y0309961D01*
X0067196Y0309961D01*
X0067835Y0284961D02*
X0064095Y0284961D01*
X0063623Y0284883D01*
X0067835Y0284961D02*
X0069213Y0283583D01*
X0069213Y0283436D01*
X0071182Y0283436D02*
X0069804Y0279696D01*
X0069213Y0277432D01*
X0068211Y0278435D01*
X0067226Y0278435D01*
X0067196Y0278465D01*
X0065867Y0278465D01*
X0063505Y0276044D01*
X0067196Y0278465D02*
X0068180Y0278465D01*
X0068211Y0278435D01*
X0067196Y0280434D02*
X0067196Y0282402D01*
X0067196Y0280434D02*
X0061536Y0280434D01*
X0071182Y0277432D02*
X0071428Y0277432D01*
X0072757Y0276103D01*
X0074725Y0276103D01*
X0077127Y0276064D01*
X0074774Y0278465D02*
X0077284Y0280434D01*
X0074528Y0281024D02*
X0075119Y0282402D01*
X0077087Y0284883D01*
X0077087Y0284912D01*
X0073200Y0282402D02*
X0072623Y0281826D01*
X0072285Y0281826D01*
X0071758Y0281299D01*
X0071379Y0280269D01*
X0071379Y0279843D01*
X0072757Y0278465D01*
X0073200Y0278465D01*
X0074774Y0278465D01*
X0073200Y0280434D02*
X0074528Y0281024D01*
X0100906Y0280434D02*
X0106566Y0280434D01*
X0106566Y0282402D01*
X0108583Y0283436D02*
X0108583Y0283583D01*
X0107206Y0284961D01*
X0103465Y0284961D01*
X0102993Y0284883D01*
X0105237Y0278465D02*
X0102875Y0276044D01*
X0105237Y0278465D02*
X0106566Y0278465D01*
X0106596Y0278435D01*
X0107581Y0278435D01*
X0108583Y0277432D01*
X0109174Y0279696D01*
X0110552Y0283436D01*
X0111656Y0281826D02*
X0111128Y0281299D01*
X0110749Y0280269D01*
X0110749Y0279843D01*
X0112127Y0278465D01*
X0112570Y0278465D01*
X0114144Y0278465D01*
X0116654Y0280434D01*
X0113898Y0281024D02*
X0114489Y0282402D01*
X0116457Y0284883D01*
X0116457Y0284912D01*
X0112570Y0282402D02*
X0111993Y0281826D01*
X0111656Y0281826D01*
X0112570Y0280434D02*
X0113898Y0281024D01*
X0110798Y0277432D02*
X0112127Y0276103D01*
X0114095Y0276103D01*
X0116497Y0276064D01*
X0110798Y0277432D02*
X0110552Y0277432D01*
X0107581Y0278435D02*
X0107550Y0278465D01*
X0106566Y0278465D01*
X0107206Y0253465D02*
X0103465Y0253465D01*
X0102993Y0253387D01*
X0106566Y0250906D02*
X0106566Y0248938D01*
X0100906Y0248938D01*
X0105237Y0246969D02*
X0102875Y0244548D01*
X0105237Y0246969D02*
X0106566Y0246969D01*
X0106596Y0246939D01*
X0107581Y0246939D01*
X0108583Y0245936D01*
X0109174Y0248200D01*
X0110552Y0251940D01*
X0111656Y0250330D02*
X0111993Y0250330D01*
X0112570Y0250906D01*
X0111656Y0250330D02*
X0111128Y0249803D01*
X0110749Y0248773D01*
X0110749Y0248347D01*
X0112127Y0246969D01*
X0112570Y0246969D01*
X0114144Y0246969D01*
X0116654Y0248938D01*
X0113898Y0249528D02*
X0114489Y0250906D01*
X0116457Y0253387D01*
X0116457Y0253416D01*
X0113898Y0249528D02*
X0112570Y0248938D01*
X0110798Y0245936D02*
X0112127Y0244607D01*
X0114095Y0244607D01*
X0116497Y0244568D01*
X0110798Y0245936D02*
X0110552Y0245936D01*
X0107581Y0246939D02*
X0107550Y0246969D01*
X0106566Y0246969D01*
X0108583Y0251940D02*
X0108583Y0252087D01*
X0107206Y0253465D01*
X0107206Y0221969D02*
X0103465Y0221969D01*
X0102993Y0221891D01*
X0106566Y0219410D02*
X0106566Y0217442D01*
X0100906Y0217442D01*
X0105237Y0215473D02*
X0102875Y0213052D01*
X0105237Y0215473D02*
X0106566Y0215473D01*
X0106596Y0215443D01*
X0107581Y0215443D01*
X0108583Y0214440D01*
X0109174Y0216704D01*
X0110552Y0220444D01*
X0111656Y0218834D02*
X0111993Y0218834D01*
X0112570Y0219410D01*
X0111656Y0218834D02*
X0111128Y0218307D01*
X0110749Y0217277D01*
X0110749Y0216851D01*
X0112127Y0215473D01*
X0112570Y0215473D01*
X0114144Y0215473D01*
X0116654Y0217442D01*
X0113898Y0218032D02*
X0114489Y0219410D01*
X0116457Y0221891D01*
X0116457Y0221920D01*
X0113898Y0218032D02*
X0112570Y0217442D01*
X0110798Y0214440D02*
X0112127Y0213111D01*
X0114095Y0213111D01*
X0116497Y0213072D01*
X0110798Y0214440D02*
X0110552Y0214440D01*
X0107581Y0215443D02*
X0107550Y0215473D01*
X0106566Y0215473D01*
X0108583Y0220444D02*
X0108583Y0220591D01*
X0107206Y0221969D01*
X0077087Y0221891D02*
X0077087Y0221920D01*
X0077087Y0221891D02*
X0075119Y0219410D01*
X0074528Y0218032D01*
X0073200Y0217442D01*
X0072623Y0218834D02*
X0073200Y0219410D01*
X0072623Y0218834D02*
X0072285Y0218834D01*
X0071758Y0218307D01*
X0071379Y0217277D01*
X0071379Y0216851D01*
X0072757Y0215473D01*
X0073200Y0215473D01*
X0074774Y0215473D01*
X0077284Y0217442D01*
X0077127Y0213072D02*
X0074725Y0213111D01*
X0072757Y0213111D01*
X0071428Y0214440D01*
X0071182Y0214440D01*
X0069213Y0214440D02*
X0069804Y0216704D01*
X0071182Y0220444D01*
X0069213Y0220444D02*
X0069213Y0220591D01*
X0067835Y0221969D01*
X0064095Y0221969D01*
X0063623Y0221891D01*
X0067196Y0219410D02*
X0067196Y0217442D01*
X0061536Y0217442D01*
X0065867Y0215473D02*
X0063505Y0213052D01*
X0065867Y0215473D02*
X0067196Y0215473D01*
X0067226Y0215443D01*
X0068211Y0215443D01*
X0069213Y0214440D01*
X0068211Y0215443D02*
X0068180Y0215473D01*
X0067196Y0215473D01*
X0067835Y0190473D02*
X0064095Y0190473D01*
X0063623Y0190394D01*
X0067835Y0190473D02*
X0069213Y0189095D01*
X0069213Y0188948D01*
X0071182Y0188948D02*
X0069804Y0185207D01*
X0069213Y0182944D01*
X0068211Y0183946D01*
X0067226Y0183946D01*
X0067196Y0183977D01*
X0065867Y0183977D01*
X0063505Y0181556D01*
X0067196Y0183977D02*
X0068180Y0183977D01*
X0068211Y0183946D01*
X0067196Y0185946D02*
X0067196Y0187914D01*
X0067196Y0185946D02*
X0061536Y0185946D01*
X0071182Y0182944D02*
X0071428Y0182944D01*
X0072757Y0181615D01*
X0074725Y0181615D01*
X0077127Y0181576D01*
X0074774Y0183977D02*
X0077284Y0185946D01*
X0074528Y0186536D02*
X0075119Y0187914D01*
X0077087Y0190394D01*
X0077087Y0190424D01*
X0073200Y0187914D02*
X0072623Y0187338D01*
X0072285Y0187338D01*
X0071758Y0186811D01*
X0071379Y0185780D01*
X0071379Y0185355D01*
X0072757Y0183977D01*
X0073200Y0183977D01*
X0074774Y0183977D01*
X0073200Y0185946D02*
X0074528Y0186536D01*
X0100906Y0185946D02*
X0106566Y0185946D01*
X0106566Y0187914D01*
X0108583Y0188948D02*
X0108583Y0189095D01*
X0107206Y0190473D01*
X0103465Y0190473D01*
X0102993Y0190394D01*
X0105237Y0183977D02*
X0102875Y0181556D01*
X0105237Y0183977D02*
X0106566Y0183977D01*
X0106596Y0183946D01*
X0107581Y0183946D01*
X0108583Y0182944D01*
X0109174Y0185207D01*
X0110552Y0188948D01*
X0111656Y0187338D02*
X0111993Y0187338D01*
X0112570Y0187914D01*
X0111656Y0187338D02*
X0111128Y0186811D01*
X0110749Y0185780D01*
X0110749Y0185355D01*
X0112127Y0183977D01*
X0112570Y0183977D01*
X0114144Y0183977D01*
X0116654Y0185946D01*
X0113898Y0186536D02*
X0114489Y0187914D01*
X0116457Y0190394D01*
X0116457Y0190424D01*
X0113898Y0186536D02*
X0112570Y0185946D01*
X0110798Y0182944D02*
X0112127Y0181615D01*
X0114095Y0181615D01*
X0116497Y0181576D01*
X0110798Y0182944D02*
X0110552Y0182944D01*
X0107581Y0183946D02*
X0107550Y0183977D01*
X0106566Y0183977D01*
X0107206Y0158977D02*
X0103465Y0158977D01*
X0102993Y0158898D01*
X0106566Y0156418D02*
X0106566Y0154450D01*
X0100906Y0154450D01*
X0105237Y0152481D02*
X0102875Y0150060D01*
X0105237Y0152481D02*
X0106566Y0152481D01*
X0106596Y0152450D01*
X0107581Y0152450D01*
X0108583Y0151448D01*
X0109174Y0153711D01*
X0110552Y0157452D01*
X0111656Y0155842D02*
X0111993Y0155842D01*
X0112570Y0156418D01*
X0111656Y0155842D02*
X0111128Y0155315D01*
X0110749Y0154284D01*
X0110749Y0153859D01*
X0112127Y0152481D01*
X0112570Y0152481D01*
X0114144Y0152481D01*
X0116654Y0154450D01*
X0113898Y0155040D02*
X0114489Y0156418D01*
X0116457Y0158898D01*
X0116457Y0158928D01*
X0113898Y0155040D02*
X0112570Y0154450D01*
X0110798Y0151448D02*
X0112127Y0150119D01*
X0114095Y0150119D01*
X0116497Y0150080D01*
X0110798Y0151448D02*
X0110552Y0151448D01*
X0107581Y0152450D02*
X0107550Y0152481D01*
X0106566Y0152481D01*
X0108583Y0157452D02*
X0108583Y0157599D01*
X0107206Y0158977D01*
X0077087Y0158898D02*
X0077087Y0158928D01*
X0077087Y0158898D02*
X0075119Y0156418D01*
X0074528Y0155040D01*
X0073200Y0154450D01*
X0072623Y0155842D02*
X0073200Y0156418D01*
X0072623Y0155842D02*
X0072285Y0155842D01*
X0071758Y0155315D01*
X0071379Y0154284D01*
X0071379Y0153859D01*
X0072757Y0152481D01*
X0073200Y0152481D01*
X0074774Y0152481D01*
X0077284Y0154450D01*
X0077127Y0150080D02*
X0074725Y0150119D01*
X0072757Y0150119D01*
X0071428Y0151448D01*
X0071182Y0151448D01*
X0069213Y0151448D02*
X0069804Y0153711D01*
X0071182Y0157452D01*
X0069213Y0157452D02*
X0069213Y0157599D01*
X0067835Y0158977D01*
X0064095Y0158977D01*
X0063623Y0158898D01*
X0067196Y0156418D02*
X0067196Y0154450D01*
X0061536Y0154450D01*
X0065867Y0152481D02*
X0063505Y0150060D01*
X0065867Y0152481D02*
X0067196Y0152481D01*
X0067226Y0152450D01*
X0068211Y0152450D01*
X0069213Y0151448D01*
X0068211Y0152450D02*
X0068180Y0152481D01*
X0067196Y0152481D01*
X0067835Y0127481D02*
X0064095Y0127481D01*
X0063623Y0127402D01*
X0067835Y0127481D02*
X0069213Y0126103D01*
X0069213Y0125956D01*
X0071182Y0125956D02*
X0069804Y0122215D01*
X0069213Y0119952D01*
X0068211Y0120954D01*
X0067226Y0120954D01*
X0067196Y0120985D01*
X0065867Y0120985D01*
X0063505Y0118564D01*
X0067196Y0120985D02*
X0068180Y0120985D01*
X0068211Y0120954D01*
X0067196Y0122954D02*
X0061536Y0122954D01*
X0067196Y0122954D02*
X0067196Y0124922D01*
X0071182Y0119952D02*
X0071428Y0119952D01*
X0072757Y0118623D01*
X0074725Y0118623D01*
X0077127Y0118583D01*
X0074774Y0120985D02*
X0077284Y0122954D01*
X0074528Y0123544D02*
X0075119Y0124922D01*
X0077087Y0127402D01*
X0077087Y0127432D01*
X0073200Y0124922D02*
X0072623Y0124346D01*
X0072285Y0124346D01*
X0071758Y0123818D01*
X0071379Y0122788D01*
X0071379Y0122363D01*
X0072757Y0120985D01*
X0073200Y0120985D01*
X0074774Y0120985D01*
X0073200Y0122954D02*
X0074528Y0123544D01*
X0100906Y0122954D02*
X0106566Y0122954D01*
X0106566Y0124922D01*
X0108583Y0125956D02*
X0108583Y0126103D01*
X0107206Y0127481D01*
X0103465Y0127481D01*
X0102993Y0127402D01*
X0105237Y0120985D02*
X0102875Y0118564D01*
X0105237Y0120985D02*
X0106566Y0120985D01*
X0106596Y0120954D01*
X0107581Y0120954D01*
X0108583Y0119952D01*
X0109174Y0122215D01*
X0110552Y0125956D01*
X0111656Y0124346D02*
X0111993Y0124346D01*
X0112570Y0124922D01*
X0111656Y0124346D02*
X0111128Y0123818D01*
X0110749Y0122788D01*
X0110749Y0122363D01*
X0112127Y0120985D01*
X0112570Y0120985D01*
X0114144Y0120985D01*
X0116654Y0122954D01*
X0113898Y0123544D02*
X0114489Y0124922D01*
X0116457Y0127402D01*
X0116457Y0127432D01*
X0113898Y0123544D02*
X0112570Y0122954D01*
X0110798Y0119952D02*
X0112127Y0118623D01*
X0114095Y0118623D01*
X0116497Y0118583D01*
X0110798Y0119952D02*
X0110552Y0119952D01*
X0107581Y0120954D02*
X0107550Y0120985D01*
X0106566Y0120985D01*
X0107206Y0095985D02*
X0103465Y0095985D01*
X0102993Y0095906D01*
X0106566Y0093426D02*
X0106566Y0091457D01*
X0100906Y0091457D01*
X0105237Y0089489D02*
X0102875Y0087068D01*
X0105237Y0089489D02*
X0106566Y0089489D01*
X0106596Y0089458D01*
X0107581Y0089458D01*
X0108583Y0088456D01*
X0109174Y0090719D01*
X0110552Y0094459D01*
X0111656Y0092850D02*
X0111993Y0092850D01*
X0112570Y0093426D01*
X0111656Y0092850D02*
X0111128Y0092322D01*
X0110749Y0091292D01*
X0110749Y0090867D01*
X0112127Y0089489D01*
X0112570Y0089489D01*
X0114144Y0089489D01*
X0116654Y0091457D01*
X0113898Y0092048D02*
X0114489Y0093426D01*
X0116457Y0095906D01*
X0116457Y0095936D01*
X0113898Y0092048D02*
X0112570Y0091457D01*
X0110798Y0088456D02*
X0112127Y0087127D01*
X0114095Y0087127D01*
X0116497Y0087087D01*
X0110798Y0088456D02*
X0110552Y0088456D01*
X0107581Y0089458D02*
X0107550Y0089489D01*
X0106566Y0089489D01*
X0108583Y0094459D02*
X0108583Y0094607D01*
X0107206Y0095985D01*
X0077087Y0095906D02*
X0077087Y0095936D01*
X0077087Y0095906D02*
X0075119Y0093426D01*
X0074528Y0092048D01*
X0073200Y0091457D01*
X0072623Y0092850D02*
X0073200Y0093426D01*
X0072623Y0092850D02*
X0072285Y0092850D01*
X0071758Y0092322D01*
X0071379Y0091292D01*
X0071379Y0090867D01*
X0072757Y0089489D01*
X0073200Y0089489D01*
X0074774Y0089489D01*
X0077284Y0091457D01*
X0072757Y0087127D02*
X0071428Y0088456D01*
X0071182Y0088456D01*
X0069213Y0088456D02*
X0069804Y0090719D01*
X0071182Y0094459D01*
X0069213Y0094459D02*
X0069213Y0094607D01*
X0067835Y0095985D01*
X0064095Y0095985D01*
X0063623Y0095906D01*
X0067196Y0093426D02*
X0067196Y0091457D01*
X0061536Y0091457D01*
X0065867Y0089489D02*
X0063505Y0087068D01*
X0065867Y0089489D02*
X0067196Y0089489D01*
X0067226Y0089458D01*
X0068211Y0089458D01*
X0069213Y0088456D01*
X0068211Y0089458D02*
X0068180Y0089489D01*
X0067196Y0089489D01*
X0072757Y0087127D02*
X0074725Y0087127D01*
X0077127Y0087087D01*
X0077087Y0064440D02*
X0077087Y0064410D01*
X0075119Y0061930D01*
X0074528Y0060552D01*
X0073200Y0059961D01*
X0072623Y0061354D02*
X0073200Y0061930D01*
X0072623Y0061354D02*
X0072285Y0061354D01*
X0071758Y0060826D01*
X0071379Y0059796D01*
X0071379Y0059371D01*
X0072757Y0057993D01*
X0073200Y0057993D01*
X0074774Y0057993D01*
X0077284Y0059961D01*
X0077127Y0055591D02*
X0074725Y0055631D01*
X0072757Y0055631D01*
X0071428Y0056959D01*
X0071182Y0056959D01*
X0069213Y0056959D02*
X0069804Y0059223D01*
X0071182Y0062963D01*
X0069213Y0062963D02*
X0069213Y0063111D01*
X0067835Y0064489D01*
X0064095Y0064489D01*
X0063623Y0064410D01*
X0067196Y0061930D02*
X0067196Y0059961D01*
X0061536Y0059961D01*
X0065867Y0057993D02*
X0063505Y0055572D01*
X0065867Y0057993D02*
X0067196Y0057993D01*
X0067226Y0057962D01*
X0068211Y0057962D01*
X0069213Y0056959D01*
X0068211Y0057962D02*
X0068180Y0057993D01*
X0067196Y0057993D01*
X0067835Y0032993D02*
X0064095Y0032993D01*
X0063623Y0032914D01*
X0067835Y0032993D02*
X0069213Y0031615D01*
X0069213Y0031467D01*
X0071182Y0031467D02*
X0069804Y0027727D01*
X0069213Y0025463D01*
X0068211Y0026466D01*
X0067226Y0026466D01*
X0067196Y0026497D01*
X0065867Y0026497D01*
X0063505Y0024076D01*
X0067196Y0026497D02*
X0068180Y0026497D01*
X0068211Y0026466D01*
X0067196Y0028465D02*
X0061536Y0028465D01*
X0067196Y0028465D02*
X0067196Y0030434D01*
X0071182Y0025463D02*
X0071428Y0025463D01*
X0072757Y0024135D01*
X0074725Y0024135D01*
X0077127Y0024095D01*
X0074774Y0026497D02*
X0077284Y0028465D01*
X0074528Y0029056D02*
X0075119Y0030434D01*
X0077087Y0032914D01*
X0077087Y0032944D01*
X0073200Y0030434D02*
X0072623Y0029857D01*
X0072285Y0029857D01*
X0071758Y0029330D01*
X0071379Y0028300D01*
X0071379Y0027875D01*
X0072757Y0026497D01*
X0073200Y0026497D01*
X0074774Y0026497D01*
X0073200Y0028465D02*
X0074528Y0029056D01*
X0100906Y0028465D02*
X0106566Y0028465D01*
X0106566Y0030434D01*
X0108583Y0031467D02*
X0108583Y0031615D01*
X0107206Y0032993D01*
X0103465Y0032993D01*
X0102993Y0032914D01*
X0105237Y0026497D02*
X0102875Y0024076D01*
X0105237Y0026497D02*
X0106566Y0026497D01*
X0106596Y0026466D01*
X0107581Y0026466D01*
X0108583Y0025463D01*
X0109174Y0027727D01*
X0110552Y0031467D01*
X0111656Y0029857D02*
X0111993Y0029857D01*
X0112570Y0030434D01*
X0111656Y0029857D02*
X0111128Y0029330D01*
X0110749Y0028300D01*
X0110749Y0027875D01*
X0112127Y0026497D01*
X0112570Y0026497D01*
X0114144Y0026497D01*
X0116654Y0028465D01*
X0113898Y0029056D02*
X0114489Y0030434D01*
X0116457Y0032914D01*
X0116457Y0032944D01*
X0113898Y0029056D02*
X0112570Y0028465D01*
X0110798Y0025463D02*
X0112127Y0024135D01*
X0114095Y0024135D01*
X0116497Y0024095D01*
X0110798Y0025463D02*
X0110552Y0025463D01*
X0107581Y0026466D02*
X0107550Y0026497D01*
X0106566Y0026497D01*
X0102875Y0055572D02*
X0105237Y0057993D01*
X0106566Y0057993D01*
X0106596Y0057962D01*
X0107581Y0057962D01*
X0108583Y0056959D01*
X0109174Y0059223D01*
X0110552Y0062963D01*
X0111656Y0061354D02*
X0111993Y0061354D01*
X0112570Y0061930D01*
X0111656Y0061354D02*
X0111128Y0060826D01*
X0110749Y0059796D01*
X0110749Y0059371D01*
X0112127Y0057993D01*
X0112570Y0057993D01*
X0114144Y0057993D01*
X0116654Y0059961D01*
X0113898Y0060552D02*
X0114489Y0061930D01*
X0116457Y0064410D01*
X0116457Y0064440D01*
X0113898Y0060552D02*
X0112570Y0059961D01*
X0110798Y0056959D02*
X0112127Y0055631D01*
X0114095Y0055631D01*
X0116497Y0055591D01*
X0110798Y0056959D02*
X0110552Y0056959D01*
X0107581Y0057962D02*
X0107550Y0057993D01*
X0106566Y0057993D01*
X0106566Y0059961D02*
X0100906Y0059961D01*
X0102993Y0064410D02*
X0103465Y0064489D01*
X0107206Y0064489D01*
X0108583Y0063111D01*
X0108583Y0062963D01*
X0106566Y0061930D02*
X0106566Y0059961D01*
X0140276Y0059961D02*
X0145936Y0059961D01*
X0145936Y0061930D01*
X0147954Y0062963D02*
X0147954Y0063111D01*
X0146576Y0064489D01*
X0142835Y0064489D01*
X0142363Y0064410D01*
X0144607Y0057993D02*
X0142245Y0055572D01*
X0144607Y0057993D02*
X0145936Y0057993D01*
X0145967Y0057962D01*
X0146951Y0057962D01*
X0147954Y0056959D01*
X0148544Y0059223D01*
X0149922Y0062963D01*
X0151026Y0061354D02*
X0150498Y0060826D01*
X0150119Y0059796D01*
X0150119Y0059371D01*
X0151497Y0057993D01*
X0151940Y0057993D01*
X0153515Y0057993D01*
X0156024Y0059961D01*
X0153269Y0060552D02*
X0153859Y0061930D01*
X0155828Y0064410D01*
X0155828Y0064440D01*
X0151940Y0061930D02*
X0151363Y0061354D01*
X0151026Y0061354D01*
X0151940Y0059961D02*
X0153269Y0060552D01*
X0150168Y0056959D02*
X0151497Y0055631D01*
X0153465Y0055631D01*
X0155867Y0055591D01*
X0150168Y0056959D02*
X0149922Y0056959D01*
X0146951Y0057962D02*
X0146920Y0057993D01*
X0145936Y0057993D01*
X0146576Y0032993D02*
X0142835Y0032993D01*
X0142363Y0032914D01*
X0146576Y0032993D02*
X0147954Y0031615D01*
X0147954Y0031467D01*
X0149922Y0031467D02*
X0148544Y0027727D01*
X0147954Y0025463D01*
X0146951Y0026466D01*
X0145967Y0026466D01*
X0145936Y0026497D01*
X0144607Y0026497D01*
X0142245Y0024076D01*
X0145936Y0026497D02*
X0146920Y0026497D01*
X0146951Y0026466D01*
X0145936Y0028465D02*
X0140276Y0028465D01*
X0145936Y0028465D02*
X0145936Y0030434D01*
X0150498Y0029330D02*
X0150119Y0028300D01*
X0150119Y0027875D01*
X0151497Y0026497D01*
X0151940Y0026497D01*
X0153515Y0026497D01*
X0156024Y0028465D01*
X0153269Y0029056D02*
X0153859Y0030434D01*
X0155828Y0032914D01*
X0155828Y0032944D01*
X0151940Y0030434D02*
X0151363Y0029857D01*
X0151026Y0029857D01*
X0150498Y0029330D01*
X0151940Y0028465D02*
X0153269Y0029056D01*
X0150168Y0025463D02*
X0151497Y0024135D01*
X0153465Y0024135D01*
X0155867Y0024095D01*
X0150168Y0025463D02*
X0149922Y0025463D01*
X0183583Y0028465D02*
X0189243Y0028465D01*
X0189243Y0030434D01*
X0191261Y0031467D02*
X0191261Y0031615D01*
X0189883Y0032993D01*
X0186143Y0032993D01*
X0185670Y0032914D01*
X0187914Y0026497D02*
X0185552Y0024076D01*
X0187914Y0026497D02*
X0189243Y0026497D01*
X0189274Y0026466D01*
X0190258Y0026466D01*
X0191261Y0025463D01*
X0191851Y0027727D01*
X0193229Y0031467D01*
X0194333Y0029857D02*
X0193806Y0029330D01*
X0193426Y0028300D01*
X0193426Y0027875D01*
X0194804Y0026497D01*
X0195247Y0026497D01*
X0196822Y0026497D01*
X0199331Y0028465D01*
X0196576Y0029056D02*
X0197166Y0030434D01*
X0199135Y0032914D01*
X0199135Y0032944D01*
X0195247Y0030434D02*
X0194670Y0029857D01*
X0194333Y0029857D01*
X0195247Y0028465D02*
X0196576Y0029056D01*
X0193475Y0025463D02*
X0194804Y0024135D01*
X0196772Y0024135D01*
X0199174Y0024095D01*
X0193475Y0025463D02*
X0193229Y0025463D01*
X0190258Y0026466D02*
X0190227Y0026497D01*
X0189243Y0026497D01*
X0185552Y0055572D02*
X0187914Y0057993D01*
X0189243Y0057993D01*
X0189274Y0057962D01*
X0190258Y0057962D01*
X0191261Y0056959D01*
X0191851Y0059223D01*
X0193229Y0062963D01*
X0194333Y0061354D02*
X0193806Y0060826D01*
X0193426Y0059796D01*
X0193426Y0059371D01*
X0194804Y0057993D01*
X0195247Y0057993D01*
X0196822Y0057993D01*
X0199331Y0059961D01*
X0196576Y0060552D02*
X0197166Y0061930D01*
X0199135Y0064410D01*
X0199135Y0064440D01*
X0195247Y0061930D02*
X0194670Y0061354D01*
X0194333Y0061354D01*
X0195247Y0059961D02*
X0196576Y0060552D01*
X0193475Y0056959D02*
X0194804Y0055631D01*
X0196772Y0055631D01*
X0199174Y0055591D01*
X0193475Y0056959D02*
X0193229Y0056959D01*
X0190258Y0057962D02*
X0190227Y0057993D01*
X0189243Y0057993D01*
X0189243Y0059961D02*
X0183583Y0059961D01*
X0185670Y0064410D02*
X0186143Y0064489D01*
X0189883Y0064489D01*
X0191261Y0063111D01*
X0191261Y0062963D01*
X0189243Y0061930D02*
X0189243Y0059961D01*
X0185552Y0087068D02*
X0187914Y0089489D01*
X0189243Y0089489D01*
X0189274Y0089458D01*
X0190258Y0089458D01*
X0191261Y0088456D01*
X0191851Y0090719D01*
X0193229Y0094459D01*
X0194333Y0092850D02*
X0193806Y0092322D01*
X0193426Y0091292D01*
X0193426Y0090867D01*
X0194804Y0089489D01*
X0195247Y0089489D01*
X0196822Y0089489D01*
X0199331Y0091457D01*
X0196576Y0092048D02*
X0197166Y0093426D01*
X0199135Y0095906D01*
X0199135Y0095936D01*
X0195247Y0093426D02*
X0194670Y0092850D01*
X0194333Y0092850D01*
X0195247Y0091457D02*
X0196576Y0092048D01*
X0193475Y0088456D02*
X0194804Y0087127D01*
X0196772Y0087127D01*
X0199174Y0087087D01*
X0193475Y0088456D02*
X0193229Y0088456D01*
X0190258Y0089458D02*
X0190227Y0089489D01*
X0189243Y0089489D01*
X0189243Y0091457D02*
X0183583Y0091457D01*
X0185670Y0095906D02*
X0186143Y0095985D01*
X0189883Y0095985D01*
X0191261Y0094607D01*
X0191261Y0094459D01*
X0189243Y0093426D02*
X0189243Y0091457D01*
X0185552Y0118564D02*
X0187914Y0120985D01*
X0189243Y0120985D01*
X0189274Y0120954D01*
X0190258Y0120954D01*
X0191261Y0119952D01*
X0191851Y0122215D01*
X0193229Y0125956D01*
X0194333Y0124346D02*
X0193806Y0123818D01*
X0193426Y0122788D01*
X0193426Y0122363D01*
X0194804Y0120985D01*
X0195247Y0120985D01*
X0196822Y0120985D01*
X0199331Y0122954D01*
X0196576Y0123544D02*
X0197166Y0124922D01*
X0199135Y0127402D01*
X0199135Y0127432D01*
X0195247Y0124922D02*
X0194670Y0124346D01*
X0194333Y0124346D01*
X0195247Y0122954D02*
X0196576Y0123544D01*
X0193475Y0119952D02*
X0194804Y0118623D01*
X0196772Y0118623D01*
X0199174Y0118583D01*
X0193475Y0119952D02*
X0193229Y0119952D01*
X0190258Y0120954D02*
X0190227Y0120985D01*
X0189243Y0120985D01*
X0189243Y0122954D02*
X0183583Y0122954D01*
X0185670Y0127402D02*
X0186143Y0127481D01*
X0189883Y0127481D01*
X0191261Y0126103D01*
X0191261Y0125956D01*
X0189243Y0124922D02*
X0189243Y0122954D01*
X0185552Y0150060D02*
X0187914Y0152481D01*
X0189243Y0152481D01*
X0189274Y0152450D01*
X0190258Y0152450D01*
X0191261Y0151448D01*
X0191851Y0153711D01*
X0193229Y0157452D01*
X0194333Y0155842D02*
X0193806Y0155315D01*
X0193426Y0154284D01*
X0193426Y0153859D01*
X0194804Y0152481D01*
X0195247Y0152481D01*
X0196822Y0152481D01*
X0199331Y0154450D01*
X0196576Y0155040D02*
X0197166Y0156418D01*
X0199135Y0158898D01*
X0199135Y0158928D01*
X0195247Y0156418D02*
X0194670Y0155842D01*
X0194333Y0155842D01*
X0195247Y0154450D02*
X0196576Y0155040D01*
X0193475Y0151448D02*
X0194804Y0150119D01*
X0196772Y0150119D01*
X0199174Y0150080D01*
X0193475Y0151448D02*
X0193229Y0151448D01*
X0190258Y0152450D02*
X0190227Y0152481D01*
X0189243Y0152481D01*
X0189243Y0154450D02*
X0183583Y0154450D01*
X0189243Y0154450D02*
X0189243Y0156418D01*
X0191261Y0157452D02*
X0191261Y0157599D01*
X0189883Y0158977D01*
X0186143Y0158977D01*
X0185670Y0158898D01*
X0185552Y0181556D02*
X0187914Y0183977D01*
X0189243Y0183977D01*
X0189274Y0183946D01*
X0190258Y0183946D01*
X0191261Y0182944D01*
X0191851Y0185207D01*
X0193229Y0188948D01*
X0194333Y0187338D02*
X0193806Y0186811D01*
X0193426Y0185780D01*
X0193426Y0185355D01*
X0194804Y0183977D01*
X0195247Y0183977D01*
X0196822Y0183977D01*
X0199331Y0185946D01*
X0196576Y0186536D02*
X0197166Y0187914D01*
X0199135Y0190394D01*
X0199135Y0190424D01*
X0195247Y0187914D02*
X0194670Y0187338D01*
X0194333Y0187338D01*
X0195247Y0185946D02*
X0196576Y0186536D01*
X0193475Y0182944D02*
X0194804Y0181615D01*
X0196772Y0181615D01*
X0199174Y0181576D01*
X0193475Y0182944D02*
X0193229Y0182944D01*
X0190258Y0183946D02*
X0190227Y0183977D01*
X0189243Y0183977D01*
X0189243Y0185946D02*
X0183583Y0185946D01*
X0189243Y0185946D02*
X0189243Y0187914D01*
X0191261Y0188948D02*
X0191261Y0189095D01*
X0189883Y0190473D01*
X0186143Y0190473D01*
X0185670Y0190394D01*
X0185552Y0213052D02*
X0187914Y0215473D01*
X0189243Y0215473D01*
X0189274Y0215443D01*
X0190258Y0215443D01*
X0191261Y0214440D01*
X0191851Y0216704D01*
X0193229Y0220444D01*
X0194333Y0218834D02*
X0193806Y0218307D01*
X0193426Y0217277D01*
X0193426Y0216851D01*
X0194804Y0215473D01*
X0195247Y0215473D01*
X0196822Y0215473D01*
X0199331Y0217442D01*
X0196576Y0218032D02*
X0197166Y0219410D01*
X0199135Y0221891D01*
X0199135Y0221920D01*
X0195247Y0219410D02*
X0194670Y0218834D01*
X0194333Y0218834D01*
X0195247Y0217442D02*
X0196576Y0218032D01*
X0193475Y0214440D02*
X0194804Y0213111D01*
X0196772Y0213111D01*
X0199174Y0213072D01*
X0193475Y0214440D02*
X0193229Y0214440D01*
X0190258Y0215443D02*
X0190227Y0215473D01*
X0189243Y0215473D01*
X0189243Y0217442D02*
X0183583Y0217442D01*
X0185670Y0221891D02*
X0186143Y0221969D01*
X0189883Y0221969D01*
X0191261Y0220591D01*
X0191261Y0220444D01*
X0189243Y0219410D02*
X0189243Y0217442D01*
X0185552Y0244548D02*
X0187914Y0246969D01*
X0189243Y0246969D01*
X0189274Y0246939D01*
X0190258Y0246939D01*
X0191261Y0245936D01*
X0191851Y0248200D01*
X0193229Y0251940D01*
X0194333Y0250330D02*
X0193806Y0249803D01*
X0193426Y0248773D01*
X0193426Y0248347D01*
X0194804Y0246969D01*
X0195247Y0246969D01*
X0196822Y0246969D01*
X0199331Y0248938D01*
X0196576Y0249528D02*
X0197166Y0250906D01*
X0199135Y0253387D01*
X0199135Y0253416D01*
X0195247Y0250906D02*
X0194670Y0250330D01*
X0194333Y0250330D01*
X0195247Y0248938D02*
X0196576Y0249528D01*
X0193475Y0245936D02*
X0194804Y0244607D01*
X0196772Y0244607D01*
X0199174Y0244568D01*
X0193475Y0245936D02*
X0193229Y0245936D01*
X0190258Y0246939D02*
X0190227Y0246969D01*
X0189243Y0246969D01*
X0189243Y0248938D02*
X0183583Y0248938D01*
X0185670Y0253387D02*
X0186143Y0253465D01*
X0189883Y0253465D01*
X0191261Y0252087D01*
X0191261Y0251940D01*
X0189243Y0250906D02*
X0189243Y0248938D01*
X0185552Y0276044D02*
X0187914Y0278465D01*
X0189243Y0278465D01*
X0189274Y0278435D01*
X0190258Y0278435D01*
X0191261Y0277432D01*
X0191851Y0279696D01*
X0193229Y0283436D01*
X0194333Y0281826D02*
X0193806Y0281299D01*
X0193426Y0280269D01*
X0193426Y0279843D01*
X0194804Y0278465D01*
X0195247Y0278465D01*
X0196822Y0278465D01*
X0199331Y0280434D01*
X0196576Y0281024D02*
X0197166Y0282402D01*
X0199135Y0284883D01*
X0199135Y0284912D01*
X0195247Y0282402D02*
X0194670Y0281826D01*
X0194333Y0281826D01*
X0195247Y0280434D02*
X0196576Y0281024D01*
X0193475Y0277432D02*
X0194804Y0276103D01*
X0196772Y0276103D01*
X0199174Y0276064D01*
X0193475Y0277432D02*
X0193229Y0277432D01*
X0190258Y0278435D02*
X0190227Y0278465D01*
X0189243Y0278465D01*
X0189243Y0280434D02*
X0183583Y0280434D01*
X0185670Y0284883D02*
X0186143Y0284961D01*
X0189883Y0284961D01*
X0191261Y0283583D01*
X0191261Y0283436D01*
X0189243Y0282402D02*
X0189243Y0280434D01*
X0185552Y0307540D02*
X0187914Y0309961D01*
X0189243Y0309961D01*
X0189274Y0309931D01*
X0190258Y0309931D01*
X0191261Y0308928D01*
X0191851Y0311192D01*
X0193229Y0314932D01*
X0194333Y0313322D02*
X0193806Y0312795D01*
X0193426Y0311765D01*
X0193426Y0311339D01*
X0194804Y0309961D01*
X0195247Y0309961D01*
X0196822Y0309961D01*
X0199331Y0311930D01*
X0196576Y0312520D02*
X0197166Y0313898D01*
X0199135Y0316379D01*
X0199135Y0316408D01*
X0195247Y0313898D02*
X0194670Y0313322D01*
X0194333Y0313322D01*
X0195247Y0311930D02*
X0196576Y0312520D01*
X0193475Y0308928D02*
X0194804Y0307599D01*
X0196772Y0307599D01*
X0199174Y0307560D01*
X0193475Y0308928D02*
X0193229Y0308928D01*
X0190258Y0309931D02*
X0190227Y0309961D01*
X0189243Y0309961D01*
X0189243Y0311930D02*
X0183583Y0311930D01*
X0185670Y0316379D02*
X0186143Y0316457D01*
X0189883Y0316457D01*
X0191261Y0315080D01*
X0191261Y0314932D01*
X0189243Y0313898D02*
X0189243Y0311930D01*
X0185552Y0339036D02*
X0187914Y0341457D01*
X0189243Y0341457D01*
X0189274Y0341427D01*
X0190258Y0341427D01*
X0191261Y0340424D01*
X0191851Y0342688D01*
X0193229Y0346428D01*
X0194333Y0344818D02*
X0193806Y0344291D01*
X0193426Y0343261D01*
X0193426Y0342835D01*
X0194804Y0341457D01*
X0195247Y0341457D01*
X0196822Y0341457D01*
X0199331Y0343426D01*
X0196576Y0344017D02*
X0197166Y0345394D01*
X0199135Y0347875D01*
X0199135Y0347904D01*
X0195247Y0345394D02*
X0194670Y0344818D01*
X0194333Y0344818D01*
X0195247Y0343426D02*
X0196576Y0344017D01*
X0193475Y0340424D02*
X0194804Y0339095D01*
X0196772Y0339095D01*
X0199174Y0339056D01*
X0193475Y0340424D02*
X0193229Y0340424D01*
X0190258Y0341427D02*
X0190227Y0341457D01*
X0189243Y0341457D01*
X0189243Y0343426D02*
X0183583Y0343426D01*
X0185670Y0347875D02*
X0186143Y0347954D01*
X0189883Y0347954D01*
X0191261Y0346576D01*
X0191261Y0346428D01*
X0189243Y0345394D02*
X0189243Y0343426D01*
X0185552Y0370532D02*
X0187914Y0372954D01*
X0189243Y0372954D01*
X0189274Y0372923D01*
X0190258Y0372923D01*
X0191261Y0371920D01*
X0191851Y0374184D01*
X0193229Y0377924D01*
X0194333Y0376314D02*
X0193806Y0375787D01*
X0193426Y0374757D01*
X0193426Y0374331D01*
X0194804Y0372954D01*
X0195247Y0372954D01*
X0196822Y0372954D01*
X0199331Y0374922D01*
X0196576Y0375513D02*
X0197166Y0376891D01*
X0199135Y0379371D01*
X0199135Y0379400D01*
X0195247Y0376891D02*
X0194670Y0376314D01*
X0194333Y0376314D01*
X0195247Y0374922D02*
X0196576Y0375513D01*
X0193475Y0371920D02*
X0194804Y0370591D01*
X0196772Y0370591D01*
X0199174Y0370552D01*
X0193475Y0371920D02*
X0193229Y0371920D01*
X0190258Y0372923D02*
X0190227Y0372954D01*
X0189243Y0372954D01*
X0189243Y0374922D02*
X0183583Y0374922D01*
X0185670Y0379371D02*
X0186143Y0379450D01*
X0189883Y0379450D01*
X0191261Y0378072D01*
X0191261Y0377924D01*
X0189243Y0376891D02*
X0189243Y0374922D01*
X0156024Y0374922D02*
X0153515Y0372954D01*
X0151940Y0372954D01*
X0151497Y0372954D01*
X0150119Y0374331D01*
X0150119Y0374757D01*
X0150498Y0375787D01*
X0151026Y0376314D01*
X0151363Y0376314D01*
X0151940Y0376891D01*
X0153269Y0375513D02*
X0153859Y0376891D01*
X0155828Y0379371D01*
X0155828Y0379400D01*
X0153269Y0375513D02*
X0151940Y0374922D01*
X0148544Y0374184D02*
X0147954Y0371920D01*
X0146951Y0372923D01*
X0145967Y0372923D01*
X0145936Y0372954D01*
X0144607Y0372954D01*
X0142245Y0370532D01*
X0145936Y0372954D02*
X0146920Y0372954D01*
X0146951Y0372923D01*
X0148544Y0374184D02*
X0149922Y0377924D01*
X0147954Y0377924D02*
X0147954Y0378072D01*
X0146576Y0379450D01*
X0142835Y0379450D01*
X0142363Y0379371D01*
X0145936Y0376891D02*
X0145936Y0374922D01*
X0140276Y0374922D01*
X0149922Y0371920D02*
X0150168Y0371920D01*
X0151497Y0370591D01*
X0153465Y0370591D01*
X0155867Y0370552D01*
X0155828Y0347904D02*
X0155828Y0347875D01*
X0153859Y0345394D01*
X0153269Y0344017D01*
X0151940Y0343426D01*
X0151363Y0344818D02*
X0151940Y0345394D01*
X0151363Y0344818D02*
X0151026Y0344818D01*
X0150498Y0344291D01*
X0150119Y0343261D01*
X0150119Y0342835D01*
X0151497Y0341457D01*
X0151940Y0341457D01*
X0153515Y0341457D01*
X0156024Y0343426D01*
X0155867Y0339056D02*
X0153465Y0339095D01*
X0151497Y0339095D01*
X0150168Y0340424D01*
X0149922Y0340424D01*
X0147954Y0340424D02*
X0148544Y0342688D01*
X0149922Y0346428D01*
X0147954Y0346428D02*
X0147954Y0346576D01*
X0146576Y0347954D01*
X0142835Y0347954D01*
X0142363Y0347875D01*
X0145936Y0345394D02*
X0145936Y0343426D01*
X0140276Y0343426D01*
X0144607Y0341457D02*
X0142245Y0339036D01*
X0144607Y0341457D02*
X0145936Y0341457D01*
X0145967Y0341427D01*
X0146951Y0341427D01*
X0147954Y0340424D01*
X0146951Y0341427D02*
X0146920Y0341457D01*
X0145936Y0341457D01*
X0146576Y0316457D02*
X0142835Y0316457D01*
X0142363Y0316379D01*
X0146576Y0316457D02*
X0147954Y0315080D01*
X0147954Y0314932D01*
X0149922Y0314932D02*
X0148544Y0311192D01*
X0147954Y0308928D01*
X0146951Y0309931D01*
X0145967Y0309931D01*
X0145936Y0309961D01*
X0144607Y0309961D01*
X0142245Y0307540D01*
X0145936Y0309961D02*
X0146920Y0309961D01*
X0146951Y0309931D01*
X0145936Y0311930D02*
X0145936Y0313898D01*
X0145936Y0311930D02*
X0140276Y0311930D01*
X0150119Y0311765D02*
X0150119Y0311339D01*
X0151497Y0309961D01*
X0151940Y0309961D01*
X0153515Y0309961D01*
X0156024Y0311930D01*
X0153269Y0312520D02*
X0153859Y0313898D01*
X0155828Y0316379D01*
X0155828Y0316408D01*
X0151940Y0313898D02*
X0151363Y0313322D01*
X0151026Y0313322D01*
X0150498Y0312795D01*
X0150119Y0311765D01*
X0151940Y0311930D02*
X0153269Y0312520D01*
X0150168Y0308928D02*
X0151497Y0307599D01*
X0153465Y0307599D01*
X0155867Y0307560D01*
X0150168Y0308928D02*
X0149922Y0308928D01*
X0146576Y0284961D02*
X0142835Y0284961D01*
X0142363Y0284883D01*
X0146576Y0284961D02*
X0147954Y0283583D01*
X0147954Y0283436D01*
X0149922Y0283436D02*
X0148544Y0279696D01*
X0147954Y0277432D01*
X0146951Y0278435D01*
X0145967Y0278435D01*
X0145936Y0278465D01*
X0144607Y0278465D01*
X0142245Y0276044D01*
X0145936Y0278465D02*
X0146920Y0278465D01*
X0146951Y0278435D01*
X0145936Y0280434D02*
X0145936Y0282402D01*
X0145936Y0280434D02*
X0140276Y0280434D01*
X0150119Y0280269D02*
X0150119Y0279843D01*
X0151497Y0278465D01*
X0151940Y0278465D01*
X0153515Y0278465D01*
X0156024Y0280434D01*
X0153269Y0281024D02*
X0153859Y0282402D01*
X0155828Y0284883D01*
X0155828Y0284912D01*
X0151940Y0282402D02*
X0151363Y0281826D01*
X0151026Y0281826D01*
X0150498Y0281299D01*
X0150119Y0280269D01*
X0151940Y0280434D02*
X0153269Y0281024D01*
X0150168Y0277432D02*
X0151497Y0276103D01*
X0153465Y0276103D01*
X0155867Y0276064D01*
X0150168Y0277432D02*
X0149922Y0277432D01*
X0146576Y0253465D02*
X0142835Y0253465D01*
X0142363Y0253387D01*
X0146576Y0253465D02*
X0147954Y0252087D01*
X0147954Y0251940D01*
X0149922Y0251940D02*
X0148544Y0248200D01*
X0147954Y0245936D01*
X0146951Y0246939D01*
X0145967Y0246939D01*
X0145936Y0246969D01*
X0144607Y0246969D01*
X0142245Y0244548D01*
X0145936Y0246969D02*
X0146920Y0246969D01*
X0146951Y0246939D01*
X0145936Y0248938D02*
X0145936Y0250906D01*
X0145936Y0248938D02*
X0140276Y0248938D01*
X0150119Y0248773D02*
X0150119Y0248347D01*
X0151497Y0246969D01*
X0151940Y0246969D01*
X0153515Y0246969D01*
X0156024Y0248938D01*
X0153269Y0249528D02*
X0153859Y0250906D01*
X0155828Y0253387D01*
X0155828Y0253416D01*
X0151940Y0250906D02*
X0151363Y0250330D01*
X0151026Y0250330D01*
X0150498Y0249803D01*
X0150119Y0248773D01*
X0151940Y0248938D02*
X0153269Y0249528D01*
X0150168Y0245936D02*
X0151497Y0244607D01*
X0153465Y0244607D01*
X0155867Y0244568D01*
X0150168Y0245936D02*
X0149922Y0245936D01*
X0146576Y0221969D02*
X0142835Y0221969D01*
X0142363Y0221891D01*
X0146576Y0221969D02*
X0147954Y0220591D01*
X0147954Y0220444D01*
X0149922Y0220444D02*
X0148544Y0216704D01*
X0147954Y0214440D01*
X0146951Y0215443D01*
X0145967Y0215443D01*
X0145936Y0215473D01*
X0144607Y0215473D01*
X0142245Y0213052D01*
X0145936Y0215473D02*
X0146920Y0215473D01*
X0146951Y0215443D01*
X0145936Y0217442D02*
X0145936Y0219410D01*
X0145936Y0217442D02*
X0140276Y0217442D01*
X0150119Y0217277D02*
X0150119Y0216851D01*
X0151497Y0215473D01*
X0151940Y0215473D01*
X0153515Y0215473D01*
X0156024Y0217442D01*
X0153269Y0218032D02*
X0153859Y0219410D01*
X0155828Y0221891D01*
X0155828Y0221920D01*
X0151940Y0219410D02*
X0151363Y0218834D01*
X0151026Y0218834D01*
X0150498Y0218307D01*
X0150119Y0217277D01*
X0151940Y0217442D02*
X0153269Y0218032D01*
X0150168Y0214440D02*
X0151497Y0213111D01*
X0153465Y0213111D01*
X0155867Y0213072D01*
X0150168Y0214440D02*
X0149922Y0214440D01*
X0146576Y0190473D02*
X0142835Y0190473D01*
X0142363Y0190394D01*
X0146576Y0190473D02*
X0147954Y0189095D01*
X0147954Y0188948D01*
X0149922Y0188948D02*
X0148544Y0185207D01*
X0147954Y0182944D01*
X0146951Y0183946D01*
X0145967Y0183946D01*
X0145936Y0183977D01*
X0144607Y0183977D01*
X0142245Y0181556D01*
X0145936Y0183977D02*
X0146920Y0183977D01*
X0146951Y0183946D01*
X0145936Y0185946D02*
X0145936Y0187914D01*
X0145936Y0185946D02*
X0140276Y0185946D01*
X0150119Y0185780D02*
X0150119Y0185355D01*
X0151497Y0183977D01*
X0151940Y0183977D01*
X0153515Y0183977D01*
X0156024Y0185946D01*
X0153269Y0186536D02*
X0153859Y0187914D01*
X0155828Y0190394D01*
X0155828Y0190424D01*
X0151940Y0187914D02*
X0151363Y0187338D01*
X0151026Y0187338D01*
X0150498Y0186811D01*
X0150119Y0185780D01*
X0151940Y0185946D02*
X0153269Y0186536D01*
X0150168Y0182944D02*
X0151497Y0181615D01*
X0153465Y0181615D01*
X0155867Y0181576D01*
X0150168Y0182944D02*
X0149922Y0182944D01*
X0146576Y0158977D02*
X0142835Y0158977D01*
X0142363Y0158898D01*
X0146576Y0158977D02*
X0147954Y0157599D01*
X0147954Y0157452D01*
X0149922Y0157452D02*
X0148544Y0153711D01*
X0147954Y0151448D01*
X0146951Y0152450D01*
X0145967Y0152450D01*
X0145936Y0152481D01*
X0144607Y0152481D01*
X0142245Y0150060D01*
X0145936Y0152481D02*
X0146920Y0152481D01*
X0146951Y0152450D01*
X0145936Y0154450D02*
X0145936Y0156418D01*
X0145936Y0154450D02*
X0140276Y0154450D01*
X0150119Y0154284D02*
X0150119Y0153859D01*
X0151497Y0152481D01*
X0151940Y0152481D01*
X0153515Y0152481D01*
X0156024Y0154450D01*
X0153269Y0155040D02*
X0153859Y0156418D01*
X0155828Y0158898D01*
X0155828Y0158928D01*
X0151940Y0156418D02*
X0151363Y0155842D01*
X0151026Y0155842D01*
X0150498Y0155315D01*
X0150119Y0154284D01*
X0151940Y0154450D02*
X0153269Y0155040D01*
X0150168Y0151448D02*
X0151497Y0150119D01*
X0153465Y0150119D01*
X0155867Y0150080D01*
X0150168Y0151448D02*
X0149922Y0151448D01*
X0146576Y0127481D02*
X0142835Y0127481D01*
X0142363Y0127402D01*
X0146576Y0127481D02*
X0147954Y0126103D01*
X0147954Y0125956D01*
X0149922Y0125956D02*
X0148544Y0122215D01*
X0147954Y0119952D01*
X0146951Y0120954D01*
X0145967Y0120954D01*
X0145936Y0120985D01*
X0144607Y0120985D01*
X0142245Y0118564D01*
X0145936Y0120985D02*
X0146920Y0120985D01*
X0146951Y0120954D01*
X0145936Y0122954D02*
X0140276Y0122954D01*
X0145936Y0122954D02*
X0145936Y0124922D01*
X0150498Y0123818D02*
X0150119Y0122788D01*
X0150119Y0122363D01*
X0151497Y0120985D01*
X0151940Y0120985D01*
X0153515Y0120985D01*
X0156024Y0122954D01*
X0153269Y0123544D02*
X0153859Y0124922D01*
X0155828Y0127402D01*
X0155828Y0127432D01*
X0151940Y0124922D02*
X0151363Y0124346D01*
X0151026Y0124346D01*
X0150498Y0123818D01*
X0151940Y0122954D02*
X0153269Y0123544D01*
X0150168Y0119952D02*
X0151497Y0118623D01*
X0153465Y0118623D01*
X0155867Y0118583D01*
X0150168Y0119952D02*
X0149922Y0119952D01*
X0146576Y0095985D02*
X0142835Y0095985D01*
X0142363Y0095906D01*
X0146576Y0095985D02*
X0147954Y0094607D01*
X0147954Y0094459D01*
X0149922Y0094459D02*
X0148544Y0090719D01*
X0147954Y0088456D01*
X0146951Y0089458D01*
X0145967Y0089458D01*
X0145936Y0089489D01*
X0144607Y0089489D01*
X0142245Y0087068D01*
X0145936Y0089489D02*
X0146920Y0089489D01*
X0146951Y0089458D01*
X0145936Y0091457D02*
X0140276Y0091457D01*
X0145936Y0091457D02*
X0145936Y0093426D01*
X0150498Y0092322D02*
X0150119Y0091292D01*
X0150119Y0090867D01*
X0151497Y0089489D01*
X0151940Y0089489D01*
X0153515Y0089489D01*
X0156024Y0091457D01*
X0153269Y0092048D02*
X0153859Y0093426D01*
X0155828Y0095906D01*
X0155828Y0095936D01*
X0151940Y0093426D02*
X0151363Y0092850D01*
X0151026Y0092850D01*
X0150498Y0092322D01*
X0151940Y0091457D02*
X0153269Y0092048D01*
X0150168Y0088456D02*
X0151497Y0087127D01*
X0153465Y0087127D01*
X0155867Y0087087D01*
X0150168Y0088456D02*
X0149922Y0088456D01*
X0226891Y0091457D02*
X0232550Y0091457D01*
X0232550Y0093426D01*
X0234568Y0094459D02*
X0234568Y0094607D01*
X0233190Y0095985D01*
X0229450Y0095985D01*
X0228977Y0095906D01*
X0231221Y0089489D02*
X0228859Y0087068D01*
X0231221Y0089489D02*
X0232550Y0089489D01*
X0232581Y0089458D01*
X0233565Y0089458D01*
X0234568Y0088456D01*
X0235158Y0090719D01*
X0236536Y0094459D01*
X0237640Y0092850D02*
X0237978Y0092850D01*
X0238554Y0093426D01*
X0237640Y0092850D02*
X0237113Y0092322D01*
X0236733Y0091292D01*
X0236733Y0090867D01*
X0238111Y0089489D01*
X0238554Y0089489D01*
X0240129Y0089489D01*
X0242639Y0091457D01*
X0239883Y0092048D02*
X0240473Y0093426D01*
X0242442Y0095906D01*
X0242442Y0095936D01*
X0239883Y0092048D02*
X0238554Y0091457D01*
X0236782Y0088456D02*
X0238111Y0087127D01*
X0240080Y0087127D01*
X0242481Y0087087D01*
X0236782Y0088456D02*
X0236536Y0088456D01*
X0233565Y0089458D02*
X0233534Y0089489D01*
X0232550Y0089489D01*
X0233190Y0064489D02*
X0229450Y0064489D01*
X0228977Y0064410D01*
X0233190Y0064489D02*
X0234568Y0063111D01*
X0234568Y0062963D01*
X0236536Y0062963D02*
X0235158Y0059223D01*
X0234568Y0056959D01*
X0233565Y0057962D01*
X0232581Y0057962D01*
X0232550Y0057993D01*
X0231221Y0057993D01*
X0228859Y0055572D01*
X0232550Y0057993D02*
X0233534Y0057993D01*
X0233565Y0057962D01*
X0232550Y0059961D02*
X0226891Y0059961D01*
X0232550Y0059961D02*
X0232550Y0061930D01*
X0237113Y0060826D02*
X0236733Y0059796D01*
X0236733Y0059371D01*
X0238111Y0057993D01*
X0238554Y0057993D01*
X0240129Y0057993D01*
X0242639Y0059961D01*
X0239883Y0060552D02*
X0240473Y0061930D01*
X0242442Y0064410D01*
X0242442Y0064440D01*
X0238554Y0061930D02*
X0237978Y0061354D01*
X0237640Y0061354D01*
X0237113Y0060826D01*
X0238554Y0059961D02*
X0239883Y0060552D01*
X0236782Y0056959D02*
X0238111Y0055631D01*
X0240080Y0055631D01*
X0242481Y0055591D01*
X0236782Y0056959D02*
X0236536Y0056959D01*
X0233190Y0032993D02*
X0229450Y0032993D01*
X0228977Y0032914D01*
X0233190Y0032993D02*
X0234568Y0031615D01*
X0234568Y0031467D01*
X0236536Y0031467D02*
X0235158Y0027727D01*
X0234568Y0025463D01*
X0233565Y0026466D01*
X0232581Y0026466D01*
X0232550Y0026497D01*
X0231221Y0026497D01*
X0228859Y0024076D01*
X0232550Y0026497D02*
X0233534Y0026497D01*
X0233565Y0026466D01*
X0232550Y0028465D02*
X0226891Y0028465D01*
X0232550Y0028465D02*
X0232550Y0030434D01*
X0237113Y0029330D02*
X0236733Y0028300D01*
X0236733Y0027875D01*
X0238111Y0026497D01*
X0238554Y0026497D01*
X0240129Y0026497D01*
X0242639Y0028465D01*
X0239883Y0029056D02*
X0240473Y0030434D01*
X0242442Y0032914D01*
X0242442Y0032944D01*
X0238554Y0030434D02*
X0237978Y0029857D01*
X0237640Y0029857D01*
X0237113Y0029330D01*
X0238554Y0028465D02*
X0239883Y0029056D01*
X0236782Y0025463D02*
X0238111Y0024135D01*
X0240080Y0024135D01*
X0242481Y0024095D01*
X0236782Y0025463D02*
X0236536Y0025463D01*
X0266261Y0028465D02*
X0271920Y0028465D01*
X0271920Y0030434D01*
X0273938Y0031467D02*
X0273938Y0031615D01*
X0272560Y0032993D01*
X0268820Y0032993D01*
X0268347Y0032914D01*
X0270591Y0026497D02*
X0268229Y0024076D01*
X0270591Y0026497D02*
X0271920Y0026497D01*
X0271951Y0026466D01*
X0272935Y0026466D01*
X0273938Y0025463D01*
X0274528Y0027727D01*
X0275906Y0031467D01*
X0277010Y0029857D02*
X0277348Y0029857D01*
X0277924Y0030434D01*
X0277010Y0029857D02*
X0276483Y0029330D01*
X0276103Y0028300D01*
X0276103Y0027875D01*
X0277481Y0026497D01*
X0277924Y0026497D01*
X0279499Y0026497D01*
X0282009Y0028465D01*
X0279253Y0029056D02*
X0279843Y0030434D01*
X0281812Y0032914D01*
X0281812Y0032944D01*
X0279253Y0029056D02*
X0277924Y0028465D01*
X0276152Y0025463D02*
X0277481Y0024135D01*
X0279450Y0024135D01*
X0281851Y0024095D01*
X0276152Y0025463D02*
X0275906Y0025463D01*
X0272935Y0026466D02*
X0272904Y0026497D01*
X0271920Y0026497D01*
X0268229Y0055572D02*
X0270591Y0057993D01*
X0271920Y0057993D01*
X0271951Y0057962D01*
X0272935Y0057962D01*
X0273938Y0056959D01*
X0274528Y0059223D01*
X0275906Y0062963D01*
X0277010Y0061354D02*
X0277348Y0061354D01*
X0277924Y0061930D01*
X0277010Y0061354D02*
X0276483Y0060826D01*
X0276103Y0059796D01*
X0276103Y0059371D01*
X0277481Y0057993D01*
X0277924Y0057993D01*
X0279499Y0057993D01*
X0282009Y0059961D01*
X0279253Y0060552D02*
X0279843Y0061930D01*
X0281812Y0064410D01*
X0281812Y0064440D01*
X0279253Y0060552D02*
X0277924Y0059961D01*
X0276152Y0056959D02*
X0277481Y0055631D01*
X0279450Y0055631D01*
X0281851Y0055591D01*
X0276152Y0056959D02*
X0275906Y0056959D01*
X0272935Y0057962D02*
X0272904Y0057993D01*
X0271920Y0057993D01*
X0271920Y0059961D02*
X0266261Y0059961D01*
X0268347Y0064410D02*
X0268820Y0064489D01*
X0272560Y0064489D01*
X0273938Y0063111D01*
X0273938Y0062963D01*
X0271920Y0061930D02*
X0271920Y0059961D01*
X0268229Y0087068D02*
X0270591Y0089489D01*
X0271920Y0089489D01*
X0271951Y0089458D01*
X0272935Y0089458D01*
X0273938Y0088456D01*
X0274528Y0090719D01*
X0275906Y0094459D01*
X0277010Y0092850D02*
X0277348Y0092850D01*
X0277924Y0093426D01*
X0277010Y0092850D02*
X0276483Y0092322D01*
X0276103Y0091292D01*
X0276103Y0090867D01*
X0277481Y0089489D01*
X0277924Y0089489D01*
X0279499Y0089489D01*
X0282009Y0091457D01*
X0279253Y0092048D02*
X0279843Y0093426D01*
X0281812Y0095906D01*
X0281812Y0095936D01*
X0279253Y0092048D02*
X0277924Y0091457D01*
X0276152Y0088456D02*
X0277481Y0087127D01*
X0279450Y0087127D01*
X0281851Y0087087D01*
X0276152Y0088456D02*
X0275906Y0088456D01*
X0272935Y0089458D02*
X0272904Y0089489D01*
X0271920Y0089489D01*
X0271920Y0091457D02*
X0266261Y0091457D01*
X0268347Y0095906D02*
X0268820Y0095985D01*
X0272560Y0095985D01*
X0273938Y0094607D01*
X0273938Y0094459D01*
X0271920Y0093426D02*
X0271920Y0091457D01*
X0268229Y0118564D02*
X0270591Y0120985D01*
X0271920Y0120985D01*
X0271951Y0120954D01*
X0272935Y0120954D01*
X0273938Y0119952D01*
X0274528Y0122215D01*
X0275906Y0125956D01*
X0277010Y0124346D02*
X0277348Y0124346D01*
X0277924Y0124922D01*
X0277010Y0124346D02*
X0276483Y0123818D01*
X0276103Y0122788D01*
X0276103Y0122363D01*
X0277481Y0120985D01*
X0277924Y0120985D01*
X0279499Y0120985D01*
X0282009Y0122954D01*
X0279253Y0123544D02*
X0279843Y0124922D01*
X0281812Y0127402D01*
X0281812Y0127432D01*
X0279253Y0123544D02*
X0277924Y0122954D01*
X0276152Y0119952D02*
X0277481Y0118623D01*
X0279450Y0118623D01*
X0281851Y0118583D01*
X0276152Y0119952D02*
X0275906Y0119952D01*
X0272935Y0120954D02*
X0272904Y0120985D01*
X0271920Y0120985D01*
X0271920Y0122954D02*
X0266261Y0122954D01*
X0268347Y0127402D02*
X0268820Y0127481D01*
X0272560Y0127481D01*
X0273938Y0126103D01*
X0273938Y0125956D01*
X0271920Y0124922D02*
X0271920Y0122954D01*
X0268229Y0150060D02*
X0270591Y0152481D01*
X0271920Y0152481D01*
X0271951Y0152450D01*
X0272935Y0152450D01*
X0273938Y0151448D01*
X0274528Y0153711D01*
X0275906Y0157452D01*
X0277010Y0155842D02*
X0277348Y0155842D01*
X0277924Y0156418D01*
X0277010Y0155842D02*
X0276483Y0155315D01*
X0276103Y0154284D01*
X0276103Y0153859D01*
X0277481Y0152481D01*
X0277924Y0152481D01*
X0279499Y0152481D01*
X0282009Y0154450D01*
X0279253Y0155040D02*
X0279843Y0156418D01*
X0281812Y0158898D01*
X0281812Y0158928D01*
X0279253Y0155040D02*
X0277924Y0154450D01*
X0276152Y0151448D02*
X0277481Y0150119D01*
X0279450Y0150119D01*
X0281851Y0150080D01*
X0276152Y0151448D02*
X0275906Y0151448D01*
X0272935Y0152450D02*
X0272904Y0152481D01*
X0271920Y0152481D01*
X0271920Y0154450D02*
X0266261Y0154450D01*
X0271920Y0154450D02*
X0271920Y0156418D01*
X0273938Y0157452D02*
X0273938Y0157599D01*
X0272560Y0158977D01*
X0268820Y0158977D01*
X0268347Y0158898D01*
X0268229Y0181556D02*
X0270591Y0183977D01*
X0271920Y0183977D01*
X0271951Y0183946D01*
X0272935Y0183946D01*
X0273938Y0182944D01*
X0274528Y0185207D01*
X0275906Y0188948D01*
X0277010Y0187338D02*
X0277348Y0187338D01*
X0277924Y0187914D01*
X0277010Y0187338D02*
X0276483Y0186811D01*
X0276103Y0185780D01*
X0276103Y0185355D01*
X0277481Y0183977D01*
X0277924Y0183977D01*
X0279499Y0183977D01*
X0282009Y0185946D01*
X0279253Y0186536D02*
X0279843Y0187914D01*
X0281812Y0190394D01*
X0281812Y0190424D01*
X0279253Y0186536D02*
X0277924Y0185946D01*
X0276152Y0182944D02*
X0277481Y0181615D01*
X0279450Y0181615D01*
X0281851Y0181576D01*
X0276152Y0182944D02*
X0275906Y0182944D01*
X0272935Y0183946D02*
X0272904Y0183977D01*
X0271920Y0183977D01*
X0271920Y0185946D02*
X0266261Y0185946D01*
X0271920Y0185946D02*
X0271920Y0187914D01*
X0273938Y0188948D02*
X0273938Y0189095D01*
X0272560Y0190473D01*
X0268820Y0190473D01*
X0268347Y0190394D01*
X0268229Y0213052D02*
X0270591Y0215473D01*
X0271920Y0215473D01*
X0271951Y0215443D01*
X0272935Y0215443D01*
X0273938Y0214440D01*
X0274528Y0216704D01*
X0275906Y0220444D01*
X0277010Y0218834D02*
X0277348Y0218834D01*
X0277924Y0219410D01*
X0277010Y0218834D02*
X0276483Y0218307D01*
X0276103Y0217277D01*
X0276103Y0216851D01*
X0277481Y0215473D01*
X0277924Y0215473D01*
X0279499Y0215473D01*
X0282009Y0217442D01*
X0279253Y0218032D02*
X0279843Y0219410D01*
X0281812Y0221891D01*
X0281812Y0221920D01*
X0279253Y0218032D02*
X0277924Y0217442D01*
X0276152Y0214440D02*
X0277481Y0213111D01*
X0279450Y0213111D01*
X0281851Y0213072D01*
X0276152Y0214440D02*
X0275906Y0214440D01*
X0272935Y0215443D02*
X0272904Y0215473D01*
X0271920Y0215473D01*
X0271920Y0217442D02*
X0266261Y0217442D01*
X0268347Y0221891D02*
X0268820Y0221969D01*
X0272560Y0221969D01*
X0273938Y0220591D01*
X0273938Y0220444D01*
X0271920Y0219410D02*
X0271920Y0217442D01*
X0268229Y0244548D02*
X0270591Y0246969D01*
X0271920Y0246969D01*
X0271951Y0246939D01*
X0272935Y0246939D01*
X0273938Y0245936D01*
X0274528Y0248200D01*
X0275906Y0251940D01*
X0277010Y0250330D02*
X0277348Y0250330D01*
X0277924Y0250906D01*
X0277010Y0250330D02*
X0276483Y0249803D01*
X0276103Y0248773D01*
X0276103Y0248347D01*
X0277481Y0246969D01*
X0277924Y0246969D01*
X0279499Y0246969D01*
X0282009Y0248938D01*
X0279253Y0249528D02*
X0279843Y0250906D01*
X0281812Y0253387D01*
X0281812Y0253416D01*
X0279253Y0249528D02*
X0277924Y0248938D01*
X0276152Y0245936D02*
X0277481Y0244607D01*
X0279450Y0244607D01*
X0281851Y0244568D01*
X0276152Y0245936D02*
X0275906Y0245936D01*
X0272935Y0246939D02*
X0272904Y0246969D01*
X0271920Y0246969D01*
X0271920Y0248938D02*
X0266261Y0248938D01*
X0268347Y0253387D02*
X0268820Y0253465D01*
X0272560Y0253465D01*
X0273938Y0252087D01*
X0273938Y0251940D01*
X0271920Y0250906D02*
X0271920Y0248938D01*
X0268229Y0276044D02*
X0270591Y0278465D01*
X0271920Y0278465D01*
X0271951Y0278435D01*
X0272935Y0278435D01*
X0273938Y0277432D01*
X0274528Y0279696D01*
X0275906Y0283436D01*
X0277010Y0281826D02*
X0277348Y0281826D01*
X0277924Y0282402D01*
X0277010Y0281826D02*
X0276483Y0281299D01*
X0276103Y0280269D01*
X0276103Y0279843D01*
X0277481Y0278465D01*
X0277924Y0278465D01*
X0279499Y0278465D01*
X0282009Y0280434D01*
X0279253Y0281024D02*
X0279843Y0282402D01*
X0281812Y0284883D01*
X0281812Y0284912D01*
X0279253Y0281024D02*
X0277924Y0280434D01*
X0276152Y0277432D02*
X0277481Y0276103D01*
X0279450Y0276103D01*
X0281851Y0276064D01*
X0276152Y0277432D02*
X0275906Y0277432D01*
X0272935Y0278435D02*
X0272904Y0278465D01*
X0271920Y0278465D01*
X0271920Y0280434D02*
X0266261Y0280434D01*
X0268347Y0284883D02*
X0268820Y0284961D01*
X0272560Y0284961D01*
X0273938Y0283583D01*
X0273938Y0283436D01*
X0271920Y0282402D02*
X0271920Y0280434D01*
X0268229Y0307540D02*
X0270591Y0309961D01*
X0271920Y0309961D01*
X0271951Y0309931D01*
X0272935Y0309931D01*
X0273938Y0308928D01*
X0274528Y0311192D01*
X0275906Y0314932D01*
X0277010Y0313322D02*
X0277348Y0313322D01*
X0277924Y0313898D01*
X0277010Y0313322D02*
X0276483Y0312795D01*
X0276103Y0311765D01*
X0276103Y0311339D01*
X0277481Y0309961D01*
X0277924Y0309961D01*
X0279499Y0309961D01*
X0282009Y0311930D01*
X0279253Y0312520D02*
X0279843Y0313898D01*
X0281812Y0316379D01*
X0281812Y0316408D01*
X0279253Y0312520D02*
X0277924Y0311930D01*
X0276152Y0308928D02*
X0277481Y0307599D01*
X0279450Y0307599D01*
X0281851Y0307560D01*
X0276152Y0308928D02*
X0275906Y0308928D01*
X0272935Y0309931D02*
X0272904Y0309961D01*
X0271920Y0309961D01*
X0271920Y0311930D02*
X0266261Y0311930D01*
X0268347Y0316379D02*
X0268820Y0316457D01*
X0272560Y0316457D01*
X0273938Y0315080D01*
X0273938Y0314932D01*
X0271920Y0313898D02*
X0271920Y0311930D01*
X0268229Y0339036D02*
X0270591Y0341457D01*
X0271920Y0341457D01*
X0271951Y0341427D01*
X0272935Y0341427D01*
X0273938Y0340424D01*
X0274528Y0342688D01*
X0275906Y0346428D01*
X0277010Y0344818D02*
X0277348Y0344818D01*
X0277924Y0345394D01*
X0277010Y0344818D02*
X0276483Y0344291D01*
X0276103Y0343261D01*
X0276103Y0342835D01*
X0277481Y0341457D01*
X0277924Y0341457D01*
X0279499Y0341457D01*
X0282009Y0343426D01*
X0279253Y0344017D02*
X0279843Y0345394D01*
X0281812Y0347875D01*
X0281812Y0347904D01*
X0279253Y0344017D02*
X0277924Y0343426D01*
X0276152Y0340424D02*
X0277481Y0339095D01*
X0279450Y0339095D01*
X0281851Y0339056D01*
X0276152Y0340424D02*
X0275906Y0340424D01*
X0272935Y0341427D02*
X0272904Y0341457D01*
X0271920Y0341457D01*
X0271920Y0343426D02*
X0266261Y0343426D01*
X0268347Y0347875D02*
X0268820Y0347954D01*
X0272560Y0347954D01*
X0273938Y0346576D01*
X0273938Y0346428D01*
X0271920Y0345394D02*
X0271920Y0343426D01*
X0268229Y0370532D02*
X0270591Y0372954D01*
X0271920Y0372954D01*
X0271951Y0372923D01*
X0272935Y0372923D01*
X0273938Y0371920D01*
X0274528Y0374184D01*
X0275906Y0377924D01*
X0277010Y0376314D02*
X0277348Y0376314D01*
X0277924Y0376891D01*
X0277010Y0376314D02*
X0276483Y0375787D01*
X0276103Y0374757D01*
X0276103Y0374331D01*
X0277481Y0372954D01*
X0277924Y0372954D01*
X0279499Y0372954D01*
X0282009Y0374922D01*
X0279253Y0375513D02*
X0279843Y0376891D01*
X0281812Y0379371D01*
X0281812Y0379400D01*
X0279253Y0375513D02*
X0277924Y0374922D01*
X0276152Y0371920D02*
X0277481Y0370591D01*
X0279450Y0370591D01*
X0281851Y0370552D01*
X0276152Y0371920D02*
X0275906Y0371920D01*
X0272935Y0372923D02*
X0272904Y0372954D01*
X0271920Y0372954D01*
X0271920Y0374922D02*
X0266261Y0374922D01*
X0268347Y0379371D02*
X0268820Y0379450D01*
X0272560Y0379450D01*
X0273938Y0378072D01*
X0273938Y0377924D01*
X0271920Y0376891D02*
X0271920Y0374922D01*
X0242639Y0374922D02*
X0240129Y0372954D01*
X0238554Y0372954D01*
X0238111Y0372954D01*
X0236733Y0374331D01*
X0236733Y0374757D01*
X0237113Y0375787D01*
X0237640Y0376314D01*
X0237978Y0376314D01*
X0238554Y0376891D01*
X0239883Y0375513D02*
X0240473Y0376891D01*
X0242442Y0379371D01*
X0242442Y0379400D01*
X0239883Y0375513D02*
X0238554Y0374922D01*
X0235158Y0374184D02*
X0234568Y0371920D01*
X0233565Y0372923D01*
X0232581Y0372923D01*
X0232550Y0372954D01*
X0231221Y0372954D01*
X0228859Y0370532D01*
X0232550Y0372954D02*
X0233534Y0372954D01*
X0233565Y0372923D01*
X0235158Y0374184D02*
X0236536Y0377924D01*
X0234568Y0377924D02*
X0234568Y0378072D01*
X0233190Y0379450D01*
X0229450Y0379450D01*
X0228977Y0379371D01*
X0232550Y0376891D02*
X0232550Y0374922D01*
X0226891Y0374922D01*
X0236536Y0371920D02*
X0236782Y0371920D01*
X0238111Y0370591D01*
X0240080Y0370591D01*
X0242481Y0370552D01*
X0242442Y0347904D02*
X0242442Y0347875D01*
X0240473Y0345394D01*
X0239883Y0344017D01*
X0238554Y0343426D01*
X0237978Y0344818D02*
X0237640Y0344818D01*
X0237113Y0344291D01*
X0236733Y0343261D01*
X0236733Y0342835D01*
X0238111Y0341457D01*
X0238554Y0341457D01*
X0240129Y0341457D01*
X0242639Y0343426D01*
X0242481Y0339056D02*
X0240080Y0339095D01*
X0238111Y0339095D01*
X0236782Y0340424D01*
X0236536Y0340424D01*
X0234568Y0340424D02*
X0235158Y0342688D01*
X0236536Y0346428D01*
X0234568Y0346428D02*
X0234568Y0346576D01*
X0233190Y0347954D01*
X0229450Y0347954D01*
X0228977Y0347875D01*
X0232550Y0345394D02*
X0232550Y0343426D01*
X0226891Y0343426D01*
X0231221Y0341457D02*
X0228859Y0339036D01*
X0231221Y0341457D02*
X0232550Y0341457D01*
X0232581Y0341427D01*
X0233565Y0341427D01*
X0234568Y0340424D01*
X0233565Y0341427D02*
X0233534Y0341457D01*
X0232550Y0341457D01*
X0237978Y0344818D02*
X0238554Y0345394D01*
X0242442Y0316408D02*
X0242442Y0316379D01*
X0240473Y0313898D01*
X0239883Y0312520D01*
X0238554Y0311930D01*
X0237978Y0313322D02*
X0237640Y0313322D01*
X0237113Y0312795D01*
X0236733Y0311765D01*
X0236733Y0311339D01*
X0238111Y0309961D01*
X0238554Y0309961D01*
X0240129Y0309961D01*
X0242639Y0311930D01*
X0242481Y0307560D02*
X0240080Y0307599D01*
X0238111Y0307599D01*
X0236782Y0308928D01*
X0236536Y0308928D01*
X0234568Y0308928D02*
X0235158Y0311192D01*
X0236536Y0314932D01*
X0234568Y0314932D02*
X0234568Y0315080D01*
X0233190Y0316457D01*
X0229450Y0316457D01*
X0228977Y0316379D01*
X0232550Y0313898D02*
X0232550Y0311930D01*
X0226891Y0311930D01*
X0231221Y0309961D02*
X0228859Y0307540D01*
X0231221Y0309961D02*
X0232550Y0309961D01*
X0232581Y0309931D01*
X0233565Y0309931D01*
X0234568Y0308928D01*
X0233565Y0309931D02*
X0233534Y0309961D01*
X0232550Y0309961D01*
X0237978Y0313322D02*
X0238554Y0313898D01*
X0242442Y0284912D02*
X0242442Y0284883D01*
X0240473Y0282402D01*
X0239883Y0281024D01*
X0238554Y0280434D01*
X0237978Y0281826D02*
X0237640Y0281826D01*
X0237113Y0281299D01*
X0236733Y0280269D01*
X0236733Y0279843D01*
X0238111Y0278465D01*
X0238554Y0278465D01*
X0240129Y0278465D01*
X0242639Y0280434D01*
X0242481Y0276064D02*
X0240080Y0276103D01*
X0238111Y0276103D01*
X0236782Y0277432D01*
X0236536Y0277432D01*
X0234568Y0277432D02*
X0235158Y0279696D01*
X0236536Y0283436D01*
X0234568Y0283436D02*
X0234568Y0283583D01*
X0233190Y0284961D01*
X0229450Y0284961D01*
X0228977Y0284883D01*
X0232550Y0282402D02*
X0232550Y0280434D01*
X0226891Y0280434D01*
X0231221Y0278465D02*
X0228859Y0276044D01*
X0231221Y0278465D02*
X0232550Y0278465D01*
X0232581Y0278435D01*
X0233565Y0278435D01*
X0234568Y0277432D01*
X0233565Y0278435D02*
X0233534Y0278465D01*
X0232550Y0278465D01*
X0237978Y0281826D02*
X0238554Y0282402D01*
X0242442Y0253416D02*
X0242442Y0253387D01*
X0240473Y0250906D01*
X0239883Y0249528D01*
X0238554Y0248938D01*
X0237978Y0250330D02*
X0237640Y0250330D01*
X0237113Y0249803D01*
X0236733Y0248773D01*
X0236733Y0248347D01*
X0238111Y0246969D01*
X0238554Y0246969D01*
X0240129Y0246969D01*
X0242639Y0248938D01*
X0242481Y0244568D02*
X0240080Y0244607D01*
X0238111Y0244607D01*
X0236782Y0245936D01*
X0236536Y0245936D01*
X0234568Y0245936D02*
X0235158Y0248200D01*
X0236536Y0251940D01*
X0234568Y0251940D02*
X0234568Y0252087D01*
X0233190Y0253465D01*
X0229450Y0253465D01*
X0228977Y0253387D01*
X0232550Y0250906D02*
X0232550Y0248938D01*
X0226891Y0248938D01*
X0231221Y0246969D02*
X0228859Y0244548D01*
X0231221Y0246969D02*
X0232550Y0246969D01*
X0232581Y0246939D01*
X0233565Y0246939D01*
X0234568Y0245936D01*
X0233565Y0246939D02*
X0233534Y0246969D01*
X0232550Y0246969D01*
X0237978Y0250330D02*
X0238554Y0250906D01*
X0233190Y0221969D02*
X0229450Y0221969D01*
X0228977Y0221891D01*
X0233190Y0221969D02*
X0234568Y0220591D01*
X0234568Y0220444D01*
X0236536Y0220444D02*
X0235158Y0216704D01*
X0234568Y0214440D01*
X0233565Y0215443D01*
X0232581Y0215443D01*
X0232550Y0215473D01*
X0231221Y0215473D01*
X0228859Y0213052D01*
X0232550Y0215473D02*
X0233534Y0215473D01*
X0233565Y0215443D01*
X0232550Y0217442D02*
X0226891Y0217442D01*
X0232550Y0217442D02*
X0232550Y0219410D01*
X0237113Y0218307D02*
X0236733Y0217277D01*
X0236733Y0216851D01*
X0238111Y0215473D01*
X0238554Y0215473D01*
X0240129Y0215473D01*
X0242639Y0217442D01*
X0239883Y0218032D02*
X0240473Y0219410D01*
X0242442Y0221891D01*
X0242442Y0221920D01*
X0238554Y0219410D02*
X0237978Y0218834D01*
X0237640Y0218834D01*
X0237113Y0218307D01*
X0238554Y0217442D02*
X0239883Y0218032D01*
X0236782Y0214440D02*
X0238111Y0213111D01*
X0240080Y0213111D01*
X0242481Y0213072D01*
X0236782Y0214440D02*
X0236536Y0214440D01*
X0233190Y0190473D02*
X0229450Y0190473D01*
X0228977Y0190394D01*
X0233190Y0190473D02*
X0234568Y0189095D01*
X0234568Y0188948D01*
X0236536Y0188948D02*
X0235158Y0185207D01*
X0234568Y0182944D01*
X0233565Y0183946D01*
X0232581Y0183946D01*
X0232550Y0183977D01*
X0231221Y0183977D01*
X0228859Y0181556D01*
X0232550Y0183977D02*
X0233534Y0183977D01*
X0233565Y0183946D01*
X0232550Y0185946D02*
X0226891Y0185946D01*
X0232550Y0185946D02*
X0232550Y0187914D01*
X0237113Y0186811D02*
X0236733Y0185780D01*
X0236733Y0185355D01*
X0238111Y0183977D01*
X0238554Y0183977D01*
X0240129Y0183977D01*
X0242639Y0185946D01*
X0239883Y0186536D02*
X0240473Y0187914D01*
X0242442Y0190394D01*
X0242442Y0190424D01*
X0238554Y0187914D02*
X0237978Y0187338D01*
X0237640Y0187338D01*
X0237113Y0186811D01*
X0238554Y0185946D02*
X0239883Y0186536D01*
X0236782Y0182944D02*
X0238111Y0181615D01*
X0240080Y0181615D01*
X0242481Y0181576D01*
X0236782Y0182944D02*
X0236536Y0182944D01*
X0233190Y0158977D02*
X0229450Y0158977D01*
X0228977Y0158898D01*
X0233190Y0158977D02*
X0234568Y0157599D01*
X0234568Y0157452D01*
X0236536Y0157452D02*
X0235158Y0153711D01*
X0234568Y0151448D01*
X0233565Y0152450D01*
X0232581Y0152450D01*
X0232550Y0152481D01*
X0231221Y0152481D01*
X0228859Y0150060D01*
X0232550Y0152481D02*
X0233534Y0152481D01*
X0233565Y0152450D01*
X0232550Y0154450D02*
X0226891Y0154450D01*
X0232550Y0154450D02*
X0232550Y0156418D01*
X0237113Y0155315D02*
X0236733Y0154284D01*
X0236733Y0153859D01*
X0238111Y0152481D01*
X0238554Y0152481D01*
X0240129Y0152481D01*
X0242639Y0154450D01*
X0239883Y0155040D02*
X0240473Y0156418D01*
X0242442Y0158898D01*
X0242442Y0158928D01*
X0238554Y0156418D02*
X0237978Y0155842D01*
X0237640Y0155842D01*
X0237113Y0155315D01*
X0238554Y0154450D02*
X0239883Y0155040D01*
X0236782Y0151448D02*
X0238111Y0150119D01*
X0240080Y0150119D01*
X0242481Y0150080D01*
X0236782Y0151448D02*
X0236536Y0151448D01*
X0233190Y0127481D02*
X0229450Y0127481D01*
X0228977Y0127402D01*
X0233190Y0127481D02*
X0234568Y0126103D01*
X0234568Y0125956D01*
X0236536Y0125956D02*
X0235158Y0122215D01*
X0234568Y0119952D01*
X0233565Y0120954D01*
X0232581Y0120954D01*
X0232550Y0120985D01*
X0231221Y0120985D01*
X0228859Y0118564D01*
X0232550Y0120985D02*
X0233534Y0120985D01*
X0233565Y0120954D01*
X0232550Y0122954D02*
X0226891Y0122954D01*
X0232550Y0122954D02*
X0232550Y0124922D01*
X0237113Y0123818D02*
X0236733Y0122788D01*
X0236733Y0122363D01*
X0238111Y0120985D01*
X0238554Y0120985D01*
X0240129Y0120985D01*
X0242639Y0122954D01*
X0239883Y0123544D02*
X0240473Y0124922D01*
X0242442Y0127402D01*
X0242442Y0127432D01*
X0238554Y0124922D02*
X0237978Y0124346D01*
X0237640Y0124346D01*
X0237113Y0123818D01*
X0238554Y0122954D02*
X0239883Y0123544D01*
X0236782Y0119952D02*
X0238111Y0118623D01*
X0240080Y0118623D01*
X0242481Y0118583D01*
X0236782Y0119952D02*
X0236536Y0119952D01*
X0309568Y0122954D02*
X0315227Y0122954D01*
X0315227Y0124922D01*
X0317245Y0125956D02*
X0317245Y0126103D01*
X0315867Y0127481D01*
X0312127Y0127481D01*
X0311654Y0127402D01*
X0313898Y0120985D02*
X0311536Y0118564D01*
X0313898Y0120985D02*
X0315227Y0120985D01*
X0315258Y0120954D01*
X0316242Y0120954D01*
X0317245Y0119952D01*
X0317835Y0122215D01*
X0319213Y0125956D01*
X0320317Y0124346D02*
X0320655Y0124346D01*
X0321231Y0124922D01*
X0320317Y0124346D02*
X0319790Y0123818D01*
X0319410Y0122788D01*
X0319410Y0122363D01*
X0320788Y0120985D01*
X0321231Y0120985D01*
X0322806Y0120985D01*
X0325316Y0122954D01*
X0322560Y0123544D02*
X0323150Y0124922D01*
X0325119Y0127402D01*
X0325119Y0127432D01*
X0322560Y0123544D02*
X0321231Y0122954D01*
X0319459Y0119952D02*
X0320788Y0118623D01*
X0322757Y0118623D01*
X0325158Y0118583D01*
X0319459Y0119952D02*
X0319213Y0119952D01*
X0316242Y0120954D02*
X0316211Y0120985D01*
X0315227Y0120985D01*
X0315867Y0095985D02*
X0312127Y0095985D01*
X0311654Y0095906D01*
X0315867Y0095985D02*
X0317245Y0094607D01*
X0317245Y0094459D01*
X0319213Y0094459D02*
X0317835Y0090719D01*
X0317245Y0088456D01*
X0316242Y0089458D01*
X0315258Y0089458D01*
X0315227Y0089489D01*
X0313898Y0089489D01*
X0311536Y0087068D01*
X0315227Y0089489D02*
X0316211Y0089489D01*
X0316242Y0089458D01*
X0315227Y0091457D02*
X0309568Y0091457D01*
X0315227Y0091457D02*
X0315227Y0093426D01*
X0319790Y0092322D02*
X0319410Y0091292D01*
X0319410Y0090867D01*
X0320788Y0089489D01*
X0321231Y0089489D01*
X0322806Y0089489D01*
X0325316Y0091457D01*
X0322560Y0092048D02*
X0323150Y0093426D01*
X0325119Y0095906D01*
X0325119Y0095936D01*
X0321231Y0093426D02*
X0320655Y0092850D01*
X0320317Y0092850D01*
X0319790Y0092322D01*
X0321231Y0091457D02*
X0322560Y0092048D01*
X0319459Y0088456D02*
X0320788Y0087127D01*
X0322757Y0087127D01*
X0325158Y0087087D01*
X0319459Y0088456D02*
X0319213Y0088456D01*
X0315867Y0064489D02*
X0312127Y0064489D01*
X0311654Y0064410D01*
X0315867Y0064489D02*
X0317245Y0063111D01*
X0317245Y0062963D01*
X0319213Y0062963D02*
X0317835Y0059223D01*
X0317245Y0056959D01*
X0316242Y0057962D01*
X0315258Y0057962D01*
X0315227Y0057993D01*
X0313898Y0057993D01*
X0311536Y0055572D01*
X0315227Y0057993D02*
X0316211Y0057993D01*
X0316242Y0057962D01*
X0315227Y0059961D02*
X0309568Y0059961D01*
X0315227Y0059961D02*
X0315227Y0061930D01*
X0319790Y0060826D02*
X0319410Y0059796D01*
X0319410Y0059371D01*
X0320788Y0057993D01*
X0321231Y0057993D01*
X0322806Y0057993D01*
X0325316Y0059961D01*
X0322560Y0060552D02*
X0323150Y0061930D01*
X0325119Y0064410D01*
X0325119Y0064440D01*
X0321231Y0061930D02*
X0320655Y0061354D01*
X0320317Y0061354D01*
X0319790Y0060826D01*
X0321231Y0059961D02*
X0322560Y0060552D01*
X0319459Y0056959D02*
X0320788Y0055631D01*
X0322757Y0055631D01*
X0325158Y0055591D01*
X0319459Y0056959D02*
X0319213Y0056959D01*
X0315867Y0032993D02*
X0312127Y0032993D01*
X0311654Y0032914D01*
X0315867Y0032993D02*
X0317245Y0031615D01*
X0317245Y0031467D01*
X0319213Y0031467D02*
X0317835Y0027727D01*
X0317245Y0025463D01*
X0316242Y0026466D01*
X0315258Y0026466D01*
X0315227Y0026497D01*
X0313898Y0026497D01*
X0311536Y0024076D01*
X0315227Y0026497D02*
X0316211Y0026497D01*
X0316242Y0026466D01*
X0315227Y0028465D02*
X0309568Y0028465D01*
X0315227Y0028465D02*
X0315227Y0030434D01*
X0319790Y0029330D02*
X0319410Y0028300D01*
X0319410Y0027875D01*
X0320788Y0026497D01*
X0321231Y0026497D01*
X0322806Y0026497D01*
X0325316Y0028465D01*
X0322560Y0029056D02*
X0323150Y0030434D01*
X0325119Y0032914D01*
X0325119Y0032944D01*
X0321231Y0030434D02*
X0320655Y0029857D01*
X0320317Y0029857D01*
X0319790Y0029330D01*
X0321231Y0028465D02*
X0322560Y0029056D01*
X0319459Y0025463D02*
X0320788Y0024135D01*
X0322757Y0024135D01*
X0325158Y0024095D01*
X0319459Y0025463D02*
X0319213Y0025463D01*
X0352875Y0028465D02*
X0358534Y0028465D01*
X0358534Y0030434D01*
X0360552Y0031467D02*
X0360552Y0031615D01*
X0359174Y0032993D01*
X0355434Y0032993D01*
X0354961Y0032914D01*
X0357206Y0026497D02*
X0354843Y0024076D01*
X0357206Y0026497D02*
X0358534Y0026497D01*
X0358565Y0026466D01*
X0359549Y0026466D01*
X0360552Y0025463D01*
X0361143Y0027727D01*
X0362520Y0031467D01*
X0363624Y0029857D02*
X0363962Y0029857D01*
X0364538Y0030434D01*
X0363624Y0029857D02*
X0363097Y0029330D01*
X0362717Y0028300D01*
X0362717Y0027875D01*
X0364095Y0026497D01*
X0364538Y0026497D01*
X0366113Y0026497D01*
X0368623Y0028465D01*
X0365867Y0029056D02*
X0366457Y0030434D01*
X0368426Y0032914D01*
X0368426Y0032944D01*
X0365867Y0029056D02*
X0364538Y0028465D01*
X0362767Y0025463D02*
X0364095Y0024135D01*
X0366064Y0024135D01*
X0368465Y0024095D01*
X0362767Y0025463D02*
X0362520Y0025463D01*
X0359549Y0026466D02*
X0359519Y0026497D01*
X0358534Y0026497D01*
X0354843Y0055572D02*
X0357206Y0057993D01*
X0358534Y0057993D01*
X0358565Y0057962D01*
X0359549Y0057962D01*
X0360552Y0056959D01*
X0361143Y0059223D01*
X0362520Y0062963D01*
X0363624Y0061354D02*
X0363962Y0061354D01*
X0364538Y0061930D01*
X0363624Y0061354D02*
X0363097Y0060826D01*
X0362717Y0059796D01*
X0362717Y0059371D01*
X0364095Y0057993D01*
X0364538Y0057993D01*
X0366113Y0057993D01*
X0368623Y0059961D01*
X0365867Y0060552D02*
X0366457Y0061930D01*
X0368426Y0064410D01*
X0368426Y0064440D01*
X0365867Y0060552D02*
X0364538Y0059961D01*
X0362767Y0056959D02*
X0364095Y0055631D01*
X0366064Y0055631D01*
X0368465Y0055591D01*
X0362767Y0056959D02*
X0362520Y0056959D01*
X0359549Y0057962D02*
X0359519Y0057993D01*
X0358534Y0057993D01*
X0358534Y0059961D02*
X0352875Y0059961D01*
X0354961Y0064410D02*
X0355434Y0064489D01*
X0359174Y0064489D01*
X0360552Y0063111D01*
X0360552Y0062963D01*
X0358534Y0061930D02*
X0358534Y0059961D01*
X0354843Y0087068D02*
X0357206Y0089489D01*
X0358534Y0089489D01*
X0358565Y0089458D01*
X0359549Y0089458D01*
X0360552Y0088456D01*
X0361143Y0090719D01*
X0362520Y0094459D01*
X0363624Y0092850D02*
X0363962Y0092850D01*
X0364538Y0093426D01*
X0363624Y0092850D02*
X0363097Y0092322D01*
X0362717Y0091292D01*
X0362717Y0090867D01*
X0364095Y0089489D01*
X0364538Y0089489D01*
X0366113Y0089489D01*
X0368623Y0091457D01*
X0365867Y0092048D02*
X0366457Y0093426D01*
X0368426Y0095906D01*
X0368426Y0095936D01*
X0365867Y0092048D02*
X0364538Y0091457D01*
X0362767Y0088456D02*
X0364095Y0087127D01*
X0366064Y0087127D01*
X0368465Y0087087D01*
X0362767Y0088456D02*
X0362520Y0088456D01*
X0359549Y0089458D02*
X0359519Y0089489D01*
X0358534Y0089489D01*
X0358534Y0091457D02*
X0352875Y0091457D01*
X0354961Y0095906D02*
X0355434Y0095985D01*
X0359174Y0095985D01*
X0360552Y0094607D01*
X0360552Y0094459D01*
X0358534Y0093426D02*
X0358534Y0091457D01*
X0354843Y0118564D02*
X0357206Y0120985D01*
X0358534Y0120985D01*
X0358565Y0120954D01*
X0359549Y0120954D01*
X0360552Y0119952D01*
X0361143Y0122215D01*
X0362520Y0125956D01*
X0363624Y0124346D02*
X0363962Y0124346D01*
X0364538Y0124922D01*
X0363624Y0124346D02*
X0363097Y0123818D01*
X0362717Y0122788D01*
X0362717Y0122363D01*
X0364095Y0120985D01*
X0364538Y0120985D01*
X0366113Y0120985D01*
X0368623Y0122954D01*
X0365867Y0123544D02*
X0366457Y0124922D01*
X0368426Y0127402D01*
X0368426Y0127432D01*
X0365867Y0123544D02*
X0364538Y0122954D01*
X0362767Y0119952D02*
X0364095Y0118623D01*
X0366064Y0118623D01*
X0368465Y0118583D01*
X0362767Y0119952D02*
X0362520Y0119952D01*
X0359549Y0120954D02*
X0359519Y0120985D01*
X0358534Y0120985D01*
X0358534Y0122954D02*
X0352875Y0122954D01*
X0354961Y0127402D02*
X0355434Y0127481D01*
X0359174Y0127481D01*
X0360552Y0126103D01*
X0360552Y0125956D01*
X0358534Y0124922D02*
X0358534Y0122954D01*
X0354843Y0150060D02*
X0357206Y0152481D01*
X0358534Y0152481D01*
X0358565Y0152450D01*
X0359549Y0152450D01*
X0360552Y0151448D01*
X0361143Y0153711D01*
X0362520Y0157452D01*
X0363624Y0155842D02*
X0363962Y0155842D01*
X0364538Y0156418D01*
X0363624Y0155842D02*
X0363097Y0155315D01*
X0362717Y0154284D01*
X0362717Y0153859D01*
X0364095Y0152481D01*
X0364538Y0152481D01*
X0366113Y0152481D01*
X0368623Y0154450D01*
X0365867Y0155040D02*
X0366457Y0156418D01*
X0368426Y0158898D01*
X0368426Y0158928D01*
X0365867Y0155040D02*
X0364538Y0154450D01*
X0362767Y0151448D02*
X0364095Y0150119D01*
X0366064Y0150119D01*
X0368465Y0150080D01*
X0362767Y0151448D02*
X0362520Y0151448D01*
X0359549Y0152450D02*
X0359519Y0152481D01*
X0358534Y0152481D01*
X0358534Y0154450D02*
X0352875Y0154450D01*
X0358534Y0154450D02*
X0358534Y0156418D01*
X0360552Y0157452D02*
X0360552Y0157599D01*
X0359174Y0158977D01*
X0355434Y0158977D01*
X0354961Y0158898D01*
X0354843Y0181556D02*
X0357206Y0183977D01*
X0358534Y0183977D01*
X0358565Y0183946D01*
X0359549Y0183946D01*
X0360552Y0182944D01*
X0361143Y0185207D01*
X0362520Y0188948D01*
X0363624Y0187338D02*
X0363962Y0187338D01*
X0364538Y0187914D01*
X0363624Y0187338D02*
X0363097Y0186811D01*
X0362717Y0185780D01*
X0362717Y0185355D01*
X0364095Y0183977D01*
X0364538Y0183977D01*
X0366113Y0183977D01*
X0368623Y0185946D01*
X0365867Y0186536D02*
X0366457Y0187914D01*
X0368426Y0190394D01*
X0368426Y0190424D01*
X0365867Y0186536D02*
X0364538Y0185946D01*
X0362767Y0182944D02*
X0364095Y0181615D01*
X0366064Y0181615D01*
X0368465Y0181576D01*
X0362767Y0182944D02*
X0362520Y0182944D01*
X0359549Y0183946D02*
X0359519Y0183977D01*
X0358534Y0183977D01*
X0358534Y0185946D02*
X0352875Y0185946D01*
X0358534Y0185946D02*
X0358534Y0187914D01*
X0360552Y0188948D02*
X0360552Y0189095D01*
X0359174Y0190473D01*
X0355434Y0190473D01*
X0354961Y0190394D01*
X0354843Y0213052D02*
X0357206Y0215473D01*
X0358534Y0215473D01*
X0358565Y0215443D01*
X0359549Y0215443D01*
X0360552Y0214440D01*
X0361143Y0216704D01*
X0362520Y0220444D01*
X0363624Y0218834D02*
X0363962Y0218834D01*
X0364538Y0219410D01*
X0363624Y0218834D02*
X0363097Y0218307D01*
X0362717Y0217277D01*
X0362717Y0216851D01*
X0364095Y0215473D01*
X0364538Y0215473D01*
X0366113Y0215473D01*
X0368623Y0217442D01*
X0365867Y0218032D02*
X0366457Y0219410D01*
X0368426Y0221891D01*
X0368426Y0221920D01*
X0365867Y0218032D02*
X0364538Y0217442D01*
X0362767Y0214440D02*
X0364095Y0213111D01*
X0366064Y0213111D01*
X0368465Y0213072D01*
X0362767Y0214440D02*
X0362520Y0214440D01*
X0359549Y0215443D02*
X0359519Y0215473D01*
X0358534Y0215473D01*
X0358534Y0217442D02*
X0352875Y0217442D01*
X0354961Y0221891D02*
X0355434Y0221969D01*
X0359174Y0221969D01*
X0360552Y0220591D01*
X0360552Y0220444D01*
X0358534Y0219410D02*
X0358534Y0217442D01*
X0354843Y0244548D02*
X0357206Y0246969D01*
X0358534Y0246969D01*
X0358565Y0246939D01*
X0359549Y0246939D01*
X0360552Y0245936D01*
X0361143Y0248200D01*
X0362520Y0251940D01*
X0363624Y0250330D02*
X0363962Y0250330D01*
X0364538Y0250906D01*
X0363624Y0250330D02*
X0363097Y0249803D01*
X0362717Y0248773D01*
X0362717Y0248347D01*
X0364095Y0246969D01*
X0364538Y0246969D01*
X0366113Y0246969D01*
X0368623Y0248938D01*
X0365867Y0249528D02*
X0366457Y0250906D01*
X0368426Y0253387D01*
X0368426Y0253416D01*
X0365867Y0249528D02*
X0364538Y0248938D01*
X0362767Y0245936D02*
X0364095Y0244607D01*
X0366064Y0244607D01*
X0368465Y0244568D01*
X0362767Y0245936D02*
X0362520Y0245936D01*
X0359549Y0246939D02*
X0359519Y0246969D01*
X0358534Y0246969D01*
X0358534Y0248938D02*
X0352875Y0248938D01*
X0354961Y0253387D02*
X0355434Y0253465D01*
X0359174Y0253465D01*
X0360552Y0252087D01*
X0360552Y0251940D01*
X0358534Y0250906D02*
X0358534Y0248938D01*
X0354843Y0276044D02*
X0357206Y0278465D01*
X0358534Y0278465D01*
X0358565Y0278435D01*
X0359549Y0278435D01*
X0360552Y0277432D01*
X0361143Y0279696D01*
X0362520Y0283436D01*
X0363624Y0281826D02*
X0363962Y0281826D01*
X0364538Y0282402D01*
X0363624Y0281826D02*
X0363097Y0281299D01*
X0362717Y0280269D01*
X0362717Y0279843D01*
X0364095Y0278465D01*
X0364538Y0278465D01*
X0366113Y0278465D01*
X0368623Y0280434D01*
X0365867Y0281024D02*
X0366457Y0282402D01*
X0368426Y0284883D01*
X0368426Y0284912D01*
X0365867Y0281024D02*
X0364538Y0280434D01*
X0362767Y0277432D02*
X0364095Y0276103D01*
X0366064Y0276103D01*
X0368465Y0276064D01*
X0362767Y0277432D02*
X0362520Y0277432D01*
X0359549Y0278435D02*
X0359519Y0278465D01*
X0358534Y0278465D01*
X0358534Y0280434D02*
X0352875Y0280434D01*
X0354961Y0284883D02*
X0355434Y0284961D01*
X0359174Y0284961D01*
X0360552Y0283583D01*
X0360552Y0283436D01*
X0358534Y0282402D02*
X0358534Y0280434D01*
X0354843Y0307540D02*
X0357206Y0309961D01*
X0358534Y0309961D01*
X0358565Y0309931D01*
X0359549Y0309931D01*
X0360552Y0308928D01*
X0361143Y0311192D01*
X0362520Y0314932D01*
X0363624Y0313322D02*
X0363962Y0313322D01*
X0364538Y0313898D01*
X0363624Y0313322D02*
X0363097Y0312795D01*
X0362717Y0311765D01*
X0362717Y0311339D01*
X0364095Y0309961D01*
X0364538Y0309961D01*
X0366113Y0309961D01*
X0368623Y0311930D01*
X0365867Y0312520D02*
X0366457Y0313898D01*
X0368426Y0316379D01*
X0368426Y0316408D01*
X0365867Y0312520D02*
X0364538Y0311930D01*
X0362767Y0308928D02*
X0364095Y0307599D01*
X0366064Y0307599D01*
X0368465Y0307560D01*
X0362767Y0308928D02*
X0362520Y0308928D01*
X0359549Y0309931D02*
X0359519Y0309961D01*
X0358534Y0309961D01*
X0358534Y0311930D02*
X0352875Y0311930D01*
X0354961Y0316379D02*
X0355434Y0316457D01*
X0359174Y0316457D01*
X0360552Y0315080D01*
X0360552Y0314932D01*
X0358534Y0313898D02*
X0358534Y0311930D01*
X0354843Y0339036D02*
X0357206Y0341457D01*
X0358534Y0341457D01*
X0358565Y0341427D01*
X0359549Y0341427D01*
X0360552Y0340424D01*
X0361143Y0342688D01*
X0362520Y0346428D01*
X0363624Y0344818D02*
X0363962Y0344818D01*
X0364538Y0345394D01*
X0363624Y0344818D02*
X0363097Y0344291D01*
X0362717Y0343261D01*
X0362717Y0342835D01*
X0364095Y0341457D01*
X0364538Y0341457D01*
X0366113Y0341457D01*
X0368623Y0343426D01*
X0365867Y0344017D02*
X0366457Y0345394D01*
X0368426Y0347875D01*
X0368426Y0347904D01*
X0365867Y0344017D02*
X0364538Y0343426D01*
X0362767Y0340424D02*
X0364095Y0339095D01*
X0366064Y0339095D01*
X0368465Y0339056D01*
X0362767Y0340424D02*
X0362520Y0340424D01*
X0359549Y0341427D02*
X0359519Y0341457D01*
X0358534Y0341457D01*
X0358534Y0343426D02*
X0352875Y0343426D01*
X0354961Y0347875D02*
X0355434Y0347954D01*
X0359174Y0347954D01*
X0360552Y0346576D01*
X0360552Y0346428D01*
X0358534Y0345394D02*
X0358534Y0343426D01*
X0354843Y0370532D02*
X0357206Y0372954D01*
X0358534Y0372954D01*
X0358565Y0372923D01*
X0359549Y0372923D01*
X0360552Y0371920D01*
X0361143Y0374184D01*
X0362520Y0377924D01*
X0363624Y0376314D02*
X0363962Y0376314D01*
X0364538Y0376891D01*
X0363624Y0376314D02*
X0363097Y0375787D01*
X0362717Y0374757D01*
X0362717Y0374331D01*
X0364095Y0372954D01*
X0364538Y0372954D01*
X0366113Y0372954D01*
X0368623Y0374922D01*
X0365867Y0375513D02*
X0366457Y0376891D01*
X0368426Y0379371D01*
X0368426Y0379400D01*
X0365867Y0375513D02*
X0364538Y0374922D01*
X0362767Y0371920D02*
X0364095Y0370591D01*
X0366064Y0370591D01*
X0368465Y0370552D01*
X0362767Y0371920D02*
X0362520Y0371920D01*
X0359549Y0372923D02*
X0359519Y0372954D01*
X0358534Y0372954D01*
X0358534Y0374922D02*
X0352875Y0374922D01*
X0354961Y0379371D02*
X0355434Y0379450D01*
X0359174Y0379450D01*
X0360552Y0378072D01*
X0360552Y0377924D01*
X0358534Y0376891D02*
X0358534Y0374922D01*
X0325316Y0374922D02*
X0322806Y0372954D01*
X0321231Y0372954D01*
X0320788Y0372954D01*
X0319410Y0374331D01*
X0319410Y0374757D01*
X0319790Y0375787D01*
X0320317Y0376314D01*
X0320655Y0376314D01*
X0321231Y0376891D01*
X0322560Y0375513D02*
X0323150Y0376891D01*
X0325119Y0379371D01*
X0325119Y0379400D01*
X0322560Y0375513D02*
X0321231Y0374922D01*
X0317835Y0374184D02*
X0317245Y0371920D01*
X0316242Y0372923D01*
X0315258Y0372923D01*
X0315227Y0372954D01*
X0313898Y0372954D01*
X0311536Y0370532D01*
X0315227Y0372954D02*
X0316211Y0372954D01*
X0316242Y0372923D01*
X0317835Y0374184D02*
X0319213Y0377924D01*
X0317245Y0377924D02*
X0317245Y0378072D01*
X0315867Y0379450D01*
X0312127Y0379450D01*
X0311654Y0379371D01*
X0315227Y0376891D02*
X0315227Y0374922D01*
X0309568Y0374922D01*
X0319213Y0371920D02*
X0319459Y0371920D01*
X0320788Y0370591D01*
X0322757Y0370591D01*
X0325158Y0370552D01*
X0325119Y0347904D02*
X0325119Y0347875D01*
X0323150Y0345394D01*
X0322560Y0344017D01*
X0321231Y0343426D01*
X0320655Y0344818D02*
X0321231Y0345394D01*
X0320655Y0344818D02*
X0320317Y0344818D01*
X0319790Y0344291D01*
X0319410Y0343261D01*
X0319410Y0342835D01*
X0320788Y0341457D01*
X0321231Y0341457D01*
X0322806Y0341457D01*
X0325316Y0343426D01*
X0325158Y0339056D02*
X0322757Y0339095D01*
X0320788Y0339095D01*
X0319459Y0340424D01*
X0319213Y0340424D01*
X0317245Y0340424D02*
X0317835Y0342688D01*
X0319213Y0346428D01*
X0317245Y0346428D02*
X0317245Y0346576D01*
X0315867Y0347954D01*
X0312127Y0347954D01*
X0311654Y0347875D01*
X0315227Y0345394D02*
X0315227Y0343426D01*
X0309568Y0343426D01*
X0313898Y0341457D02*
X0311536Y0339036D01*
X0313898Y0341457D02*
X0315227Y0341457D01*
X0315258Y0341427D01*
X0316242Y0341427D01*
X0317245Y0340424D01*
X0316242Y0341427D02*
X0316211Y0341457D01*
X0315227Y0341457D01*
X0315867Y0316457D02*
X0312127Y0316457D01*
X0311654Y0316379D01*
X0315867Y0316457D02*
X0317245Y0315080D01*
X0317245Y0314932D01*
X0319213Y0314932D02*
X0317835Y0311192D01*
X0317245Y0308928D01*
X0316242Y0309931D01*
X0315258Y0309931D01*
X0315227Y0309961D01*
X0313898Y0309961D01*
X0311536Y0307540D01*
X0315227Y0309961D02*
X0316211Y0309961D01*
X0316242Y0309931D01*
X0315227Y0311930D02*
X0309568Y0311930D01*
X0315227Y0311930D02*
X0315227Y0313898D01*
X0319790Y0312795D02*
X0319410Y0311765D01*
X0319410Y0311339D01*
X0320788Y0309961D01*
X0321231Y0309961D01*
X0322806Y0309961D01*
X0325316Y0311930D01*
X0322560Y0312520D02*
X0323150Y0313898D01*
X0325119Y0316379D01*
X0325119Y0316408D01*
X0321231Y0313898D02*
X0320655Y0313322D01*
X0320317Y0313322D01*
X0319790Y0312795D01*
X0321231Y0311930D02*
X0322560Y0312520D01*
X0319459Y0308928D02*
X0320788Y0307599D01*
X0322757Y0307599D01*
X0325158Y0307560D01*
X0319459Y0308928D02*
X0319213Y0308928D01*
X0315867Y0284961D02*
X0312127Y0284961D01*
X0311654Y0284883D01*
X0315867Y0284961D02*
X0317245Y0283583D01*
X0317245Y0283436D01*
X0319213Y0283436D02*
X0317835Y0279696D01*
X0317245Y0277432D01*
X0316242Y0278435D01*
X0315258Y0278435D01*
X0315227Y0278465D01*
X0313898Y0278465D01*
X0311536Y0276044D01*
X0315227Y0278465D02*
X0316211Y0278465D01*
X0316242Y0278435D01*
X0315227Y0280434D02*
X0309568Y0280434D01*
X0315227Y0280434D02*
X0315227Y0282402D01*
X0319790Y0281299D02*
X0319410Y0280269D01*
X0319410Y0279843D01*
X0320788Y0278465D01*
X0321231Y0278465D01*
X0322806Y0278465D01*
X0325316Y0280434D01*
X0322560Y0281024D02*
X0323150Y0282402D01*
X0325119Y0284883D01*
X0325119Y0284912D01*
X0321231Y0282402D02*
X0320655Y0281826D01*
X0320317Y0281826D01*
X0319790Y0281299D01*
X0321231Y0280434D02*
X0322560Y0281024D01*
X0319459Y0277432D02*
X0320788Y0276103D01*
X0322757Y0276103D01*
X0325158Y0276064D01*
X0319459Y0277432D02*
X0319213Y0277432D01*
X0315867Y0253465D02*
X0312127Y0253465D01*
X0311654Y0253387D01*
X0315867Y0253465D02*
X0317245Y0252087D01*
X0317245Y0251940D01*
X0319213Y0251940D02*
X0317835Y0248200D01*
X0317245Y0245936D01*
X0316242Y0246939D01*
X0315258Y0246939D01*
X0315227Y0246969D01*
X0313898Y0246969D01*
X0311536Y0244548D01*
X0315227Y0246969D02*
X0316211Y0246969D01*
X0316242Y0246939D01*
X0315227Y0248938D02*
X0309568Y0248938D01*
X0315227Y0248938D02*
X0315227Y0250906D01*
X0319790Y0249803D02*
X0319410Y0248773D01*
X0319410Y0248347D01*
X0320788Y0246969D01*
X0321231Y0246969D01*
X0322806Y0246969D01*
X0325316Y0248938D01*
X0322560Y0249528D02*
X0323150Y0250906D01*
X0325119Y0253387D01*
X0325119Y0253416D01*
X0321231Y0250906D02*
X0320655Y0250330D01*
X0320317Y0250330D01*
X0319790Y0249803D01*
X0321231Y0248938D02*
X0322560Y0249528D01*
X0319459Y0245936D02*
X0320788Y0244607D01*
X0322757Y0244607D01*
X0325158Y0244568D01*
X0319459Y0245936D02*
X0319213Y0245936D01*
X0315867Y0221969D02*
X0312127Y0221969D01*
X0311654Y0221891D01*
X0315867Y0221969D02*
X0317245Y0220591D01*
X0317245Y0220444D01*
X0319213Y0220444D02*
X0317835Y0216704D01*
X0317245Y0214440D01*
X0316242Y0215443D01*
X0315258Y0215443D01*
X0315227Y0215473D01*
X0313898Y0215473D01*
X0311536Y0213052D01*
X0315227Y0215473D02*
X0316211Y0215473D01*
X0316242Y0215443D01*
X0315227Y0217442D02*
X0309568Y0217442D01*
X0315227Y0217442D02*
X0315227Y0219410D01*
X0319790Y0218307D02*
X0319410Y0217277D01*
X0319410Y0216851D01*
X0320788Y0215473D01*
X0321231Y0215473D01*
X0322806Y0215473D01*
X0325316Y0217442D01*
X0322560Y0218032D02*
X0323150Y0219410D01*
X0325119Y0221891D01*
X0325119Y0221920D01*
X0321231Y0219410D02*
X0320655Y0218834D01*
X0320317Y0218834D01*
X0319790Y0218307D01*
X0321231Y0217442D02*
X0322560Y0218032D01*
X0319459Y0214440D02*
X0320788Y0213111D01*
X0322757Y0213111D01*
X0325158Y0213072D01*
X0319459Y0214440D02*
X0319213Y0214440D01*
X0315867Y0190473D02*
X0312127Y0190473D01*
X0311654Y0190394D01*
X0315867Y0190473D02*
X0317245Y0189095D01*
X0317245Y0188948D01*
X0319213Y0188948D02*
X0317835Y0185207D01*
X0317245Y0182944D01*
X0316242Y0183946D01*
X0315258Y0183946D01*
X0315227Y0183977D01*
X0313898Y0183977D01*
X0311536Y0181556D01*
X0315227Y0183977D02*
X0316211Y0183977D01*
X0316242Y0183946D01*
X0315227Y0185946D02*
X0309568Y0185946D01*
X0315227Y0185946D02*
X0315227Y0187914D01*
X0319790Y0186811D02*
X0319410Y0185780D01*
X0319410Y0185355D01*
X0320788Y0183977D01*
X0321231Y0183977D01*
X0322806Y0183977D01*
X0325316Y0185946D01*
X0322560Y0186536D02*
X0323150Y0187914D01*
X0325119Y0190394D01*
X0325119Y0190424D01*
X0321231Y0187914D02*
X0320655Y0187338D01*
X0320317Y0187338D01*
X0319790Y0186811D01*
X0321231Y0185946D02*
X0322560Y0186536D01*
X0319459Y0182944D02*
X0320788Y0181615D01*
X0322757Y0181615D01*
X0325158Y0181576D01*
X0319459Y0182944D02*
X0319213Y0182944D01*
X0315867Y0158977D02*
X0312127Y0158977D01*
X0311654Y0158898D01*
X0315867Y0158977D02*
X0317245Y0157599D01*
X0317245Y0157452D01*
X0319213Y0157452D02*
X0317835Y0153711D01*
X0317245Y0151448D01*
X0316242Y0152450D01*
X0315258Y0152450D01*
X0315227Y0152481D01*
X0313898Y0152481D01*
X0311536Y0150060D01*
X0315227Y0152481D02*
X0316211Y0152481D01*
X0316242Y0152450D01*
X0315227Y0154450D02*
X0309568Y0154450D01*
X0315227Y0154450D02*
X0315227Y0156418D01*
X0319790Y0155315D02*
X0319410Y0154284D01*
X0319410Y0153859D01*
X0320788Y0152481D01*
X0321231Y0152481D01*
X0322806Y0152481D01*
X0325316Y0154450D01*
X0322560Y0155040D02*
X0323150Y0156418D01*
X0325119Y0158898D01*
X0325119Y0158928D01*
X0321231Y0156418D02*
X0320655Y0155842D01*
X0320317Y0155842D01*
X0319790Y0155315D01*
X0321231Y0154450D02*
X0322560Y0155040D01*
X0319459Y0151448D02*
X0320788Y0150119D01*
X0322757Y0150119D01*
X0325158Y0150080D01*
X0319459Y0151448D02*
X0319213Y0151448D01*
X0116497Y0370552D02*
X0114095Y0370591D01*
X0112127Y0370591D01*
X0110798Y0371920D01*
X0110552Y0371920D01*
X0112127Y0372954D02*
X0110749Y0374331D01*
X0110749Y0374757D01*
X0111128Y0375787D01*
X0111656Y0376314D01*
X0111993Y0376314D01*
X0112570Y0376891D01*
X0113898Y0375513D02*
X0114489Y0376891D01*
X0116457Y0379371D01*
X0116457Y0379400D01*
X0116654Y0374922D02*
X0114144Y0372954D01*
X0112570Y0372954D01*
X0112127Y0372954D01*
X0112570Y0374922D02*
X0113898Y0375513D01*
X0110552Y0377924D02*
X0109174Y0374184D01*
X0108583Y0371920D01*
X0107581Y0372923D01*
X0106596Y0372923D01*
X0106566Y0372954D01*
X0105237Y0372954D01*
X0102875Y0370532D01*
X0106566Y0372954D02*
X0107550Y0372954D01*
X0107581Y0372923D01*
X0106566Y0374922D02*
X0106566Y0376891D01*
X0106566Y0374922D02*
X0100906Y0374922D01*
X0102993Y0379371D02*
X0103465Y0379450D01*
X0107206Y0379450D01*
X0108583Y0378072D01*
X0108583Y0377924D01*
X0077087Y0253416D02*
X0077087Y0253387D01*
X0075119Y0250906D01*
X0074528Y0249528D01*
X0073200Y0248938D01*
X0072623Y0250330D02*
X0073200Y0250906D01*
X0072623Y0250330D02*
X0072285Y0250330D01*
X0071758Y0249803D01*
X0071379Y0248773D01*
X0071379Y0248347D01*
X0072757Y0246969D01*
X0073200Y0246969D01*
X0074774Y0246969D01*
X0077284Y0248938D01*
X0077127Y0244568D02*
X0074725Y0244607D01*
X0072757Y0244607D01*
X0071428Y0245936D01*
X0071182Y0245936D01*
X0069213Y0245936D02*
X0069804Y0248200D01*
X0071182Y0251940D01*
X0069213Y0251940D02*
X0069213Y0252087D01*
X0067835Y0253465D01*
X0064095Y0253465D01*
X0063623Y0253387D01*
X0067196Y0250906D02*
X0067196Y0248938D01*
X0061536Y0248938D01*
X0065867Y0246969D02*
X0063505Y0244548D01*
X0065867Y0246969D02*
X0067196Y0246969D01*
X0067226Y0246939D01*
X0068211Y0246939D01*
X0069213Y0245936D01*
X0068211Y0246939D02*
X0068180Y0246969D01*
X0067196Y0246969D01*
D11*
X0063505Y0244548D03*
X0061536Y0248938D03*
X0063623Y0253387D03*
X0077087Y0253387D03*
X0077127Y0244568D03*
X0077087Y0221891D03*
X0077127Y0213072D03*
X0063505Y0213052D03*
X0061536Y0217442D03*
X0063623Y0221891D03*
X0037717Y0221891D03*
X0037757Y0213072D03*
X0024135Y0213052D03*
X0022166Y0217442D03*
X0024253Y0221891D03*
X0024135Y0244548D03*
X0022166Y0248938D03*
X0024253Y0253387D03*
X0037717Y0253387D03*
X0037757Y0244568D03*
X0037757Y0276064D03*
X0037717Y0284883D03*
X0024253Y0284883D03*
X0022166Y0280434D03*
X0024135Y0276044D03*
X0024135Y0307540D03*
X0022166Y0311930D03*
X0024253Y0316379D03*
X0037717Y0316379D03*
X0037757Y0307560D03*
X0061536Y0311930D03*
X0063505Y0307540D03*
X0063623Y0316379D03*
X0077087Y0316379D03*
X0077127Y0307560D03*
X0077087Y0284883D03*
X0077127Y0276064D03*
X0063505Y0276044D03*
X0061536Y0280434D03*
X0063623Y0284883D03*
X0100906Y0280434D03*
X0102875Y0276044D03*
X0102993Y0284883D03*
X0116457Y0284883D03*
X0116497Y0276064D03*
X0116457Y0253387D03*
X0116497Y0244568D03*
X0102875Y0244548D03*
X0100906Y0248938D03*
X0102993Y0253387D03*
X0102993Y0221891D03*
X0100906Y0217442D03*
X0102875Y0213052D03*
X0116497Y0213072D03*
X0116457Y0221891D03*
X0140276Y0217442D03*
X0142245Y0213052D03*
X0142363Y0221891D03*
X0155828Y0221891D03*
X0155867Y0213072D03*
X0155828Y0190394D03*
X0155867Y0181576D03*
X0142245Y0181556D03*
X0140276Y0185946D03*
X0142363Y0190394D03*
X0116457Y0190394D03*
X0116497Y0181576D03*
X0102875Y0181556D03*
X0100906Y0185946D03*
X0102993Y0190394D03*
X0077087Y0190394D03*
X0077127Y0181576D03*
X0063505Y0181556D03*
X0061536Y0185946D03*
X0063623Y0190394D03*
X0037717Y0190394D03*
X0037757Y0181576D03*
X0024135Y0181556D03*
X0022166Y0185946D03*
X0024253Y0190394D03*
X0024253Y0158898D03*
X0022166Y0154450D03*
X0024135Y0150060D03*
X0037757Y0150080D03*
X0037717Y0158898D03*
X0061536Y0154450D03*
X0063505Y0150060D03*
X0063623Y0158898D03*
X0077087Y0158898D03*
X0077127Y0150080D03*
X0077087Y0127402D03*
X0077127Y0118583D03*
X0063505Y0118564D03*
X0061536Y0122954D03*
X0063623Y0127402D03*
X0037717Y0127402D03*
X0037757Y0118583D03*
X0024135Y0118564D03*
X0022166Y0122954D03*
X0024253Y0127402D03*
X0024253Y0095906D03*
X0022166Y0091457D03*
X0024135Y0087068D03*
X0037757Y0087087D03*
X0037717Y0095906D03*
X0061536Y0091457D03*
X0063623Y0095906D03*
X0063505Y0087068D03*
X0077127Y0087087D03*
X0077087Y0095906D03*
X0100906Y0091457D03*
X0102993Y0095906D03*
X0102875Y0087068D03*
X0116497Y0087087D03*
X0116457Y0095906D03*
X0116497Y0118583D03*
X0116457Y0127402D03*
X0102993Y0127402D03*
X0100906Y0122954D03*
X0102875Y0118564D03*
X0102875Y0150060D03*
X0100906Y0154450D03*
X0102993Y0158898D03*
X0116457Y0158898D03*
X0116497Y0150080D03*
X0140276Y0154450D03*
X0142245Y0150060D03*
X0142363Y0158898D03*
X0155828Y0158898D03*
X0155867Y0150080D03*
X0155828Y0127402D03*
X0155867Y0118583D03*
X0142245Y0118564D03*
X0140276Y0122954D03*
X0142363Y0127402D03*
X0142363Y0095906D03*
X0140276Y0091457D03*
X0142245Y0087068D03*
X0155867Y0087087D03*
X0155828Y0095906D03*
X0183583Y0091457D03*
X0185670Y0095906D03*
X0185552Y0087068D03*
X0199174Y0087087D03*
X0199135Y0095906D03*
X0199174Y0118583D03*
X0199135Y0127402D03*
X0185670Y0127402D03*
X0183583Y0122954D03*
X0185552Y0118564D03*
X0185552Y0150060D03*
X0183583Y0154450D03*
X0185670Y0158898D03*
X0199135Y0158898D03*
X0199174Y0150080D03*
X0226891Y0154450D03*
X0228859Y0150060D03*
X0228977Y0158898D03*
X0242442Y0158898D03*
X0242481Y0150080D03*
X0242442Y0127402D03*
X0242481Y0118583D03*
X0228859Y0118564D03*
X0226891Y0122954D03*
X0228977Y0127402D03*
X0228977Y0095906D03*
X0226891Y0091457D03*
X0228859Y0087068D03*
X0242481Y0087087D03*
X0242442Y0095906D03*
X0266261Y0091457D03*
X0268347Y0095906D03*
X0268229Y0087068D03*
X0281851Y0087087D03*
X0281812Y0095906D03*
X0281851Y0118583D03*
X0281812Y0127402D03*
X0268347Y0127402D03*
X0266261Y0122954D03*
X0268229Y0118564D03*
X0268229Y0150060D03*
X0266261Y0154450D03*
X0268347Y0158898D03*
X0281812Y0158898D03*
X0281851Y0150080D03*
X0309568Y0154450D03*
X0311536Y0150060D03*
X0311654Y0158898D03*
X0325119Y0158898D03*
X0325158Y0150080D03*
X0325119Y0127402D03*
X0325158Y0118583D03*
X0311536Y0118564D03*
X0309568Y0122954D03*
X0311654Y0127402D03*
X0311654Y0095906D03*
X0309568Y0091457D03*
X0311536Y0087068D03*
X0325158Y0087087D03*
X0325119Y0095906D03*
X0352875Y0091457D03*
X0354961Y0095906D03*
X0354843Y0087068D03*
X0368465Y0087087D03*
X0368426Y0095906D03*
X0368465Y0118583D03*
X0368426Y0127402D03*
X0354961Y0127402D03*
X0352875Y0122954D03*
X0354843Y0118564D03*
X0354843Y0150060D03*
X0352875Y0154450D03*
X0354961Y0158898D03*
X0368426Y0158898D03*
X0368465Y0150080D03*
X0368465Y0181576D03*
X0368426Y0190394D03*
X0354961Y0190394D03*
X0352875Y0185946D03*
X0354843Y0181556D03*
X0325158Y0181576D03*
X0325119Y0190394D03*
X0311654Y0190394D03*
X0309568Y0185946D03*
X0311536Y0181556D03*
X0281851Y0181576D03*
X0281812Y0190394D03*
X0268347Y0190394D03*
X0266261Y0185946D03*
X0268229Y0181556D03*
X0242481Y0181576D03*
X0242442Y0190394D03*
X0228977Y0190394D03*
X0226891Y0185946D03*
X0228859Y0181556D03*
X0199174Y0181576D03*
X0199135Y0190394D03*
X0185670Y0190394D03*
X0183583Y0185946D03*
X0185552Y0181556D03*
X0185552Y0213052D03*
X0183583Y0217442D03*
X0185670Y0221891D03*
X0199135Y0221891D03*
X0199174Y0213072D03*
X0226891Y0217442D03*
X0228859Y0213052D03*
X0228977Y0221891D03*
X0242442Y0221891D03*
X0242481Y0213072D03*
X0266261Y0217442D03*
X0268229Y0213052D03*
X0268347Y0221891D03*
X0281812Y0221891D03*
X0281851Y0213072D03*
X0309568Y0217442D03*
X0311536Y0213052D03*
X0311654Y0221891D03*
X0325119Y0221891D03*
X0325158Y0213072D03*
X0352875Y0217442D03*
X0354843Y0213052D03*
X0354961Y0221891D03*
X0368426Y0221891D03*
X0368465Y0213072D03*
X0368465Y0244568D03*
X0368426Y0253387D03*
X0354961Y0253387D03*
X0352875Y0248938D03*
X0354843Y0244548D03*
X0325158Y0244568D03*
X0325119Y0253387D03*
X0311654Y0253387D03*
X0309568Y0248938D03*
X0311536Y0244548D03*
X0281851Y0244568D03*
X0281812Y0253387D03*
X0268347Y0253387D03*
X0266261Y0248938D03*
X0268229Y0244548D03*
X0242481Y0244568D03*
X0242442Y0253387D03*
X0228977Y0253387D03*
X0226891Y0248938D03*
X0228859Y0244548D03*
X0199174Y0244568D03*
X0199135Y0253387D03*
X0185670Y0253387D03*
X0183583Y0248938D03*
X0185552Y0244548D03*
X0155867Y0244568D03*
X0155828Y0253387D03*
X0142363Y0253387D03*
X0140276Y0248938D03*
X0142245Y0244548D03*
X0142245Y0276044D03*
X0140276Y0280434D03*
X0142363Y0284883D03*
X0155828Y0284883D03*
X0155867Y0276064D03*
X0183583Y0280434D03*
X0185552Y0276044D03*
X0185670Y0284883D03*
X0199135Y0284883D03*
X0199174Y0276064D03*
X0226891Y0280434D03*
X0228859Y0276044D03*
X0228977Y0284883D03*
X0242442Y0284883D03*
X0242481Y0276064D03*
X0266261Y0280434D03*
X0268229Y0276044D03*
X0268347Y0284883D03*
X0281812Y0284883D03*
X0281851Y0276064D03*
X0309568Y0280434D03*
X0311536Y0276044D03*
X0311654Y0284883D03*
X0325119Y0284883D03*
X0325158Y0276064D03*
X0352875Y0280434D03*
X0354843Y0276044D03*
X0354961Y0284883D03*
X0368426Y0284883D03*
X0368465Y0276064D03*
X0368465Y0307560D03*
X0368426Y0316379D03*
X0354961Y0316379D03*
X0352875Y0311930D03*
X0354843Y0307540D03*
X0325158Y0307560D03*
X0325119Y0316379D03*
X0311654Y0316379D03*
X0309568Y0311930D03*
X0311536Y0307540D03*
X0281851Y0307560D03*
X0281812Y0316379D03*
X0268347Y0316379D03*
X0266261Y0311930D03*
X0268229Y0307540D03*
X0242481Y0307560D03*
X0242442Y0316379D03*
X0228977Y0316379D03*
X0226891Y0311930D03*
X0228859Y0307540D03*
X0199174Y0307560D03*
X0199135Y0316379D03*
X0185670Y0316379D03*
X0183583Y0311930D03*
X0185552Y0307540D03*
X0155867Y0307560D03*
X0155828Y0316379D03*
X0142363Y0316379D03*
X0140276Y0311930D03*
X0142245Y0307540D03*
X0116497Y0307560D03*
X0116457Y0316379D03*
X0102993Y0316379D03*
X0100906Y0311930D03*
X0102875Y0307540D03*
X0102875Y0339036D03*
X0100906Y0343426D03*
X0102993Y0347875D03*
X0116457Y0347875D03*
X0116497Y0339056D03*
X0140276Y0343426D03*
X0142245Y0339036D03*
X0142363Y0347875D03*
X0155828Y0347875D03*
X0155867Y0339056D03*
X0183583Y0343426D03*
X0185552Y0339036D03*
X0185670Y0347875D03*
X0199135Y0347875D03*
X0199174Y0339056D03*
X0226891Y0343426D03*
X0228859Y0339036D03*
X0228977Y0347875D03*
X0242442Y0347875D03*
X0242481Y0339056D03*
X0266261Y0343426D03*
X0268229Y0339036D03*
X0268347Y0347875D03*
X0281812Y0347875D03*
X0281851Y0339056D03*
X0309568Y0343426D03*
X0311536Y0339036D03*
X0311654Y0347875D03*
X0325119Y0347875D03*
X0325158Y0339056D03*
X0352875Y0343426D03*
X0354843Y0339036D03*
X0354961Y0347875D03*
X0368426Y0347875D03*
X0368465Y0339056D03*
X0368465Y0370552D03*
X0368426Y0379371D03*
X0354961Y0379371D03*
X0352875Y0374922D03*
X0354843Y0370532D03*
X0325158Y0370552D03*
X0325119Y0379371D03*
X0311654Y0379371D03*
X0309568Y0374922D03*
X0311536Y0370532D03*
X0281851Y0370552D03*
X0281812Y0379371D03*
X0268347Y0379371D03*
X0266261Y0374922D03*
X0268229Y0370532D03*
X0242481Y0370552D03*
X0242442Y0379371D03*
X0228977Y0379371D03*
X0226891Y0374922D03*
X0228859Y0370532D03*
X0199174Y0370552D03*
X0199135Y0379371D03*
X0185670Y0379371D03*
X0183583Y0374922D03*
X0185552Y0370532D03*
X0155867Y0370552D03*
X0155828Y0379371D03*
X0142363Y0379371D03*
X0140276Y0374922D03*
X0142245Y0370532D03*
X0116497Y0370552D03*
X0116457Y0379371D03*
X0102993Y0379371D03*
X0100906Y0374922D03*
X0102875Y0370532D03*
X0077127Y0370552D03*
X0077087Y0379371D03*
X0063623Y0379371D03*
X0061536Y0374922D03*
X0063505Y0370532D03*
X0063623Y0347875D03*
X0061536Y0343426D03*
X0063505Y0339036D03*
X0077127Y0339056D03*
X0077087Y0347875D03*
X0037717Y0347875D03*
X0037757Y0339056D03*
X0024135Y0339036D03*
X0022166Y0343426D03*
X0024253Y0347875D03*
X0024135Y0370532D03*
X0022166Y0374922D03*
X0024253Y0379371D03*
X0037717Y0379371D03*
X0037757Y0370552D03*
X0037717Y0064410D03*
X0037757Y0055591D03*
X0024135Y0055572D03*
X0022166Y0059961D03*
X0024253Y0064410D03*
X0024253Y0032914D03*
X0022166Y0028465D03*
X0024135Y0024076D03*
X0037757Y0024095D03*
X0037717Y0032914D03*
X0061536Y0028465D03*
X0063505Y0024076D03*
X0063623Y0032914D03*
X0077087Y0032914D03*
X0077127Y0024095D03*
X0100906Y0028465D03*
X0102875Y0024076D03*
X0102993Y0032914D03*
X0116457Y0032914D03*
X0116497Y0024095D03*
X0140276Y0028465D03*
X0142245Y0024076D03*
X0142363Y0032914D03*
X0155828Y0032914D03*
X0155867Y0024095D03*
X0183583Y0028465D03*
X0185552Y0024076D03*
X0185670Y0032914D03*
X0199135Y0032914D03*
X0199174Y0024095D03*
X0226891Y0028465D03*
X0228859Y0024076D03*
X0228977Y0032914D03*
X0242442Y0032914D03*
X0242481Y0024095D03*
X0266261Y0028465D03*
X0268229Y0024076D03*
X0268347Y0032914D03*
X0281812Y0032914D03*
X0281851Y0024095D03*
X0309568Y0028465D03*
X0311536Y0024076D03*
X0311654Y0032914D03*
X0325119Y0032914D03*
X0325158Y0024095D03*
X0352875Y0028465D03*
X0354843Y0024076D03*
X0354961Y0032914D03*
X0368426Y0032914D03*
X0368465Y0024095D03*
X0368465Y0055591D03*
X0368426Y0064410D03*
X0354961Y0064410D03*
X0352875Y0059961D03*
X0354843Y0055572D03*
X0325158Y0055591D03*
X0325119Y0064410D03*
X0311654Y0064410D03*
X0309568Y0059961D03*
X0311536Y0055572D03*
X0281851Y0055591D03*
X0281812Y0064410D03*
X0268347Y0064410D03*
X0266261Y0059961D03*
X0268229Y0055572D03*
X0242481Y0055591D03*
X0242442Y0064410D03*
X0228977Y0064410D03*
X0226891Y0059961D03*
X0228859Y0055572D03*
X0199174Y0055591D03*
X0199135Y0064410D03*
X0185670Y0064410D03*
X0183583Y0059961D03*
X0185552Y0055572D03*
X0155867Y0055591D03*
X0155828Y0064410D03*
X0142363Y0064410D03*
X0140276Y0059961D03*
X0142245Y0055572D03*
X0116497Y0055591D03*
X0116457Y0064410D03*
X0102993Y0064410D03*
X0100906Y0059961D03*
X0102875Y0055572D03*
X0077127Y0055591D03*
X0077087Y0064410D03*
X0063623Y0064410D03*
X0061536Y0059961D03*
X0063505Y0055572D03*
D12*
X0069213Y0056959D03*
X0071182Y0056959D03*
X0071182Y0062963D03*
X0069213Y0062963D03*
X0069213Y0088456D03*
X0071182Y0088456D03*
X0071182Y0094459D03*
X0069213Y0094459D03*
X0069213Y0119952D03*
X0071182Y0119952D03*
X0071182Y0125956D03*
X0069213Y0125956D03*
X0069213Y0151448D03*
X0071182Y0151448D03*
X0071182Y0157452D03*
X0069213Y0157452D03*
X0069213Y0182944D03*
X0071182Y0182944D03*
X0071182Y0188948D03*
X0069213Y0188948D03*
X0069213Y0214440D03*
X0071182Y0214440D03*
X0071182Y0220444D03*
X0069213Y0220444D03*
X0069213Y0245936D03*
X0071182Y0245936D03*
X0071182Y0251940D03*
X0069213Y0251940D03*
X0069213Y0277432D03*
X0071182Y0277432D03*
X0071182Y0283436D03*
X0069213Y0283436D03*
X0069213Y0308928D03*
X0071182Y0308928D03*
X0071182Y0314932D03*
X0069213Y0314932D03*
X0069213Y0340424D03*
X0071182Y0340424D03*
X0071182Y0346428D03*
X0069213Y0346428D03*
X0069213Y0371920D03*
X0071182Y0371920D03*
X0071182Y0377924D03*
X0069213Y0377924D03*
X0031812Y0377924D03*
X0029843Y0377924D03*
X0029843Y0371920D03*
X0031812Y0371920D03*
X0031812Y0346428D03*
X0029843Y0346428D03*
X0029843Y0340424D03*
X0031812Y0340424D03*
X0031812Y0314932D03*
X0029843Y0314932D03*
X0029843Y0308928D03*
X0031812Y0308928D03*
X0031812Y0283436D03*
X0029843Y0283436D03*
X0029843Y0277432D03*
X0031812Y0277432D03*
X0031812Y0251940D03*
X0029843Y0251940D03*
X0029843Y0245936D03*
X0031812Y0245936D03*
X0031812Y0220444D03*
X0029843Y0220444D03*
X0029843Y0214440D03*
X0031812Y0214440D03*
X0031812Y0188948D03*
X0029843Y0188948D03*
X0029843Y0182944D03*
X0031812Y0182944D03*
X0031812Y0157452D03*
X0029843Y0157452D03*
X0029843Y0151448D03*
X0031812Y0151448D03*
X0031812Y0125956D03*
X0029843Y0125956D03*
X0029843Y0119952D03*
X0031812Y0119952D03*
X0031812Y0094459D03*
X0029843Y0094459D03*
X0029843Y0088456D03*
X0031812Y0088456D03*
X0031812Y0062963D03*
X0029843Y0062963D03*
X0029843Y0056959D03*
X0031812Y0056959D03*
X0031812Y0031467D03*
X0029843Y0031467D03*
X0029843Y0025463D03*
X0031812Y0025463D03*
X0069213Y0025463D03*
X0071182Y0025463D03*
X0071182Y0031467D03*
X0069213Y0031467D03*
X0108583Y0031467D03*
X0110552Y0031467D03*
X0110552Y0025463D03*
X0108583Y0025463D03*
X0108583Y0056959D03*
X0110552Y0056959D03*
X0110552Y0062963D03*
X0108583Y0062963D03*
X0108583Y0088456D03*
X0110552Y0088456D03*
X0110552Y0094459D03*
X0108583Y0094459D03*
X0108583Y0119952D03*
X0110552Y0119952D03*
X0110552Y0125956D03*
X0108583Y0125956D03*
X0108583Y0151448D03*
X0110552Y0151448D03*
X0110552Y0157452D03*
X0108583Y0157452D03*
X0108583Y0182944D03*
X0110552Y0182944D03*
X0110552Y0188948D03*
X0108583Y0188948D03*
X0108583Y0214440D03*
X0110552Y0214440D03*
X0110552Y0220444D03*
X0108583Y0220444D03*
X0108583Y0245936D03*
X0110552Y0245936D03*
X0110552Y0251940D03*
X0108583Y0251940D03*
X0108583Y0277432D03*
X0110552Y0277432D03*
X0110552Y0283436D03*
X0108583Y0283436D03*
X0108583Y0308928D03*
X0110552Y0308928D03*
X0110552Y0314932D03*
X0108583Y0314932D03*
X0108583Y0340424D03*
X0110552Y0340424D03*
X0110552Y0346428D03*
X0108583Y0346428D03*
X0108583Y0371920D03*
X0110552Y0371920D03*
X0110552Y0377924D03*
X0108583Y0377924D03*
X0147954Y0377924D03*
X0149922Y0377924D03*
X0149922Y0371920D03*
X0147954Y0371920D03*
X0147954Y0346428D03*
X0149922Y0346428D03*
X0149922Y0340424D03*
X0147954Y0340424D03*
X0147954Y0314932D03*
X0149922Y0314932D03*
X0149922Y0308928D03*
X0147954Y0308928D03*
X0147954Y0283436D03*
X0149922Y0283436D03*
X0149922Y0277432D03*
X0147954Y0277432D03*
X0147954Y0251940D03*
X0149922Y0251940D03*
X0149922Y0245936D03*
X0147954Y0245936D03*
X0147954Y0220444D03*
X0149922Y0220444D03*
X0149922Y0214440D03*
X0147954Y0214440D03*
X0147954Y0188948D03*
X0149922Y0188948D03*
X0149922Y0182944D03*
X0147954Y0182944D03*
X0147954Y0157452D03*
X0149922Y0157452D03*
X0149922Y0151448D03*
X0147954Y0151448D03*
X0147954Y0125956D03*
X0149922Y0125956D03*
X0149922Y0119952D03*
X0147954Y0119952D03*
X0147954Y0094459D03*
X0149922Y0094459D03*
X0149922Y0088456D03*
X0147954Y0088456D03*
X0147954Y0062963D03*
X0149922Y0062963D03*
X0149922Y0056959D03*
X0147954Y0056959D03*
X0147954Y0031467D03*
X0149922Y0031467D03*
X0149922Y0025463D03*
X0147954Y0025463D03*
X0191261Y0025463D03*
X0193229Y0025463D03*
X0193229Y0031467D03*
X0191261Y0031467D03*
X0191261Y0056959D03*
X0193229Y0056959D03*
X0193229Y0062963D03*
X0191261Y0062963D03*
X0191261Y0088456D03*
X0193229Y0088456D03*
X0193229Y0094459D03*
X0191261Y0094459D03*
X0191261Y0119952D03*
X0193229Y0119952D03*
X0193229Y0125956D03*
X0191261Y0125956D03*
X0191261Y0151448D03*
X0193229Y0151448D03*
X0193229Y0157452D03*
X0191261Y0157452D03*
X0191261Y0182944D03*
X0193229Y0182944D03*
X0193229Y0188948D03*
X0191261Y0188948D03*
X0191261Y0214440D03*
X0193229Y0214440D03*
X0193229Y0220444D03*
X0191261Y0220444D03*
X0191261Y0245936D03*
X0193229Y0245936D03*
X0193229Y0251940D03*
X0191261Y0251940D03*
X0191261Y0277432D03*
X0193229Y0277432D03*
X0193229Y0283436D03*
X0191261Y0283436D03*
X0191261Y0308928D03*
X0193229Y0308928D03*
X0193229Y0314932D03*
X0191261Y0314932D03*
X0191261Y0340424D03*
X0193229Y0340424D03*
X0193229Y0346428D03*
X0191261Y0346428D03*
X0191261Y0371920D03*
X0193229Y0371920D03*
X0193229Y0377924D03*
X0191261Y0377924D03*
X0234568Y0377924D03*
X0236536Y0377924D03*
X0236536Y0371920D03*
X0234568Y0371920D03*
X0234568Y0346428D03*
X0236536Y0346428D03*
X0236536Y0340424D03*
X0234568Y0340424D03*
X0234568Y0314932D03*
X0236536Y0314932D03*
X0236536Y0308928D03*
X0234568Y0308928D03*
X0234568Y0283436D03*
X0236536Y0283436D03*
X0236536Y0277432D03*
X0234568Y0277432D03*
X0234568Y0251940D03*
X0236536Y0251940D03*
X0236536Y0245936D03*
X0234568Y0245936D03*
X0234568Y0220444D03*
X0236536Y0220444D03*
X0236536Y0214440D03*
X0234568Y0214440D03*
X0234568Y0188948D03*
X0236536Y0188948D03*
X0236536Y0182944D03*
X0234568Y0182944D03*
X0234568Y0157452D03*
X0236536Y0157452D03*
X0236536Y0151448D03*
X0234568Y0151448D03*
X0234568Y0125956D03*
X0236536Y0125956D03*
X0236536Y0119952D03*
X0234568Y0119952D03*
X0234568Y0094459D03*
X0236536Y0094459D03*
X0236536Y0088456D03*
X0234568Y0088456D03*
X0234568Y0062963D03*
X0236536Y0062963D03*
X0236536Y0056959D03*
X0234568Y0056959D03*
X0234568Y0031467D03*
X0236536Y0031467D03*
X0236536Y0025463D03*
X0234568Y0025463D03*
X0273938Y0025463D03*
X0275906Y0025463D03*
X0275906Y0031467D03*
X0273938Y0031467D03*
X0273938Y0056959D03*
X0275906Y0056959D03*
X0275906Y0062963D03*
X0273938Y0062963D03*
X0273938Y0088456D03*
X0275906Y0088456D03*
X0275906Y0094459D03*
X0273938Y0094459D03*
X0273938Y0119952D03*
X0275906Y0119952D03*
X0275906Y0125956D03*
X0273938Y0125956D03*
X0273938Y0151448D03*
X0275906Y0151448D03*
X0275906Y0157452D03*
X0273938Y0157452D03*
X0273938Y0182944D03*
X0275906Y0182944D03*
X0275906Y0188948D03*
X0273938Y0188948D03*
X0273938Y0214440D03*
X0275906Y0214440D03*
X0275906Y0220444D03*
X0273938Y0220444D03*
X0273938Y0245936D03*
X0275906Y0245936D03*
X0275906Y0251940D03*
X0273938Y0251940D03*
X0273938Y0277432D03*
X0275906Y0277432D03*
X0275906Y0283436D03*
X0273938Y0283436D03*
X0273938Y0308928D03*
X0275906Y0308928D03*
X0275906Y0314932D03*
X0273938Y0314932D03*
X0273938Y0340424D03*
X0275906Y0340424D03*
X0275906Y0346428D03*
X0273938Y0346428D03*
X0273938Y0371920D03*
X0275906Y0371920D03*
X0275906Y0377924D03*
X0273938Y0377924D03*
X0317245Y0377924D03*
X0319213Y0377924D03*
X0319213Y0371920D03*
X0317245Y0371920D03*
X0317245Y0346428D03*
X0319213Y0346428D03*
X0319213Y0340424D03*
X0317245Y0340424D03*
X0317245Y0314932D03*
X0319213Y0314932D03*
X0319213Y0308928D03*
X0317245Y0308928D03*
X0317245Y0283436D03*
X0319213Y0283436D03*
X0319213Y0277432D03*
X0317245Y0277432D03*
X0317245Y0251940D03*
X0319213Y0251940D03*
X0319213Y0245936D03*
X0317245Y0245936D03*
X0317245Y0220444D03*
X0319213Y0220444D03*
X0319213Y0214440D03*
X0317245Y0214440D03*
X0317245Y0188948D03*
X0319213Y0188948D03*
X0319213Y0182944D03*
X0317245Y0182944D03*
X0317245Y0157452D03*
X0319213Y0157452D03*
X0319213Y0151448D03*
X0317245Y0151448D03*
X0317245Y0125956D03*
X0319213Y0125956D03*
X0319213Y0119952D03*
X0317245Y0119952D03*
X0317245Y0094459D03*
X0319213Y0094459D03*
X0319213Y0088456D03*
X0317245Y0088456D03*
X0317245Y0062963D03*
X0319213Y0062963D03*
X0319213Y0056959D03*
X0317245Y0056959D03*
X0317245Y0031467D03*
X0319213Y0031467D03*
X0319213Y0025463D03*
X0317245Y0025463D03*
X0360552Y0025463D03*
X0362520Y0025463D03*
X0362520Y0031467D03*
X0360552Y0031467D03*
X0360552Y0056959D03*
X0362520Y0056959D03*
X0362520Y0062963D03*
X0360552Y0062963D03*
X0360552Y0088456D03*
X0362520Y0088456D03*
X0362520Y0094459D03*
X0360552Y0094459D03*
X0360552Y0119952D03*
X0362520Y0119952D03*
X0362520Y0125956D03*
X0360552Y0125956D03*
X0360552Y0151448D03*
X0362520Y0151448D03*
X0362520Y0157452D03*
X0360552Y0157452D03*
X0360552Y0182944D03*
X0362520Y0182944D03*
X0362520Y0188948D03*
X0360552Y0188948D03*
X0360552Y0214440D03*
X0362520Y0214440D03*
X0362520Y0220444D03*
X0360552Y0220444D03*
X0360552Y0245936D03*
X0362520Y0245936D03*
X0362520Y0251940D03*
X0360552Y0251940D03*
X0360552Y0277432D03*
X0362520Y0277432D03*
X0362520Y0283436D03*
X0360552Y0283436D03*
X0360552Y0308928D03*
X0362520Y0308928D03*
X0362520Y0314932D03*
X0360552Y0314932D03*
X0360552Y0340424D03*
X0362520Y0340424D03*
X0362520Y0346428D03*
X0360552Y0346428D03*
X0360552Y0371920D03*
X0362520Y0371920D03*
X0362520Y0377924D03*
X0360552Y0377924D03*
D13*
X0358534Y0376891D03*
X0358534Y0374922D03*
X0358534Y0372954D03*
X0364538Y0372954D03*
X0364538Y0374922D03*
X0364538Y0376891D03*
X0364538Y0345394D03*
X0364538Y0343426D03*
X0364538Y0341457D03*
X0358534Y0341457D03*
X0358534Y0343426D03*
X0358534Y0345394D03*
X0358534Y0313898D03*
X0358534Y0311930D03*
X0358534Y0309961D03*
X0364538Y0309961D03*
X0364538Y0311930D03*
X0364538Y0313898D03*
X0364538Y0282402D03*
X0364538Y0280434D03*
X0364538Y0278465D03*
X0358534Y0278465D03*
X0358534Y0280434D03*
X0358534Y0282402D03*
X0358534Y0250906D03*
X0358534Y0248938D03*
X0358534Y0246969D03*
X0364538Y0246969D03*
X0364538Y0248938D03*
X0364538Y0250906D03*
X0364538Y0219410D03*
X0364538Y0217442D03*
X0364538Y0215473D03*
X0358534Y0215473D03*
X0358534Y0217442D03*
X0358534Y0219410D03*
X0358534Y0187914D03*
X0358534Y0185946D03*
X0358534Y0183977D03*
X0364538Y0183977D03*
X0364538Y0185946D03*
X0364538Y0187914D03*
X0364538Y0156418D03*
X0364538Y0154450D03*
X0364538Y0152481D03*
X0358534Y0152481D03*
X0358534Y0154450D03*
X0358534Y0156418D03*
X0358534Y0124922D03*
X0358534Y0122954D03*
X0358534Y0120985D03*
X0364538Y0120985D03*
X0364538Y0122954D03*
X0364538Y0124922D03*
X0364538Y0093426D03*
X0364538Y0091457D03*
X0364538Y0089489D03*
X0358534Y0089489D03*
X0358534Y0091457D03*
X0358534Y0093426D03*
X0358534Y0061930D03*
X0358534Y0059961D03*
X0358534Y0057993D03*
X0364538Y0057993D03*
X0364538Y0059961D03*
X0364538Y0061930D03*
X0364538Y0030434D03*
X0364538Y0028465D03*
X0364538Y0026497D03*
X0358534Y0026497D03*
X0358534Y0028465D03*
X0358534Y0030434D03*
X0321231Y0030434D03*
X0321231Y0028465D03*
X0321231Y0026497D03*
X0315227Y0026497D03*
X0315227Y0028465D03*
X0315227Y0030434D03*
X0315227Y0057993D03*
X0315227Y0059961D03*
X0315227Y0061930D03*
X0321231Y0061930D03*
X0321231Y0059961D03*
X0321231Y0057993D03*
X0321231Y0089489D03*
X0321231Y0091457D03*
X0321231Y0093426D03*
X0315227Y0093426D03*
X0315227Y0091457D03*
X0315227Y0089489D03*
X0315227Y0120985D03*
X0315227Y0122954D03*
X0315227Y0124922D03*
X0321231Y0124922D03*
X0321231Y0122954D03*
X0321231Y0120985D03*
X0321231Y0152481D03*
X0321231Y0154450D03*
X0321231Y0156418D03*
X0315227Y0156418D03*
X0315227Y0154450D03*
X0315227Y0152481D03*
X0315227Y0183977D03*
X0315227Y0185946D03*
X0315227Y0187914D03*
X0321231Y0187914D03*
X0321231Y0185946D03*
X0321231Y0183977D03*
X0321231Y0215473D03*
X0321231Y0217442D03*
X0321231Y0219410D03*
X0315227Y0219410D03*
X0315227Y0217442D03*
X0315227Y0215473D03*
X0315227Y0246969D03*
X0315227Y0248938D03*
X0315227Y0250906D03*
X0321231Y0250906D03*
X0321231Y0248938D03*
X0321231Y0246969D03*
X0321231Y0278465D03*
X0321231Y0280434D03*
X0321231Y0282402D03*
X0315227Y0282402D03*
X0315227Y0280434D03*
X0315227Y0278465D03*
X0315227Y0309961D03*
X0315227Y0311930D03*
X0315227Y0313898D03*
X0321231Y0313898D03*
X0321231Y0311930D03*
X0321231Y0309961D03*
X0321231Y0341457D03*
X0321231Y0343426D03*
X0321231Y0345394D03*
X0315227Y0345394D03*
X0315227Y0343426D03*
X0315227Y0341457D03*
X0315227Y0372954D03*
X0315227Y0374922D03*
X0315227Y0376891D03*
X0321231Y0376891D03*
X0321231Y0374922D03*
X0321231Y0372954D03*
X0277924Y0372954D03*
X0277924Y0374922D03*
X0277924Y0376891D03*
X0271920Y0376891D03*
X0271920Y0374922D03*
X0271920Y0372954D03*
X0271920Y0345394D03*
X0271920Y0343426D03*
X0271920Y0341457D03*
X0277924Y0341457D03*
X0277924Y0343426D03*
X0277924Y0345394D03*
X0277924Y0313898D03*
X0277924Y0311930D03*
X0277924Y0309961D03*
X0271920Y0309961D03*
X0271920Y0311930D03*
X0271920Y0313898D03*
X0271920Y0282402D03*
X0271920Y0280434D03*
X0271920Y0278465D03*
X0277924Y0278465D03*
X0277924Y0280434D03*
X0277924Y0282402D03*
X0277924Y0250906D03*
X0277924Y0248938D03*
X0277924Y0246969D03*
X0271920Y0246969D03*
X0271920Y0248938D03*
X0271920Y0250906D03*
X0271920Y0219410D03*
X0271920Y0217442D03*
X0271920Y0215473D03*
X0277924Y0215473D03*
X0277924Y0217442D03*
X0277924Y0219410D03*
X0277924Y0187914D03*
X0277924Y0185946D03*
X0277924Y0183977D03*
X0271920Y0183977D03*
X0271920Y0185946D03*
X0271920Y0187914D03*
X0271920Y0156418D03*
X0271920Y0154450D03*
X0271920Y0152481D03*
X0277924Y0152481D03*
X0277924Y0154450D03*
X0277924Y0156418D03*
X0277924Y0124922D03*
X0277924Y0122954D03*
X0277924Y0120985D03*
X0271920Y0120985D03*
X0271920Y0122954D03*
X0271920Y0124922D03*
X0271920Y0093426D03*
X0271920Y0091457D03*
X0271920Y0089489D03*
X0277924Y0089489D03*
X0277924Y0091457D03*
X0277924Y0093426D03*
X0277924Y0061930D03*
X0277924Y0059961D03*
X0277924Y0057993D03*
X0271920Y0057993D03*
X0271920Y0059961D03*
X0271920Y0061930D03*
X0271920Y0030434D03*
X0271920Y0028465D03*
X0271920Y0026497D03*
X0277924Y0026497D03*
X0277924Y0028465D03*
X0277924Y0030434D03*
X0238554Y0030434D03*
X0238554Y0028465D03*
X0238554Y0026497D03*
X0232550Y0026497D03*
X0232550Y0028465D03*
X0232550Y0030434D03*
X0232550Y0057993D03*
X0232550Y0059961D03*
X0232550Y0061930D03*
X0238554Y0061930D03*
X0238554Y0059961D03*
X0238554Y0057993D03*
X0238554Y0089489D03*
X0238554Y0091457D03*
X0238554Y0093426D03*
X0232550Y0093426D03*
X0232550Y0091457D03*
X0232550Y0089489D03*
X0232550Y0120985D03*
X0232550Y0122954D03*
X0232550Y0124922D03*
X0238554Y0124922D03*
X0238554Y0122954D03*
X0238554Y0120985D03*
X0238554Y0152481D03*
X0238554Y0154450D03*
X0238554Y0156418D03*
X0232550Y0156418D03*
X0232550Y0154450D03*
X0232550Y0152481D03*
X0232550Y0183977D03*
X0232550Y0185946D03*
X0232550Y0187914D03*
X0238554Y0187914D03*
X0238554Y0185946D03*
X0238554Y0183977D03*
X0238554Y0215473D03*
X0238554Y0217442D03*
X0238554Y0219410D03*
X0232550Y0219410D03*
X0232550Y0217442D03*
X0232550Y0215473D03*
X0232550Y0246969D03*
X0232550Y0248938D03*
X0232550Y0250906D03*
X0238554Y0250906D03*
X0238554Y0248938D03*
X0238554Y0246969D03*
X0238554Y0278465D03*
X0238554Y0280434D03*
X0238554Y0282402D03*
X0232550Y0282402D03*
X0232550Y0280434D03*
X0232550Y0278465D03*
X0232550Y0309961D03*
X0232550Y0311930D03*
X0232550Y0313898D03*
X0238554Y0313898D03*
X0238554Y0311930D03*
X0238554Y0309961D03*
X0238554Y0341457D03*
X0238554Y0343426D03*
X0238554Y0345394D03*
X0232550Y0345394D03*
X0232550Y0343426D03*
X0232550Y0341457D03*
X0232550Y0372954D03*
X0232550Y0374922D03*
X0232550Y0376891D03*
X0238554Y0376891D03*
X0238554Y0374922D03*
X0238554Y0372954D03*
X0195247Y0372954D03*
X0195247Y0374922D03*
X0195247Y0376891D03*
X0189243Y0376891D03*
X0189243Y0374922D03*
X0189243Y0372954D03*
X0189243Y0345394D03*
X0189243Y0343426D03*
X0189243Y0341457D03*
X0195247Y0341457D03*
X0195247Y0343426D03*
X0195247Y0345394D03*
X0195247Y0313898D03*
X0195247Y0311930D03*
X0195247Y0309961D03*
X0189243Y0309961D03*
X0189243Y0311930D03*
X0189243Y0313898D03*
X0189243Y0282402D03*
X0189243Y0280434D03*
X0189243Y0278465D03*
X0195247Y0278465D03*
X0195247Y0280434D03*
X0195247Y0282402D03*
X0195247Y0250906D03*
X0195247Y0248938D03*
X0195247Y0246969D03*
X0189243Y0246969D03*
X0189243Y0248938D03*
X0189243Y0250906D03*
X0189243Y0219410D03*
X0189243Y0217442D03*
X0189243Y0215473D03*
X0195247Y0215473D03*
X0195247Y0217442D03*
X0195247Y0219410D03*
X0195247Y0187914D03*
X0195247Y0185946D03*
X0195247Y0183977D03*
X0189243Y0183977D03*
X0189243Y0185946D03*
X0189243Y0187914D03*
X0189243Y0156418D03*
X0189243Y0154450D03*
X0189243Y0152481D03*
X0195247Y0152481D03*
X0195247Y0154450D03*
X0195247Y0156418D03*
X0195247Y0124922D03*
X0195247Y0122954D03*
X0195247Y0120985D03*
X0189243Y0120985D03*
X0189243Y0122954D03*
X0189243Y0124922D03*
X0189243Y0093426D03*
X0189243Y0091457D03*
X0189243Y0089489D03*
X0195247Y0089489D03*
X0195247Y0091457D03*
X0195247Y0093426D03*
X0195247Y0061930D03*
X0195247Y0059961D03*
X0195247Y0057993D03*
X0189243Y0057993D03*
X0189243Y0059961D03*
X0189243Y0061930D03*
X0189243Y0030434D03*
X0189243Y0028465D03*
X0189243Y0026497D03*
X0195247Y0026497D03*
X0195247Y0028465D03*
X0195247Y0030434D03*
X0151940Y0030434D03*
X0151940Y0028465D03*
X0151940Y0026497D03*
X0145936Y0026497D03*
X0145936Y0028465D03*
X0145936Y0030434D03*
X0145936Y0057993D03*
X0145936Y0059961D03*
X0145936Y0061930D03*
X0151940Y0061930D03*
X0151940Y0059961D03*
X0151940Y0057993D03*
X0151940Y0089489D03*
X0151940Y0091457D03*
X0151940Y0093426D03*
X0145936Y0093426D03*
X0145936Y0091457D03*
X0145936Y0089489D03*
X0145936Y0120985D03*
X0145936Y0122954D03*
X0145936Y0124922D03*
X0151940Y0124922D03*
X0151940Y0122954D03*
X0151940Y0120985D03*
X0151940Y0152481D03*
X0151940Y0154450D03*
X0151940Y0156418D03*
X0145936Y0156418D03*
X0145936Y0154450D03*
X0145936Y0152481D03*
X0145936Y0183977D03*
X0145936Y0185946D03*
X0145936Y0187914D03*
X0151940Y0187914D03*
X0151940Y0185946D03*
X0151940Y0183977D03*
X0151940Y0215473D03*
X0151940Y0217442D03*
X0151940Y0219410D03*
X0145936Y0219410D03*
X0145936Y0217442D03*
X0145936Y0215473D03*
X0145936Y0246969D03*
X0145936Y0248938D03*
X0145936Y0250906D03*
X0151940Y0250906D03*
X0151940Y0248938D03*
X0151940Y0246969D03*
X0151940Y0278465D03*
X0151940Y0280434D03*
X0151940Y0282402D03*
X0145936Y0282402D03*
X0145936Y0280434D03*
X0145936Y0278465D03*
X0145936Y0309961D03*
X0145936Y0311930D03*
X0145936Y0313898D03*
X0151940Y0313898D03*
X0151940Y0311930D03*
X0151940Y0309961D03*
X0151940Y0341457D03*
X0151940Y0343426D03*
X0151940Y0345394D03*
X0145936Y0345394D03*
X0145936Y0343426D03*
X0145936Y0341457D03*
X0145936Y0372954D03*
X0145936Y0374922D03*
X0145936Y0376891D03*
X0151940Y0376891D03*
X0151940Y0374922D03*
X0151940Y0372954D03*
X0112570Y0372954D03*
X0112570Y0374922D03*
X0112570Y0376891D03*
X0106566Y0376891D03*
X0106566Y0374922D03*
X0106566Y0372954D03*
X0106566Y0345394D03*
X0106566Y0343426D03*
X0106566Y0341457D03*
X0112570Y0341457D03*
X0112570Y0343426D03*
X0112570Y0345394D03*
X0112570Y0313898D03*
X0112570Y0311930D03*
X0112570Y0309961D03*
X0106566Y0309961D03*
X0106566Y0311930D03*
X0106566Y0313898D03*
X0106566Y0282402D03*
X0106566Y0280434D03*
X0106566Y0278465D03*
X0112570Y0278465D03*
X0112570Y0280434D03*
X0112570Y0282402D03*
X0112570Y0250906D03*
X0112570Y0248938D03*
X0112570Y0246969D03*
X0106566Y0246969D03*
X0106566Y0248938D03*
X0106566Y0250906D03*
X0106566Y0219410D03*
X0106566Y0217442D03*
X0106566Y0215473D03*
X0112570Y0215473D03*
X0112570Y0217442D03*
X0112570Y0219410D03*
X0112570Y0187914D03*
X0112570Y0185946D03*
X0112570Y0183977D03*
X0106566Y0183977D03*
X0106566Y0185946D03*
X0106566Y0187914D03*
X0106566Y0156418D03*
X0106566Y0154450D03*
X0106566Y0152481D03*
X0112570Y0152481D03*
X0112570Y0154450D03*
X0112570Y0156418D03*
X0112570Y0124922D03*
X0112570Y0122954D03*
X0112570Y0120985D03*
X0106566Y0120985D03*
X0106566Y0122954D03*
X0106566Y0124922D03*
X0106566Y0093426D03*
X0106566Y0091457D03*
X0106566Y0089489D03*
X0112570Y0089489D03*
X0112570Y0091457D03*
X0112570Y0093426D03*
X0112570Y0061930D03*
X0112570Y0059961D03*
X0112570Y0057993D03*
X0106566Y0057993D03*
X0106566Y0059961D03*
X0106566Y0061930D03*
X0106566Y0030434D03*
X0106566Y0028465D03*
X0106566Y0026497D03*
X0112570Y0026497D03*
X0112570Y0028465D03*
X0112570Y0030434D03*
X0073200Y0030434D03*
X0073200Y0028465D03*
X0073200Y0026497D03*
X0067196Y0026497D03*
X0067196Y0028465D03*
X0067196Y0030434D03*
X0067196Y0057993D03*
X0067196Y0059961D03*
X0067196Y0061930D03*
X0073200Y0061930D03*
X0073200Y0059961D03*
X0073200Y0057993D03*
X0073200Y0089489D03*
X0073200Y0091457D03*
X0073200Y0093426D03*
X0067196Y0093426D03*
X0067196Y0091457D03*
X0067196Y0089489D03*
X0067196Y0120985D03*
X0067196Y0122954D03*
X0067196Y0124922D03*
X0073200Y0124922D03*
X0073200Y0122954D03*
X0073200Y0120985D03*
X0073200Y0152481D03*
X0073200Y0154450D03*
X0073200Y0156418D03*
X0067196Y0156418D03*
X0067196Y0154450D03*
X0067196Y0152481D03*
X0067196Y0183977D03*
X0067196Y0185946D03*
X0067196Y0187914D03*
X0073200Y0187914D03*
X0073200Y0185946D03*
X0073200Y0183977D03*
X0073200Y0215473D03*
X0073200Y0217442D03*
X0073200Y0219410D03*
X0067196Y0219410D03*
X0067196Y0217442D03*
X0067196Y0215473D03*
X0067196Y0246969D03*
X0067196Y0248938D03*
X0067196Y0250906D03*
X0073200Y0250906D03*
X0073200Y0248938D03*
X0073200Y0246969D03*
X0073200Y0278465D03*
X0073200Y0280434D03*
X0073200Y0282402D03*
X0067196Y0282402D03*
X0067196Y0280434D03*
X0067196Y0278465D03*
X0067196Y0309961D03*
X0067196Y0311930D03*
X0067196Y0313898D03*
X0073200Y0313898D03*
X0073200Y0311930D03*
X0073200Y0309961D03*
X0073200Y0341457D03*
X0073200Y0343426D03*
X0073200Y0345394D03*
X0067196Y0345394D03*
X0067196Y0343426D03*
X0067196Y0341457D03*
X0067196Y0372954D03*
X0067196Y0374922D03*
X0067196Y0376891D03*
X0073200Y0376891D03*
X0073200Y0374922D03*
X0073200Y0372954D03*
X0033830Y0372954D03*
X0033830Y0374922D03*
X0033830Y0376891D03*
X0027826Y0376891D03*
X0027826Y0374922D03*
X0027826Y0372954D03*
X0027826Y0345394D03*
X0027826Y0343426D03*
X0027826Y0341457D03*
X0033830Y0341457D03*
X0033830Y0343426D03*
X0033830Y0345394D03*
X0033830Y0313898D03*
X0033830Y0311930D03*
X0033830Y0309961D03*
X0027826Y0309961D03*
X0027826Y0311930D03*
X0027826Y0313898D03*
X0027826Y0282402D03*
X0027826Y0280434D03*
X0027826Y0278465D03*
X0033830Y0278465D03*
X0033830Y0280434D03*
X0033830Y0282402D03*
X0033830Y0250906D03*
X0033830Y0248938D03*
X0033830Y0246969D03*
X0027826Y0246969D03*
X0027826Y0248938D03*
X0027826Y0250906D03*
X0027826Y0219410D03*
X0027826Y0217442D03*
X0027826Y0215473D03*
X0033830Y0215473D03*
X0033830Y0217442D03*
X0033830Y0219410D03*
X0033830Y0187914D03*
X0033830Y0185946D03*
X0033830Y0183977D03*
X0027826Y0183977D03*
X0027826Y0185946D03*
X0027826Y0187914D03*
X0027826Y0156418D03*
X0027826Y0154450D03*
X0027826Y0152481D03*
X0033830Y0152481D03*
X0033830Y0154450D03*
X0033830Y0156418D03*
X0033830Y0124922D03*
X0033830Y0122954D03*
X0033830Y0120985D03*
X0027826Y0120985D03*
X0027826Y0122954D03*
X0027826Y0124922D03*
X0027826Y0093426D03*
X0027826Y0091457D03*
X0027826Y0089489D03*
X0033830Y0089489D03*
X0033830Y0091457D03*
X0033830Y0093426D03*
X0033830Y0061930D03*
X0033830Y0059961D03*
X0033830Y0057993D03*
X0027826Y0057993D03*
X0027826Y0059961D03*
X0027826Y0061930D03*
X0027826Y0030434D03*
X0027826Y0028465D03*
X0027826Y0026497D03*
X0033830Y0026497D03*
X0033830Y0028465D03*
X0033830Y0030434D03*
D14*
X0037914Y0028465D03*
X0037914Y0059961D03*
X0037914Y0091457D03*
X0037914Y0122954D03*
X0037914Y0154450D03*
X0037914Y0185946D03*
X0037914Y0217442D03*
X0037914Y0248938D03*
X0037914Y0280434D03*
X0037914Y0311930D03*
X0037914Y0343426D03*
X0037914Y0374922D03*
X0077284Y0374922D03*
X0077284Y0343426D03*
X0077284Y0311930D03*
X0077284Y0280434D03*
X0077284Y0248938D03*
X0077284Y0217442D03*
X0077284Y0185946D03*
X0077284Y0154450D03*
X0077284Y0122954D03*
X0077284Y0091457D03*
X0077284Y0059961D03*
X0077284Y0028465D03*
X0116654Y0028465D03*
X0116654Y0059961D03*
X0116654Y0091457D03*
X0116654Y0122954D03*
X0116654Y0154450D03*
X0116654Y0185946D03*
X0116654Y0217442D03*
X0116654Y0248938D03*
X0116654Y0280434D03*
X0116654Y0311930D03*
X0116654Y0343426D03*
X0116654Y0374922D03*
X0156024Y0374922D03*
X0156024Y0343426D03*
X0156024Y0311930D03*
X0156024Y0280434D03*
X0156024Y0248938D03*
X0156024Y0217442D03*
X0156024Y0185946D03*
X0156024Y0154450D03*
X0156024Y0122954D03*
X0156024Y0091457D03*
X0156024Y0059961D03*
X0156024Y0028465D03*
X0199331Y0028465D03*
X0199331Y0059961D03*
X0199331Y0091457D03*
X0199331Y0122954D03*
X0199331Y0154450D03*
X0199331Y0185946D03*
X0199331Y0217442D03*
X0199331Y0248938D03*
X0199331Y0280434D03*
X0199331Y0311930D03*
X0199331Y0343426D03*
X0199331Y0374922D03*
X0242639Y0374922D03*
X0242639Y0343426D03*
X0242639Y0311930D03*
X0242639Y0280434D03*
X0242639Y0248938D03*
X0242639Y0217442D03*
X0242639Y0185946D03*
X0242639Y0154450D03*
X0242639Y0122954D03*
X0242639Y0091457D03*
X0242639Y0059961D03*
X0242639Y0028465D03*
X0282009Y0028465D03*
X0282009Y0059961D03*
X0282009Y0091457D03*
X0282009Y0122954D03*
X0282009Y0154450D03*
X0282009Y0185946D03*
X0282009Y0217442D03*
X0282009Y0248938D03*
X0282009Y0280434D03*
X0282009Y0311930D03*
X0282009Y0343426D03*
X0282009Y0374922D03*
X0325316Y0374922D03*
X0325316Y0343426D03*
X0325316Y0311930D03*
X0325316Y0280434D03*
X0325316Y0248938D03*
X0325316Y0217442D03*
X0325316Y0185946D03*
X0325316Y0154450D03*
X0325316Y0122954D03*
X0325316Y0091457D03*
X0325316Y0059961D03*
X0325316Y0028465D03*
X0368623Y0028465D03*
X0368623Y0059961D03*
X0368623Y0091457D03*
X0368623Y0122954D03*
X0368623Y0154450D03*
X0368623Y0185946D03*
X0368623Y0217442D03*
X0368623Y0248938D03*
X0368623Y0280434D03*
X0368623Y0311930D03*
X0368623Y0343426D03*
X0368623Y0374922D03*
M02*
