G75*
%MOIN*%
%OFA0B0*%
%FSLAX25Y25*%
%IPPOS*%
%LPD*%
%AMOC8*
5,1,8,0,0,1.08239X$1,22.5*
%
%ADD10C,0.00100*%
D10*
X0029260Y0029696D02*
X0029260Y0030597D01*
X0028659Y0030597D01*
X0028960Y0030147D02*
X0029260Y0030147D01*
X0029580Y0030147D02*
X0029580Y0029696D01*
X0029580Y0030147D02*
X0029730Y0030297D01*
X0030181Y0030297D01*
X0030181Y0029696D01*
X0030501Y0029847D02*
X0030651Y0029696D01*
X0030951Y0029696D01*
X0031101Y0029847D01*
X0030501Y0030447D01*
X0030501Y0029847D01*
X0030501Y0030447D02*
X0030651Y0030597D01*
X0030951Y0030597D01*
X0031101Y0030447D01*
X0031101Y0029847D01*
X0031422Y0029847D02*
X0031572Y0029696D01*
X0031872Y0029696D01*
X0032022Y0029847D01*
X0031422Y0030447D01*
X0031422Y0029847D01*
X0031422Y0030447D02*
X0031572Y0030597D01*
X0031872Y0030597D01*
X0032022Y0030447D01*
X0032022Y0029847D01*
X0032342Y0029696D02*
X0032943Y0029696D01*
X0032643Y0029696D02*
X0032643Y0030597D01*
X0032943Y0030297D01*
X0032943Y0061193D02*
X0032342Y0061193D01*
X0032643Y0061193D02*
X0032643Y0062093D01*
X0032943Y0061793D01*
X0032022Y0061943D02*
X0031872Y0062093D01*
X0031572Y0062093D01*
X0031422Y0061943D01*
X0032022Y0061343D01*
X0031872Y0061193D01*
X0031572Y0061193D01*
X0031422Y0061343D01*
X0031422Y0061943D01*
X0031101Y0061943D02*
X0030951Y0062093D01*
X0030651Y0062093D01*
X0030501Y0061943D01*
X0031101Y0061343D01*
X0030951Y0061193D01*
X0030651Y0061193D01*
X0030501Y0061343D01*
X0030501Y0061943D01*
X0030181Y0061793D02*
X0029730Y0061793D01*
X0029580Y0061643D01*
X0029580Y0061193D01*
X0029260Y0061193D02*
X0029260Y0062093D01*
X0028659Y0062093D01*
X0028960Y0061643D02*
X0029260Y0061643D01*
X0030181Y0061793D02*
X0030181Y0061193D01*
X0031101Y0061343D02*
X0031101Y0061943D01*
X0032022Y0061943D02*
X0032022Y0061343D01*
X0031872Y0092689D02*
X0031572Y0092689D01*
X0031422Y0092839D01*
X0031422Y0093439D01*
X0032022Y0092839D01*
X0031872Y0092689D01*
X0032022Y0092839D02*
X0032022Y0093439D01*
X0031872Y0093589D01*
X0031572Y0093589D01*
X0031422Y0093439D01*
X0031101Y0093439D02*
X0030951Y0093589D01*
X0030651Y0093589D01*
X0030501Y0093439D01*
X0031101Y0092839D01*
X0030951Y0092689D01*
X0030651Y0092689D01*
X0030501Y0092839D01*
X0030501Y0093439D01*
X0030181Y0093289D02*
X0029730Y0093289D01*
X0029580Y0093139D01*
X0029580Y0092689D01*
X0029260Y0092689D02*
X0029260Y0093589D01*
X0028659Y0093589D01*
X0028960Y0093139D02*
X0029260Y0093139D01*
X0030181Y0093289D02*
X0030181Y0092689D01*
X0031101Y0092839D02*
X0031101Y0093439D01*
X0032342Y0092689D02*
X0032943Y0092689D01*
X0032643Y0092689D02*
X0032643Y0093589D01*
X0032943Y0093289D01*
X0032943Y0124185D02*
X0032342Y0124185D01*
X0032643Y0124185D02*
X0032643Y0125085D01*
X0032943Y0124785D01*
X0032022Y0124935D02*
X0031872Y0125085D01*
X0031572Y0125085D01*
X0031422Y0124935D01*
X0032022Y0124335D01*
X0031872Y0124185D01*
X0031572Y0124185D01*
X0031422Y0124335D01*
X0031422Y0124935D01*
X0031101Y0124935D02*
X0030951Y0125085D01*
X0030651Y0125085D01*
X0030501Y0124935D01*
X0031101Y0124335D01*
X0030951Y0124185D01*
X0030651Y0124185D01*
X0030501Y0124335D01*
X0030501Y0124935D01*
X0030181Y0124785D02*
X0029730Y0124785D01*
X0029580Y0124635D01*
X0029580Y0124185D01*
X0029260Y0124185D02*
X0029260Y0125085D01*
X0028659Y0125085D01*
X0028960Y0124635D02*
X0029260Y0124635D01*
X0030181Y0124785D02*
X0030181Y0124185D01*
X0031101Y0124335D02*
X0031101Y0124935D01*
X0032022Y0124935D02*
X0032022Y0124335D01*
X0031872Y0155681D02*
X0031572Y0155681D01*
X0031422Y0155831D01*
X0031422Y0156431D01*
X0032022Y0155831D01*
X0031872Y0155681D01*
X0032022Y0155831D02*
X0032022Y0156431D01*
X0031872Y0156581D01*
X0031572Y0156581D01*
X0031422Y0156431D01*
X0031101Y0156431D02*
X0030951Y0156581D01*
X0030651Y0156581D01*
X0030501Y0156431D01*
X0031101Y0155831D01*
X0030951Y0155681D01*
X0030651Y0155681D01*
X0030501Y0155831D01*
X0030501Y0156431D01*
X0030181Y0156281D02*
X0029730Y0156281D01*
X0029580Y0156131D01*
X0029580Y0155681D01*
X0029260Y0155681D02*
X0029260Y0156581D01*
X0028659Y0156581D01*
X0028960Y0156131D02*
X0029260Y0156131D01*
X0030181Y0156281D02*
X0030181Y0155681D01*
X0031101Y0155831D02*
X0031101Y0156431D01*
X0032342Y0155681D02*
X0032943Y0155681D01*
X0032643Y0155681D02*
X0032643Y0156581D01*
X0032943Y0156281D01*
X0032943Y0187177D02*
X0032342Y0187177D01*
X0032643Y0187177D02*
X0032643Y0188078D01*
X0032943Y0187777D01*
X0032022Y0187927D02*
X0031872Y0188078D01*
X0031572Y0188078D01*
X0031422Y0187927D01*
X0032022Y0187327D01*
X0031872Y0187177D01*
X0031572Y0187177D01*
X0031422Y0187327D01*
X0031422Y0187927D01*
X0031101Y0187927D02*
X0030951Y0188078D01*
X0030651Y0188078D01*
X0030501Y0187927D01*
X0031101Y0187327D01*
X0030951Y0187177D01*
X0030651Y0187177D01*
X0030501Y0187327D01*
X0030501Y0187927D01*
X0030181Y0187777D02*
X0029730Y0187777D01*
X0029580Y0187627D01*
X0029580Y0187177D01*
X0029260Y0187177D02*
X0029260Y0188078D01*
X0028659Y0188078D01*
X0028960Y0187627D02*
X0029260Y0187627D01*
X0030181Y0187777D02*
X0030181Y0187177D01*
X0031101Y0187327D02*
X0031101Y0187927D01*
X0032022Y0187927D02*
X0032022Y0187327D01*
X0031872Y0218673D02*
X0031572Y0218673D01*
X0031422Y0218823D01*
X0031422Y0219423D01*
X0032022Y0218823D01*
X0031872Y0218673D01*
X0032022Y0218823D02*
X0032022Y0219423D01*
X0031872Y0219574D01*
X0031572Y0219574D01*
X0031422Y0219423D01*
X0031101Y0219423D02*
X0030951Y0219574D01*
X0030651Y0219574D01*
X0030501Y0219423D01*
X0031101Y0218823D01*
X0030951Y0218673D01*
X0030651Y0218673D01*
X0030501Y0218823D01*
X0030501Y0219423D01*
X0030181Y0219273D02*
X0029730Y0219273D01*
X0029580Y0219123D01*
X0029580Y0218673D01*
X0029260Y0218673D02*
X0029260Y0219574D01*
X0028659Y0219574D01*
X0028960Y0219123D02*
X0029260Y0219123D01*
X0030181Y0219273D02*
X0030181Y0218673D01*
X0031101Y0218823D02*
X0031101Y0219423D01*
X0032342Y0218673D02*
X0032943Y0218673D01*
X0032643Y0218673D02*
X0032643Y0219574D01*
X0032943Y0219273D01*
X0032943Y0250169D02*
X0032342Y0250169D01*
X0032643Y0250169D02*
X0032643Y0251070D01*
X0032943Y0250769D01*
X0032022Y0250920D02*
X0031872Y0251070D01*
X0031572Y0251070D01*
X0031422Y0250920D01*
X0032022Y0250319D01*
X0031872Y0250169D01*
X0031572Y0250169D01*
X0031422Y0250319D01*
X0031422Y0250920D01*
X0031101Y0250920D02*
X0030951Y0251070D01*
X0030651Y0251070D01*
X0030501Y0250920D01*
X0031101Y0250319D01*
X0030951Y0250169D01*
X0030651Y0250169D01*
X0030501Y0250319D01*
X0030501Y0250920D01*
X0030181Y0250769D02*
X0029730Y0250769D01*
X0029580Y0250619D01*
X0029580Y0250169D01*
X0029260Y0250169D02*
X0029260Y0251070D01*
X0028659Y0251070D01*
X0028960Y0250619D02*
X0029260Y0250619D01*
X0030181Y0250769D02*
X0030181Y0250169D01*
X0031101Y0250319D02*
X0031101Y0250920D01*
X0032022Y0250920D02*
X0032022Y0250319D01*
X0031872Y0281665D02*
X0031572Y0281665D01*
X0031422Y0281815D01*
X0031422Y0282416D01*
X0032022Y0281815D01*
X0031872Y0281665D01*
X0032022Y0281815D02*
X0032022Y0282416D01*
X0031872Y0282566D01*
X0031572Y0282566D01*
X0031422Y0282416D01*
X0031101Y0282416D02*
X0030951Y0282566D01*
X0030651Y0282566D01*
X0030501Y0282416D01*
X0031101Y0281815D01*
X0030951Y0281665D01*
X0030651Y0281665D01*
X0030501Y0281815D01*
X0030501Y0282416D01*
X0030181Y0282265D02*
X0029730Y0282265D01*
X0029580Y0282115D01*
X0029580Y0281665D01*
X0029260Y0281665D02*
X0029260Y0282566D01*
X0028659Y0282566D01*
X0028960Y0282115D02*
X0029260Y0282115D01*
X0030181Y0282265D02*
X0030181Y0281665D01*
X0031101Y0281815D02*
X0031101Y0282416D01*
X0032342Y0281665D02*
X0032943Y0281665D01*
X0032643Y0281665D02*
X0032643Y0282566D01*
X0032943Y0282265D01*
X0032943Y0313161D02*
X0032342Y0313161D01*
X0032643Y0313161D02*
X0032643Y0314062D01*
X0032943Y0313762D01*
X0032022Y0313912D02*
X0031872Y0314062D01*
X0031572Y0314062D01*
X0031422Y0313912D01*
X0032022Y0313311D01*
X0031872Y0313161D01*
X0031572Y0313161D01*
X0031422Y0313311D01*
X0031422Y0313912D01*
X0031101Y0313912D02*
X0030951Y0314062D01*
X0030651Y0314062D01*
X0030501Y0313912D01*
X0031101Y0313311D01*
X0030951Y0313161D01*
X0030651Y0313161D01*
X0030501Y0313311D01*
X0030501Y0313912D01*
X0030181Y0313762D02*
X0029730Y0313762D01*
X0029580Y0313611D01*
X0029580Y0313161D01*
X0029260Y0313161D02*
X0029260Y0314062D01*
X0028659Y0314062D01*
X0028960Y0313611D02*
X0029260Y0313611D01*
X0030181Y0313762D02*
X0030181Y0313161D01*
X0031101Y0313311D02*
X0031101Y0313912D01*
X0032022Y0313912D02*
X0032022Y0313311D01*
X0031872Y0344657D02*
X0031572Y0344657D01*
X0031422Y0344807D01*
X0031422Y0345408D01*
X0032022Y0344807D01*
X0031872Y0344657D01*
X0032022Y0344807D02*
X0032022Y0345408D01*
X0031872Y0345558D01*
X0031572Y0345558D01*
X0031422Y0345408D01*
X0031101Y0345408D02*
X0030951Y0345558D01*
X0030651Y0345558D01*
X0030501Y0345408D01*
X0031101Y0344807D01*
X0030951Y0344657D01*
X0030651Y0344657D01*
X0030501Y0344807D01*
X0030501Y0345408D01*
X0030181Y0345258D02*
X0029730Y0345258D01*
X0029580Y0345107D01*
X0029580Y0344657D01*
X0029260Y0344657D02*
X0029260Y0345558D01*
X0028659Y0345558D01*
X0028960Y0345107D02*
X0029260Y0345107D01*
X0030181Y0345258D02*
X0030181Y0344657D01*
X0031101Y0344807D02*
X0031101Y0345408D01*
X0032342Y0344657D02*
X0032943Y0344657D01*
X0032643Y0344657D02*
X0032643Y0345558D01*
X0032943Y0345258D01*
X0032943Y0376153D02*
X0032342Y0376153D01*
X0032643Y0376153D02*
X0032643Y0377054D01*
X0032943Y0376754D01*
X0032022Y0376904D02*
X0031872Y0377054D01*
X0031572Y0377054D01*
X0031422Y0376904D01*
X0032022Y0376303D01*
X0031872Y0376153D01*
X0031572Y0376153D01*
X0031422Y0376303D01*
X0031422Y0376904D01*
X0031101Y0376904D02*
X0030951Y0377054D01*
X0030651Y0377054D01*
X0030501Y0376904D01*
X0031101Y0376303D01*
X0030951Y0376153D01*
X0030651Y0376153D01*
X0030501Y0376303D01*
X0030501Y0376904D01*
X0030181Y0376754D02*
X0029730Y0376754D01*
X0029580Y0376604D01*
X0029580Y0376153D01*
X0029260Y0376153D02*
X0029260Y0377054D01*
X0028659Y0377054D01*
X0028960Y0376604D02*
X0029260Y0376604D01*
X0030181Y0376754D02*
X0030181Y0376153D01*
X0031101Y0376303D02*
X0031101Y0376904D01*
X0032022Y0376904D02*
X0032022Y0376303D01*
X0068029Y0377054D02*
X0068630Y0377054D01*
X0068630Y0376153D01*
X0068950Y0376153D02*
X0068950Y0376604D01*
X0069100Y0376754D01*
X0069551Y0376754D01*
X0069551Y0376153D01*
X0069871Y0376303D02*
X0070021Y0376153D01*
X0070321Y0376153D01*
X0070471Y0376303D01*
X0069871Y0376904D01*
X0069871Y0376303D01*
X0070471Y0376303D02*
X0070471Y0376904D01*
X0070321Y0377054D01*
X0070021Y0377054D01*
X0069871Y0376904D01*
X0070792Y0376904D02*
X0071392Y0376303D01*
X0071242Y0376153D01*
X0070942Y0376153D01*
X0070792Y0376303D01*
X0070792Y0376904D01*
X0070942Y0377054D01*
X0071242Y0377054D01*
X0071392Y0376904D01*
X0071392Y0376303D01*
X0071712Y0376153D02*
X0072313Y0376153D01*
X0072013Y0376153D02*
X0072013Y0377054D01*
X0072313Y0376754D01*
X0068630Y0376604D02*
X0068330Y0376604D01*
X0068630Y0345558D02*
X0068029Y0345558D01*
X0068330Y0345107D02*
X0068630Y0345107D01*
X0068950Y0345107D02*
X0068950Y0344657D01*
X0068630Y0344657D02*
X0068630Y0345558D01*
X0068950Y0345107D02*
X0069100Y0345258D01*
X0069551Y0345258D01*
X0069551Y0344657D01*
X0069871Y0344807D02*
X0070021Y0344657D01*
X0070321Y0344657D01*
X0070471Y0344807D01*
X0069871Y0345408D01*
X0069871Y0344807D01*
X0070471Y0344807D02*
X0070471Y0345408D01*
X0070321Y0345558D01*
X0070021Y0345558D01*
X0069871Y0345408D01*
X0070792Y0345408D02*
X0071392Y0344807D01*
X0071242Y0344657D01*
X0070942Y0344657D01*
X0070792Y0344807D01*
X0070792Y0345408D01*
X0070942Y0345558D01*
X0071242Y0345558D01*
X0071392Y0345408D01*
X0071392Y0344807D01*
X0071712Y0344657D02*
X0072313Y0344657D01*
X0072013Y0344657D02*
X0072013Y0345558D01*
X0072313Y0345258D01*
X0072013Y0314062D02*
X0072013Y0313161D01*
X0072313Y0313161D02*
X0071712Y0313161D01*
X0071392Y0313311D02*
X0070792Y0313912D01*
X0070792Y0313311D01*
X0070942Y0313161D01*
X0071242Y0313161D01*
X0071392Y0313311D01*
X0071392Y0313912D01*
X0071242Y0314062D01*
X0070942Y0314062D01*
X0070792Y0313912D01*
X0070471Y0313912D02*
X0070321Y0314062D01*
X0070021Y0314062D01*
X0069871Y0313912D01*
X0070471Y0313311D01*
X0070321Y0313161D01*
X0070021Y0313161D01*
X0069871Y0313311D01*
X0069871Y0313912D01*
X0069551Y0313762D02*
X0069100Y0313762D01*
X0068950Y0313611D01*
X0068950Y0313161D01*
X0068630Y0313161D02*
X0068630Y0314062D01*
X0068029Y0314062D01*
X0068330Y0313611D02*
X0068630Y0313611D01*
X0069551Y0313762D02*
X0069551Y0313161D01*
X0070471Y0313311D02*
X0070471Y0313912D01*
X0072013Y0314062D02*
X0072313Y0313762D01*
X0072013Y0282566D02*
X0072013Y0281665D01*
X0072313Y0281665D02*
X0071712Y0281665D01*
X0071392Y0281815D02*
X0070792Y0282416D01*
X0070792Y0281815D01*
X0070942Y0281665D01*
X0071242Y0281665D01*
X0071392Y0281815D01*
X0071392Y0282416D01*
X0071242Y0282566D01*
X0070942Y0282566D01*
X0070792Y0282416D01*
X0070471Y0282416D02*
X0070321Y0282566D01*
X0070021Y0282566D01*
X0069871Y0282416D01*
X0070471Y0281815D01*
X0070321Y0281665D01*
X0070021Y0281665D01*
X0069871Y0281815D01*
X0069871Y0282416D01*
X0069551Y0282265D02*
X0069100Y0282265D01*
X0068950Y0282115D01*
X0068950Y0281665D01*
X0068630Y0281665D02*
X0068630Y0282566D01*
X0068029Y0282566D01*
X0068330Y0282115D02*
X0068630Y0282115D01*
X0069551Y0282265D02*
X0069551Y0281665D01*
X0070471Y0281815D02*
X0070471Y0282416D01*
X0072013Y0282566D02*
X0072313Y0282265D01*
X0072013Y0251070D02*
X0072013Y0250169D01*
X0072313Y0250169D02*
X0071712Y0250169D01*
X0071392Y0250319D02*
X0070792Y0250920D01*
X0070792Y0250319D01*
X0070942Y0250169D01*
X0071242Y0250169D01*
X0071392Y0250319D01*
X0071392Y0250920D01*
X0071242Y0251070D01*
X0070942Y0251070D01*
X0070792Y0250920D01*
X0070471Y0250920D02*
X0070321Y0251070D01*
X0070021Y0251070D01*
X0069871Y0250920D01*
X0070471Y0250319D01*
X0070321Y0250169D01*
X0070021Y0250169D01*
X0069871Y0250319D01*
X0069871Y0250920D01*
X0069551Y0250769D02*
X0069100Y0250769D01*
X0068950Y0250619D01*
X0068950Y0250169D01*
X0068630Y0250169D02*
X0068630Y0251070D01*
X0068029Y0251070D01*
X0068330Y0250619D02*
X0068630Y0250619D01*
X0069551Y0250769D02*
X0069551Y0250169D01*
X0070471Y0250319D02*
X0070471Y0250920D01*
X0072013Y0251070D02*
X0072313Y0250769D01*
X0072013Y0219574D02*
X0072013Y0218673D01*
X0072313Y0218673D02*
X0071712Y0218673D01*
X0071392Y0218823D02*
X0070792Y0219423D01*
X0070792Y0218823D01*
X0070942Y0218673D01*
X0071242Y0218673D01*
X0071392Y0218823D01*
X0071392Y0219423D01*
X0071242Y0219574D01*
X0070942Y0219574D01*
X0070792Y0219423D01*
X0070471Y0219423D02*
X0070321Y0219574D01*
X0070021Y0219574D01*
X0069871Y0219423D01*
X0070471Y0218823D01*
X0070321Y0218673D01*
X0070021Y0218673D01*
X0069871Y0218823D01*
X0069871Y0219423D01*
X0069551Y0219273D02*
X0069100Y0219273D01*
X0068950Y0219123D01*
X0068950Y0218673D01*
X0068630Y0218673D02*
X0068630Y0219574D01*
X0068029Y0219574D01*
X0068330Y0219123D02*
X0068630Y0219123D01*
X0069551Y0219273D02*
X0069551Y0218673D01*
X0070471Y0218823D02*
X0070471Y0219423D01*
X0072013Y0219574D02*
X0072313Y0219273D01*
X0072013Y0188078D02*
X0072013Y0187177D01*
X0072313Y0187177D02*
X0071712Y0187177D01*
X0071392Y0187327D02*
X0070792Y0187927D01*
X0070792Y0187327D01*
X0070942Y0187177D01*
X0071242Y0187177D01*
X0071392Y0187327D01*
X0071392Y0187927D01*
X0071242Y0188078D01*
X0070942Y0188078D01*
X0070792Y0187927D01*
X0070471Y0187927D02*
X0070321Y0188078D01*
X0070021Y0188078D01*
X0069871Y0187927D01*
X0070471Y0187327D01*
X0070321Y0187177D01*
X0070021Y0187177D01*
X0069871Y0187327D01*
X0069871Y0187927D01*
X0069551Y0187777D02*
X0069100Y0187777D01*
X0068950Y0187627D01*
X0068950Y0187177D01*
X0068630Y0187177D02*
X0068630Y0188078D01*
X0068029Y0188078D01*
X0068330Y0187627D02*
X0068630Y0187627D01*
X0069551Y0187777D02*
X0069551Y0187177D01*
X0070471Y0187327D02*
X0070471Y0187927D01*
X0072013Y0188078D02*
X0072313Y0187777D01*
X0072013Y0156581D02*
X0072013Y0155681D01*
X0072313Y0155681D02*
X0071712Y0155681D01*
X0071392Y0155831D02*
X0070792Y0156431D01*
X0070792Y0155831D01*
X0070942Y0155681D01*
X0071242Y0155681D01*
X0071392Y0155831D01*
X0071392Y0156431D01*
X0071242Y0156581D01*
X0070942Y0156581D01*
X0070792Y0156431D01*
X0070471Y0156431D02*
X0070321Y0156581D01*
X0070021Y0156581D01*
X0069871Y0156431D01*
X0070471Y0155831D01*
X0070321Y0155681D01*
X0070021Y0155681D01*
X0069871Y0155831D01*
X0069871Y0156431D01*
X0069551Y0156281D02*
X0069100Y0156281D01*
X0068950Y0156131D01*
X0068950Y0155681D01*
X0068630Y0155681D02*
X0068630Y0156581D01*
X0068029Y0156581D01*
X0068330Y0156131D02*
X0068630Y0156131D01*
X0069551Y0156281D02*
X0069551Y0155681D01*
X0070471Y0155831D02*
X0070471Y0156431D01*
X0072013Y0156581D02*
X0072313Y0156281D01*
X0072013Y0125085D02*
X0072013Y0124185D01*
X0072313Y0124185D02*
X0071712Y0124185D01*
X0071392Y0124335D02*
X0070792Y0124935D01*
X0070792Y0124335D01*
X0070942Y0124185D01*
X0071242Y0124185D01*
X0071392Y0124335D01*
X0071392Y0124935D01*
X0071242Y0125085D01*
X0070942Y0125085D01*
X0070792Y0124935D01*
X0070471Y0124935D02*
X0070321Y0125085D01*
X0070021Y0125085D01*
X0069871Y0124935D01*
X0070471Y0124335D01*
X0070321Y0124185D01*
X0070021Y0124185D01*
X0069871Y0124335D01*
X0069871Y0124935D01*
X0069551Y0124785D02*
X0069100Y0124785D01*
X0068950Y0124635D01*
X0068950Y0124185D01*
X0068630Y0124185D02*
X0068630Y0125085D01*
X0068029Y0125085D01*
X0068330Y0124635D02*
X0068630Y0124635D01*
X0069551Y0124785D02*
X0069551Y0124185D01*
X0070471Y0124335D02*
X0070471Y0124935D01*
X0072013Y0125085D02*
X0072313Y0124785D01*
X0072013Y0093589D02*
X0072013Y0092689D01*
X0072313Y0092689D02*
X0071712Y0092689D01*
X0071392Y0092839D02*
X0070792Y0093439D01*
X0070792Y0092839D01*
X0070942Y0092689D01*
X0071242Y0092689D01*
X0071392Y0092839D01*
X0071392Y0093439D01*
X0071242Y0093589D01*
X0070942Y0093589D01*
X0070792Y0093439D01*
X0070471Y0093439D02*
X0070321Y0093589D01*
X0070021Y0093589D01*
X0069871Y0093439D01*
X0070471Y0092839D01*
X0070321Y0092689D01*
X0070021Y0092689D01*
X0069871Y0092839D01*
X0069871Y0093439D01*
X0069551Y0093289D02*
X0069100Y0093289D01*
X0068950Y0093139D01*
X0068950Y0092689D01*
X0068630Y0092689D02*
X0068630Y0093589D01*
X0068029Y0093589D01*
X0068330Y0093139D02*
X0068630Y0093139D01*
X0069551Y0093289D02*
X0069551Y0092689D01*
X0070471Y0092839D02*
X0070471Y0093439D01*
X0072013Y0093589D02*
X0072313Y0093289D01*
X0072013Y0062093D02*
X0072013Y0061193D01*
X0072313Y0061193D02*
X0071712Y0061193D01*
X0071392Y0061343D02*
X0070792Y0061943D01*
X0070792Y0061343D01*
X0070942Y0061193D01*
X0071242Y0061193D01*
X0071392Y0061343D01*
X0071392Y0061943D01*
X0071242Y0062093D01*
X0070942Y0062093D01*
X0070792Y0061943D01*
X0070471Y0061943D02*
X0070321Y0062093D01*
X0070021Y0062093D01*
X0069871Y0061943D01*
X0070471Y0061343D01*
X0070321Y0061193D01*
X0070021Y0061193D01*
X0069871Y0061343D01*
X0069871Y0061943D01*
X0069551Y0061793D02*
X0069100Y0061793D01*
X0068950Y0061643D01*
X0068950Y0061193D01*
X0068630Y0061193D02*
X0068630Y0062093D01*
X0068029Y0062093D01*
X0068330Y0061643D02*
X0068630Y0061643D01*
X0069551Y0061793D02*
X0069551Y0061193D01*
X0070471Y0061343D02*
X0070471Y0061943D01*
X0072013Y0062093D02*
X0072313Y0061793D01*
X0072013Y0030597D02*
X0072013Y0029696D01*
X0072313Y0029696D02*
X0071712Y0029696D01*
X0071392Y0029847D02*
X0070792Y0030447D01*
X0070792Y0029847D01*
X0070942Y0029696D01*
X0071242Y0029696D01*
X0071392Y0029847D01*
X0071392Y0030447D01*
X0071242Y0030597D01*
X0070942Y0030597D01*
X0070792Y0030447D01*
X0070471Y0030447D02*
X0070321Y0030597D01*
X0070021Y0030597D01*
X0069871Y0030447D01*
X0070471Y0029847D01*
X0070321Y0029696D01*
X0070021Y0029696D01*
X0069871Y0029847D01*
X0069871Y0030447D01*
X0069551Y0030297D02*
X0069100Y0030297D01*
X0068950Y0030147D01*
X0068950Y0029696D01*
X0068630Y0029696D02*
X0068630Y0030597D01*
X0068029Y0030597D01*
X0068330Y0030147D02*
X0068630Y0030147D01*
X0069551Y0030297D02*
X0069551Y0029696D01*
X0070471Y0029847D02*
X0070471Y0030447D01*
X0072013Y0030597D02*
X0072313Y0030297D01*
X0107399Y0030597D02*
X0108000Y0030597D01*
X0108000Y0029696D01*
X0108320Y0029696D02*
X0108320Y0030147D01*
X0108470Y0030297D01*
X0108921Y0030297D01*
X0108921Y0029696D01*
X0109241Y0029847D02*
X0109391Y0029696D01*
X0109691Y0029696D01*
X0109842Y0029847D01*
X0109241Y0030447D01*
X0109241Y0029847D01*
X0109241Y0030447D02*
X0109391Y0030597D01*
X0109691Y0030597D01*
X0109842Y0030447D01*
X0109842Y0029847D01*
X0110162Y0029847D02*
X0110312Y0029696D01*
X0110612Y0029696D01*
X0110762Y0029847D01*
X0110162Y0030447D01*
X0110162Y0029847D01*
X0110162Y0030447D02*
X0110312Y0030597D01*
X0110612Y0030597D01*
X0110762Y0030447D01*
X0110762Y0029847D01*
X0111083Y0029696D02*
X0111683Y0029696D01*
X0111383Y0029696D02*
X0111383Y0030597D01*
X0111683Y0030297D01*
X0108000Y0030147D02*
X0107700Y0030147D01*
X0108000Y0061193D02*
X0108000Y0062093D01*
X0107399Y0062093D01*
X0107700Y0061643D02*
X0108000Y0061643D01*
X0108320Y0061643D02*
X0108320Y0061193D01*
X0108320Y0061643D02*
X0108470Y0061793D01*
X0108921Y0061793D01*
X0108921Y0061193D01*
X0109241Y0061343D02*
X0109391Y0061193D01*
X0109691Y0061193D01*
X0109842Y0061343D01*
X0109241Y0061943D01*
X0109241Y0061343D01*
X0109241Y0061943D02*
X0109391Y0062093D01*
X0109691Y0062093D01*
X0109842Y0061943D01*
X0109842Y0061343D01*
X0110162Y0061343D02*
X0110312Y0061193D01*
X0110612Y0061193D01*
X0110762Y0061343D01*
X0110162Y0061943D01*
X0110162Y0061343D01*
X0110162Y0061943D02*
X0110312Y0062093D01*
X0110612Y0062093D01*
X0110762Y0061943D01*
X0110762Y0061343D01*
X0111083Y0061193D02*
X0111683Y0061193D01*
X0111383Y0061193D02*
X0111383Y0062093D01*
X0111683Y0061793D01*
X0111683Y0092689D02*
X0111083Y0092689D01*
X0111383Y0092689D02*
X0111383Y0093589D01*
X0111683Y0093289D01*
X0110762Y0093439D02*
X0110612Y0093589D01*
X0110312Y0093589D01*
X0110162Y0093439D01*
X0110762Y0092839D01*
X0110612Y0092689D01*
X0110312Y0092689D01*
X0110162Y0092839D01*
X0110162Y0093439D01*
X0109842Y0093439D02*
X0109691Y0093589D01*
X0109391Y0093589D01*
X0109241Y0093439D01*
X0109842Y0092839D01*
X0109691Y0092689D01*
X0109391Y0092689D01*
X0109241Y0092839D01*
X0109241Y0093439D01*
X0108921Y0093289D02*
X0108470Y0093289D01*
X0108320Y0093139D01*
X0108320Y0092689D01*
X0108000Y0092689D02*
X0108000Y0093589D01*
X0107399Y0093589D01*
X0107700Y0093139D02*
X0108000Y0093139D01*
X0108921Y0093289D02*
X0108921Y0092689D01*
X0109842Y0092839D02*
X0109842Y0093439D01*
X0110762Y0093439D02*
X0110762Y0092839D01*
X0110612Y0124185D02*
X0110762Y0124335D01*
X0110162Y0124935D01*
X0110162Y0124335D01*
X0110312Y0124185D01*
X0110612Y0124185D01*
X0110762Y0124335D02*
X0110762Y0124935D01*
X0110612Y0125085D01*
X0110312Y0125085D01*
X0110162Y0124935D01*
X0109842Y0124935D02*
X0109691Y0125085D01*
X0109391Y0125085D01*
X0109241Y0124935D01*
X0109842Y0124335D01*
X0109691Y0124185D01*
X0109391Y0124185D01*
X0109241Y0124335D01*
X0109241Y0124935D01*
X0108921Y0124785D02*
X0108470Y0124785D01*
X0108320Y0124635D01*
X0108320Y0124185D01*
X0108000Y0124185D02*
X0108000Y0125085D01*
X0107399Y0125085D01*
X0107700Y0124635D02*
X0108000Y0124635D01*
X0108921Y0124785D02*
X0108921Y0124185D01*
X0109842Y0124335D02*
X0109842Y0124935D01*
X0111083Y0124185D02*
X0111683Y0124185D01*
X0111383Y0124185D02*
X0111383Y0125085D01*
X0111683Y0124785D01*
X0111683Y0155681D02*
X0111083Y0155681D01*
X0111383Y0155681D02*
X0111383Y0156581D01*
X0111683Y0156281D01*
X0110762Y0156431D02*
X0110612Y0156581D01*
X0110312Y0156581D01*
X0110162Y0156431D01*
X0110762Y0155831D01*
X0110612Y0155681D01*
X0110312Y0155681D01*
X0110162Y0155831D01*
X0110162Y0156431D01*
X0109842Y0156431D02*
X0109691Y0156581D01*
X0109391Y0156581D01*
X0109241Y0156431D01*
X0109842Y0155831D01*
X0109691Y0155681D01*
X0109391Y0155681D01*
X0109241Y0155831D01*
X0109241Y0156431D01*
X0108921Y0156281D02*
X0108470Y0156281D01*
X0108320Y0156131D01*
X0108320Y0155681D01*
X0108000Y0155681D02*
X0108000Y0156581D01*
X0107399Y0156581D01*
X0107700Y0156131D02*
X0108000Y0156131D01*
X0108921Y0156281D02*
X0108921Y0155681D01*
X0109842Y0155831D02*
X0109842Y0156431D01*
X0110762Y0156431D02*
X0110762Y0155831D01*
X0110612Y0187177D02*
X0110762Y0187327D01*
X0110162Y0187927D01*
X0110162Y0187327D01*
X0110312Y0187177D01*
X0110612Y0187177D01*
X0110762Y0187327D02*
X0110762Y0187927D01*
X0110612Y0188078D01*
X0110312Y0188078D01*
X0110162Y0187927D01*
X0109842Y0187927D02*
X0109691Y0188078D01*
X0109391Y0188078D01*
X0109241Y0187927D01*
X0109842Y0187327D01*
X0109691Y0187177D01*
X0109391Y0187177D01*
X0109241Y0187327D01*
X0109241Y0187927D01*
X0108921Y0187777D02*
X0108470Y0187777D01*
X0108320Y0187627D01*
X0108320Y0187177D01*
X0108000Y0187177D02*
X0108000Y0188078D01*
X0107399Y0188078D01*
X0107700Y0187627D02*
X0108000Y0187627D01*
X0108921Y0187777D02*
X0108921Y0187177D01*
X0109842Y0187327D02*
X0109842Y0187927D01*
X0111083Y0187177D02*
X0111683Y0187177D01*
X0111383Y0187177D02*
X0111383Y0188078D01*
X0111683Y0187777D01*
X0111683Y0218673D02*
X0111083Y0218673D01*
X0111383Y0218673D02*
X0111383Y0219574D01*
X0111683Y0219273D01*
X0110762Y0219423D02*
X0110612Y0219574D01*
X0110312Y0219574D01*
X0110162Y0219423D01*
X0110762Y0218823D01*
X0110612Y0218673D01*
X0110312Y0218673D01*
X0110162Y0218823D01*
X0110162Y0219423D01*
X0109842Y0219423D02*
X0109691Y0219574D01*
X0109391Y0219574D01*
X0109241Y0219423D01*
X0109842Y0218823D01*
X0109691Y0218673D01*
X0109391Y0218673D01*
X0109241Y0218823D01*
X0109241Y0219423D01*
X0108921Y0219273D02*
X0108470Y0219273D01*
X0108320Y0219123D01*
X0108320Y0218673D01*
X0108000Y0218673D02*
X0108000Y0219574D01*
X0107399Y0219574D01*
X0107700Y0219123D02*
X0108000Y0219123D01*
X0108921Y0219273D02*
X0108921Y0218673D01*
X0109842Y0218823D02*
X0109842Y0219423D01*
X0110762Y0219423D02*
X0110762Y0218823D01*
X0110612Y0250169D02*
X0110762Y0250319D01*
X0110162Y0250920D01*
X0110162Y0250319D01*
X0110312Y0250169D01*
X0110612Y0250169D01*
X0110762Y0250319D02*
X0110762Y0250920D01*
X0110612Y0251070D01*
X0110312Y0251070D01*
X0110162Y0250920D01*
X0109842Y0250920D02*
X0109691Y0251070D01*
X0109391Y0251070D01*
X0109241Y0250920D01*
X0109842Y0250319D01*
X0109691Y0250169D01*
X0109391Y0250169D01*
X0109241Y0250319D01*
X0109241Y0250920D01*
X0108921Y0250769D02*
X0108470Y0250769D01*
X0108320Y0250619D01*
X0108320Y0250169D01*
X0108000Y0250169D02*
X0108000Y0251070D01*
X0107399Y0251070D01*
X0107700Y0250619D02*
X0108000Y0250619D01*
X0108921Y0250769D02*
X0108921Y0250169D01*
X0109842Y0250319D02*
X0109842Y0250920D01*
X0111083Y0250169D02*
X0111683Y0250169D01*
X0111383Y0250169D02*
X0111383Y0251070D01*
X0111683Y0250769D01*
X0111683Y0281665D02*
X0111083Y0281665D01*
X0111383Y0281665D02*
X0111383Y0282566D01*
X0111683Y0282265D01*
X0110762Y0282416D02*
X0110612Y0282566D01*
X0110312Y0282566D01*
X0110162Y0282416D01*
X0110762Y0281815D01*
X0110612Y0281665D01*
X0110312Y0281665D01*
X0110162Y0281815D01*
X0110162Y0282416D01*
X0109842Y0282416D02*
X0109691Y0282566D01*
X0109391Y0282566D01*
X0109241Y0282416D01*
X0109842Y0281815D01*
X0109691Y0281665D01*
X0109391Y0281665D01*
X0109241Y0281815D01*
X0109241Y0282416D01*
X0108921Y0282265D02*
X0108470Y0282265D01*
X0108320Y0282115D01*
X0108320Y0281665D01*
X0108000Y0281665D02*
X0108000Y0282566D01*
X0107399Y0282566D01*
X0107700Y0282115D02*
X0108000Y0282115D01*
X0108921Y0282265D02*
X0108921Y0281665D01*
X0109842Y0281815D02*
X0109842Y0282416D01*
X0110762Y0282416D02*
X0110762Y0281815D01*
X0110612Y0313161D02*
X0110762Y0313311D01*
X0110162Y0313912D01*
X0110162Y0313311D01*
X0110312Y0313161D01*
X0110612Y0313161D01*
X0110762Y0313311D02*
X0110762Y0313912D01*
X0110612Y0314062D01*
X0110312Y0314062D01*
X0110162Y0313912D01*
X0109842Y0313912D02*
X0109691Y0314062D01*
X0109391Y0314062D01*
X0109241Y0313912D01*
X0109842Y0313311D01*
X0109691Y0313161D01*
X0109391Y0313161D01*
X0109241Y0313311D01*
X0109241Y0313912D01*
X0108921Y0313762D02*
X0108470Y0313762D01*
X0108320Y0313611D01*
X0108320Y0313161D01*
X0108000Y0313161D02*
X0108000Y0314062D01*
X0107399Y0314062D01*
X0107700Y0313611D02*
X0108000Y0313611D01*
X0108921Y0313762D02*
X0108921Y0313161D01*
X0109842Y0313311D02*
X0109842Y0313912D01*
X0111083Y0313161D02*
X0111683Y0313161D01*
X0111383Y0313161D02*
X0111383Y0314062D01*
X0111683Y0313762D01*
X0111683Y0344657D02*
X0111083Y0344657D01*
X0111383Y0344657D02*
X0111383Y0345558D01*
X0111683Y0345258D01*
X0110762Y0345408D02*
X0110612Y0345558D01*
X0110312Y0345558D01*
X0110162Y0345408D01*
X0110762Y0344807D01*
X0110612Y0344657D01*
X0110312Y0344657D01*
X0110162Y0344807D01*
X0110162Y0345408D01*
X0109842Y0345408D02*
X0109691Y0345558D01*
X0109391Y0345558D01*
X0109241Y0345408D01*
X0109842Y0344807D01*
X0109691Y0344657D01*
X0109391Y0344657D01*
X0109241Y0344807D01*
X0109241Y0345408D01*
X0108921Y0345258D02*
X0108470Y0345258D01*
X0108320Y0345107D01*
X0108320Y0344657D01*
X0108000Y0344657D02*
X0108000Y0345558D01*
X0107399Y0345558D01*
X0107700Y0345107D02*
X0108000Y0345107D01*
X0108921Y0345258D02*
X0108921Y0344657D01*
X0109842Y0344807D02*
X0109842Y0345408D01*
X0110762Y0345408D02*
X0110762Y0344807D01*
X0110612Y0376153D02*
X0110762Y0376303D01*
X0110162Y0376904D01*
X0110162Y0376303D01*
X0110312Y0376153D01*
X0110612Y0376153D01*
X0110762Y0376303D02*
X0110762Y0376904D01*
X0110612Y0377054D01*
X0110312Y0377054D01*
X0110162Y0376904D01*
X0109842Y0376904D02*
X0109691Y0377054D01*
X0109391Y0377054D01*
X0109241Y0376904D01*
X0109842Y0376303D01*
X0109691Y0376153D01*
X0109391Y0376153D01*
X0109241Y0376303D01*
X0109241Y0376904D01*
X0108921Y0376754D02*
X0108470Y0376754D01*
X0108320Y0376604D01*
X0108320Y0376153D01*
X0108000Y0376153D02*
X0108000Y0377054D01*
X0107399Y0377054D01*
X0107700Y0376604D02*
X0108000Y0376604D01*
X0108921Y0376754D02*
X0108921Y0376153D01*
X0109842Y0376303D02*
X0109842Y0376904D01*
X0111083Y0376153D02*
X0111683Y0376153D01*
X0111383Y0376153D02*
X0111383Y0377054D01*
X0111683Y0376754D01*
X0146770Y0377054D02*
X0147370Y0377054D01*
X0147370Y0376153D01*
X0147690Y0376153D02*
X0147690Y0376604D01*
X0147840Y0376754D01*
X0148291Y0376754D01*
X0148291Y0376153D01*
X0148611Y0376303D02*
X0148761Y0376153D01*
X0149061Y0376153D01*
X0149212Y0376303D01*
X0148611Y0376904D01*
X0148611Y0376303D01*
X0149212Y0376303D02*
X0149212Y0376904D01*
X0149061Y0377054D01*
X0148761Y0377054D01*
X0148611Y0376904D01*
X0149532Y0376904D02*
X0150132Y0376303D01*
X0149982Y0376153D01*
X0149682Y0376153D01*
X0149532Y0376303D01*
X0149532Y0376904D01*
X0149682Y0377054D01*
X0149982Y0377054D01*
X0150132Y0376904D01*
X0150132Y0376303D01*
X0150453Y0376153D02*
X0151053Y0376153D01*
X0150753Y0376153D02*
X0150753Y0377054D01*
X0151053Y0376754D01*
X0147370Y0376604D02*
X0147070Y0376604D01*
X0147370Y0345558D02*
X0146770Y0345558D01*
X0147070Y0345107D02*
X0147370Y0345107D01*
X0147690Y0345107D02*
X0147690Y0344657D01*
X0147370Y0344657D02*
X0147370Y0345558D01*
X0147690Y0345107D02*
X0147840Y0345258D01*
X0148291Y0345258D01*
X0148291Y0344657D01*
X0148611Y0344807D02*
X0148761Y0344657D01*
X0149061Y0344657D01*
X0149212Y0344807D01*
X0148611Y0345408D01*
X0148611Y0344807D01*
X0149212Y0344807D02*
X0149212Y0345408D01*
X0149061Y0345558D01*
X0148761Y0345558D01*
X0148611Y0345408D01*
X0149532Y0345408D02*
X0150132Y0344807D01*
X0149982Y0344657D01*
X0149682Y0344657D01*
X0149532Y0344807D01*
X0149532Y0345408D01*
X0149682Y0345558D01*
X0149982Y0345558D01*
X0150132Y0345408D01*
X0150132Y0344807D01*
X0150453Y0344657D02*
X0151053Y0344657D01*
X0150753Y0344657D02*
X0150753Y0345558D01*
X0151053Y0345258D01*
X0150753Y0314062D02*
X0150753Y0313161D01*
X0151053Y0313161D02*
X0150453Y0313161D01*
X0150132Y0313311D02*
X0149532Y0313912D01*
X0149532Y0313311D01*
X0149682Y0313161D01*
X0149982Y0313161D01*
X0150132Y0313311D01*
X0150132Y0313912D01*
X0149982Y0314062D01*
X0149682Y0314062D01*
X0149532Y0313912D01*
X0149212Y0313912D02*
X0149061Y0314062D01*
X0148761Y0314062D01*
X0148611Y0313912D01*
X0149212Y0313311D01*
X0149061Y0313161D01*
X0148761Y0313161D01*
X0148611Y0313311D01*
X0148611Y0313912D01*
X0148291Y0313762D02*
X0147840Y0313762D01*
X0147690Y0313611D01*
X0147690Y0313161D01*
X0147370Y0313161D02*
X0147370Y0314062D01*
X0146770Y0314062D01*
X0147070Y0313611D02*
X0147370Y0313611D01*
X0148291Y0313762D02*
X0148291Y0313161D01*
X0149212Y0313311D02*
X0149212Y0313912D01*
X0150753Y0314062D02*
X0151053Y0313762D01*
X0150753Y0282566D02*
X0150753Y0281665D01*
X0151053Y0281665D02*
X0150453Y0281665D01*
X0150132Y0281815D02*
X0149532Y0282416D01*
X0149532Y0281815D01*
X0149682Y0281665D01*
X0149982Y0281665D01*
X0150132Y0281815D01*
X0150132Y0282416D01*
X0149982Y0282566D01*
X0149682Y0282566D01*
X0149532Y0282416D01*
X0149212Y0282416D02*
X0149061Y0282566D01*
X0148761Y0282566D01*
X0148611Y0282416D01*
X0149212Y0281815D01*
X0149061Y0281665D01*
X0148761Y0281665D01*
X0148611Y0281815D01*
X0148611Y0282416D01*
X0148291Y0282265D02*
X0147840Y0282265D01*
X0147690Y0282115D01*
X0147690Y0281665D01*
X0147370Y0281665D02*
X0147370Y0282566D01*
X0146770Y0282566D01*
X0147070Y0282115D02*
X0147370Y0282115D01*
X0148291Y0282265D02*
X0148291Y0281665D01*
X0149212Y0281815D02*
X0149212Y0282416D01*
X0150753Y0282566D02*
X0151053Y0282265D01*
X0150753Y0251070D02*
X0150753Y0250169D01*
X0151053Y0250169D02*
X0150453Y0250169D01*
X0150132Y0250319D02*
X0149532Y0250920D01*
X0149532Y0250319D01*
X0149682Y0250169D01*
X0149982Y0250169D01*
X0150132Y0250319D01*
X0150132Y0250920D01*
X0149982Y0251070D01*
X0149682Y0251070D01*
X0149532Y0250920D01*
X0149212Y0250920D02*
X0149061Y0251070D01*
X0148761Y0251070D01*
X0148611Y0250920D01*
X0149212Y0250319D01*
X0149061Y0250169D01*
X0148761Y0250169D01*
X0148611Y0250319D01*
X0148611Y0250920D01*
X0148291Y0250769D02*
X0147840Y0250769D01*
X0147690Y0250619D01*
X0147690Y0250169D01*
X0147370Y0250169D02*
X0147370Y0251070D01*
X0146770Y0251070D01*
X0147070Y0250619D02*
X0147370Y0250619D01*
X0148291Y0250769D02*
X0148291Y0250169D01*
X0149212Y0250319D02*
X0149212Y0250920D01*
X0150753Y0251070D02*
X0151053Y0250769D01*
X0150753Y0219574D02*
X0150753Y0218673D01*
X0151053Y0218673D02*
X0150453Y0218673D01*
X0150132Y0218823D02*
X0149532Y0219423D01*
X0149532Y0218823D01*
X0149682Y0218673D01*
X0149982Y0218673D01*
X0150132Y0218823D01*
X0150132Y0219423D01*
X0149982Y0219574D01*
X0149682Y0219574D01*
X0149532Y0219423D01*
X0149212Y0219423D02*
X0149061Y0219574D01*
X0148761Y0219574D01*
X0148611Y0219423D01*
X0149212Y0218823D01*
X0149061Y0218673D01*
X0148761Y0218673D01*
X0148611Y0218823D01*
X0148611Y0219423D01*
X0148291Y0219273D02*
X0147840Y0219273D01*
X0147690Y0219123D01*
X0147690Y0218673D01*
X0147370Y0218673D02*
X0147370Y0219574D01*
X0146770Y0219574D01*
X0147070Y0219123D02*
X0147370Y0219123D01*
X0148291Y0219273D02*
X0148291Y0218673D01*
X0149212Y0218823D02*
X0149212Y0219423D01*
X0150753Y0219574D02*
X0151053Y0219273D01*
X0150753Y0188078D02*
X0150753Y0187177D01*
X0151053Y0187177D02*
X0150453Y0187177D01*
X0150132Y0187327D02*
X0149532Y0187927D01*
X0149532Y0187327D01*
X0149682Y0187177D01*
X0149982Y0187177D01*
X0150132Y0187327D01*
X0150132Y0187927D01*
X0149982Y0188078D01*
X0149682Y0188078D01*
X0149532Y0187927D01*
X0149212Y0187927D02*
X0149061Y0188078D01*
X0148761Y0188078D01*
X0148611Y0187927D01*
X0149212Y0187327D01*
X0149061Y0187177D01*
X0148761Y0187177D01*
X0148611Y0187327D01*
X0148611Y0187927D01*
X0148291Y0187777D02*
X0147840Y0187777D01*
X0147690Y0187627D01*
X0147690Y0187177D01*
X0147370Y0187177D02*
X0147370Y0188078D01*
X0146770Y0188078D01*
X0147070Y0187627D02*
X0147370Y0187627D01*
X0148291Y0187777D02*
X0148291Y0187177D01*
X0149212Y0187327D02*
X0149212Y0187927D01*
X0150753Y0188078D02*
X0151053Y0187777D01*
X0150753Y0156581D02*
X0150753Y0155681D01*
X0151053Y0155681D02*
X0150453Y0155681D01*
X0150132Y0155831D02*
X0149532Y0156431D01*
X0149532Y0155831D01*
X0149682Y0155681D01*
X0149982Y0155681D01*
X0150132Y0155831D01*
X0150132Y0156431D01*
X0149982Y0156581D01*
X0149682Y0156581D01*
X0149532Y0156431D01*
X0149212Y0156431D02*
X0149061Y0156581D01*
X0148761Y0156581D01*
X0148611Y0156431D01*
X0149212Y0155831D01*
X0149061Y0155681D01*
X0148761Y0155681D01*
X0148611Y0155831D01*
X0148611Y0156431D01*
X0148291Y0156281D02*
X0147840Y0156281D01*
X0147690Y0156131D01*
X0147690Y0155681D01*
X0147370Y0155681D02*
X0147370Y0156581D01*
X0146770Y0156581D01*
X0147070Y0156131D02*
X0147370Y0156131D01*
X0148291Y0156281D02*
X0148291Y0155681D01*
X0149212Y0155831D02*
X0149212Y0156431D01*
X0150753Y0156581D02*
X0151053Y0156281D01*
X0150753Y0125085D02*
X0150753Y0124185D01*
X0151053Y0124185D02*
X0150453Y0124185D01*
X0150132Y0124335D02*
X0149532Y0124935D01*
X0149532Y0124335D01*
X0149682Y0124185D01*
X0149982Y0124185D01*
X0150132Y0124335D01*
X0150132Y0124935D01*
X0149982Y0125085D01*
X0149682Y0125085D01*
X0149532Y0124935D01*
X0149212Y0124935D02*
X0149061Y0125085D01*
X0148761Y0125085D01*
X0148611Y0124935D01*
X0149212Y0124335D01*
X0149061Y0124185D01*
X0148761Y0124185D01*
X0148611Y0124335D01*
X0148611Y0124935D01*
X0148291Y0124785D02*
X0147840Y0124785D01*
X0147690Y0124635D01*
X0147690Y0124185D01*
X0147370Y0124185D02*
X0147370Y0125085D01*
X0146770Y0125085D01*
X0147070Y0124635D02*
X0147370Y0124635D01*
X0148291Y0124785D02*
X0148291Y0124185D01*
X0149212Y0124335D02*
X0149212Y0124935D01*
X0150753Y0125085D02*
X0151053Y0124785D01*
X0150753Y0093589D02*
X0150753Y0092689D01*
X0151053Y0092689D02*
X0150453Y0092689D01*
X0150132Y0092839D02*
X0149532Y0093439D01*
X0149532Y0092839D01*
X0149682Y0092689D01*
X0149982Y0092689D01*
X0150132Y0092839D01*
X0150132Y0093439D01*
X0149982Y0093589D01*
X0149682Y0093589D01*
X0149532Y0093439D01*
X0149212Y0093439D02*
X0149061Y0093589D01*
X0148761Y0093589D01*
X0148611Y0093439D01*
X0149212Y0092839D01*
X0149061Y0092689D01*
X0148761Y0092689D01*
X0148611Y0092839D01*
X0148611Y0093439D01*
X0148291Y0093289D02*
X0147840Y0093289D01*
X0147690Y0093139D01*
X0147690Y0092689D01*
X0147370Y0092689D02*
X0147370Y0093589D01*
X0146770Y0093589D01*
X0147070Y0093139D02*
X0147370Y0093139D01*
X0148291Y0093289D02*
X0148291Y0092689D01*
X0149212Y0092839D02*
X0149212Y0093439D01*
X0150753Y0093589D02*
X0151053Y0093289D01*
X0150753Y0062093D02*
X0150753Y0061193D01*
X0151053Y0061193D02*
X0150453Y0061193D01*
X0150132Y0061343D02*
X0149532Y0061943D01*
X0149532Y0061343D01*
X0149682Y0061193D01*
X0149982Y0061193D01*
X0150132Y0061343D01*
X0150132Y0061943D01*
X0149982Y0062093D01*
X0149682Y0062093D01*
X0149532Y0061943D01*
X0149212Y0061943D02*
X0149061Y0062093D01*
X0148761Y0062093D01*
X0148611Y0061943D01*
X0149212Y0061343D01*
X0149061Y0061193D01*
X0148761Y0061193D01*
X0148611Y0061343D01*
X0148611Y0061943D01*
X0148291Y0061793D02*
X0147840Y0061793D01*
X0147690Y0061643D01*
X0147690Y0061193D01*
X0147370Y0061193D02*
X0147370Y0062093D01*
X0146770Y0062093D01*
X0147070Y0061643D02*
X0147370Y0061643D01*
X0148291Y0061793D02*
X0148291Y0061193D01*
X0149212Y0061343D02*
X0149212Y0061943D01*
X0150753Y0062093D02*
X0151053Y0061793D01*
X0150753Y0030597D02*
X0150753Y0029696D01*
X0151053Y0029696D02*
X0150453Y0029696D01*
X0150132Y0029847D02*
X0149532Y0030447D01*
X0149532Y0029847D01*
X0149682Y0029696D01*
X0149982Y0029696D01*
X0150132Y0029847D01*
X0150132Y0030447D01*
X0149982Y0030597D01*
X0149682Y0030597D01*
X0149532Y0030447D01*
X0149212Y0030447D02*
X0149061Y0030597D01*
X0148761Y0030597D01*
X0148611Y0030447D01*
X0149212Y0029847D01*
X0149061Y0029696D01*
X0148761Y0029696D01*
X0148611Y0029847D01*
X0148611Y0030447D01*
X0148291Y0030297D02*
X0147840Y0030297D01*
X0147690Y0030147D01*
X0147690Y0029696D01*
X0147370Y0029696D02*
X0147370Y0030597D01*
X0146770Y0030597D01*
X0147070Y0030147D02*
X0147370Y0030147D01*
X0148291Y0030297D02*
X0148291Y0029696D01*
X0149212Y0029847D02*
X0149212Y0030447D01*
X0150753Y0030597D02*
X0151053Y0030297D01*
X0190077Y0030597D02*
X0190677Y0030597D01*
X0190677Y0029696D01*
X0190997Y0029696D02*
X0190997Y0030147D01*
X0191148Y0030297D01*
X0191598Y0030297D01*
X0191598Y0029696D01*
X0191918Y0029847D02*
X0192068Y0029696D01*
X0192369Y0029696D01*
X0192519Y0029847D01*
X0191918Y0030447D01*
X0191918Y0029847D01*
X0191918Y0030447D02*
X0192068Y0030597D01*
X0192369Y0030597D01*
X0192519Y0030447D01*
X0192519Y0029847D01*
X0192839Y0029847D02*
X0192989Y0029696D01*
X0193289Y0029696D01*
X0193439Y0029847D01*
X0192839Y0030447D01*
X0192839Y0029847D01*
X0192839Y0030447D02*
X0192989Y0030597D01*
X0193289Y0030597D01*
X0193439Y0030447D01*
X0193439Y0029847D01*
X0193760Y0029696D02*
X0194360Y0029696D01*
X0194060Y0029696D02*
X0194060Y0030597D01*
X0194360Y0030297D01*
X0190677Y0030147D02*
X0190377Y0030147D01*
X0190677Y0061193D02*
X0190677Y0062093D01*
X0190077Y0062093D01*
X0190377Y0061643D02*
X0190677Y0061643D01*
X0190997Y0061643D02*
X0190997Y0061193D01*
X0190997Y0061643D02*
X0191148Y0061793D01*
X0191598Y0061793D01*
X0191598Y0061193D01*
X0191918Y0061343D02*
X0192068Y0061193D01*
X0192369Y0061193D01*
X0192519Y0061343D01*
X0191918Y0061943D01*
X0191918Y0061343D01*
X0191918Y0061943D02*
X0192068Y0062093D01*
X0192369Y0062093D01*
X0192519Y0061943D01*
X0192519Y0061343D01*
X0192839Y0061343D02*
X0192989Y0061193D01*
X0193289Y0061193D01*
X0193439Y0061343D01*
X0192839Y0061943D01*
X0192839Y0061343D01*
X0192839Y0061943D02*
X0192989Y0062093D01*
X0193289Y0062093D01*
X0193439Y0061943D01*
X0193439Y0061343D01*
X0193760Y0061193D02*
X0194360Y0061193D01*
X0194060Y0061193D02*
X0194060Y0062093D01*
X0194360Y0061793D01*
X0194360Y0092689D02*
X0193760Y0092689D01*
X0194060Y0092689D02*
X0194060Y0093589D01*
X0194360Y0093289D01*
X0193439Y0093439D02*
X0193289Y0093589D01*
X0192989Y0093589D01*
X0192839Y0093439D01*
X0193439Y0092839D01*
X0193289Y0092689D01*
X0192989Y0092689D01*
X0192839Y0092839D01*
X0192839Y0093439D01*
X0192519Y0093439D02*
X0192369Y0093589D01*
X0192068Y0093589D01*
X0191918Y0093439D01*
X0192519Y0092839D01*
X0192369Y0092689D01*
X0192068Y0092689D01*
X0191918Y0092839D01*
X0191918Y0093439D01*
X0191598Y0093289D02*
X0191148Y0093289D01*
X0190997Y0093139D01*
X0190997Y0092689D01*
X0190677Y0092689D02*
X0190677Y0093589D01*
X0190077Y0093589D01*
X0190377Y0093139D02*
X0190677Y0093139D01*
X0191598Y0093289D02*
X0191598Y0092689D01*
X0192519Y0092839D02*
X0192519Y0093439D01*
X0193439Y0093439D02*
X0193439Y0092839D01*
X0193289Y0124185D02*
X0193439Y0124335D01*
X0192839Y0124935D01*
X0192839Y0124335D01*
X0192989Y0124185D01*
X0193289Y0124185D01*
X0193439Y0124335D02*
X0193439Y0124935D01*
X0193289Y0125085D01*
X0192989Y0125085D01*
X0192839Y0124935D01*
X0192519Y0124935D02*
X0192369Y0125085D01*
X0192068Y0125085D01*
X0191918Y0124935D01*
X0192519Y0124335D01*
X0192369Y0124185D01*
X0192068Y0124185D01*
X0191918Y0124335D01*
X0191918Y0124935D01*
X0191598Y0124785D02*
X0191148Y0124785D01*
X0190997Y0124635D01*
X0190997Y0124185D01*
X0190677Y0124185D02*
X0190677Y0125085D01*
X0190077Y0125085D01*
X0190377Y0124635D02*
X0190677Y0124635D01*
X0191598Y0124785D02*
X0191598Y0124185D01*
X0192519Y0124335D02*
X0192519Y0124935D01*
X0193760Y0124185D02*
X0194360Y0124185D01*
X0194060Y0124185D02*
X0194060Y0125085D01*
X0194360Y0124785D01*
X0194360Y0155681D02*
X0193760Y0155681D01*
X0194060Y0155681D02*
X0194060Y0156581D01*
X0194360Y0156281D01*
X0193439Y0156431D02*
X0193289Y0156581D01*
X0192989Y0156581D01*
X0192839Y0156431D01*
X0193439Y0155831D01*
X0193289Y0155681D01*
X0192989Y0155681D01*
X0192839Y0155831D01*
X0192839Y0156431D01*
X0192519Y0156431D02*
X0192369Y0156581D01*
X0192068Y0156581D01*
X0191918Y0156431D01*
X0192519Y0155831D01*
X0192369Y0155681D01*
X0192068Y0155681D01*
X0191918Y0155831D01*
X0191918Y0156431D01*
X0191598Y0156281D02*
X0191148Y0156281D01*
X0190997Y0156131D01*
X0190997Y0155681D01*
X0190677Y0155681D02*
X0190677Y0156581D01*
X0190077Y0156581D01*
X0190377Y0156131D02*
X0190677Y0156131D01*
X0191598Y0156281D02*
X0191598Y0155681D01*
X0192519Y0155831D02*
X0192519Y0156431D01*
X0193439Y0156431D02*
X0193439Y0155831D01*
X0193289Y0187177D02*
X0193439Y0187327D01*
X0192839Y0187927D01*
X0192839Y0187327D01*
X0192989Y0187177D01*
X0193289Y0187177D01*
X0193439Y0187327D02*
X0193439Y0187927D01*
X0193289Y0188078D01*
X0192989Y0188078D01*
X0192839Y0187927D01*
X0192519Y0187927D02*
X0192369Y0188078D01*
X0192068Y0188078D01*
X0191918Y0187927D01*
X0192519Y0187327D01*
X0192369Y0187177D01*
X0192068Y0187177D01*
X0191918Y0187327D01*
X0191918Y0187927D01*
X0191598Y0187777D02*
X0191148Y0187777D01*
X0190997Y0187627D01*
X0190997Y0187177D01*
X0190677Y0187177D02*
X0190677Y0188078D01*
X0190077Y0188078D01*
X0190377Y0187627D02*
X0190677Y0187627D01*
X0191598Y0187777D02*
X0191598Y0187177D01*
X0192519Y0187327D02*
X0192519Y0187927D01*
X0193760Y0187177D02*
X0194360Y0187177D01*
X0194060Y0187177D02*
X0194060Y0188078D01*
X0194360Y0187777D01*
X0194360Y0218673D02*
X0193760Y0218673D01*
X0194060Y0218673D02*
X0194060Y0219574D01*
X0194360Y0219273D01*
X0193439Y0219423D02*
X0193289Y0219574D01*
X0192989Y0219574D01*
X0192839Y0219423D01*
X0193439Y0218823D01*
X0193289Y0218673D01*
X0192989Y0218673D01*
X0192839Y0218823D01*
X0192839Y0219423D01*
X0192519Y0219423D02*
X0192369Y0219574D01*
X0192068Y0219574D01*
X0191918Y0219423D01*
X0192519Y0218823D01*
X0192369Y0218673D01*
X0192068Y0218673D01*
X0191918Y0218823D01*
X0191918Y0219423D01*
X0191598Y0219273D02*
X0191148Y0219273D01*
X0190997Y0219123D01*
X0190997Y0218673D01*
X0190677Y0218673D02*
X0190677Y0219574D01*
X0190077Y0219574D01*
X0190377Y0219123D02*
X0190677Y0219123D01*
X0191598Y0219273D02*
X0191598Y0218673D01*
X0192519Y0218823D02*
X0192519Y0219423D01*
X0193439Y0219423D02*
X0193439Y0218823D01*
X0193289Y0250169D02*
X0193439Y0250319D01*
X0192839Y0250920D01*
X0192839Y0250319D01*
X0192989Y0250169D01*
X0193289Y0250169D01*
X0193439Y0250319D02*
X0193439Y0250920D01*
X0193289Y0251070D01*
X0192989Y0251070D01*
X0192839Y0250920D01*
X0192519Y0250920D02*
X0192369Y0251070D01*
X0192068Y0251070D01*
X0191918Y0250920D01*
X0192519Y0250319D01*
X0192369Y0250169D01*
X0192068Y0250169D01*
X0191918Y0250319D01*
X0191918Y0250920D01*
X0191598Y0250769D02*
X0191148Y0250769D01*
X0190997Y0250619D01*
X0190997Y0250169D01*
X0190677Y0250169D02*
X0190677Y0251070D01*
X0190077Y0251070D01*
X0190377Y0250619D02*
X0190677Y0250619D01*
X0191598Y0250769D02*
X0191598Y0250169D01*
X0192519Y0250319D02*
X0192519Y0250920D01*
X0193760Y0250169D02*
X0194360Y0250169D01*
X0194060Y0250169D02*
X0194060Y0251070D01*
X0194360Y0250769D01*
X0194360Y0281665D02*
X0193760Y0281665D01*
X0194060Y0281665D02*
X0194060Y0282566D01*
X0194360Y0282265D01*
X0193439Y0282416D02*
X0193289Y0282566D01*
X0192989Y0282566D01*
X0192839Y0282416D01*
X0193439Y0281815D01*
X0193289Y0281665D01*
X0192989Y0281665D01*
X0192839Y0281815D01*
X0192839Y0282416D01*
X0192519Y0282416D02*
X0192369Y0282566D01*
X0192068Y0282566D01*
X0191918Y0282416D01*
X0192519Y0281815D01*
X0192369Y0281665D01*
X0192068Y0281665D01*
X0191918Y0281815D01*
X0191918Y0282416D01*
X0191598Y0282265D02*
X0191148Y0282265D01*
X0190997Y0282115D01*
X0190997Y0281665D01*
X0190677Y0281665D02*
X0190677Y0282566D01*
X0190077Y0282566D01*
X0190377Y0282115D02*
X0190677Y0282115D01*
X0191598Y0282265D02*
X0191598Y0281665D01*
X0192519Y0281815D02*
X0192519Y0282416D01*
X0193439Y0282416D02*
X0193439Y0281815D01*
X0193289Y0313161D02*
X0193439Y0313311D01*
X0192839Y0313912D01*
X0192839Y0313311D01*
X0192989Y0313161D01*
X0193289Y0313161D01*
X0193439Y0313311D02*
X0193439Y0313912D01*
X0193289Y0314062D01*
X0192989Y0314062D01*
X0192839Y0313912D01*
X0192519Y0313912D02*
X0192369Y0314062D01*
X0192068Y0314062D01*
X0191918Y0313912D01*
X0192519Y0313311D01*
X0192369Y0313161D01*
X0192068Y0313161D01*
X0191918Y0313311D01*
X0191918Y0313912D01*
X0191598Y0313762D02*
X0191148Y0313762D01*
X0190997Y0313611D01*
X0190997Y0313161D01*
X0190677Y0313161D02*
X0190677Y0314062D01*
X0190077Y0314062D01*
X0190377Y0313611D02*
X0190677Y0313611D01*
X0191598Y0313762D02*
X0191598Y0313161D01*
X0192519Y0313311D02*
X0192519Y0313912D01*
X0193760Y0313161D02*
X0194360Y0313161D01*
X0194060Y0313161D02*
X0194060Y0314062D01*
X0194360Y0313762D01*
X0194360Y0344657D02*
X0193760Y0344657D01*
X0194060Y0344657D02*
X0194060Y0345558D01*
X0194360Y0345258D01*
X0193439Y0345408D02*
X0193289Y0345558D01*
X0192989Y0345558D01*
X0192839Y0345408D01*
X0193439Y0344807D01*
X0193289Y0344657D01*
X0192989Y0344657D01*
X0192839Y0344807D01*
X0192839Y0345408D01*
X0192519Y0345408D02*
X0192369Y0345558D01*
X0192068Y0345558D01*
X0191918Y0345408D01*
X0192519Y0344807D01*
X0192369Y0344657D01*
X0192068Y0344657D01*
X0191918Y0344807D01*
X0191918Y0345408D01*
X0191598Y0345258D02*
X0191148Y0345258D01*
X0190997Y0345107D01*
X0190997Y0344657D01*
X0190677Y0344657D02*
X0190677Y0345558D01*
X0190077Y0345558D01*
X0190377Y0345107D02*
X0190677Y0345107D01*
X0191598Y0345258D02*
X0191598Y0344657D01*
X0192519Y0344807D02*
X0192519Y0345408D01*
X0193439Y0345408D02*
X0193439Y0344807D01*
X0193289Y0376153D02*
X0193439Y0376303D01*
X0192839Y0376904D01*
X0192839Y0376303D01*
X0192989Y0376153D01*
X0193289Y0376153D01*
X0193439Y0376303D02*
X0193439Y0376904D01*
X0193289Y0377054D01*
X0192989Y0377054D01*
X0192839Y0376904D01*
X0192519Y0376904D02*
X0192369Y0377054D01*
X0192068Y0377054D01*
X0191918Y0376904D01*
X0192519Y0376303D01*
X0192369Y0376153D01*
X0192068Y0376153D01*
X0191918Y0376303D01*
X0191918Y0376904D01*
X0191598Y0376754D02*
X0191148Y0376754D01*
X0190997Y0376604D01*
X0190997Y0376153D01*
X0190677Y0376153D02*
X0190677Y0377054D01*
X0190077Y0377054D01*
X0190377Y0376604D02*
X0190677Y0376604D01*
X0191598Y0376754D02*
X0191598Y0376153D01*
X0192519Y0376303D02*
X0192519Y0376904D01*
X0193760Y0376153D02*
X0194360Y0376153D01*
X0194060Y0376153D02*
X0194060Y0377054D01*
X0194360Y0376754D01*
X0233384Y0377054D02*
X0233984Y0377054D01*
X0233984Y0376153D01*
X0234304Y0376153D02*
X0234304Y0376604D01*
X0234455Y0376754D01*
X0234905Y0376754D01*
X0234905Y0376153D01*
X0235225Y0376303D02*
X0235375Y0376153D01*
X0235676Y0376153D01*
X0235826Y0376303D01*
X0235225Y0376904D01*
X0235225Y0376303D01*
X0235826Y0376303D02*
X0235826Y0376904D01*
X0235676Y0377054D01*
X0235375Y0377054D01*
X0235225Y0376904D01*
X0236146Y0376904D02*
X0236747Y0376303D01*
X0236596Y0376153D01*
X0236296Y0376153D01*
X0236146Y0376303D01*
X0236146Y0376904D01*
X0236296Y0377054D01*
X0236596Y0377054D01*
X0236747Y0376904D01*
X0236747Y0376303D01*
X0237067Y0376153D02*
X0237667Y0376153D01*
X0237367Y0376153D02*
X0237367Y0377054D01*
X0237667Y0376754D01*
X0233984Y0376604D02*
X0233684Y0376604D01*
X0233984Y0345558D02*
X0233384Y0345558D01*
X0233684Y0345107D02*
X0233984Y0345107D01*
X0234304Y0345107D02*
X0234304Y0344657D01*
X0233984Y0344657D02*
X0233984Y0345558D01*
X0234304Y0345107D02*
X0234455Y0345258D01*
X0234905Y0345258D01*
X0234905Y0344657D01*
X0235225Y0344807D02*
X0235375Y0344657D01*
X0235676Y0344657D01*
X0235826Y0344807D01*
X0235225Y0345408D01*
X0235225Y0344807D01*
X0235225Y0345408D02*
X0235375Y0345558D01*
X0235676Y0345558D01*
X0235826Y0345408D01*
X0235826Y0344807D01*
X0236146Y0344807D02*
X0236296Y0344657D01*
X0236596Y0344657D01*
X0236747Y0344807D01*
X0236146Y0345408D01*
X0236146Y0344807D01*
X0236747Y0344807D02*
X0236747Y0345408D01*
X0236596Y0345558D01*
X0236296Y0345558D01*
X0236146Y0345408D01*
X0237067Y0344657D02*
X0237667Y0344657D01*
X0237367Y0344657D02*
X0237367Y0345558D01*
X0237667Y0345258D01*
X0237367Y0314062D02*
X0237367Y0313161D01*
X0237667Y0313161D02*
X0237067Y0313161D01*
X0236747Y0313311D02*
X0236146Y0313912D01*
X0236146Y0313311D01*
X0236296Y0313161D01*
X0236596Y0313161D01*
X0236747Y0313311D01*
X0236747Y0313912D01*
X0236596Y0314062D01*
X0236296Y0314062D01*
X0236146Y0313912D01*
X0235826Y0313912D02*
X0235676Y0314062D01*
X0235375Y0314062D01*
X0235225Y0313912D01*
X0235826Y0313311D01*
X0235676Y0313161D01*
X0235375Y0313161D01*
X0235225Y0313311D01*
X0235225Y0313912D01*
X0234905Y0313762D02*
X0234455Y0313762D01*
X0234304Y0313611D01*
X0234304Y0313161D01*
X0233984Y0313161D02*
X0233984Y0314062D01*
X0233384Y0314062D01*
X0233684Y0313611D02*
X0233984Y0313611D01*
X0234905Y0313762D02*
X0234905Y0313161D01*
X0235826Y0313311D02*
X0235826Y0313912D01*
X0237367Y0314062D02*
X0237667Y0313762D01*
X0237367Y0282566D02*
X0237367Y0281665D01*
X0237667Y0281665D02*
X0237067Y0281665D01*
X0236747Y0281815D02*
X0236146Y0282416D01*
X0236146Y0281815D01*
X0236296Y0281665D01*
X0236596Y0281665D01*
X0236747Y0281815D01*
X0236747Y0282416D01*
X0236596Y0282566D01*
X0236296Y0282566D01*
X0236146Y0282416D01*
X0235826Y0282416D02*
X0235676Y0282566D01*
X0235375Y0282566D01*
X0235225Y0282416D01*
X0235826Y0281815D01*
X0235676Y0281665D01*
X0235375Y0281665D01*
X0235225Y0281815D01*
X0235225Y0282416D01*
X0234905Y0282265D02*
X0234455Y0282265D01*
X0234304Y0282115D01*
X0234304Y0281665D01*
X0233984Y0281665D02*
X0233984Y0282566D01*
X0233384Y0282566D01*
X0233684Y0282115D02*
X0233984Y0282115D01*
X0234905Y0282265D02*
X0234905Y0281665D01*
X0235826Y0281815D02*
X0235826Y0282416D01*
X0237367Y0282566D02*
X0237667Y0282265D01*
X0237367Y0251070D02*
X0237367Y0250169D01*
X0237667Y0250169D02*
X0237067Y0250169D01*
X0236747Y0250319D02*
X0236146Y0250920D01*
X0236146Y0250319D01*
X0236296Y0250169D01*
X0236596Y0250169D01*
X0236747Y0250319D01*
X0236747Y0250920D01*
X0236596Y0251070D01*
X0236296Y0251070D01*
X0236146Y0250920D01*
X0235826Y0250920D02*
X0235676Y0251070D01*
X0235375Y0251070D01*
X0235225Y0250920D01*
X0235826Y0250319D01*
X0235676Y0250169D01*
X0235375Y0250169D01*
X0235225Y0250319D01*
X0235225Y0250920D01*
X0234905Y0250769D02*
X0234455Y0250769D01*
X0234304Y0250619D01*
X0234304Y0250169D01*
X0233984Y0250169D02*
X0233984Y0251070D01*
X0233384Y0251070D01*
X0233684Y0250619D02*
X0233984Y0250619D01*
X0234905Y0250769D02*
X0234905Y0250169D01*
X0235826Y0250319D02*
X0235826Y0250920D01*
X0237367Y0251070D02*
X0237667Y0250769D01*
X0237367Y0219574D02*
X0237367Y0218673D01*
X0237667Y0218673D02*
X0237067Y0218673D01*
X0236747Y0218823D02*
X0236146Y0219423D01*
X0236146Y0218823D01*
X0236296Y0218673D01*
X0236596Y0218673D01*
X0236747Y0218823D01*
X0236747Y0219423D01*
X0236596Y0219574D01*
X0236296Y0219574D01*
X0236146Y0219423D01*
X0235826Y0219423D02*
X0235676Y0219574D01*
X0235375Y0219574D01*
X0235225Y0219423D01*
X0235826Y0218823D01*
X0235676Y0218673D01*
X0235375Y0218673D01*
X0235225Y0218823D01*
X0235225Y0219423D01*
X0234905Y0219273D02*
X0234455Y0219273D01*
X0234304Y0219123D01*
X0234304Y0218673D01*
X0233984Y0218673D02*
X0233984Y0219574D01*
X0233384Y0219574D01*
X0233684Y0219123D02*
X0233984Y0219123D01*
X0234905Y0219273D02*
X0234905Y0218673D01*
X0235826Y0218823D02*
X0235826Y0219423D01*
X0237367Y0219574D02*
X0237667Y0219273D01*
X0237367Y0188078D02*
X0237367Y0187177D01*
X0237667Y0187177D02*
X0237067Y0187177D01*
X0236747Y0187327D02*
X0236146Y0187927D01*
X0236146Y0187327D01*
X0236296Y0187177D01*
X0236596Y0187177D01*
X0236747Y0187327D01*
X0236747Y0187927D01*
X0236596Y0188078D01*
X0236296Y0188078D01*
X0236146Y0187927D01*
X0235826Y0187927D02*
X0235676Y0188078D01*
X0235375Y0188078D01*
X0235225Y0187927D01*
X0235826Y0187327D01*
X0235676Y0187177D01*
X0235375Y0187177D01*
X0235225Y0187327D01*
X0235225Y0187927D01*
X0234905Y0187777D02*
X0234455Y0187777D01*
X0234304Y0187627D01*
X0234304Y0187177D01*
X0233984Y0187177D02*
X0233984Y0188078D01*
X0233384Y0188078D01*
X0233684Y0187627D02*
X0233984Y0187627D01*
X0234905Y0187777D02*
X0234905Y0187177D01*
X0235826Y0187327D02*
X0235826Y0187927D01*
X0237367Y0188078D02*
X0237667Y0187777D01*
X0237367Y0156581D02*
X0237367Y0155681D01*
X0237667Y0155681D02*
X0237067Y0155681D01*
X0236747Y0155831D02*
X0236146Y0156431D01*
X0236146Y0155831D01*
X0236296Y0155681D01*
X0236596Y0155681D01*
X0236747Y0155831D01*
X0236747Y0156431D01*
X0236596Y0156581D01*
X0236296Y0156581D01*
X0236146Y0156431D01*
X0235826Y0156431D02*
X0235676Y0156581D01*
X0235375Y0156581D01*
X0235225Y0156431D01*
X0235826Y0155831D01*
X0235676Y0155681D01*
X0235375Y0155681D01*
X0235225Y0155831D01*
X0235225Y0156431D01*
X0234905Y0156281D02*
X0234455Y0156281D01*
X0234304Y0156131D01*
X0234304Y0155681D01*
X0233984Y0155681D02*
X0233984Y0156581D01*
X0233384Y0156581D01*
X0233684Y0156131D02*
X0233984Y0156131D01*
X0234905Y0156281D02*
X0234905Y0155681D01*
X0235826Y0155831D02*
X0235826Y0156431D01*
X0237367Y0156581D02*
X0237667Y0156281D01*
X0237367Y0125085D02*
X0237367Y0124185D01*
X0237667Y0124185D02*
X0237067Y0124185D01*
X0236747Y0124335D02*
X0236146Y0124935D01*
X0236146Y0124335D01*
X0236296Y0124185D01*
X0236596Y0124185D01*
X0236747Y0124335D01*
X0236747Y0124935D01*
X0236596Y0125085D01*
X0236296Y0125085D01*
X0236146Y0124935D01*
X0235826Y0124935D02*
X0235676Y0125085D01*
X0235375Y0125085D01*
X0235225Y0124935D01*
X0235826Y0124335D01*
X0235676Y0124185D01*
X0235375Y0124185D01*
X0235225Y0124335D01*
X0235225Y0124935D01*
X0234905Y0124785D02*
X0234455Y0124785D01*
X0234304Y0124635D01*
X0234304Y0124185D01*
X0233984Y0124185D02*
X0233984Y0125085D01*
X0233384Y0125085D01*
X0233684Y0124635D02*
X0233984Y0124635D01*
X0234905Y0124785D02*
X0234905Y0124185D01*
X0235826Y0124335D02*
X0235826Y0124935D01*
X0237367Y0125085D02*
X0237667Y0124785D01*
X0237367Y0093589D02*
X0237367Y0092689D01*
X0237667Y0092689D02*
X0237067Y0092689D01*
X0236747Y0092839D02*
X0236146Y0093439D01*
X0236146Y0092839D01*
X0236296Y0092689D01*
X0236596Y0092689D01*
X0236747Y0092839D01*
X0236747Y0093439D01*
X0236596Y0093589D01*
X0236296Y0093589D01*
X0236146Y0093439D01*
X0235826Y0093439D02*
X0235676Y0093589D01*
X0235375Y0093589D01*
X0235225Y0093439D01*
X0235826Y0092839D01*
X0235676Y0092689D01*
X0235375Y0092689D01*
X0235225Y0092839D01*
X0235225Y0093439D01*
X0234905Y0093289D02*
X0234455Y0093289D01*
X0234304Y0093139D01*
X0234304Y0092689D01*
X0233984Y0092689D02*
X0233984Y0093589D01*
X0233384Y0093589D01*
X0233684Y0093139D02*
X0233984Y0093139D01*
X0234905Y0093289D02*
X0234905Y0092689D01*
X0235826Y0092839D02*
X0235826Y0093439D01*
X0237367Y0093589D02*
X0237667Y0093289D01*
X0237367Y0062093D02*
X0237367Y0061193D01*
X0237667Y0061193D02*
X0237067Y0061193D01*
X0236747Y0061343D02*
X0236146Y0061943D01*
X0236146Y0061343D01*
X0236296Y0061193D01*
X0236596Y0061193D01*
X0236747Y0061343D01*
X0236747Y0061943D01*
X0236596Y0062093D01*
X0236296Y0062093D01*
X0236146Y0061943D01*
X0235826Y0061943D02*
X0235676Y0062093D01*
X0235375Y0062093D01*
X0235225Y0061943D01*
X0235826Y0061343D01*
X0235676Y0061193D01*
X0235375Y0061193D01*
X0235225Y0061343D01*
X0235225Y0061943D01*
X0234905Y0061793D02*
X0234455Y0061793D01*
X0234304Y0061643D01*
X0234304Y0061193D01*
X0233984Y0061193D02*
X0233984Y0062093D01*
X0233384Y0062093D01*
X0233684Y0061643D02*
X0233984Y0061643D01*
X0234905Y0061793D02*
X0234905Y0061193D01*
X0235826Y0061343D02*
X0235826Y0061943D01*
X0237367Y0062093D02*
X0237667Y0061793D01*
X0237367Y0030597D02*
X0237367Y0029696D01*
X0237667Y0029696D02*
X0237067Y0029696D01*
X0236747Y0029847D02*
X0236146Y0030447D01*
X0236146Y0029847D01*
X0236296Y0029696D01*
X0236596Y0029696D01*
X0236747Y0029847D01*
X0236747Y0030447D01*
X0236596Y0030597D01*
X0236296Y0030597D01*
X0236146Y0030447D01*
X0235826Y0030447D02*
X0235676Y0030597D01*
X0235375Y0030597D01*
X0235225Y0030447D01*
X0235826Y0029847D01*
X0235676Y0029696D01*
X0235375Y0029696D01*
X0235225Y0029847D01*
X0235225Y0030447D01*
X0234905Y0030297D02*
X0234455Y0030297D01*
X0234304Y0030147D01*
X0234304Y0029696D01*
X0233984Y0029696D02*
X0233984Y0030597D01*
X0233384Y0030597D01*
X0233684Y0030147D02*
X0233984Y0030147D01*
X0234905Y0030297D02*
X0234905Y0029696D01*
X0235826Y0029847D02*
X0235826Y0030447D01*
X0237367Y0030597D02*
X0237667Y0030297D01*
X0272754Y0030597D02*
X0273354Y0030597D01*
X0273354Y0029696D01*
X0273675Y0029696D02*
X0273675Y0030147D01*
X0273825Y0030297D01*
X0274275Y0030297D01*
X0274275Y0029696D01*
X0274595Y0029847D02*
X0274745Y0029696D01*
X0275046Y0029696D01*
X0275196Y0029847D01*
X0274595Y0030447D01*
X0274595Y0029847D01*
X0274595Y0030447D02*
X0274745Y0030597D01*
X0275046Y0030597D01*
X0275196Y0030447D01*
X0275196Y0029847D01*
X0275516Y0029847D02*
X0275666Y0029696D01*
X0275966Y0029696D01*
X0276117Y0029847D01*
X0275516Y0030447D01*
X0275516Y0029847D01*
X0275516Y0030447D02*
X0275666Y0030597D01*
X0275966Y0030597D01*
X0276117Y0030447D01*
X0276117Y0029847D01*
X0276437Y0029696D02*
X0277037Y0029696D01*
X0276737Y0029696D02*
X0276737Y0030597D01*
X0277037Y0030297D01*
X0273354Y0030147D02*
X0273054Y0030147D01*
X0273354Y0061193D02*
X0273354Y0062093D01*
X0272754Y0062093D01*
X0273054Y0061643D02*
X0273354Y0061643D01*
X0273675Y0061643D02*
X0273675Y0061193D01*
X0273675Y0061643D02*
X0273825Y0061793D01*
X0274275Y0061793D01*
X0274275Y0061193D01*
X0274595Y0061343D02*
X0274745Y0061193D01*
X0275046Y0061193D01*
X0275196Y0061343D01*
X0274595Y0061943D01*
X0274595Y0061343D01*
X0274595Y0061943D02*
X0274745Y0062093D01*
X0275046Y0062093D01*
X0275196Y0061943D01*
X0275196Y0061343D01*
X0275516Y0061343D02*
X0275666Y0061193D01*
X0275966Y0061193D01*
X0276117Y0061343D01*
X0275516Y0061943D01*
X0275516Y0061343D01*
X0275516Y0061943D02*
X0275666Y0062093D01*
X0275966Y0062093D01*
X0276117Y0061943D01*
X0276117Y0061343D01*
X0276437Y0061193D02*
X0277037Y0061193D01*
X0276737Y0061193D02*
X0276737Y0062093D01*
X0277037Y0061793D01*
X0277037Y0092689D02*
X0276437Y0092689D01*
X0276737Y0092689D02*
X0276737Y0093589D01*
X0277037Y0093289D01*
X0276117Y0093439D02*
X0275966Y0093589D01*
X0275666Y0093589D01*
X0275516Y0093439D01*
X0276117Y0092839D01*
X0275966Y0092689D01*
X0275666Y0092689D01*
X0275516Y0092839D01*
X0275516Y0093439D01*
X0275196Y0093439D02*
X0275046Y0093589D01*
X0274745Y0093589D01*
X0274595Y0093439D01*
X0275196Y0092839D01*
X0275046Y0092689D01*
X0274745Y0092689D01*
X0274595Y0092839D01*
X0274595Y0093439D01*
X0274275Y0093289D02*
X0273825Y0093289D01*
X0273675Y0093139D01*
X0273675Y0092689D01*
X0273354Y0092689D02*
X0273354Y0093589D01*
X0272754Y0093589D01*
X0273054Y0093139D02*
X0273354Y0093139D01*
X0274275Y0093289D02*
X0274275Y0092689D01*
X0275196Y0092839D02*
X0275196Y0093439D01*
X0276117Y0093439D02*
X0276117Y0092839D01*
X0275966Y0124185D02*
X0276117Y0124335D01*
X0275516Y0124935D01*
X0275516Y0124335D01*
X0275666Y0124185D01*
X0275966Y0124185D01*
X0276117Y0124335D02*
X0276117Y0124935D01*
X0275966Y0125085D01*
X0275666Y0125085D01*
X0275516Y0124935D01*
X0275196Y0124935D02*
X0275046Y0125085D01*
X0274745Y0125085D01*
X0274595Y0124935D01*
X0275196Y0124335D01*
X0275046Y0124185D01*
X0274745Y0124185D01*
X0274595Y0124335D01*
X0274595Y0124935D01*
X0274275Y0124785D02*
X0273825Y0124785D01*
X0273675Y0124635D01*
X0273675Y0124185D01*
X0273354Y0124185D02*
X0273354Y0125085D01*
X0272754Y0125085D01*
X0273054Y0124635D02*
X0273354Y0124635D01*
X0274275Y0124785D02*
X0274275Y0124185D01*
X0275196Y0124335D02*
X0275196Y0124935D01*
X0276437Y0124185D02*
X0277037Y0124185D01*
X0276737Y0124185D02*
X0276737Y0125085D01*
X0277037Y0124785D01*
X0277037Y0155681D02*
X0276437Y0155681D01*
X0276737Y0155681D02*
X0276737Y0156581D01*
X0277037Y0156281D01*
X0276117Y0156431D02*
X0275966Y0156581D01*
X0275666Y0156581D01*
X0275516Y0156431D01*
X0276117Y0155831D01*
X0275966Y0155681D01*
X0275666Y0155681D01*
X0275516Y0155831D01*
X0275516Y0156431D01*
X0275196Y0156431D02*
X0275046Y0156581D01*
X0274745Y0156581D01*
X0274595Y0156431D01*
X0275196Y0155831D01*
X0275046Y0155681D01*
X0274745Y0155681D01*
X0274595Y0155831D01*
X0274595Y0156431D01*
X0274275Y0156281D02*
X0273825Y0156281D01*
X0273675Y0156131D01*
X0273675Y0155681D01*
X0273354Y0155681D02*
X0273354Y0156581D01*
X0272754Y0156581D01*
X0273054Y0156131D02*
X0273354Y0156131D01*
X0274275Y0156281D02*
X0274275Y0155681D01*
X0275196Y0155831D02*
X0275196Y0156431D01*
X0276117Y0156431D02*
X0276117Y0155831D01*
X0275966Y0187177D02*
X0276117Y0187327D01*
X0275516Y0187927D01*
X0275516Y0187327D01*
X0275666Y0187177D01*
X0275966Y0187177D01*
X0276117Y0187327D02*
X0276117Y0187927D01*
X0275966Y0188078D01*
X0275666Y0188078D01*
X0275516Y0187927D01*
X0275196Y0187927D02*
X0275046Y0188078D01*
X0274745Y0188078D01*
X0274595Y0187927D01*
X0275196Y0187327D01*
X0275046Y0187177D01*
X0274745Y0187177D01*
X0274595Y0187327D01*
X0274595Y0187927D01*
X0274275Y0187777D02*
X0273825Y0187777D01*
X0273675Y0187627D01*
X0273675Y0187177D01*
X0273354Y0187177D02*
X0273354Y0188078D01*
X0272754Y0188078D01*
X0273054Y0187627D02*
X0273354Y0187627D01*
X0274275Y0187777D02*
X0274275Y0187177D01*
X0275196Y0187327D02*
X0275196Y0187927D01*
X0276437Y0187177D02*
X0277037Y0187177D01*
X0276737Y0187177D02*
X0276737Y0188078D01*
X0277037Y0187777D01*
X0277037Y0218673D02*
X0276437Y0218673D01*
X0276737Y0218673D02*
X0276737Y0219574D01*
X0277037Y0219273D01*
X0276117Y0219423D02*
X0275966Y0219574D01*
X0275666Y0219574D01*
X0275516Y0219423D01*
X0276117Y0218823D01*
X0275966Y0218673D01*
X0275666Y0218673D01*
X0275516Y0218823D01*
X0275516Y0219423D01*
X0275196Y0219423D02*
X0275046Y0219574D01*
X0274745Y0219574D01*
X0274595Y0219423D01*
X0275196Y0218823D01*
X0275046Y0218673D01*
X0274745Y0218673D01*
X0274595Y0218823D01*
X0274595Y0219423D01*
X0274275Y0219273D02*
X0273825Y0219273D01*
X0273675Y0219123D01*
X0273675Y0218673D01*
X0273354Y0218673D02*
X0273354Y0219574D01*
X0272754Y0219574D01*
X0273054Y0219123D02*
X0273354Y0219123D01*
X0274275Y0219273D02*
X0274275Y0218673D01*
X0275196Y0218823D02*
X0275196Y0219423D01*
X0276117Y0219423D02*
X0276117Y0218823D01*
X0275966Y0250169D02*
X0276117Y0250319D01*
X0275516Y0250920D01*
X0275516Y0250319D01*
X0275666Y0250169D01*
X0275966Y0250169D01*
X0276117Y0250319D02*
X0276117Y0250920D01*
X0275966Y0251070D01*
X0275666Y0251070D01*
X0275516Y0250920D01*
X0275196Y0250920D02*
X0275046Y0251070D01*
X0274745Y0251070D01*
X0274595Y0250920D01*
X0275196Y0250319D01*
X0275046Y0250169D01*
X0274745Y0250169D01*
X0274595Y0250319D01*
X0274595Y0250920D01*
X0274275Y0250769D02*
X0273825Y0250769D01*
X0273675Y0250619D01*
X0273675Y0250169D01*
X0273354Y0250169D02*
X0273354Y0251070D01*
X0272754Y0251070D01*
X0273054Y0250619D02*
X0273354Y0250619D01*
X0274275Y0250769D02*
X0274275Y0250169D01*
X0275196Y0250319D02*
X0275196Y0250920D01*
X0276437Y0250169D02*
X0277037Y0250169D01*
X0276737Y0250169D02*
X0276737Y0251070D01*
X0277037Y0250769D01*
X0277037Y0281665D02*
X0276437Y0281665D01*
X0276737Y0281665D02*
X0276737Y0282566D01*
X0277037Y0282265D01*
X0276117Y0282416D02*
X0275966Y0282566D01*
X0275666Y0282566D01*
X0275516Y0282416D01*
X0276117Y0281815D01*
X0275966Y0281665D01*
X0275666Y0281665D01*
X0275516Y0281815D01*
X0275516Y0282416D01*
X0275196Y0282416D02*
X0275046Y0282566D01*
X0274745Y0282566D01*
X0274595Y0282416D01*
X0275196Y0281815D01*
X0275046Y0281665D01*
X0274745Y0281665D01*
X0274595Y0281815D01*
X0274595Y0282416D01*
X0274275Y0282265D02*
X0273825Y0282265D01*
X0273675Y0282115D01*
X0273675Y0281665D01*
X0273354Y0281665D02*
X0273354Y0282566D01*
X0272754Y0282566D01*
X0273054Y0282115D02*
X0273354Y0282115D01*
X0274275Y0282265D02*
X0274275Y0281665D01*
X0275196Y0281815D02*
X0275196Y0282416D01*
X0276117Y0282416D02*
X0276117Y0281815D01*
X0275966Y0313161D02*
X0276117Y0313311D01*
X0275516Y0313912D01*
X0275516Y0313311D01*
X0275666Y0313161D01*
X0275966Y0313161D01*
X0276117Y0313311D02*
X0276117Y0313912D01*
X0275966Y0314062D01*
X0275666Y0314062D01*
X0275516Y0313912D01*
X0275196Y0313912D02*
X0275046Y0314062D01*
X0274745Y0314062D01*
X0274595Y0313912D01*
X0275196Y0313311D01*
X0275046Y0313161D01*
X0274745Y0313161D01*
X0274595Y0313311D01*
X0274595Y0313912D01*
X0274275Y0313762D02*
X0273825Y0313762D01*
X0273675Y0313611D01*
X0273675Y0313161D01*
X0273354Y0313161D02*
X0273354Y0314062D01*
X0272754Y0314062D01*
X0273054Y0313611D02*
X0273354Y0313611D01*
X0274275Y0313762D02*
X0274275Y0313161D01*
X0275196Y0313311D02*
X0275196Y0313912D01*
X0276437Y0313161D02*
X0277037Y0313161D01*
X0276737Y0313161D02*
X0276737Y0314062D01*
X0277037Y0313762D01*
X0277037Y0344657D02*
X0276437Y0344657D01*
X0276737Y0344657D02*
X0276737Y0345558D01*
X0277037Y0345258D01*
X0276117Y0345408D02*
X0275966Y0345558D01*
X0275666Y0345558D01*
X0275516Y0345408D01*
X0276117Y0344807D01*
X0275966Y0344657D01*
X0275666Y0344657D01*
X0275516Y0344807D01*
X0275516Y0345408D01*
X0275196Y0345408D02*
X0275046Y0345558D01*
X0274745Y0345558D01*
X0274595Y0345408D01*
X0275196Y0344807D01*
X0275046Y0344657D01*
X0274745Y0344657D01*
X0274595Y0344807D01*
X0274595Y0345408D01*
X0274275Y0345258D02*
X0273825Y0345258D01*
X0273675Y0345107D01*
X0273675Y0344657D01*
X0273354Y0344657D02*
X0273354Y0345558D01*
X0272754Y0345558D01*
X0273054Y0345107D02*
X0273354Y0345107D01*
X0274275Y0345258D02*
X0274275Y0344657D01*
X0275196Y0344807D02*
X0275196Y0345408D01*
X0276117Y0345408D02*
X0276117Y0344807D01*
X0275966Y0376153D02*
X0276117Y0376303D01*
X0275516Y0376904D01*
X0275516Y0376303D01*
X0275666Y0376153D01*
X0275966Y0376153D01*
X0276117Y0376303D02*
X0276117Y0376904D01*
X0275966Y0377054D01*
X0275666Y0377054D01*
X0275516Y0376904D01*
X0275196Y0376904D02*
X0275046Y0377054D01*
X0274745Y0377054D01*
X0274595Y0376904D01*
X0275196Y0376303D01*
X0275046Y0376153D01*
X0274745Y0376153D01*
X0274595Y0376303D01*
X0274595Y0376904D01*
X0274275Y0376754D02*
X0273825Y0376754D01*
X0273675Y0376604D01*
X0273675Y0376153D01*
X0273354Y0376153D02*
X0273354Y0377054D01*
X0272754Y0377054D01*
X0273054Y0376604D02*
X0273354Y0376604D01*
X0274275Y0376754D02*
X0274275Y0376153D01*
X0275196Y0376303D02*
X0275196Y0376904D01*
X0276437Y0376153D02*
X0277037Y0376153D01*
X0276737Y0376153D02*
X0276737Y0377054D01*
X0277037Y0376754D01*
X0316061Y0377054D02*
X0316661Y0377054D01*
X0316661Y0376153D01*
X0316982Y0376153D02*
X0316982Y0376604D01*
X0317132Y0376754D01*
X0317582Y0376754D01*
X0317582Y0376153D01*
X0317902Y0376303D02*
X0318053Y0376153D01*
X0318353Y0376153D01*
X0318503Y0376303D01*
X0317902Y0376904D01*
X0317902Y0376303D01*
X0317902Y0376904D02*
X0318053Y0377054D01*
X0318353Y0377054D01*
X0318503Y0376904D01*
X0318503Y0376303D01*
X0318823Y0376303D02*
X0318973Y0376153D01*
X0319274Y0376153D01*
X0319424Y0376303D01*
X0318823Y0376904D01*
X0318823Y0376303D01*
X0319424Y0376303D02*
X0319424Y0376904D01*
X0319274Y0377054D01*
X0318973Y0377054D01*
X0318823Y0376904D01*
X0319744Y0376153D02*
X0320344Y0376153D01*
X0320044Y0376153D02*
X0320044Y0377054D01*
X0320344Y0376754D01*
X0316661Y0376604D02*
X0316361Y0376604D01*
X0316661Y0345558D02*
X0316061Y0345558D01*
X0316361Y0345107D02*
X0316661Y0345107D01*
X0316982Y0345107D02*
X0316982Y0344657D01*
X0316661Y0344657D02*
X0316661Y0345558D01*
X0316982Y0345107D02*
X0317132Y0345258D01*
X0317582Y0345258D01*
X0317582Y0344657D01*
X0317902Y0344807D02*
X0318053Y0344657D01*
X0318353Y0344657D01*
X0318503Y0344807D01*
X0317902Y0345408D01*
X0317902Y0344807D01*
X0317902Y0345408D02*
X0318053Y0345558D01*
X0318353Y0345558D01*
X0318503Y0345408D01*
X0318503Y0344807D01*
X0318823Y0344807D02*
X0318973Y0344657D01*
X0319274Y0344657D01*
X0319424Y0344807D01*
X0318823Y0345408D01*
X0318823Y0344807D01*
X0319424Y0344807D02*
X0319424Y0345408D01*
X0319274Y0345558D01*
X0318973Y0345558D01*
X0318823Y0345408D01*
X0319744Y0344657D02*
X0320344Y0344657D01*
X0320044Y0344657D02*
X0320044Y0345558D01*
X0320344Y0345258D01*
X0320044Y0314062D02*
X0320044Y0313161D01*
X0320344Y0313161D02*
X0319744Y0313161D01*
X0319424Y0313311D02*
X0318823Y0313912D01*
X0318823Y0313311D01*
X0318973Y0313161D01*
X0319274Y0313161D01*
X0319424Y0313311D01*
X0319424Y0313912D01*
X0319274Y0314062D01*
X0318973Y0314062D01*
X0318823Y0313912D01*
X0318503Y0313912D02*
X0318353Y0314062D01*
X0318053Y0314062D01*
X0317902Y0313912D01*
X0318503Y0313311D01*
X0318353Y0313161D01*
X0318053Y0313161D01*
X0317902Y0313311D01*
X0317902Y0313912D01*
X0317582Y0313762D02*
X0317132Y0313762D01*
X0316982Y0313611D01*
X0316982Y0313161D01*
X0316661Y0313161D02*
X0316661Y0314062D01*
X0316061Y0314062D01*
X0316361Y0313611D02*
X0316661Y0313611D01*
X0317582Y0313762D02*
X0317582Y0313161D01*
X0318503Y0313311D02*
X0318503Y0313912D01*
X0320044Y0314062D02*
X0320344Y0313762D01*
X0320044Y0282566D02*
X0320044Y0281665D01*
X0320344Y0281665D02*
X0319744Y0281665D01*
X0319424Y0281815D02*
X0318823Y0282416D01*
X0318823Y0281815D01*
X0318973Y0281665D01*
X0319274Y0281665D01*
X0319424Y0281815D01*
X0319424Y0282416D01*
X0319274Y0282566D01*
X0318973Y0282566D01*
X0318823Y0282416D01*
X0318503Y0282416D02*
X0318353Y0282566D01*
X0318053Y0282566D01*
X0317902Y0282416D01*
X0318503Y0281815D01*
X0318353Y0281665D01*
X0318053Y0281665D01*
X0317902Y0281815D01*
X0317902Y0282416D01*
X0317582Y0282265D02*
X0317132Y0282265D01*
X0316982Y0282115D01*
X0316982Y0281665D01*
X0316661Y0281665D02*
X0316661Y0282566D01*
X0316061Y0282566D01*
X0316361Y0282115D02*
X0316661Y0282115D01*
X0317582Y0282265D02*
X0317582Y0281665D01*
X0318503Y0281815D02*
X0318503Y0282416D01*
X0320044Y0282566D02*
X0320344Y0282265D01*
X0320044Y0251070D02*
X0320044Y0250169D01*
X0320344Y0250169D02*
X0319744Y0250169D01*
X0319424Y0250319D02*
X0318823Y0250920D01*
X0318823Y0250319D01*
X0318973Y0250169D01*
X0319274Y0250169D01*
X0319424Y0250319D01*
X0319424Y0250920D01*
X0319274Y0251070D01*
X0318973Y0251070D01*
X0318823Y0250920D01*
X0318503Y0250920D02*
X0318353Y0251070D01*
X0318053Y0251070D01*
X0317902Y0250920D01*
X0318503Y0250319D01*
X0318353Y0250169D01*
X0318053Y0250169D01*
X0317902Y0250319D01*
X0317902Y0250920D01*
X0317582Y0250769D02*
X0317132Y0250769D01*
X0316982Y0250619D01*
X0316982Y0250169D01*
X0316661Y0250169D02*
X0316661Y0251070D01*
X0316061Y0251070D01*
X0316361Y0250619D02*
X0316661Y0250619D01*
X0317582Y0250769D02*
X0317582Y0250169D01*
X0318503Y0250319D02*
X0318503Y0250920D01*
X0320044Y0251070D02*
X0320344Y0250769D01*
X0320044Y0219574D02*
X0320044Y0218673D01*
X0320344Y0218673D02*
X0319744Y0218673D01*
X0319424Y0218823D02*
X0318823Y0219423D01*
X0318823Y0218823D01*
X0318973Y0218673D01*
X0319274Y0218673D01*
X0319424Y0218823D01*
X0319424Y0219423D01*
X0319274Y0219574D01*
X0318973Y0219574D01*
X0318823Y0219423D01*
X0318503Y0219423D02*
X0318353Y0219574D01*
X0318053Y0219574D01*
X0317902Y0219423D01*
X0318503Y0218823D01*
X0318353Y0218673D01*
X0318053Y0218673D01*
X0317902Y0218823D01*
X0317902Y0219423D01*
X0317582Y0219273D02*
X0317132Y0219273D01*
X0316982Y0219123D01*
X0316982Y0218673D01*
X0316661Y0218673D02*
X0316661Y0219574D01*
X0316061Y0219574D01*
X0316361Y0219123D02*
X0316661Y0219123D01*
X0317582Y0219273D02*
X0317582Y0218673D01*
X0318503Y0218823D02*
X0318503Y0219423D01*
X0320044Y0219574D02*
X0320344Y0219273D01*
X0320044Y0188078D02*
X0320044Y0187177D01*
X0320344Y0187177D02*
X0319744Y0187177D01*
X0319424Y0187327D02*
X0318823Y0187927D01*
X0318823Y0187327D01*
X0318973Y0187177D01*
X0319274Y0187177D01*
X0319424Y0187327D01*
X0319424Y0187927D01*
X0319274Y0188078D01*
X0318973Y0188078D01*
X0318823Y0187927D01*
X0318503Y0187927D02*
X0318353Y0188078D01*
X0318053Y0188078D01*
X0317902Y0187927D01*
X0318503Y0187327D01*
X0318353Y0187177D01*
X0318053Y0187177D01*
X0317902Y0187327D01*
X0317902Y0187927D01*
X0317582Y0187777D02*
X0317132Y0187777D01*
X0316982Y0187627D01*
X0316982Y0187177D01*
X0316661Y0187177D02*
X0316661Y0188078D01*
X0316061Y0188078D01*
X0316361Y0187627D02*
X0316661Y0187627D01*
X0317582Y0187777D02*
X0317582Y0187177D01*
X0318503Y0187327D02*
X0318503Y0187927D01*
X0320044Y0188078D02*
X0320344Y0187777D01*
X0320044Y0156581D02*
X0320044Y0155681D01*
X0320344Y0155681D02*
X0319744Y0155681D01*
X0319424Y0155831D02*
X0318823Y0156431D01*
X0318823Y0155831D01*
X0318973Y0155681D01*
X0319274Y0155681D01*
X0319424Y0155831D01*
X0319424Y0156431D01*
X0319274Y0156581D01*
X0318973Y0156581D01*
X0318823Y0156431D01*
X0318503Y0156431D02*
X0318353Y0156581D01*
X0318053Y0156581D01*
X0317902Y0156431D01*
X0318503Y0155831D01*
X0318353Y0155681D01*
X0318053Y0155681D01*
X0317902Y0155831D01*
X0317902Y0156431D01*
X0317582Y0156281D02*
X0317132Y0156281D01*
X0316982Y0156131D01*
X0316982Y0155681D01*
X0316661Y0155681D02*
X0316661Y0156581D01*
X0316061Y0156581D01*
X0316361Y0156131D02*
X0316661Y0156131D01*
X0317582Y0156281D02*
X0317582Y0155681D01*
X0318503Y0155831D02*
X0318503Y0156431D01*
X0320044Y0156581D02*
X0320344Y0156281D01*
X0320044Y0125085D02*
X0320044Y0124185D01*
X0320344Y0124185D02*
X0319744Y0124185D01*
X0319424Y0124335D02*
X0318823Y0124935D01*
X0318823Y0124335D01*
X0318973Y0124185D01*
X0319274Y0124185D01*
X0319424Y0124335D01*
X0319424Y0124935D01*
X0319274Y0125085D01*
X0318973Y0125085D01*
X0318823Y0124935D01*
X0318503Y0124935D02*
X0318353Y0125085D01*
X0318053Y0125085D01*
X0317902Y0124935D01*
X0318503Y0124335D01*
X0318353Y0124185D01*
X0318053Y0124185D01*
X0317902Y0124335D01*
X0317902Y0124935D01*
X0317582Y0124785D02*
X0317132Y0124785D01*
X0316982Y0124635D01*
X0316982Y0124185D01*
X0316661Y0124185D02*
X0316661Y0125085D01*
X0316061Y0125085D01*
X0316361Y0124635D02*
X0316661Y0124635D01*
X0317582Y0124785D02*
X0317582Y0124185D01*
X0318503Y0124335D02*
X0318503Y0124935D01*
X0320044Y0125085D02*
X0320344Y0124785D01*
X0320044Y0093589D02*
X0320044Y0092689D01*
X0320344Y0092689D02*
X0319744Y0092689D01*
X0319424Y0092839D02*
X0318823Y0093439D01*
X0318823Y0092839D01*
X0318973Y0092689D01*
X0319274Y0092689D01*
X0319424Y0092839D01*
X0319424Y0093439D01*
X0319274Y0093589D01*
X0318973Y0093589D01*
X0318823Y0093439D01*
X0318503Y0093439D02*
X0318353Y0093589D01*
X0318053Y0093589D01*
X0317902Y0093439D01*
X0318503Y0092839D01*
X0318353Y0092689D01*
X0318053Y0092689D01*
X0317902Y0092839D01*
X0317902Y0093439D01*
X0317582Y0093289D02*
X0317132Y0093289D01*
X0316982Y0093139D01*
X0316982Y0092689D01*
X0316661Y0092689D02*
X0316661Y0093589D01*
X0316061Y0093589D01*
X0316361Y0093139D02*
X0316661Y0093139D01*
X0317582Y0093289D02*
X0317582Y0092689D01*
X0318503Y0092839D02*
X0318503Y0093439D01*
X0320044Y0093589D02*
X0320344Y0093289D01*
X0320044Y0062093D02*
X0320044Y0061193D01*
X0320344Y0061193D02*
X0319744Y0061193D01*
X0319424Y0061343D02*
X0318823Y0061943D01*
X0318823Y0061343D01*
X0318973Y0061193D01*
X0319274Y0061193D01*
X0319424Y0061343D01*
X0319424Y0061943D01*
X0319274Y0062093D01*
X0318973Y0062093D01*
X0318823Y0061943D01*
X0318503Y0061943D02*
X0318353Y0062093D01*
X0318053Y0062093D01*
X0317902Y0061943D01*
X0318503Y0061343D01*
X0318353Y0061193D01*
X0318053Y0061193D01*
X0317902Y0061343D01*
X0317902Y0061943D01*
X0317582Y0061793D02*
X0317132Y0061793D01*
X0316982Y0061643D01*
X0316982Y0061193D01*
X0316661Y0061193D02*
X0316661Y0062093D01*
X0316061Y0062093D01*
X0316361Y0061643D02*
X0316661Y0061643D01*
X0317582Y0061793D02*
X0317582Y0061193D01*
X0318503Y0061343D02*
X0318503Y0061943D01*
X0320044Y0062093D02*
X0320344Y0061793D01*
X0320044Y0030597D02*
X0320044Y0029696D01*
X0320344Y0029696D02*
X0319744Y0029696D01*
X0319424Y0029847D02*
X0318823Y0030447D01*
X0318823Y0029847D01*
X0318973Y0029696D01*
X0319274Y0029696D01*
X0319424Y0029847D01*
X0319424Y0030447D01*
X0319274Y0030597D01*
X0318973Y0030597D01*
X0318823Y0030447D01*
X0318503Y0030447D02*
X0318353Y0030597D01*
X0318053Y0030597D01*
X0317902Y0030447D01*
X0318503Y0029847D01*
X0318353Y0029696D01*
X0318053Y0029696D01*
X0317902Y0029847D01*
X0317902Y0030447D01*
X0317582Y0030297D02*
X0317132Y0030297D01*
X0316982Y0030147D01*
X0316982Y0029696D01*
X0316661Y0029696D02*
X0316661Y0030597D01*
X0316061Y0030597D01*
X0316361Y0030147D02*
X0316661Y0030147D01*
X0317582Y0030297D02*
X0317582Y0029696D01*
X0318503Y0029847D02*
X0318503Y0030447D01*
X0320044Y0030597D02*
X0320344Y0030297D01*
X0359368Y0030597D02*
X0359968Y0030597D01*
X0359968Y0029696D01*
X0360289Y0029696D02*
X0360289Y0030147D01*
X0360439Y0030297D01*
X0360889Y0030297D01*
X0360889Y0029696D01*
X0361210Y0029847D02*
X0361360Y0029696D01*
X0361660Y0029696D01*
X0361810Y0029847D01*
X0361210Y0030447D01*
X0361210Y0029847D01*
X0361810Y0029847D02*
X0361810Y0030447D01*
X0361660Y0030597D01*
X0361360Y0030597D01*
X0361210Y0030447D01*
X0362130Y0030447D02*
X0362731Y0029847D01*
X0362581Y0029696D01*
X0362280Y0029696D01*
X0362130Y0029847D01*
X0362130Y0030447D01*
X0362280Y0030597D01*
X0362581Y0030597D01*
X0362731Y0030447D01*
X0362731Y0029847D01*
X0363051Y0029696D02*
X0363652Y0029696D01*
X0363351Y0029696D02*
X0363351Y0030597D01*
X0363652Y0030297D01*
X0359968Y0030147D02*
X0359668Y0030147D01*
X0359968Y0061193D02*
X0359968Y0062093D01*
X0359368Y0062093D01*
X0359668Y0061643D02*
X0359968Y0061643D01*
X0360289Y0061643D02*
X0360289Y0061193D01*
X0360289Y0061643D02*
X0360439Y0061793D01*
X0360889Y0061793D01*
X0360889Y0061193D01*
X0361210Y0061343D02*
X0361360Y0061193D01*
X0361660Y0061193D01*
X0361810Y0061343D01*
X0361210Y0061943D01*
X0361210Y0061343D01*
X0361810Y0061343D02*
X0361810Y0061943D01*
X0361660Y0062093D01*
X0361360Y0062093D01*
X0361210Y0061943D01*
X0362130Y0061943D02*
X0362731Y0061343D01*
X0362581Y0061193D01*
X0362280Y0061193D01*
X0362130Y0061343D01*
X0362130Y0061943D01*
X0362280Y0062093D01*
X0362581Y0062093D01*
X0362731Y0061943D01*
X0362731Y0061343D01*
X0363051Y0061193D02*
X0363652Y0061193D01*
X0363351Y0061193D02*
X0363351Y0062093D01*
X0363652Y0061793D01*
X0363652Y0092689D02*
X0363051Y0092689D01*
X0363351Y0092689D02*
X0363351Y0093589D01*
X0363652Y0093289D01*
X0362731Y0093439D02*
X0362581Y0093589D01*
X0362280Y0093589D01*
X0362130Y0093439D01*
X0362731Y0092839D01*
X0362581Y0092689D01*
X0362280Y0092689D01*
X0362130Y0092839D01*
X0362130Y0093439D01*
X0361810Y0093439D02*
X0361660Y0093589D01*
X0361360Y0093589D01*
X0361210Y0093439D01*
X0361810Y0092839D01*
X0361660Y0092689D01*
X0361360Y0092689D01*
X0361210Y0092839D01*
X0361210Y0093439D01*
X0360889Y0093289D02*
X0360439Y0093289D01*
X0360289Y0093139D01*
X0360289Y0092689D01*
X0359968Y0092689D02*
X0359968Y0093589D01*
X0359368Y0093589D01*
X0359668Y0093139D02*
X0359968Y0093139D01*
X0360889Y0093289D02*
X0360889Y0092689D01*
X0361810Y0092839D02*
X0361810Y0093439D01*
X0362731Y0093439D02*
X0362731Y0092839D01*
X0362581Y0124185D02*
X0362731Y0124335D01*
X0362130Y0124935D01*
X0362130Y0124335D01*
X0362280Y0124185D01*
X0362581Y0124185D01*
X0362731Y0124335D02*
X0362731Y0124935D01*
X0362581Y0125085D01*
X0362280Y0125085D01*
X0362130Y0124935D01*
X0361810Y0124935D02*
X0361660Y0125085D01*
X0361360Y0125085D01*
X0361210Y0124935D01*
X0361810Y0124335D01*
X0361660Y0124185D01*
X0361360Y0124185D01*
X0361210Y0124335D01*
X0361210Y0124935D01*
X0360889Y0124785D02*
X0360439Y0124785D01*
X0360289Y0124635D01*
X0360289Y0124185D01*
X0359968Y0124185D02*
X0359968Y0125085D01*
X0359368Y0125085D01*
X0359668Y0124635D02*
X0359968Y0124635D01*
X0360889Y0124785D02*
X0360889Y0124185D01*
X0361810Y0124335D02*
X0361810Y0124935D01*
X0363051Y0124185D02*
X0363652Y0124185D01*
X0363351Y0124185D02*
X0363351Y0125085D01*
X0363652Y0124785D01*
X0363652Y0155681D02*
X0363051Y0155681D01*
X0363351Y0155681D02*
X0363351Y0156581D01*
X0363652Y0156281D01*
X0362731Y0156431D02*
X0362581Y0156581D01*
X0362280Y0156581D01*
X0362130Y0156431D01*
X0362731Y0155831D01*
X0362581Y0155681D01*
X0362280Y0155681D01*
X0362130Y0155831D01*
X0362130Y0156431D01*
X0361810Y0156431D02*
X0361660Y0156581D01*
X0361360Y0156581D01*
X0361210Y0156431D01*
X0361810Y0155831D01*
X0361660Y0155681D01*
X0361360Y0155681D01*
X0361210Y0155831D01*
X0361210Y0156431D01*
X0360889Y0156281D02*
X0360439Y0156281D01*
X0360289Y0156131D01*
X0360289Y0155681D01*
X0359968Y0155681D02*
X0359968Y0156581D01*
X0359368Y0156581D01*
X0359668Y0156131D02*
X0359968Y0156131D01*
X0360889Y0156281D02*
X0360889Y0155681D01*
X0361810Y0155831D02*
X0361810Y0156431D01*
X0362731Y0156431D02*
X0362731Y0155831D01*
X0362581Y0187177D02*
X0362731Y0187327D01*
X0362130Y0187927D01*
X0362130Y0187327D01*
X0362280Y0187177D01*
X0362581Y0187177D01*
X0362731Y0187327D02*
X0362731Y0187927D01*
X0362581Y0188078D01*
X0362280Y0188078D01*
X0362130Y0187927D01*
X0361810Y0187927D02*
X0361660Y0188078D01*
X0361360Y0188078D01*
X0361210Y0187927D01*
X0361810Y0187327D01*
X0361660Y0187177D01*
X0361360Y0187177D01*
X0361210Y0187327D01*
X0361210Y0187927D01*
X0360889Y0187777D02*
X0360439Y0187777D01*
X0360289Y0187627D01*
X0360289Y0187177D01*
X0359968Y0187177D02*
X0359968Y0188078D01*
X0359368Y0188078D01*
X0359668Y0187627D02*
X0359968Y0187627D01*
X0360889Y0187777D02*
X0360889Y0187177D01*
X0361810Y0187327D02*
X0361810Y0187927D01*
X0363051Y0187177D02*
X0363652Y0187177D01*
X0363351Y0187177D02*
X0363351Y0188078D01*
X0363652Y0187777D01*
X0363652Y0218673D02*
X0363051Y0218673D01*
X0363351Y0218673D02*
X0363351Y0219574D01*
X0363652Y0219273D01*
X0362731Y0219423D02*
X0362581Y0219574D01*
X0362280Y0219574D01*
X0362130Y0219423D01*
X0362731Y0218823D01*
X0362581Y0218673D01*
X0362280Y0218673D01*
X0362130Y0218823D01*
X0362130Y0219423D01*
X0361810Y0219423D02*
X0361660Y0219574D01*
X0361360Y0219574D01*
X0361210Y0219423D01*
X0361810Y0218823D01*
X0361660Y0218673D01*
X0361360Y0218673D01*
X0361210Y0218823D01*
X0361210Y0219423D01*
X0360889Y0219273D02*
X0360439Y0219273D01*
X0360289Y0219123D01*
X0360289Y0218673D01*
X0359968Y0218673D02*
X0359968Y0219574D01*
X0359368Y0219574D01*
X0359668Y0219123D02*
X0359968Y0219123D01*
X0360889Y0219273D02*
X0360889Y0218673D01*
X0361810Y0218823D02*
X0361810Y0219423D01*
X0362731Y0219423D02*
X0362731Y0218823D01*
X0362581Y0250169D02*
X0362731Y0250319D01*
X0362130Y0250920D01*
X0362130Y0250319D01*
X0362280Y0250169D01*
X0362581Y0250169D01*
X0362731Y0250319D02*
X0362731Y0250920D01*
X0362581Y0251070D01*
X0362280Y0251070D01*
X0362130Y0250920D01*
X0361810Y0250920D02*
X0361660Y0251070D01*
X0361360Y0251070D01*
X0361210Y0250920D01*
X0361810Y0250319D01*
X0361660Y0250169D01*
X0361360Y0250169D01*
X0361210Y0250319D01*
X0361210Y0250920D01*
X0360889Y0250769D02*
X0360439Y0250769D01*
X0360289Y0250619D01*
X0360289Y0250169D01*
X0359968Y0250169D02*
X0359968Y0251070D01*
X0359368Y0251070D01*
X0359668Y0250619D02*
X0359968Y0250619D01*
X0360889Y0250769D02*
X0360889Y0250169D01*
X0361810Y0250319D02*
X0361810Y0250920D01*
X0363051Y0250169D02*
X0363652Y0250169D01*
X0363351Y0250169D02*
X0363351Y0251070D01*
X0363652Y0250769D01*
X0363652Y0281665D02*
X0363051Y0281665D01*
X0363351Y0281665D02*
X0363351Y0282566D01*
X0363652Y0282265D01*
X0362731Y0282416D02*
X0362581Y0282566D01*
X0362280Y0282566D01*
X0362130Y0282416D01*
X0362731Y0281815D01*
X0362581Y0281665D01*
X0362280Y0281665D01*
X0362130Y0281815D01*
X0362130Y0282416D01*
X0361810Y0282416D02*
X0361660Y0282566D01*
X0361360Y0282566D01*
X0361210Y0282416D01*
X0361810Y0281815D01*
X0361660Y0281665D01*
X0361360Y0281665D01*
X0361210Y0281815D01*
X0361210Y0282416D01*
X0360889Y0282265D02*
X0360439Y0282265D01*
X0360289Y0282115D01*
X0360289Y0281665D01*
X0359968Y0281665D02*
X0359968Y0282566D01*
X0359368Y0282566D01*
X0359668Y0282115D02*
X0359968Y0282115D01*
X0360889Y0282265D02*
X0360889Y0281665D01*
X0361810Y0281815D02*
X0361810Y0282416D01*
X0362731Y0282416D02*
X0362731Y0281815D01*
X0362581Y0313161D02*
X0362731Y0313311D01*
X0362130Y0313912D01*
X0362130Y0313311D01*
X0362280Y0313161D01*
X0362581Y0313161D01*
X0362731Y0313311D02*
X0362731Y0313912D01*
X0362581Y0314062D01*
X0362280Y0314062D01*
X0362130Y0313912D01*
X0361810Y0313912D02*
X0361660Y0314062D01*
X0361360Y0314062D01*
X0361210Y0313912D01*
X0361810Y0313311D01*
X0361660Y0313161D01*
X0361360Y0313161D01*
X0361210Y0313311D01*
X0361210Y0313912D01*
X0360889Y0313762D02*
X0360439Y0313762D01*
X0360289Y0313611D01*
X0360289Y0313161D01*
X0359968Y0313161D02*
X0359968Y0314062D01*
X0359368Y0314062D01*
X0359668Y0313611D02*
X0359968Y0313611D01*
X0360889Y0313762D02*
X0360889Y0313161D01*
X0361810Y0313311D02*
X0361810Y0313912D01*
X0363051Y0313161D02*
X0363652Y0313161D01*
X0363351Y0313161D02*
X0363351Y0314062D01*
X0363652Y0313762D01*
X0363652Y0344657D02*
X0363051Y0344657D01*
X0363351Y0344657D02*
X0363351Y0345558D01*
X0363652Y0345258D01*
X0362731Y0345408D02*
X0362581Y0345558D01*
X0362280Y0345558D01*
X0362130Y0345408D01*
X0362731Y0344807D01*
X0362581Y0344657D01*
X0362280Y0344657D01*
X0362130Y0344807D01*
X0362130Y0345408D01*
X0361810Y0345408D02*
X0361660Y0345558D01*
X0361360Y0345558D01*
X0361210Y0345408D01*
X0361810Y0344807D01*
X0361660Y0344657D01*
X0361360Y0344657D01*
X0361210Y0344807D01*
X0361210Y0345408D01*
X0360889Y0345258D02*
X0360439Y0345258D01*
X0360289Y0345107D01*
X0360289Y0344657D01*
X0359968Y0344657D02*
X0359968Y0345558D01*
X0359368Y0345558D01*
X0359668Y0345107D02*
X0359968Y0345107D01*
X0360889Y0345258D02*
X0360889Y0344657D01*
X0361810Y0344807D02*
X0361810Y0345408D01*
X0362731Y0345408D02*
X0362731Y0344807D01*
X0362581Y0376153D02*
X0362731Y0376303D01*
X0362130Y0376904D01*
X0362130Y0376303D01*
X0362280Y0376153D01*
X0362581Y0376153D01*
X0362731Y0376303D02*
X0362731Y0376904D01*
X0362581Y0377054D01*
X0362280Y0377054D01*
X0362130Y0376904D01*
X0361810Y0376904D02*
X0361660Y0377054D01*
X0361360Y0377054D01*
X0361210Y0376904D01*
X0361810Y0376303D01*
X0361660Y0376153D01*
X0361360Y0376153D01*
X0361210Y0376303D01*
X0361210Y0376904D01*
X0360889Y0376754D02*
X0360439Y0376754D01*
X0360289Y0376604D01*
X0360289Y0376153D01*
X0359968Y0376153D02*
X0359968Y0377054D01*
X0359368Y0377054D01*
X0359668Y0376604D02*
X0359968Y0376604D01*
X0360889Y0376754D02*
X0360889Y0376153D01*
X0361810Y0376303D02*
X0361810Y0376904D01*
X0363051Y0376153D02*
X0363652Y0376153D01*
X0363351Y0376153D02*
X0363351Y0377054D01*
X0363652Y0376754D01*
M02*
