%
M48
M72
T01C0.0138
T02C0.0177
%
T01
X3791Y2847
X3791Y5996
X3791Y9146
X3791Y12295
X3791Y15445
X3791Y18595
X3791Y21744
X3791Y24894
X3791Y28043
X3791Y31193
X3791Y34343
X3791Y37492
X7728Y37492
X7728Y34343
X7728Y31193
X7728Y28043
X7728Y24894
X7728Y21744
X7728Y18595
X7728Y15445
X7728Y12295
X7728Y9146
X7728Y5996
X7728Y2847
X11665Y2847
X11665Y5996
X11665Y9146
X11665Y12295
X11665Y15445
X11665Y18595
X11665Y21744
X11665Y24894
X11665Y28043
X11665Y31193
X11665Y34343
X11665Y37492
X15602Y37492
X15602Y34343
X15602Y31193
X15602Y28043
X15602Y24894
X15602Y21744
X15602Y18595
X15602Y15445
X15602Y12295
X15602Y9146
X15602Y5996
X15602Y2847
X19933Y2847
X19933Y5996
X19933Y9146
X19933Y12295
X19933Y15445
X19933Y18595
X19933Y21744
X19933Y24894
X19933Y28043
X19933Y31193
X19933Y34343
X19933Y37492
X24264Y37492
X24264Y34343
X24264Y31193
X24264Y28043
X24264Y24894
X24264Y21744
X24264Y18595
X24264Y15445
X24264Y12295
X24264Y9146
X24264Y5996
X24264Y2847
X28201Y2847
X28201Y5996
X28201Y9146
X28201Y12295
X28201Y15445
X28201Y18595
X28201Y21744
X28201Y24894
X28201Y28043
X28201Y31193
X28201Y34343
X28201Y37492
X32532Y37492
X32532Y34343
X32532Y31193
X32532Y28043
X32532Y24894
X32532Y21744
X32532Y18595
X32532Y15445
X32532Y12295
X32532Y9146
X32532Y5996
X32532Y2847
X36862Y2847
X36862Y5996
X36862Y9146
X36862Y12295
X36862Y15445
X36862Y18595
X36862Y21744
X36862Y24894
X36862Y28043
X36862Y31193
X36862Y34343
X36862Y37492
T02
X2413Y2408
X2217Y2847
X2425Y3291
X3772Y3291
X3776Y2410
X6154Y2847
X6350Y2408
X6362Y3291
X7709Y3291
X7713Y2410
X10091Y2847
X10287Y2408
X10299Y3291
X11646Y3291
X11650Y2410
X14028Y2847
X14224Y2408
X14236Y3291
X15583Y3291
X15587Y2410
X18358Y2847
X18555Y2408
X18567Y3291
X19913Y3291
X19917Y2410
X22689Y2847
X22886Y2408
X22898Y3291
X24244Y3291
X24248Y2410
X26626Y2847
X26823Y2408
X26835Y3291
X28181Y3291
X28185Y2410
X30957Y2847
X31154Y2408
X31165Y3291
X32512Y3291
X32516Y2410
X35287Y2847
X35484Y2408
X35496Y3291
X36843Y3291
X36847Y2410
X36847Y5559
X36843Y6441
X35496Y6441
X35287Y5996
X35484Y5557
X32516Y5559
X32512Y6441
X31165Y6441
X30957Y5996
X31154Y5557
X28185Y5559
X28181Y6441
X26835Y6441
X26626Y5996
X26823Y5557
X24248Y5559
X24244Y6441
X22898Y6441
X22689Y5996
X22886Y5557
X19917Y5559
X19913Y6441
X18567Y6441
X18358Y5996
X18555Y5557
X15587Y5559
X15583Y6441
X14236Y6441
X14028Y5996
X14224Y5557
X11650Y5559
X11646Y6441
X10299Y6441
X10091Y5996
X10287Y5557
X7713Y5559
X7709Y6441
X6362Y6441
X6154Y5996
X6350Y5557
X3776Y5559
X3772Y6441
X2425Y6441
X2217Y5996
X2413Y5557
X2413Y8707
X2217Y9146
X2425Y9591
X3772Y9591
X3776Y8709
X6154Y9146
X6362Y9591
X6350Y8707
X7713Y8709
X7709Y9591
X7713Y11858
X7709Y12740
X6362Y12740
X6154Y12295
X6350Y11856
X3776Y11858
X3772Y12740
X2425Y12740
X2217Y12295
X2413Y11856
X2413Y15006
X2217Y15445
X2425Y15890
X3772Y15890
X3776Y15008
X6154Y15445
X6350Y15006
X6362Y15890
X7709Y15890
X7713Y15008
X10091Y15445
X10287Y15006
X10299Y15890
X11646Y15890
X11650Y15008
X11646Y12740
X11650Y11858
X10287Y11856
X10091Y12295
X10299Y12740
X10299Y9591
X10091Y9146
X10287Y8707
X11650Y8709
X11646Y9591
X14028Y9146
X14236Y9591
X14224Y8707
X15587Y8709
X15583Y9591
X15587Y11858
X15583Y12740
X14236Y12740
X14028Y12295
X14224Y11856
X14224Y15006
X14028Y15445
X14236Y15890
X15583Y15890
X15587Y15008
X18358Y15445
X18555Y15006
X18567Y15890
X19913Y15890
X19917Y15008
X19913Y12740
X19917Y11858
X18555Y11856
X18358Y12295
X18567Y12740
X18567Y9591
X18358Y9146
X18555Y8707
X19917Y8709
X19913Y9591
X22689Y9146
X22898Y9591
X22886Y8707
X24248Y8709
X24244Y9591
X24248Y11858
X24244Y12740
X22898Y12740
X22689Y12295
X22886Y11856
X22886Y15006
X22689Y15445
X22898Y15890
X24244Y15890
X24248Y15008
X26626Y15445
X26823Y15006
X26835Y15890
X28181Y15890
X28185Y15008
X28181Y12740
X28185Y11858
X26823Y11856
X26626Y12295
X26835Y12740
X26835Y9591
X26626Y9146
X26823Y8707
X28185Y8709
X28181Y9591
X30957Y9146
X31165Y9591
X31154Y8707
X32516Y8709
X32512Y9591
X32516Y11858
X32512Y12740
X31165Y12740
X30957Y12295
X31154Y11856
X31154Y15006
X30957Y15445
X31165Y15890
X32512Y15890
X32516Y15008
X35287Y15445
X35484Y15006
X35496Y15890
X36843Y15890
X36847Y15008
X36843Y12740
X36847Y11858
X35484Y11856
X35287Y12295
X35496Y12740
X35496Y9591
X35287Y9146
X35484Y8707
X36847Y8709
X36843Y9591
X36847Y18158
X36843Y19039
X35496Y19039
X35287Y18595
X35484Y18156
X32516Y18158
X32512Y19039
X31165Y19039
X30957Y18595
X31154Y18156
X28185Y18158
X28181Y19039
X26835Y19039
X26626Y18595
X26823Y18156
X24248Y18158
X24244Y19039
X22898Y19039
X22689Y18595
X22886Y18156
X19917Y18158
X19913Y19039
X18567Y19039
X18358Y18595
X18555Y18156
X15587Y18158
X15583Y19039
X14236Y19039
X14028Y18595
X14224Y18156
X11650Y18158
X11646Y19039
X10299Y19039
X10091Y18595
X10287Y18156
X7713Y18158
X7709Y19039
X6362Y19039
X6154Y18595
X6350Y18156
X3776Y18158
X3772Y19039
X2425Y19039
X2217Y18595
X2413Y18156
X2413Y21305
X2217Y21744
X2425Y22189
X3772Y22189
X3776Y21307
X6154Y21744
X6350Y21305
X6362Y22189
X7709Y22189
X7713Y21307
X10091Y21744
X10287Y21305
X10299Y22189
X11646Y22189
X11650Y21307
X14028Y21744
X14224Y21305
X14236Y22189
X15583Y22189
X15587Y21307
X18358Y21744
X18555Y21305
X18567Y22189
X19913Y22189
X19917Y21307
X22689Y21744
X22886Y21305
X22898Y22189
X24244Y22189
X24248Y21307
X26626Y21744
X26823Y21305
X26835Y22189
X28181Y22189
X28185Y21307
X30957Y21744
X31154Y21305
X31165Y22189
X32512Y22189
X32516Y21307
X35287Y21744
X35484Y21305
X35496Y22189
X36843Y22189
X36847Y21307
X36847Y24457
X36843Y25339
X35496Y25339
X35287Y24894
X35484Y24455
X32516Y24457
X32512Y25339
X31165Y25339
X30957Y24894
X31154Y24455
X28185Y24457
X28181Y25339
X26835Y25339
X26626Y24894
X26823Y24455
X24248Y24457
X24244Y25339
X22898Y25339
X22689Y24894
X22886Y24455
X19917Y24457
X19913Y25339
X18567Y25339
X18358Y24894
X18555Y24455
X15587Y24457
X15583Y25339
X14236Y25339
X14028Y24894
X14224Y24455
X11650Y24457
X11646Y25339
X10299Y25339
X10091Y24894
X10287Y24455
X7713Y24457
X7709Y25339
X6362Y25339
X6154Y24894
X6350Y24455
X3776Y24457
X3772Y25339
X2425Y25339
X2217Y24894
X2413Y24455
X2413Y27604
X2217Y28043
X2425Y28488
X3772Y28488
X3776Y27606
X6154Y28043
X6350Y27604
X6362Y28488
X7709Y28488
X7713Y27606
X10091Y28043
X10287Y27604
X10299Y28488
X11646Y28488
X11650Y27606
X14028Y28043
X14224Y27604
X14236Y28488
X15583Y28488
X15587Y27606
X18358Y28043
X18555Y27604
X18567Y28488
X19913Y28488
X19917Y27606
X22689Y28043
X22886Y27604
X22898Y28488
X24244Y28488
X24248Y27606
X26626Y28043
X26823Y27604
X26835Y28488
X28181Y28488
X28185Y27606
X30957Y28043
X31154Y27604
X31165Y28488
X32512Y28488
X32516Y27606
X35287Y28043
X35484Y27604
X35496Y28488
X36843Y28488
X36847Y27606
X36847Y30756
X36843Y31638
X35496Y31638
X35287Y31193
X35484Y30754
X32516Y30756
X32512Y31638
X31165Y31638
X30957Y31193
X31154Y30754
X28185Y30756
X28181Y31638
X26835Y31638
X26626Y31193
X26823Y30754
X24248Y30756
X24244Y31638
X22898Y31638
X22689Y31193
X22886Y30754
X19917Y30756
X19913Y31638
X18567Y31638
X18358Y31193
X18555Y30754
X15587Y30756
X15583Y31638
X14236Y31638
X14028Y31193
X14224Y30754
X11650Y30756
X11646Y31638
X10299Y31638
X10091Y31193
X10287Y30754
X7713Y30756
X7709Y31638
X6362Y31638
X6154Y31193
X6350Y30754
X3776Y30756
X3772Y31638
X2425Y31638
X2217Y31193
X2413Y30754
X2413Y33904
X2217Y34343
X2425Y34787
X3772Y34787
X3776Y33906
X6154Y34343
X6350Y33904
X6362Y34787
X7709Y34787
X7713Y33906
X10091Y34343
X10287Y33904
X10299Y34787
X11646Y34787
X11650Y33906
X14028Y34343
X14224Y33904
X14236Y34787
X15583Y34787
X15587Y33906
X18358Y34343
X18555Y33904
X18567Y34787
X19913Y34787
X19917Y33906
X22689Y34343
X22886Y33904
X22898Y34787
X24244Y34787
X24248Y33906
X26626Y34343
X26823Y33904
X26835Y34787
X28181Y34787
X28185Y33906
X30957Y34343
X31154Y33904
X31165Y34787
X32512Y34787
X32516Y33906
X35287Y34343
X35484Y33904
X35496Y34787
X36843Y34787
X36847Y33906
X36847Y37055
X36843Y37937
X35496Y37937
X35287Y37492
X35484Y37053
X32516Y37055
X32512Y37937
X31165Y37937
X30957Y37492
X31154Y37053
X28185Y37055
X28181Y37937
X26835Y37937
X26626Y37492
X26823Y37053
X24248Y37055
X24244Y37937
X22898Y37937
X22689Y37492
X22886Y37053
X19917Y37055
X19913Y37937
X18567Y37937
X18358Y37492
X18555Y37053
X15587Y37055
X15583Y37937
X14236Y37937
X14028Y37492
X14224Y37053
X11650Y37055
X11646Y37937
X10299Y37937
X10091Y37492
X10287Y37053
X7713Y37055
X7709Y37937
X6362Y37937
X6154Y37492
X6350Y37053
X3776Y37055
X3772Y37937
X2425Y37937
X2217Y37492
X2413Y37053
M30
