%
M48
M72
T01C0.0177
%
T01
X1482Y1504
X1482Y2035
X2941Y2045
X2939Y1483
X5482Y1504
X5482Y2035
X6941Y2045
X6939Y1483
X9482Y1504
X9482Y2035
X10941Y2045
X10939Y1483
X13482Y1504
X13482Y2035
X14941Y2045
X14939Y1483
X14939Y4483
X14941Y5045
X13482Y5035
X13482Y4504
X10939Y4483
X10941Y5045
X9482Y5035
X9482Y4504
X6939Y4483
X6941Y5045
X5482Y5035
X5482Y4504
X2939Y4483
X2941Y5045
X1482Y5035
X1482Y4504
X1482Y7504
X1482Y8035
X2941Y8045
X2939Y7483
X5482Y7504
X5482Y8035
X6941Y8045
X6939Y7483
X9482Y7504
X9482Y8035
X10941Y8045
X10939Y7483
X13482Y7504
X13482Y8035
X14941Y8045
X14939Y7483
X14939Y10483
X14941Y11045
X13482Y11035
X13482Y10504
X10939Y10483
X10941Y11045
X9482Y11035
X9482Y10504
X6939Y10483
X6941Y11045
X5482Y11035
X5482Y10504
X2939Y10483
X2941Y11045
X1482Y11035
X1482Y10504
M30
