G75*
%MOIN*%
%OFA0B0*%
%FSLAX25Y25*%
%IPPOS*%
%LPD*%
%AMOC8*
5,1,8,0,0,1.08239X$1,22.5*
%
%ADD10C,0.04572*%
%ADD11R,0.01784X0.01883*%
%ADD12R,0.01883X0.01784*%
%ADD13C,0.03778*%
D10*
X0024135Y0024076D03*
X0022166Y0028465D03*
X0024253Y0032914D03*
X0037717Y0032914D03*
X0037757Y0024095D03*
X0061536Y0028465D03*
X0063505Y0024076D03*
X0063623Y0032914D03*
X0077087Y0032914D03*
X0077127Y0024095D03*
X0100906Y0028465D03*
X0102875Y0024076D03*
X0102993Y0032914D03*
X0116457Y0032914D03*
X0116497Y0024095D03*
X0140276Y0028465D03*
X0142245Y0024076D03*
X0142363Y0032914D03*
X0155828Y0032914D03*
X0155867Y0024095D03*
X0183583Y0028465D03*
X0185552Y0024076D03*
X0185670Y0032914D03*
X0199135Y0032914D03*
X0199174Y0024095D03*
X0226891Y0028465D03*
X0228859Y0024076D03*
X0228977Y0032914D03*
X0242442Y0032914D03*
X0242481Y0024095D03*
X0266261Y0028465D03*
X0268229Y0024076D03*
X0268347Y0032914D03*
X0281812Y0032914D03*
X0281851Y0024095D03*
X0309568Y0028465D03*
X0311536Y0024076D03*
X0311654Y0032914D03*
X0325119Y0032914D03*
X0325158Y0024095D03*
X0352875Y0028465D03*
X0354843Y0024076D03*
X0354961Y0032914D03*
X0368426Y0032914D03*
X0368465Y0024095D03*
X0368465Y0055591D03*
X0368426Y0064410D03*
X0354961Y0064410D03*
X0352875Y0059961D03*
X0354843Y0055572D03*
X0325158Y0055591D03*
X0325119Y0064410D03*
X0311654Y0064410D03*
X0309568Y0059961D03*
X0311536Y0055572D03*
X0281851Y0055591D03*
X0281812Y0064410D03*
X0268347Y0064410D03*
X0266261Y0059961D03*
X0268229Y0055572D03*
X0242481Y0055591D03*
X0242442Y0064410D03*
X0228977Y0064410D03*
X0226891Y0059961D03*
X0228859Y0055572D03*
X0199174Y0055591D03*
X0199135Y0064410D03*
X0185670Y0064410D03*
X0183583Y0059961D03*
X0185552Y0055572D03*
X0155867Y0055591D03*
X0155828Y0064410D03*
X0142363Y0064410D03*
X0140276Y0059961D03*
X0142245Y0055572D03*
X0116497Y0055591D03*
X0116457Y0064410D03*
X0102993Y0064410D03*
X0100906Y0059961D03*
X0102875Y0055572D03*
X0077127Y0055591D03*
X0077087Y0064410D03*
X0063623Y0064410D03*
X0061536Y0059961D03*
X0063505Y0055572D03*
X0037757Y0055591D03*
X0037717Y0064410D03*
X0024253Y0064410D03*
X0022166Y0059961D03*
X0024135Y0055572D03*
X0024135Y0087068D03*
X0022166Y0091457D03*
X0024253Y0095906D03*
X0037717Y0095906D03*
X0037757Y0087087D03*
X0061536Y0091457D03*
X0063623Y0095906D03*
X0063505Y0087068D03*
X0077127Y0087087D03*
X0077087Y0095906D03*
X0077127Y0118583D03*
X0077087Y0127402D03*
X0063623Y0127402D03*
X0061536Y0122954D03*
X0063505Y0118564D03*
X0037757Y0118583D03*
X0037717Y0127402D03*
X0024253Y0127402D03*
X0022166Y0122954D03*
X0024135Y0118564D03*
X0024135Y0150060D03*
X0022166Y0154450D03*
X0024253Y0158898D03*
X0037717Y0158898D03*
X0037757Y0150080D03*
X0061536Y0154450D03*
X0063505Y0150060D03*
X0063623Y0158898D03*
X0077087Y0158898D03*
X0077127Y0150080D03*
X0100906Y0154450D03*
X0102875Y0150060D03*
X0102993Y0158898D03*
X0116457Y0158898D03*
X0116497Y0150080D03*
X0116457Y0127402D03*
X0116497Y0118583D03*
X0102875Y0118564D03*
X0100906Y0122954D03*
X0102993Y0127402D03*
X0102993Y0095906D03*
X0100906Y0091457D03*
X0102875Y0087068D03*
X0116497Y0087087D03*
X0116457Y0095906D03*
X0140276Y0091457D03*
X0142363Y0095906D03*
X0142245Y0087068D03*
X0155867Y0087087D03*
X0155828Y0095906D03*
X0155867Y0118583D03*
X0155828Y0127402D03*
X0142363Y0127402D03*
X0140276Y0122954D03*
X0142245Y0118564D03*
X0142245Y0150060D03*
X0140276Y0154450D03*
X0142363Y0158898D03*
X0155828Y0158898D03*
X0155867Y0150080D03*
X0183583Y0154450D03*
X0185552Y0150060D03*
X0185670Y0158898D03*
X0199135Y0158898D03*
X0199174Y0150080D03*
X0199135Y0127402D03*
X0199174Y0118583D03*
X0185552Y0118564D03*
X0183583Y0122954D03*
X0185670Y0127402D03*
X0185670Y0095906D03*
X0183583Y0091457D03*
X0185552Y0087068D03*
X0199174Y0087087D03*
X0199135Y0095906D03*
X0226891Y0091457D03*
X0228977Y0095906D03*
X0228859Y0087068D03*
X0242481Y0087087D03*
X0242442Y0095906D03*
X0242481Y0118583D03*
X0242442Y0127402D03*
X0228977Y0127402D03*
X0226891Y0122954D03*
X0228859Y0118564D03*
X0228859Y0150060D03*
X0226891Y0154450D03*
X0228977Y0158898D03*
X0242442Y0158898D03*
X0242481Y0150080D03*
X0266261Y0154450D03*
X0268229Y0150060D03*
X0268347Y0158898D03*
X0281812Y0158898D03*
X0281851Y0150080D03*
X0281812Y0127402D03*
X0281851Y0118583D03*
X0268229Y0118564D03*
X0266261Y0122954D03*
X0268347Y0127402D03*
X0268347Y0095906D03*
X0266261Y0091457D03*
X0268229Y0087068D03*
X0281851Y0087087D03*
X0281812Y0095906D03*
X0309568Y0091457D03*
X0311654Y0095906D03*
X0311536Y0087068D03*
X0325158Y0087087D03*
X0325119Y0095906D03*
X0325158Y0118583D03*
X0325119Y0127402D03*
X0311654Y0127402D03*
X0309568Y0122954D03*
X0311536Y0118564D03*
X0311536Y0150060D03*
X0309568Y0154450D03*
X0311654Y0158898D03*
X0325119Y0158898D03*
X0325158Y0150080D03*
X0352875Y0154450D03*
X0354843Y0150060D03*
X0354961Y0158898D03*
X0368426Y0158898D03*
X0368465Y0150080D03*
X0368426Y0127402D03*
X0368465Y0118583D03*
X0354843Y0118564D03*
X0352875Y0122954D03*
X0354961Y0127402D03*
X0354961Y0095906D03*
X0352875Y0091457D03*
X0354843Y0087068D03*
X0368465Y0087087D03*
X0368426Y0095906D03*
X0368465Y0181576D03*
X0368426Y0190394D03*
X0354961Y0190394D03*
X0352875Y0185946D03*
X0354843Y0181556D03*
X0325158Y0181576D03*
X0325119Y0190394D03*
X0311654Y0190394D03*
X0309568Y0185946D03*
X0311536Y0181556D03*
X0281851Y0181576D03*
X0281812Y0190394D03*
X0268347Y0190394D03*
X0266261Y0185946D03*
X0268229Y0181556D03*
X0242481Y0181576D03*
X0242442Y0190394D03*
X0228977Y0190394D03*
X0226891Y0185946D03*
X0228859Y0181556D03*
X0199174Y0181576D03*
X0199135Y0190394D03*
X0185670Y0190394D03*
X0183583Y0185946D03*
X0185552Y0181556D03*
X0155867Y0181576D03*
X0155828Y0190394D03*
X0142363Y0190394D03*
X0140276Y0185946D03*
X0142245Y0181556D03*
X0116497Y0181576D03*
X0116457Y0190394D03*
X0102993Y0190394D03*
X0100906Y0185946D03*
X0102875Y0181556D03*
X0077127Y0181576D03*
X0077087Y0190394D03*
X0063623Y0190394D03*
X0061536Y0185946D03*
X0063505Y0181556D03*
X0037757Y0181576D03*
X0037717Y0190394D03*
X0024253Y0190394D03*
X0022166Y0185946D03*
X0024135Y0181556D03*
X0024135Y0213052D03*
X0022166Y0217442D03*
X0024253Y0221891D03*
X0037717Y0221891D03*
X0037757Y0213072D03*
X0061536Y0217442D03*
X0063505Y0213052D03*
X0063623Y0221891D03*
X0077087Y0221891D03*
X0077127Y0213072D03*
X0100906Y0217442D03*
X0102875Y0213052D03*
X0102993Y0221891D03*
X0116457Y0221891D03*
X0116497Y0213072D03*
X0140276Y0217442D03*
X0142245Y0213052D03*
X0142363Y0221891D03*
X0155828Y0221891D03*
X0155867Y0213072D03*
X0183583Y0217442D03*
X0185552Y0213052D03*
X0185670Y0221891D03*
X0199135Y0221891D03*
X0199174Y0213072D03*
X0226891Y0217442D03*
X0228859Y0213052D03*
X0228977Y0221891D03*
X0242442Y0221891D03*
X0242481Y0213072D03*
X0266261Y0217442D03*
X0268229Y0213052D03*
X0268347Y0221891D03*
X0281812Y0221891D03*
X0281851Y0213072D03*
X0309568Y0217442D03*
X0311536Y0213052D03*
X0311654Y0221891D03*
X0325119Y0221891D03*
X0325158Y0213072D03*
X0352875Y0217442D03*
X0354843Y0213052D03*
X0354961Y0221891D03*
X0368426Y0221891D03*
X0368465Y0213072D03*
X0368465Y0244568D03*
X0368426Y0253387D03*
X0354961Y0253387D03*
X0352875Y0248938D03*
X0354843Y0244548D03*
X0325158Y0244568D03*
X0325119Y0253387D03*
X0311654Y0253387D03*
X0309568Y0248938D03*
X0311536Y0244548D03*
X0281851Y0244568D03*
X0281812Y0253387D03*
X0268347Y0253387D03*
X0266261Y0248938D03*
X0268229Y0244548D03*
X0242481Y0244568D03*
X0242442Y0253387D03*
X0228977Y0253387D03*
X0226891Y0248938D03*
X0228859Y0244548D03*
X0199174Y0244568D03*
X0199135Y0253387D03*
X0185670Y0253387D03*
X0183583Y0248938D03*
X0185552Y0244548D03*
X0155867Y0244568D03*
X0155828Y0253387D03*
X0142363Y0253387D03*
X0140276Y0248938D03*
X0142245Y0244548D03*
X0116497Y0244568D03*
X0116457Y0253387D03*
X0102993Y0253387D03*
X0100906Y0248938D03*
X0102875Y0244548D03*
X0077127Y0244568D03*
X0077087Y0253387D03*
X0063623Y0253387D03*
X0061536Y0248938D03*
X0063505Y0244548D03*
X0037757Y0244568D03*
X0037717Y0253387D03*
X0024253Y0253387D03*
X0022166Y0248938D03*
X0024135Y0244548D03*
X0024135Y0276044D03*
X0022166Y0280434D03*
X0024253Y0284883D03*
X0037717Y0284883D03*
X0037757Y0276064D03*
X0061536Y0280434D03*
X0063505Y0276044D03*
X0063623Y0284883D03*
X0077087Y0284883D03*
X0077127Y0276064D03*
X0100906Y0280434D03*
X0102875Y0276044D03*
X0102993Y0284883D03*
X0116457Y0284883D03*
X0116497Y0276064D03*
X0140276Y0280434D03*
X0142245Y0276044D03*
X0142363Y0284883D03*
X0155828Y0284883D03*
X0155867Y0276064D03*
X0183583Y0280434D03*
X0185552Y0276044D03*
X0185670Y0284883D03*
X0199135Y0284883D03*
X0199174Y0276064D03*
X0226891Y0280434D03*
X0228859Y0276044D03*
X0228977Y0284883D03*
X0242442Y0284883D03*
X0242481Y0276064D03*
X0266261Y0280434D03*
X0268229Y0276044D03*
X0268347Y0284883D03*
X0281812Y0284883D03*
X0281851Y0276064D03*
X0309568Y0280434D03*
X0311536Y0276044D03*
X0311654Y0284883D03*
X0325119Y0284883D03*
X0325158Y0276064D03*
X0352875Y0280434D03*
X0354843Y0276044D03*
X0354961Y0284883D03*
X0368426Y0284883D03*
X0368465Y0276064D03*
X0368465Y0307560D03*
X0368426Y0316379D03*
X0354961Y0316379D03*
X0352875Y0311930D03*
X0354843Y0307540D03*
X0325158Y0307560D03*
X0325119Y0316379D03*
X0311654Y0316379D03*
X0309568Y0311930D03*
X0311536Y0307540D03*
X0281851Y0307560D03*
X0281812Y0316379D03*
X0268347Y0316379D03*
X0266261Y0311930D03*
X0268229Y0307540D03*
X0242481Y0307560D03*
X0242442Y0316379D03*
X0228977Y0316379D03*
X0226891Y0311930D03*
X0228859Y0307540D03*
X0199174Y0307560D03*
X0199135Y0316379D03*
X0185670Y0316379D03*
X0183583Y0311930D03*
X0185552Y0307540D03*
X0155867Y0307560D03*
X0155828Y0316379D03*
X0142363Y0316379D03*
X0140276Y0311930D03*
X0142245Y0307540D03*
X0116497Y0307560D03*
X0116457Y0316379D03*
X0102993Y0316379D03*
X0100906Y0311930D03*
X0102875Y0307540D03*
X0077127Y0307560D03*
X0077087Y0316379D03*
X0063623Y0316379D03*
X0061536Y0311930D03*
X0063505Y0307540D03*
X0037757Y0307560D03*
X0037717Y0316379D03*
X0024253Y0316379D03*
X0022166Y0311930D03*
X0024135Y0307540D03*
X0024135Y0339036D03*
X0022166Y0343426D03*
X0024253Y0347875D03*
X0037717Y0347875D03*
X0037757Y0339056D03*
X0061536Y0343426D03*
X0063505Y0339036D03*
X0063623Y0347875D03*
X0077087Y0347875D03*
X0077127Y0339056D03*
X0100906Y0343426D03*
X0102875Y0339036D03*
X0102993Y0347875D03*
X0116457Y0347875D03*
X0116497Y0339056D03*
X0140276Y0343426D03*
X0142245Y0339036D03*
X0142363Y0347875D03*
X0155828Y0347875D03*
X0155867Y0339056D03*
X0183583Y0343426D03*
X0185552Y0339036D03*
X0185670Y0347875D03*
X0199135Y0347875D03*
X0199174Y0339056D03*
X0226891Y0343426D03*
X0228859Y0339036D03*
X0228977Y0347875D03*
X0242442Y0347875D03*
X0242481Y0339056D03*
X0266261Y0343426D03*
X0268229Y0339036D03*
X0268347Y0347875D03*
X0281812Y0347875D03*
X0281851Y0339056D03*
X0309568Y0343426D03*
X0311536Y0339036D03*
X0311654Y0347875D03*
X0325119Y0347875D03*
X0325158Y0339056D03*
X0352875Y0343426D03*
X0354843Y0339036D03*
X0354961Y0347875D03*
X0368426Y0347875D03*
X0368465Y0339056D03*
X0368465Y0370552D03*
X0368426Y0379371D03*
X0354961Y0379371D03*
X0352875Y0374922D03*
X0354843Y0370532D03*
X0325158Y0370552D03*
X0325119Y0379371D03*
X0311654Y0379371D03*
X0309568Y0374922D03*
X0311536Y0370532D03*
X0281851Y0370552D03*
X0281812Y0379371D03*
X0268347Y0379371D03*
X0266261Y0374922D03*
X0268229Y0370532D03*
X0242481Y0370552D03*
X0242442Y0379371D03*
X0228977Y0379371D03*
X0226891Y0374922D03*
X0228859Y0370532D03*
X0199174Y0370552D03*
X0199135Y0379371D03*
X0185670Y0379371D03*
X0183583Y0374922D03*
X0185552Y0370532D03*
X0155867Y0370552D03*
X0155828Y0379371D03*
X0142363Y0379371D03*
X0140276Y0374922D03*
X0142245Y0370532D03*
X0116497Y0370552D03*
X0116457Y0379371D03*
X0102993Y0379371D03*
X0100906Y0374922D03*
X0102875Y0370532D03*
X0077127Y0370552D03*
X0077087Y0379371D03*
X0063623Y0379371D03*
X0061536Y0374922D03*
X0063505Y0370532D03*
X0037757Y0370552D03*
X0037717Y0379371D03*
X0024253Y0379371D03*
X0022166Y0374922D03*
X0024135Y0370532D03*
D11*
X0029843Y0371920D03*
X0031812Y0371920D03*
X0031812Y0377924D03*
X0029843Y0377924D03*
X0029843Y0346428D03*
X0031812Y0346428D03*
X0031812Y0340424D03*
X0029843Y0340424D03*
X0029843Y0314932D03*
X0031812Y0314932D03*
X0031812Y0308928D03*
X0029843Y0308928D03*
X0029843Y0283436D03*
X0031812Y0283436D03*
X0031812Y0277432D03*
X0029843Y0277432D03*
X0029843Y0251940D03*
X0031812Y0251940D03*
X0031812Y0245936D03*
X0029843Y0245936D03*
X0029843Y0220444D03*
X0031812Y0220444D03*
X0031812Y0214440D03*
X0029843Y0214440D03*
X0029843Y0188948D03*
X0031812Y0188948D03*
X0031812Y0182944D03*
X0029843Y0182944D03*
X0029843Y0157452D03*
X0031812Y0157452D03*
X0031812Y0151448D03*
X0029843Y0151448D03*
X0029843Y0125956D03*
X0031812Y0125956D03*
X0031812Y0119952D03*
X0029843Y0119952D03*
X0029843Y0094459D03*
X0031812Y0094459D03*
X0031812Y0088456D03*
X0029843Y0088456D03*
X0029843Y0062963D03*
X0031812Y0062963D03*
X0031812Y0056959D03*
X0029843Y0056959D03*
X0029843Y0031467D03*
X0031812Y0031467D03*
X0031812Y0025463D03*
X0029843Y0025463D03*
X0069213Y0025463D03*
X0071182Y0025463D03*
X0071182Y0031467D03*
X0069213Y0031467D03*
X0069213Y0056959D03*
X0071182Y0056959D03*
X0071182Y0062963D03*
X0069213Y0062963D03*
X0069213Y0088456D03*
X0071182Y0088456D03*
X0071182Y0094459D03*
X0069213Y0094459D03*
X0069213Y0119952D03*
X0071182Y0119952D03*
X0071182Y0125956D03*
X0069213Y0125956D03*
X0069213Y0151448D03*
X0071182Y0151448D03*
X0071182Y0157452D03*
X0069213Y0157452D03*
X0069213Y0182944D03*
X0071182Y0182944D03*
X0071182Y0188948D03*
X0069213Y0188948D03*
X0069213Y0214440D03*
X0071182Y0214440D03*
X0071182Y0220444D03*
X0069213Y0220444D03*
X0069213Y0245936D03*
X0071182Y0245936D03*
X0071182Y0251940D03*
X0069213Y0251940D03*
X0069213Y0277432D03*
X0071182Y0277432D03*
X0071182Y0283436D03*
X0069213Y0283436D03*
X0069213Y0308928D03*
X0071182Y0308928D03*
X0071182Y0314932D03*
X0069213Y0314932D03*
X0069213Y0340424D03*
X0071182Y0340424D03*
X0071182Y0346428D03*
X0069213Y0346428D03*
X0069213Y0371920D03*
X0071182Y0371920D03*
X0071182Y0377924D03*
X0069213Y0377924D03*
X0108583Y0377924D03*
X0110552Y0377924D03*
X0110552Y0371920D03*
X0108583Y0371920D03*
X0108583Y0346428D03*
X0110552Y0346428D03*
X0110552Y0340424D03*
X0108583Y0340424D03*
X0108583Y0314932D03*
X0110552Y0314932D03*
X0110552Y0308928D03*
X0108583Y0308928D03*
X0108583Y0283436D03*
X0110552Y0283436D03*
X0110552Y0277432D03*
X0108583Y0277432D03*
X0108583Y0251940D03*
X0110552Y0251940D03*
X0110552Y0245936D03*
X0108583Y0245936D03*
X0108583Y0220444D03*
X0110552Y0220444D03*
X0110552Y0214440D03*
X0108583Y0214440D03*
X0108583Y0188948D03*
X0110552Y0188948D03*
X0110552Y0182944D03*
X0108583Y0182944D03*
X0108583Y0157452D03*
X0110552Y0157452D03*
X0110552Y0151448D03*
X0108583Y0151448D03*
X0108583Y0125956D03*
X0110552Y0125956D03*
X0110552Y0119952D03*
X0108583Y0119952D03*
X0108583Y0094459D03*
X0110552Y0094459D03*
X0110552Y0088456D03*
X0108583Y0088456D03*
X0108583Y0062963D03*
X0110552Y0062963D03*
X0110552Y0056959D03*
X0108583Y0056959D03*
X0108583Y0031467D03*
X0110552Y0031467D03*
X0110552Y0025463D03*
X0108583Y0025463D03*
X0147954Y0025463D03*
X0149922Y0025463D03*
X0149922Y0031467D03*
X0147954Y0031467D03*
X0147954Y0056959D03*
X0149922Y0056959D03*
X0149922Y0062963D03*
X0147954Y0062963D03*
X0147954Y0088456D03*
X0149922Y0088456D03*
X0149922Y0094459D03*
X0147954Y0094459D03*
X0147954Y0119952D03*
X0149922Y0119952D03*
X0149922Y0125956D03*
X0147954Y0125956D03*
X0147954Y0151448D03*
X0149922Y0151448D03*
X0149922Y0157452D03*
X0147954Y0157452D03*
X0147954Y0182944D03*
X0149922Y0182944D03*
X0149922Y0188948D03*
X0147954Y0188948D03*
X0147954Y0214440D03*
X0149922Y0214440D03*
X0149922Y0220444D03*
X0147954Y0220444D03*
X0147954Y0245936D03*
X0149922Y0245936D03*
X0149922Y0251940D03*
X0147954Y0251940D03*
X0147954Y0277432D03*
X0149922Y0277432D03*
X0149922Y0283436D03*
X0147954Y0283436D03*
X0147954Y0308928D03*
X0149922Y0308928D03*
X0149922Y0314932D03*
X0147954Y0314932D03*
X0147954Y0340424D03*
X0149922Y0340424D03*
X0149922Y0346428D03*
X0147954Y0346428D03*
X0147954Y0371920D03*
X0149922Y0371920D03*
X0149922Y0377924D03*
X0147954Y0377924D03*
X0191261Y0377924D03*
X0193229Y0377924D03*
X0193229Y0371920D03*
X0191261Y0371920D03*
X0191261Y0346428D03*
X0193229Y0346428D03*
X0193229Y0340424D03*
X0191261Y0340424D03*
X0191261Y0314932D03*
X0193229Y0314932D03*
X0193229Y0308928D03*
X0191261Y0308928D03*
X0191261Y0283436D03*
X0193229Y0283436D03*
X0193229Y0277432D03*
X0191261Y0277432D03*
X0191261Y0251940D03*
X0193229Y0251940D03*
X0193229Y0245936D03*
X0191261Y0245936D03*
X0191261Y0220444D03*
X0193229Y0220444D03*
X0193229Y0214440D03*
X0191261Y0214440D03*
X0191261Y0188948D03*
X0193229Y0188948D03*
X0193229Y0182944D03*
X0191261Y0182944D03*
X0191261Y0157452D03*
X0193229Y0157452D03*
X0193229Y0151448D03*
X0191261Y0151448D03*
X0191261Y0125956D03*
X0193229Y0125956D03*
X0193229Y0119952D03*
X0191261Y0119952D03*
X0191261Y0094459D03*
X0193229Y0094459D03*
X0193229Y0088456D03*
X0191261Y0088456D03*
X0191261Y0062963D03*
X0193229Y0062963D03*
X0193229Y0056959D03*
X0191261Y0056959D03*
X0191261Y0031467D03*
X0193229Y0031467D03*
X0193229Y0025463D03*
X0191261Y0025463D03*
X0234568Y0025463D03*
X0236536Y0025463D03*
X0236536Y0031467D03*
X0234568Y0031467D03*
X0234568Y0056959D03*
X0236536Y0056959D03*
X0236536Y0062963D03*
X0234568Y0062963D03*
X0234568Y0088456D03*
X0236536Y0088456D03*
X0236536Y0094459D03*
X0234568Y0094459D03*
X0234568Y0119952D03*
X0236536Y0119952D03*
X0236536Y0125956D03*
X0234568Y0125956D03*
X0234568Y0151448D03*
X0236536Y0151448D03*
X0236536Y0157452D03*
X0234568Y0157452D03*
X0234568Y0182944D03*
X0236536Y0182944D03*
X0236536Y0188948D03*
X0234568Y0188948D03*
X0234568Y0214440D03*
X0236536Y0214440D03*
X0236536Y0220444D03*
X0234568Y0220444D03*
X0234568Y0245936D03*
X0236536Y0245936D03*
X0236536Y0251940D03*
X0234568Y0251940D03*
X0234568Y0277432D03*
X0236536Y0277432D03*
X0236536Y0283436D03*
X0234568Y0283436D03*
X0234568Y0308928D03*
X0236536Y0308928D03*
X0236536Y0314932D03*
X0234568Y0314932D03*
X0234568Y0340424D03*
X0236536Y0340424D03*
X0236536Y0346428D03*
X0234568Y0346428D03*
X0234568Y0371920D03*
X0236536Y0371920D03*
X0236536Y0377924D03*
X0234568Y0377924D03*
X0273938Y0377924D03*
X0275906Y0377924D03*
X0275906Y0371920D03*
X0273938Y0371920D03*
X0273938Y0346428D03*
X0275906Y0346428D03*
X0275906Y0340424D03*
X0273938Y0340424D03*
X0273938Y0314932D03*
X0275906Y0314932D03*
X0275906Y0308928D03*
X0273938Y0308928D03*
X0273938Y0283436D03*
X0275906Y0283436D03*
X0275906Y0277432D03*
X0273938Y0277432D03*
X0273938Y0251940D03*
X0275906Y0251940D03*
X0275906Y0245936D03*
X0273938Y0245936D03*
X0273938Y0220444D03*
X0275906Y0220444D03*
X0275906Y0214440D03*
X0273938Y0214440D03*
X0273938Y0188948D03*
X0275906Y0188948D03*
X0275906Y0182944D03*
X0273938Y0182944D03*
X0273938Y0157452D03*
X0275906Y0157452D03*
X0275906Y0151448D03*
X0273938Y0151448D03*
X0273938Y0125956D03*
X0275906Y0125956D03*
X0275906Y0119952D03*
X0273938Y0119952D03*
X0273938Y0094459D03*
X0275906Y0094459D03*
X0275906Y0088456D03*
X0273938Y0088456D03*
X0273938Y0062963D03*
X0275906Y0062963D03*
X0275906Y0056959D03*
X0273938Y0056959D03*
X0273938Y0031467D03*
X0275906Y0031467D03*
X0275906Y0025463D03*
X0273938Y0025463D03*
X0317245Y0025463D03*
X0319213Y0025463D03*
X0319213Y0031467D03*
X0317245Y0031467D03*
X0317245Y0056959D03*
X0319213Y0056959D03*
X0319213Y0062963D03*
X0317245Y0062963D03*
X0317245Y0088456D03*
X0319213Y0088456D03*
X0319213Y0094459D03*
X0317245Y0094459D03*
X0317245Y0119952D03*
X0319213Y0119952D03*
X0319213Y0125956D03*
X0317245Y0125956D03*
X0317245Y0151448D03*
X0319213Y0151448D03*
X0319213Y0157452D03*
X0317245Y0157452D03*
X0317245Y0182944D03*
X0319213Y0182944D03*
X0319213Y0188948D03*
X0317245Y0188948D03*
X0317245Y0214440D03*
X0319213Y0214440D03*
X0319213Y0220444D03*
X0317245Y0220444D03*
X0317245Y0245936D03*
X0319213Y0245936D03*
X0319213Y0251940D03*
X0317245Y0251940D03*
X0317245Y0277432D03*
X0319213Y0277432D03*
X0319213Y0283436D03*
X0317245Y0283436D03*
X0317245Y0308928D03*
X0319213Y0308928D03*
X0319213Y0314932D03*
X0317245Y0314932D03*
X0317245Y0340424D03*
X0319213Y0340424D03*
X0319213Y0346428D03*
X0317245Y0346428D03*
X0317245Y0371920D03*
X0319213Y0371920D03*
X0319213Y0377924D03*
X0317245Y0377924D03*
X0360552Y0377924D03*
X0362520Y0377924D03*
X0362520Y0371920D03*
X0360552Y0371920D03*
X0360552Y0346428D03*
X0362520Y0346428D03*
X0362520Y0340424D03*
X0360552Y0340424D03*
X0360552Y0314932D03*
X0362520Y0314932D03*
X0362520Y0308928D03*
X0360552Y0308928D03*
X0360552Y0283436D03*
X0362520Y0283436D03*
X0362520Y0277432D03*
X0360552Y0277432D03*
X0360552Y0251940D03*
X0362520Y0251940D03*
X0362520Y0245936D03*
X0360552Y0245936D03*
X0360552Y0220444D03*
X0362520Y0220444D03*
X0362520Y0214440D03*
X0360552Y0214440D03*
X0360552Y0188948D03*
X0362520Y0188948D03*
X0362520Y0182944D03*
X0360552Y0182944D03*
X0360552Y0157452D03*
X0362520Y0157452D03*
X0362520Y0151448D03*
X0360552Y0151448D03*
X0360552Y0125956D03*
X0362520Y0125956D03*
X0362520Y0119952D03*
X0360552Y0119952D03*
X0360552Y0094459D03*
X0362520Y0094459D03*
X0362520Y0088456D03*
X0360552Y0088456D03*
X0360552Y0062963D03*
X0362520Y0062963D03*
X0362520Y0056959D03*
X0360552Y0056959D03*
X0360552Y0031467D03*
X0362520Y0031467D03*
X0362520Y0025463D03*
X0360552Y0025463D03*
D12*
X0358534Y0026497D03*
X0358534Y0028465D03*
X0358534Y0030434D03*
X0364538Y0030434D03*
X0364538Y0028465D03*
X0364538Y0026497D03*
X0364538Y0057993D03*
X0364538Y0059961D03*
X0364538Y0061930D03*
X0358534Y0061930D03*
X0358534Y0059961D03*
X0358534Y0057993D03*
X0358534Y0089489D03*
X0358534Y0091457D03*
X0358534Y0093426D03*
X0364538Y0093426D03*
X0364538Y0091457D03*
X0364538Y0089489D03*
X0364538Y0120985D03*
X0364538Y0122954D03*
X0364538Y0124922D03*
X0358534Y0124922D03*
X0358534Y0122954D03*
X0358534Y0120985D03*
X0358534Y0152481D03*
X0358534Y0154450D03*
X0358534Y0156418D03*
X0364538Y0156418D03*
X0364538Y0154450D03*
X0364538Y0152481D03*
X0364538Y0183977D03*
X0364538Y0185946D03*
X0364538Y0187914D03*
X0358534Y0187914D03*
X0358534Y0185946D03*
X0358534Y0183977D03*
X0358534Y0215473D03*
X0358534Y0217442D03*
X0358534Y0219410D03*
X0364538Y0219410D03*
X0364538Y0217442D03*
X0364538Y0215473D03*
X0364538Y0246969D03*
X0364538Y0248938D03*
X0364538Y0250906D03*
X0358534Y0250906D03*
X0358534Y0248938D03*
X0358534Y0246969D03*
X0358534Y0278465D03*
X0358534Y0280434D03*
X0358534Y0282402D03*
X0364538Y0282402D03*
X0364538Y0280434D03*
X0364538Y0278465D03*
X0364538Y0309961D03*
X0364538Y0311930D03*
X0364538Y0313898D03*
X0358534Y0313898D03*
X0358534Y0311930D03*
X0358534Y0309961D03*
X0358534Y0341457D03*
X0358534Y0343426D03*
X0358534Y0345394D03*
X0364538Y0345394D03*
X0364538Y0343426D03*
X0364538Y0341457D03*
X0364538Y0372954D03*
X0364538Y0374922D03*
X0364538Y0376891D03*
X0358534Y0376891D03*
X0358534Y0374922D03*
X0358534Y0372954D03*
X0321231Y0372954D03*
X0321231Y0374922D03*
X0321231Y0376891D03*
X0315227Y0376891D03*
X0315227Y0374922D03*
X0315227Y0372954D03*
X0315227Y0345394D03*
X0315227Y0343426D03*
X0315227Y0341457D03*
X0321231Y0341457D03*
X0321231Y0343426D03*
X0321231Y0345394D03*
X0321231Y0313898D03*
X0321231Y0311930D03*
X0321231Y0309961D03*
X0315227Y0309961D03*
X0315227Y0311930D03*
X0315227Y0313898D03*
X0315227Y0282402D03*
X0315227Y0280434D03*
X0315227Y0278465D03*
X0321231Y0278465D03*
X0321231Y0280434D03*
X0321231Y0282402D03*
X0321231Y0250906D03*
X0321231Y0248938D03*
X0321231Y0246969D03*
X0315227Y0246969D03*
X0315227Y0248938D03*
X0315227Y0250906D03*
X0315227Y0219410D03*
X0315227Y0217442D03*
X0315227Y0215473D03*
X0321231Y0215473D03*
X0321231Y0217442D03*
X0321231Y0219410D03*
X0321231Y0187914D03*
X0321231Y0185946D03*
X0321231Y0183977D03*
X0315227Y0183977D03*
X0315227Y0185946D03*
X0315227Y0187914D03*
X0315227Y0156418D03*
X0315227Y0154450D03*
X0315227Y0152481D03*
X0321231Y0152481D03*
X0321231Y0154450D03*
X0321231Y0156418D03*
X0321231Y0124922D03*
X0321231Y0122954D03*
X0321231Y0120985D03*
X0315227Y0120985D03*
X0315227Y0122954D03*
X0315227Y0124922D03*
X0315227Y0093426D03*
X0315227Y0091457D03*
X0315227Y0089489D03*
X0321231Y0089489D03*
X0321231Y0091457D03*
X0321231Y0093426D03*
X0321231Y0061930D03*
X0321231Y0059961D03*
X0321231Y0057993D03*
X0315227Y0057993D03*
X0315227Y0059961D03*
X0315227Y0061930D03*
X0315227Y0030434D03*
X0315227Y0028465D03*
X0315227Y0026497D03*
X0321231Y0026497D03*
X0321231Y0028465D03*
X0321231Y0030434D03*
X0277924Y0030434D03*
X0277924Y0028465D03*
X0277924Y0026497D03*
X0271920Y0026497D03*
X0271920Y0028465D03*
X0271920Y0030434D03*
X0271920Y0057993D03*
X0271920Y0059961D03*
X0271920Y0061930D03*
X0277924Y0061930D03*
X0277924Y0059961D03*
X0277924Y0057993D03*
X0277924Y0089489D03*
X0277924Y0091457D03*
X0277924Y0093426D03*
X0271920Y0093426D03*
X0271920Y0091457D03*
X0271920Y0089489D03*
X0271920Y0120985D03*
X0271920Y0122954D03*
X0271920Y0124922D03*
X0277924Y0124922D03*
X0277924Y0122954D03*
X0277924Y0120985D03*
X0277924Y0152481D03*
X0277924Y0154450D03*
X0277924Y0156418D03*
X0271920Y0156418D03*
X0271920Y0154450D03*
X0271920Y0152481D03*
X0271920Y0183977D03*
X0271920Y0185946D03*
X0271920Y0187914D03*
X0277924Y0187914D03*
X0277924Y0185946D03*
X0277924Y0183977D03*
X0277924Y0215473D03*
X0277924Y0217442D03*
X0277924Y0219410D03*
X0271920Y0219410D03*
X0271920Y0217442D03*
X0271920Y0215473D03*
X0271920Y0246969D03*
X0271920Y0248938D03*
X0271920Y0250906D03*
X0277924Y0250906D03*
X0277924Y0248938D03*
X0277924Y0246969D03*
X0277924Y0278465D03*
X0277924Y0280434D03*
X0277924Y0282402D03*
X0271920Y0282402D03*
X0271920Y0280434D03*
X0271920Y0278465D03*
X0271920Y0309961D03*
X0271920Y0311930D03*
X0271920Y0313898D03*
X0277924Y0313898D03*
X0277924Y0311930D03*
X0277924Y0309961D03*
X0277924Y0341457D03*
X0277924Y0343426D03*
X0277924Y0345394D03*
X0271920Y0345394D03*
X0271920Y0343426D03*
X0271920Y0341457D03*
X0271920Y0372954D03*
X0271920Y0374922D03*
X0271920Y0376891D03*
X0277924Y0376891D03*
X0277924Y0374922D03*
X0277924Y0372954D03*
X0238554Y0372954D03*
X0238554Y0374922D03*
X0238554Y0376891D03*
X0232550Y0376891D03*
X0232550Y0374922D03*
X0232550Y0372954D03*
X0232550Y0345394D03*
X0232550Y0343426D03*
X0232550Y0341457D03*
X0238554Y0341457D03*
X0238554Y0343426D03*
X0238554Y0345394D03*
X0238554Y0313898D03*
X0238554Y0311930D03*
X0238554Y0309961D03*
X0232550Y0309961D03*
X0232550Y0311930D03*
X0232550Y0313898D03*
X0232550Y0282402D03*
X0232550Y0280434D03*
X0232550Y0278465D03*
X0238554Y0278465D03*
X0238554Y0280434D03*
X0238554Y0282402D03*
X0238554Y0250906D03*
X0238554Y0248938D03*
X0238554Y0246969D03*
X0232550Y0246969D03*
X0232550Y0248938D03*
X0232550Y0250906D03*
X0232550Y0219410D03*
X0232550Y0217442D03*
X0232550Y0215473D03*
X0238554Y0215473D03*
X0238554Y0217442D03*
X0238554Y0219410D03*
X0238554Y0187914D03*
X0238554Y0185946D03*
X0238554Y0183977D03*
X0232550Y0183977D03*
X0232550Y0185946D03*
X0232550Y0187914D03*
X0232550Y0156418D03*
X0232550Y0154450D03*
X0232550Y0152481D03*
X0238554Y0152481D03*
X0238554Y0154450D03*
X0238554Y0156418D03*
X0238554Y0124922D03*
X0238554Y0122954D03*
X0238554Y0120985D03*
X0232550Y0120985D03*
X0232550Y0122954D03*
X0232550Y0124922D03*
X0232550Y0093426D03*
X0232550Y0091457D03*
X0232550Y0089489D03*
X0238554Y0089489D03*
X0238554Y0091457D03*
X0238554Y0093426D03*
X0238554Y0061930D03*
X0238554Y0059961D03*
X0238554Y0057993D03*
X0232550Y0057993D03*
X0232550Y0059961D03*
X0232550Y0061930D03*
X0232550Y0030434D03*
X0232550Y0028465D03*
X0232550Y0026497D03*
X0238554Y0026497D03*
X0238554Y0028465D03*
X0238554Y0030434D03*
X0195247Y0030434D03*
X0195247Y0028465D03*
X0195247Y0026497D03*
X0189243Y0026497D03*
X0189243Y0028465D03*
X0189243Y0030434D03*
X0189243Y0057993D03*
X0189243Y0059961D03*
X0189243Y0061930D03*
X0195247Y0061930D03*
X0195247Y0059961D03*
X0195247Y0057993D03*
X0195247Y0089489D03*
X0195247Y0091457D03*
X0195247Y0093426D03*
X0189243Y0093426D03*
X0189243Y0091457D03*
X0189243Y0089489D03*
X0189243Y0120985D03*
X0189243Y0122954D03*
X0189243Y0124922D03*
X0195247Y0124922D03*
X0195247Y0122954D03*
X0195247Y0120985D03*
X0195247Y0152481D03*
X0195247Y0154450D03*
X0195247Y0156418D03*
X0189243Y0156418D03*
X0189243Y0154450D03*
X0189243Y0152481D03*
X0189243Y0183977D03*
X0189243Y0185946D03*
X0189243Y0187914D03*
X0195247Y0187914D03*
X0195247Y0185946D03*
X0195247Y0183977D03*
X0195247Y0215473D03*
X0195247Y0217442D03*
X0195247Y0219410D03*
X0189243Y0219410D03*
X0189243Y0217442D03*
X0189243Y0215473D03*
X0189243Y0246969D03*
X0189243Y0248938D03*
X0189243Y0250906D03*
X0195247Y0250906D03*
X0195247Y0248938D03*
X0195247Y0246969D03*
X0195247Y0278465D03*
X0195247Y0280434D03*
X0195247Y0282402D03*
X0189243Y0282402D03*
X0189243Y0280434D03*
X0189243Y0278465D03*
X0189243Y0309961D03*
X0189243Y0311930D03*
X0189243Y0313898D03*
X0195247Y0313898D03*
X0195247Y0311930D03*
X0195247Y0309961D03*
X0195247Y0341457D03*
X0195247Y0343426D03*
X0195247Y0345394D03*
X0189243Y0345394D03*
X0189243Y0343426D03*
X0189243Y0341457D03*
X0189243Y0372954D03*
X0189243Y0374922D03*
X0189243Y0376891D03*
X0195247Y0376891D03*
X0195247Y0374922D03*
X0195247Y0372954D03*
X0151940Y0372954D03*
X0151940Y0374922D03*
X0151940Y0376891D03*
X0145936Y0376891D03*
X0145936Y0374922D03*
X0145936Y0372954D03*
X0145936Y0345394D03*
X0145936Y0343426D03*
X0145936Y0341457D03*
X0151940Y0341457D03*
X0151940Y0343426D03*
X0151940Y0345394D03*
X0151940Y0313898D03*
X0151940Y0311930D03*
X0151940Y0309961D03*
X0145936Y0309961D03*
X0145936Y0311930D03*
X0145936Y0313898D03*
X0145936Y0282402D03*
X0145936Y0280434D03*
X0145936Y0278465D03*
X0151940Y0278465D03*
X0151940Y0280434D03*
X0151940Y0282402D03*
X0151940Y0250906D03*
X0151940Y0248938D03*
X0151940Y0246969D03*
X0145936Y0246969D03*
X0145936Y0248938D03*
X0145936Y0250906D03*
X0145936Y0219410D03*
X0145936Y0217442D03*
X0145936Y0215473D03*
X0151940Y0215473D03*
X0151940Y0217442D03*
X0151940Y0219410D03*
X0151940Y0187914D03*
X0151940Y0185946D03*
X0151940Y0183977D03*
X0145936Y0183977D03*
X0145936Y0185946D03*
X0145936Y0187914D03*
X0145936Y0156418D03*
X0145936Y0154450D03*
X0145936Y0152481D03*
X0151940Y0152481D03*
X0151940Y0154450D03*
X0151940Y0156418D03*
X0151940Y0124922D03*
X0151940Y0122954D03*
X0151940Y0120985D03*
X0145936Y0120985D03*
X0145936Y0122954D03*
X0145936Y0124922D03*
X0145936Y0093426D03*
X0145936Y0091457D03*
X0145936Y0089489D03*
X0151940Y0089489D03*
X0151940Y0091457D03*
X0151940Y0093426D03*
X0151940Y0061930D03*
X0151940Y0059961D03*
X0151940Y0057993D03*
X0145936Y0057993D03*
X0145936Y0059961D03*
X0145936Y0061930D03*
X0145936Y0030434D03*
X0145936Y0028465D03*
X0145936Y0026497D03*
X0151940Y0026497D03*
X0151940Y0028465D03*
X0151940Y0030434D03*
X0112570Y0030434D03*
X0112570Y0028465D03*
X0112570Y0026497D03*
X0106566Y0026497D03*
X0106566Y0028465D03*
X0106566Y0030434D03*
X0106566Y0057993D03*
X0106566Y0059961D03*
X0106566Y0061930D03*
X0112570Y0061930D03*
X0112570Y0059961D03*
X0112570Y0057993D03*
X0112570Y0089489D03*
X0112570Y0091457D03*
X0112570Y0093426D03*
X0106566Y0093426D03*
X0106566Y0091457D03*
X0106566Y0089489D03*
X0106566Y0120985D03*
X0106566Y0122954D03*
X0106566Y0124922D03*
X0112570Y0124922D03*
X0112570Y0122954D03*
X0112570Y0120985D03*
X0112570Y0152481D03*
X0112570Y0154450D03*
X0112570Y0156418D03*
X0106566Y0156418D03*
X0106566Y0154450D03*
X0106566Y0152481D03*
X0106566Y0183977D03*
X0106566Y0185946D03*
X0106566Y0187914D03*
X0112570Y0187914D03*
X0112570Y0185946D03*
X0112570Y0183977D03*
X0112570Y0215473D03*
X0112570Y0217442D03*
X0112570Y0219410D03*
X0106566Y0219410D03*
X0106566Y0217442D03*
X0106566Y0215473D03*
X0106566Y0246969D03*
X0106566Y0248938D03*
X0106566Y0250906D03*
X0112570Y0250906D03*
X0112570Y0248938D03*
X0112570Y0246969D03*
X0112570Y0278465D03*
X0112570Y0280434D03*
X0112570Y0282402D03*
X0106566Y0282402D03*
X0106566Y0280434D03*
X0106566Y0278465D03*
X0106566Y0309961D03*
X0106566Y0311930D03*
X0106566Y0313898D03*
X0112570Y0313898D03*
X0112570Y0311930D03*
X0112570Y0309961D03*
X0112570Y0341457D03*
X0112570Y0343426D03*
X0112570Y0345394D03*
X0106566Y0345394D03*
X0106566Y0343426D03*
X0106566Y0341457D03*
X0106566Y0372954D03*
X0106566Y0374922D03*
X0106566Y0376891D03*
X0112570Y0376891D03*
X0112570Y0374922D03*
X0112570Y0372954D03*
X0073200Y0372954D03*
X0073200Y0374922D03*
X0073200Y0376891D03*
X0067196Y0376891D03*
X0067196Y0374922D03*
X0067196Y0372954D03*
X0067196Y0345394D03*
X0067196Y0343426D03*
X0067196Y0341457D03*
X0073200Y0341457D03*
X0073200Y0343426D03*
X0073200Y0345394D03*
X0073200Y0313898D03*
X0073200Y0311930D03*
X0073200Y0309961D03*
X0067196Y0309961D03*
X0067196Y0311930D03*
X0067196Y0313898D03*
X0067196Y0282402D03*
X0067196Y0280434D03*
X0067196Y0278465D03*
X0073200Y0278465D03*
X0073200Y0280434D03*
X0073200Y0282402D03*
X0073200Y0250906D03*
X0073200Y0248938D03*
X0073200Y0246969D03*
X0067196Y0246969D03*
X0067196Y0248938D03*
X0067196Y0250906D03*
X0067196Y0219410D03*
X0067196Y0217442D03*
X0067196Y0215473D03*
X0073200Y0215473D03*
X0073200Y0217442D03*
X0073200Y0219410D03*
X0073200Y0187914D03*
X0073200Y0185946D03*
X0073200Y0183977D03*
X0067196Y0183977D03*
X0067196Y0185946D03*
X0067196Y0187914D03*
X0067196Y0156418D03*
X0067196Y0154450D03*
X0067196Y0152481D03*
X0073200Y0152481D03*
X0073200Y0154450D03*
X0073200Y0156418D03*
X0073200Y0124922D03*
X0073200Y0122954D03*
X0073200Y0120985D03*
X0067196Y0120985D03*
X0067196Y0122954D03*
X0067196Y0124922D03*
X0067196Y0093426D03*
X0067196Y0091457D03*
X0067196Y0089489D03*
X0073200Y0089489D03*
X0073200Y0091457D03*
X0073200Y0093426D03*
X0073200Y0061930D03*
X0073200Y0059961D03*
X0073200Y0057993D03*
X0067196Y0057993D03*
X0067196Y0059961D03*
X0067196Y0061930D03*
X0067196Y0030434D03*
X0067196Y0028465D03*
X0067196Y0026497D03*
X0073200Y0026497D03*
X0073200Y0028465D03*
X0073200Y0030434D03*
X0033830Y0030434D03*
X0033830Y0028465D03*
X0033830Y0026497D03*
X0027826Y0026497D03*
X0027826Y0028465D03*
X0027826Y0030434D03*
X0027826Y0057993D03*
X0027826Y0059961D03*
X0027826Y0061930D03*
X0033830Y0061930D03*
X0033830Y0059961D03*
X0033830Y0057993D03*
X0033830Y0089489D03*
X0033830Y0091457D03*
X0033830Y0093426D03*
X0027826Y0093426D03*
X0027826Y0091457D03*
X0027826Y0089489D03*
X0027826Y0120985D03*
X0027826Y0122954D03*
X0027826Y0124922D03*
X0033830Y0124922D03*
X0033830Y0122954D03*
X0033830Y0120985D03*
X0033830Y0152481D03*
X0033830Y0154450D03*
X0033830Y0156418D03*
X0027826Y0156418D03*
X0027826Y0154450D03*
X0027826Y0152481D03*
X0027826Y0183977D03*
X0027826Y0185946D03*
X0027826Y0187914D03*
X0033830Y0187914D03*
X0033830Y0185946D03*
X0033830Y0183977D03*
X0033830Y0215473D03*
X0033830Y0217442D03*
X0033830Y0219410D03*
X0027826Y0219410D03*
X0027826Y0217442D03*
X0027826Y0215473D03*
X0027826Y0246969D03*
X0027826Y0248938D03*
X0027826Y0250906D03*
X0033830Y0250906D03*
X0033830Y0248938D03*
X0033830Y0246969D03*
X0033830Y0278465D03*
X0033830Y0280434D03*
X0033830Y0282402D03*
X0027826Y0282402D03*
X0027826Y0280434D03*
X0027826Y0278465D03*
X0027826Y0309961D03*
X0027826Y0311930D03*
X0027826Y0313898D03*
X0033830Y0313898D03*
X0033830Y0311930D03*
X0033830Y0309961D03*
X0033830Y0341457D03*
X0033830Y0343426D03*
X0033830Y0345394D03*
X0027826Y0345394D03*
X0027826Y0343426D03*
X0027826Y0341457D03*
X0027826Y0372954D03*
X0027826Y0374922D03*
X0027826Y0376891D03*
X0033830Y0376891D03*
X0033830Y0374922D03*
X0033830Y0372954D03*
D13*
X0037914Y0374922D03*
X0037914Y0343426D03*
X0037914Y0311930D03*
X0037914Y0280434D03*
X0037914Y0248938D03*
X0037914Y0217442D03*
X0037914Y0185946D03*
X0037914Y0154450D03*
X0037914Y0122954D03*
X0037914Y0091457D03*
X0037914Y0059961D03*
X0037914Y0028465D03*
X0077284Y0028465D03*
X0077284Y0059961D03*
X0077284Y0091457D03*
X0077284Y0122954D03*
X0077284Y0154450D03*
X0077284Y0185946D03*
X0077284Y0217442D03*
X0077284Y0248938D03*
X0077284Y0280434D03*
X0077284Y0311930D03*
X0077284Y0343426D03*
X0077284Y0374922D03*
X0116654Y0374922D03*
X0116654Y0343426D03*
X0116654Y0311930D03*
X0116654Y0280434D03*
X0116654Y0248938D03*
X0116654Y0217442D03*
X0116654Y0185946D03*
X0116654Y0154450D03*
X0116654Y0122954D03*
X0116654Y0091457D03*
X0116654Y0059961D03*
X0116654Y0028465D03*
X0156024Y0028465D03*
X0156024Y0059961D03*
X0156024Y0091457D03*
X0156024Y0122954D03*
X0156024Y0154450D03*
X0156024Y0185946D03*
X0156024Y0217442D03*
X0156024Y0248938D03*
X0156024Y0280434D03*
X0156024Y0311930D03*
X0156024Y0343426D03*
X0156024Y0374922D03*
X0199331Y0374922D03*
X0199331Y0343426D03*
X0199331Y0311930D03*
X0199331Y0280434D03*
X0199331Y0248938D03*
X0199331Y0217442D03*
X0199331Y0185946D03*
X0199331Y0154450D03*
X0199331Y0122954D03*
X0199331Y0091457D03*
X0199331Y0059961D03*
X0199331Y0028465D03*
X0242639Y0028465D03*
X0242639Y0059961D03*
X0242639Y0091457D03*
X0242639Y0122954D03*
X0242639Y0154450D03*
X0242639Y0185946D03*
X0242639Y0217442D03*
X0242639Y0248938D03*
X0242639Y0280434D03*
X0242639Y0311930D03*
X0242639Y0343426D03*
X0242639Y0374922D03*
X0282009Y0374922D03*
X0282009Y0343426D03*
X0282009Y0311930D03*
X0282009Y0280434D03*
X0282009Y0248938D03*
X0282009Y0217442D03*
X0282009Y0185946D03*
X0282009Y0154450D03*
X0282009Y0122954D03*
X0282009Y0091457D03*
X0282009Y0059961D03*
X0282009Y0028465D03*
X0325316Y0028465D03*
X0325316Y0059961D03*
X0325316Y0091457D03*
X0325316Y0122954D03*
X0325316Y0154450D03*
X0325316Y0185946D03*
X0325316Y0217442D03*
X0325316Y0248938D03*
X0325316Y0280434D03*
X0325316Y0311930D03*
X0325316Y0343426D03*
X0325316Y0374922D03*
X0368623Y0374922D03*
X0368623Y0343426D03*
X0368623Y0311930D03*
X0368623Y0280434D03*
X0368623Y0248938D03*
X0368623Y0217442D03*
X0368623Y0185946D03*
X0368623Y0154450D03*
X0368623Y0122954D03*
X0368623Y0091457D03*
X0368623Y0059961D03*
X0368623Y0028465D03*
M02*
