G75*
%MOIN*%
%OFA0B0*%
%FSLAX25Y25*%
%IPPOS*%
%LPD*%
%AMOC8*
5,1,8,0,0,1.08239X$1,22.5*
%
%ADD10C,0.00600*%
%ADD11C,0.00591*%
%ADD12C,0.00500*%
%ADD13C,0.00300*%
%ADD14C,0.00100*%
%ADD15C,0.00004*%
D10*
X0040761Y0040761D02*
X0040761Y0053391D01*
X0063202Y0053391D01*
X0063202Y0040761D01*
X0040761Y0040761D01*
X0057530Y0041930D02*
X0057532Y0041965D01*
X0057538Y0042001D01*
X0057548Y0042035D01*
X0057561Y0042068D01*
X0057579Y0042099D01*
X0057599Y0042128D01*
X0057623Y0042154D01*
X0057649Y0042178D01*
X0057678Y0042198D01*
X0057709Y0042216D01*
X0057742Y0042229D01*
X0057776Y0042239D01*
X0057812Y0042245D01*
X0057847Y0042247D01*
X0057882Y0042245D01*
X0057918Y0042239D01*
X0057952Y0042229D01*
X0057985Y0042216D01*
X0058016Y0042198D01*
X0058045Y0042178D01*
X0058071Y0042154D01*
X0058095Y0042128D01*
X0058115Y0042099D01*
X0058133Y0042068D01*
X0058146Y0042035D01*
X0058156Y0042001D01*
X0058162Y0041965D01*
X0058164Y0041930D01*
X0058162Y0041895D01*
X0058156Y0041859D01*
X0058146Y0041825D01*
X0058133Y0041792D01*
X0058115Y0041761D01*
X0058095Y0041732D01*
X0058071Y0041706D01*
X0058045Y0041682D01*
X0058016Y0041662D01*
X0057985Y0041644D01*
X0057952Y0041631D01*
X0057918Y0041621D01*
X0057882Y0041615D01*
X0057847Y0041613D01*
X0057812Y0041615D01*
X0057776Y0041621D01*
X0057742Y0041631D01*
X0057709Y0041644D01*
X0057678Y0041662D01*
X0057649Y0041682D01*
X0057623Y0041706D01*
X0057599Y0041732D01*
X0057579Y0041761D01*
X0057561Y0041792D01*
X0057548Y0041825D01*
X0057538Y0041859D01*
X0057532Y0041895D01*
X0057530Y0041930D01*
X0103753Y0040761D02*
X0103753Y0053391D01*
X0126194Y0053391D01*
X0126194Y0040761D01*
X0103753Y0040761D01*
X0120522Y0041930D02*
X0120524Y0041965D01*
X0120530Y0042001D01*
X0120540Y0042035D01*
X0120553Y0042068D01*
X0120571Y0042099D01*
X0120591Y0042128D01*
X0120615Y0042154D01*
X0120641Y0042178D01*
X0120670Y0042198D01*
X0120701Y0042216D01*
X0120734Y0042229D01*
X0120768Y0042239D01*
X0120804Y0042245D01*
X0120839Y0042247D01*
X0120874Y0042245D01*
X0120910Y0042239D01*
X0120944Y0042229D01*
X0120977Y0042216D01*
X0121008Y0042198D01*
X0121037Y0042178D01*
X0121063Y0042154D01*
X0121087Y0042128D01*
X0121107Y0042099D01*
X0121125Y0042068D01*
X0121138Y0042035D01*
X0121148Y0042001D01*
X0121154Y0041965D01*
X0121156Y0041930D01*
X0121154Y0041895D01*
X0121148Y0041859D01*
X0121138Y0041825D01*
X0121125Y0041792D01*
X0121107Y0041761D01*
X0121087Y0041732D01*
X0121063Y0041706D01*
X0121037Y0041682D01*
X0121008Y0041662D01*
X0120977Y0041644D01*
X0120944Y0041631D01*
X0120910Y0041621D01*
X0120874Y0041615D01*
X0120839Y0041613D01*
X0120804Y0041615D01*
X0120768Y0041621D01*
X0120734Y0041631D01*
X0120701Y0041644D01*
X0120670Y0041662D01*
X0120641Y0041682D01*
X0120615Y0041706D01*
X0120591Y0041732D01*
X0120571Y0041761D01*
X0120553Y0041792D01*
X0120540Y0041825D01*
X0120530Y0041859D01*
X0120524Y0041895D01*
X0120522Y0041930D01*
X0170682Y0040761D02*
X0170682Y0053391D01*
X0193123Y0053391D01*
X0193123Y0040761D01*
X0170682Y0040761D01*
X0187452Y0041930D02*
X0187454Y0041965D01*
X0187460Y0042001D01*
X0187470Y0042035D01*
X0187483Y0042068D01*
X0187501Y0042099D01*
X0187521Y0042128D01*
X0187545Y0042154D01*
X0187571Y0042178D01*
X0187600Y0042198D01*
X0187631Y0042216D01*
X0187664Y0042229D01*
X0187698Y0042239D01*
X0187734Y0042245D01*
X0187769Y0042247D01*
X0187804Y0042245D01*
X0187840Y0042239D01*
X0187874Y0042229D01*
X0187907Y0042216D01*
X0187938Y0042198D01*
X0187967Y0042178D01*
X0187993Y0042154D01*
X0188017Y0042128D01*
X0188037Y0042099D01*
X0188055Y0042068D01*
X0188068Y0042035D01*
X0188078Y0042001D01*
X0188084Y0041965D01*
X0188086Y0041930D01*
X0188084Y0041895D01*
X0188078Y0041859D01*
X0188068Y0041825D01*
X0188055Y0041792D01*
X0188037Y0041761D01*
X0188017Y0041732D01*
X0187993Y0041706D01*
X0187967Y0041682D01*
X0187938Y0041662D01*
X0187907Y0041644D01*
X0187874Y0041631D01*
X0187840Y0041621D01*
X0187804Y0041615D01*
X0187769Y0041613D01*
X0187734Y0041615D01*
X0187698Y0041621D01*
X0187664Y0041631D01*
X0187631Y0041644D01*
X0187600Y0041662D01*
X0187571Y0041682D01*
X0187545Y0041706D01*
X0187521Y0041732D01*
X0187501Y0041761D01*
X0187483Y0041792D01*
X0187470Y0041825D01*
X0187460Y0041859D01*
X0187454Y0041895D01*
X0187452Y0041930D01*
X0233674Y0040761D02*
X0233674Y0053391D01*
X0256115Y0053391D01*
X0256115Y0040761D01*
X0233674Y0040761D01*
X0250444Y0041930D02*
X0250446Y0041965D01*
X0250452Y0042001D01*
X0250462Y0042035D01*
X0250475Y0042068D01*
X0250493Y0042099D01*
X0250513Y0042128D01*
X0250537Y0042154D01*
X0250563Y0042178D01*
X0250592Y0042198D01*
X0250623Y0042216D01*
X0250656Y0042229D01*
X0250690Y0042239D01*
X0250726Y0042245D01*
X0250761Y0042247D01*
X0250796Y0042245D01*
X0250832Y0042239D01*
X0250866Y0042229D01*
X0250899Y0042216D01*
X0250930Y0042198D01*
X0250959Y0042178D01*
X0250985Y0042154D01*
X0251009Y0042128D01*
X0251029Y0042099D01*
X0251047Y0042068D01*
X0251060Y0042035D01*
X0251070Y0042001D01*
X0251076Y0041965D01*
X0251078Y0041930D01*
X0251076Y0041895D01*
X0251070Y0041859D01*
X0251060Y0041825D01*
X0251047Y0041792D01*
X0251029Y0041761D01*
X0251009Y0041732D01*
X0250985Y0041706D01*
X0250959Y0041682D01*
X0250930Y0041662D01*
X0250899Y0041644D01*
X0250866Y0041631D01*
X0250832Y0041621D01*
X0250796Y0041615D01*
X0250761Y0041613D01*
X0250726Y0041615D01*
X0250690Y0041621D01*
X0250656Y0041631D01*
X0250623Y0041644D01*
X0250592Y0041662D01*
X0250563Y0041682D01*
X0250537Y0041706D01*
X0250513Y0041732D01*
X0250493Y0041761D01*
X0250475Y0041792D01*
X0250462Y0041825D01*
X0250452Y0041859D01*
X0250446Y0041895D01*
X0250444Y0041930D01*
X0300603Y0040761D02*
X0300603Y0053391D01*
X0323044Y0053391D01*
X0323044Y0040761D01*
X0300603Y0040761D01*
X0317373Y0041930D02*
X0317375Y0041965D01*
X0317381Y0042001D01*
X0317391Y0042035D01*
X0317404Y0042068D01*
X0317422Y0042099D01*
X0317442Y0042128D01*
X0317466Y0042154D01*
X0317492Y0042178D01*
X0317521Y0042198D01*
X0317552Y0042216D01*
X0317585Y0042229D01*
X0317619Y0042239D01*
X0317655Y0042245D01*
X0317690Y0042247D01*
X0317725Y0042245D01*
X0317761Y0042239D01*
X0317795Y0042229D01*
X0317828Y0042216D01*
X0317859Y0042198D01*
X0317888Y0042178D01*
X0317914Y0042154D01*
X0317938Y0042128D01*
X0317958Y0042099D01*
X0317976Y0042068D01*
X0317989Y0042035D01*
X0317999Y0042001D01*
X0318005Y0041965D01*
X0318007Y0041930D01*
X0318005Y0041895D01*
X0317999Y0041859D01*
X0317989Y0041825D01*
X0317976Y0041792D01*
X0317958Y0041761D01*
X0317938Y0041732D01*
X0317914Y0041706D01*
X0317888Y0041682D01*
X0317859Y0041662D01*
X0317828Y0041644D01*
X0317795Y0041631D01*
X0317761Y0041621D01*
X0317725Y0041615D01*
X0317690Y0041613D01*
X0317655Y0041615D01*
X0317619Y0041621D01*
X0317585Y0041631D01*
X0317552Y0041644D01*
X0317521Y0041662D01*
X0317492Y0041682D01*
X0317466Y0041706D01*
X0317442Y0041732D01*
X0317422Y0041761D01*
X0317404Y0041792D01*
X0317391Y0041825D01*
X0317381Y0041859D01*
X0317375Y0041895D01*
X0317373Y0041930D01*
X0323044Y0088005D02*
X0300603Y0088005D01*
X0300603Y0100635D01*
X0323044Y0100635D01*
X0323044Y0088005D01*
X0317373Y0089174D02*
X0317375Y0089209D01*
X0317381Y0089245D01*
X0317391Y0089279D01*
X0317404Y0089312D01*
X0317422Y0089343D01*
X0317442Y0089372D01*
X0317466Y0089398D01*
X0317492Y0089422D01*
X0317521Y0089442D01*
X0317552Y0089460D01*
X0317585Y0089473D01*
X0317619Y0089483D01*
X0317655Y0089489D01*
X0317690Y0089491D01*
X0317725Y0089489D01*
X0317761Y0089483D01*
X0317795Y0089473D01*
X0317828Y0089460D01*
X0317859Y0089442D01*
X0317888Y0089422D01*
X0317914Y0089398D01*
X0317938Y0089372D01*
X0317958Y0089343D01*
X0317976Y0089312D01*
X0317989Y0089279D01*
X0317999Y0089245D01*
X0318005Y0089209D01*
X0318007Y0089174D01*
X0318005Y0089139D01*
X0317999Y0089103D01*
X0317989Y0089069D01*
X0317976Y0089036D01*
X0317958Y0089005D01*
X0317938Y0088976D01*
X0317914Y0088950D01*
X0317888Y0088926D01*
X0317859Y0088906D01*
X0317828Y0088888D01*
X0317795Y0088875D01*
X0317761Y0088865D01*
X0317725Y0088859D01*
X0317690Y0088857D01*
X0317655Y0088859D01*
X0317619Y0088865D01*
X0317585Y0088875D01*
X0317552Y0088888D01*
X0317521Y0088906D01*
X0317492Y0088926D01*
X0317466Y0088950D01*
X0317442Y0088976D01*
X0317422Y0089005D01*
X0317404Y0089036D01*
X0317391Y0089069D01*
X0317381Y0089103D01*
X0317375Y0089139D01*
X0317373Y0089174D01*
X0256115Y0088005D02*
X0233674Y0088005D01*
X0233674Y0100635D01*
X0256115Y0100635D01*
X0256115Y0088005D01*
X0250444Y0089174D02*
X0250446Y0089209D01*
X0250452Y0089245D01*
X0250462Y0089279D01*
X0250475Y0089312D01*
X0250493Y0089343D01*
X0250513Y0089372D01*
X0250537Y0089398D01*
X0250563Y0089422D01*
X0250592Y0089442D01*
X0250623Y0089460D01*
X0250656Y0089473D01*
X0250690Y0089483D01*
X0250726Y0089489D01*
X0250761Y0089491D01*
X0250796Y0089489D01*
X0250832Y0089483D01*
X0250866Y0089473D01*
X0250899Y0089460D01*
X0250930Y0089442D01*
X0250959Y0089422D01*
X0250985Y0089398D01*
X0251009Y0089372D01*
X0251029Y0089343D01*
X0251047Y0089312D01*
X0251060Y0089279D01*
X0251070Y0089245D01*
X0251076Y0089209D01*
X0251078Y0089174D01*
X0251076Y0089139D01*
X0251070Y0089103D01*
X0251060Y0089069D01*
X0251047Y0089036D01*
X0251029Y0089005D01*
X0251009Y0088976D01*
X0250985Y0088950D01*
X0250959Y0088926D01*
X0250930Y0088906D01*
X0250899Y0088888D01*
X0250866Y0088875D01*
X0250832Y0088865D01*
X0250796Y0088859D01*
X0250761Y0088857D01*
X0250726Y0088859D01*
X0250690Y0088865D01*
X0250656Y0088875D01*
X0250623Y0088888D01*
X0250592Y0088906D01*
X0250563Y0088926D01*
X0250537Y0088950D01*
X0250513Y0088976D01*
X0250493Y0089005D01*
X0250475Y0089036D01*
X0250462Y0089069D01*
X0250452Y0089103D01*
X0250446Y0089139D01*
X0250444Y0089174D01*
X0193123Y0088005D02*
X0170682Y0088005D01*
X0170682Y0100635D01*
X0193123Y0100635D01*
X0193123Y0088005D01*
X0187452Y0089174D02*
X0187454Y0089209D01*
X0187460Y0089245D01*
X0187470Y0089279D01*
X0187483Y0089312D01*
X0187501Y0089343D01*
X0187521Y0089372D01*
X0187545Y0089398D01*
X0187571Y0089422D01*
X0187600Y0089442D01*
X0187631Y0089460D01*
X0187664Y0089473D01*
X0187698Y0089483D01*
X0187734Y0089489D01*
X0187769Y0089491D01*
X0187804Y0089489D01*
X0187840Y0089483D01*
X0187874Y0089473D01*
X0187907Y0089460D01*
X0187938Y0089442D01*
X0187967Y0089422D01*
X0187993Y0089398D01*
X0188017Y0089372D01*
X0188037Y0089343D01*
X0188055Y0089312D01*
X0188068Y0089279D01*
X0188078Y0089245D01*
X0188084Y0089209D01*
X0188086Y0089174D01*
X0188084Y0089139D01*
X0188078Y0089103D01*
X0188068Y0089069D01*
X0188055Y0089036D01*
X0188037Y0089005D01*
X0188017Y0088976D01*
X0187993Y0088950D01*
X0187967Y0088926D01*
X0187938Y0088906D01*
X0187907Y0088888D01*
X0187874Y0088875D01*
X0187840Y0088865D01*
X0187804Y0088859D01*
X0187769Y0088857D01*
X0187734Y0088859D01*
X0187698Y0088865D01*
X0187664Y0088875D01*
X0187631Y0088888D01*
X0187600Y0088906D01*
X0187571Y0088926D01*
X0187545Y0088950D01*
X0187521Y0088976D01*
X0187501Y0089005D01*
X0187483Y0089036D01*
X0187470Y0089069D01*
X0187460Y0089103D01*
X0187454Y0089139D01*
X0187452Y0089174D01*
X0126194Y0088005D02*
X0103753Y0088005D01*
X0103753Y0100635D01*
X0126194Y0100635D01*
X0126194Y0088005D01*
X0120522Y0089174D02*
X0120524Y0089209D01*
X0120530Y0089245D01*
X0120540Y0089279D01*
X0120553Y0089312D01*
X0120571Y0089343D01*
X0120591Y0089372D01*
X0120615Y0089398D01*
X0120641Y0089422D01*
X0120670Y0089442D01*
X0120701Y0089460D01*
X0120734Y0089473D01*
X0120768Y0089483D01*
X0120804Y0089489D01*
X0120839Y0089491D01*
X0120874Y0089489D01*
X0120910Y0089483D01*
X0120944Y0089473D01*
X0120977Y0089460D01*
X0121008Y0089442D01*
X0121037Y0089422D01*
X0121063Y0089398D01*
X0121087Y0089372D01*
X0121107Y0089343D01*
X0121125Y0089312D01*
X0121138Y0089279D01*
X0121148Y0089245D01*
X0121154Y0089209D01*
X0121156Y0089174D01*
X0121154Y0089139D01*
X0121148Y0089103D01*
X0121138Y0089069D01*
X0121125Y0089036D01*
X0121107Y0089005D01*
X0121087Y0088976D01*
X0121063Y0088950D01*
X0121037Y0088926D01*
X0121008Y0088906D01*
X0120977Y0088888D01*
X0120944Y0088875D01*
X0120910Y0088865D01*
X0120874Y0088859D01*
X0120839Y0088857D01*
X0120804Y0088859D01*
X0120768Y0088865D01*
X0120734Y0088875D01*
X0120701Y0088888D01*
X0120670Y0088906D01*
X0120641Y0088926D01*
X0120615Y0088950D01*
X0120591Y0088976D01*
X0120571Y0089005D01*
X0120553Y0089036D01*
X0120540Y0089069D01*
X0120530Y0089103D01*
X0120524Y0089139D01*
X0120522Y0089174D01*
X0063202Y0088005D02*
X0040761Y0088005D01*
X0040761Y0100635D01*
X0063202Y0100635D01*
X0063202Y0088005D01*
X0057530Y0089174D02*
X0057532Y0089209D01*
X0057538Y0089245D01*
X0057548Y0089279D01*
X0057561Y0089312D01*
X0057579Y0089343D01*
X0057599Y0089372D01*
X0057623Y0089398D01*
X0057649Y0089422D01*
X0057678Y0089442D01*
X0057709Y0089460D01*
X0057742Y0089473D01*
X0057776Y0089483D01*
X0057812Y0089489D01*
X0057847Y0089491D01*
X0057882Y0089489D01*
X0057918Y0089483D01*
X0057952Y0089473D01*
X0057985Y0089460D01*
X0058016Y0089442D01*
X0058045Y0089422D01*
X0058071Y0089398D01*
X0058095Y0089372D01*
X0058115Y0089343D01*
X0058133Y0089312D01*
X0058146Y0089279D01*
X0058156Y0089245D01*
X0058162Y0089209D01*
X0058164Y0089174D01*
X0058162Y0089139D01*
X0058156Y0089103D01*
X0058146Y0089069D01*
X0058133Y0089036D01*
X0058115Y0089005D01*
X0058095Y0088976D01*
X0058071Y0088950D01*
X0058045Y0088926D01*
X0058016Y0088906D01*
X0057985Y0088888D01*
X0057952Y0088875D01*
X0057918Y0088865D01*
X0057882Y0088859D01*
X0057847Y0088857D01*
X0057812Y0088859D01*
X0057776Y0088865D01*
X0057742Y0088875D01*
X0057709Y0088888D01*
X0057678Y0088906D01*
X0057649Y0088926D01*
X0057623Y0088950D01*
X0057599Y0088976D01*
X0057579Y0089005D01*
X0057561Y0089036D01*
X0057548Y0089069D01*
X0057538Y0089103D01*
X0057532Y0089139D01*
X0057530Y0089174D01*
D11*
X0059961Y0139489D02*
X0039489Y0139489D01*
X0039489Y0153859D01*
X0059961Y0153859D01*
X0059961Y0139489D01*
X0102481Y0139489D02*
X0102481Y0153859D01*
X0122954Y0153859D01*
X0122954Y0139489D01*
X0102481Y0139489D01*
X0169410Y0139489D02*
X0169410Y0153859D01*
X0189883Y0153859D01*
X0189883Y0139489D01*
X0169410Y0139489D01*
X0232402Y0139489D02*
X0232402Y0153859D01*
X0252875Y0153859D01*
X0252875Y0139489D01*
X0232402Y0139489D01*
X0299331Y0139489D02*
X0299331Y0153859D01*
X0319804Y0153859D01*
X0319804Y0139489D01*
X0299331Y0139489D01*
X0299331Y0186733D02*
X0299331Y0201103D01*
X0319804Y0201103D01*
X0319804Y0186733D01*
X0299331Y0186733D01*
X0252875Y0186733D02*
X0252875Y0201103D01*
X0232402Y0201103D01*
X0232402Y0186733D01*
X0252875Y0186733D01*
X0189883Y0186733D02*
X0189883Y0201103D01*
X0169410Y0201103D01*
X0169410Y0186733D01*
X0189883Y0186733D01*
X0122954Y0186733D02*
X0122954Y0201103D01*
X0102481Y0201103D01*
X0102481Y0186733D01*
X0122954Y0186733D01*
X0059961Y0186733D02*
X0059961Y0201103D01*
X0039489Y0201103D01*
X0039489Y0186733D01*
X0059961Y0186733D01*
D12*
X0049430Y0191851D02*
X0049432Y0191870D01*
X0049437Y0191889D01*
X0049447Y0191905D01*
X0049459Y0191920D01*
X0049474Y0191932D01*
X0049490Y0191942D01*
X0049509Y0191947D01*
X0049528Y0191949D01*
X0049547Y0191947D01*
X0049566Y0191942D01*
X0049582Y0191932D01*
X0049597Y0191920D01*
X0049609Y0191905D01*
X0049619Y0191889D01*
X0049624Y0191870D01*
X0049626Y0191851D01*
X0049624Y0191832D01*
X0049619Y0191813D01*
X0049609Y0191797D01*
X0049597Y0191782D01*
X0049582Y0191770D01*
X0049566Y0191760D01*
X0049547Y0191755D01*
X0049528Y0191753D01*
X0049509Y0191755D01*
X0049490Y0191760D01*
X0049474Y0191770D01*
X0049459Y0191782D01*
X0049447Y0191797D01*
X0049437Y0191813D01*
X0049432Y0191832D01*
X0049430Y0191851D01*
X0112422Y0191851D02*
X0112424Y0191870D01*
X0112429Y0191889D01*
X0112439Y0191905D01*
X0112451Y0191920D01*
X0112466Y0191932D01*
X0112482Y0191942D01*
X0112501Y0191947D01*
X0112520Y0191949D01*
X0112539Y0191947D01*
X0112558Y0191942D01*
X0112574Y0191932D01*
X0112589Y0191920D01*
X0112601Y0191905D01*
X0112611Y0191889D01*
X0112616Y0191870D01*
X0112618Y0191851D01*
X0112616Y0191832D01*
X0112611Y0191813D01*
X0112601Y0191797D01*
X0112589Y0191782D01*
X0112574Y0191770D01*
X0112558Y0191760D01*
X0112539Y0191755D01*
X0112520Y0191753D01*
X0112501Y0191755D01*
X0112482Y0191760D01*
X0112466Y0191770D01*
X0112451Y0191782D01*
X0112439Y0191797D01*
X0112429Y0191813D01*
X0112424Y0191832D01*
X0112422Y0191851D01*
X0179352Y0191851D02*
X0179354Y0191870D01*
X0179359Y0191889D01*
X0179369Y0191905D01*
X0179381Y0191920D01*
X0179396Y0191932D01*
X0179412Y0191942D01*
X0179431Y0191947D01*
X0179450Y0191949D01*
X0179469Y0191947D01*
X0179488Y0191942D01*
X0179504Y0191932D01*
X0179519Y0191920D01*
X0179531Y0191905D01*
X0179541Y0191889D01*
X0179546Y0191870D01*
X0179548Y0191851D01*
X0179546Y0191832D01*
X0179541Y0191813D01*
X0179531Y0191797D01*
X0179519Y0191782D01*
X0179504Y0191770D01*
X0179488Y0191760D01*
X0179469Y0191755D01*
X0179450Y0191753D01*
X0179431Y0191755D01*
X0179412Y0191760D01*
X0179396Y0191770D01*
X0179381Y0191782D01*
X0179369Y0191797D01*
X0179359Y0191813D01*
X0179354Y0191832D01*
X0179352Y0191851D01*
X0242344Y0191851D02*
X0242346Y0191870D01*
X0242351Y0191889D01*
X0242361Y0191905D01*
X0242373Y0191920D01*
X0242388Y0191932D01*
X0242404Y0191942D01*
X0242423Y0191947D01*
X0242442Y0191949D01*
X0242461Y0191947D01*
X0242480Y0191942D01*
X0242496Y0191932D01*
X0242511Y0191920D01*
X0242523Y0191905D01*
X0242533Y0191889D01*
X0242538Y0191870D01*
X0242540Y0191851D01*
X0242538Y0191832D01*
X0242533Y0191813D01*
X0242523Y0191797D01*
X0242511Y0191782D01*
X0242496Y0191770D01*
X0242480Y0191760D01*
X0242461Y0191755D01*
X0242442Y0191753D01*
X0242423Y0191755D01*
X0242404Y0191760D01*
X0242388Y0191770D01*
X0242373Y0191782D01*
X0242361Y0191797D01*
X0242351Y0191813D01*
X0242346Y0191832D01*
X0242344Y0191851D01*
X0309273Y0191851D02*
X0309275Y0191870D01*
X0309280Y0191889D01*
X0309290Y0191905D01*
X0309302Y0191920D01*
X0309317Y0191932D01*
X0309333Y0191942D01*
X0309352Y0191947D01*
X0309371Y0191949D01*
X0309390Y0191947D01*
X0309409Y0191942D01*
X0309425Y0191932D01*
X0309440Y0191920D01*
X0309452Y0191905D01*
X0309462Y0191889D01*
X0309467Y0191870D01*
X0309469Y0191851D01*
X0309467Y0191832D01*
X0309462Y0191813D01*
X0309452Y0191797D01*
X0309440Y0191782D01*
X0309425Y0191770D01*
X0309409Y0191760D01*
X0309390Y0191755D01*
X0309371Y0191753D01*
X0309352Y0191755D01*
X0309333Y0191760D01*
X0309317Y0191770D01*
X0309302Y0191782D01*
X0309290Y0191797D01*
X0309280Y0191813D01*
X0309275Y0191832D01*
X0309273Y0191851D01*
X0309273Y0144607D02*
X0309275Y0144626D01*
X0309280Y0144645D01*
X0309290Y0144661D01*
X0309302Y0144676D01*
X0309317Y0144688D01*
X0309333Y0144698D01*
X0309352Y0144703D01*
X0309371Y0144705D01*
X0309390Y0144703D01*
X0309409Y0144698D01*
X0309425Y0144688D01*
X0309440Y0144676D01*
X0309452Y0144661D01*
X0309462Y0144645D01*
X0309467Y0144626D01*
X0309469Y0144607D01*
X0309467Y0144588D01*
X0309462Y0144569D01*
X0309452Y0144553D01*
X0309440Y0144538D01*
X0309425Y0144526D01*
X0309409Y0144516D01*
X0309390Y0144511D01*
X0309371Y0144509D01*
X0309352Y0144511D01*
X0309333Y0144516D01*
X0309317Y0144526D01*
X0309302Y0144538D01*
X0309290Y0144553D01*
X0309280Y0144569D01*
X0309275Y0144588D01*
X0309273Y0144607D01*
X0242344Y0144607D02*
X0242346Y0144626D01*
X0242351Y0144645D01*
X0242361Y0144661D01*
X0242373Y0144676D01*
X0242388Y0144688D01*
X0242404Y0144698D01*
X0242423Y0144703D01*
X0242442Y0144705D01*
X0242461Y0144703D01*
X0242480Y0144698D01*
X0242496Y0144688D01*
X0242511Y0144676D01*
X0242523Y0144661D01*
X0242533Y0144645D01*
X0242538Y0144626D01*
X0242540Y0144607D01*
X0242538Y0144588D01*
X0242533Y0144569D01*
X0242523Y0144553D01*
X0242511Y0144538D01*
X0242496Y0144526D01*
X0242480Y0144516D01*
X0242461Y0144511D01*
X0242442Y0144509D01*
X0242423Y0144511D01*
X0242404Y0144516D01*
X0242388Y0144526D01*
X0242373Y0144538D01*
X0242361Y0144553D01*
X0242351Y0144569D01*
X0242346Y0144588D01*
X0242344Y0144607D01*
X0179352Y0144607D02*
X0179354Y0144626D01*
X0179359Y0144645D01*
X0179369Y0144661D01*
X0179381Y0144676D01*
X0179396Y0144688D01*
X0179412Y0144698D01*
X0179431Y0144703D01*
X0179450Y0144705D01*
X0179469Y0144703D01*
X0179488Y0144698D01*
X0179504Y0144688D01*
X0179519Y0144676D01*
X0179531Y0144661D01*
X0179541Y0144645D01*
X0179546Y0144626D01*
X0179548Y0144607D01*
X0179546Y0144588D01*
X0179541Y0144569D01*
X0179531Y0144553D01*
X0179519Y0144538D01*
X0179504Y0144526D01*
X0179488Y0144516D01*
X0179469Y0144511D01*
X0179450Y0144509D01*
X0179431Y0144511D01*
X0179412Y0144516D01*
X0179396Y0144526D01*
X0179381Y0144538D01*
X0179369Y0144553D01*
X0179359Y0144569D01*
X0179354Y0144588D01*
X0179352Y0144607D01*
X0112422Y0144607D02*
X0112424Y0144626D01*
X0112429Y0144645D01*
X0112439Y0144661D01*
X0112451Y0144676D01*
X0112466Y0144688D01*
X0112482Y0144698D01*
X0112501Y0144703D01*
X0112520Y0144705D01*
X0112539Y0144703D01*
X0112558Y0144698D01*
X0112574Y0144688D01*
X0112589Y0144676D01*
X0112601Y0144661D01*
X0112611Y0144645D01*
X0112616Y0144626D01*
X0112618Y0144607D01*
X0112616Y0144588D01*
X0112611Y0144569D01*
X0112601Y0144553D01*
X0112589Y0144538D01*
X0112574Y0144526D01*
X0112558Y0144516D01*
X0112539Y0144511D01*
X0112520Y0144509D01*
X0112501Y0144511D01*
X0112482Y0144516D01*
X0112466Y0144526D01*
X0112451Y0144538D01*
X0112439Y0144553D01*
X0112429Y0144569D01*
X0112424Y0144588D01*
X0112422Y0144607D01*
X0049430Y0144607D02*
X0049432Y0144626D01*
X0049437Y0144645D01*
X0049447Y0144661D01*
X0049459Y0144676D01*
X0049474Y0144688D01*
X0049490Y0144698D01*
X0049509Y0144703D01*
X0049528Y0144705D01*
X0049547Y0144703D01*
X0049566Y0144698D01*
X0049582Y0144688D01*
X0049597Y0144676D01*
X0049609Y0144661D01*
X0049619Y0144645D01*
X0049624Y0144626D01*
X0049626Y0144607D01*
X0049624Y0144588D01*
X0049619Y0144569D01*
X0049609Y0144553D01*
X0049597Y0144538D01*
X0049582Y0144526D01*
X0049566Y0144516D01*
X0049547Y0144511D01*
X0049528Y0144509D01*
X0049509Y0144511D01*
X0049490Y0144516D01*
X0049474Y0144526D01*
X0049459Y0144538D01*
X0049447Y0144553D01*
X0049437Y0144569D01*
X0049432Y0144588D01*
X0049430Y0144607D01*
X0055608Y0093454D02*
X0055610Y0093483D01*
X0055616Y0093512D01*
X0055625Y0093540D01*
X0055639Y0093566D01*
X0055655Y0093590D01*
X0055675Y0093612D01*
X0055698Y0093631D01*
X0055722Y0093647D01*
X0055749Y0093659D01*
X0055777Y0093668D01*
X0055806Y0093673D01*
X0055835Y0093674D01*
X0055865Y0093671D01*
X0055893Y0093664D01*
X0055921Y0093654D01*
X0055946Y0093639D01*
X0055970Y0093622D01*
X0055991Y0093602D01*
X0056009Y0093579D01*
X0056024Y0093553D01*
X0056036Y0093526D01*
X0056044Y0093498D01*
X0056048Y0093469D01*
X0056048Y0093439D01*
X0056044Y0093410D01*
X0056036Y0093382D01*
X0056024Y0093355D01*
X0056009Y0093329D01*
X0055991Y0093306D01*
X0055970Y0093286D01*
X0055946Y0093269D01*
X0055921Y0093254D01*
X0055893Y0093244D01*
X0055865Y0093237D01*
X0055835Y0093234D01*
X0055806Y0093235D01*
X0055777Y0093240D01*
X0055749Y0093249D01*
X0055722Y0093261D01*
X0055698Y0093277D01*
X0055675Y0093296D01*
X0055655Y0093318D01*
X0055639Y0093342D01*
X0055625Y0093368D01*
X0055616Y0093396D01*
X0055610Y0093425D01*
X0055608Y0093454D01*
X0118600Y0093454D02*
X0118602Y0093483D01*
X0118608Y0093512D01*
X0118617Y0093540D01*
X0118631Y0093566D01*
X0118647Y0093590D01*
X0118667Y0093612D01*
X0118690Y0093631D01*
X0118714Y0093647D01*
X0118741Y0093659D01*
X0118769Y0093668D01*
X0118798Y0093673D01*
X0118827Y0093674D01*
X0118857Y0093671D01*
X0118885Y0093664D01*
X0118913Y0093654D01*
X0118938Y0093639D01*
X0118962Y0093622D01*
X0118983Y0093602D01*
X0119001Y0093579D01*
X0119016Y0093553D01*
X0119028Y0093526D01*
X0119036Y0093498D01*
X0119040Y0093469D01*
X0119040Y0093439D01*
X0119036Y0093410D01*
X0119028Y0093382D01*
X0119016Y0093355D01*
X0119001Y0093329D01*
X0118983Y0093306D01*
X0118962Y0093286D01*
X0118938Y0093269D01*
X0118913Y0093254D01*
X0118885Y0093244D01*
X0118857Y0093237D01*
X0118827Y0093234D01*
X0118798Y0093235D01*
X0118769Y0093240D01*
X0118741Y0093249D01*
X0118714Y0093261D01*
X0118690Y0093277D01*
X0118667Y0093296D01*
X0118647Y0093318D01*
X0118631Y0093342D01*
X0118617Y0093368D01*
X0118608Y0093396D01*
X0118602Y0093425D01*
X0118600Y0093454D01*
X0185529Y0093454D02*
X0185531Y0093483D01*
X0185537Y0093512D01*
X0185546Y0093540D01*
X0185560Y0093566D01*
X0185576Y0093590D01*
X0185596Y0093612D01*
X0185619Y0093631D01*
X0185643Y0093647D01*
X0185670Y0093659D01*
X0185698Y0093668D01*
X0185727Y0093673D01*
X0185756Y0093674D01*
X0185786Y0093671D01*
X0185814Y0093664D01*
X0185842Y0093654D01*
X0185867Y0093639D01*
X0185891Y0093622D01*
X0185912Y0093602D01*
X0185930Y0093579D01*
X0185945Y0093553D01*
X0185957Y0093526D01*
X0185965Y0093498D01*
X0185969Y0093469D01*
X0185969Y0093439D01*
X0185965Y0093410D01*
X0185957Y0093382D01*
X0185945Y0093355D01*
X0185930Y0093329D01*
X0185912Y0093306D01*
X0185891Y0093286D01*
X0185867Y0093269D01*
X0185842Y0093254D01*
X0185814Y0093244D01*
X0185786Y0093237D01*
X0185756Y0093234D01*
X0185727Y0093235D01*
X0185698Y0093240D01*
X0185670Y0093249D01*
X0185643Y0093261D01*
X0185619Y0093277D01*
X0185596Y0093296D01*
X0185576Y0093318D01*
X0185560Y0093342D01*
X0185546Y0093368D01*
X0185537Y0093396D01*
X0185531Y0093425D01*
X0185529Y0093454D01*
X0248521Y0093454D02*
X0248523Y0093483D01*
X0248529Y0093512D01*
X0248538Y0093540D01*
X0248552Y0093566D01*
X0248568Y0093590D01*
X0248588Y0093612D01*
X0248611Y0093631D01*
X0248635Y0093647D01*
X0248662Y0093659D01*
X0248690Y0093668D01*
X0248719Y0093673D01*
X0248748Y0093674D01*
X0248778Y0093671D01*
X0248806Y0093664D01*
X0248834Y0093654D01*
X0248859Y0093639D01*
X0248883Y0093622D01*
X0248904Y0093602D01*
X0248922Y0093579D01*
X0248937Y0093553D01*
X0248949Y0093526D01*
X0248957Y0093498D01*
X0248961Y0093469D01*
X0248961Y0093439D01*
X0248957Y0093410D01*
X0248949Y0093382D01*
X0248937Y0093355D01*
X0248922Y0093329D01*
X0248904Y0093306D01*
X0248883Y0093286D01*
X0248859Y0093269D01*
X0248834Y0093254D01*
X0248806Y0093244D01*
X0248778Y0093237D01*
X0248748Y0093234D01*
X0248719Y0093235D01*
X0248690Y0093240D01*
X0248662Y0093249D01*
X0248635Y0093261D01*
X0248611Y0093277D01*
X0248588Y0093296D01*
X0248568Y0093318D01*
X0248552Y0093342D01*
X0248538Y0093368D01*
X0248529Y0093396D01*
X0248523Y0093425D01*
X0248521Y0093454D01*
X0315450Y0093454D02*
X0315452Y0093483D01*
X0315458Y0093512D01*
X0315467Y0093540D01*
X0315481Y0093566D01*
X0315497Y0093590D01*
X0315517Y0093612D01*
X0315540Y0093631D01*
X0315564Y0093647D01*
X0315591Y0093659D01*
X0315619Y0093668D01*
X0315648Y0093673D01*
X0315677Y0093674D01*
X0315707Y0093671D01*
X0315735Y0093664D01*
X0315763Y0093654D01*
X0315788Y0093639D01*
X0315812Y0093622D01*
X0315833Y0093602D01*
X0315851Y0093579D01*
X0315866Y0093553D01*
X0315878Y0093526D01*
X0315886Y0093498D01*
X0315890Y0093469D01*
X0315890Y0093439D01*
X0315886Y0093410D01*
X0315878Y0093382D01*
X0315866Y0093355D01*
X0315851Y0093329D01*
X0315833Y0093306D01*
X0315812Y0093286D01*
X0315788Y0093269D01*
X0315763Y0093254D01*
X0315735Y0093244D01*
X0315707Y0093237D01*
X0315677Y0093234D01*
X0315648Y0093235D01*
X0315619Y0093240D01*
X0315591Y0093249D01*
X0315564Y0093261D01*
X0315540Y0093277D01*
X0315517Y0093296D01*
X0315497Y0093318D01*
X0315481Y0093342D01*
X0315467Y0093368D01*
X0315458Y0093396D01*
X0315452Y0093425D01*
X0315450Y0093454D01*
X0315450Y0046209D02*
X0315452Y0046238D01*
X0315458Y0046267D01*
X0315467Y0046295D01*
X0315481Y0046321D01*
X0315497Y0046345D01*
X0315517Y0046367D01*
X0315540Y0046386D01*
X0315564Y0046402D01*
X0315591Y0046414D01*
X0315619Y0046423D01*
X0315648Y0046428D01*
X0315677Y0046429D01*
X0315707Y0046426D01*
X0315735Y0046419D01*
X0315763Y0046409D01*
X0315788Y0046394D01*
X0315812Y0046377D01*
X0315833Y0046357D01*
X0315851Y0046334D01*
X0315866Y0046308D01*
X0315878Y0046281D01*
X0315886Y0046253D01*
X0315890Y0046224D01*
X0315890Y0046194D01*
X0315886Y0046165D01*
X0315878Y0046137D01*
X0315866Y0046110D01*
X0315851Y0046084D01*
X0315833Y0046061D01*
X0315812Y0046041D01*
X0315788Y0046024D01*
X0315763Y0046009D01*
X0315735Y0045999D01*
X0315707Y0045992D01*
X0315677Y0045989D01*
X0315648Y0045990D01*
X0315619Y0045995D01*
X0315591Y0046004D01*
X0315564Y0046016D01*
X0315540Y0046032D01*
X0315517Y0046051D01*
X0315497Y0046073D01*
X0315481Y0046097D01*
X0315467Y0046123D01*
X0315458Y0046151D01*
X0315452Y0046180D01*
X0315450Y0046209D01*
X0248521Y0046209D02*
X0248523Y0046238D01*
X0248529Y0046267D01*
X0248538Y0046295D01*
X0248552Y0046321D01*
X0248568Y0046345D01*
X0248588Y0046367D01*
X0248611Y0046386D01*
X0248635Y0046402D01*
X0248662Y0046414D01*
X0248690Y0046423D01*
X0248719Y0046428D01*
X0248748Y0046429D01*
X0248778Y0046426D01*
X0248806Y0046419D01*
X0248834Y0046409D01*
X0248859Y0046394D01*
X0248883Y0046377D01*
X0248904Y0046357D01*
X0248922Y0046334D01*
X0248937Y0046308D01*
X0248949Y0046281D01*
X0248957Y0046253D01*
X0248961Y0046224D01*
X0248961Y0046194D01*
X0248957Y0046165D01*
X0248949Y0046137D01*
X0248937Y0046110D01*
X0248922Y0046084D01*
X0248904Y0046061D01*
X0248883Y0046041D01*
X0248859Y0046024D01*
X0248834Y0046009D01*
X0248806Y0045999D01*
X0248778Y0045992D01*
X0248748Y0045989D01*
X0248719Y0045990D01*
X0248690Y0045995D01*
X0248662Y0046004D01*
X0248635Y0046016D01*
X0248611Y0046032D01*
X0248588Y0046051D01*
X0248568Y0046073D01*
X0248552Y0046097D01*
X0248538Y0046123D01*
X0248529Y0046151D01*
X0248523Y0046180D01*
X0248521Y0046209D01*
X0185529Y0046209D02*
X0185531Y0046238D01*
X0185537Y0046267D01*
X0185546Y0046295D01*
X0185560Y0046321D01*
X0185576Y0046345D01*
X0185596Y0046367D01*
X0185619Y0046386D01*
X0185643Y0046402D01*
X0185670Y0046414D01*
X0185698Y0046423D01*
X0185727Y0046428D01*
X0185756Y0046429D01*
X0185786Y0046426D01*
X0185814Y0046419D01*
X0185842Y0046409D01*
X0185867Y0046394D01*
X0185891Y0046377D01*
X0185912Y0046357D01*
X0185930Y0046334D01*
X0185945Y0046308D01*
X0185957Y0046281D01*
X0185965Y0046253D01*
X0185969Y0046224D01*
X0185969Y0046194D01*
X0185965Y0046165D01*
X0185957Y0046137D01*
X0185945Y0046110D01*
X0185930Y0046084D01*
X0185912Y0046061D01*
X0185891Y0046041D01*
X0185867Y0046024D01*
X0185842Y0046009D01*
X0185814Y0045999D01*
X0185786Y0045992D01*
X0185756Y0045989D01*
X0185727Y0045990D01*
X0185698Y0045995D01*
X0185670Y0046004D01*
X0185643Y0046016D01*
X0185619Y0046032D01*
X0185596Y0046051D01*
X0185576Y0046073D01*
X0185560Y0046097D01*
X0185546Y0046123D01*
X0185537Y0046151D01*
X0185531Y0046180D01*
X0185529Y0046209D01*
X0118600Y0046209D02*
X0118602Y0046238D01*
X0118608Y0046267D01*
X0118617Y0046295D01*
X0118631Y0046321D01*
X0118647Y0046345D01*
X0118667Y0046367D01*
X0118690Y0046386D01*
X0118714Y0046402D01*
X0118741Y0046414D01*
X0118769Y0046423D01*
X0118798Y0046428D01*
X0118827Y0046429D01*
X0118857Y0046426D01*
X0118885Y0046419D01*
X0118913Y0046409D01*
X0118938Y0046394D01*
X0118962Y0046377D01*
X0118983Y0046357D01*
X0119001Y0046334D01*
X0119016Y0046308D01*
X0119028Y0046281D01*
X0119036Y0046253D01*
X0119040Y0046224D01*
X0119040Y0046194D01*
X0119036Y0046165D01*
X0119028Y0046137D01*
X0119016Y0046110D01*
X0119001Y0046084D01*
X0118983Y0046061D01*
X0118962Y0046041D01*
X0118938Y0046024D01*
X0118913Y0046009D01*
X0118885Y0045999D01*
X0118857Y0045992D01*
X0118827Y0045989D01*
X0118798Y0045990D01*
X0118769Y0045995D01*
X0118741Y0046004D01*
X0118714Y0046016D01*
X0118690Y0046032D01*
X0118667Y0046051D01*
X0118647Y0046073D01*
X0118631Y0046097D01*
X0118617Y0046123D01*
X0118608Y0046151D01*
X0118602Y0046180D01*
X0118600Y0046209D01*
X0055608Y0046209D02*
X0055610Y0046238D01*
X0055616Y0046267D01*
X0055625Y0046295D01*
X0055639Y0046321D01*
X0055655Y0046345D01*
X0055675Y0046367D01*
X0055698Y0046386D01*
X0055722Y0046402D01*
X0055749Y0046414D01*
X0055777Y0046423D01*
X0055806Y0046428D01*
X0055835Y0046429D01*
X0055865Y0046426D01*
X0055893Y0046419D01*
X0055921Y0046409D01*
X0055946Y0046394D01*
X0055970Y0046377D01*
X0055991Y0046357D01*
X0056009Y0046334D01*
X0056024Y0046308D01*
X0056036Y0046281D01*
X0056044Y0046253D01*
X0056048Y0046224D01*
X0056048Y0046194D01*
X0056044Y0046165D01*
X0056036Y0046137D01*
X0056024Y0046110D01*
X0056009Y0046084D01*
X0055991Y0046061D01*
X0055970Y0046041D01*
X0055946Y0046024D01*
X0055921Y0046009D01*
X0055893Y0045999D01*
X0055865Y0045992D01*
X0055835Y0045989D01*
X0055806Y0045990D01*
X0055777Y0045995D01*
X0055749Y0046004D01*
X0055722Y0046016D01*
X0055698Y0046032D01*
X0055675Y0046051D01*
X0055655Y0046073D01*
X0055639Y0046097D01*
X0055625Y0046123D01*
X0055616Y0046151D01*
X0055610Y0046180D01*
X0055608Y0046209D01*
D13*
X0057206Y0042678D02*
X0046674Y0042678D01*
X0046674Y0051300D01*
X0057206Y0051300D01*
X0057206Y0042678D01*
X0109666Y0042678D02*
X0109666Y0051300D01*
X0120198Y0051300D01*
X0120198Y0042678D01*
X0109666Y0042678D01*
X0176595Y0042678D02*
X0176595Y0051300D01*
X0187127Y0051300D01*
X0187127Y0042678D01*
X0176595Y0042678D01*
X0239587Y0042678D02*
X0239587Y0051300D01*
X0250119Y0051300D01*
X0250119Y0042678D01*
X0239587Y0042678D01*
X0306517Y0042678D02*
X0306517Y0051300D01*
X0317048Y0051300D01*
X0317048Y0042678D01*
X0306517Y0042678D01*
X0306517Y0089922D02*
X0306517Y0098544D01*
X0317048Y0098544D01*
X0317048Y0089922D01*
X0306517Y0089922D01*
X0250119Y0089922D02*
X0250119Y0098544D01*
X0239587Y0098544D01*
X0239587Y0089922D01*
X0250119Y0089922D01*
X0187127Y0089922D02*
X0187127Y0098544D01*
X0176595Y0098544D01*
X0176595Y0089922D01*
X0187127Y0089922D01*
X0120198Y0089922D02*
X0120198Y0098544D01*
X0109666Y0098544D01*
X0109666Y0089922D01*
X0120198Y0089922D01*
X0057206Y0089922D02*
X0057206Y0098544D01*
X0046674Y0098544D01*
X0046674Y0089922D01*
X0057206Y0089922D01*
X0054450Y0142639D02*
X0046576Y0142639D01*
X0046576Y0150513D01*
X0054450Y0150513D01*
X0054450Y0142639D01*
X0109568Y0142639D02*
X0109568Y0150513D01*
X0117442Y0150513D01*
X0117442Y0142639D01*
X0109568Y0142639D01*
X0176497Y0142639D02*
X0176497Y0150513D01*
X0184371Y0150513D01*
X0184371Y0142639D01*
X0176497Y0142639D01*
X0239489Y0142639D02*
X0239489Y0150513D01*
X0247363Y0150513D01*
X0247363Y0142639D01*
X0239489Y0142639D01*
X0306418Y0142639D02*
X0306418Y0150513D01*
X0314292Y0150513D01*
X0314292Y0142639D01*
X0306418Y0142639D01*
X0306418Y0189883D02*
X0306418Y0197757D01*
X0314292Y0197757D01*
X0314292Y0189883D01*
X0306418Y0189883D01*
X0247363Y0189883D02*
X0239489Y0189883D01*
X0239489Y0197757D01*
X0247363Y0197757D01*
X0247363Y0189883D01*
X0184371Y0189883D02*
X0176497Y0189883D01*
X0176497Y0197757D01*
X0184371Y0197757D01*
X0184371Y0189883D01*
X0117442Y0189883D02*
X0109568Y0189883D01*
X0109568Y0197757D01*
X0117442Y0197757D01*
X0117442Y0189883D01*
X0054450Y0189883D02*
X0046576Y0189883D01*
X0046576Y0197757D01*
X0054450Y0197757D01*
X0054450Y0189883D01*
D14*
X0050186Y0189562D02*
X0050186Y0188828D01*
X0050186Y0189195D02*
X0049085Y0189195D01*
X0049452Y0188828D01*
X0112077Y0189195D02*
X0113178Y0189195D01*
X0113178Y0188828D02*
X0113178Y0189562D01*
X0112444Y0188828D02*
X0112077Y0189195D01*
X0179007Y0189195D02*
X0180107Y0189195D01*
X0180107Y0188828D02*
X0180107Y0189562D01*
X0179374Y0188828D02*
X0179007Y0189195D01*
X0241999Y0189195D02*
X0243100Y0189195D01*
X0243100Y0188828D02*
X0243100Y0189562D01*
X0242366Y0188828D02*
X0241999Y0189195D01*
X0308928Y0189195D02*
X0310029Y0189195D01*
X0310029Y0188828D02*
X0310029Y0189562D01*
X0309295Y0188828D02*
X0308928Y0189195D01*
X0310029Y0142318D02*
X0310029Y0141584D01*
X0310029Y0141951D02*
X0308928Y0141951D01*
X0309295Y0141584D01*
X0243100Y0141584D02*
X0243100Y0142318D01*
X0243100Y0141951D02*
X0241999Y0141951D01*
X0242366Y0141584D01*
X0180107Y0141584D02*
X0180107Y0142318D01*
X0180107Y0141951D02*
X0179007Y0141951D01*
X0179374Y0141584D01*
X0113178Y0141584D02*
X0113178Y0142318D01*
X0113178Y0141951D02*
X0112077Y0141951D01*
X0112444Y0141584D01*
X0050186Y0141584D02*
X0050186Y0142318D01*
X0050186Y0141951D02*
X0049085Y0141951D01*
X0049452Y0141584D01*
D15*
X0049971Y0143032D02*
X0049973Y0143045D01*
X0049978Y0143057D01*
X0049987Y0143068D01*
X0049997Y0143076D01*
X0050010Y0143080D01*
X0050023Y0143081D01*
X0050036Y0143078D01*
X0050048Y0143072D01*
X0050058Y0143063D01*
X0050065Y0143052D01*
X0050069Y0143039D01*
X0050069Y0143025D01*
X0050065Y0143012D01*
X0050058Y0143001D01*
X0050048Y0142992D01*
X0050036Y0142986D01*
X0050023Y0142983D01*
X0050010Y0142984D01*
X0049997Y0142988D01*
X0049987Y0142996D01*
X0049978Y0143007D01*
X0049973Y0143019D01*
X0049971Y0143032D01*
X0051891Y0143032D02*
X0051893Y0143051D01*
X0051898Y0143070D01*
X0051908Y0143086D01*
X0051920Y0143101D01*
X0051935Y0143113D01*
X0051951Y0143123D01*
X0051970Y0143128D01*
X0051989Y0143130D01*
X0052008Y0143128D01*
X0052027Y0143123D01*
X0052043Y0143113D01*
X0052058Y0143101D01*
X0052070Y0143086D01*
X0052080Y0143070D01*
X0052085Y0143051D01*
X0052087Y0143032D01*
X0052085Y0143013D01*
X0052080Y0142994D01*
X0052070Y0142978D01*
X0052058Y0142963D01*
X0052043Y0142951D01*
X0052027Y0142941D01*
X0052008Y0142936D01*
X0051989Y0142934D01*
X0051970Y0142936D01*
X0051951Y0142941D01*
X0051935Y0142951D01*
X0051920Y0142963D01*
X0051908Y0142978D01*
X0051898Y0142994D01*
X0051893Y0143013D01*
X0051891Y0143032D01*
X0053986Y0145099D02*
X0053988Y0145115D01*
X0053993Y0145130D01*
X0054002Y0145144D01*
X0054014Y0145155D01*
X0054028Y0145163D01*
X0054044Y0145168D01*
X0054060Y0145169D01*
X0054076Y0145166D01*
X0054091Y0145160D01*
X0054104Y0145150D01*
X0054114Y0145137D01*
X0054122Y0145123D01*
X0054126Y0145107D01*
X0054126Y0145091D01*
X0054122Y0145075D01*
X0054114Y0145061D01*
X0054104Y0145048D01*
X0054091Y0145038D01*
X0054076Y0145032D01*
X0054060Y0145029D01*
X0054044Y0145030D01*
X0054028Y0145035D01*
X0054014Y0145043D01*
X0054002Y0145054D01*
X0053993Y0145068D01*
X0053988Y0145083D01*
X0053986Y0145099D01*
X0053986Y0147068D02*
X0053988Y0147084D01*
X0053993Y0147099D01*
X0054002Y0147113D01*
X0054014Y0147124D01*
X0054028Y0147132D01*
X0054044Y0147137D01*
X0054060Y0147138D01*
X0054076Y0147135D01*
X0054091Y0147129D01*
X0054104Y0147119D01*
X0054114Y0147106D01*
X0054122Y0147092D01*
X0054126Y0147076D01*
X0054126Y0147060D01*
X0054122Y0147044D01*
X0054114Y0147030D01*
X0054104Y0147017D01*
X0054091Y0147007D01*
X0054076Y0147001D01*
X0054060Y0146998D01*
X0054044Y0146999D01*
X0054028Y0147004D01*
X0054014Y0147012D01*
X0054002Y0147023D01*
X0053993Y0147037D01*
X0053988Y0147052D01*
X0053986Y0147068D01*
X0053986Y0149036D02*
X0053988Y0149052D01*
X0053993Y0149067D01*
X0054002Y0149081D01*
X0054014Y0149092D01*
X0054028Y0149100D01*
X0054044Y0149105D01*
X0054060Y0149106D01*
X0054076Y0149103D01*
X0054091Y0149097D01*
X0054104Y0149087D01*
X0054114Y0149074D01*
X0054122Y0149060D01*
X0054126Y0149044D01*
X0054126Y0149028D01*
X0054122Y0149012D01*
X0054114Y0148998D01*
X0054104Y0148985D01*
X0054091Y0148975D01*
X0054076Y0148969D01*
X0054060Y0148966D01*
X0054044Y0148967D01*
X0054028Y0148972D01*
X0054014Y0148980D01*
X0054002Y0148991D01*
X0053993Y0149005D01*
X0053988Y0149020D01*
X0053986Y0149036D01*
X0051940Y0149036D02*
X0051942Y0149049D01*
X0051947Y0149061D01*
X0051956Y0149072D01*
X0051966Y0149080D01*
X0051979Y0149084D01*
X0051992Y0149085D01*
X0052005Y0149082D01*
X0052017Y0149076D01*
X0052027Y0149067D01*
X0052034Y0149056D01*
X0052038Y0149043D01*
X0052038Y0149029D01*
X0052034Y0149016D01*
X0052027Y0149005D01*
X0052017Y0148996D01*
X0052005Y0148990D01*
X0051992Y0148987D01*
X0051979Y0148988D01*
X0051966Y0148992D01*
X0051956Y0149000D01*
X0051947Y0149011D01*
X0051942Y0149023D01*
X0051940Y0149036D01*
X0049971Y0149036D02*
X0049973Y0149049D01*
X0049978Y0149061D01*
X0049987Y0149072D01*
X0049997Y0149080D01*
X0050010Y0149084D01*
X0050023Y0149085D01*
X0050036Y0149082D01*
X0050048Y0149076D01*
X0050058Y0149067D01*
X0050065Y0149056D01*
X0050069Y0149043D01*
X0050069Y0149029D01*
X0050065Y0149016D01*
X0050058Y0149005D01*
X0050048Y0148996D01*
X0050036Y0148990D01*
X0050023Y0148987D01*
X0050010Y0148988D01*
X0049997Y0148992D01*
X0049987Y0149000D01*
X0049978Y0149011D01*
X0049973Y0149023D01*
X0049971Y0149036D01*
X0048003Y0148052D02*
X0048005Y0148065D01*
X0048010Y0148077D01*
X0048019Y0148088D01*
X0048029Y0148096D01*
X0048042Y0148100D01*
X0048055Y0148101D01*
X0048068Y0148098D01*
X0048080Y0148092D01*
X0048090Y0148083D01*
X0048097Y0148072D01*
X0048101Y0148059D01*
X0048101Y0148045D01*
X0048097Y0148032D01*
X0048090Y0148021D01*
X0048080Y0148012D01*
X0048068Y0148006D01*
X0048055Y0148003D01*
X0048042Y0148004D01*
X0048029Y0148008D01*
X0048019Y0148016D01*
X0048010Y0148027D01*
X0048005Y0148039D01*
X0048003Y0148052D01*
X0048003Y0146083D02*
X0048005Y0146096D01*
X0048010Y0146108D01*
X0048019Y0146119D01*
X0048029Y0146127D01*
X0048042Y0146131D01*
X0048055Y0146132D01*
X0048068Y0146129D01*
X0048080Y0146123D01*
X0048090Y0146114D01*
X0048097Y0146103D01*
X0048101Y0146090D01*
X0048101Y0146076D01*
X0048097Y0146063D01*
X0048090Y0146052D01*
X0048080Y0146043D01*
X0048068Y0146037D01*
X0048055Y0146034D01*
X0048042Y0146035D01*
X0048029Y0146039D01*
X0048019Y0146047D01*
X0048010Y0146058D01*
X0048005Y0146070D01*
X0048003Y0146083D01*
X0047982Y0144115D02*
X0047984Y0144131D01*
X0047989Y0144146D01*
X0047998Y0144160D01*
X0048010Y0144171D01*
X0048024Y0144179D01*
X0048040Y0144184D01*
X0048056Y0144185D01*
X0048072Y0144182D01*
X0048087Y0144176D01*
X0048100Y0144166D01*
X0048110Y0144153D01*
X0048118Y0144139D01*
X0048122Y0144123D01*
X0048122Y0144107D01*
X0048118Y0144091D01*
X0048110Y0144077D01*
X0048100Y0144064D01*
X0048087Y0144054D01*
X0048072Y0144048D01*
X0048056Y0144045D01*
X0048040Y0144046D01*
X0048024Y0144051D01*
X0048010Y0144059D01*
X0047998Y0144070D01*
X0047989Y0144084D01*
X0047984Y0144099D01*
X0047982Y0144115D01*
X0110974Y0144115D02*
X0110976Y0144131D01*
X0110981Y0144146D01*
X0110990Y0144160D01*
X0111002Y0144171D01*
X0111016Y0144179D01*
X0111032Y0144184D01*
X0111048Y0144185D01*
X0111064Y0144182D01*
X0111079Y0144176D01*
X0111092Y0144166D01*
X0111102Y0144153D01*
X0111110Y0144139D01*
X0111114Y0144123D01*
X0111114Y0144107D01*
X0111110Y0144091D01*
X0111102Y0144077D01*
X0111092Y0144064D01*
X0111079Y0144054D01*
X0111064Y0144048D01*
X0111048Y0144045D01*
X0111032Y0144046D01*
X0111016Y0144051D01*
X0111002Y0144059D01*
X0110990Y0144070D01*
X0110981Y0144084D01*
X0110976Y0144099D01*
X0110974Y0144115D01*
X0110995Y0146083D02*
X0110997Y0146096D01*
X0111002Y0146108D01*
X0111011Y0146119D01*
X0111021Y0146127D01*
X0111034Y0146131D01*
X0111047Y0146132D01*
X0111060Y0146129D01*
X0111072Y0146123D01*
X0111082Y0146114D01*
X0111089Y0146103D01*
X0111093Y0146090D01*
X0111093Y0146076D01*
X0111089Y0146063D01*
X0111082Y0146052D01*
X0111072Y0146043D01*
X0111060Y0146037D01*
X0111047Y0146034D01*
X0111034Y0146035D01*
X0111021Y0146039D01*
X0111011Y0146047D01*
X0111002Y0146058D01*
X0110997Y0146070D01*
X0110995Y0146083D01*
X0110995Y0148052D02*
X0110997Y0148065D01*
X0111002Y0148077D01*
X0111011Y0148088D01*
X0111021Y0148096D01*
X0111034Y0148100D01*
X0111047Y0148101D01*
X0111060Y0148098D01*
X0111072Y0148092D01*
X0111082Y0148083D01*
X0111089Y0148072D01*
X0111093Y0148059D01*
X0111093Y0148045D01*
X0111089Y0148032D01*
X0111082Y0148021D01*
X0111072Y0148012D01*
X0111060Y0148006D01*
X0111047Y0148003D01*
X0111034Y0148004D01*
X0111021Y0148008D01*
X0111011Y0148016D01*
X0111002Y0148027D01*
X0110997Y0148039D01*
X0110995Y0148052D01*
X0112964Y0149036D02*
X0112966Y0149049D01*
X0112971Y0149061D01*
X0112980Y0149072D01*
X0112990Y0149080D01*
X0113003Y0149084D01*
X0113016Y0149085D01*
X0113029Y0149082D01*
X0113041Y0149076D01*
X0113051Y0149067D01*
X0113058Y0149056D01*
X0113062Y0149043D01*
X0113062Y0149029D01*
X0113058Y0149016D01*
X0113051Y0149005D01*
X0113041Y0148996D01*
X0113029Y0148990D01*
X0113016Y0148987D01*
X0113003Y0148988D01*
X0112990Y0148992D01*
X0112980Y0149000D01*
X0112971Y0149011D01*
X0112966Y0149023D01*
X0112964Y0149036D01*
X0114932Y0149036D02*
X0114934Y0149049D01*
X0114939Y0149061D01*
X0114948Y0149072D01*
X0114958Y0149080D01*
X0114971Y0149084D01*
X0114984Y0149085D01*
X0114997Y0149082D01*
X0115009Y0149076D01*
X0115019Y0149067D01*
X0115026Y0149056D01*
X0115030Y0149043D01*
X0115030Y0149029D01*
X0115026Y0149016D01*
X0115019Y0149005D01*
X0115009Y0148996D01*
X0114997Y0148990D01*
X0114984Y0148987D01*
X0114971Y0148988D01*
X0114958Y0148992D01*
X0114948Y0149000D01*
X0114939Y0149011D01*
X0114934Y0149023D01*
X0114932Y0149036D01*
X0116978Y0149036D02*
X0116980Y0149052D01*
X0116985Y0149067D01*
X0116994Y0149081D01*
X0117006Y0149092D01*
X0117020Y0149100D01*
X0117036Y0149105D01*
X0117052Y0149106D01*
X0117068Y0149103D01*
X0117083Y0149097D01*
X0117096Y0149087D01*
X0117106Y0149074D01*
X0117114Y0149060D01*
X0117118Y0149044D01*
X0117118Y0149028D01*
X0117114Y0149012D01*
X0117106Y0148998D01*
X0117096Y0148985D01*
X0117083Y0148975D01*
X0117068Y0148969D01*
X0117052Y0148966D01*
X0117036Y0148967D01*
X0117020Y0148972D01*
X0117006Y0148980D01*
X0116994Y0148991D01*
X0116985Y0149005D01*
X0116980Y0149020D01*
X0116978Y0149036D01*
X0116978Y0147068D02*
X0116980Y0147084D01*
X0116985Y0147099D01*
X0116994Y0147113D01*
X0117006Y0147124D01*
X0117020Y0147132D01*
X0117036Y0147137D01*
X0117052Y0147138D01*
X0117068Y0147135D01*
X0117083Y0147129D01*
X0117096Y0147119D01*
X0117106Y0147106D01*
X0117114Y0147092D01*
X0117118Y0147076D01*
X0117118Y0147060D01*
X0117114Y0147044D01*
X0117106Y0147030D01*
X0117096Y0147017D01*
X0117083Y0147007D01*
X0117068Y0147001D01*
X0117052Y0146998D01*
X0117036Y0146999D01*
X0117020Y0147004D01*
X0117006Y0147012D01*
X0116994Y0147023D01*
X0116985Y0147037D01*
X0116980Y0147052D01*
X0116978Y0147068D01*
X0116978Y0145099D02*
X0116980Y0145115D01*
X0116985Y0145130D01*
X0116994Y0145144D01*
X0117006Y0145155D01*
X0117020Y0145163D01*
X0117036Y0145168D01*
X0117052Y0145169D01*
X0117068Y0145166D01*
X0117083Y0145160D01*
X0117096Y0145150D01*
X0117106Y0145137D01*
X0117114Y0145123D01*
X0117118Y0145107D01*
X0117118Y0145091D01*
X0117114Y0145075D01*
X0117106Y0145061D01*
X0117096Y0145048D01*
X0117083Y0145038D01*
X0117068Y0145032D01*
X0117052Y0145029D01*
X0117036Y0145030D01*
X0117020Y0145035D01*
X0117006Y0145043D01*
X0116994Y0145054D01*
X0116985Y0145068D01*
X0116980Y0145083D01*
X0116978Y0145099D01*
X0114883Y0143032D02*
X0114885Y0143051D01*
X0114890Y0143070D01*
X0114900Y0143086D01*
X0114912Y0143101D01*
X0114927Y0143113D01*
X0114943Y0143123D01*
X0114962Y0143128D01*
X0114981Y0143130D01*
X0115000Y0143128D01*
X0115019Y0143123D01*
X0115035Y0143113D01*
X0115050Y0143101D01*
X0115062Y0143086D01*
X0115072Y0143070D01*
X0115077Y0143051D01*
X0115079Y0143032D01*
X0115077Y0143013D01*
X0115072Y0142994D01*
X0115062Y0142978D01*
X0115050Y0142963D01*
X0115035Y0142951D01*
X0115019Y0142941D01*
X0115000Y0142936D01*
X0114981Y0142934D01*
X0114962Y0142936D01*
X0114943Y0142941D01*
X0114927Y0142951D01*
X0114912Y0142963D01*
X0114900Y0142978D01*
X0114890Y0142994D01*
X0114885Y0143013D01*
X0114883Y0143032D01*
X0112964Y0143032D02*
X0112966Y0143045D01*
X0112971Y0143057D01*
X0112980Y0143068D01*
X0112990Y0143076D01*
X0113003Y0143080D01*
X0113016Y0143081D01*
X0113029Y0143078D01*
X0113041Y0143072D01*
X0113051Y0143063D01*
X0113058Y0143052D01*
X0113062Y0143039D01*
X0113062Y0143025D01*
X0113058Y0143012D01*
X0113051Y0143001D01*
X0113041Y0142992D01*
X0113029Y0142986D01*
X0113016Y0142983D01*
X0113003Y0142984D01*
X0112990Y0142988D01*
X0112980Y0142996D01*
X0112971Y0143007D01*
X0112966Y0143019D01*
X0112964Y0143032D01*
X0177903Y0144115D02*
X0177905Y0144131D01*
X0177910Y0144146D01*
X0177919Y0144160D01*
X0177931Y0144171D01*
X0177945Y0144179D01*
X0177961Y0144184D01*
X0177977Y0144185D01*
X0177993Y0144182D01*
X0178008Y0144176D01*
X0178021Y0144166D01*
X0178031Y0144153D01*
X0178039Y0144139D01*
X0178043Y0144123D01*
X0178043Y0144107D01*
X0178039Y0144091D01*
X0178031Y0144077D01*
X0178021Y0144064D01*
X0178008Y0144054D01*
X0177993Y0144048D01*
X0177977Y0144045D01*
X0177961Y0144046D01*
X0177945Y0144051D01*
X0177931Y0144059D01*
X0177919Y0144070D01*
X0177910Y0144084D01*
X0177905Y0144099D01*
X0177903Y0144115D01*
X0177924Y0146083D02*
X0177926Y0146096D01*
X0177931Y0146108D01*
X0177940Y0146119D01*
X0177950Y0146127D01*
X0177963Y0146131D01*
X0177976Y0146132D01*
X0177989Y0146129D01*
X0178001Y0146123D01*
X0178011Y0146114D01*
X0178018Y0146103D01*
X0178022Y0146090D01*
X0178022Y0146076D01*
X0178018Y0146063D01*
X0178011Y0146052D01*
X0178001Y0146043D01*
X0177989Y0146037D01*
X0177976Y0146034D01*
X0177963Y0146035D01*
X0177950Y0146039D01*
X0177940Y0146047D01*
X0177931Y0146058D01*
X0177926Y0146070D01*
X0177924Y0146083D01*
X0177924Y0148052D02*
X0177926Y0148065D01*
X0177931Y0148077D01*
X0177940Y0148088D01*
X0177950Y0148096D01*
X0177963Y0148100D01*
X0177976Y0148101D01*
X0177989Y0148098D01*
X0178001Y0148092D01*
X0178011Y0148083D01*
X0178018Y0148072D01*
X0178022Y0148059D01*
X0178022Y0148045D01*
X0178018Y0148032D01*
X0178011Y0148021D01*
X0178001Y0148012D01*
X0177989Y0148006D01*
X0177976Y0148003D01*
X0177963Y0148004D01*
X0177950Y0148008D01*
X0177940Y0148016D01*
X0177931Y0148027D01*
X0177926Y0148039D01*
X0177924Y0148052D01*
X0179893Y0149036D02*
X0179895Y0149049D01*
X0179900Y0149061D01*
X0179909Y0149072D01*
X0179919Y0149080D01*
X0179932Y0149084D01*
X0179945Y0149085D01*
X0179958Y0149082D01*
X0179970Y0149076D01*
X0179980Y0149067D01*
X0179987Y0149056D01*
X0179991Y0149043D01*
X0179991Y0149029D01*
X0179987Y0149016D01*
X0179980Y0149005D01*
X0179970Y0148996D01*
X0179958Y0148990D01*
X0179945Y0148987D01*
X0179932Y0148988D01*
X0179919Y0148992D01*
X0179909Y0149000D01*
X0179900Y0149011D01*
X0179895Y0149023D01*
X0179893Y0149036D01*
X0181861Y0149036D02*
X0181863Y0149049D01*
X0181868Y0149061D01*
X0181877Y0149072D01*
X0181887Y0149080D01*
X0181900Y0149084D01*
X0181913Y0149085D01*
X0181926Y0149082D01*
X0181938Y0149076D01*
X0181948Y0149067D01*
X0181955Y0149056D01*
X0181959Y0149043D01*
X0181959Y0149029D01*
X0181955Y0149016D01*
X0181948Y0149005D01*
X0181938Y0148996D01*
X0181926Y0148990D01*
X0181913Y0148987D01*
X0181900Y0148988D01*
X0181887Y0148992D01*
X0181877Y0149000D01*
X0181868Y0149011D01*
X0181863Y0149023D01*
X0181861Y0149036D01*
X0183907Y0149036D02*
X0183909Y0149052D01*
X0183914Y0149067D01*
X0183923Y0149081D01*
X0183935Y0149092D01*
X0183949Y0149100D01*
X0183965Y0149105D01*
X0183981Y0149106D01*
X0183997Y0149103D01*
X0184012Y0149097D01*
X0184025Y0149087D01*
X0184035Y0149074D01*
X0184043Y0149060D01*
X0184047Y0149044D01*
X0184047Y0149028D01*
X0184043Y0149012D01*
X0184035Y0148998D01*
X0184025Y0148985D01*
X0184012Y0148975D01*
X0183997Y0148969D01*
X0183981Y0148966D01*
X0183965Y0148967D01*
X0183949Y0148972D01*
X0183935Y0148980D01*
X0183923Y0148991D01*
X0183914Y0149005D01*
X0183909Y0149020D01*
X0183907Y0149036D01*
X0183907Y0147068D02*
X0183909Y0147084D01*
X0183914Y0147099D01*
X0183923Y0147113D01*
X0183935Y0147124D01*
X0183949Y0147132D01*
X0183965Y0147137D01*
X0183981Y0147138D01*
X0183997Y0147135D01*
X0184012Y0147129D01*
X0184025Y0147119D01*
X0184035Y0147106D01*
X0184043Y0147092D01*
X0184047Y0147076D01*
X0184047Y0147060D01*
X0184043Y0147044D01*
X0184035Y0147030D01*
X0184025Y0147017D01*
X0184012Y0147007D01*
X0183997Y0147001D01*
X0183981Y0146998D01*
X0183965Y0146999D01*
X0183949Y0147004D01*
X0183935Y0147012D01*
X0183923Y0147023D01*
X0183914Y0147037D01*
X0183909Y0147052D01*
X0183907Y0147068D01*
X0183907Y0145099D02*
X0183909Y0145115D01*
X0183914Y0145130D01*
X0183923Y0145144D01*
X0183935Y0145155D01*
X0183949Y0145163D01*
X0183965Y0145168D01*
X0183981Y0145169D01*
X0183997Y0145166D01*
X0184012Y0145160D01*
X0184025Y0145150D01*
X0184035Y0145137D01*
X0184043Y0145123D01*
X0184047Y0145107D01*
X0184047Y0145091D01*
X0184043Y0145075D01*
X0184035Y0145061D01*
X0184025Y0145048D01*
X0184012Y0145038D01*
X0183997Y0145032D01*
X0183981Y0145029D01*
X0183965Y0145030D01*
X0183949Y0145035D01*
X0183935Y0145043D01*
X0183923Y0145054D01*
X0183914Y0145068D01*
X0183909Y0145083D01*
X0183907Y0145099D01*
X0181812Y0143032D02*
X0181814Y0143051D01*
X0181819Y0143070D01*
X0181829Y0143086D01*
X0181841Y0143101D01*
X0181856Y0143113D01*
X0181872Y0143123D01*
X0181891Y0143128D01*
X0181910Y0143130D01*
X0181929Y0143128D01*
X0181948Y0143123D01*
X0181964Y0143113D01*
X0181979Y0143101D01*
X0181991Y0143086D01*
X0182001Y0143070D01*
X0182006Y0143051D01*
X0182008Y0143032D01*
X0182006Y0143013D01*
X0182001Y0142994D01*
X0181991Y0142978D01*
X0181979Y0142963D01*
X0181964Y0142951D01*
X0181948Y0142941D01*
X0181929Y0142936D01*
X0181910Y0142934D01*
X0181891Y0142936D01*
X0181872Y0142941D01*
X0181856Y0142951D01*
X0181841Y0142963D01*
X0181829Y0142978D01*
X0181819Y0142994D01*
X0181814Y0143013D01*
X0181812Y0143032D01*
X0179893Y0143032D02*
X0179895Y0143045D01*
X0179900Y0143057D01*
X0179909Y0143068D01*
X0179919Y0143076D01*
X0179932Y0143080D01*
X0179945Y0143081D01*
X0179958Y0143078D01*
X0179970Y0143072D01*
X0179980Y0143063D01*
X0179987Y0143052D01*
X0179991Y0143039D01*
X0179991Y0143025D01*
X0179987Y0143012D01*
X0179980Y0143001D01*
X0179970Y0142992D01*
X0179958Y0142986D01*
X0179945Y0142983D01*
X0179932Y0142984D01*
X0179919Y0142988D01*
X0179909Y0142996D01*
X0179900Y0143007D01*
X0179895Y0143019D01*
X0179893Y0143032D01*
X0240895Y0144115D02*
X0240897Y0144131D01*
X0240902Y0144146D01*
X0240911Y0144160D01*
X0240923Y0144171D01*
X0240937Y0144179D01*
X0240953Y0144184D01*
X0240969Y0144185D01*
X0240985Y0144182D01*
X0241000Y0144176D01*
X0241013Y0144166D01*
X0241023Y0144153D01*
X0241031Y0144139D01*
X0241035Y0144123D01*
X0241035Y0144107D01*
X0241031Y0144091D01*
X0241023Y0144077D01*
X0241013Y0144064D01*
X0241000Y0144054D01*
X0240985Y0144048D01*
X0240969Y0144045D01*
X0240953Y0144046D01*
X0240937Y0144051D01*
X0240923Y0144059D01*
X0240911Y0144070D01*
X0240902Y0144084D01*
X0240897Y0144099D01*
X0240895Y0144115D01*
X0240916Y0146083D02*
X0240918Y0146096D01*
X0240923Y0146108D01*
X0240932Y0146119D01*
X0240942Y0146127D01*
X0240955Y0146131D01*
X0240968Y0146132D01*
X0240981Y0146129D01*
X0240993Y0146123D01*
X0241003Y0146114D01*
X0241010Y0146103D01*
X0241014Y0146090D01*
X0241014Y0146076D01*
X0241010Y0146063D01*
X0241003Y0146052D01*
X0240993Y0146043D01*
X0240981Y0146037D01*
X0240968Y0146034D01*
X0240955Y0146035D01*
X0240942Y0146039D01*
X0240932Y0146047D01*
X0240923Y0146058D01*
X0240918Y0146070D01*
X0240916Y0146083D01*
X0240916Y0148052D02*
X0240918Y0148065D01*
X0240923Y0148077D01*
X0240932Y0148088D01*
X0240942Y0148096D01*
X0240955Y0148100D01*
X0240968Y0148101D01*
X0240981Y0148098D01*
X0240993Y0148092D01*
X0241003Y0148083D01*
X0241010Y0148072D01*
X0241014Y0148059D01*
X0241014Y0148045D01*
X0241010Y0148032D01*
X0241003Y0148021D01*
X0240993Y0148012D01*
X0240981Y0148006D01*
X0240968Y0148003D01*
X0240955Y0148004D01*
X0240942Y0148008D01*
X0240932Y0148016D01*
X0240923Y0148027D01*
X0240918Y0148039D01*
X0240916Y0148052D01*
X0242885Y0149036D02*
X0242887Y0149049D01*
X0242892Y0149061D01*
X0242901Y0149072D01*
X0242911Y0149080D01*
X0242924Y0149084D01*
X0242937Y0149085D01*
X0242950Y0149082D01*
X0242962Y0149076D01*
X0242972Y0149067D01*
X0242979Y0149056D01*
X0242983Y0149043D01*
X0242983Y0149029D01*
X0242979Y0149016D01*
X0242972Y0149005D01*
X0242962Y0148996D01*
X0242950Y0148990D01*
X0242937Y0148987D01*
X0242924Y0148988D01*
X0242911Y0148992D01*
X0242901Y0149000D01*
X0242892Y0149011D01*
X0242887Y0149023D01*
X0242885Y0149036D01*
X0244853Y0149036D02*
X0244855Y0149049D01*
X0244860Y0149061D01*
X0244869Y0149072D01*
X0244879Y0149080D01*
X0244892Y0149084D01*
X0244905Y0149085D01*
X0244918Y0149082D01*
X0244930Y0149076D01*
X0244940Y0149067D01*
X0244947Y0149056D01*
X0244951Y0149043D01*
X0244951Y0149029D01*
X0244947Y0149016D01*
X0244940Y0149005D01*
X0244930Y0148996D01*
X0244918Y0148990D01*
X0244905Y0148987D01*
X0244892Y0148988D01*
X0244879Y0148992D01*
X0244869Y0149000D01*
X0244860Y0149011D01*
X0244855Y0149023D01*
X0244853Y0149036D01*
X0246899Y0149036D02*
X0246901Y0149052D01*
X0246906Y0149067D01*
X0246915Y0149081D01*
X0246927Y0149092D01*
X0246941Y0149100D01*
X0246957Y0149105D01*
X0246973Y0149106D01*
X0246989Y0149103D01*
X0247004Y0149097D01*
X0247017Y0149087D01*
X0247027Y0149074D01*
X0247035Y0149060D01*
X0247039Y0149044D01*
X0247039Y0149028D01*
X0247035Y0149012D01*
X0247027Y0148998D01*
X0247017Y0148985D01*
X0247004Y0148975D01*
X0246989Y0148969D01*
X0246973Y0148966D01*
X0246957Y0148967D01*
X0246941Y0148972D01*
X0246927Y0148980D01*
X0246915Y0148991D01*
X0246906Y0149005D01*
X0246901Y0149020D01*
X0246899Y0149036D01*
X0246899Y0147068D02*
X0246901Y0147084D01*
X0246906Y0147099D01*
X0246915Y0147113D01*
X0246927Y0147124D01*
X0246941Y0147132D01*
X0246957Y0147137D01*
X0246973Y0147138D01*
X0246989Y0147135D01*
X0247004Y0147129D01*
X0247017Y0147119D01*
X0247027Y0147106D01*
X0247035Y0147092D01*
X0247039Y0147076D01*
X0247039Y0147060D01*
X0247035Y0147044D01*
X0247027Y0147030D01*
X0247017Y0147017D01*
X0247004Y0147007D01*
X0246989Y0147001D01*
X0246973Y0146998D01*
X0246957Y0146999D01*
X0246941Y0147004D01*
X0246927Y0147012D01*
X0246915Y0147023D01*
X0246906Y0147037D01*
X0246901Y0147052D01*
X0246899Y0147068D01*
X0246899Y0145099D02*
X0246901Y0145115D01*
X0246906Y0145130D01*
X0246915Y0145144D01*
X0246927Y0145155D01*
X0246941Y0145163D01*
X0246957Y0145168D01*
X0246973Y0145169D01*
X0246989Y0145166D01*
X0247004Y0145160D01*
X0247017Y0145150D01*
X0247027Y0145137D01*
X0247035Y0145123D01*
X0247039Y0145107D01*
X0247039Y0145091D01*
X0247035Y0145075D01*
X0247027Y0145061D01*
X0247017Y0145048D01*
X0247004Y0145038D01*
X0246989Y0145032D01*
X0246973Y0145029D01*
X0246957Y0145030D01*
X0246941Y0145035D01*
X0246927Y0145043D01*
X0246915Y0145054D01*
X0246906Y0145068D01*
X0246901Y0145083D01*
X0246899Y0145099D01*
X0244804Y0143032D02*
X0244806Y0143051D01*
X0244811Y0143070D01*
X0244821Y0143086D01*
X0244833Y0143101D01*
X0244848Y0143113D01*
X0244864Y0143123D01*
X0244883Y0143128D01*
X0244902Y0143130D01*
X0244921Y0143128D01*
X0244940Y0143123D01*
X0244956Y0143113D01*
X0244971Y0143101D01*
X0244983Y0143086D01*
X0244993Y0143070D01*
X0244998Y0143051D01*
X0245000Y0143032D01*
X0244998Y0143013D01*
X0244993Y0142994D01*
X0244983Y0142978D01*
X0244971Y0142963D01*
X0244956Y0142951D01*
X0244940Y0142941D01*
X0244921Y0142936D01*
X0244902Y0142934D01*
X0244883Y0142936D01*
X0244864Y0142941D01*
X0244848Y0142951D01*
X0244833Y0142963D01*
X0244821Y0142978D01*
X0244811Y0142994D01*
X0244806Y0143013D01*
X0244804Y0143032D01*
X0242885Y0143032D02*
X0242887Y0143045D01*
X0242892Y0143057D01*
X0242901Y0143068D01*
X0242911Y0143076D01*
X0242924Y0143080D01*
X0242937Y0143081D01*
X0242950Y0143078D01*
X0242962Y0143072D01*
X0242972Y0143063D01*
X0242979Y0143052D01*
X0242983Y0143039D01*
X0242983Y0143025D01*
X0242979Y0143012D01*
X0242972Y0143001D01*
X0242962Y0142992D01*
X0242950Y0142986D01*
X0242937Y0142983D01*
X0242924Y0142984D01*
X0242911Y0142988D01*
X0242901Y0142996D01*
X0242892Y0143007D01*
X0242887Y0143019D01*
X0242885Y0143032D01*
X0307824Y0144115D02*
X0307826Y0144131D01*
X0307831Y0144146D01*
X0307840Y0144160D01*
X0307852Y0144171D01*
X0307866Y0144179D01*
X0307882Y0144184D01*
X0307898Y0144185D01*
X0307914Y0144182D01*
X0307929Y0144176D01*
X0307942Y0144166D01*
X0307952Y0144153D01*
X0307960Y0144139D01*
X0307964Y0144123D01*
X0307964Y0144107D01*
X0307960Y0144091D01*
X0307952Y0144077D01*
X0307942Y0144064D01*
X0307929Y0144054D01*
X0307914Y0144048D01*
X0307898Y0144045D01*
X0307882Y0144046D01*
X0307866Y0144051D01*
X0307852Y0144059D01*
X0307840Y0144070D01*
X0307831Y0144084D01*
X0307826Y0144099D01*
X0307824Y0144115D01*
X0307845Y0146083D02*
X0307847Y0146096D01*
X0307852Y0146108D01*
X0307861Y0146119D01*
X0307871Y0146127D01*
X0307884Y0146131D01*
X0307897Y0146132D01*
X0307910Y0146129D01*
X0307922Y0146123D01*
X0307932Y0146114D01*
X0307939Y0146103D01*
X0307943Y0146090D01*
X0307943Y0146076D01*
X0307939Y0146063D01*
X0307932Y0146052D01*
X0307922Y0146043D01*
X0307910Y0146037D01*
X0307897Y0146034D01*
X0307884Y0146035D01*
X0307871Y0146039D01*
X0307861Y0146047D01*
X0307852Y0146058D01*
X0307847Y0146070D01*
X0307845Y0146083D01*
X0307845Y0148052D02*
X0307847Y0148065D01*
X0307852Y0148077D01*
X0307861Y0148088D01*
X0307871Y0148096D01*
X0307884Y0148100D01*
X0307897Y0148101D01*
X0307910Y0148098D01*
X0307922Y0148092D01*
X0307932Y0148083D01*
X0307939Y0148072D01*
X0307943Y0148059D01*
X0307943Y0148045D01*
X0307939Y0148032D01*
X0307932Y0148021D01*
X0307922Y0148012D01*
X0307910Y0148006D01*
X0307897Y0148003D01*
X0307884Y0148004D01*
X0307871Y0148008D01*
X0307861Y0148016D01*
X0307852Y0148027D01*
X0307847Y0148039D01*
X0307845Y0148052D01*
X0309814Y0149036D02*
X0309816Y0149049D01*
X0309821Y0149061D01*
X0309830Y0149072D01*
X0309840Y0149080D01*
X0309853Y0149084D01*
X0309866Y0149085D01*
X0309879Y0149082D01*
X0309891Y0149076D01*
X0309901Y0149067D01*
X0309908Y0149056D01*
X0309912Y0149043D01*
X0309912Y0149029D01*
X0309908Y0149016D01*
X0309901Y0149005D01*
X0309891Y0148996D01*
X0309879Y0148990D01*
X0309866Y0148987D01*
X0309853Y0148988D01*
X0309840Y0148992D01*
X0309830Y0149000D01*
X0309821Y0149011D01*
X0309816Y0149023D01*
X0309814Y0149036D01*
X0311782Y0149036D02*
X0311784Y0149049D01*
X0311789Y0149061D01*
X0311798Y0149072D01*
X0311808Y0149080D01*
X0311821Y0149084D01*
X0311834Y0149085D01*
X0311847Y0149082D01*
X0311859Y0149076D01*
X0311869Y0149067D01*
X0311876Y0149056D01*
X0311880Y0149043D01*
X0311880Y0149029D01*
X0311876Y0149016D01*
X0311869Y0149005D01*
X0311859Y0148996D01*
X0311847Y0148990D01*
X0311834Y0148987D01*
X0311821Y0148988D01*
X0311808Y0148992D01*
X0311798Y0149000D01*
X0311789Y0149011D01*
X0311784Y0149023D01*
X0311782Y0149036D01*
X0313828Y0149036D02*
X0313830Y0149052D01*
X0313835Y0149067D01*
X0313844Y0149081D01*
X0313856Y0149092D01*
X0313870Y0149100D01*
X0313886Y0149105D01*
X0313902Y0149106D01*
X0313918Y0149103D01*
X0313933Y0149097D01*
X0313946Y0149087D01*
X0313956Y0149074D01*
X0313964Y0149060D01*
X0313968Y0149044D01*
X0313968Y0149028D01*
X0313964Y0149012D01*
X0313956Y0148998D01*
X0313946Y0148985D01*
X0313933Y0148975D01*
X0313918Y0148969D01*
X0313902Y0148966D01*
X0313886Y0148967D01*
X0313870Y0148972D01*
X0313856Y0148980D01*
X0313844Y0148991D01*
X0313835Y0149005D01*
X0313830Y0149020D01*
X0313828Y0149036D01*
X0313828Y0147068D02*
X0313830Y0147084D01*
X0313835Y0147099D01*
X0313844Y0147113D01*
X0313856Y0147124D01*
X0313870Y0147132D01*
X0313886Y0147137D01*
X0313902Y0147138D01*
X0313918Y0147135D01*
X0313933Y0147129D01*
X0313946Y0147119D01*
X0313956Y0147106D01*
X0313964Y0147092D01*
X0313968Y0147076D01*
X0313968Y0147060D01*
X0313964Y0147044D01*
X0313956Y0147030D01*
X0313946Y0147017D01*
X0313933Y0147007D01*
X0313918Y0147001D01*
X0313902Y0146998D01*
X0313886Y0146999D01*
X0313870Y0147004D01*
X0313856Y0147012D01*
X0313844Y0147023D01*
X0313835Y0147037D01*
X0313830Y0147052D01*
X0313828Y0147068D01*
X0313828Y0145099D02*
X0313830Y0145115D01*
X0313835Y0145130D01*
X0313844Y0145144D01*
X0313856Y0145155D01*
X0313870Y0145163D01*
X0313886Y0145168D01*
X0313902Y0145169D01*
X0313918Y0145166D01*
X0313933Y0145160D01*
X0313946Y0145150D01*
X0313956Y0145137D01*
X0313964Y0145123D01*
X0313968Y0145107D01*
X0313968Y0145091D01*
X0313964Y0145075D01*
X0313956Y0145061D01*
X0313946Y0145048D01*
X0313933Y0145038D01*
X0313918Y0145032D01*
X0313902Y0145029D01*
X0313886Y0145030D01*
X0313870Y0145035D01*
X0313856Y0145043D01*
X0313844Y0145054D01*
X0313835Y0145068D01*
X0313830Y0145083D01*
X0313828Y0145099D01*
X0311733Y0143032D02*
X0311735Y0143051D01*
X0311740Y0143070D01*
X0311750Y0143086D01*
X0311762Y0143101D01*
X0311777Y0143113D01*
X0311793Y0143123D01*
X0311812Y0143128D01*
X0311831Y0143130D01*
X0311850Y0143128D01*
X0311869Y0143123D01*
X0311885Y0143113D01*
X0311900Y0143101D01*
X0311912Y0143086D01*
X0311922Y0143070D01*
X0311927Y0143051D01*
X0311929Y0143032D01*
X0311927Y0143013D01*
X0311922Y0142994D01*
X0311912Y0142978D01*
X0311900Y0142963D01*
X0311885Y0142951D01*
X0311869Y0142941D01*
X0311850Y0142936D01*
X0311831Y0142934D01*
X0311812Y0142936D01*
X0311793Y0142941D01*
X0311777Y0142951D01*
X0311762Y0142963D01*
X0311750Y0142978D01*
X0311740Y0142994D01*
X0311735Y0143013D01*
X0311733Y0143032D01*
X0309814Y0143032D02*
X0309816Y0143045D01*
X0309821Y0143057D01*
X0309830Y0143068D01*
X0309840Y0143076D01*
X0309853Y0143080D01*
X0309866Y0143081D01*
X0309879Y0143078D01*
X0309891Y0143072D01*
X0309901Y0143063D01*
X0309908Y0143052D01*
X0309912Y0143039D01*
X0309912Y0143025D01*
X0309908Y0143012D01*
X0309901Y0143001D01*
X0309891Y0142992D01*
X0309879Y0142986D01*
X0309866Y0142983D01*
X0309853Y0142984D01*
X0309840Y0142988D01*
X0309830Y0142996D01*
X0309821Y0143007D01*
X0309816Y0143019D01*
X0309814Y0143032D01*
X0309814Y0190276D02*
X0309816Y0190289D01*
X0309821Y0190301D01*
X0309830Y0190312D01*
X0309840Y0190320D01*
X0309853Y0190324D01*
X0309866Y0190325D01*
X0309879Y0190322D01*
X0309891Y0190316D01*
X0309901Y0190307D01*
X0309908Y0190296D01*
X0309912Y0190283D01*
X0309912Y0190269D01*
X0309908Y0190256D01*
X0309901Y0190245D01*
X0309891Y0190236D01*
X0309879Y0190230D01*
X0309866Y0190227D01*
X0309853Y0190228D01*
X0309840Y0190232D01*
X0309830Y0190240D01*
X0309821Y0190251D01*
X0309816Y0190263D01*
X0309814Y0190276D01*
X0311733Y0190276D02*
X0311735Y0190295D01*
X0311740Y0190314D01*
X0311750Y0190330D01*
X0311762Y0190345D01*
X0311777Y0190357D01*
X0311793Y0190367D01*
X0311812Y0190372D01*
X0311831Y0190374D01*
X0311850Y0190372D01*
X0311869Y0190367D01*
X0311885Y0190357D01*
X0311900Y0190345D01*
X0311912Y0190330D01*
X0311922Y0190314D01*
X0311927Y0190295D01*
X0311929Y0190276D01*
X0311927Y0190257D01*
X0311922Y0190238D01*
X0311912Y0190222D01*
X0311900Y0190207D01*
X0311885Y0190195D01*
X0311869Y0190185D01*
X0311850Y0190180D01*
X0311831Y0190178D01*
X0311812Y0190180D01*
X0311793Y0190185D01*
X0311777Y0190195D01*
X0311762Y0190207D01*
X0311750Y0190222D01*
X0311740Y0190238D01*
X0311735Y0190257D01*
X0311733Y0190276D01*
X0313828Y0192343D02*
X0313830Y0192359D01*
X0313835Y0192374D01*
X0313844Y0192388D01*
X0313856Y0192399D01*
X0313870Y0192407D01*
X0313886Y0192412D01*
X0313902Y0192413D01*
X0313918Y0192410D01*
X0313933Y0192404D01*
X0313946Y0192394D01*
X0313956Y0192381D01*
X0313964Y0192367D01*
X0313968Y0192351D01*
X0313968Y0192335D01*
X0313964Y0192319D01*
X0313956Y0192305D01*
X0313946Y0192292D01*
X0313933Y0192282D01*
X0313918Y0192276D01*
X0313902Y0192273D01*
X0313886Y0192274D01*
X0313870Y0192279D01*
X0313856Y0192287D01*
X0313844Y0192298D01*
X0313835Y0192312D01*
X0313830Y0192327D01*
X0313828Y0192343D01*
X0313828Y0194312D02*
X0313830Y0194328D01*
X0313835Y0194343D01*
X0313844Y0194357D01*
X0313856Y0194368D01*
X0313870Y0194376D01*
X0313886Y0194381D01*
X0313902Y0194382D01*
X0313918Y0194379D01*
X0313933Y0194373D01*
X0313946Y0194363D01*
X0313956Y0194350D01*
X0313964Y0194336D01*
X0313968Y0194320D01*
X0313968Y0194304D01*
X0313964Y0194288D01*
X0313956Y0194274D01*
X0313946Y0194261D01*
X0313933Y0194251D01*
X0313918Y0194245D01*
X0313902Y0194242D01*
X0313886Y0194243D01*
X0313870Y0194248D01*
X0313856Y0194256D01*
X0313844Y0194267D01*
X0313835Y0194281D01*
X0313830Y0194296D01*
X0313828Y0194312D01*
X0313828Y0196280D02*
X0313830Y0196296D01*
X0313835Y0196311D01*
X0313844Y0196325D01*
X0313856Y0196336D01*
X0313870Y0196344D01*
X0313886Y0196349D01*
X0313902Y0196350D01*
X0313918Y0196347D01*
X0313933Y0196341D01*
X0313946Y0196331D01*
X0313956Y0196318D01*
X0313964Y0196304D01*
X0313968Y0196288D01*
X0313968Y0196272D01*
X0313964Y0196256D01*
X0313956Y0196242D01*
X0313946Y0196229D01*
X0313933Y0196219D01*
X0313918Y0196213D01*
X0313902Y0196210D01*
X0313886Y0196211D01*
X0313870Y0196216D01*
X0313856Y0196224D01*
X0313844Y0196235D01*
X0313835Y0196249D01*
X0313830Y0196264D01*
X0313828Y0196280D01*
X0311782Y0196280D02*
X0311784Y0196293D01*
X0311789Y0196305D01*
X0311798Y0196316D01*
X0311808Y0196324D01*
X0311821Y0196328D01*
X0311834Y0196329D01*
X0311847Y0196326D01*
X0311859Y0196320D01*
X0311869Y0196311D01*
X0311876Y0196300D01*
X0311880Y0196287D01*
X0311880Y0196273D01*
X0311876Y0196260D01*
X0311869Y0196249D01*
X0311859Y0196240D01*
X0311847Y0196234D01*
X0311834Y0196231D01*
X0311821Y0196232D01*
X0311808Y0196236D01*
X0311798Y0196244D01*
X0311789Y0196255D01*
X0311784Y0196267D01*
X0311782Y0196280D01*
X0309814Y0196280D02*
X0309816Y0196293D01*
X0309821Y0196305D01*
X0309830Y0196316D01*
X0309840Y0196324D01*
X0309853Y0196328D01*
X0309866Y0196329D01*
X0309879Y0196326D01*
X0309891Y0196320D01*
X0309901Y0196311D01*
X0309908Y0196300D01*
X0309912Y0196287D01*
X0309912Y0196273D01*
X0309908Y0196260D01*
X0309901Y0196249D01*
X0309891Y0196240D01*
X0309879Y0196234D01*
X0309866Y0196231D01*
X0309853Y0196232D01*
X0309840Y0196236D01*
X0309830Y0196244D01*
X0309821Y0196255D01*
X0309816Y0196267D01*
X0309814Y0196280D01*
X0307845Y0195296D02*
X0307847Y0195309D01*
X0307852Y0195321D01*
X0307861Y0195332D01*
X0307871Y0195340D01*
X0307884Y0195344D01*
X0307897Y0195345D01*
X0307910Y0195342D01*
X0307922Y0195336D01*
X0307932Y0195327D01*
X0307939Y0195316D01*
X0307943Y0195303D01*
X0307943Y0195289D01*
X0307939Y0195276D01*
X0307932Y0195265D01*
X0307922Y0195256D01*
X0307910Y0195250D01*
X0307897Y0195247D01*
X0307884Y0195248D01*
X0307871Y0195252D01*
X0307861Y0195260D01*
X0307852Y0195271D01*
X0307847Y0195283D01*
X0307845Y0195296D01*
X0307845Y0193328D02*
X0307847Y0193341D01*
X0307852Y0193353D01*
X0307861Y0193364D01*
X0307871Y0193372D01*
X0307884Y0193376D01*
X0307897Y0193377D01*
X0307910Y0193374D01*
X0307922Y0193368D01*
X0307932Y0193359D01*
X0307939Y0193348D01*
X0307943Y0193335D01*
X0307943Y0193321D01*
X0307939Y0193308D01*
X0307932Y0193297D01*
X0307922Y0193288D01*
X0307910Y0193282D01*
X0307897Y0193279D01*
X0307884Y0193280D01*
X0307871Y0193284D01*
X0307861Y0193292D01*
X0307852Y0193303D01*
X0307847Y0193315D01*
X0307845Y0193328D01*
X0307824Y0191359D02*
X0307826Y0191375D01*
X0307831Y0191390D01*
X0307840Y0191404D01*
X0307852Y0191415D01*
X0307866Y0191423D01*
X0307882Y0191428D01*
X0307898Y0191429D01*
X0307914Y0191426D01*
X0307929Y0191420D01*
X0307942Y0191410D01*
X0307952Y0191397D01*
X0307960Y0191383D01*
X0307964Y0191367D01*
X0307964Y0191351D01*
X0307960Y0191335D01*
X0307952Y0191321D01*
X0307942Y0191308D01*
X0307929Y0191298D01*
X0307914Y0191292D01*
X0307898Y0191289D01*
X0307882Y0191290D01*
X0307866Y0191295D01*
X0307852Y0191303D01*
X0307840Y0191314D01*
X0307831Y0191328D01*
X0307826Y0191343D01*
X0307824Y0191359D01*
X0246899Y0192343D02*
X0246901Y0192359D01*
X0246906Y0192374D01*
X0246915Y0192388D01*
X0246927Y0192399D01*
X0246941Y0192407D01*
X0246957Y0192412D01*
X0246973Y0192413D01*
X0246989Y0192410D01*
X0247004Y0192404D01*
X0247017Y0192394D01*
X0247027Y0192381D01*
X0247035Y0192367D01*
X0247039Y0192351D01*
X0247039Y0192335D01*
X0247035Y0192319D01*
X0247027Y0192305D01*
X0247017Y0192292D01*
X0247004Y0192282D01*
X0246989Y0192276D01*
X0246973Y0192273D01*
X0246957Y0192274D01*
X0246941Y0192279D01*
X0246927Y0192287D01*
X0246915Y0192298D01*
X0246906Y0192312D01*
X0246901Y0192327D01*
X0246899Y0192343D01*
X0246899Y0194312D02*
X0246901Y0194328D01*
X0246906Y0194343D01*
X0246915Y0194357D01*
X0246927Y0194368D01*
X0246941Y0194376D01*
X0246957Y0194381D01*
X0246973Y0194382D01*
X0246989Y0194379D01*
X0247004Y0194373D01*
X0247017Y0194363D01*
X0247027Y0194350D01*
X0247035Y0194336D01*
X0247039Y0194320D01*
X0247039Y0194304D01*
X0247035Y0194288D01*
X0247027Y0194274D01*
X0247017Y0194261D01*
X0247004Y0194251D01*
X0246989Y0194245D01*
X0246973Y0194242D01*
X0246957Y0194243D01*
X0246941Y0194248D01*
X0246927Y0194256D01*
X0246915Y0194267D01*
X0246906Y0194281D01*
X0246901Y0194296D01*
X0246899Y0194312D01*
X0246899Y0196280D02*
X0246901Y0196296D01*
X0246906Y0196311D01*
X0246915Y0196325D01*
X0246927Y0196336D01*
X0246941Y0196344D01*
X0246957Y0196349D01*
X0246973Y0196350D01*
X0246989Y0196347D01*
X0247004Y0196341D01*
X0247017Y0196331D01*
X0247027Y0196318D01*
X0247035Y0196304D01*
X0247039Y0196288D01*
X0247039Y0196272D01*
X0247035Y0196256D01*
X0247027Y0196242D01*
X0247017Y0196229D01*
X0247004Y0196219D01*
X0246989Y0196213D01*
X0246973Y0196210D01*
X0246957Y0196211D01*
X0246941Y0196216D01*
X0246927Y0196224D01*
X0246915Y0196235D01*
X0246906Y0196249D01*
X0246901Y0196264D01*
X0246899Y0196280D01*
X0244853Y0196280D02*
X0244855Y0196293D01*
X0244860Y0196305D01*
X0244869Y0196316D01*
X0244879Y0196324D01*
X0244892Y0196328D01*
X0244905Y0196329D01*
X0244918Y0196326D01*
X0244930Y0196320D01*
X0244940Y0196311D01*
X0244947Y0196300D01*
X0244951Y0196287D01*
X0244951Y0196273D01*
X0244947Y0196260D01*
X0244940Y0196249D01*
X0244930Y0196240D01*
X0244918Y0196234D01*
X0244905Y0196231D01*
X0244892Y0196232D01*
X0244879Y0196236D01*
X0244869Y0196244D01*
X0244860Y0196255D01*
X0244855Y0196267D01*
X0244853Y0196280D01*
X0242885Y0196280D02*
X0242887Y0196293D01*
X0242892Y0196305D01*
X0242901Y0196316D01*
X0242911Y0196324D01*
X0242924Y0196328D01*
X0242937Y0196329D01*
X0242950Y0196326D01*
X0242962Y0196320D01*
X0242972Y0196311D01*
X0242979Y0196300D01*
X0242983Y0196287D01*
X0242983Y0196273D01*
X0242979Y0196260D01*
X0242972Y0196249D01*
X0242962Y0196240D01*
X0242950Y0196234D01*
X0242937Y0196231D01*
X0242924Y0196232D01*
X0242911Y0196236D01*
X0242901Y0196244D01*
X0242892Y0196255D01*
X0242887Y0196267D01*
X0242885Y0196280D01*
X0240916Y0195296D02*
X0240918Y0195309D01*
X0240923Y0195321D01*
X0240932Y0195332D01*
X0240942Y0195340D01*
X0240955Y0195344D01*
X0240968Y0195345D01*
X0240981Y0195342D01*
X0240993Y0195336D01*
X0241003Y0195327D01*
X0241010Y0195316D01*
X0241014Y0195303D01*
X0241014Y0195289D01*
X0241010Y0195276D01*
X0241003Y0195265D01*
X0240993Y0195256D01*
X0240981Y0195250D01*
X0240968Y0195247D01*
X0240955Y0195248D01*
X0240942Y0195252D01*
X0240932Y0195260D01*
X0240923Y0195271D01*
X0240918Y0195283D01*
X0240916Y0195296D01*
X0240916Y0193328D02*
X0240918Y0193341D01*
X0240923Y0193353D01*
X0240932Y0193364D01*
X0240942Y0193372D01*
X0240955Y0193376D01*
X0240968Y0193377D01*
X0240981Y0193374D01*
X0240993Y0193368D01*
X0241003Y0193359D01*
X0241010Y0193348D01*
X0241014Y0193335D01*
X0241014Y0193321D01*
X0241010Y0193308D01*
X0241003Y0193297D01*
X0240993Y0193288D01*
X0240981Y0193282D01*
X0240968Y0193279D01*
X0240955Y0193280D01*
X0240942Y0193284D01*
X0240932Y0193292D01*
X0240923Y0193303D01*
X0240918Y0193315D01*
X0240916Y0193328D01*
X0240895Y0191359D02*
X0240897Y0191375D01*
X0240902Y0191390D01*
X0240911Y0191404D01*
X0240923Y0191415D01*
X0240937Y0191423D01*
X0240953Y0191428D01*
X0240969Y0191429D01*
X0240985Y0191426D01*
X0241000Y0191420D01*
X0241013Y0191410D01*
X0241023Y0191397D01*
X0241031Y0191383D01*
X0241035Y0191367D01*
X0241035Y0191351D01*
X0241031Y0191335D01*
X0241023Y0191321D01*
X0241013Y0191308D01*
X0241000Y0191298D01*
X0240985Y0191292D01*
X0240969Y0191289D01*
X0240953Y0191290D01*
X0240937Y0191295D01*
X0240923Y0191303D01*
X0240911Y0191314D01*
X0240902Y0191328D01*
X0240897Y0191343D01*
X0240895Y0191359D01*
X0242885Y0190276D02*
X0242887Y0190289D01*
X0242892Y0190301D01*
X0242901Y0190312D01*
X0242911Y0190320D01*
X0242924Y0190324D01*
X0242937Y0190325D01*
X0242950Y0190322D01*
X0242962Y0190316D01*
X0242972Y0190307D01*
X0242979Y0190296D01*
X0242983Y0190283D01*
X0242983Y0190269D01*
X0242979Y0190256D01*
X0242972Y0190245D01*
X0242962Y0190236D01*
X0242950Y0190230D01*
X0242937Y0190227D01*
X0242924Y0190228D01*
X0242911Y0190232D01*
X0242901Y0190240D01*
X0242892Y0190251D01*
X0242887Y0190263D01*
X0242885Y0190276D01*
X0244804Y0190276D02*
X0244806Y0190295D01*
X0244811Y0190314D01*
X0244821Y0190330D01*
X0244833Y0190345D01*
X0244848Y0190357D01*
X0244864Y0190367D01*
X0244883Y0190372D01*
X0244902Y0190374D01*
X0244921Y0190372D01*
X0244940Y0190367D01*
X0244956Y0190357D01*
X0244971Y0190345D01*
X0244983Y0190330D01*
X0244993Y0190314D01*
X0244998Y0190295D01*
X0245000Y0190276D01*
X0244998Y0190257D01*
X0244993Y0190238D01*
X0244983Y0190222D01*
X0244971Y0190207D01*
X0244956Y0190195D01*
X0244940Y0190185D01*
X0244921Y0190180D01*
X0244902Y0190178D01*
X0244883Y0190180D01*
X0244864Y0190185D01*
X0244848Y0190195D01*
X0244833Y0190207D01*
X0244821Y0190222D01*
X0244811Y0190238D01*
X0244806Y0190257D01*
X0244804Y0190276D01*
X0183907Y0192343D02*
X0183909Y0192359D01*
X0183914Y0192374D01*
X0183923Y0192388D01*
X0183935Y0192399D01*
X0183949Y0192407D01*
X0183965Y0192412D01*
X0183981Y0192413D01*
X0183997Y0192410D01*
X0184012Y0192404D01*
X0184025Y0192394D01*
X0184035Y0192381D01*
X0184043Y0192367D01*
X0184047Y0192351D01*
X0184047Y0192335D01*
X0184043Y0192319D01*
X0184035Y0192305D01*
X0184025Y0192292D01*
X0184012Y0192282D01*
X0183997Y0192276D01*
X0183981Y0192273D01*
X0183965Y0192274D01*
X0183949Y0192279D01*
X0183935Y0192287D01*
X0183923Y0192298D01*
X0183914Y0192312D01*
X0183909Y0192327D01*
X0183907Y0192343D01*
X0183907Y0194312D02*
X0183909Y0194328D01*
X0183914Y0194343D01*
X0183923Y0194357D01*
X0183935Y0194368D01*
X0183949Y0194376D01*
X0183965Y0194381D01*
X0183981Y0194382D01*
X0183997Y0194379D01*
X0184012Y0194373D01*
X0184025Y0194363D01*
X0184035Y0194350D01*
X0184043Y0194336D01*
X0184047Y0194320D01*
X0184047Y0194304D01*
X0184043Y0194288D01*
X0184035Y0194274D01*
X0184025Y0194261D01*
X0184012Y0194251D01*
X0183997Y0194245D01*
X0183981Y0194242D01*
X0183965Y0194243D01*
X0183949Y0194248D01*
X0183935Y0194256D01*
X0183923Y0194267D01*
X0183914Y0194281D01*
X0183909Y0194296D01*
X0183907Y0194312D01*
X0183907Y0196280D02*
X0183909Y0196296D01*
X0183914Y0196311D01*
X0183923Y0196325D01*
X0183935Y0196336D01*
X0183949Y0196344D01*
X0183965Y0196349D01*
X0183981Y0196350D01*
X0183997Y0196347D01*
X0184012Y0196341D01*
X0184025Y0196331D01*
X0184035Y0196318D01*
X0184043Y0196304D01*
X0184047Y0196288D01*
X0184047Y0196272D01*
X0184043Y0196256D01*
X0184035Y0196242D01*
X0184025Y0196229D01*
X0184012Y0196219D01*
X0183997Y0196213D01*
X0183981Y0196210D01*
X0183965Y0196211D01*
X0183949Y0196216D01*
X0183935Y0196224D01*
X0183923Y0196235D01*
X0183914Y0196249D01*
X0183909Y0196264D01*
X0183907Y0196280D01*
X0181861Y0196280D02*
X0181863Y0196293D01*
X0181868Y0196305D01*
X0181877Y0196316D01*
X0181887Y0196324D01*
X0181900Y0196328D01*
X0181913Y0196329D01*
X0181926Y0196326D01*
X0181938Y0196320D01*
X0181948Y0196311D01*
X0181955Y0196300D01*
X0181959Y0196287D01*
X0181959Y0196273D01*
X0181955Y0196260D01*
X0181948Y0196249D01*
X0181938Y0196240D01*
X0181926Y0196234D01*
X0181913Y0196231D01*
X0181900Y0196232D01*
X0181887Y0196236D01*
X0181877Y0196244D01*
X0181868Y0196255D01*
X0181863Y0196267D01*
X0181861Y0196280D01*
X0179893Y0196280D02*
X0179895Y0196293D01*
X0179900Y0196305D01*
X0179909Y0196316D01*
X0179919Y0196324D01*
X0179932Y0196328D01*
X0179945Y0196329D01*
X0179958Y0196326D01*
X0179970Y0196320D01*
X0179980Y0196311D01*
X0179987Y0196300D01*
X0179991Y0196287D01*
X0179991Y0196273D01*
X0179987Y0196260D01*
X0179980Y0196249D01*
X0179970Y0196240D01*
X0179958Y0196234D01*
X0179945Y0196231D01*
X0179932Y0196232D01*
X0179919Y0196236D01*
X0179909Y0196244D01*
X0179900Y0196255D01*
X0179895Y0196267D01*
X0179893Y0196280D01*
X0177924Y0195296D02*
X0177926Y0195309D01*
X0177931Y0195321D01*
X0177940Y0195332D01*
X0177950Y0195340D01*
X0177963Y0195344D01*
X0177976Y0195345D01*
X0177989Y0195342D01*
X0178001Y0195336D01*
X0178011Y0195327D01*
X0178018Y0195316D01*
X0178022Y0195303D01*
X0178022Y0195289D01*
X0178018Y0195276D01*
X0178011Y0195265D01*
X0178001Y0195256D01*
X0177989Y0195250D01*
X0177976Y0195247D01*
X0177963Y0195248D01*
X0177950Y0195252D01*
X0177940Y0195260D01*
X0177931Y0195271D01*
X0177926Y0195283D01*
X0177924Y0195296D01*
X0177924Y0193328D02*
X0177926Y0193341D01*
X0177931Y0193353D01*
X0177940Y0193364D01*
X0177950Y0193372D01*
X0177963Y0193376D01*
X0177976Y0193377D01*
X0177989Y0193374D01*
X0178001Y0193368D01*
X0178011Y0193359D01*
X0178018Y0193348D01*
X0178022Y0193335D01*
X0178022Y0193321D01*
X0178018Y0193308D01*
X0178011Y0193297D01*
X0178001Y0193288D01*
X0177989Y0193282D01*
X0177976Y0193279D01*
X0177963Y0193280D01*
X0177950Y0193284D01*
X0177940Y0193292D01*
X0177931Y0193303D01*
X0177926Y0193315D01*
X0177924Y0193328D01*
X0177903Y0191359D02*
X0177905Y0191375D01*
X0177910Y0191390D01*
X0177919Y0191404D01*
X0177931Y0191415D01*
X0177945Y0191423D01*
X0177961Y0191428D01*
X0177977Y0191429D01*
X0177993Y0191426D01*
X0178008Y0191420D01*
X0178021Y0191410D01*
X0178031Y0191397D01*
X0178039Y0191383D01*
X0178043Y0191367D01*
X0178043Y0191351D01*
X0178039Y0191335D01*
X0178031Y0191321D01*
X0178021Y0191308D01*
X0178008Y0191298D01*
X0177993Y0191292D01*
X0177977Y0191289D01*
X0177961Y0191290D01*
X0177945Y0191295D01*
X0177931Y0191303D01*
X0177919Y0191314D01*
X0177910Y0191328D01*
X0177905Y0191343D01*
X0177903Y0191359D01*
X0179893Y0190276D02*
X0179895Y0190289D01*
X0179900Y0190301D01*
X0179909Y0190312D01*
X0179919Y0190320D01*
X0179932Y0190324D01*
X0179945Y0190325D01*
X0179958Y0190322D01*
X0179970Y0190316D01*
X0179980Y0190307D01*
X0179987Y0190296D01*
X0179991Y0190283D01*
X0179991Y0190269D01*
X0179987Y0190256D01*
X0179980Y0190245D01*
X0179970Y0190236D01*
X0179958Y0190230D01*
X0179945Y0190227D01*
X0179932Y0190228D01*
X0179919Y0190232D01*
X0179909Y0190240D01*
X0179900Y0190251D01*
X0179895Y0190263D01*
X0179893Y0190276D01*
X0181812Y0190276D02*
X0181814Y0190295D01*
X0181819Y0190314D01*
X0181829Y0190330D01*
X0181841Y0190345D01*
X0181856Y0190357D01*
X0181872Y0190367D01*
X0181891Y0190372D01*
X0181910Y0190374D01*
X0181929Y0190372D01*
X0181948Y0190367D01*
X0181964Y0190357D01*
X0181979Y0190345D01*
X0181991Y0190330D01*
X0182001Y0190314D01*
X0182006Y0190295D01*
X0182008Y0190276D01*
X0182006Y0190257D01*
X0182001Y0190238D01*
X0181991Y0190222D01*
X0181979Y0190207D01*
X0181964Y0190195D01*
X0181948Y0190185D01*
X0181929Y0190180D01*
X0181910Y0190178D01*
X0181891Y0190180D01*
X0181872Y0190185D01*
X0181856Y0190195D01*
X0181841Y0190207D01*
X0181829Y0190222D01*
X0181819Y0190238D01*
X0181814Y0190257D01*
X0181812Y0190276D01*
X0116978Y0192343D02*
X0116980Y0192359D01*
X0116985Y0192374D01*
X0116994Y0192388D01*
X0117006Y0192399D01*
X0117020Y0192407D01*
X0117036Y0192412D01*
X0117052Y0192413D01*
X0117068Y0192410D01*
X0117083Y0192404D01*
X0117096Y0192394D01*
X0117106Y0192381D01*
X0117114Y0192367D01*
X0117118Y0192351D01*
X0117118Y0192335D01*
X0117114Y0192319D01*
X0117106Y0192305D01*
X0117096Y0192292D01*
X0117083Y0192282D01*
X0117068Y0192276D01*
X0117052Y0192273D01*
X0117036Y0192274D01*
X0117020Y0192279D01*
X0117006Y0192287D01*
X0116994Y0192298D01*
X0116985Y0192312D01*
X0116980Y0192327D01*
X0116978Y0192343D01*
X0116978Y0194312D02*
X0116980Y0194328D01*
X0116985Y0194343D01*
X0116994Y0194357D01*
X0117006Y0194368D01*
X0117020Y0194376D01*
X0117036Y0194381D01*
X0117052Y0194382D01*
X0117068Y0194379D01*
X0117083Y0194373D01*
X0117096Y0194363D01*
X0117106Y0194350D01*
X0117114Y0194336D01*
X0117118Y0194320D01*
X0117118Y0194304D01*
X0117114Y0194288D01*
X0117106Y0194274D01*
X0117096Y0194261D01*
X0117083Y0194251D01*
X0117068Y0194245D01*
X0117052Y0194242D01*
X0117036Y0194243D01*
X0117020Y0194248D01*
X0117006Y0194256D01*
X0116994Y0194267D01*
X0116985Y0194281D01*
X0116980Y0194296D01*
X0116978Y0194312D01*
X0116978Y0196280D02*
X0116980Y0196296D01*
X0116985Y0196311D01*
X0116994Y0196325D01*
X0117006Y0196336D01*
X0117020Y0196344D01*
X0117036Y0196349D01*
X0117052Y0196350D01*
X0117068Y0196347D01*
X0117083Y0196341D01*
X0117096Y0196331D01*
X0117106Y0196318D01*
X0117114Y0196304D01*
X0117118Y0196288D01*
X0117118Y0196272D01*
X0117114Y0196256D01*
X0117106Y0196242D01*
X0117096Y0196229D01*
X0117083Y0196219D01*
X0117068Y0196213D01*
X0117052Y0196210D01*
X0117036Y0196211D01*
X0117020Y0196216D01*
X0117006Y0196224D01*
X0116994Y0196235D01*
X0116985Y0196249D01*
X0116980Y0196264D01*
X0116978Y0196280D01*
X0114932Y0196280D02*
X0114934Y0196293D01*
X0114939Y0196305D01*
X0114948Y0196316D01*
X0114958Y0196324D01*
X0114971Y0196328D01*
X0114984Y0196329D01*
X0114997Y0196326D01*
X0115009Y0196320D01*
X0115019Y0196311D01*
X0115026Y0196300D01*
X0115030Y0196287D01*
X0115030Y0196273D01*
X0115026Y0196260D01*
X0115019Y0196249D01*
X0115009Y0196240D01*
X0114997Y0196234D01*
X0114984Y0196231D01*
X0114971Y0196232D01*
X0114958Y0196236D01*
X0114948Y0196244D01*
X0114939Y0196255D01*
X0114934Y0196267D01*
X0114932Y0196280D01*
X0112964Y0196280D02*
X0112966Y0196293D01*
X0112971Y0196305D01*
X0112980Y0196316D01*
X0112990Y0196324D01*
X0113003Y0196328D01*
X0113016Y0196329D01*
X0113029Y0196326D01*
X0113041Y0196320D01*
X0113051Y0196311D01*
X0113058Y0196300D01*
X0113062Y0196287D01*
X0113062Y0196273D01*
X0113058Y0196260D01*
X0113051Y0196249D01*
X0113041Y0196240D01*
X0113029Y0196234D01*
X0113016Y0196231D01*
X0113003Y0196232D01*
X0112990Y0196236D01*
X0112980Y0196244D01*
X0112971Y0196255D01*
X0112966Y0196267D01*
X0112964Y0196280D01*
X0110995Y0195296D02*
X0110997Y0195309D01*
X0111002Y0195321D01*
X0111011Y0195332D01*
X0111021Y0195340D01*
X0111034Y0195344D01*
X0111047Y0195345D01*
X0111060Y0195342D01*
X0111072Y0195336D01*
X0111082Y0195327D01*
X0111089Y0195316D01*
X0111093Y0195303D01*
X0111093Y0195289D01*
X0111089Y0195276D01*
X0111082Y0195265D01*
X0111072Y0195256D01*
X0111060Y0195250D01*
X0111047Y0195247D01*
X0111034Y0195248D01*
X0111021Y0195252D01*
X0111011Y0195260D01*
X0111002Y0195271D01*
X0110997Y0195283D01*
X0110995Y0195296D01*
X0110995Y0193328D02*
X0110997Y0193341D01*
X0111002Y0193353D01*
X0111011Y0193364D01*
X0111021Y0193372D01*
X0111034Y0193376D01*
X0111047Y0193377D01*
X0111060Y0193374D01*
X0111072Y0193368D01*
X0111082Y0193359D01*
X0111089Y0193348D01*
X0111093Y0193335D01*
X0111093Y0193321D01*
X0111089Y0193308D01*
X0111082Y0193297D01*
X0111072Y0193288D01*
X0111060Y0193282D01*
X0111047Y0193279D01*
X0111034Y0193280D01*
X0111021Y0193284D01*
X0111011Y0193292D01*
X0111002Y0193303D01*
X0110997Y0193315D01*
X0110995Y0193328D01*
X0110974Y0191359D02*
X0110976Y0191375D01*
X0110981Y0191390D01*
X0110990Y0191404D01*
X0111002Y0191415D01*
X0111016Y0191423D01*
X0111032Y0191428D01*
X0111048Y0191429D01*
X0111064Y0191426D01*
X0111079Y0191420D01*
X0111092Y0191410D01*
X0111102Y0191397D01*
X0111110Y0191383D01*
X0111114Y0191367D01*
X0111114Y0191351D01*
X0111110Y0191335D01*
X0111102Y0191321D01*
X0111092Y0191308D01*
X0111079Y0191298D01*
X0111064Y0191292D01*
X0111048Y0191289D01*
X0111032Y0191290D01*
X0111016Y0191295D01*
X0111002Y0191303D01*
X0110990Y0191314D01*
X0110981Y0191328D01*
X0110976Y0191343D01*
X0110974Y0191359D01*
X0112964Y0190276D02*
X0112966Y0190289D01*
X0112971Y0190301D01*
X0112980Y0190312D01*
X0112990Y0190320D01*
X0113003Y0190324D01*
X0113016Y0190325D01*
X0113029Y0190322D01*
X0113041Y0190316D01*
X0113051Y0190307D01*
X0113058Y0190296D01*
X0113062Y0190283D01*
X0113062Y0190269D01*
X0113058Y0190256D01*
X0113051Y0190245D01*
X0113041Y0190236D01*
X0113029Y0190230D01*
X0113016Y0190227D01*
X0113003Y0190228D01*
X0112990Y0190232D01*
X0112980Y0190240D01*
X0112971Y0190251D01*
X0112966Y0190263D01*
X0112964Y0190276D01*
X0114883Y0190276D02*
X0114885Y0190295D01*
X0114890Y0190314D01*
X0114900Y0190330D01*
X0114912Y0190345D01*
X0114927Y0190357D01*
X0114943Y0190367D01*
X0114962Y0190372D01*
X0114981Y0190374D01*
X0115000Y0190372D01*
X0115019Y0190367D01*
X0115035Y0190357D01*
X0115050Y0190345D01*
X0115062Y0190330D01*
X0115072Y0190314D01*
X0115077Y0190295D01*
X0115079Y0190276D01*
X0115077Y0190257D01*
X0115072Y0190238D01*
X0115062Y0190222D01*
X0115050Y0190207D01*
X0115035Y0190195D01*
X0115019Y0190185D01*
X0115000Y0190180D01*
X0114981Y0190178D01*
X0114962Y0190180D01*
X0114943Y0190185D01*
X0114927Y0190195D01*
X0114912Y0190207D01*
X0114900Y0190222D01*
X0114890Y0190238D01*
X0114885Y0190257D01*
X0114883Y0190276D01*
X0053986Y0192343D02*
X0053988Y0192359D01*
X0053993Y0192374D01*
X0054002Y0192388D01*
X0054014Y0192399D01*
X0054028Y0192407D01*
X0054044Y0192412D01*
X0054060Y0192413D01*
X0054076Y0192410D01*
X0054091Y0192404D01*
X0054104Y0192394D01*
X0054114Y0192381D01*
X0054122Y0192367D01*
X0054126Y0192351D01*
X0054126Y0192335D01*
X0054122Y0192319D01*
X0054114Y0192305D01*
X0054104Y0192292D01*
X0054091Y0192282D01*
X0054076Y0192276D01*
X0054060Y0192273D01*
X0054044Y0192274D01*
X0054028Y0192279D01*
X0054014Y0192287D01*
X0054002Y0192298D01*
X0053993Y0192312D01*
X0053988Y0192327D01*
X0053986Y0192343D01*
X0053986Y0194312D02*
X0053988Y0194328D01*
X0053993Y0194343D01*
X0054002Y0194357D01*
X0054014Y0194368D01*
X0054028Y0194376D01*
X0054044Y0194381D01*
X0054060Y0194382D01*
X0054076Y0194379D01*
X0054091Y0194373D01*
X0054104Y0194363D01*
X0054114Y0194350D01*
X0054122Y0194336D01*
X0054126Y0194320D01*
X0054126Y0194304D01*
X0054122Y0194288D01*
X0054114Y0194274D01*
X0054104Y0194261D01*
X0054091Y0194251D01*
X0054076Y0194245D01*
X0054060Y0194242D01*
X0054044Y0194243D01*
X0054028Y0194248D01*
X0054014Y0194256D01*
X0054002Y0194267D01*
X0053993Y0194281D01*
X0053988Y0194296D01*
X0053986Y0194312D01*
X0053986Y0196280D02*
X0053988Y0196296D01*
X0053993Y0196311D01*
X0054002Y0196325D01*
X0054014Y0196336D01*
X0054028Y0196344D01*
X0054044Y0196349D01*
X0054060Y0196350D01*
X0054076Y0196347D01*
X0054091Y0196341D01*
X0054104Y0196331D01*
X0054114Y0196318D01*
X0054122Y0196304D01*
X0054126Y0196288D01*
X0054126Y0196272D01*
X0054122Y0196256D01*
X0054114Y0196242D01*
X0054104Y0196229D01*
X0054091Y0196219D01*
X0054076Y0196213D01*
X0054060Y0196210D01*
X0054044Y0196211D01*
X0054028Y0196216D01*
X0054014Y0196224D01*
X0054002Y0196235D01*
X0053993Y0196249D01*
X0053988Y0196264D01*
X0053986Y0196280D01*
X0051940Y0196280D02*
X0051942Y0196293D01*
X0051947Y0196305D01*
X0051956Y0196316D01*
X0051966Y0196324D01*
X0051979Y0196328D01*
X0051992Y0196329D01*
X0052005Y0196326D01*
X0052017Y0196320D01*
X0052027Y0196311D01*
X0052034Y0196300D01*
X0052038Y0196287D01*
X0052038Y0196273D01*
X0052034Y0196260D01*
X0052027Y0196249D01*
X0052017Y0196240D01*
X0052005Y0196234D01*
X0051992Y0196231D01*
X0051979Y0196232D01*
X0051966Y0196236D01*
X0051956Y0196244D01*
X0051947Y0196255D01*
X0051942Y0196267D01*
X0051940Y0196280D01*
X0049971Y0196280D02*
X0049973Y0196293D01*
X0049978Y0196305D01*
X0049987Y0196316D01*
X0049997Y0196324D01*
X0050010Y0196328D01*
X0050023Y0196329D01*
X0050036Y0196326D01*
X0050048Y0196320D01*
X0050058Y0196311D01*
X0050065Y0196300D01*
X0050069Y0196287D01*
X0050069Y0196273D01*
X0050065Y0196260D01*
X0050058Y0196249D01*
X0050048Y0196240D01*
X0050036Y0196234D01*
X0050023Y0196231D01*
X0050010Y0196232D01*
X0049997Y0196236D01*
X0049987Y0196244D01*
X0049978Y0196255D01*
X0049973Y0196267D01*
X0049971Y0196280D01*
X0048003Y0195296D02*
X0048005Y0195309D01*
X0048010Y0195321D01*
X0048019Y0195332D01*
X0048029Y0195340D01*
X0048042Y0195344D01*
X0048055Y0195345D01*
X0048068Y0195342D01*
X0048080Y0195336D01*
X0048090Y0195327D01*
X0048097Y0195316D01*
X0048101Y0195303D01*
X0048101Y0195289D01*
X0048097Y0195276D01*
X0048090Y0195265D01*
X0048080Y0195256D01*
X0048068Y0195250D01*
X0048055Y0195247D01*
X0048042Y0195248D01*
X0048029Y0195252D01*
X0048019Y0195260D01*
X0048010Y0195271D01*
X0048005Y0195283D01*
X0048003Y0195296D01*
X0048003Y0193328D02*
X0048005Y0193341D01*
X0048010Y0193353D01*
X0048019Y0193364D01*
X0048029Y0193372D01*
X0048042Y0193376D01*
X0048055Y0193377D01*
X0048068Y0193374D01*
X0048080Y0193368D01*
X0048090Y0193359D01*
X0048097Y0193348D01*
X0048101Y0193335D01*
X0048101Y0193321D01*
X0048097Y0193308D01*
X0048090Y0193297D01*
X0048080Y0193288D01*
X0048068Y0193282D01*
X0048055Y0193279D01*
X0048042Y0193280D01*
X0048029Y0193284D01*
X0048019Y0193292D01*
X0048010Y0193303D01*
X0048005Y0193315D01*
X0048003Y0193328D01*
X0047982Y0191359D02*
X0047984Y0191375D01*
X0047989Y0191390D01*
X0047998Y0191404D01*
X0048010Y0191415D01*
X0048024Y0191423D01*
X0048040Y0191428D01*
X0048056Y0191429D01*
X0048072Y0191426D01*
X0048087Y0191420D01*
X0048100Y0191410D01*
X0048110Y0191397D01*
X0048118Y0191383D01*
X0048122Y0191367D01*
X0048122Y0191351D01*
X0048118Y0191335D01*
X0048110Y0191321D01*
X0048100Y0191308D01*
X0048087Y0191298D01*
X0048072Y0191292D01*
X0048056Y0191289D01*
X0048040Y0191290D01*
X0048024Y0191295D01*
X0048010Y0191303D01*
X0047998Y0191314D01*
X0047989Y0191328D01*
X0047984Y0191343D01*
X0047982Y0191359D01*
X0049971Y0190276D02*
X0049973Y0190289D01*
X0049978Y0190301D01*
X0049987Y0190312D01*
X0049997Y0190320D01*
X0050010Y0190324D01*
X0050023Y0190325D01*
X0050036Y0190322D01*
X0050048Y0190316D01*
X0050058Y0190307D01*
X0050065Y0190296D01*
X0050069Y0190283D01*
X0050069Y0190269D01*
X0050065Y0190256D01*
X0050058Y0190245D01*
X0050048Y0190236D01*
X0050036Y0190230D01*
X0050023Y0190227D01*
X0050010Y0190228D01*
X0049997Y0190232D01*
X0049987Y0190240D01*
X0049978Y0190251D01*
X0049973Y0190263D01*
X0049971Y0190276D01*
X0051891Y0190276D02*
X0051893Y0190295D01*
X0051898Y0190314D01*
X0051908Y0190330D01*
X0051920Y0190345D01*
X0051935Y0190357D01*
X0051951Y0190367D01*
X0051970Y0190372D01*
X0051989Y0190374D01*
X0052008Y0190372D01*
X0052027Y0190367D01*
X0052043Y0190357D01*
X0052058Y0190345D01*
X0052070Y0190330D01*
X0052080Y0190314D01*
X0052085Y0190295D01*
X0052087Y0190276D01*
X0052085Y0190257D01*
X0052080Y0190238D01*
X0052070Y0190222D01*
X0052058Y0190207D01*
X0052043Y0190195D01*
X0052027Y0190185D01*
X0052008Y0190180D01*
X0051989Y0190178D01*
X0051970Y0190180D01*
X0051951Y0190185D01*
X0051935Y0190195D01*
X0051920Y0190207D01*
X0051908Y0190222D01*
X0051898Y0190238D01*
X0051893Y0190257D01*
X0051891Y0190276D01*
M02*
