G75*
%MOIN*%
%OFA0B0*%
%FSLAX25Y25*%
%IPPOS*%
%LPD*%
%AMOC8*
5,1,8,0,0,1.08239X$1,22.5*
%
%ADD10C,0.00600*%
%ADD11C,0.03772*%
%ADD12R,0.01575X0.01575*%
%ADD13R,0.00984X0.01083*%
%ADD14R,0.01083X0.00984*%
%ADD15C,0.02978*%
D10*
X0001300Y0001300D02*
X0355631Y0001300D01*
X0355631Y0237520D01*
X0001300Y0237520D01*
X0001300Y0001300D01*
X0043623Y0044056D02*
X0047993Y0044056D01*
X0048052Y0044115D01*
X0050611Y0044115D02*
X0050709Y0044213D01*
X0050709Y0046969D01*
X0046772Y0046969D01*
X0043765Y0049977D01*
X0043623Y0049977D01*
X0050611Y0049824D02*
X0050611Y0052186D01*
X0050709Y0052284D01*
X0055631Y0052284D01*
X0055631Y0049922D01*
X0055729Y0049824D01*
X0060068Y0049824D01*
X0060221Y0049977D01*
X0055631Y0046772D02*
X0055631Y0044213D01*
X0055729Y0044115D01*
X0060162Y0044115D01*
X0060221Y0044056D01*
X0055631Y0046772D02*
X0055434Y0046969D01*
X0054056Y0046969D01*
X0053170Y0047855D01*
X0053170Y0049824D01*
X0106615Y0049977D02*
X0106757Y0049977D01*
X0109765Y0046969D01*
X0113702Y0046969D01*
X0113702Y0044213D01*
X0113603Y0044115D01*
X0111044Y0044115D02*
X0110985Y0044056D01*
X0106615Y0044056D01*
X0113603Y0049824D02*
X0113603Y0052186D01*
X0113702Y0052284D01*
X0118623Y0052284D01*
X0118623Y0049922D01*
X0118721Y0049824D01*
X0123060Y0049824D01*
X0123213Y0049977D01*
X0118623Y0046772D02*
X0118623Y0044213D01*
X0118721Y0044115D01*
X0123154Y0044115D01*
X0123213Y0044056D01*
X0118623Y0046772D02*
X0118426Y0046969D01*
X0117048Y0046969D01*
X0116162Y0047855D01*
X0116162Y0049824D01*
X0173544Y0049977D02*
X0173686Y0049977D01*
X0176694Y0046969D01*
X0180631Y0046969D01*
X0180631Y0044213D01*
X0180532Y0044115D01*
X0177973Y0044115D02*
X0177914Y0044056D01*
X0173544Y0044056D01*
X0180532Y0049824D02*
X0180532Y0052186D01*
X0180631Y0052284D01*
X0185552Y0052284D01*
X0185552Y0049922D01*
X0185650Y0049824D01*
X0189989Y0049824D01*
X0190143Y0049977D01*
X0185552Y0046772D02*
X0185552Y0044213D01*
X0185650Y0044115D01*
X0190083Y0044115D01*
X0190143Y0044056D01*
X0185552Y0046772D02*
X0185355Y0046969D01*
X0183977Y0046969D01*
X0183091Y0047855D01*
X0183091Y0049824D01*
X0236536Y0049977D02*
X0236678Y0049977D01*
X0239686Y0046969D01*
X0243623Y0046969D01*
X0243623Y0044213D01*
X0243524Y0044115D01*
X0240965Y0044115D02*
X0240906Y0044056D01*
X0236536Y0044056D01*
X0243524Y0049824D02*
X0243524Y0052186D01*
X0243623Y0052284D01*
X0248544Y0052284D01*
X0248544Y0049922D01*
X0248643Y0049824D01*
X0252981Y0049824D01*
X0253135Y0049977D01*
X0248544Y0046772D02*
X0248544Y0044213D01*
X0248643Y0044115D01*
X0253076Y0044115D01*
X0253135Y0044056D01*
X0248544Y0046772D02*
X0248347Y0046969D01*
X0246969Y0046969D01*
X0246083Y0047855D01*
X0246083Y0049824D01*
X0303465Y0049977D02*
X0303607Y0049977D01*
X0306615Y0046969D01*
X0310552Y0046969D01*
X0310552Y0044213D01*
X0310454Y0044115D01*
X0307894Y0044115D02*
X0307835Y0044056D01*
X0303465Y0044056D01*
X0310454Y0049824D02*
X0310454Y0052186D01*
X0310552Y0052284D01*
X0315473Y0052284D01*
X0315473Y0049922D01*
X0315572Y0049824D01*
X0319910Y0049824D01*
X0320064Y0049977D01*
X0315473Y0046772D02*
X0315473Y0044213D01*
X0315572Y0044115D01*
X0320005Y0044115D01*
X0320064Y0044056D01*
X0315473Y0046772D02*
X0315276Y0046969D01*
X0313898Y0046969D01*
X0313013Y0047855D01*
X0313013Y0049824D01*
X0315572Y0091359D02*
X0320005Y0091359D01*
X0320064Y0091300D01*
X0315572Y0091359D02*
X0315473Y0091457D01*
X0315473Y0094017D01*
X0315276Y0094213D01*
X0313898Y0094213D01*
X0313013Y0095099D01*
X0313013Y0097068D01*
X0315473Y0097166D02*
X0315473Y0099528D01*
X0310552Y0099528D01*
X0310454Y0099430D01*
X0310454Y0097068D01*
X0310552Y0094213D02*
X0306615Y0094213D01*
X0303607Y0097221D01*
X0303465Y0097221D01*
X0303465Y0091300D02*
X0307835Y0091300D01*
X0307894Y0091359D01*
X0310454Y0091359D02*
X0310552Y0091457D01*
X0310552Y0094213D01*
X0315473Y0097166D02*
X0315572Y0097068D01*
X0319910Y0097068D01*
X0320064Y0097221D01*
X0317284Y0142206D02*
X0314883Y0142245D01*
X0312914Y0142245D01*
X0311585Y0143574D01*
X0311339Y0143574D01*
X0312914Y0144607D02*
X0311536Y0145985D01*
X0311536Y0146410D01*
X0311916Y0147441D01*
X0312443Y0147968D01*
X0312781Y0147968D01*
X0313357Y0148544D01*
X0314686Y0147166D02*
X0313357Y0146576D01*
X0314686Y0147166D02*
X0315276Y0148544D01*
X0317245Y0151024D01*
X0317245Y0151054D01*
X0311339Y0149578D02*
X0309961Y0145837D01*
X0309371Y0143574D01*
X0308368Y0144576D01*
X0307384Y0144576D01*
X0307353Y0144607D01*
X0306024Y0144607D01*
X0303662Y0142186D01*
X0307353Y0144607D02*
X0308337Y0144607D01*
X0308368Y0144576D01*
X0307353Y0146576D02*
X0301694Y0146576D01*
X0303780Y0151024D02*
X0304253Y0151103D01*
X0307993Y0151103D01*
X0309371Y0149725D01*
X0309371Y0149578D01*
X0307353Y0148544D02*
X0307353Y0146576D01*
X0312914Y0144607D02*
X0313357Y0144607D01*
X0314932Y0144607D01*
X0317442Y0146576D01*
X0317284Y0189450D02*
X0314883Y0189489D01*
X0312914Y0189489D01*
X0311585Y0190818D01*
X0311339Y0190818D01*
X0312914Y0191851D02*
X0311536Y0193229D01*
X0311536Y0193654D01*
X0311916Y0194685D01*
X0312443Y0195212D01*
X0312781Y0195212D01*
X0313357Y0195788D01*
X0314686Y0194410D02*
X0313357Y0193820D01*
X0314686Y0194410D02*
X0315276Y0195788D01*
X0317245Y0198269D01*
X0317245Y0198298D01*
X0311339Y0196822D02*
X0309961Y0193081D01*
X0309371Y0190818D01*
X0308368Y0191820D01*
X0307384Y0191820D01*
X0307353Y0191851D01*
X0306024Y0191851D01*
X0303662Y0189430D01*
X0307353Y0191851D02*
X0308337Y0191851D01*
X0308368Y0191820D01*
X0307353Y0193820D02*
X0301694Y0193820D01*
X0303780Y0198269D02*
X0304253Y0198347D01*
X0307993Y0198347D01*
X0309371Y0196969D01*
X0309371Y0196822D01*
X0307353Y0195788D02*
X0307353Y0193820D01*
X0312914Y0191851D02*
X0313357Y0191851D01*
X0314932Y0191851D01*
X0317442Y0193820D01*
X0250513Y0193820D02*
X0248003Y0191851D01*
X0246428Y0191851D01*
X0245985Y0191851D01*
X0244607Y0193229D01*
X0244607Y0193654D01*
X0244987Y0194685D01*
X0245514Y0195212D01*
X0245852Y0195212D01*
X0246428Y0195788D01*
X0247757Y0194410D02*
X0248347Y0195788D01*
X0250316Y0198269D01*
X0250316Y0198298D01*
X0247757Y0194410D02*
X0246428Y0193820D01*
X0243032Y0193081D02*
X0242442Y0190818D01*
X0241439Y0191820D01*
X0240455Y0191820D01*
X0240424Y0191851D01*
X0239095Y0191851D01*
X0236733Y0189430D01*
X0240424Y0191851D02*
X0241408Y0191851D01*
X0241439Y0191820D01*
X0243032Y0193081D02*
X0244410Y0196822D01*
X0242442Y0196822D02*
X0242442Y0196969D01*
X0241064Y0198347D01*
X0237324Y0198347D01*
X0236851Y0198269D01*
X0240424Y0195788D02*
X0240424Y0193820D01*
X0234765Y0193820D01*
X0244410Y0190818D02*
X0244656Y0190818D01*
X0245985Y0189489D01*
X0247954Y0189489D01*
X0250355Y0189450D01*
X0250316Y0151054D02*
X0250316Y0151024D01*
X0248347Y0148544D01*
X0247757Y0147166D01*
X0246428Y0146576D01*
X0245852Y0147968D02*
X0246428Y0148544D01*
X0245852Y0147968D02*
X0245514Y0147968D01*
X0244987Y0147441D01*
X0244607Y0146410D01*
X0244607Y0145985D01*
X0245985Y0144607D01*
X0246428Y0144607D01*
X0248003Y0144607D01*
X0250513Y0146576D01*
X0250355Y0142206D02*
X0247954Y0142245D01*
X0245985Y0142245D01*
X0244656Y0143574D01*
X0244410Y0143574D01*
X0242442Y0143574D02*
X0243032Y0145837D01*
X0244410Y0149578D01*
X0242442Y0149578D02*
X0242442Y0149725D01*
X0241064Y0151103D01*
X0237324Y0151103D01*
X0236851Y0151024D01*
X0240424Y0148544D02*
X0240424Y0146576D01*
X0234765Y0146576D01*
X0239095Y0144607D02*
X0236733Y0142186D01*
X0239095Y0144607D02*
X0240424Y0144607D01*
X0240455Y0144576D01*
X0241439Y0144576D01*
X0242442Y0143574D01*
X0241439Y0144576D02*
X0241408Y0144607D01*
X0240424Y0144607D01*
X0187520Y0146576D02*
X0185011Y0144607D01*
X0183436Y0144607D01*
X0182993Y0144607D01*
X0181615Y0145985D01*
X0181615Y0146410D01*
X0181994Y0147441D01*
X0182522Y0147968D01*
X0182859Y0147968D01*
X0183436Y0148544D01*
X0184765Y0147166D02*
X0185355Y0148544D01*
X0187324Y0151024D01*
X0187324Y0151054D01*
X0184765Y0147166D02*
X0183436Y0146576D01*
X0180040Y0145837D02*
X0179450Y0143574D01*
X0178447Y0144576D01*
X0177463Y0144576D01*
X0177432Y0144607D01*
X0176103Y0144607D01*
X0173741Y0142186D01*
X0177432Y0144607D02*
X0178416Y0144607D01*
X0178447Y0144576D01*
X0180040Y0145837D02*
X0181418Y0149578D01*
X0179450Y0149578D02*
X0179450Y0149725D01*
X0178072Y0151103D01*
X0174331Y0151103D01*
X0173859Y0151024D01*
X0177432Y0148544D02*
X0177432Y0146576D01*
X0171772Y0146576D01*
X0181418Y0143574D02*
X0181664Y0143574D01*
X0182993Y0142245D01*
X0184961Y0142245D01*
X0187363Y0142206D01*
X0185552Y0099528D02*
X0180631Y0099528D01*
X0180532Y0099430D01*
X0180532Y0097068D01*
X0183091Y0097068D02*
X0183091Y0095099D01*
X0183977Y0094213D01*
X0185355Y0094213D01*
X0185552Y0094017D01*
X0185552Y0091457D01*
X0185650Y0091359D01*
X0190083Y0091359D01*
X0190143Y0091300D01*
X0189989Y0097068D02*
X0185650Y0097068D01*
X0185552Y0097166D01*
X0185552Y0099528D01*
X0189989Y0097068D02*
X0190143Y0097221D01*
X0180631Y0094213D02*
X0180631Y0091457D01*
X0180532Y0091359D01*
X0177973Y0091359D02*
X0177914Y0091300D01*
X0173544Y0091300D01*
X0176694Y0094213D02*
X0180631Y0094213D01*
X0176694Y0094213D02*
X0173686Y0097221D01*
X0173544Y0097221D01*
X0123213Y0097221D02*
X0123060Y0097068D01*
X0118721Y0097068D01*
X0118623Y0097166D01*
X0118623Y0099528D01*
X0113702Y0099528D01*
X0113603Y0099430D01*
X0113603Y0097068D01*
X0116162Y0097068D02*
X0116162Y0095099D01*
X0117048Y0094213D01*
X0118426Y0094213D01*
X0118623Y0094017D01*
X0118623Y0091457D01*
X0118721Y0091359D01*
X0123154Y0091359D01*
X0123213Y0091300D01*
X0113702Y0091457D02*
X0113603Y0091359D01*
X0113702Y0091457D02*
X0113702Y0094213D01*
X0109765Y0094213D01*
X0106757Y0097221D01*
X0106615Y0097221D01*
X0106615Y0091300D02*
X0110985Y0091300D01*
X0111044Y0091359D01*
X0060221Y0091300D02*
X0060162Y0091359D01*
X0055729Y0091359D01*
X0055631Y0091457D01*
X0055631Y0094017D01*
X0055434Y0094213D01*
X0054056Y0094213D01*
X0053170Y0095099D01*
X0053170Y0097068D01*
X0055631Y0097166D02*
X0055631Y0099528D01*
X0050709Y0099528D01*
X0050611Y0099430D01*
X0050611Y0097068D01*
X0050709Y0094213D02*
X0046772Y0094213D01*
X0043765Y0097221D01*
X0043623Y0097221D01*
X0043623Y0091300D02*
X0047993Y0091300D01*
X0048052Y0091359D01*
X0050611Y0091359D02*
X0050709Y0091457D01*
X0050709Y0094213D01*
X0055631Y0097166D02*
X0055729Y0097068D01*
X0060068Y0097068D01*
X0060221Y0097221D01*
X0057442Y0142206D02*
X0055040Y0142245D01*
X0053072Y0142245D01*
X0051743Y0143574D01*
X0051497Y0143574D01*
X0053072Y0144607D02*
X0051694Y0145985D01*
X0051694Y0146410D01*
X0052073Y0147441D01*
X0052600Y0147968D01*
X0052938Y0147968D01*
X0053515Y0148544D01*
X0054843Y0147166D02*
X0053515Y0146576D01*
X0054843Y0147166D02*
X0055434Y0148544D01*
X0057402Y0151024D01*
X0057402Y0151054D01*
X0057599Y0146576D02*
X0055089Y0144607D01*
X0053515Y0144607D01*
X0053072Y0144607D01*
X0050119Y0145837D02*
X0049528Y0143574D01*
X0048526Y0144576D01*
X0047541Y0144576D01*
X0047511Y0144607D01*
X0046182Y0144607D01*
X0043820Y0142186D01*
X0047511Y0144607D02*
X0048495Y0144607D01*
X0048526Y0144576D01*
X0050119Y0145837D02*
X0051497Y0149578D01*
X0049528Y0149578D02*
X0049528Y0149725D01*
X0048150Y0151103D01*
X0044410Y0151103D01*
X0043938Y0151024D01*
X0047511Y0148544D02*
X0047511Y0146576D01*
X0041851Y0146576D01*
X0043820Y0189430D02*
X0046182Y0191851D01*
X0047511Y0191851D01*
X0047541Y0191820D01*
X0048526Y0191820D01*
X0049528Y0190818D01*
X0050119Y0193081D01*
X0051497Y0196822D01*
X0052600Y0195212D02*
X0052938Y0195212D01*
X0053515Y0195788D01*
X0052600Y0195212D02*
X0052073Y0194685D01*
X0051694Y0193654D01*
X0051694Y0193229D01*
X0053072Y0191851D01*
X0053515Y0191851D01*
X0055089Y0191851D01*
X0057599Y0193820D01*
X0054843Y0194410D02*
X0055434Y0195788D01*
X0057402Y0198269D01*
X0057402Y0198298D01*
X0054843Y0194410D02*
X0053515Y0193820D01*
X0049528Y0196822D02*
X0049528Y0196969D01*
X0048150Y0198347D01*
X0044410Y0198347D01*
X0043938Y0198269D01*
X0047511Y0195788D02*
X0047511Y0193820D01*
X0041851Y0193820D01*
X0047511Y0191851D02*
X0048495Y0191851D01*
X0048526Y0191820D01*
X0051497Y0190818D02*
X0051743Y0190818D01*
X0053072Y0189489D01*
X0055040Y0189489D01*
X0057442Y0189450D01*
X0104843Y0193820D02*
X0110503Y0193820D01*
X0110503Y0195788D01*
X0112520Y0196822D02*
X0112520Y0196969D01*
X0111143Y0198347D01*
X0107402Y0198347D01*
X0106930Y0198269D01*
X0109174Y0191851D02*
X0106812Y0189430D01*
X0109174Y0191851D02*
X0110503Y0191851D01*
X0110533Y0191820D01*
X0111518Y0191820D01*
X0112520Y0190818D01*
X0113111Y0193081D01*
X0114489Y0196822D01*
X0115593Y0195212D02*
X0115930Y0195212D01*
X0116507Y0195788D01*
X0115593Y0195212D02*
X0115065Y0194685D01*
X0114686Y0193654D01*
X0114686Y0193229D01*
X0116064Y0191851D01*
X0116507Y0191851D01*
X0118081Y0191851D01*
X0120591Y0193820D01*
X0117835Y0194410D02*
X0118426Y0195788D01*
X0120394Y0198269D01*
X0120394Y0198298D01*
X0117835Y0194410D02*
X0116507Y0193820D01*
X0111518Y0191820D02*
X0111487Y0191851D01*
X0110503Y0191851D01*
X0114489Y0190818D02*
X0114735Y0190818D01*
X0116064Y0189489D01*
X0118032Y0189489D01*
X0120434Y0189450D01*
X0171772Y0193820D02*
X0177432Y0193820D01*
X0177432Y0195788D01*
X0179450Y0196822D02*
X0179450Y0196969D01*
X0178072Y0198347D01*
X0174331Y0198347D01*
X0173859Y0198269D01*
X0181418Y0196822D02*
X0180040Y0193081D01*
X0179450Y0190818D01*
X0178447Y0191820D01*
X0177463Y0191820D01*
X0177432Y0191851D01*
X0176103Y0191851D01*
X0173741Y0189430D01*
X0177432Y0191851D02*
X0178416Y0191851D01*
X0178447Y0191820D01*
X0181418Y0190818D02*
X0181664Y0190818D01*
X0182993Y0189489D01*
X0184961Y0189489D01*
X0187363Y0189450D01*
X0185011Y0191851D02*
X0187520Y0193820D01*
X0184765Y0194410D02*
X0185355Y0195788D01*
X0187324Y0198269D01*
X0187324Y0198298D01*
X0183436Y0195788D02*
X0182859Y0195212D01*
X0182522Y0195212D01*
X0181994Y0194685D01*
X0181615Y0193654D01*
X0181615Y0193229D01*
X0182993Y0191851D01*
X0183436Y0191851D01*
X0185011Y0191851D01*
X0183436Y0193820D02*
X0184765Y0194410D01*
X0120394Y0151054D02*
X0120394Y0151024D01*
X0118426Y0148544D01*
X0117835Y0147166D01*
X0116507Y0146576D01*
X0115930Y0147968D02*
X0116507Y0148544D01*
X0115930Y0147968D02*
X0115593Y0147968D01*
X0115065Y0147441D01*
X0114686Y0146410D01*
X0114686Y0145985D01*
X0116064Y0144607D01*
X0116507Y0144607D01*
X0118081Y0144607D01*
X0120591Y0146576D01*
X0116064Y0142245D02*
X0114735Y0143574D01*
X0114489Y0143574D01*
X0112520Y0143574D02*
X0113111Y0145837D01*
X0114489Y0149578D01*
X0112520Y0149578D02*
X0112520Y0149725D01*
X0111143Y0151103D01*
X0107402Y0151103D01*
X0106930Y0151024D01*
X0110503Y0148544D02*
X0110503Y0146576D01*
X0104843Y0146576D01*
X0109174Y0144607D02*
X0106812Y0142186D01*
X0109174Y0144607D02*
X0110503Y0144607D01*
X0110533Y0144576D01*
X0111518Y0144576D01*
X0112520Y0143574D01*
X0111518Y0144576D02*
X0111487Y0144607D01*
X0110503Y0144607D01*
X0116064Y0142245D02*
X0118032Y0142245D01*
X0120434Y0142206D01*
X0236536Y0097221D02*
X0236678Y0097221D01*
X0239686Y0094213D01*
X0243623Y0094213D01*
X0243623Y0091457D01*
X0243524Y0091359D01*
X0240965Y0091359D02*
X0240906Y0091300D01*
X0236536Y0091300D01*
X0243524Y0097068D02*
X0243524Y0099430D01*
X0243623Y0099528D01*
X0248544Y0099528D01*
X0248544Y0097166D01*
X0248643Y0097068D01*
X0252981Y0097068D01*
X0253135Y0097221D01*
X0248544Y0094017D02*
X0248544Y0091457D01*
X0248643Y0091359D01*
X0253076Y0091359D01*
X0253135Y0091300D01*
X0248544Y0094017D02*
X0248347Y0094213D01*
X0246969Y0094213D01*
X0246083Y0095099D01*
X0246083Y0097068D01*
D11*
X0253135Y0097221D03*
X0253135Y0091300D03*
X0236536Y0091300D03*
X0236536Y0097221D03*
X0190143Y0097221D03*
X0190143Y0091300D03*
X0173544Y0091300D03*
X0173544Y0097221D03*
X0123213Y0097221D03*
X0123213Y0091300D03*
X0106615Y0091300D03*
X0106615Y0097221D03*
X0060221Y0097221D03*
X0060221Y0091300D03*
X0043623Y0091300D03*
X0043623Y0097221D03*
X0043820Y0142186D03*
X0041851Y0146576D03*
X0043938Y0151024D03*
X0057402Y0151024D03*
X0057442Y0142206D03*
X0104843Y0146576D03*
X0106812Y0142186D03*
X0106930Y0151024D03*
X0120394Y0151024D03*
X0120434Y0142206D03*
X0171772Y0146576D03*
X0173741Y0142186D03*
X0173859Y0151024D03*
X0187324Y0151024D03*
X0187363Y0142206D03*
X0234765Y0146576D03*
X0236733Y0142186D03*
X0236851Y0151024D03*
X0250316Y0151024D03*
X0250355Y0142206D03*
X0301694Y0146576D03*
X0303662Y0142186D03*
X0317284Y0142206D03*
X0317245Y0151024D03*
X0303780Y0151024D03*
X0303662Y0189430D03*
X0301694Y0193820D03*
X0303780Y0198269D03*
X0317245Y0198269D03*
X0317284Y0189450D03*
X0250355Y0189450D03*
X0250316Y0198269D03*
X0236851Y0198269D03*
X0234765Y0193820D03*
X0236733Y0189430D03*
X0187363Y0189450D03*
X0187324Y0198269D03*
X0173859Y0198269D03*
X0171772Y0193820D03*
X0173741Y0189430D03*
X0120434Y0189450D03*
X0120394Y0198269D03*
X0106930Y0198269D03*
X0104843Y0193820D03*
X0106812Y0189430D03*
X0057442Y0189450D03*
X0057402Y0198269D03*
X0043938Y0198269D03*
X0041851Y0193820D03*
X0043820Y0189430D03*
X0043623Y0049977D03*
X0043623Y0044056D03*
X0060221Y0044056D03*
X0060221Y0049977D03*
X0106615Y0049977D03*
X0106615Y0044056D03*
X0123213Y0044056D03*
X0123213Y0049977D03*
X0173544Y0049977D03*
X0173544Y0044056D03*
X0190143Y0044056D03*
X0190143Y0049977D03*
X0236536Y0049977D03*
X0236536Y0044056D03*
X0253135Y0044056D03*
X0253135Y0049977D03*
X0303465Y0049977D03*
X0303465Y0044056D03*
X0320064Y0044056D03*
X0320064Y0049977D03*
X0320064Y0091300D03*
X0320064Y0097221D03*
X0303465Y0097221D03*
X0303465Y0091300D03*
D12*
X0307894Y0091359D03*
X0310454Y0091359D03*
X0313013Y0091359D03*
X0315572Y0091359D03*
X0315572Y0097068D03*
X0313013Y0097068D03*
X0310454Y0097068D03*
X0307894Y0097068D03*
X0248643Y0097068D03*
X0246083Y0097068D03*
X0243524Y0097068D03*
X0240965Y0097068D03*
X0240965Y0091359D03*
X0243524Y0091359D03*
X0246083Y0091359D03*
X0248643Y0091359D03*
X0185650Y0091359D03*
X0183091Y0091359D03*
X0180532Y0091359D03*
X0177973Y0091359D03*
X0177973Y0097068D03*
X0180532Y0097068D03*
X0183091Y0097068D03*
X0185650Y0097068D03*
X0118721Y0097068D03*
X0116162Y0097068D03*
X0113603Y0097068D03*
X0111044Y0097068D03*
X0111044Y0091359D03*
X0113603Y0091359D03*
X0116162Y0091359D03*
X0118721Y0091359D03*
X0118721Y0049824D03*
X0116162Y0049824D03*
X0113603Y0049824D03*
X0111044Y0049824D03*
X0111044Y0044115D03*
X0113603Y0044115D03*
X0116162Y0044115D03*
X0118721Y0044115D03*
X0177973Y0044115D03*
X0180532Y0044115D03*
X0183091Y0044115D03*
X0185650Y0044115D03*
X0185650Y0049824D03*
X0183091Y0049824D03*
X0180532Y0049824D03*
X0177973Y0049824D03*
X0240965Y0049824D03*
X0243524Y0049824D03*
X0246083Y0049824D03*
X0248643Y0049824D03*
X0248643Y0044115D03*
X0246083Y0044115D03*
X0243524Y0044115D03*
X0240965Y0044115D03*
X0307894Y0044115D03*
X0310454Y0044115D03*
X0313013Y0044115D03*
X0315572Y0044115D03*
X0315572Y0049824D03*
X0313013Y0049824D03*
X0310454Y0049824D03*
X0307894Y0049824D03*
X0055729Y0049824D03*
X0053170Y0049824D03*
X0050611Y0049824D03*
X0048052Y0049824D03*
X0048052Y0044115D03*
X0050611Y0044115D03*
X0053170Y0044115D03*
X0055729Y0044115D03*
X0055729Y0091359D03*
X0053170Y0091359D03*
X0050611Y0091359D03*
X0048052Y0091359D03*
X0048052Y0097068D03*
X0050611Y0097068D03*
X0053170Y0097068D03*
X0055729Y0097068D03*
D13*
X0051497Y0143574D03*
X0049528Y0143574D03*
X0049528Y0149578D03*
X0051497Y0149578D03*
X0051497Y0190818D03*
X0049528Y0190818D03*
X0049528Y0196822D03*
X0051497Y0196822D03*
X0112520Y0196822D03*
X0114489Y0196822D03*
X0114489Y0190818D03*
X0112520Y0190818D03*
X0112520Y0149578D03*
X0114489Y0149578D03*
X0114489Y0143574D03*
X0112520Y0143574D03*
X0179450Y0143574D03*
X0181418Y0143574D03*
X0181418Y0149578D03*
X0179450Y0149578D03*
X0179450Y0190818D03*
X0181418Y0190818D03*
X0181418Y0196822D03*
X0179450Y0196822D03*
X0242442Y0196822D03*
X0244410Y0196822D03*
X0244410Y0190818D03*
X0242442Y0190818D03*
X0242442Y0149578D03*
X0244410Y0149578D03*
X0244410Y0143574D03*
X0242442Y0143574D03*
X0309371Y0143574D03*
X0311339Y0143574D03*
X0311339Y0149578D03*
X0309371Y0149578D03*
X0309371Y0190818D03*
X0311339Y0190818D03*
X0311339Y0196822D03*
X0309371Y0196822D03*
D14*
X0307353Y0195788D03*
X0307353Y0193820D03*
X0307353Y0191851D03*
X0313357Y0191851D03*
X0313357Y0193820D03*
X0313357Y0195788D03*
X0246428Y0195788D03*
X0246428Y0193820D03*
X0246428Y0191851D03*
X0240424Y0191851D03*
X0240424Y0193820D03*
X0240424Y0195788D03*
X0183436Y0195788D03*
X0183436Y0193820D03*
X0183436Y0191851D03*
X0177432Y0191851D03*
X0177432Y0193820D03*
X0177432Y0195788D03*
X0116507Y0195788D03*
X0116507Y0193820D03*
X0116507Y0191851D03*
X0110503Y0191851D03*
X0110503Y0193820D03*
X0110503Y0195788D03*
X0053515Y0195788D03*
X0053515Y0193820D03*
X0053515Y0191851D03*
X0047511Y0191851D03*
X0047511Y0193820D03*
X0047511Y0195788D03*
X0047511Y0148544D03*
X0047511Y0146576D03*
X0047511Y0144607D03*
X0053515Y0144607D03*
X0053515Y0146576D03*
X0053515Y0148544D03*
X0110503Y0148544D03*
X0110503Y0146576D03*
X0110503Y0144607D03*
X0116507Y0144607D03*
X0116507Y0146576D03*
X0116507Y0148544D03*
X0177432Y0148544D03*
X0177432Y0146576D03*
X0177432Y0144607D03*
X0183436Y0144607D03*
X0183436Y0146576D03*
X0183436Y0148544D03*
X0240424Y0148544D03*
X0240424Y0146576D03*
X0240424Y0144607D03*
X0246428Y0144607D03*
X0246428Y0146576D03*
X0246428Y0148544D03*
X0307353Y0148544D03*
X0307353Y0146576D03*
X0307353Y0144607D03*
X0313357Y0144607D03*
X0313357Y0146576D03*
X0313357Y0148544D03*
D15*
X0317442Y0146576D03*
X0250513Y0146576D03*
X0187520Y0146576D03*
X0120591Y0146576D03*
X0057599Y0146576D03*
X0057599Y0193820D03*
X0120591Y0193820D03*
X0187520Y0193820D03*
X0250513Y0193820D03*
X0317442Y0193820D03*
M02*
