%
M48
M72
T01C0.0138
T02C0.0177
%
T01
X5760Y14658
X12059Y14658
X18752Y14658
X25051Y14658
X31744Y14658
X31744Y19382
X25051Y19382
X18752Y19382
X12059Y19382
X5760Y19382
T02
X4362Y4406
X4362Y4998
X6022Y4998
X6022Y4406
X10661Y4406
X10661Y4998
X12321Y4998
X12321Y4406
X17354Y4406
X17354Y4998
X19014Y4998
X19014Y4406
X23654Y4406
X23654Y4998
X25313Y4998
X25313Y4406
X30347Y4406
X30347Y4998
X32006Y4998
X32006Y4406
X32006Y9130
X32006Y9722
X30347Y9722
X30347Y9130
X25313Y9130
X25313Y9722
X23654Y9722
X23654Y9130
X19014Y9130
X19014Y9722
X17354Y9722
X17354Y9130
X12321Y9130
X12321Y9722
X10661Y9722
X10661Y9130
X6022Y9130
X6022Y9722
X4362Y9722
X4362Y9130
X4382Y14219
X4185Y14658
X4394Y15102
X5740Y15102
X5744Y14221
X10484Y14658
X10681Y14219
X10693Y15102
X12039Y15102
X12043Y14221
X17177Y14658
X17374Y14219
X17386Y15102
X18732Y15102
X18736Y14221
X23476Y14658
X23673Y14219
X23685Y15102
X25032Y15102
X25036Y14221
X30169Y14658
X30366Y14219
X31728Y14221
X31724Y15102
X30378Y15102
X30366Y18943
X30169Y19382
X30378Y19827
X31724Y19827
X31728Y18945
X25036Y18945
X25032Y19827
X23685Y19827
X23476Y19382
X23673Y18943
X18736Y18945
X18732Y19827
X17386Y19827
X17177Y19382
X17374Y18943
X12043Y18945
X12039Y19827
X10693Y19827
X10484Y19382
X10681Y18943
X5744Y18945
X5740Y19827
X4394Y19827
X4185Y19382
X4382Y18943
M30
