G75*
%MOIN*%
%OFA0B0*%
%FSLAX25Y25*%
%IPPOS*%
%LPD*%
%AMOC8*
5,1,8,0,0,1.08239X$1,22.5*
%
%ADD10C,0.04572*%
%ADD11R,0.02375X0.02375*%
%ADD12R,0.01784X0.01883*%
%ADD13R,0.01883X0.01784*%
%ADD14C,0.03778*%
D10*
X0043623Y0044056D03*
X0043623Y0049977D03*
X0060221Y0049977D03*
X0060221Y0044056D03*
X0106615Y0044056D03*
X0106615Y0049977D03*
X0123213Y0049977D03*
X0123213Y0044056D03*
X0173544Y0044056D03*
X0173544Y0049977D03*
X0190143Y0049977D03*
X0190143Y0044056D03*
X0236536Y0044056D03*
X0236536Y0049977D03*
X0253135Y0049977D03*
X0253135Y0044056D03*
X0303465Y0044056D03*
X0303465Y0049977D03*
X0320064Y0049977D03*
X0320064Y0044056D03*
X0320064Y0091300D03*
X0320064Y0097221D03*
X0303465Y0097221D03*
X0303465Y0091300D03*
X0253135Y0091300D03*
X0253135Y0097221D03*
X0236536Y0097221D03*
X0236536Y0091300D03*
X0190143Y0091300D03*
X0190143Y0097221D03*
X0173544Y0097221D03*
X0173544Y0091300D03*
X0123213Y0091300D03*
X0123213Y0097221D03*
X0106615Y0097221D03*
X0106615Y0091300D03*
X0060221Y0091300D03*
X0060221Y0097221D03*
X0043623Y0097221D03*
X0043623Y0091300D03*
X0043820Y0142186D03*
X0041851Y0146576D03*
X0043938Y0151024D03*
X0057402Y0151024D03*
X0057442Y0142206D03*
X0104843Y0146576D03*
X0106812Y0142186D03*
X0106930Y0151024D03*
X0120394Y0151024D03*
X0120434Y0142206D03*
X0171772Y0146576D03*
X0173741Y0142186D03*
X0173859Y0151024D03*
X0187324Y0151024D03*
X0187363Y0142206D03*
X0234765Y0146576D03*
X0236733Y0142186D03*
X0236851Y0151024D03*
X0250316Y0151024D03*
X0250355Y0142206D03*
X0301694Y0146576D03*
X0303662Y0142186D03*
X0317284Y0142206D03*
X0317245Y0151024D03*
X0303780Y0151024D03*
X0303662Y0189430D03*
X0301694Y0193820D03*
X0303780Y0198269D03*
X0317245Y0198269D03*
X0317284Y0189450D03*
X0250355Y0189450D03*
X0250316Y0198269D03*
X0236851Y0198269D03*
X0234765Y0193820D03*
X0236733Y0189430D03*
X0187363Y0189450D03*
X0187324Y0198269D03*
X0173859Y0198269D03*
X0171772Y0193820D03*
X0173741Y0189430D03*
X0120434Y0189450D03*
X0120394Y0198269D03*
X0106930Y0198269D03*
X0104843Y0193820D03*
X0106812Y0189430D03*
X0057442Y0189450D03*
X0057402Y0198269D03*
X0043938Y0198269D03*
X0041851Y0193820D03*
X0043820Y0189430D03*
D11*
X0048052Y0097068D03*
X0050611Y0097068D03*
X0053170Y0097068D03*
X0055729Y0097068D03*
X0055729Y0091359D03*
X0053170Y0091359D03*
X0050611Y0091359D03*
X0048052Y0091359D03*
X0048052Y0049824D03*
X0050611Y0049824D03*
X0053170Y0049824D03*
X0055729Y0049824D03*
X0055729Y0044115D03*
X0053170Y0044115D03*
X0050611Y0044115D03*
X0048052Y0044115D03*
X0111044Y0044115D03*
X0113603Y0044115D03*
X0116162Y0044115D03*
X0118721Y0044115D03*
X0118721Y0049824D03*
X0116162Y0049824D03*
X0113603Y0049824D03*
X0111044Y0049824D03*
X0111044Y0091359D03*
X0113603Y0091359D03*
X0116162Y0091359D03*
X0118721Y0091359D03*
X0118721Y0097068D03*
X0116162Y0097068D03*
X0113603Y0097068D03*
X0111044Y0097068D03*
X0177973Y0097068D03*
X0180532Y0097068D03*
X0183091Y0097068D03*
X0185650Y0097068D03*
X0185650Y0091359D03*
X0183091Y0091359D03*
X0180532Y0091359D03*
X0177973Y0091359D03*
X0177973Y0049824D03*
X0180532Y0049824D03*
X0183091Y0049824D03*
X0185650Y0049824D03*
X0185650Y0044115D03*
X0183091Y0044115D03*
X0180532Y0044115D03*
X0177973Y0044115D03*
X0240965Y0044115D03*
X0243524Y0044115D03*
X0246083Y0044115D03*
X0248643Y0044115D03*
X0248643Y0049824D03*
X0246083Y0049824D03*
X0243524Y0049824D03*
X0240965Y0049824D03*
X0240965Y0091359D03*
X0243524Y0091359D03*
X0246083Y0091359D03*
X0248643Y0091359D03*
X0248643Y0097068D03*
X0246083Y0097068D03*
X0243524Y0097068D03*
X0240965Y0097068D03*
X0307894Y0097068D03*
X0310454Y0097068D03*
X0313013Y0097068D03*
X0315572Y0097068D03*
X0315572Y0091359D03*
X0313013Y0091359D03*
X0310454Y0091359D03*
X0307894Y0091359D03*
X0307894Y0049824D03*
X0310454Y0049824D03*
X0313013Y0049824D03*
X0315572Y0049824D03*
X0315572Y0044115D03*
X0313013Y0044115D03*
X0310454Y0044115D03*
X0307894Y0044115D03*
D12*
X0309371Y0143574D03*
X0311339Y0143574D03*
X0311339Y0149578D03*
X0309371Y0149578D03*
X0309371Y0190818D03*
X0311339Y0190818D03*
X0311339Y0196822D03*
X0309371Y0196822D03*
X0244410Y0196822D03*
X0242442Y0196822D03*
X0242442Y0190818D03*
X0244410Y0190818D03*
X0244410Y0149578D03*
X0242442Y0149578D03*
X0242442Y0143574D03*
X0244410Y0143574D03*
X0181418Y0143574D03*
X0179450Y0143574D03*
X0179450Y0149578D03*
X0181418Y0149578D03*
X0181418Y0190818D03*
X0179450Y0190818D03*
X0179450Y0196822D03*
X0181418Y0196822D03*
X0114489Y0196822D03*
X0112520Y0196822D03*
X0112520Y0190818D03*
X0114489Y0190818D03*
X0114489Y0149578D03*
X0112520Y0149578D03*
X0112520Y0143574D03*
X0114489Y0143574D03*
X0051497Y0143574D03*
X0049528Y0143574D03*
X0049528Y0149578D03*
X0051497Y0149578D03*
X0051497Y0190818D03*
X0049528Y0190818D03*
X0049528Y0196822D03*
X0051497Y0196822D03*
D13*
X0053515Y0195788D03*
X0053515Y0193820D03*
X0053515Y0191851D03*
X0047511Y0191851D03*
X0047511Y0193820D03*
X0047511Y0195788D03*
X0110503Y0195788D03*
X0110503Y0193820D03*
X0110503Y0191851D03*
X0116507Y0191851D03*
X0116507Y0193820D03*
X0116507Y0195788D03*
X0177432Y0195788D03*
X0177432Y0193820D03*
X0177432Y0191851D03*
X0183436Y0191851D03*
X0183436Y0193820D03*
X0183436Y0195788D03*
X0240424Y0195788D03*
X0240424Y0193820D03*
X0240424Y0191851D03*
X0246428Y0191851D03*
X0246428Y0193820D03*
X0246428Y0195788D03*
X0307353Y0195788D03*
X0307353Y0193820D03*
X0307353Y0191851D03*
X0313357Y0191851D03*
X0313357Y0193820D03*
X0313357Y0195788D03*
X0313357Y0148544D03*
X0313357Y0146576D03*
X0313357Y0144607D03*
X0307353Y0144607D03*
X0307353Y0146576D03*
X0307353Y0148544D03*
X0246428Y0148544D03*
X0246428Y0146576D03*
X0246428Y0144607D03*
X0240424Y0144607D03*
X0240424Y0146576D03*
X0240424Y0148544D03*
X0183436Y0148544D03*
X0183436Y0146576D03*
X0183436Y0144607D03*
X0177432Y0144607D03*
X0177432Y0146576D03*
X0177432Y0148544D03*
X0116507Y0148544D03*
X0116507Y0146576D03*
X0116507Y0144607D03*
X0110503Y0144607D03*
X0110503Y0146576D03*
X0110503Y0148544D03*
X0053515Y0148544D03*
X0053515Y0146576D03*
X0053515Y0144607D03*
X0047511Y0144607D03*
X0047511Y0146576D03*
X0047511Y0148544D03*
D14*
X0057599Y0146576D03*
X0120591Y0146576D03*
X0187520Y0146576D03*
X0250513Y0146576D03*
X0317442Y0146576D03*
X0317442Y0193820D03*
X0250513Y0193820D03*
X0187520Y0193820D03*
X0120591Y0193820D03*
X0057599Y0193820D03*
M02*
