G75*
%MOIN*%
%OFA0B0*%
%FSLAX25Y25*%
%IPPOS*%
%LPD*%
%AMOC8*
5,1,8,0,0,1.08239X$1,22.5*
%
%ADD10C,0.00100*%
D10*
X0048945Y0147807D02*
X0048945Y0148707D01*
X0048344Y0148707D01*
X0048645Y0148257D02*
X0048945Y0148257D01*
X0049265Y0148257D02*
X0049265Y0147807D01*
X0049265Y0148257D02*
X0049415Y0148407D01*
X0049866Y0148407D01*
X0049866Y0147807D01*
X0050186Y0147957D02*
X0050186Y0148557D01*
X0050786Y0147957D01*
X0050636Y0147807D01*
X0050336Y0147807D01*
X0050186Y0147957D01*
X0050186Y0148557D02*
X0050336Y0148707D01*
X0050636Y0148707D01*
X0050786Y0148557D01*
X0050786Y0147957D01*
X0051107Y0147957D02*
X0051257Y0147807D01*
X0051557Y0147807D01*
X0051707Y0147957D01*
X0051107Y0148557D01*
X0051107Y0147957D01*
X0051707Y0147957D02*
X0051707Y0148557D01*
X0051557Y0148707D01*
X0051257Y0148707D01*
X0051107Y0148557D01*
X0052027Y0147807D02*
X0052628Y0147807D01*
X0052328Y0147807D02*
X0052328Y0148707D01*
X0052628Y0148407D01*
X0111336Y0148707D02*
X0111937Y0148707D01*
X0111937Y0147807D01*
X0112257Y0147807D02*
X0112257Y0148257D01*
X0112407Y0148407D01*
X0112858Y0148407D01*
X0112858Y0147807D01*
X0113178Y0147957D02*
X0113328Y0147807D01*
X0113628Y0147807D01*
X0113779Y0147957D01*
X0113178Y0148557D01*
X0113178Y0147957D01*
X0113178Y0148557D02*
X0113328Y0148707D01*
X0113628Y0148707D01*
X0113779Y0148557D01*
X0113779Y0147957D01*
X0114099Y0147957D02*
X0114249Y0147807D01*
X0114549Y0147807D01*
X0114699Y0147957D01*
X0114099Y0148557D01*
X0114099Y0147957D01*
X0114699Y0147957D02*
X0114699Y0148557D01*
X0114549Y0148707D01*
X0114249Y0148707D01*
X0114099Y0148557D01*
X0115020Y0147807D02*
X0115620Y0147807D01*
X0115320Y0147807D02*
X0115320Y0148707D01*
X0115620Y0148407D01*
X0111937Y0148257D02*
X0111637Y0148257D01*
X0178266Y0148707D02*
X0178866Y0148707D01*
X0178866Y0147807D01*
X0179186Y0147807D02*
X0179186Y0148257D01*
X0179336Y0148407D01*
X0179787Y0148407D01*
X0179787Y0147807D01*
X0180107Y0147957D02*
X0180257Y0147807D01*
X0180558Y0147807D01*
X0180708Y0147957D01*
X0180107Y0148557D01*
X0180107Y0147957D01*
X0180107Y0148557D02*
X0180257Y0148707D01*
X0180558Y0148707D01*
X0180708Y0148557D01*
X0180708Y0147957D01*
X0181028Y0147957D02*
X0181178Y0147807D01*
X0181478Y0147807D01*
X0181628Y0147957D01*
X0181028Y0148557D01*
X0181028Y0147957D01*
X0181028Y0148557D02*
X0181178Y0148707D01*
X0181478Y0148707D01*
X0181628Y0148557D01*
X0181628Y0147957D01*
X0181949Y0147807D02*
X0182549Y0147807D01*
X0182249Y0147807D02*
X0182249Y0148707D01*
X0182549Y0148407D01*
X0178866Y0148257D02*
X0178566Y0148257D01*
X0241258Y0148707D02*
X0241858Y0148707D01*
X0241858Y0147807D01*
X0242178Y0147807D02*
X0242178Y0148257D01*
X0242329Y0148407D01*
X0242779Y0148407D01*
X0242779Y0147807D01*
X0243099Y0147957D02*
X0243249Y0147807D01*
X0243550Y0147807D01*
X0243700Y0147957D01*
X0243099Y0148557D01*
X0243099Y0147957D01*
X0243099Y0148557D02*
X0243249Y0148707D01*
X0243550Y0148707D01*
X0243700Y0148557D01*
X0243700Y0147957D01*
X0244020Y0147957D02*
X0244170Y0147807D01*
X0244470Y0147807D01*
X0244621Y0147957D01*
X0244020Y0148557D01*
X0244020Y0147957D01*
X0244020Y0148557D02*
X0244170Y0148707D01*
X0244470Y0148707D01*
X0244621Y0148557D01*
X0244621Y0147957D01*
X0244941Y0147807D02*
X0245541Y0147807D01*
X0245241Y0147807D02*
X0245241Y0148707D01*
X0245541Y0148407D01*
X0241858Y0148257D02*
X0241558Y0148257D01*
X0241858Y0195051D02*
X0241858Y0195952D01*
X0241258Y0195952D01*
X0241558Y0195501D02*
X0241858Y0195501D01*
X0242178Y0195501D02*
X0242178Y0195051D01*
X0242178Y0195501D02*
X0242329Y0195651D01*
X0242779Y0195651D01*
X0242779Y0195051D01*
X0243099Y0195201D02*
X0243249Y0195051D01*
X0243550Y0195051D01*
X0243700Y0195201D01*
X0243099Y0195801D01*
X0243099Y0195201D01*
X0243099Y0195801D02*
X0243249Y0195952D01*
X0243550Y0195952D01*
X0243700Y0195801D01*
X0243700Y0195201D01*
X0244020Y0195201D02*
X0244170Y0195051D01*
X0244470Y0195051D01*
X0244621Y0195201D01*
X0244020Y0195801D01*
X0244020Y0195201D01*
X0244020Y0195801D02*
X0244170Y0195952D01*
X0244470Y0195952D01*
X0244621Y0195801D01*
X0244621Y0195201D01*
X0244941Y0195051D02*
X0245541Y0195051D01*
X0245241Y0195051D02*
X0245241Y0195952D01*
X0245541Y0195651D01*
X0182549Y0195651D02*
X0182249Y0195952D01*
X0182249Y0195051D01*
X0182549Y0195051D02*
X0181949Y0195051D01*
X0181628Y0195201D02*
X0181028Y0195801D01*
X0181028Y0195201D01*
X0181178Y0195051D01*
X0181478Y0195051D01*
X0181628Y0195201D01*
X0181628Y0195801D01*
X0181478Y0195952D01*
X0181178Y0195952D01*
X0181028Y0195801D01*
X0180708Y0195801D02*
X0180558Y0195952D01*
X0180257Y0195952D01*
X0180107Y0195801D01*
X0180708Y0195201D01*
X0180558Y0195051D01*
X0180257Y0195051D01*
X0180107Y0195201D01*
X0180107Y0195801D01*
X0179787Y0195651D02*
X0179336Y0195651D01*
X0179186Y0195501D01*
X0179186Y0195051D01*
X0178866Y0195051D02*
X0178866Y0195952D01*
X0178266Y0195952D01*
X0178566Y0195501D02*
X0178866Y0195501D01*
X0179787Y0195651D02*
X0179787Y0195051D01*
X0180708Y0195201D02*
X0180708Y0195801D01*
X0115620Y0195651D02*
X0115320Y0195952D01*
X0115320Y0195051D01*
X0115620Y0195051D02*
X0115020Y0195051D01*
X0114699Y0195201D02*
X0114099Y0195801D01*
X0114099Y0195201D01*
X0114249Y0195051D01*
X0114549Y0195051D01*
X0114699Y0195201D01*
X0114699Y0195801D01*
X0114549Y0195952D01*
X0114249Y0195952D01*
X0114099Y0195801D01*
X0113779Y0195801D02*
X0113628Y0195952D01*
X0113328Y0195952D01*
X0113178Y0195801D01*
X0113779Y0195201D01*
X0113628Y0195051D01*
X0113328Y0195051D01*
X0113178Y0195201D01*
X0113178Y0195801D01*
X0112858Y0195651D02*
X0112407Y0195651D01*
X0112257Y0195501D01*
X0112257Y0195051D01*
X0111937Y0195051D02*
X0111937Y0195952D01*
X0111336Y0195952D01*
X0111637Y0195501D02*
X0111937Y0195501D01*
X0112858Y0195651D02*
X0112858Y0195051D01*
X0113779Y0195201D02*
X0113779Y0195801D01*
X0052628Y0195651D02*
X0052328Y0195952D01*
X0052328Y0195051D01*
X0052628Y0195051D02*
X0052027Y0195051D01*
X0051707Y0195201D02*
X0051107Y0195801D01*
X0051107Y0195201D01*
X0051257Y0195051D01*
X0051557Y0195051D01*
X0051707Y0195201D01*
X0051707Y0195801D01*
X0051557Y0195952D01*
X0051257Y0195952D01*
X0051107Y0195801D01*
X0050786Y0195801D02*
X0050636Y0195952D01*
X0050336Y0195952D01*
X0050186Y0195801D01*
X0050786Y0195201D01*
X0050636Y0195051D01*
X0050336Y0195051D01*
X0050186Y0195201D01*
X0050186Y0195801D01*
X0049866Y0195651D02*
X0049415Y0195651D01*
X0049265Y0195501D01*
X0049265Y0195051D01*
X0048945Y0195051D02*
X0048945Y0195952D01*
X0048344Y0195952D01*
X0048645Y0195501D02*
X0048945Y0195501D01*
X0049866Y0195651D02*
X0049866Y0195051D01*
X0050786Y0195201D02*
X0050786Y0195801D01*
X0308187Y0195952D02*
X0308787Y0195952D01*
X0308787Y0195051D01*
X0309108Y0195051D02*
X0309108Y0195501D01*
X0309258Y0195651D01*
X0309708Y0195651D01*
X0309708Y0195051D01*
X0310028Y0195201D02*
X0310179Y0195051D01*
X0310479Y0195051D01*
X0310629Y0195201D01*
X0310028Y0195801D01*
X0310028Y0195201D01*
X0310028Y0195801D02*
X0310179Y0195952D01*
X0310479Y0195952D01*
X0310629Y0195801D01*
X0310629Y0195201D01*
X0310949Y0195201D02*
X0311099Y0195051D01*
X0311400Y0195051D01*
X0311550Y0195201D01*
X0310949Y0195801D01*
X0310949Y0195201D01*
X0310949Y0195801D02*
X0311099Y0195952D01*
X0311400Y0195952D01*
X0311550Y0195801D01*
X0311550Y0195201D01*
X0311870Y0195051D02*
X0312470Y0195051D01*
X0312170Y0195051D02*
X0312170Y0195952D01*
X0312470Y0195651D01*
X0308787Y0195501D02*
X0308487Y0195501D01*
X0308787Y0148707D02*
X0308187Y0148707D01*
X0308487Y0148257D02*
X0308787Y0148257D01*
X0309108Y0148257D02*
X0309108Y0147807D01*
X0308787Y0147807D02*
X0308787Y0148707D01*
X0309108Y0148257D02*
X0309258Y0148407D01*
X0309708Y0148407D01*
X0309708Y0147807D01*
X0310028Y0147957D02*
X0310179Y0147807D01*
X0310479Y0147807D01*
X0310629Y0147957D01*
X0310028Y0148557D01*
X0310028Y0147957D01*
X0310028Y0148557D02*
X0310179Y0148707D01*
X0310479Y0148707D01*
X0310629Y0148557D01*
X0310629Y0147957D01*
X0310949Y0147957D02*
X0311099Y0147807D01*
X0311400Y0147807D01*
X0311550Y0147957D01*
X0310949Y0148557D01*
X0310949Y0147957D01*
X0310949Y0148557D02*
X0311099Y0148707D01*
X0311400Y0148707D01*
X0311550Y0148557D01*
X0311550Y0147957D01*
X0311870Y0147807D02*
X0312470Y0147807D01*
X0312170Y0147807D02*
X0312170Y0148707D01*
X0312470Y0148407D01*
M02*
